<svg width="314" height="308" viewBox="0 0 314 308" fill="none" xmlns="http://www.w3.org/2000/svg">
<g filter="url(#filter0_d_604_476)">
<path d="M240 0H60C26.8629 0 0 26.8629 0 60V240C0 273.137 26.8629 300 60 300H240C273.137 300 300 273.137 300 240V60C300 26.8629 273.137 0 240 0Z" fill="white"/>
<path fill-rule="evenodd" clip-rule="evenodd" d="M219.104 46.1877C192.245 25.9183 171.303 85.416 156.092 92.906C125.437 108.001 68.4984 121.13 79.3573 150.477C94.2673 190.773 146.145 194.793 183.244 190.773C231.499 185.543 271.91 86.0388 219.104 46.1877Z" fill="url(#paint0_linear_604_476)"/>
<path fill-rule="evenodd" clip-rule="evenodd" d="M214.948 111.218C215.207 111.536 215.295 112.035 215.36 112.513L215.754 115.509C215.809 115.926 216.06 116.123 216.157 115.886C216.259 115.635 216.532 115.739 216.715 115.875L219 117.569C218.223 118.346 217.305 118.85 216.357 119.021C215.889 119.105 215.813 119.998 215.863 120.652L215.998 122.43C216.04 122.984 215.415 123.172 215.102 122.825C214.79 122.477 214.671 121.895 214.425 121.456C214.027 120.747 213.324 120.482 212.681 120.565C212.038 120.647 211.435 121.022 210.847 121.393C210.467 121.632 210.05 120.999 210.08 120.42C210.106 119.909 210.34 119.481 210.579 119.083L210.675 118.925C210.943 118.481 211.211 117.955 211.166 117.378C211.128 116.898 210.882 116.511 210.635 116.166L210.49 115.963C210.262 115.637 210.044 115.275 210.004 114.829C209.958 114.32 210.292 113.733 210.643 113.891C211.993 114.499 213.619 113.314 214.03 111.421C214.137 110.929 214.671 110.878 214.948 111.218Z" fill="white"/>
<path fill-rule="evenodd" clip-rule="evenodd" d="M214.948 111.218C215.207 111.536 215.295 112.035 215.36 112.513L215.754 115.509C215.809 115.926 215.689 116.571 215.403 116.425C214.997 115.224 214.781 113.899 214.774 112.571C214.619 112.363 214.388 112.672 214.292 112.94L213.328 115.616C213.158 116.088 212.651 115.984 212.317 115.737L212.138 115.605C211.847 115.395 211.531 115.21 211.256 115.416C211.116 116.002 211.74 116.295 212.064 116.717C212.434 117.198 212.412 118.064 212.153 118.67C211.895 119.276 211.458 119.686 211.035 120.074C211.642 120.213 212.29 119.966 212.761 119.415C212.974 119.165 213.169 118.846 213.442 118.766C213.863 118.644 214.241 119.152 214.46 119.669C214.678 120.185 214.851 120.79 215.225 121.088C215.412 120.677 215.312 120.162 215.194 119.687L215.138 119.466C215.003 118.936 214.942 118.233 215.273 117.911C215.398 117.79 215.553 117.754 215.705 117.731L217.334 117.504L216.396 116.551C216.238 116.39 216.06 116.123 216.157 115.886C216.259 115.635 216.532 115.739 216.715 115.875L219 117.569C218.223 118.346 217.305 118.85 216.357 119.021C215.889 119.105 215.813 119.998 215.863 120.652L215.998 122.43C216.04 122.984 215.415 123.172 215.102 122.825C214.79 122.477 214.671 121.895 214.425 121.456C214.027 120.747 213.324 120.482 212.681 120.565C212.038 120.647 211.435 121.022 210.847 121.393C210.467 121.632 210.05 120.999 210.08 120.42C210.106 119.909 210.34 119.481 210.579 119.083L210.675 118.925C210.943 118.481 211.211 117.955 211.166 117.378C211.128 116.898 210.882 116.511 210.635 116.166L210.49 115.963C210.262 115.637 210.044 115.275 210.004 114.829C209.958 114.32 210.292 113.733 210.643 113.891C211.993 114.499 213.619 113.314 214.03 111.421C214.137 110.929 214.671 110.878 214.948 111.218Z" fill="#FFB61D"/>
<path fill-rule="evenodd" clip-rule="evenodd" d="M119.322 56.9796C118.277 50.8885 121.124 40.7783 126.211 36.7129C131.298 32.6479 137.805 32.3692 143.471 34.7832C143.29 27.6056 148.84 21.4464 154.298 22.0396C159.755 22.6323 164.283 29.0582 165.016 36.1751C165.588 41.7204 163.417 48.3256 159.22 49.3303C160.703 56.2827 161.528 63.5975 160.714 70.7377C159.899 77.8779 157.308 84.8529 152.936 89.2391C151.729 91.3686 152.641 94.5813 154.23 96.2236C155.819 97.8661 157.876 98.4436 159.778 99.3501C167.746 103.148 173.356 113.458 174.664 124.444C175.972 135.43 173.36 146.823 168.639 156.06C165.406 162.386 161.008 168.004 155.505 170.437C147.781 173.852 139.312 170.527 131.812 166.341C128.953 164.745 126.041 162.932 124.023 159.834C121.86 156.512 117.771 158.306 114.822 160.338C116.783 161.405 118.743 162.472 120.704 163.538C121.125 163.768 121.582 164.04 121.778 164.581C122.189 165.719 121.176 166.813 120.318 167.38C119.397 167.988 118.475 168.597 117.554 169.206C111.897 172.941 106.006 176.758 99.6749 176.989C92.7533 177.241 86.2151 173.184 79.9858 169.219C79.2934 168.778 78.5594 168.287 78.1829 167.407C77.8064 166.527 78.0169 165.154 78.7609 164.896C85.7492 162.472 92.3654 158.218 98.1064 152.458C97.6672 148.872 97.7707 145.173 98.4091 141.639C98.5012 141.128 98.6341 140.567 98.9815 140.305C99.8356 139.662 100.577 141.357 100.728 142.633C101.109 145.855 101.49 149.077 101.871 152.298C106.444 151.635 110.882 149.432 114.644 145.958C111.71 142.859 108.776 139.76 105.842 136.661C104.148 134.873 102.514 133.803 101.6 130.302C100.99 127.968 101.482 125.57 103.076 123.108C101.297 111.482 100.519 102.718 100.741 96.816C100.8 95.2407 100.935 93.5399 101.743 92.3722C103.17 90.3111 105.973 91.2001 107.276 93.3984C108.578 95.597 108.796 98.547 108.965 101.322C113.925 100.528 118.885 99.7329 123.845 98.9382C125.66 98.6474 127.539 98.3632 129.286 99.0717C131.477 99.9603 133.237 102.477 133.723 105.417C135.816 104.675 138.096 103.761 139.278 101.378C140.46 98.9942 139.459 94.8481 137.293 94.9711C130.517 95.3553 123.89 88.7614 122.348 80.0998C121.956 77.8968 121.803 75.4489 120.624 73.798C118.755 71.1817 117.332 67.8088 117.341 64.2242C117.35 60.6395 118.495 60.212 119.322 56.9796ZM78.8755 167.297C79.028 167.596 79.2943 167.753 79.5465 167.894C82.1341 169.346 84.7215 170.799 87.3088 172.251C88.4864 172.912 89.6676 173.574 90.8987 174.036C94.3323 175.325 98.0326 175.011 101.447 176.386C101.861 176.553 102.305 176.381 102.718 176.206C105.695 174.948 108.638 173.548 111.538 172.009C114.571 170.398 117.578 168.622 120.271 166.184C120.516 165.962 120.771 165.716 120.882 165.354C120.994 164.992 120.891 164.489 120.605 164.382C118.787 163.705 116.995 162.906 115.24 161.99C114.675 161.695 114.04 161.275 113.92 160.495C112.373 160.576 111.02 161.855 109.88 163.228C108.739 164.6 107.667 166.149 106.261 166.999C104.855 167.849 102.968 167.776 101.994 166.198C101.89 166.029 101.786 165.836 101.626 165.781C101.466 165.726 101.26 165.935 101.335 166.128C101.528 166.63 101.113 167.264 100.686 167.229C100.258 167.194 99.9241 166.683 99.8189 166.139C99.7135 165.594 99.1425 166.567 98.3148 166.729C97.4871 166.891 96.6089 166.194 96.334 165.157C96.1073 164.303 95.2191 164.288 94.5401 164.128C92.9966 163.765 91.8246 161.644 92.0416 159.607C87.6057 161.547 83.2501 163.803 79.0007 166.363C78.7514 166.513 78.7229 166.998 78.8755 167.297Z" fill="white"/>
<path d="M141 84C142.104 84 143 82.4328 143 80.5C143 78.5672 142.104 77 141 77C139.896 77 139 78.5672 139 80.5C139 82.4328 139.896 84 141 84Z" fill="#FFB61D"/>
<path d="M124.5 81C125.328 81 126 80.3283 126 79.5C126 78.6717 125.328 78 124.5 78C123.672 78 123 78.6717 123 79.5C123 80.3283 123.672 81 124.5 81Z" fill="#FFB61D"/>
<path fill-rule="evenodd" clip-rule="evenodd" d="M152.367 93.0017C152.58 94.4968 153.21 95.9454 154.048 96.8439C155.608 98.5141 159.114 100.234 160.98 101.156C161.15 101.24 160.193 101.975 158.957 103.6C155.61 108.001 148.292 115.88 141.143 111.92C140.307 111.457 139.608 110.925 139.039 110.36C138.515 109.839 143.328 110.589 147.828 109.429C152.352 108.264 156.561 105.184 155.435 102.742C154.376 100.447 151.397 96.5601 151.165 94.2737C150.856 91.2275 152.185 91.7168 152.367 93.0017Z" fill="#E7EAEE"/>
<path fill-rule="evenodd" clip-rule="evenodd" d="M79 166.157C79 164.977 81.8469 164.023 86.7134 161.631C90.0608 159.986 96.5853 155.226 99.7952 155.004C101.931 154.856 110.467 158.94 116.038 161.872C118.839 163.346 121 164.27 121 164.743C121 165.693 115.052 170.281 108.974 173.295C106.007 174.767 103.223 176.085 100.67 175.996C92.8869 175.725 79 169.143 79 166.157Z" fill="white"/>
<path fill-rule="evenodd" clip-rule="evenodd" d="M190.642 66.8383C179.288 73.1801 169.803 84.0159 160.766 95.0353L160.213 95.7103C159.686 96.3546 158.885 97.0282 158.317 96.4475L160.073 94.357C169.261 83.4404 178.761 72.6155 190.13 66.1841C198.87 61.2392 198.777 62.2948 190.642 66.8383ZM141.735 172.469L147.062 180.056C147.323 180.428 147.595 180.827 147.668 181.322C147.74 181.818 147.521 182.423 147.137 182.475L136.171 183.975C134.349 184.224 132.492 182.573 131.967 180.278C131.443 177.983 132.282 175.295 133.869 174.099C135.455 172.902 137.631 173.28 138.948 174.944C139.274 175.356 139.847 175.006 140.079 174.496C140.31 173.986 140.36 173.36 140.6 172.856C140.839 172.352 141.429 172.032 141.735 172.469ZM132.892 176.848C132.212 178.536 132.642 180.822 133.806 181.972C134.376 182.535 135.077 182.838 135.782 182.987C136.779 183.197 137.936 183.038 138.576 182.017C138.81 181.645 138.954 181.188 139.052 180.723C139.377 179.177 139.212 177.463 138.602 176.071C138.436 175.692 138.181 175.297 137.847 175.315C137.688 175.324 137.541 175.429 137.383 175.451C137.121 175.486 136.877 175.29 136.638 175.144C135.316 174.339 133.572 175.161 132.892 176.848ZM141.262 173.991C141.053 175.133 140.62 176.203 140.015 177.071C139.845 177.316 139.887 177.694 139.921 178.021C140.089 179.617 139.811 181.286 139.152 182.646C140.233 182.311 141.339 182.111 142.449 182.049C143.97 181.964 145.558 182.124 146.952 181.323C146.207 180.899 145.575 180.145 145.184 179.214C144.954 178.666 144.635 178.192 144.32 177.723L141.895 174.119C141.719 173.859 141.324 173.654 141.262 173.991ZM113.721 173.923C114.069 175.342 115.377 175.829 116.51 176.085L124.072 177.736C125.821 178.118 127.616 178.5 129.355 178.049C129.683 177.963 129.856 178.645 129.64 178.978C129.423 179.311 129.047 179.351 128.712 179.353C127.197 179.359 125.691 179.096 124.192 178.801L122.595 178.483C119.768 177.915 116.943 177.31 114.176 176.369C113.702 176.207 113.212 176.023 112.85 175.593C112.487 175.163 112.298 174.412 112.553 173.866C112.809 173.32 113.572 173.313 113.721 173.923ZM154.596 22.0396C160.075 22.633 164.621 29.0656 165.357 36.1898C165.931 41.7409 163.752 48.353 159.538 49.3587C161.027 56.3183 161.856 63.6408 161.038 70.7884C160.22 77.936 157.619 84.9182 153.229 89.309C152.017 91.4407 152.933 94.6568 154.529 96.3007C156.124 97.945 158.189 98.5231 160.098 99.4305C168.098 103.232 173.73 113.553 175.043 124.551C176.355 135.548 173.733 146.953 168.994 156.199C165.748 162.532 161.333 168.156 155.808 170.591C148.132 173.976 139.722 170.747 132.249 166.616L132.023 166.491C129.212 164.927 126.351 163.154 124.331 160.169L124.204 159.977C122.031 156.652 117.926 158.448 114.966 160.482L120.871 163.686C121.294 163.915 121.753 164.188 121.949 164.729C122.362 165.868 121.345 166.964 120.484 167.531L117.017 169.814C111.55 173.402 105.858 176.928 99.7598 177.15C92.8918 177.399 86.3999 173.435 80.2118 169.51L79.8191 169.26C79.1781 168.846 78.5301 168.366 78.1836 167.558C77.8057 166.677 78.017 165.303 78.7639 165.044C85.7796 162.618 92.4217 158.36 98.1852 152.593C97.7442 149.004 97.8481 145.301 98.4891 141.763L98.5217 141.591C98.6139 141.13 98.7537 140.662 99.0637 140.428C99.9211 139.784 100.666 141.481 100.817 142.759L101.964 152.433C106.555 151.769 111.011 149.564 114.788 146.087L105.713 136.529C104.088 134.81 102.443 132.952 101.692 130.414C100.905 127.753 101.538 124.145 103.574 123.115C103.734 113.034 103.328 102.937 102.359 92.9327C101.019 102.924 102.096 113.168 103.174 123.213C101.325 114.844 100.525 106.08 100.813 97.3771L100.83 96.8938C100.889 95.3169 101.024 93.6143 101.836 92.4454C103.269 90.3822 106.082 91.2721 107.39 93.4726C108.698 95.6735 108.917 98.6266 109.086 101.405L124.367 98.9639C126.082 98.6954 127.843 98.487 129.487 99.1518C131.687 100.041 133.454 102.561 133.941 105.504L134.3 105.376C136.298 104.653 138.398 103.711 139.518 101.46C140.692 99.0994 139.721 95.012 137.594 95.0444L137.525 95.0469C130.723 95.4316 124.07 88.8308 122.521 80.1602C122.128 77.9549 121.975 75.5045 120.791 73.8518C118.915 71.2328 117.486 67.8564 117.495 64.268C117.504 60.6797 119.254 56.9791 121.918 56.1213C124.583 55.2634 127.736 58.1706 127.506 61.7463C128.799 61.5743 130.121 61.7943 131.34 62.3841C130.645 59.934 132.446 57.2297 134.426 56.8742C136.406 56.5187 138.335 57.8118 139.981 59.2929C141.627 60.774 143.2 62.5178 145.114 63.2682L145.203 63.0011C145.598 61.7936 145.962 60.5037 145.763 59.2266C145.549 57.8555 144.367 56.6695 143.411 57.2975C142.739 54.7815 141.671 52.448 140.292 50.4861L136.46 52.8487C135.966 51.8816 135.663 50.7491 135.589 49.5904C133.059 51.4813 130.313 52.8771 127.47 53.7164L127.76 50.8781L119.265 56.6484C118.011 49.0017 121.293 40.7978 126.4 36.7282C131.507 32.659 138.039 32.38 143.727 34.7965C143.546 27.6114 149.118 21.4459 154.596 22.0396ZM196.391 146.669C191.497 148.214 186.746 150.533 182.275 153.56L181.951 153.781C179.474 155.487 177.042 157.533 175.489 160.568C176.538 160.33 177.657 160.687 178.504 161.53C179.039 162.063 179.486 162.861 179.454 163.739C179.438 164.194 179.293 164.629 179.098 165.006C178.336 166.482 176.723 167.082 175.482 166.35C174.24 165.619 173.515 163.642 173.856 161.917C168.589 164.269 164.061 169.328 161.458 175.761L161.371 175.978C161.243 176.302 161.086 176.664 160.814 176.744C160.44 176.855 160.107 176.309 160.124 175.808C160.142 175.307 160.387 174.876 160.624 174.482C163.693 169.385 167.28 164.534 171.871 162.074L172.217 161.892C173.299 161.331 174.433 160.779 175.132 159.581C176.828 156.675 179.27 154.681 181.75 152.993C183.969 151.482 186.264 150.163 188.616 149.047C190.976 147.928 193.389 147.015 195.808 146.13L204 143.147C201.784 145.184 199.024 145.839 196.391 146.669ZM92.0966 159.75C87.6434 161.692 83.2706 163.951 79.0046 166.513C78.7544 166.663 78.7258 167.149 78.8789 167.448C79.0321 167.748 79.2994 167.904 79.5526 168.046L87.3453 172.407C88.5275 173.069 89.7133 173.732 90.9492 174.194C94.3963 175.484 98.1111 175.17 101.538 176.547C101.954 176.714 102.401 176.541 102.814 176.367C105.804 175.107 108.758 173.706 111.669 172.165C114.714 170.553 117.733 168.774 120.437 166.334C120.683 166.112 120.938 165.865 121.05 165.503C121.163 165.14 121.059 164.637 120.772 164.53C118.947 163.852 117.148 163.053 115.386 162.135L115.263 162.07C114.73 161.779 114.172 161.365 114.061 160.639C112.508 160.72 111.15 162.001 110.004 163.375C108.859 164.748 107.783 166.299 106.372 167.15C104.96 168.001 103.066 167.927 102.088 166.348L102.025 166.245C101.94 166.107 101.847 165.974 101.718 165.93C101.558 165.875 101.351 166.084 101.426 166.278C101.62 166.78 101.204 167.415 100.775 167.38C100.345 167.345 100.01 166.834 99.9044 166.289C99.8364 165.938 99.8423 165.576 99.8749 165.215L99.883 165.126C99.6921 166.01 99.0941 166.743 98.3944 166.879C97.5634 167.041 96.6818 166.344 96.4058 165.306C96.1782 164.451 95.2866 164.436 94.6049 164.276C93.0554 163.912 91.8788 161.789 92.0966 159.75ZM102.621 125.717C101.703 127.853 102.556 130.555 103.686 132.508C107.232 138.632 113.17 141.571 117.223 147.133C118.241 148.53 119.128 150.078 120.004 151.632L122.758 156.523C123.264 157.422 123.772 158.324 124.363 159.13C125.903 161.231 127.93 162.587 129.936 163.849C134.005 166.41 138.192 168.763 142.61 169.985C147.028 171.207 151.722 171.249 155.973 169.256C159.952 167.39 163.38 163.812 166.044 159.52C168.644 155.331 170.553 150.474 172.083 145.461L172.194 145.094C172.414 144.363 172.63 143.598 172.585 142.814C172.536 141.986 172.199 141.232 171.805 140.58C170.302 138.095 167.792 136.689 165.387 137.078C163.02 137.46 160.853 139.608 159.986 142.51L159.946 142.649C158.061 149.328 153.369 154.352 148.099 156.134C142.828 157.917 137.095 156.64 132.284 153.307C127.473 149.975 123.547 144.7 120.62 138.697L120.46 138.366C119.932 137.256 119.451 136.088 119.265 134.807C119.06 133.399 119.268 131.815 120.046 130.805C120.56 130.137 121.291 129.745 121.665 128.934C122.038 128.123 121.6 126.69 120.91 126.98L120.45 127.17C117.282 128.459 113.605 129.46 111.056 126.777L110.811 126.52C109.621 125.285 108.35 124.105 106.872 123.68C105.293 123.225 103.414 123.873 102.621 125.717ZM115.252 147.363C111.409 150.539 107.071 152.687 102.583 153.638C101.991 153.763 101.831 154.768 101.822 155.553C101.792 158.047 101.885 160.544 102.099 163.023C102.585 162.724 102.784 161.976 103.115 161.423C103.446 160.87 104.203 160.567 104.459 161.185C104.638 161.616 104.399 162.156 104.094 162.443C103.789 162.729 103.414 162.884 103.142 163.222C102.465 164.063 102.819 165.719 103.643 166.292C104.468 166.866 105.511 166.566 106.301 165.916C107.091 165.265 107.702 164.312 108.372 163.462C109.805 161.643 111.558 160.258 113.456 159.445C115.866 158.413 118.548 158.26 120.668 156.441C120.811 156.318 120.959 156.174 121.013 155.962C121.086 155.673 120.962 155.373 120.83 155.115L118.294 150.3C117.89 149.532 117.425 148.709 116.733 148.489C116.416 148.389 116.079 148.427 115.768 148.299C115.457 148.171 115.165 147.773 115.252 147.363ZM97.5462 154.358C96.5573 154.962 95.9721 156.381 95.842 157.798C95.7116 159.215 95.9676 160.642 96.2712 162.013C96.4576 162.854 96.6646 163.693 96.9729 164.47C97.1696 164.966 97.4297 165.461 97.8239 165.676C98.2178 165.892 98.7648 165.698 98.8927 165.165C98.9456 164.946 98.9219 164.708 98.8913 164.482C98.7765 163.63 98.5707 162.8 98.2818 162.022L98.1604 161.707C97.9866 161.252 97.8231 160.715 98.0465 160.318C98.2598 159.939 98.7843 159.783 98.7342 159.317L98.2445 154.764C98.2303 154.631 98.2133 154.491 98.1473 154.388C98.0083 154.172 97.742 154.239 97.5462 154.358ZM175.941 161.379C175.614 161.378 175.271 161.437 175.009 161.691C174.855 161.84 174.739 162.048 174.658 162.274C174.313 163.23 174.631 164.457 175.284 165.08C175.937 165.702 176.841 165.76 177.597 165.387C178.175 165.102 178.731 164.457 178.712 163.65C178.697 163.012 178.327 162.481 177.919 162.132C177.336 161.633 176.637 161.383 175.941 161.379ZM99.4013 141.459C99.3178 141.54 99.2765 141.674 99.2412 141.802C98.7272 143.667 98.664 145.69 98.6782 147.673C98.7139 152.645 99.2025 157.611 100.13 162.433L100.176 162.667C100.366 163.609 100.625 164.575 101.212 165.157C101.322 157.516 100.943 149.863 100.08 142.304C100.024 141.813 99.7058 141.162 99.4013 141.459ZM94.771 157.883C94.6484 157.928 94.5696 158.081 94.5083 158.227C94.0069 159.423 93.9729 160.935 94.42 162.168C94.6205 162.721 94.964 163.258 95.4289 163.326C95.6186 163.017 95.532 162.572 95.4256 162.195L95.3339 161.874C94.9927 160.665 94.7127 159.356 95.0136 158.14C95.0526 157.982 94.8938 157.838 94.771 157.883ZM93.0983 159.54C92.7467 160.562 92.9033 161.849 93.4804 162.678C93.7186 162.359 93.6139 161.838 93.5325 161.405C93.4052 160.728 93.3765 160.02 93.4484 159.329C93.3595 159.159 93.1629 159.352 93.0983 159.54ZM100.51 123.104C101.043 123.705 101.382 125 100.749 125.402C100.343 125.659 99.8835 125.283 99.5008 124.972C97.5108 123.358 94.9662 123.238 92.7102 124.06C90.4542 124.881 88.4372 126.555 86.5442 128.357C84.6592 130.153 82.8414 132.123 81.4238 134.545C80.0065 136.967 79.0039 139.885 78.9216 142.933C78.823 146.585 80.0296 150.076 81.4247 153.243C82.3141 155.261 83.3166 157.251 84.6971 158.716L84.981 159.009C85.3726 159.42 85.7746 159.93 85.6746 160.549C84.3216 160.468 83.3397 158.886 82.5946 157.406C81.535 155.304 80.5692 153.119 79.7036 150.87C78.9839 148.999 78.326 147.05 78.1073 144.975C77.6961 141.074 78.9075 137.106 80.7902 134.032C82.6729 130.958 85.1787 128.651 87.713 126.523C89.6381 124.907 91.6191 123.356 93.7801 122.374C96.0086 121.361 98.7222 121.091 100.51 123.104ZM157.701 105.92C154.496 109.832 150.237 112.234 145.862 112.599C143.928 112.759 141.932 112.518 140.182 111.429C138.433 110.341 136.959 108.311 136.552 105.834L136.407 105.893C135.141 106.416 133.691 107.365 133.704 109.071C133.758 116.309 133.629 123.549 133.318 130.775C133.258 132.162 132.854 133.982 131.793 133.942C128.021 133.797 124.224 134.936 120.878 137.216C124.645 144.941 130.001 151.694 136.664 154.523C143.327 157.353 151.364 155.585 156.033 148.755C157.53 146.566 158.631 143.977 159.692 141.385L159.936 140.786C160.162 140.233 160.391 139.576 160.191 139.007C160.063 138.643 160.339 138.265 160.592 138.041C164.318 134.743 169.866 135.638 172.867 140.021C172.63 139.412 172.846 138.574 173.317 138.279C173.691 139.065 173.77 140.08 173.525 140.949C173.687 141.249 173.985 140.767 174.011 140.401C174.411 134.703 174.38 128.954 173.917 123.265C173.75 121.214 173.524 119.15 172.963 117.222C172.47 115.531 171.731 113.981 170.92 112.515C169.055 109.143 166.788 106.15 164.226 103.681L164.04 103.504C163.634 103.124 163.206 102.773 162.726 102.602C160.826 101.926 159.141 104.163 157.701 105.92ZM131.813 102.643C129.695 103.575 127.401 103.396 125.171 103.597C122.029 103.881 118.929 104.95 116.088 106.729C114.865 107.495 113.681 108.395 112.387 108.928C109.639 110.059 106.488 109.36 104.179 107.107C103.681 112.077 103.828 117.156 104.611 122.062C104.662 122.377 104.821 122.78 105.056 122.685C106.618 122.058 108.297 122.946 109.686 124.071C111.074 125.197 112.379 126.6 113.957 127.157C115.807 127.811 117.767 127.207 119.599 126.448L119.736 126.39C120.674 125.996 121.889 125.668 122.491 126.689C122.998 127.55 122.678 128.836 122.14 129.666C121.603 130.496 120.874 131.113 120.435 132.037C119.897 133.171 119.894 134.703 120.428 135.841C123.926 134.007 127.669 132.978 131.435 132.815C132.191 132.783 132.456 131.505 132.502 130.518C132.909 121.875 133.034 113.21 132.876 104.552C132.859 103.63 132.483 102.348 131.813 102.643ZM188.439 126.014L188.589 126.113C189.516 126.729 190.504 127.551 190.642 128.879C190.687 129.316 190.63 129.761 190.55 130.189C190.44 130.783 190.273 131.393 189.919 131.793C189.545 132.218 189.019 132.338 188.524 132.313C187.549 132.263 186.573 131.67 186.009 130.629C185.444 129.589 185.353 128.101 185.88 127.027C186.407 125.953 187.565 125.448 188.439 126.014ZM186.993 127.5C186.415 127.816 186.207 128.838 186.448 129.593C186.69 130.349 187.262 130.846 187.857 131.101C188.466 131.362 189.25 131.34 189.613 130.65C189.733 130.42 189.79 130.143 189.824 129.868C189.897 129.269 189.853 128.605 189.557 128.137C189.191 127.557 188.567 127.44 187.984 127.397L187.839 127.387C187.553 127.371 187.257 127.356 186.993 127.5ZM114.042 111.878C114.115 112.241 114.059 112.624 114.009 112.994C113.657 115.595 113.631 118.272 113.933 120.885L113.989 121.347C114.025 121.674 114.04 122.019 113.897 122.283C113.731 122.586 113.266 122.556 113.243 122.184C113.045 119.018 112.918 115.845 112.863 112.67C112.852 112.064 112.974 111.257 113.436 111.21C113.722 111.181 113.969 111.516 114.042 111.878ZM97.764 105.535C98.1061 105.67 98.4345 105.976 98.5336 106.425C98.6328 106.874 98.4072 107.441 98.0506 107.47C97.7183 107.497 97.4648 107.102 97.1595 106.928C96.6114 106.616 95.9966 107.052 95.4927 107.472L95.2361 107.689C94.7523 108.105 94.2838 108.573 94.018 109.237C93.7464 109.917 93.7236 110.715 93.732 111.482C93.7378 112.015 93.757 112.556 93.8829 113.063C94.1565 114.163 94.9367 114.987 95.8022 115.225C96.6673 115.464 97.593 115.155 98.3253 114.506L98.4685 114.378C98.5977 114.267 98.7334 114.17 98.8855 114.16C99.0944 114.147 99.3233 114.405 99.2523 114.663C99.2309 114.74 99.1871 114.802 99.1434 114.861C97.9467 116.469 95.8804 116.813 94.4139 115.649C94.1523 115.441 93.9083 115.19 93.7108 114.885C93.1164 113.967 93.0055 112.68 92.9891 111.477C92.9804 110.826 92.9927 110.166 93.1342 109.542C93.4398 108.193 94.3036 107.192 95.2013 106.417C95.9634 105.759 96.8894 105.191 97.764 105.535ZM90.8406 102.768L93.8239 107.401C93.6598 107.633 93.3721 107.648 93.1503 107.522C92.9534 107.41 92.796 107.21 92.6481 107.004L90.8977 104.542C90.659 107.041 90.081 109.483 89.1985 111.721C89.1124 111.939 89.3559 112.123 89.5423 112.148C89.9977 112.209 90.4579 112.141 90.9069 112.025L91.1384 111.964C91.5008 111.87 91.8726 111.796 92.2105 111.971C92.6211 112.184 92.8743 112.965 92.5451 113.349C92.3423 113.587 92.035 113.557 91.7648 113.513L88.8595 113.043L88.7701 113.027C88.4835 112.965 88.1682 112.818 88.1261 112.457C88.1007 112.239 88.1932 112.031 88.2799 111.842C89.3141 109.585 90.003 107.059 90.2955 104.456L90.3395 104.043C90.3963 103.536 90.4971 102.986 90.8406 102.768ZM192.481 110.047C192.841 110.38 193.18 111.034 192.901 111.481C192.727 111.76 192.39 111.767 192.14 111.617C191.889 111.467 191.694 111.197 191.477 110.973C190.589 110.055 189.256 109.959 188.296 110.742C188.16 110.854 188.024 110.993 187.968 111.19C187.913 111.388 187.974 111.654 188.129 111.713C189.354 111.035 190.815 111.13 191.982 111.964C192.151 112.085 192.328 112.245 192.37 112.49C192.411 112.736 192.21 113.031 192.042 112.908C191.28 112.35 190.37 112.145 189.51 112.336C189.108 112.426 188.716 112.598 188.309 112.615C187.902 112.632 187.457 112.454 187.241 112.003C187.041 111.587 187.089 111.025 187.283 110.604C187.478 110.184 187.796 109.886 188.129 109.659C189.486 108.736 191.233 108.892 192.481 110.047ZM151.836 87.5234C148.927 90.7213 145.508 93.1225 141.864 94.5304L141.621 94.6229C141.148 94.7996 140.552 95.1912 140.652 95.8214L140.713 96.2126C140.895 97.3881 141.049 98.5854 140.92 99.7685C140.78 101.044 140.242 102.321 139.352 102.857L139.27 102.904C137.685 103.757 137.462 106.853 138.502 108.635C139.541 110.417 141.343 111.107 143.046 111.365C148.042 112.121 153.257 109.93 156.982 105.51C158.333 103.907 159.542 101.987 161.215 101.035L157.032 99.0327C155.903 98.4925 154.76 97.9425 153.778 97.0369C152.795 96.1317 151.976 94.8138 151.775 93.2646C151.529 91.3668 152.225 89.3801 151.836 87.5234ZM103.582 92.6548C103.477 92.7156 103.37 92.7969 103.32 92.9317C103.269 93.0668 103.286 93.2263 103.304 93.375L104.263 101.275C104.545 103.603 104.942 106.184 106.41 107.551C108.019 109.049 110.227 108.462 112.101 107.607L112.201 107.561C115.687 105.941 119.042 103.687 122.697 102.929C125.32 102.384 128.071 102.617 130.552 101.375C129.645 99.5842 127.679 99.5937 126.034 99.8286L112.599 101.826C111.558 101.98 110.465 102.161 109.62 102.97C109.25 103.324 108.9 103.81 108.442 103.835C107.996 103.859 107.609 103.01 107.958 102.698L107.989 102.674C108.372 102.398 108.346 101.679 108.268 101.117L107.862 98.2033C107.656 96.7579 107.405 95.287 106.744 94.1071C106.03 92.8329 104.687 92.013 103.582 92.6548ZM196.334 104.463C196.658 104.956 196.672 105.713 196.456 106.299C196.24 106.884 195.831 107.315 195.389 107.612C194.855 107.97 194.267 108.157 193.679 108.316L193.384 108.395C193.269 108.425 193.147 108.455 193.035 108.406C192.943 108.366 192.867 108.275 192.806 108.175C192.503 107.676 192.513 106.941 192.719 106.364C192.924 105.786 193.292 105.337 193.67 104.935C194.057 104.524 194.477 104.137 194.962 103.986C195.446 103.836 196.01 103.969 196.334 104.463ZM194.746 105.33L194.59 105.466C194.359 105.674 194.135 105.901 193.979 106.204C193.789 106.574 193.723 107.091 193.911 107.463L195.157 106.556C195.36 106.408 195.57 106.252 195.702 106.002C195.834 105.752 195.86 105.379 195.697 105.162C195.453 104.837 195.036 105.077 194.746 105.33ZM174.867 87.495C174.954 87.5409 175.013 87.644 175.064 87.7493L176.889 91.6487C177.216 92.3456 177.958 92.4231 178.581 92.3659C179.776 92.2559 180.959 91.9368 182.089 91.4203C182.279 91.334 182.459 91.6494 182.418 91.9066C182.377 92.1638 182.208 92.347 182.05 92.5084L179.307 95.3034C178.971 95.2724 179.066 94.5515 179.339 94.2918L179.42 94.2182C179.683 93.9862 180.003 93.7567 179.986 93.3578L178.402 94.0051C178.099 94.129 177.763 94.2503 177.475 94.0765C177.283 93.9611 177.149 93.7345 177.028 93.5065L175.015 89.6638L174.98 93.0289C174.978 93.3047 174.968 93.6041 174.834 93.8172C174.739 93.9687 174.597 94.0499 174.455 94.1184L171.677 95.4218C172.419 96.3918 173.808 95.3711 174.695 96.1022C175.304 96.6031 175.407 97.7192 175.276 98.6433C175.145 99.5671 174.844 100.466 174.883 101.405C175.39 100.924 175.763 100.206 175.916 99.4119C175.978 99.0917 176.009 98.7515 176.145 98.4732C176.521 97.7072 177.417 97.8631 178.038 98.2729C178.659 98.6827 179.304 99.2728 179.984 99.0779L178.997 97.0161C178.907 96.8278 178.814 96.6242 178.822 96.4027C178.83 96.1809 178.991 95.9569 179.154 96.0213C179.225 96.0494 179.278 96.123 179.325 96.2002L181.525 99.9292C180.752 100.595 179.733 100.176 178.841 99.8541L178.708 99.809C177.838 99.5274 176.776 99.4993 176.295 100.464C175.956 101.144 175.559 101.773 175.113 102.337C174.925 102.574 174.71 102.811 174.451 102.85C174.191 102.889 173.892 102.631 173.916 102.291L174.171 98.5198C174.188 98.2758 174.2 98.0099 174.096 97.8062C173.987 97.5913 173.78 97.5079 173.59 97.4391L171.187 96.571C170.664 96.3823 170.66 95.3187 171.052 94.8291C171.444 94.3395 172.021 94.2368 172.544 94.0474C173.066 93.858 173.631 93.4558 173.725 92.7575L174.335 88.2399C174.387 87.8534 174.589 87.3475 174.867 87.495ZM110.206 23.7994L109.762 24.2711C106.805 27.4224 103.891 30.7266 101.722 34.8231C99.4445 39.1247 98.0465 44.459 98.7245 49.6152C99.7125 57.1288 104.852 63.113 105.072 70.7319C105.101 71.7439 105.889 72.3737 106.548 72.9051C109.15 75.0018 111.079 78.3301 112.351 81.9644C113.583 85.485 114.241 89.2996 114.72 93.1229L114.766 93.493C114.837 94.0758 114.889 94.7395 114.601 95.1945C114.314 95.6498 113.574 95.4902 113.603 94.9012C113.94 87.974 112.015 80.9069 108.405 75.8189C107.467 74.4973 106.377 73.2723 105.056 72.7547C104.972 75.4229 104.285 78.1418 102.831 80.0167C101.377 81.8915 99.0827 82.7479 97.1999 81.7134C95.3172 80.6789 94.1654 77.555 95.0127 75.1253C95.7225 73.0898 97.4855 72.0615 99.1637 71.628C100.81 71.2029 102.518 71.1807 104.17 71.5632C104.393 71.6145 104.49 71.208 104.485 70.9126C104.366 62.9935 98.7679 56.7934 98.0331 48.9311C97.6314 44.6346 98.7526 40.3093 100.379 36.5395C102.516 31.5888 105.555 27.3098 109.174 24.1589L109.268 24.0784C109.558 23.8398 109.896 23.6366 110.206 23.7994ZM128.637 64.1336C127.827 64.8148 127.848 66.3269 127.781 67.5836C127.689 69.3069 127.236 71.0317 126.352 72.3161C125.469 73.6001 124.126 74.3891 122.815 74.1735C122.476 74.1178 122.373 74.7596 122.417 75.2025C123.179 82.7982 126.703 90.255 132.179 92.9746C135.527 94.6375 139.309 94.4164 142.722 92.9994C146.054 91.6159 149.07 89.1553 151.826 86.3388L152.027 86.1323C152.427 85.7192 152.829 85.2894 153.107 84.731C153.388 84.1649 153.527 83.495 153.595 82.8255C153.956 79.2379 152.123 75.4838 149.482 74.4041C149.171 74.2769 149.243 73.6176 149.515 73.3849C149.788 73.1521 150.139 73.1678 150.451 73.0435C151.295 72.7062 151.683 71.4495 151.875 70.3236C152.14 68.7766 152.214 67.0124 151.481 65.7499C150.49 64.0437 148.564 64.0459 146.93 64.2094L144.28 64.475C143.365 64.5664 142.188 64.9882 142.145 66.1866C142.052 68.7678 141.183 71.3388 139.646 72.9641C138.11 74.5895 135.898 75.1515 134.074 74.1567C132.279 73.1776 131.011 70.6226 131.219 68.1001L131.23 67.9781C131.338 66.9108 131.279 65.7524 130.801 64.876C130.323 64 129.33 63.5512 128.637 64.1336ZM150.529 23.7976C149.347 24.2372 148.212 24.9457 147.279 25.9912C145.975 27.4522 145.108 29.5639 144.897 31.7924C144.822 32.5822 144.943 33.6003 145.529 33.8126C146.962 34.3306 148.243 35.5323 149.079 37.1402C147.724 36.0864 146.24 35.3196 144.7 34.8788L151.207 39.6937C151.585 39.9727 151.976 40.2692 152.213 40.7435C152.451 41.2178 152.475 41.9259 152.149 42.2996L151.695 41.8367C150.554 40.6827 149.389 39.564 148.113 38.6909C147.143 38.0268 146.119 37.5117 145.089 37.0211L144.527 36.7552C142.621 35.8558 140.698 34.951 138.69 34.5914C136.827 34.2581 134.914 34.406 133.094 35.0249L132.735 35.1451C130.276 35.9589 127.712 36.624 125.679 38.59C124.47 39.7596 123.523 41.3252 122.623 42.9021L122.411 43.2784C120.625 46.4858 118.992 50.4406 120.038 54.1207C124.837 53.3478 128.575 48.4921 132.923 45.7245C133.255 45.5128 133.803 45.448 133.853 45.9266L128.989 49.6858C129.124 50.6566 128.996 51.6864 128.633 52.5519C132.188 51.2383 135.51 48.867 138.279 45.6702L138.455 45.4651C138.894 44.9482 139.74 44.5202 139.927 45.2535L139.689 45.4272C138.817 46.0694 137.948 46.7717 137.346 47.8117C136.689 48.946 136.428 50.595 137.01 51.7971L143.151 47.0686C143.401 46.8766 143.673 46.6777 143.961 46.7171C144.249 46.7568 144.518 47.1622 144.394 47.5039L144.185 47.5611C143.522 47.745 142.85 47.976 142.334 48.5406C141.764 49.1646 141.468 50.3346 141.892 51.1338C142.652 52.5672 143.269 54.1306 143.723 55.7716C143.732 55.054 144.48 54.6872 144.973 55.0023C145.467 55.3174 145.727 56.0284 145.906 56.7067C146.417 58.6478 146.552 60.7562 146.295 62.7815C147.839 63.4947 149.651 62.6525 151.136 63.5545C152.515 64.3915 153.19 66.5633 153.094 68.5471C152.998 70.5312 152.281 72.3656 151.515 74.0828C153.655 76.2505 154.798 79.9846 154.393 83.4841C154.766 83.4047 155.081 82.9836 155.134 82.494L155.983 83.1941C154.656 84.1751 153.711 85.9957 153.505 87.9711C159.336 80.8355 161.272 69.5258 160.431 59.1407L160.398 58.7535C160.065 55.003 159.271 51.0937 157.115 48.6098C158.271 47.7377 159.754 48.0809 160.991 47.4263C162.16 46.8078 162.964 45.374 163.506 43.8853C165.32 38.9087 164.696 32.5767 161.975 28.3651C159.254 24.1534 154.585 22.2902 150.529 23.7976ZM131.467 86.2113C131.65 86.2514 131.859 86.3326 131.931 86.5574C132.046 86.9165 131.724 87.2448 131.445 87.3806C131.04 87.5781 130.615 87.7045 130.184 87.7551C129.823 87.7981 129.367 87.7066 129.256 87.2557C129.182 86.9588 129.31 86.6255 129.503 86.4426C129.696 86.2598 129.94 86.1979 130.177 86.1643C130.606 86.1035 131.041 86.1195 131.467 86.2113ZM124.87 81.065C126.139 83.0153 128.125 84.048 130.083 84.0684C132.041 84.0884 133.962 83.1628 135.588 81.7349L135.725 81.615C135.931 81.4355 136.145 81.2668 136.387 81.2118C136.683 81.1444 137.035 81.3069 137.136 81.677C135.435 83.5657 133.304 84.8129 131.082 85.0766C128.86 85.34 126.559 84.5947 124.746 82.8947C124.419 82.5876 124.081 82.184 124.068 81.658C124.054 81.132 124.609 80.6643 124.87 81.065ZM98.271 72.8042C97.3885 73.1725 96.5005 73.7116 95.9437 74.6798C95.1166 76.1179 95.2615 78.2999 96.1545 79.6684C97.0478 81.037 98.5582 81.5834 99.9055 81.2198C101.253 80.8559 102.423 79.667 103.18 78.1647C103.937 76.6625 104.308 74.8689 104.421 73.0756C104.439 72.7751 104.397 72.3769 104.171 72.3219C102.214 71.8458 100.167 72.013 98.271 72.8042ZM129.54 65.7972C129.577 66.2107 129.454 66.6165 129.342 67.0062C128.706 69.2071 128.32 71.5308 128.198 73.8784C128.178 74.2587 128.167 74.6529 128.273 75.0077C128.374 75.3428 128.608 75.6342 128.879 75.6542L128.927 75.6546C129.174 75.6433 129.291 76.1241 129.135 76.3751C128.98 76.6264 128.689 76.6545 128.453 76.5623C127.967 76.3733 127.619 75.7821 127.477 75.1454C127.337 74.5086 127.373 73.8289 127.443 73.1725C127.682 70.9472 128.304 68.7893 128.334 66.5425C128.343 65.9083 128.442 65.0538 128.925 65.0031C129.243 64.9704 129.503 65.3834 129.54 65.7972ZM135.578 58.2865C134.569 58.5582 133.799 59.6408 133.275 60.8014C132.203 63.1789 131.898 66.1273 132.447 68.7922C132.694 69.9888 133.116 71.1454 133.778 72.0323C134.44 72.9193 135.359 73.5149 136.307 73.4941C136.969 73.4799 137.611 73.1729 138.185 72.7441C140.104 71.3126 141.323 68.4112 141.218 65.5259C141.113 62.6402 139.689 59.9031 137.675 58.7159C137.02 58.3295 136.283 58.0971 135.578 58.2865ZM121.65 57.1037C119.847 57.9772 118.683 60.4258 118.435 62.9196C118.187 65.4133 118.721 67.9355 119.484 70.2442C119.689 70.866 119.923 71.498 120.317 71.9369C120.711 72.3762 121.308 72.5729 121.756 72.2331C121.964 72.075 122.159 72.4451 122.317 72.6829C122.633 73.1568 123.187 73.1969 123.658 73.0741C125.21 72.6684 126.402 70.8955 126.885 68.9248C127.352 67.0197 127.252 64.958 126.976 62.9866L126.947 62.783C126.656 60.7952 125.999 58.5608 124.52 57.9688C123.743 57.6585 122.807 57.8399 122.207 57.1252C122.062 56.9525 121.834 57.0145 121.65 57.1037ZM150.305 65.5328C150.915 66.4165 150.665 67.7887 150.36 68.9226L150.335 69.0141C150.213 69.4588 150.087 69.9142 149.853 70.2748C149.62 70.6354 149.253 70.8871 148.9 70.7909C148.546 70.6944 148.27 70.1582 148.419 69.7276C148.603 69.1929 149.23 69.1656 149.456 68.6593L148.845 68.5839C148.434 68.5332 147.99 68.4647 147.685 68.0998C147.381 67.7344 147.342 66.9618 147.713 66.7225C147.97 66.5567 148.279 66.7192 148.517 66.9283C148.755 67.1374 148.983 67.4018 149.266 67.4586C149.549 67.5158 149.894 67.2248 149.835 66.858C149.754 66.3473 149.954 65.7816 150.305 65.5328ZM136.354 68.9827C136.403 69.3339 136.42 69.7065 136.32 70.0387C136.219 70.3706 135.974 70.6481 135.701 70.6332C135.279 70.6103 135.053 69.9743 134.979 69.4297C134.888 68.7569 135.03 67.8313 135.551 67.7814C135.997 67.7384 136.275 68.4072 136.354 68.9827ZM123.339 67.5548C123.55 67.9559 123.52 68.4917 123.437 68.9656C123.33 69.5717 123.06 70.2482 122.587 70.3116C122.16 70.3687 121.795 69.8686 121.655 69.3372C121.484 68.6888 121.567 67.8969 121.954 67.4342C122.342 66.9716 123.043 66.9895 123.339 67.5548ZM123.733 60.7117C123.922 60.8254 124.055 61.1365 123.96 61.378L123.777 61.4406C122.737 61.8038 121.628 62.309 121.131 63.5388C121.012 63.8335 120.935 64.1588 120.786 64.4301C120.638 64.7012 120.388 64.9168 120.139 64.848C119.854 64.77 119.69 64.342 119.72 63.9643C119.751 63.5862 119.926 63.2569 120.115 62.9676C120.881 61.7911 121.96 60.9704 123.12 60.6815C123.325 60.6309 123.544 60.5981 123.733 60.7117ZM137.028 61.3911C137.34 61.7189 137.576 62.1557 137.89 62.4781C138.156 62.7505 138.491 62.9658 138.612 63.3778C138.733 63.7901 138.37 64.3722 138.106 64.0961C137.419 63.3756 136.655 62.7786 135.844 62.3276C135.477 62.1229 135.56 61.3142 135.919 61.0837C136.277 60.8534 136.717 61.0633 137.028 61.3911ZM133.176 58.8059C132.498 59.0984 132.016 60.0309 132.062 60.9624C132.321 60.789 132.519 60.4648 132.59 60.0954L132.58 60.0583C132.881 59.7472 133.095 59.2966 133.176 58.8059Z" fill="#00160A"/>
<path fill-rule="evenodd" clip-rule="evenodd" d="M94.6176 171C94.8787 171.002 95.119 171.123 95.347 171.256L95.4702 171.329C96.8681 172.165 98.3434 172.873 99.8709 173.439C100.081 173.517 100.016 173.869 99.8111 173.96C99.6066 174.051 99.3703 173.97 99.1618 173.889L94.6504 172.135C94.3616 172.023 94.0267 171.852 94.0014 171.544C93.976 171.236 94.3091 170.997 94.6176 171Z" fill="#E7EAEE"/>
<path fill-rule="evenodd" clip-rule="evenodd" d="M86.877 163.132L102.107 170.942L102.202 170.993C102.605 171.221 103.04 171.61 102.997 172.211C102.962 172.7 102.587 173.016 102.247 172.999C101.959 172.985 101.693 172.801 101.439 172.597L101.301 172.485C99.1774 170.744 96.9494 169.307 94.6646 168.067C92.0763 166.661 89.4147 165.506 86.749 164.442C86.3412 164.279 85.8247 163.753 86.0584 163.244C86.2225 162.887 86.5976 162.988 86.877 163.132Z" fill="#E7EAEE"/>
<path d="M47.7773 228.723C47.7773 230.298 47.4779 231.711 46.8789 232.961C46.2799 234.198 45.4336 235.253 44.3398 236.125C43.2461 236.984 41.9375 237.648 40.4141 238.117C38.8906 238.573 37.2109 238.801 35.375 238.801C35.1536 238.801 34.9583 238.742 34.7891 238.625C34.6328 238.495 34.5547 238.306 34.5547 238.059C34.5547 237.863 34.6263 237.694 34.7695 237.551C34.9128 237.408 35.0885 237.336 35.2969 237.336C36.9375 237.336 38.4349 237.147 39.7891 236.77C41.1432 236.392 42.3021 235.839 43.2656 235.109C44.2292 234.367 44.9779 233.462 45.5117 232.395C46.0456 231.327 46.3125 230.103 46.3125 228.723C46.3125 227.316 46 226.066 45.375 224.973C44.763 223.879 43.8971 222.954 42.7773 222.199C41.6706 221.444 40.3424 220.871 38.793 220.48C37.2565 220.09 35.5638 219.895 33.7148 219.895C31.9701 219.895 30.2773 220.038 28.6367 220.324C27.0091 220.611 25.4792 221.014 24.0469 221.535C22.6146 222.056 21.306 222.681 20.1211 223.41C18.9492 224.139 17.9401 224.94 17.0938 225.812C16.2604 226.685 15.6094 227.622 15.1406 228.625C14.6719 229.615 14.4375 230.643 14.4375 231.711C14.4375 232.648 14.6003 233.469 14.9258 234.172C15.2513 234.875 15.681 235.467 16.2148 235.949C16.7617 236.418 17.3867 236.77 18.0898 237.004C18.793 237.238 19.5286 237.355 20.2969 237.355C21.2083 237.355 22.0156 237.258 22.7188 237.062C23.4349 236.867 24.0339 236.652 24.5156 236.418C25.0104 236.184 25.388 235.969 25.6484 235.773C25.9089 235.565 26.0521 235.448 26.0781 235.422C26.2214 235.279 26.3906 235.207 26.5859 235.207C26.7812 235.207 26.9505 235.285 27.0938 235.441C27.25 235.585 27.3281 235.754 27.3281 235.949C27.3281 236.171 27.25 236.346 27.0938 236.477C27.0677 236.503 26.8984 236.639 26.5859 236.887C26.2865 237.134 25.8438 237.408 25.2578 237.707C24.6849 237.993 23.9818 238.254 23.1484 238.488C22.3151 238.723 21.3646 238.84 20.2969 238.84C19.3203 238.84 18.3828 238.677 17.4844 238.352C16.599 238.026 15.8177 237.557 15.1406 236.945C14.4766 236.32 13.9427 235.572 13.5391 234.699C13.1484 233.814 12.9531 232.818 12.9531 231.711C12.9531 230.5 13.2005 229.335 13.6953 228.215C14.2031 227.082 14.9062 226.027 15.8047 225.051C16.7161 224.061 17.8034 223.163 19.0664 222.355C20.3294 221.535 21.7292 220.839 23.2656 220.266C24.8021 219.68 26.4492 219.23 28.207 218.918C29.9648 218.592 31.7878 218.43 33.6758 218.43C35.7461 218.43 37.6471 218.664 39.3789 219.133C41.1107 219.602 42.5951 220.279 43.832 221.164C45.082 222.049 46.0521 223.13 46.7422 224.406C47.4323 225.669 47.7773 227.108 47.7773 228.723ZM36.1758 224.074C36.3711 224.074 36.5404 224.146 36.6836 224.289C36.8398 224.419 36.918 224.595 36.918 224.816C36.918 224.947 36.8789 225.064 36.8008 225.168C36.7357 225.272 36.651 225.37 36.5469 225.461C35.8177 226.034 35.2318 226.652 34.7891 227.316C34.3594 227.98 34.0273 228.697 33.793 229.465C33.5716 230.22 33.4219 231.027 33.3438 231.887C33.2786 232.746 33.2461 233.645 33.2461 234.582V237.043C33.2461 238.658 33.1029 240.194 32.8164 241.652C32.5299 243.098 32.0417 244.367 31.3516 245.461C30.6745 246.555 29.763 247.421 28.6172 248.059C27.4714 248.71 26.0326 249.035 24.3008 249.035C23.5195 249.035 22.7513 248.938 21.9961 248.742C21.2539 248.56 20.5508 248.293 19.8867 247.941C19.2227 247.577 18.6107 247.134 18.0508 246.613C17.4909 246.092 17.0091 245.507 16.6055 244.855C16.5794 244.803 16.5534 244.745 16.5273 244.68C16.5013 244.602 16.4883 244.53 16.4883 244.465C16.4883 244.283 16.5534 244.12 16.6836 243.977C16.8268 243.82 17.0091 243.742 17.2305 243.742C17.3607 243.742 17.4779 243.781 17.582 243.859C17.6992 243.924 17.7969 244.009 17.875 244.113C18.7083 245.272 19.6523 246.145 20.707 246.73C21.7617 247.303 22.9596 247.59 24.3008 247.59C25.8372 247.59 27.0872 247.31 28.0508 246.75C29.0273 246.177 29.7891 245.402 30.3359 244.426C30.8958 243.436 31.2734 242.284 31.4688 240.969C31.6771 239.654 31.7812 238.254 31.7812 236.77V234.289C31.7812 233.417 31.8203 232.518 31.8984 231.594C31.9766 230.656 32.1523 229.745 32.4258 228.859C32.7122 227.961 33.1159 227.115 33.6367 226.32C34.1706 225.513 34.8867 224.803 35.7852 224.191C35.8372 224.165 35.9023 224.139 35.9805 224.113C36.0586 224.087 36.1237 224.074 36.1758 224.074ZM53.6562 245.812C53.2005 246.555 52.6667 247.141 52.0547 247.57C51.4557 248 50.8503 248.215 50.2383 248.215C49.7435 248.215 49.3008 248.124 48.9102 247.941C48.5195 247.759 48.181 247.505 47.8945 247.18C47.6081 246.841 47.3867 246.438 47.2305 245.969C47.0872 245.5 47.0156 244.973 47.0156 244.387C47.0156 243.475 47.1003 242.668 47.2695 241.965C47.4518 241.262 47.6471 240.676 47.8555 240.207C48.0638 239.725 48.2591 239.361 48.4414 239.113C48.6237 238.866 48.7148 238.742 48.7148 238.742C48.7799 238.664 48.8581 238.605 48.9492 238.566C49.0534 238.527 49.1576 238.508 49.2617 238.508C49.4701 238.508 49.6393 238.586 49.7695 238.742C49.9128 238.885 49.9844 239.055 49.9844 239.25C49.9844 239.328 49.9648 239.406 49.9258 239.484C49.8997 239.562 49.8672 239.641 49.8281 239.719C49.763 239.836 49.6589 240.018 49.5156 240.266C49.3724 240.5 49.2227 240.812 49.0664 241.203C48.9102 241.594 48.7734 242.056 48.6562 242.59C48.5391 243.111 48.4805 243.71 48.4805 244.387C48.4805 245.155 48.6302 245.741 48.9297 246.145C49.2422 246.535 49.6784 246.73 50.2383 246.73C50.4727 246.73 50.7396 246.659 51.0391 246.516C51.3516 246.359 51.651 246.125 51.9375 245.812C52.237 245.5 52.4974 245.103 52.7188 244.621C52.9401 244.139 53.0833 243.573 53.1484 242.922L53.4414 239.562C53.4674 239.367 53.5521 239.204 53.6953 239.074C53.8385 238.944 54.0078 238.879 54.2031 238.879C54.4245 238.879 54.6003 238.964 54.7305 239.133C54.8607 239.289 54.9258 239.471 54.9258 239.68L54.6719 242.922C54.6458 243.195 54.6523 243.553 54.6914 243.996C54.7435 244.439 54.8411 244.875 54.9844 245.305C55.1276 245.734 55.3424 246.105 55.6289 246.418C55.9154 246.717 56.293 246.867 56.7617 246.867C57.1003 246.867 57.4323 246.783 57.7578 246.613C58.0833 246.431 58.3958 246.197 58.6953 245.91C58.9948 245.624 59.2682 245.305 59.5156 244.953C59.776 244.589 60.0104 244.224 60.2188 243.859C60.4401 243.495 60.6289 243.15 60.7852 242.824C60.9414 242.486 61.0716 242.199 61.1758 241.965C61.2409 241.822 61.332 241.711 61.4492 241.633C61.5664 241.555 61.6966 241.516 61.8398 241.516C62.0742 241.516 62.2565 241.594 62.3867 241.75C62.5169 241.906 62.582 242.076 62.582 242.258C62.582 242.362 62.5625 242.46 62.5234 242.551C62.4714 242.655 62.3672 242.876 62.2109 243.215C62.0677 243.54 61.8724 243.918 61.625 244.348C61.3906 244.764 61.1042 245.207 60.7656 245.676C60.4271 246.145 60.0495 246.581 59.6328 246.984C59.2161 247.375 58.7604 247.701 58.2656 247.961C57.7839 248.208 57.263 248.332 56.7031 248.332C55.9349 248.332 55.2969 248.117 54.7891 247.688C54.2812 247.245 53.9036 246.62 53.6562 245.812ZM77.6602 242.59C77.6211 242.668 77.5365 242.831 77.4062 243.078C77.276 243.312 77.1068 243.592 76.8984 243.918C76.6901 244.23 76.4427 244.569 76.1562 244.934C75.8698 245.285 75.5573 245.611 75.2188 245.91C74.8802 246.21 74.5156 246.457 74.125 246.652C73.7344 246.848 73.3307 246.945 72.9141 246.945C72.237 246.945 71.6641 246.828 71.1953 246.594C70.7266 246.346 70.3424 246.073 70.043 245.773C69.8346 246.229 69.5807 246.646 69.2812 247.023C68.9818 247.401 68.6497 247.727 68.2852 248C67.9206 248.286 67.5299 248.508 67.1133 248.664C66.7096 248.82 66.293 248.898 65.8633 248.898C65.069 248.898 64.3919 248.664 63.832 248.195C63.2721 247.727 62.8034 247.102 62.4258 246.32C62.0612 245.526 61.7747 244.608 61.5664 243.566C61.3581 242.525 61.1953 241.431 61.0781 240.285C60.974 239.139 60.9089 237.98 60.8828 236.809C60.8568 235.637 60.8438 234.523 60.8438 233.469C60.8438 231.451 60.9023 229.706 61.0195 228.234C61.1367 226.75 61.293 225.493 61.4883 224.465C61.6966 223.423 61.931 222.583 62.1914 221.945C62.4648 221.294 62.7513 220.793 63.0508 220.441C63.3503 220.077 63.6562 219.829 63.9688 219.699C64.2812 219.569 64.5872 219.504 64.8867 219.504C65.3685 219.504 65.7917 219.647 66.1562 219.934C66.5339 220.22 66.8464 220.624 67.0938 221.145C67.3542 221.652 67.5495 222.271 67.6797 223C67.8099 223.729 67.875 224.53 67.875 225.402C67.875 226.796 67.7253 228.234 67.4258 229.719C67.1263 231.203 66.7357 232.688 66.2539 234.172C65.7852 235.643 65.2578 237.095 64.6719 238.527C64.0859 239.947 63.5065 241.294 62.9336 242.57C63.0117 243.208 63.1289 243.82 63.2852 244.406C63.4414 244.979 63.6432 245.493 63.8906 245.949C64.138 246.392 64.431 246.75 64.7695 247.023C65.1081 247.284 65.4987 247.414 65.9414 247.414C66.3841 247.414 66.8008 247.29 67.1914 247.043C67.582 246.783 67.9206 246.451 68.207 246.047C68.4935 245.63 68.7148 245.161 68.8711 244.641C69.0404 244.12 69.125 243.586 69.125 243.039C69.125 242.674 69.0859 242.31 69.0078 241.945C68.9427 241.568 68.832 241.236 68.6758 240.949C68.5326 240.65 68.3503 240.409 68.1289 240.227C67.9076 240.044 67.6406 239.953 67.3281 239.953C67.0938 239.953 66.9115 240.005 66.7812 240.109C66.651 240.201 66.5534 240.311 66.4883 240.441C66.4232 240.559 66.3841 240.676 66.3711 240.793C66.3581 240.91 66.3516 240.988 66.3516 241.027C66.3516 241.21 66.3906 241.392 66.4688 241.574C66.5469 241.757 66.6966 241.919 66.918 242.062C67.1393 242.219 67.25 242.434 67.25 242.707C67.25 242.928 67.1719 243.104 67.0156 243.234C66.8724 243.365 66.7096 243.43 66.5273 243.43C66.2669 243.43 66.0326 243.352 65.8242 243.195C65.6289 243.039 65.4596 242.844 65.3164 242.609C65.1732 242.362 65.0625 242.102 64.9844 241.828C64.9062 241.555 64.8672 241.301 64.8672 241.066C64.8672 240.689 64.9323 240.344 65.0625 240.031C65.1927 239.706 65.3685 239.432 65.5898 239.211C65.8242 238.977 66.0846 238.801 66.3711 238.684C66.6706 238.553 66.9831 238.488 67.3086 238.488C67.8685 238.488 68.3503 238.618 68.7539 238.879C69.1706 239.139 69.5156 239.484 69.7891 239.914C70.0625 240.344 70.2643 240.832 70.3945 241.379C70.5247 241.926 70.5898 242.479 70.5898 243.039C70.5898 243.365 70.5703 243.684 70.5312 243.996C70.5833 244.1 70.668 244.237 70.7852 244.406C70.9023 244.576 71.0586 244.738 71.2539 244.895C71.4492 245.051 71.6836 245.188 71.957 245.305C72.2305 245.422 72.5495 245.48 72.9141 245.48C73.2266 245.48 73.5456 245.363 73.8711 245.129C74.2096 244.882 74.5286 244.582 74.8281 244.23C75.1406 243.866 75.4271 243.482 75.6875 243.078C75.9479 242.661 76.1628 242.277 76.332 241.926C76.3971 241.796 76.4883 241.698 76.6055 241.633C76.7227 241.555 76.8529 241.516 76.9961 241.516C77.2174 241.516 77.3932 241.594 77.5234 241.75C77.6667 241.906 77.7383 242.082 77.7383 242.277C77.7383 242.355 77.7122 242.46 77.6602 242.59ZM62.5625 240.07C63.0052 238.977 63.4544 237.831 63.9102 236.633C64.3659 235.422 64.776 234.191 65.1406 232.941C65.5052 231.691 65.8047 230.428 66.0391 229.152C66.2734 227.876 66.3906 226.62 66.3906 225.383C66.3906 224.914 66.3646 224.426 66.3125 223.918C66.2734 223.397 66.1953 222.922 66.0781 222.492C65.9609 222.062 65.7982 221.704 65.5898 221.418C65.3945 221.132 65.1406 220.988 64.8281 220.988C64.724 220.988 64.5872 221.06 64.418 221.203C64.2617 221.333 64.0924 221.574 63.9102 221.926C63.7279 222.264 63.5456 222.74 63.3633 223.352C63.181 223.964 63.0117 224.745 62.8555 225.695C62.7122 226.633 62.5885 227.766 62.4844 229.094C62.3932 230.422 62.3477 231.984 62.3477 233.781C62.3477 234.38 62.3542 234.992 62.3672 235.617C62.3802 236.229 62.3932 236.815 62.4062 237.375C62.4323 237.935 62.4583 238.449 62.4844 238.918C62.5104 239.387 62.5365 239.771 62.5625 240.07ZM87.4648 242.59C87.3216 242.889 87.1393 243.247 86.918 243.664C86.7096 244.068 86.4688 244.491 86.1953 244.934C85.9219 245.376 85.6159 245.819 85.2773 246.262C84.9388 246.691 84.5677 247.082 84.1641 247.434C83.7734 247.772 83.3503 248.046 82.8945 248.254C82.4518 248.475 81.9766 248.586 81.4688 248.586C80.6875 248.586 80.0169 248.345 79.457 247.863C78.8971 247.382 78.4219 246.75 78.0312 245.969C77.6406 245.188 77.3216 244.302 77.0742 243.312C76.8398 242.31 76.6576 241.294 76.5273 240.266C76.3971 239.224 76.306 238.215 76.2539 237.238C76.2148 236.262 76.1953 235.396 76.1953 234.641C76.1953 233.547 76.2279 232.414 76.293 231.242C76.3711 230.07 76.4883 228.924 76.6445 227.805C76.8008 226.685 76.9961 225.624 77.2305 224.621C77.4779 223.618 77.7643 222.74 78.0898 221.984C78.4284 221.229 78.8125 220.63 79.2422 220.188C79.6719 219.745 80.1602 219.523 80.707 219.523C81.1367 219.523 81.5208 219.628 81.8594 219.836C82.2109 220.031 82.5039 220.357 82.7383 220.812C82.9727 221.268 83.1549 221.861 83.2852 222.59C83.4154 223.319 83.4805 224.211 83.4805 225.266C83.4805 226.568 83.3438 227.915 83.0703 229.309C82.7969 230.689 82.4258 232.082 81.957 233.488C81.4883 234.895 80.9349 236.301 80.2969 237.707C79.6589 239.1 78.9753 240.461 78.2461 241.789C78.5716 243.443 79.0078 244.745 79.5547 245.695C80.1016 246.633 80.7591 247.102 81.5273 247.102C82.0482 247.102 82.5495 246.9 83.0312 246.496C83.513 246.079 83.9557 245.591 84.3594 245.031C84.763 244.471 85.1146 243.905 85.4141 243.332C85.7266 242.746 85.9674 242.277 86.1367 241.926C86.2018 241.796 86.293 241.698 86.4102 241.633C86.5273 241.555 86.6576 241.516 86.8008 241.516C87.0221 241.516 87.1979 241.594 87.3281 241.75C87.4714 241.906 87.543 242.082 87.543 242.277C87.543 242.355 87.5169 242.46 87.4648 242.59ZM77.6797 234.738C77.6797 235.572 77.6992 236.372 77.7383 237.141C77.7773 237.909 77.8294 238.645 77.8945 239.348C78.4414 238.293 78.9622 237.173 79.457 235.988C79.9518 234.79 80.388 233.586 80.7656 232.375C81.1432 231.151 81.4427 229.94 81.6641 228.742C81.8984 227.531 82.0156 226.379 82.0156 225.285C82.0156 223.749 81.8919 222.648 81.6445 221.984C81.3971 221.32 81.0651 220.988 80.6484 220.988C80.375 220.988 80.1081 221.177 79.8477 221.555C79.6003 221.932 79.3659 222.447 79.1445 223.098C78.9232 223.749 78.7214 224.517 78.5391 225.402C78.3568 226.288 78.2005 227.238 78.0703 228.254C77.9531 229.27 77.8555 230.331 77.7773 231.438C77.7122 232.544 77.6797 233.645 77.6797 234.738ZM89.3398 232.668C89.3398 233.163 89.1641 233.586 88.8125 233.938C88.474 234.276 88.0573 234.445 87.5625 234.445C87.0677 234.445 86.6445 234.276 86.293 233.938C85.9544 233.586 85.7852 233.163 85.7852 232.668C85.7852 232.421 85.8307 232.193 85.9219 231.984C86.013 231.763 86.1367 231.574 86.293 231.418C86.4622 231.249 86.651 231.118 86.8594 231.027C87.0807 230.936 87.3151 230.891 87.5625 230.891C87.8099 230.891 88.0378 230.936 88.2461 231.027C88.4674 231.118 88.6562 231.249 88.8125 231.418C88.9818 231.574 89.112 231.763 89.2031 231.984C89.2943 232.193 89.3398 232.421 89.3398 232.668ZM86.1758 244.113C86.1758 242.238 86.293 240.37 86.5273 238.508C86.5534 238.326 86.6315 238.169 86.7617 238.039C86.9049 237.896 87.0872 237.824 87.3086 237.824C87.5039 237.824 87.6667 237.902 87.7969 238.059C87.9271 238.202 87.9922 238.371 87.9922 238.566C87.9922 238.645 87.9727 238.879 87.9336 239.27C87.9076 239.66 87.8685 240.129 87.8164 240.676C87.7773 241.21 87.7383 241.783 87.6992 242.395C87.6732 242.993 87.6602 243.547 87.6602 244.055C87.6602 244.745 87.7253 245.305 87.8555 245.734C87.9987 246.151 88.1745 246.477 88.3828 246.711C88.6042 246.945 88.832 247.102 89.0664 247.18C89.3138 247.258 89.5482 247.297 89.7695 247.297C90.1341 247.297 90.5117 247.167 90.9023 246.906C91.293 246.646 91.6901 246.281 92.0938 245.812C92.5104 245.344 92.9271 244.784 93.3438 244.133C93.7604 243.469 94.1706 242.733 94.5742 241.926C94.6393 241.796 94.7305 241.698 94.8477 241.633C94.9648 241.555 95.0951 241.516 95.2383 241.516C95.4466 241.516 95.6159 241.594 95.7461 241.75C95.8893 241.906 95.9609 242.076 95.9609 242.258C95.9609 242.388 95.9349 242.499 95.8828 242.59C95.7266 242.889 95.5312 243.254 95.2969 243.684C95.0625 244.113 94.7956 244.556 94.4961 245.012C94.1966 245.467 93.8646 245.923 93.5 246.379C93.1484 246.822 92.7708 247.225 92.3672 247.59C91.9635 247.941 91.5404 248.228 91.0977 248.449C90.6549 248.671 90.2057 248.781 89.75 248.781C89.1641 248.781 88.6497 248.658 88.207 248.41C87.7643 248.163 87.3867 247.831 87.0742 247.414C86.7747 246.997 86.5469 246.509 86.3906 245.949C86.2474 245.376 86.1758 244.764 86.1758 244.113ZM88.2461 232.668C88.2461 232.486 88.1745 232.329 88.0312 232.199C87.901 232.056 87.7448 231.984 87.5625 231.984C87.3802 231.984 87.224 232.056 87.0938 232.199C86.9635 232.329 86.8984 232.486 86.8984 232.668C86.8984 232.85 86.9635 233.007 87.0938 233.137C87.224 233.267 87.3802 233.332 87.5625 233.332C87.7448 233.332 87.901 233.267 88.0312 233.137C88.1745 233.007 88.2461 232.85 88.2461 232.668ZM96.7227 240.773C96.6445 240.982 96.5469 241.216 96.4297 241.477C96.3255 241.737 96.2018 242.01 96.0586 242.297C95.9414 242.518 95.8177 242.694 95.6875 242.824C95.5703 242.941 95.4141 243 95.2188 243C94.9974 243 94.8216 242.935 94.6914 242.805C94.5612 242.661 94.4961 242.499 94.4961 242.316C94.4961 242.251 94.5026 242.199 94.5156 242.16C94.5286 242.108 94.5612 242.03 94.6133 241.926C94.9518 241.275 95.1992 240.708 95.3555 240.227C95.5247 239.732 95.6615 239.217 95.7656 238.684C95.6745 238.384 95.6094 238.13 95.5703 237.922C95.5312 237.714 95.5117 237.499 95.5117 237.277C95.5117 236.848 95.6029 236.503 95.7852 236.242C95.9674 235.969 96.2214 235.832 96.5469 235.832C96.8464 235.832 97.0807 235.962 97.25 236.223C97.4323 236.483 97.5234 236.802 97.5234 237.18C97.5234 237.388 97.5039 237.596 97.4648 237.805C97.4258 238.013 97.3737 238.273 97.3086 238.586C97.6081 239.328 97.9076 239.986 98.207 240.559C98.5065 241.132 98.7734 241.659 99.0078 242.141C99.2422 242.609 99.431 243.052 99.5742 243.469C99.7305 243.885 99.8086 244.302 99.8086 244.719C99.8086 245.266 99.6979 245.786 99.4766 246.281C99.2552 246.776 98.8906 247.193 98.3828 247.531C98.4479 247.544 98.513 247.551 98.5781 247.551C98.6432 247.551 98.7083 247.551 98.7734 247.551C99.5156 247.551 100.199 247.382 100.824 247.043C101.449 246.704 102.009 246.268 102.504 245.734C103.012 245.188 103.461 244.589 103.852 243.938C104.242 243.273 104.581 242.616 104.867 241.965C104.997 241.665 105.18 241.516 105.414 241.516C105.635 241.516 105.805 241.594 105.922 241.75C106.052 241.906 106.117 242.076 106.117 242.258C106.117 242.362 106.098 242.46 106.059 242.551C105.915 242.902 105.727 243.306 105.492 243.762C105.271 244.204 104.997 244.667 104.672 245.148C104.359 245.617 103.995 246.079 103.578 246.535C103.161 246.991 102.693 247.401 102.172 247.766C101.664 248.117 101.104 248.397 100.492 248.605C99.8802 248.827 99.2096 248.938 98.4805 248.938C97.6081 248.938 96.7943 248.781 96.0391 248.469C95.2969 248.169 94.6914 247.668 94.2227 246.965C94.1445 246.848 94.1055 246.724 94.1055 246.594C94.1055 246.398 94.1771 246.229 94.3203 246.086C94.4766 245.93 94.6523 245.852 94.8477 245.852C95.056 245.852 95.2318 245.923 95.375 246.066C95.388 246.092 95.4336 246.138 95.5117 246.203C95.5898 246.255 95.681 246.32 95.7852 246.398C95.9023 246.464 96.0326 246.522 96.1758 246.574C96.332 246.626 96.4883 246.652 96.6445 246.652C96.957 246.652 97.2174 246.587 97.4258 246.457C97.6471 246.327 97.8229 246.171 97.9531 245.988C98.0833 245.793 98.1745 245.591 98.2266 245.383C98.2917 245.161 98.3242 244.973 98.3242 244.816C98.3242 244.491 98.2721 244.165 98.168 243.84C98.0638 243.514 97.9271 243.189 97.7578 242.863C97.6016 242.538 97.4258 242.206 97.2305 241.867C97.0482 241.516 96.8789 241.151 96.7227 240.773ZM106.254 246.34C106.462 245.897 106.703 245.422 106.977 244.914C107.25 244.393 107.543 243.866 107.855 243.332C108.168 242.785 108.5 242.245 108.852 241.711C109.203 241.177 109.568 240.676 109.945 240.207C110.323 239.751 110.701 239.426 111.078 239.23C111.469 239.022 111.833 238.918 112.172 238.918C112.51 238.918 112.803 238.99 113.051 239.133C113.311 239.263 113.52 239.445 113.676 239.68C113.845 239.914 113.969 240.188 114.047 240.5C114.138 240.812 114.184 241.151 114.184 241.516C114.184 241.815 114.151 242.219 114.086 242.727C114.034 243.221 114.008 243.742 114.008 244.289C114.008 244.602 114.021 244.914 114.047 245.227C114.086 245.526 114.145 245.799 114.223 246.047C114.314 246.281 114.444 246.477 114.613 246.633C114.783 246.776 115.004 246.848 115.277 246.848C115.59 246.848 115.902 246.763 116.215 246.594C116.527 246.411 116.833 246.177 117.133 245.891C117.432 245.591 117.719 245.266 117.992 244.914C118.266 244.549 118.513 244.191 118.734 243.84C118.956 243.475 119.151 243.13 119.32 242.805C119.49 242.466 119.626 242.186 119.73 241.965C119.861 241.665 120.089 241.516 120.414 241.516C120.635 241.516 120.811 241.594 120.941 241.75C121.072 241.906 121.137 242.076 121.137 242.258C121.137 242.362 121.117 242.46 121.078 242.551C121.026 242.655 120.922 242.87 120.766 243.195C120.622 243.521 120.421 243.898 120.16 244.328C119.913 244.758 119.62 245.207 119.281 245.676C118.943 246.145 118.565 246.581 118.148 246.984C117.745 247.375 117.302 247.701 116.82 247.961C116.352 248.208 115.857 248.332 115.336 248.332C114.737 248.332 114.255 248.208 113.891 247.961C113.526 247.701 113.24 247.375 113.031 246.984C112.836 246.594 112.699 246.158 112.621 245.676C112.556 245.194 112.523 244.725 112.523 244.27C112.523 244.035 112.53 243.788 112.543 243.527C112.569 243.254 112.595 242.987 112.621 242.727C112.647 242.466 112.667 242.225 112.68 242.004C112.706 241.77 112.719 241.574 112.719 241.418C112.719 241.014 112.66 240.741 112.543 240.598C112.439 240.454 112.315 240.383 112.172 240.383C111.964 240.383 111.723 240.507 111.449 240.754C111.189 240.988 110.909 241.301 110.609 241.691C110.323 242.082 110.03 242.525 109.73 243.02C109.444 243.501 109.164 243.983 108.891 244.465C108.617 244.947 108.37 245.409 108.148 245.852C107.927 246.281 107.745 246.639 107.602 246.926C107.328 247.473 107.048 247.837 106.762 248.02C106.488 248.215 106.241 248.312 106.02 248.312C105.616 248.312 105.303 248.156 105.082 247.844C104.874 247.518 104.77 247.128 104.77 246.672V245.441C104.77 242.98 104.77 240.637 104.77 238.41C104.783 236.171 104.815 234.094 104.867 232.18C104.932 230.253 105.03 228.514 105.16 226.965C105.303 225.402 105.512 224.074 105.785 222.98C106.059 221.874 106.404 221.021 106.82 220.422C107.25 219.823 107.784 219.523 108.422 219.523C108.969 219.523 109.431 219.673 109.809 219.973C110.186 220.272 110.492 220.682 110.727 221.203C110.961 221.711 111.13 222.31 111.234 223C111.339 223.677 111.391 224.393 111.391 225.148C111.391 226.685 111.247 228.195 110.961 229.68C110.688 231.151 110.316 232.59 109.848 233.996C109.379 235.402 108.832 236.776 108.207 238.117C107.582 239.445 106.924 240.741 106.234 242.004C106.234 242.238 106.234 242.518 106.234 242.844C106.234 243.169 106.234 243.495 106.234 243.82C106.234 244.146 106.234 244.452 106.234 244.738C106.234 245.025 106.234 245.253 106.234 245.422L106.254 246.34ZM106.254 239.133C106.801 237.935 107.296 236.77 107.738 235.637C108.194 234.491 108.578 233.352 108.891 232.219C109.216 231.086 109.47 229.94 109.652 228.781C109.835 227.609 109.926 226.392 109.926 225.129C109.926 224.921 109.913 224.589 109.887 224.133C109.874 223.677 109.815 223.215 109.711 222.746C109.62 222.277 109.47 221.867 109.262 221.516C109.066 221.164 108.786 220.988 108.422 220.988C108.135 220.988 107.888 221.184 107.68 221.574C107.471 221.952 107.289 222.473 107.133 223.137C106.977 223.788 106.846 224.549 106.742 225.422C106.638 226.294 106.553 227.219 106.488 228.195C106.423 229.172 106.371 230.174 106.332 231.203C106.306 232.232 106.286 233.234 106.273 234.211C106.26 235.174 106.254 236.079 106.254 236.926C106.254 237.772 106.254 238.508 106.254 239.133ZM133.051 246.262C133.246 245.871 133.493 245.389 133.793 244.816C134.105 244.23 134.424 243.645 134.75 243.059C135.089 242.473 135.414 241.919 135.727 241.398C136.052 240.878 136.326 240.48 136.547 240.207C136.924 239.751 137.315 239.426 137.719 239.23C138.122 239.035 138.493 238.938 138.832 238.938C139.171 238.938 139.457 239.009 139.691 239.152C139.939 239.296 140.141 239.491 140.297 239.738C140.453 239.973 140.57 240.253 140.648 240.578C140.727 240.891 140.766 241.229 140.766 241.594C140.766 241.802 140.753 242.076 140.727 242.414C140.714 242.753 140.694 243.117 140.668 243.508C140.655 243.898 140.635 244.302 140.609 244.719C140.596 245.135 140.583 245.526 140.57 245.891C140.766 245.5 140.987 245.07 141.234 244.602C141.482 244.12 141.729 243.645 141.977 243.176C142.237 242.707 142.484 242.271 142.719 241.867C142.953 241.451 143.168 241.112 143.363 240.852C143.923 240.083 144.444 239.569 144.926 239.309C145.421 239.048 145.857 238.918 146.234 238.918C146.677 238.918 147.042 239.003 147.328 239.172C147.615 239.328 147.836 239.536 147.992 239.797C148.161 240.044 148.279 240.324 148.344 240.637C148.409 240.949 148.441 241.249 148.441 241.535C148.441 241.978 148.409 242.44 148.344 242.922C148.279 243.404 148.246 243.977 148.246 244.641C148.246 244.914 148.259 245.188 148.285 245.461C148.311 245.734 148.363 245.975 148.441 246.184C148.533 246.392 148.669 246.561 148.852 246.691C149.034 246.822 149.281 246.887 149.594 246.887C149.932 246.887 150.264 246.802 150.59 246.633C150.915 246.451 151.228 246.216 151.527 245.93C151.827 245.643 152.107 245.318 152.367 244.953C152.641 244.589 152.888 244.224 153.109 243.859C153.331 243.495 153.526 243.15 153.695 242.824C153.865 242.486 154.001 242.199 154.105 241.965C154.171 241.822 154.262 241.711 154.379 241.633C154.496 241.555 154.626 241.516 154.77 241.516C154.991 241.516 155.167 241.6 155.297 241.77C155.44 241.926 155.512 242.095 155.512 242.277C155.512 242.368 155.492 242.46 155.453 242.551C155.401 242.655 155.297 242.876 155.141 243.215C154.984 243.54 154.776 243.918 154.516 244.348C154.255 244.764 153.949 245.207 153.598 245.676C153.259 246.145 152.882 246.581 152.465 246.984C152.048 247.375 151.599 247.701 151.117 247.961C150.635 248.208 150.128 248.332 149.594 248.332C149.021 248.332 148.552 248.228 148.188 248.02C147.836 247.824 147.549 247.557 147.328 247.219C147.12 246.88 146.977 246.49 146.898 246.047C146.82 245.604 146.781 245.142 146.781 244.66C146.781 244.022 146.814 243.436 146.879 242.902C146.944 242.355 146.977 241.932 146.977 241.633C146.977 241.307 146.944 241.06 146.879 240.891C146.827 240.721 146.755 240.604 146.664 240.539C146.586 240.461 146.508 240.422 146.43 240.422C146.352 240.409 146.293 240.402 146.254 240.402C145.941 240.402 145.609 240.578 145.258 240.93C144.919 241.268 144.568 241.724 144.203 242.297C143.839 242.87 143.461 243.521 143.07 244.25C142.693 244.979 142.309 245.721 141.918 246.477C141.697 246.893 141.508 247.238 141.352 247.512C141.208 247.785 141.065 248 140.922 248.156C140.792 248.312 140.661 248.423 140.531 248.488C140.401 248.553 140.258 248.586 140.102 248.586C139.763 248.586 139.503 248.469 139.32 248.234C139.151 248 139.066 247.694 139.066 247.316C139.066 247.121 139.073 246.861 139.086 246.535C139.099 246.21 139.112 245.852 139.125 245.461C139.138 245.07 139.158 244.667 139.184 244.25C139.21 243.833 139.229 243.436 139.242 243.059C139.255 242.668 139.268 242.323 139.281 242.023C139.294 241.724 139.301 241.496 139.301 241.34C139.301 241.001 139.242 240.76 139.125 240.617C139.008 240.461 138.871 240.383 138.715 240.383C138.572 240.383 138.409 240.435 138.227 240.539C138.057 240.643 137.855 240.845 137.621 241.145C137.439 241.379 137.204 241.724 136.918 242.18C136.645 242.622 136.352 243.117 136.039 243.664C135.727 244.211 135.414 244.771 135.102 245.344C134.802 245.917 134.542 246.431 134.32 246.887C134.047 247.434 133.773 247.805 133.5 248C133.227 248.208 132.96 248.312 132.699 248.312C132.322 248.312 132.042 248.202 131.859 247.98C131.677 247.746 131.586 247.44 131.586 247.062C131.586 247.023 131.592 246.789 131.605 246.359C131.632 245.93 131.658 245.409 131.684 244.797C131.71 244.172 131.736 243.508 131.762 242.805C131.801 242.102 131.833 241.444 131.859 240.832C131.872 240.507 131.859 240.207 131.82 239.934C131.781 239.66 131.729 239.497 131.664 239.445C131.56 239.471 131.352 239.712 131.039 240.168C130.74 240.624 130.355 241.418 129.887 242.551C129.822 242.694 129.724 242.805 129.594 242.883C129.464 242.961 129.327 243 129.184 243C128.962 243 128.786 242.928 128.656 242.785C128.526 242.629 128.461 242.453 128.461 242.258C128.461 242.167 128.48 242.069 128.52 241.965C129.105 240.572 129.665 239.549 130.199 238.898C130.733 238.234 131.254 237.902 131.762 237.902C132.061 237.902 132.309 237.974 132.504 238.117C132.712 238.247 132.875 238.423 132.992 238.645C133.109 238.853 133.194 239.094 133.246 239.367C133.298 239.641 133.324 239.908 133.324 240.168C133.324 241.327 133.292 242.388 133.227 243.352C133.174 244.315 133.116 245.285 133.051 246.262ZM161.391 248.273C161.846 247.818 162.309 247.355 162.777 246.887C163.246 246.405 163.702 245.904 164.145 245.383C164.587 244.862 164.997 244.322 165.375 243.762C165.766 243.189 166.111 242.583 166.41 241.945C166.475 241.802 166.566 241.698 166.684 241.633C166.801 241.555 166.931 241.516 167.074 241.516C167.296 241.516 167.471 241.594 167.602 241.75C167.745 241.906 167.816 242.082 167.816 242.277C167.816 242.382 167.797 242.479 167.758 242.57C167.354 243.417 166.892 244.191 166.371 244.895C165.85 245.598 165.303 246.268 164.73 246.906C164.158 247.531 163.578 248.137 162.992 248.723C162.406 249.322 161.846 249.921 161.312 250.52C161.26 251.418 161.26 252.316 161.312 253.215C161.365 254.126 161.391 255.09 161.391 256.105C161.391 256.939 161.365 257.772 161.312 258.605C161.26 259.439 161.176 260.233 161.059 260.988C160.941 261.757 160.779 262.473 160.57 263.137C160.375 263.801 160.121 264.374 159.809 264.855C159.496 265.35 159.132 265.734 158.715 266.008C158.298 266.294 157.81 266.438 157.25 266.438C156.326 266.438 155.616 266.118 155.121 265.48C154.626 264.842 154.379 263.951 154.379 262.805C154.379 262.18 154.444 261.509 154.574 260.793C154.717 260.077 154.913 259.335 155.16 258.566C155.408 257.811 155.701 257.043 156.039 256.262C156.391 255.48 156.768 254.719 157.172 253.977C157.576 253.234 158.005 252.525 158.461 251.848C158.917 251.184 159.379 250.578 159.848 250.031C159.874 249.406 159.9 248.755 159.926 248.078C159.965 247.414 160.004 246.796 160.043 246.223C159.704 246.822 159.281 247.303 158.773 247.668C158.279 248.033 157.732 248.215 157.133 248.215C156.143 248.215 155.368 247.883 154.809 247.219C154.249 246.555 153.969 245.643 153.969 244.484C153.969 243.638 154.047 242.87 154.203 242.18C154.372 241.477 154.548 240.878 154.73 240.383C154.926 239.875 155.102 239.491 155.258 239.23C155.414 238.957 155.492 238.827 155.492 238.84C155.635 238.618 155.837 238.508 156.098 238.508C156.319 238.508 156.495 238.586 156.625 238.742C156.768 238.885 156.84 239.055 156.84 239.25C156.84 239.393 156.801 239.523 156.723 239.641C156.736 239.628 156.671 239.738 156.527 239.973C156.397 240.194 156.247 240.52 156.078 240.949C155.922 241.379 155.772 241.893 155.629 242.492C155.499 243.091 155.434 243.749 155.434 244.465C155.434 245.181 155.564 245.741 155.824 246.145C156.085 246.548 156.508 246.75 157.094 246.75C157.836 246.75 158.507 246.203 159.105 245.109C159.704 244.003 160.212 242.401 160.629 240.305C160.655 240.135 160.733 239.999 160.863 239.895C160.993 239.777 161.15 239.719 161.332 239.719C161.54 239.719 161.716 239.79 161.859 239.934C162.003 240.077 162.074 240.253 162.074 240.461C162.074 240.5 162.048 240.734 161.996 241.164C161.944 241.581 161.879 242.141 161.801 242.844C161.736 243.547 161.664 244.367 161.586 245.305C161.508 246.229 161.443 247.219 161.391 248.273ZM159.828 252.414C159.242 253.26 158.702 254.152 158.207 255.09C157.725 256.027 157.309 256.958 156.957 257.883C156.605 258.807 156.332 259.693 156.137 260.539C155.941 261.385 155.844 262.141 155.844 262.805C155.844 263.482 155.954 264.009 156.176 264.387C156.397 264.777 156.749 264.973 157.23 264.973C157.66 264.973 158.038 264.758 158.363 264.328C158.702 263.911 158.982 263.312 159.203 262.531C159.438 261.75 159.613 260.799 159.73 259.68C159.848 258.573 159.906 257.329 159.906 255.949C159.906 255.389 159.893 254.823 159.867 254.25C159.854 253.677 159.841 253.065 159.828 252.414ZM176.742 248.957C177.706 248.527 178.578 248.033 179.359 247.473C180.154 246.913 180.857 246.327 181.469 245.715C182.094 245.09 182.621 244.458 183.051 243.82C183.493 243.169 183.845 242.551 184.105 241.965C184.118 241.939 184.125 241.919 184.125 241.906C184.138 241.88 184.158 241.854 184.184 241.828C184.236 240.734 184.333 239.628 184.477 238.508C184.503 238.326 184.581 238.169 184.711 238.039C184.854 237.896 185.036 237.824 185.258 237.824C185.453 237.824 185.616 237.902 185.746 238.059C185.876 238.202 185.941 238.371 185.941 238.566C185.941 238.645 185.922 238.879 185.883 239.27C185.857 239.66 185.818 240.129 185.766 240.676C185.727 241.21 185.688 241.783 185.648 242.395C185.622 242.993 185.609 243.547 185.609 244.055C185.609 244.745 185.674 245.305 185.805 245.734C185.948 246.151 186.124 246.477 186.332 246.711C186.553 246.945 186.781 247.102 187.016 247.18C187.263 247.258 187.497 247.297 187.719 247.297C188.083 247.297 188.461 247.167 188.852 246.906C189.242 246.646 189.639 246.281 190.043 245.812C190.46 245.344 190.876 244.784 191.293 244.133C191.71 243.469 192.12 242.733 192.523 241.926C192.589 241.796 192.68 241.698 192.797 241.633C192.914 241.555 193.044 241.516 193.188 241.516C193.396 241.516 193.565 241.594 193.695 241.75C193.839 241.906 193.91 242.076 193.91 242.258C193.91 242.388 193.884 242.499 193.832 242.59C193.676 242.889 193.48 243.254 193.246 243.684C193.012 244.113 192.745 244.556 192.445 245.012C192.146 245.467 191.814 245.923 191.449 246.379C191.098 246.822 190.72 247.225 190.316 247.59C189.913 247.941 189.49 248.228 189.047 248.449C188.604 248.671 188.155 248.781 187.699 248.781C187.165 248.781 186.69 248.677 186.273 248.469C185.857 248.273 185.499 248 185.199 247.648C184.913 247.297 184.678 246.88 184.496 246.398C184.327 245.917 184.216 245.396 184.164 244.836C183.487 245.812 182.615 246.757 181.547 247.668C180.492 248.579 179.184 249.4 177.621 250.129C178.324 250.858 178.936 251.665 179.457 252.551C179.978 253.449 180.408 254.38 180.746 255.344C181.098 256.307 181.358 257.277 181.527 258.254C181.71 259.243 181.801 260.188 181.801 261.086C181.801 261.906 181.723 262.674 181.566 263.391C181.423 264.12 181.202 264.751 180.902 265.285C180.616 265.819 180.264 266.236 179.848 266.535C179.431 266.848 178.956 267.004 178.422 267.004C177.641 267.004 177.035 266.711 176.605 266.125C176.176 265.552 175.857 264.751 175.648 263.723C175.453 262.707 175.336 261.503 175.297 260.109C175.271 258.729 175.258 257.225 175.258 255.598C175.258 254.79 175.258 253.846 175.258 252.766C175.258 251.698 175.258 250.546 175.258 249.309C175.271 248.085 175.277 246.802 175.277 245.461C175.29 244.107 175.303 242.753 175.316 241.398C175.329 240.044 175.342 238.716 175.355 237.414C175.368 236.099 175.388 234.855 175.414 233.684C175.453 231.444 175.531 229.445 175.648 227.688C175.766 225.93 175.954 224.445 176.215 223.234C176.475 222.023 176.827 221.105 177.27 220.48C177.725 219.842 178.298 219.523 178.988 219.523C179.535 219.523 179.997 219.68 180.375 219.992C180.753 220.292 181.059 220.702 181.293 221.223C181.527 221.73 181.697 222.329 181.801 223.02C181.905 223.71 181.957 224.432 181.957 225.188C181.957 226.776 181.82 228.312 181.547 229.797C181.273 231.281 180.902 232.72 180.434 234.113C179.965 235.507 179.411 236.867 178.773 238.195C178.148 239.523 177.478 240.832 176.762 242.121C176.762 242.655 176.762 243.234 176.762 243.859C176.762 244.471 176.762 245.09 176.762 245.715C176.762 246.327 176.755 246.919 176.742 247.492C176.742 248.052 176.742 248.54 176.742 248.957ZM176.801 239.113C177.335 238.111 177.823 237.056 178.266 235.949C178.721 234.829 179.112 233.677 179.438 232.492C179.763 231.307 180.017 230.096 180.199 228.859C180.382 227.622 180.473 226.379 180.473 225.129C180.473 224.504 180.44 223.938 180.375 223.43C180.323 222.922 180.232 222.492 180.102 222.141C179.984 221.776 179.828 221.496 179.633 221.301C179.451 221.092 179.236 220.988 178.988 220.988C178.728 220.988 178.5 221.145 178.305 221.457C178.109 221.77 177.94 222.186 177.797 222.707C177.654 223.228 177.53 223.827 177.426 224.504C177.335 225.181 177.257 225.891 177.191 226.633C177.126 227.362 177.074 228.098 177.035 228.84C176.996 229.569 176.964 230.259 176.938 230.91C176.924 231.548 176.911 232.115 176.898 232.609C176.898 233.104 176.898 233.475 176.898 233.723C176.885 234.243 176.872 234.706 176.859 235.109C176.859 235.513 176.853 235.91 176.84 236.301C176.827 236.691 176.814 237.108 176.801 237.551C176.801 237.993 176.801 238.514 176.801 239.113ZM176.742 251.359C176.742 252.18 176.736 252.941 176.723 253.645C176.723 254.361 176.723 255.012 176.723 255.598C176.723 256.809 176.729 258.007 176.742 259.191C176.755 260.376 176.814 261.438 176.918 262.375C177.035 263.326 177.204 264.087 177.426 264.66C177.66 265.246 177.992 265.539 178.422 265.539C178.812 265.539 179.132 265.363 179.379 265.012C179.626 264.66 179.815 264.243 179.945 263.762C180.089 263.28 180.186 262.785 180.238 262.277C180.29 261.783 180.316 261.379 180.316 261.066C180.316 260.272 180.238 259.439 180.082 258.566C179.939 257.694 179.711 256.828 179.398 255.969C179.099 255.122 178.728 254.302 178.285 253.508C177.842 252.714 177.328 251.997 176.742 251.359ZM187.289 232.668C187.289 233.163 187.113 233.586 186.762 233.938C186.423 234.276 186.007 234.445 185.512 234.445C185.017 234.445 184.594 234.276 184.242 233.938C183.904 233.586 183.734 233.163 183.734 232.668C183.734 232.421 183.78 232.193 183.871 231.984C183.962 231.763 184.086 231.574 184.242 231.418C184.411 231.249 184.6 231.118 184.809 231.027C185.03 230.936 185.264 230.891 185.512 230.891C185.759 230.891 185.987 230.936 186.195 231.027C186.417 231.118 186.605 231.249 186.762 231.418C186.931 231.574 187.061 231.763 187.152 231.984C187.243 232.193 187.289 232.421 187.289 232.668ZM186.195 232.668C186.195 232.486 186.124 232.329 185.98 232.199C185.85 232.056 185.694 231.984 185.512 231.984C185.329 231.984 185.173 232.056 185.043 232.199C184.913 232.329 184.848 232.486 184.848 232.668C184.848 232.85 184.913 233.007 185.043 233.137C185.173 233.267 185.329 233.332 185.512 233.332C185.694 233.332 185.85 233.267 185.98 233.137C186.124 233.007 186.195 232.85 186.195 232.668ZM194.574 239.973C194.522 240.324 194.457 240.656 194.379 240.969C194.301 241.268 194.223 241.535 194.145 241.77C194.079 241.991 194.021 242.173 193.969 242.316C193.917 242.46 193.884 242.538 193.871 242.551C193.741 242.85 193.513 243 193.188 243C193.005 243 192.836 242.935 192.68 242.805C192.523 242.661 192.445 242.486 192.445 242.277C192.445 242.199 192.458 242.141 192.484 242.102C192.51 242.062 192.549 241.984 192.602 241.867C192.654 241.75 192.719 241.555 192.797 241.281C192.875 241.008 192.973 240.585 193.09 240.012C192.868 240.012 192.641 240.005 192.406 239.992C192.172 239.979 191.957 239.934 191.762 239.855C191.553 239.777 191.384 239.654 191.254 239.484C191.124 239.315 191.059 239.081 191.059 238.781C191.059 238.56 191.124 238.26 191.254 237.883C191.371 237.505 191.534 237.134 191.742 236.77C191.951 236.405 192.185 236.092 192.445 235.832C192.706 235.559 192.966 235.422 193.227 235.422C193.526 235.422 193.767 235.533 193.949 235.754C194.145 235.975 194.294 236.249 194.398 236.574C194.503 236.887 194.574 237.219 194.613 237.57C194.665 237.922 194.691 238.228 194.691 238.488C194.913 238.488 195.128 238.488 195.336 238.488C195.557 238.475 195.766 238.469 195.961 238.469C196.703 238.469 197.27 238.632 197.66 238.957C198.051 239.283 198.246 239.816 198.246 240.559C198.246 240.858 198.227 241.171 198.188 241.496C198.148 241.822 198.103 242.16 198.051 242.512C197.999 242.85 197.953 243.189 197.914 243.527C197.875 243.866 197.855 244.198 197.855 244.523C197.855 244.992 197.921 245.383 198.051 245.695C198.181 245.995 198.344 246.236 198.539 246.418C198.734 246.6 198.943 246.73 199.164 246.809C199.385 246.874 199.587 246.906 199.77 246.906C200.329 246.906 200.857 246.724 201.352 246.359C201.846 245.995 202.302 245.559 202.719 245.051C203.135 244.53 203.507 243.983 203.832 243.41C204.171 242.837 204.451 242.336 204.672 241.906C204.737 241.789 204.828 241.698 204.945 241.633C205.062 241.568 205.186 241.535 205.316 241.535C205.551 241.535 205.733 241.613 205.863 241.77C205.993 241.913 206.059 242.076 206.059 242.258C206.059 242.388 206.033 242.505 205.98 242.609C205.681 243.143 205.329 243.749 204.926 244.426C204.535 245.09 204.086 245.715 203.578 246.301C203.07 246.887 202.497 247.382 201.859 247.785C201.234 248.189 200.544 248.391 199.789 248.391C199.32 248.391 198.878 248.299 198.461 248.117C198.044 247.948 197.68 247.701 197.367 247.375C197.068 247.036 196.827 246.626 196.645 246.145C196.462 245.65 196.371 245.096 196.371 244.484C196.371 243.833 196.436 243.189 196.566 242.551C196.697 241.9 196.762 241.281 196.762 240.695C196.762 240.448 196.703 240.266 196.586 240.148C196.482 240.018 196.241 239.953 195.863 239.953C195.681 239.953 195.479 239.953 195.258 239.953C195.049 239.953 194.822 239.96 194.574 239.973ZM193.266 238.527C193.266 238.436 193.259 238.319 193.246 238.176C193.246 238.02 193.233 237.87 193.207 237.727C193.194 237.583 193.168 237.46 193.129 237.355C193.103 237.251 193.07 237.199 193.031 237.199C192.992 237.199 192.94 237.251 192.875 237.355C192.823 237.447 192.764 237.564 192.699 237.707C192.634 237.837 192.576 237.98 192.523 238.137C192.471 238.293 192.432 238.423 192.406 238.527H193.266ZM206.84 240.773C206.762 240.982 206.664 241.216 206.547 241.477C206.443 241.737 206.319 242.01 206.176 242.297C206.059 242.518 205.935 242.694 205.805 242.824C205.688 242.941 205.531 243 205.336 243C205.115 243 204.939 242.935 204.809 242.805C204.678 242.661 204.613 242.499 204.613 242.316C204.613 242.251 204.62 242.199 204.633 242.16C204.646 242.108 204.678 242.03 204.73 241.926C205.069 241.275 205.316 240.708 205.473 240.227C205.642 239.732 205.779 239.217 205.883 238.684C205.792 238.384 205.727 238.13 205.688 237.922C205.648 237.714 205.629 237.499 205.629 237.277C205.629 236.848 205.72 236.503 205.902 236.242C206.085 235.969 206.339 235.832 206.664 235.832C206.964 235.832 207.198 235.962 207.367 236.223C207.549 236.483 207.641 236.802 207.641 237.18C207.641 237.388 207.621 237.596 207.582 237.805C207.543 238.013 207.491 238.273 207.426 238.586C207.725 239.328 208.025 239.986 208.324 240.559C208.624 241.132 208.891 241.659 209.125 242.141C209.359 242.609 209.548 243.052 209.691 243.469C209.848 243.885 209.926 244.302 209.926 244.719C209.926 245.266 209.815 245.786 209.594 246.281C209.372 246.776 209.008 247.193 208.5 247.531C208.565 247.544 208.63 247.551 208.695 247.551C208.76 247.551 208.826 247.551 208.891 247.551C209.633 247.551 210.316 247.382 210.941 247.043C211.566 246.704 212.126 246.268 212.621 245.734C213.129 245.188 213.578 244.589 213.969 243.938C214.359 243.273 214.698 242.616 214.984 241.965C215.115 241.665 215.297 241.516 215.531 241.516C215.753 241.516 215.922 241.594 216.039 241.75C216.169 241.906 216.234 242.076 216.234 242.258C216.234 242.362 216.215 242.46 216.176 242.551C216.033 242.902 215.844 243.306 215.609 243.762C215.388 244.204 215.115 244.667 214.789 245.148C214.477 245.617 214.112 246.079 213.695 246.535C213.279 246.991 212.81 247.401 212.289 247.766C211.781 248.117 211.221 248.397 210.609 248.605C209.997 248.827 209.327 248.938 208.598 248.938C207.725 248.938 206.911 248.781 206.156 248.469C205.414 248.169 204.809 247.668 204.34 246.965C204.262 246.848 204.223 246.724 204.223 246.594C204.223 246.398 204.294 246.229 204.438 246.086C204.594 245.93 204.77 245.852 204.965 245.852C205.173 245.852 205.349 245.923 205.492 246.066C205.505 246.092 205.551 246.138 205.629 246.203C205.707 246.255 205.798 246.32 205.902 246.398C206.02 246.464 206.15 246.522 206.293 246.574C206.449 246.626 206.605 246.652 206.762 246.652C207.074 246.652 207.335 246.587 207.543 246.457C207.764 246.327 207.94 246.171 208.07 245.988C208.201 245.793 208.292 245.591 208.344 245.383C208.409 245.161 208.441 244.973 208.441 244.816C208.441 244.491 208.389 244.165 208.285 243.84C208.181 243.514 208.044 243.189 207.875 242.863C207.719 242.538 207.543 242.206 207.348 241.867C207.165 241.516 206.996 241.151 206.84 240.773ZM230.648 228.449C230.648 228.658 230.577 228.827 230.434 228.957C230.29 229.074 230.115 229.133 229.906 229.133H220.004V229.348C220.004 230.142 219.945 230.988 219.828 231.887C219.711 232.785 219.548 233.684 219.34 234.582C219.145 235.467 218.917 236.333 218.656 237.18C218.409 238.026 218.148 238.807 217.875 239.523C217.615 240.24 217.354 240.865 217.094 241.398C216.833 241.919 216.599 242.31 216.391 242.57C216.56 243.169 216.762 243.729 216.996 244.25C217.23 244.758 217.491 245.207 217.777 245.598C218.077 245.975 218.396 246.275 218.734 246.496C219.073 246.717 219.438 246.828 219.828 246.828C220.284 246.828 220.733 246.639 221.176 246.262C221.632 245.871 222.048 245.415 222.426 244.895C222.816 244.361 223.155 243.827 223.441 243.293C223.741 242.746 223.956 242.31 224.086 241.984C224.216 241.672 224.444 241.516 224.77 241.516C224.991 241.516 225.167 241.594 225.297 241.75C225.44 241.906 225.512 242.076 225.512 242.258C225.512 242.349 225.492 242.44 225.453 242.531C225.414 242.622 225.316 242.831 225.16 243.156C225.017 243.482 224.822 243.859 224.574 244.289C224.34 244.719 224.06 245.174 223.734 245.656C223.422 246.125 223.064 246.555 222.66 246.945C222.27 247.336 221.846 247.661 221.391 247.922C220.935 248.182 220.453 248.312 219.945 248.312C219.047 248.312 218.24 248.02 217.523 247.434C216.807 246.848 216.195 246.027 215.688 244.973C215.193 243.918 214.815 242.668 214.555 241.223C214.294 239.777 214.164 238.195 214.164 236.477C214.164 236.047 214.171 235.546 214.184 234.973C214.197 234.387 214.223 233.775 214.262 233.137C214.301 232.486 214.359 231.822 214.438 231.145C214.516 230.454 214.62 229.784 214.75 229.133H207.738C207.53 229.133 207.354 229.074 207.211 228.957C207.068 228.827 206.996 228.658 206.996 228.449C206.996 228.241 207.068 228.078 207.211 227.961C207.354 227.831 207.53 227.766 207.738 227.766H215.082C215.212 227.297 215.362 226.867 215.531 226.477C215.714 226.086 215.915 225.747 216.137 225.461C216.371 225.174 216.625 224.953 216.898 224.797C217.185 224.628 217.497 224.543 217.836 224.543C218.161 224.543 218.441 224.628 218.676 224.797C218.923 224.953 219.132 225.174 219.301 225.461C219.47 225.747 219.6 226.086 219.691 226.477C219.796 226.867 219.874 227.297 219.926 227.766H229.906C230.115 227.766 230.29 227.831 230.434 227.961C230.577 228.078 230.648 228.241 230.648 228.449ZM215.941 240.617C216.332 239.758 216.684 238.833 216.996 237.844C217.322 236.841 217.595 235.832 217.816 234.816C218.051 233.801 218.227 232.805 218.344 231.828C218.474 230.852 218.539 229.953 218.539 229.133H216.234C216.052 229.94 215.902 230.943 215.785 232.141C215.681 233.326 215.629 234.771 215.629 236.477C215.629 237.427 215.655 238.228 215.707 238.879C215.759 239.517 215.837 240.096 215.941 240.617ZM217.758 226.008C217.641 226.008 217.471 226.138 217.25 226.398C217.029 226.646 216.807 227.102 216.586 227.766H218.461C218.396 227.219 218.298 226.789 218.168 226.477C218.051 226.164 217.914 226.008 217.758 226.008ZM216.254 242.023V242.043V242.023ZM249.418 242.59C249.379 242.668 249.294 242.831 249.164 243.078C249.034 243.312 248.865 243.592 248.656 243.918C248.448 244.23 248.201 244.569 247.914 244.934C247.628 245.285 247.315 245.611 246.977 245.91C246.638 246.21 246.273 246.457 245.883 246.652C245.492 246.848 245.089 246.945 244.672 246.945C243.995 246.945 243.422 246.828 242.953 246.594C242.484 246.346 242.1 246.073 241.801 245.773C241.592 246.229 241.339 246.646 241.039 247.023C240.74 247.401 240.408 247.727 240.043 248C239.678 248.286 239.288 248.508 238.871 248.664C238.467 248.82 238.051 248.898 237.621 248.898C236.827 248.898 236.15 248.664 235.59 248.195C235.03 247.727 234.561 247.102 234.184 246.32C233.819 245.526 233.533 244.608 233.324 243.566C233.116 242.525 232.953 241.431 232.836 240.285C232.732 239.139 232.667 237.98 232.641 236.809C232.615 235.637 232.602 234.523 232.602 233.469C232.602 231.451 232.66 229.706 232.777 228.234C232.895 226.75 233.051 225.493 233.246 224.465C233.454 223.423 233.689 222.583 233.949 221.945C234.223 221.294 234.509 220.793 234.809 220.441C235.108 220.077 235.414 219.829 235.727 219.699C236.039 219.569 236.345 219.504 236.645 219.504C237.126 219.504 237.549 219.647 237.914 219.934C238.292 220.22 238.604 220.624 238.852 221.145C239.112 221.652 239.307 222.271 239.438 223C239.568 223.729 239.633 224.53 239.633 225.402C239.633 226.796 239.483 228.234 239.184 229.719C238.884 231.203 238.493 232.688 238.012 234.172C237.543 235.643 237.016 237.095 236.43 238.527C235.844 239.947 235.264 241.294 234.691 242.57C234.77 243.208 234.887 243.82 235.043 244.406C235.199 244.979 235.401 245.493 235.648 245.949C235.896 246.392 236.189 246.75 236.527 247.023C236.866 247.284 237.257 247.414 237.699 247.414C238.142 247.414 238.559 247.29 238.949 247.043C239.34 246.783 239.678 246.451 239.965 246.047C240.251 245.63 240.473 245.161 240.629 244.641C240.798 244.12 240.883 243.586 240.883 243.039C240.883 242.674 240.844 242.31 240.766 241.945C240.701 241.568 240.59 241.236 240.434 240.949C240.29 240.65 240.108 240.409 239.887 240.227C239.665 240.044 239.398 239.953 239.086 239.953C238.852 239.953 238.669 240.005 238.539 240.109C238.409 240.201 238.311 240.311 238.246 240.441C238.181 240.559 238.142 240.676 238.129 240.793C238.116 240.91 238.109 240.988 238.109 241.027C238.109 241.21 238.148 241.392 238.227 241.574C238.305 241.757 238.454 241.919 238.676 242.062C238.897 242.219 239.008 242.434 239.008 242.707C239.008 242.928 238.93 243.104 238.773 243.234C238.63 243.365 238.467 243.43 238.285 243.43C238.025 243.43 237.79 243.352 237.582 243.195C237.387 243.039 237.217 242.844 237.074 242.609C236.931 242.362 236.82 242.102 236.742 241.828C236.664 241.555 236.625 241.301 236.625 241.066C236.625 240.689 236.69 240.344 236.82 240.031C236.951 239.706 237.126 239.432 237.348 239.211C237.582 238.977 237.842 238.801 238.129 238.684C238.428 238.553 238.741 238.488 239.066 238.488C239.626 238.488 240.108 238.618 240.512 238.879C240.928 239.139 241.273 239.484 241.547 239.914C241.82 240.344 242.022 240.832 242.152 241.379C242.283 241.926 242.348 242.479 242.348 243.039C242.348 243.365 242.328 243.684 242.289 243.996C242.341 244.1 242.426 244.237 242.543 244.406C242.66 244.576 242.816 244.738 243.012 244.895C243.207 245.051 243.441 245.188 243.715 245.305C243.988 245.422 244.307 245.48 244.672 245.48C244.984 245.48 245.303 245.363 245.629 245.129C245.967 244.882 246.286 244.582 246.586 244.23C246.898 243.866 247.185 243.482 247.445 243.078C247.706 242.661 247.921 242.277 248.09 241.926C248.155 241.796 248.246 241.698 248.363 241.633C248.48 241.555 248.611 241.516 248.754 241.516C248.975 241.516 249.151 241.594 249.281 241.75C249.424 241.906 249.496 242.082 249.496 242.277C249.496 242.355 249.47 242.46 249.418 242.59ZM234.32 240.07C234.763 238.977 235.212 237.831 235.668 236.633C236.124 235.422 236.534 234.191 236.898 232.941C237.263 231.691 237.562 230.428 237.797 229.152C238.031 227.876 238.148 226.62 238.148 225.383C238.148 224.914 238.122 224.426 238.07 223.918C238.031 223.397 237.953 222.922 237.836 222.492C237.719 222.062 237.556 221.704 237.348 221.418C237.152 221.132 236.898 220.988 236.586 220.988C236.482 220.988 236.345 221.06 236.176 221.203C236.02 221.333 235.85 221.574 235.668 221.926C235.486 222.264 235.303 222.74 235.121 223.352C234.939 223.964 234.77 224.745 234.613 225.695C234.47 226.633 234.346 227.766 234.242 229.094C234.151 230.422 234.105 231.984 234.105 233.781C234.105 234.38 234.112 234.992 234.125 235.617C234.138 236.229 234.151 236.815 234.164 237.375C234.19 237.935 234.216 238.449 234.242 238.918C234.268 239.387 234.294 239.771 234.32 240.07ZM257.113 245.852C256.788 245.852 256.501 245.826 256.254 245.773C256.059 246.164 255.824 246.529 255.551 246.867C255.277 247.193 254.958 247.479 254.594 247.727C254.242 247.974 253.845 248.169 253.402 248.312C252.96 248.456 252.478 248.527 251.957 248.527C251.345 248.527 250.785 248.417 250.277 248.195C249.77 247.987 249.327 247.694 248.949 247.316C248.572 246.926 248.279 246.464 248.07 245.93C247.862 245.383 247.758 244.784 247.758 244.133C247.758 243.299 247.908 242.577 248.207 241.965C248.507 241.34 248.852 240.826 249.242 240.422C249.633 240.005 250.023 239.699 250.414 239.504C250.805 239.296 251.098 239.191 251.293 239.191C251.514 239.191 251.677 239.25 251.781 239.367C251.898 239.484 251.957 239.641 251.957 239.836C251.957 240.057 251.885 240.227 251.742 240.344C251.612 240.448 251.443 240.552 251.234 240.656C251.026 240.76 250.805 240.91 250.57 241.105C250.336 241.288 250.115 241.522 249.906 241.809C249.711 242.095 249.548 242.434 249.418 242.824C249.288 243.215 249.223 243.651 249.223 244.133C249.223 244.562 249.288 244.966 249.418 245.344C249.548 245.708 249.737 246.027 249.984 246.301C250.232 246.561 250.525 246.77 250.863 246.926C251.202 247.069 251.579 247.141 251.996 247.141C252.738 247.141 253.35 246.971 253.832 246.633C254.327 246.281 254.704 245.839 254.965 245.305C254.197 244.901 253.565 244.328 253.07 243.586C252.576 242.844 252.328 242.01 252.328 241.086C252.328 240.344 252.504 239.738 252.855 239.27C253.22 238.801 253.695 238.566 254.281 238.566C254.633 238.566 254.965 238.651 255.277 238.82C255.59 238.99 255.863 239.257 256.098 239.621C256.345 239.986 256.54 240.454 256.684 241.027C256.827 241.6 256.898 242.284 256.898 243.078C256.898 243.495 256.846 243.931 256.742 244.387C256.82 244.4 256.898 244.406 256.977 244.406C257.055 244.406 257.139 244.406 257.23 244.406C257.673 244.406 258.07 244.354 258.422 244.25C258.773 244.146 259.092 243.99 259.379 243.781C259.665 243.573 259.919 243.306 260.141 242.98C260.375 242.655 260.596 242.277 260.805 241.848C260.844 241.77 260.928 241.698 261.059 241.633C261.189 241.555 261.319 241.516 261.449 241.516C261.618 241.516 261.775 241.587 261.918 241.73C262.074 241.861 262.152 242.036 262.152 242.258C262.152 242.362 262.126 242.479 262.074 242.609C262.022 242.727 261.97 242.837 261.918 242.941C261.697 243.332 261.436 243.71 261.137 244.074C260.85 244.426 260.505 244.738 260.102 245.012C259.711 245.272 259.268 245.48 258.773 245.637C258.279 245.793 257.725 245.865 257.113 245.852ZM253.773 240.93C253.773 241.177 253.806 241.438 253.871 241.711C253.936 241.984 254.034 242.258 254.164 242.531C254.307 242.792 254.477 243.046 254.672 243.293C254.88 243.527 255.121 243.729 255.395 243.898C255.434 243.625 255.453 243.358 255.453 243.098C255.453 242.746 255.427 242.388 255.375 242.023C255.323 241.659 255.245 241.327 255.141 241.027C255.049 240.715 254.932 240.467 254.789 240.285C254.646 240.09 254.477 239.992 254.281 239.992C254.203 239.992 254.099 240.051 253.969 240.168C253.839 240.285 253.773 240.539 253.773 240.93ZM269.77 245.852C269.444 245.852 269.158 245.826 268.91 245.773C268.715 246.164 268.48 246.529 268.207 246.867C267.934 247.193 267.615 247.479 267.25 247.727C266.898 247.974 266.501 248.169 266.059 248.312C265.616 248.456 265.134 248.527 264.613 248.527C264.001 248.527 263.441 248.417 262.934 248.195C262.426 247.987 261.983 247.694 261.605 247.316C261.228 246.926 260.935 246.464 260.727 245.93C260.518 245.383 260.414 244.784 260.414 244.133C260.414 243.299 260.564 242.577 260.863 241.965C261.163 241.34 261.508 240.826 261.898 240.422C262.289 240.005 262.68 239.699 263.07 239.504C263.461 239.296 263.754 239.191 263.949 239.191C264.171 239.191 264.333 239.25 264.438 239.367C264.555 239.484 264.613 239.641 264.613 239.836C264.613 240.057 264.542 240.227 264.398 240.344C264.268 240.448 264.099 240.552 263.891 240.656C263.682 240.76 263.461 240.91 263.227 241.105C262.992 241.288 262.771 241.522 262.562 241.809C262.367 242.095 262.204 242.434 262.074 242.824C261.944 243.215 261.879 243.651 261.879 244.133C261.879 244.562 261.944 244.966 262.074 245.344C262.204 245.708 262.393 246.027 262.641 246.301C262.888 246.561 263.181 246.77 263.52 246.926C263.858 247.069 264.236 247.141 264.652 247.141C265.395 247.141 266.007 246.971 266.488 246.633C266.983 246.281 267.361 245.839 267.621 245.305C266.853 244.901 266.221 244.328 265.727 243.586C265.232 242.844 264.984 242.01 264.984 241.086C264.984 240.344 265.16 239.738 265.512 239.27C265.876 238.801 266.352 238.566 266.938 238.566C267.289 238.566 267.621 238.651 267.934 238.82C268.246 238.99 268.52 239.257 268.754 239.621C269.001 239.986 269.197 240.454 269.34 241.027C269.483 241.6 269.555 242.284 269.555 243.078C269.555 243.495 269.503 243.931 269.398 244.387C269.477 244.4 269.555 244.406 269.633 244.406C269.711 244.406 269.796 244.406 269.887 244.406C270.329 244.406 270.727 244.354 271.078 244.25C271.43 244.146 271.749 243.99 272.035 243.781C272.322 243.573 272.576 243.306 272.797 242.98C273.031 242.655 273.253 242.277 273.461 241.848C273.5 241.77 273.585 241.698 273.715 241.633C273.845 241.555 273.975 241.516 274.105 241.516C274.275 241.516 274.431 241.587 274.574 241.73C274.73 241.861 274.809 242.036 274.809 242.258C274.809 242.362 274.783 242.479 274.73 242.609C274.678 242.727 274.626 242.837 274.574 242.941C274.353 243.332 274.092 243.71 273.793 244.074C273.507 244.426 273.161 244.738 272.758 245.012C272.367 245.272 271.924 245.48 271.43 245.637C270.935 245.793 270.382 245.865 269.77 245.852ZM266.43 240.93C266.43 241.177 266.462 241.438 266.527 241.711C266.592 241.984 266.69 242.258 266.82 242.531C266.964 242.792 267.133 243.046 267.328 243.293C267.536 243.527 267.777 243.729 268.051 243.898C268.09 243.625 268.109 243.358 268.109 243.098C268.109 242.746 268.083 242.388 268.031 242.023C267.979 241.659 267.901 241.327 267.797 241.027C267.706 240.715 267.589 240.467 267.445 240.285C267.302 240.09 267.133 239.992 266.938 239.992C266.859 239.992 266.755 240.051 266.625 240.168C266.495 240.285 266.43 240.539 266.43 240.93ZM278.344 245.598C278.565 246.092 278.93 246.49 279.438 246.789C279.945 247.076 280.518 247.219 281.156 247.219C281.352 247.219 281.671 247.193 282.113 247.141C282.556 247.076 283.064 246.88 283.637 246.555C284.223 246.216 284.841 245.689 285.492 244.973C286.143 244.257 286.775 243.247 287.387 241.945C287.452 241.802 287.543 241.698 287.66 241.633C287.777 241.555 287.908 241.516 288.051 241.516C288.272 241.516 288.448 241.594 288.578 241.75C288.721 241.906 288.793 242.076 288.793 242.258C288.793 242.336 288.767 242.44 288.715 242.57C288.259 243.521 287.751 244.374 287.191 245.129C286.632 245.871 286.026 246.509 285.375 247.043C284.724 247.564 284.04 247.961 283.324 248.234C282.621 248.521 281.898 248.664 281.156 248.664C280.57 248.664 280.017 248.573 279.496 248.391C278.988 248.208 278.546 247.967 278.168 247.668C277.803 247.355 277.51 247.01 277.289 246.633C277.081 246.242 276.977 245.845 276.977 245.441C276.977 245.389 276.983 245.318 276.996 245.227C277.009 245.135 277.042 245.038 277.094 244.934C277.159 244.816 277.243 244.712 277.348 244.621C277.465 244.517 277.621 244.432 277.816 244.367C278.35 244.211 278.839 244.022 279.281 243.801C279.737 243.566 280.128 243.306 280.453 243.02C280.779 242.733 281.033 242.421 281.215 242.082C281.397 241.73 281.488 241.353 281.488 240.949C281.488 240.598 281.371 240.311 281.137 240.09C280.902 239.868 280.616 239.758 280.277 239.758C279.926 239.758 279.581 239.882 279.242 240.129C278.904 240.363 278.572 240.682 278.246 241.086C277.934 241.477 277.634 241.932 277.348 242.453C277.061 242.961 276.794 243.495 276.547 244.055C276.312 244.615 276.104 245.174 275.922 245.734C275.74 246.281 275.59 246.789 275.473 247.258C275.434 247.401 275.388 247.557 275.336 247.727C275.297 247.896 275.232 248.052 275.141 248.195C275.049 248.352 274.939 248.475 274.809 248.566C274.678 248.671 274.509 248.723 274.301 248.723C274.105 248.723 273.917 248.638 273.734 248.469C273.552 248.312 273.461 248.039 273.461 247.648C273.461 247.57 273.461 247.271 273.461 246.75C273.474 246.229 273.487 245.552 273.5 244.719C273.513 243.872 273.526 242.909 273.539 241.828C273.565 240.734 273.585 239.582 273.598 238.371C273.611 237.147 273.63 235.891 273.656 234.602C273.682 233.312 273.702 232.056 273.715 230.832C273.728 229.608 273.741 228.449 273.754 227.355C273.78 226.249 273.799 225.272 273.812 224.426C273.826 223.566 273.832 222.87 273.832 222.336C273.845 221.789 273.852 221.464 273.852 221.359C273.852 221.151 273.93 220.982 274.086 220.852C274.242 220.708 274.411 220.637 274.594 220.637C274.802 220.637 274.978 220.708 275.121 220.852C275.264 220.982 275.336 221.158 275.336 221.379C275.336 221.405 275.329 221.665 275.316 222.16C275.316 222.642 275.31 223.293 275.297 224.113C275.284 224.934 275.264 225.891 275.238 226.984C275.225 228.078 275.206 229.243 275.18 230.48C275.167 231.704 275.147 232.967 275.121 234.27C275.108 235.572 275.089 236.841 275.062 238.078C275.049 239.315 275.036 240.493 275.023 241.613C275.01 242.733 274.997 243.723 274.984 244.582C275.193 243.918 275.46 243.221 275.785 242.492C276.111 241.75 276.495 241.066 276.938 240.441C277.38 239.816 277.875 239.302 278.422 238.898C278.982 238.495 279.6 238.293 280.277 238.293C280.655 238.293 281.007 238.365 281.332 238.508C281.658 238.638 281.938 238.827 282.172 239.074C282.419 239.309 282.608 239.589 282.738 239.914C282.882 240.24 282.953 240.591 282.953 240.969C282.953 241.555 282.823 242.095 282.562 242.59C282.302 243.072 281.957 243.508 281.527 243.898C281.098 244.276 280.603 244.608 280.043 244.895C279.496 245.181 278.93 245.415 278.344 245.598Z" fill="#9E7D77"/>
</g>
<defs>
<filter id="filter0_d_604_476" x="0" y="0" width="314" height="308" filterUnits="userSpaceOnUse" color-interpolation-filters="sRGB">
<feFlood flood-opacity="0" result="BackgroundImageFix"/>
<feColorMatrix in="SourceAlpha" type="matrix" values="0 0 0 0 0 0 0 0 0 0 0 0 0 0 0 0 0 0 127 0" result="hardAlpha"/>
<feOffset dx="10" dy="4"/>
<feGaussianBlur stdDeviation="2"/>
<feComposite in2="hardAlpha" operator="out"/>
<feColorMatrix type="matrix" values="0 0 0 0 0 0 0 0 0 0 0 0 0 0 0 0 0 0 0.25 0"/>
<feBlend mode="normal" in2="BackgroundImageFix" result="effect1_dropShadow_604_476"/>
<feBlend mode="normal" in="SourceGraphic" in2="effect1_dropShadow_604_476" result="shape"/>
</filter>
<linearGradient id="paint0_linear_604_476" x1="161" y1="42" x2="161" y2="192" gradientUnits="userSpaceOnUse">
<stop stop-color="#D6E3EF"/>
<stop offset="1" stop-color="#F6FEFD"/>
</linearGradient>
</defs>
</svg>
