<svg width="314" height="308" viewBox="0 0 314 308" fill="none" xmlns="http://www.w3.org/2000/svg">
<g filter="url(#filter0_d_603_463)">
<g clip-path="url(#clip0_603_463)">
<path d="M240 0H60C26.8629 0 0 26.8629 0 60V240C0 273.137 26.8629 300 60 300H240C273.137 300 300 273.137 300 240V60C300 26.8629 273.137 0 240 0Z" fill="white"/>
<path fill-rule="evenodd" clip-rule="evenodd" d="M227.273 46.1798C246.77 64.6672 252.216 92.2382 250.784 119.044C249.412 144.73 241.751 172.049 219.83 185.548C199.44 198.105 174.984 185.822 151.731 180.043C128.198 174.196 100.061 173.944 88.1734 152.833C75.5454 130.408 84.5036 103.183 95.2996 79.8316C106.854 54.8393 121.885 28.9533 148.593 22.1432C176.546 15.0154 206.346 26.3364 227.273 46.1798Z" fill="url(#paint0_linear_603_463)" fill-opacity="0.4"/>
<path d="M173.746 50.0621C174.734 49.8474 175.744 50.2276 176.674 50.6233C194.464 58.1944 208.345 74.3675 213.117 93.0851C217.889 111.803 213.444 132.637 201.446 147.785C189.448 162.933 170.171 172.048 150.837 171.717C150.443 173.96 150.05 176.203 149.657 178.446C149.657 176.545 149.626 174.533 148.628 172.915C147.629 171.297 145.29 170.349 143.76 171.48C141.671 173.972 143.285 178.489 146.483 179.096C145.858 180.561 143.446 180.105 142.635 178.733C141.825 177.362 142.008 175.654 141.884 174.066C141.759 172.478 141.025 170.652 139.461 170.341C134.819 169.416 130.265 168.046 125.884 166.256C123.048 165.097 119.78 162.822 120.444 159.835C120.935 157.628 123.549 156.447 125.793 156.744C128.036 157.041 129.971 158.407 131.804 159.732C132.761 156.431 133.717 153.13 134.674 149.829C131.663 149.968 130.818 145.563 128.282 143.938C116.678 136.502 108.943 123.359 108.081 109.616C107.22 95.8726 113.254 81.8686 123.839 73.0455C134.424 64.2225 149.298 60.7983 162.681 64.1039C164.269 62.1526 167.238 61.4771 169.515 62.5483C171.645 61.463 171.536 58.4526 171.268 56.0797C171.001 53.7071 171.41 50.5707 173.746 50.0621ZM136.191 160.785C135.314 159.815 136.175 160.389 136.175 160.389L136.191 160.894V161.125C136.191 161.125 134.066 160.304 133.046 159.971C150.5 165.86 170.812 162.434 185.363 151.147C199.913 139.86 208.264 121.052 206.873 102.703C205.481 84.3538 194.388 67.0168 178.3 58.0482C177.917 57.8345 177.487 57.6177 177.057 57.7111C176.506 57.8304 176.193 58.3984 175.95 58.9073C175.143 60.6041 174.335 62.3006 173.528 63.997C175.43 65.1127 176.446 67.5497 175.9 69.6843C186.786 76.576 194.367 88.4488 196.031 101.214C197.696 113.98 193.413 127.396 184.657 136.843C175.9 146.29 162.838 151.588 149.967 150.912C146.951 150.754 143.702 150.337 141.102 151.874C138.097 153.651 137.017 157.396 136.191 160.785Z" fill="white"/>
<path d="M132.009 82.0756C131.762 82.0791 131.655 82.3946 131.615 82.6459C131.464 83.6023 131.314 84.559 131.163 85.5154C132.324 85.4912 133.632 85.3985 134.388 84.4899C133.348 84.3095 132.57 83.152 132.773 82.0858C133.143 82.6744 133.643 83.1755 134.224 83.5405C134.514 83.7223 134.848 83.8999 134.961 84.2291C135.148 84.7735 134.622 85.2764 134.163 85.6081C133.704 85.9394 133.191 86.4676 133.408 87C132.983 86.4957 132.362 86.1728 131.716 86.1208C131.346 86.091 130.937 86.1356 130.641 85.905C130.165 85.5333 130.327 84.7605 130.591 84.2081C130.854 83.6553 131.175 83 130.879 82.4648C130.658 82.064 130.14 81.8664 130.024 81.4214C129.854 80.7728 130.634 80.3204 131.266 80.1544C131.706 80.0386 132.168 79.9361 132.609 80.0488C133.05 80.1611 133.456 80.5549 133.439 81.022C133.23 81.6271 132.633 82.0668 132.009 82.0756ZM133.04 80.837C132.409 80.4692 131.567 80.5278 130.99 80.9799C130.801 81.1283 130.628 81.3881 130.743 81.6028C131.565 81.6569 132.404 81.3772 133.04 80.837Z" fill="black"/>
<path d="M176.78 114.707C176.473 114.584 176.2 114.374 176 114.107C176.743 113.779 177.352 113.152 177.664 112.394C177.863 111.913 178.573 111.904 179 112.197C179.427 112.489 179.694 112.967 180.082 113.31C180.47 113.653 181.118 113.825 181.474 113.448C181.889 113.008 182.695 113.362 182.906 113.932C183.117 114.502 182.932 115.135 182.746 115.713C182.638 116.049 182.52 116.402 182.261 116.639C182.003 116.877 181.557 116.945 181.318 116.687C180.38 115.675 178.508 115.84 177.756 117C177.005 116.542 176.593 115.575 176.78 114.707ZM178.137 113.146C177.466 113.833 177.238 114.927 177.579 115.829C177.657 116.037 177.92 116.259 178.056 116.084C178.68 115.28 179.817 114.929 180.778 115.242C180.959 115.301 181.121 115.058 181.069 114.872C181.017 114.686 180.845 114.565 180.685 114.46C179.999 114.008 179.312 113.557 178.626 113.105C178.546 113.053 178.458 112.998 178.363 113.008C178.274 113.016 178.2 113.081 178.137 113.146ZM181.833 116.42C182.113 115.769 182.303 115.078 182.396 114.373C182.416 114.218 182.34 113.984 182.197 114.044C181.347 114.441 181.143 115.781 181.833 116.42Z" fill="black"/>
<path d="M157.721 115.37C156.574 114.496 155.12 113.795 154.641 112.441C153.827 110.139 151.246 108.935 149.968 106.85C148.889 105.09 148.856 102.885 149.179 100.851C149.986 95.7526 153.166 90.7949 158.037 88.9697C160.362 88.0989 162.898 87.9774 165.383 88.003C167.522 88.0246 169.732 88.1663 171.637 89.1292C173.543 90.0921 175.072 92.0742 174.872 94.1838C174.791 95.033 174.443 95.8475 174.427 96.7C174.383 99.0365 176.692 100.647 178.734 101.816C180.704 102.942 182.673 104.069 184.642 105.196C185.659 105.777 185.798 107.149 185.819 108.312C185.877 111.492 185.936 114.671 185.994 117.851C186.006 118.486 186.016 119.132 185.851 119.745C185.672 120.408 185.298 121 184.928 121.58C181.248 127.363 177.254 133.431 171.043 136.408C169.683 137.06 168.25 137.544 166.82 138.027C165.484 138.478 164.148 138.929 162.813 139.381C161.826 139.714 160.808 140.052 159.767 139.993C158.726 139.935 157.643 139.383 157.277 138.415C157.065 137.854 157.116 137.231 157.205 136.637C157.507 134.617 158.216 132.658 159.28 130.908C160.763 128.467 161.655 125.62 161.483 122.776C161.31 119.931 160.001 117.107 157.721 115.37ZM153.149 108.63C155.914 111.179 158.371 114.055 160.451 117.179C161.168 118.255 161.846 119.375 162.228 120.607C162.969 122.997 162.529 125.604 161.672 127.955C160.816 130.306 159.561 132.495 158.611 134.81C158.084 136.092 157.759 137.808 158.863 138.655C159.772 139.352 161.078 138.99 162.157 138.599C163.776 138.013 165.395 137.426 167.014 136.84C168.357 136.353 169.705 135.865 170.98 135.224C176.809 132.293 180.542 126.53 183.993 121.03C184.306 120.531 184.622 120.025 184.784 119.461C184.953 118.875 184.947 118.254 184.94 117.645C184.908 114.955 184.876 112.265 184.844 109.575C184.833 108.629 184.812 107.644 184.38 106.8C183.61 105.295 181.813 104.687 180.268 103.977C177.949 102.912 175.875 101.329 174.244 99.3792C173.824 98.8763 173.422 98.3264 173.292 97.6862C173.062 96.5483 173.734 95.4302 173.834 94.2737C173.997 92.3801 172.555 90.637 170.816 89.8353C169.078 89.0339 167.096 88.9754 165.178 88.9602C163.36 88.9458 161.519 88.9606 159.76 89.4156C154.521 90.7707 150.936 95.9465 150.167 101.257C149.949 102.764 149.933 104.366 150.612 105.731C151.187 106.885 152.198 107.753 153.149 108.63Z" fill="black"/>
<path d="M128.207 188.673C130.242 189.913 132.661 190.325 135.019 190.663C138.77 191.201 142.539 191.613 146.317 191.9C151.185 192.27 156.366 192.362 160.6 189.927C160.913 189.747 161.232 189.54 161.403 189.222C161.923 188.256 160.737 187.209 159.659 187.016C158.58 186.823 157.333 186.934 156.545 186.171C158.133 185.381 160.13 185.49 161.623 186.447C163.116 187.405 164.05 189.177 163.998 190.953C163.956 192.408 163.303 193.809 163.37 195.263C163.453 197.037 161.648 198.269 160 198.924C154.763 201.008 148.97 201.061 143.336 200.978C138.345 200.905 133.16 200.699 128.725 198.404C127.609 197.827 126.519 197.083 125.902 195.988C125.349 195.004 125.233 193.842 125.128 192.718C124.919 190.457 124.786 187.928 126.24 186.186C127.626 184.525 129.993 184.148 132.149 183.992C133.189 183.916 133.555 182.532 133.365 181.504C133.175 180.476 132.722 179.381 133.169 178.436C134.06 176.549 137.158 177.477 138.75 176.13C139.278 175.683 140.128 176.479 139.922 177.14C139.717 177.802 138.941 178.111 138.25 178.124C137.558 178.137 136.87 177.947 136.181 178.01C135.493 178.073 134.75 178.514 134.691 179.204C141.038 181.756 148.205 182.212 154.824 180.485C153.684 179.088 151.86 178.281 150.062 178.379C150.091 177.934 150.587 177.682 151.024 177.601C153.006 177.234 155.045 178.623 155.804 180.493C156.563 182.363 156.207 184.55 155.261 186.332C154.401 186.063 154.469 184.845 154.608 183.953C154.747 183.061 154.381 181.773 153.496 181.945C147.451 183.118 141.098 182.663 135.281 180.638C134.837 180.484 134.555 181.109 134.501 181.577C134.298 183.326 134.194 185.362 135.485 186.558C136.118 187.144 136.98 187.405 137.816 187.617C142.362 188.767 147.142 188.975 151.77 188.223C152.418 188.118 153.243 188.073 153.56 188.65C150.053 190.242 146.012 189.88 142.183 189.486C140.372 189.3 138.526 189.104 136.866 188.357C135.248 187.628 133.878 186.405 132.223 185.763C130.568 185.121 128.351 185.288 127.449 186.819C127.349 186.988 127.268 187.173 127.254 187.368C127.213 187.935 127.722 188.378 128.207 188.673ZM162.281 195.673C163.018 194.022 162.34 192.128 162.122 190.333C157.094 193.773 150.481 193.476 144.425 192.84C140.914 192.471 137.41 192.032 133.916 191.525C131.65 191.197 129.27 190.788 127.499 189.334C127.024 188.944 126.495 189.762 126.416 190.373C126.188 192.149 125.989 194.081 126.909 195.615C127.919 197.298 129.969 197.999 131.872 198.469C140.246 200.538 149.11 200.591 157.508 198.621C159.397 198.178 161.489 197.448 162.281 195.673Z" fill="black"/>
<path d="M172.746 50.0621C173.734 49.8474 174.744 50.2276 175.674 50.6233C193.464 58.1944 207.345 74.3675 212.117 93.0851C216.889 111.803 212.444 132.637 200.446 147.785C188.448 162.933 169.171 172.048 149.837 171.717C149.443 173.96 149.05 176.203 148.657 178.446C148.657 176.545 148.626 174.533 147.628 172.915C146.629 171.297 144.289 170.349 142.76 171.48C140.671 173.972 142.285 178.489 145.483 179.096C144.858 180.561 142.446 180.105 141.635 178.733C140.825 177.362 141.008 175.654 140.884 174.066C140.759 172.478 140.025 170.652 138.461 170.341C133.819 169.416 129.265 168.046 124.884 166.256C122.048 165.097 118.78 162.822 119.444 159.835C119.935 157.628 122.549 156.447 124.793 156.744C127.036 157.041 128.971 158.407 130.804 159.732C131.761 156.431 132.717 153.13 133.674 149.829C130.663 149.968 129.818 145.563 127.282 143.938C115.678 136.502 107.943 123.359 107.081 109.616C106.22 95.8726 112.254 81.8686 122.839 73.0455C133.424 64.2225 148.298 60.7983 161.681 64.1039C163.269 62.1526 166.238 61.4771 168.515 62.5483C170.645 61.463 170.536 58.4526 170.268 56.0797C170.001 53.7071 170.41 50.5707 172.746 50.0621ZM191.4 121.958C196.617 108.265 194.165 91.9303 185.155 80.3683C184.502 79.5307 183.765 78.6796 182.757 78.3432C180.48 77.5831 178.203 76.823 175.926 76.0626C176.173 77.0219 175.405 78.0065 174.478 78.357C173.551 78.7079 172.52 78.5889 171.537 78.4639C169.785 78.2411 167.976 77.9954 166.463 77.0853C164.95 76.1752 163.803 74.4134 164.169 72.6876C164.462 71.3086 162.77 70.4252 161.411 70.0467C157.862 69.0587 154.314 68.0708 150.765 67.0829C149.992 66.8675 149.164 66.617 148.67 65.985C148.176 65.3527 148.273 64.2188 149.034 63.9616C143.087 64.1204 137.181 65.646 131.903 68.387C136.111 70.5654 140.399 72.8025 143.693 76.2059C146.277 78.8751 148.219 82.453 147.906 86.1527C147.634 89.3582 145.677 92.2573 143.128 94.2237C140.579 96.1898 137.481 97.3207 134.357 98.105C129.748 99.2618 124.165 99.4442 120.994 95.909C120.072 94.8806 118.423 95.1473 117.087 95.4981C114.831 96.0907 112.575 96.6829 110.319 97.2755C109.794 97.4134 109.158 97.6813 109.14 98.2237C109.086 99.8679 110.305 101.466 111.907 101.849C113.509 102.232 115.322 101.359 116.019 99.8689C116.439 98.9709 117.705 98.831 118.633 99.1826C119.561 99.5342 120.329 100.223 121.252 100.587C122.715 101.164 124.432 100.875 125.847 101.561C128.207 102.705 128.609 105.915 128.159 108.497C127.323 113.288 124.604 117.725 120.712 120.647C118.158 122.565 118.601 126.539 119.886 129.461C121.172 132.382 123.083 135.32 122.636 138.48C120.884 134.82 119.4 131.031 118.2 127.155C117.538 125.017 117.16 122.241 118.984 120.943C122.862 118.183 125.739 114.051 126.98 109.46C127.724 106.708 127.354 102.95 124.623 102.123C123.565 101.803 122.394 102.041 121.343 101.697C120.462 101.409 119.757 100.744 118.912 100.365C118.067 99.9868 116.876 100.019 116.43 100.83C114.911 103.592 110.246 103.706 108.594 101.02C106.675 114.702 111.864 129.186 122.038 138.547C132.212 147.908 147.089 151.886 160.585 148.855C174.08 145.824 185.821 135.868 191.004 123.059C189.564 122.417 188.748 120.828 188.537 119.267C188.327 117.706 188.608 116.127 188.764 114.56C189.077 111.408 188.88 108.207 188.183 105.117C187.996 104.286 187.629 103.318 186.794 103.146C184.287 102.629 181.908 101.504 179.92 99.8942C178.409 98.6716 177.142 96.2481 178.612 94.977C179.296 94.3848 178.324 93.4094 177.97 92.5765C177.223 90.8183 179.512 89.3743 181.341 88.8168C183.485 88.1633 185.63 87.5097 187.775 86.8565C188.006 86.7857 188.252 86.7146 188.487 86.7719C189.17 86.9387 189.122 88.0412 188.547 88.4461C187.972 88.8512 187.204 88.7855 186.501 88.7686C183.702 88.7022 180.892 89.7252 178.792 91.5744C179.727 92.6058 179.967 94.2082 179.377 95.4678C178.666 96.9846 179.675 98.8243 181.069 99.7539C182.463 100.684 184.164 101 185.729 101.601C187.294 102.201 188.871 103.268 189.25 104.899C190.018 108.203 190.185 111.646 189.741 115.009C189.406 117.547 189.092 120.845 191.4 121.958ZM135.191 160.785C134.314 159.815 134.531 158.277 135.077 157.09C135.624 155.904 136.45 154.817 136.681 153.531C136.912 152.245 136.214 150.641 134.91 150.541C133.955 153.684 133 156.828 132.045 159.971C149.5 165.86 169.812 162.434 184.363 151.147C198.913 139.86 207.264 121.052 205.872 102.703C204.481 84.3538 193.388 67.0168 177.3 58.0482C176.917 57.8345 176.487 57.6177 176.057 57.7111C175.506 57.8304 175.193 58.3984 174.95 58.9073C174.143 60.6041 173.335 62.3006 172.528 63.997C174.43 65.1127 175.447 67.5497 174.9 69.6843C185.786 76.576 193.367 88.4488 195.031 101.214C196.696 113.98 192.413 127.396 183.657 136.843C174.9 146.29 161.838 151.588 148.967 150.912C145.95 150.754 142.702 150.337 140.102 151.874C137.097 153.651 136.017 157.396 135.191 160.785ZM176.286 52.1101C175.293 51.6682 174.213 51.2431 173.147 51.4545C172.081 51.6655 171.134 52.794 171.523 53.8075C190.212 61.4286 204.164 79.5873 206.699 99.5905C209.234 119.594 200.253 140.652 184.055 152.684C167.856 164.717 145.08 167.248 126.63 159.066C124.838 158.272 122.391 157.528 121.209 159.091C120.481 160.053 120.725 161.49 121.459 162.447C122.193 163.404 123.305 163.985 124.395 164.504C144.077 173.872 168.734 171.821 186.593 159.33C204.452 146.838 214.814 124.396 212.73 102.719C210.646 81.0418 196.199 60.9793 176.286 52.1101ZM109.917 96.4065C112.214 95.7803 114.51 95.154 116.807 94.5277C118.391 94.0956 120.352 93.7643 121.446 94.9875C123.213 96.9624 125.948 97.866 128.599 97.9163C131.25 97.9665 133.854 97.2529 136.376 96.4348C139.813 95.3195 143.474 93.7461 145.119 90.5322C146.087 88.6432 147.079 86.6367 146.948 84.5193C146.827 82.5673 145.767 80.8152 144.736 79.1528C143.87 77.7557 142.982 76.3329 141.716 75.283C139.557 73.4915 136.507 72.9576 134.534 70.9635C133.394 69.8107 131.582 69.5296 130 69.8883C128.417 70.2469 127.019 71.1536 125.713 72.1156C118.228 77.632 112.586 85.6012 109.874 94.4886C109.68 95.1247 109.518 95.8743 109.917 96.4065ZM175.105 75.6703C175.838 74.618 177.493 74.9843 178.585 75.6581C179.677 76.3319 180.854 77.2444 182.097 76.9258C175.306 70.046 166.209 65.4774 156.629 64.1359C154.15 63.7887 151.306 63.7668 149.524 65.5236C153.984 66.8597 158.445 68.1962 162.906 69.5323C163.492 69.7083 164.112 69.9044 164.514 70.3666C165.221 71.1785 164.968 72.4122 165.164 73.4702C165.447 74.9948 166.729 76.1816 168.163 76.7779C169.596 77.3741 171.179 77.48 172.728 77.5787C173.266 77.6131 173.867 77.6279 174.273 77.2737C174.732 76.8743 174.758 76.1688 175.105 75.6703ZM173.751 68.9175C174.168 68.0071 173.792 66.8897 173.1 66.1657C172.408 65.4417 171.458 65.0295 170.528 64.657C168.897 64.0034 167.204 63.4072 165.447 63.36C165.007 63.3482 164.522 63.389 164.206 63.6954C163.89 64.0021 163.919 64.654 164.341 64.7814C167.629 65.7747 170.796 67.1668 173.751 68.9175ZM141.699 149.868C138.501 149.273 135.389 148.223 132.485 146.759C132.245 146.638 131.989 146.511 131.721 146.536C131.453 146.562 131.189 146.812 131.257 147.072C131.303 147.248 131.474 147.358 131.631 147.45C133.3 148.43 134.984 149.417 136.815 150.045C138.647 150.673 140.66 150.925 142.525 150.405C142.463 150.06 142.044 149.933 141.699 149.868ZM173.984 56.225C173.733 55.8576 173.145 55.8842 172.797 56.1616C172.449 56.439 172.281 56.8785 172.129 57.2962C171.493 59.0432 170.856 60.7902 170.219 62.5372C170.161 62.698 170.102 62.8655 170.121 63.035C170.176 63.5282 170.876 63.7068 171.301 63.45C171.726 63.1931 171.928 62.6946 172.103 62.2301C172.714 60.6008 173.326 58.9714 173.937 57.342C174.074 56.9783 174.203 56.5455 173.984 56.225Z" fill="black"/>
<path d="M77.7866 210.211C77.9461 210.211 78.0942 210.274 78.231 210.399C78.3791 210.513 78.4531 210.667 78.4531 210.86C78.4531 211.1 78.3449 211.282 78.1284 211.407C78.117 211.419 77.9575 211.527 77.6499 211.732C77.3537 211.937 77.0005 212.256 76.5903 212.689C77.4448 212.792 78.3164 212.843 79.2051 212.843C80.071 212.843 80.8571 212.786 81.5635 212.672C82.2812 212.547 82.9193 212.381 83.4775 212.176C84.0472 211.96 84.5371 211.709 84.9473 211.424C85.3688 211.139 85.7163 210.826 85.9897 210.484C86.0581 210.405 86.1379 210.342 86.229 210.296C86.3201 210.239 86.417 210.211 86.5195 210.211C86.7018 210.211 86.8499 210.279 86.9639 210.416C87.0892 210.553 87.1519 210.701 87.1519 210.86C87.1519 211.02 87.112 211.145 87.0322 211.236C86.7588 211.601 86.3942 211.96 85.9385 212.313C85.4827 212.655 84.9302 212.962 84.2808 213.236C83.6313 213.509 82.8851 213.731 82.042 213.902C81.1989 214.062 80.259 214.142 79.2222 214.142C78.6297 214.142 78.0373 214.119 77.4448 214.073C76.8524 214.016 76.2599 213.942 75.6675 213.851C75.4054 214.227 75.1605 214.649 74.9326 215.116C74.7161 215.583 74.5396 216.096 74.4028 216.654C74.1636 217.611 74.0269 218.625 73.9927 219.696C73.9699 220.767 73.9471 221.861 73.9243 222.977C73.9129 224.082 73.8617 225.187 73.7705 226.292C73.6794 227.386 73.4629 228.446 73.1211 229.471C72.859 230.246 72.5059 230.964 72.0615 231.625C71.6286 232.285 71.0931 232.861 70.4551 233.351C69.8285 233.829 69.105 234.205 68.2847 234.479C67.4757 234.763 66.5643 234.906 65.5503 234.906C63.8869 234.906 62.383 234.575 61.0386 233.915C59.6942 233.254 58.5264 232.211 57.5352 230.787C57.501 230.73 57.4554 230.65 57.3984 230.548C57.3415 230.445 57.313 230.343 57.313 230.24C57.313 230.081 57.37 229.927 57.4839 229.779C57.5978 229.631 57.7573 229.557 57.9624 229.557C58.0877 229.557 58.2017 229.591 58.3042 229.659C58.4067 229.716 58.4865 229.79 58.5435 229.881C59.3752 231.157 60.3493 232.103 61.4658 232.718C62.5824 233.322 63.9382 233.624 65.5332 233.624C66.3763 233.624 67.134 233.521 67.8062 233.316C68.4784 233.1 69.0708 232.798 69.5835 232.411C70.1076 232.012 70.5576 231.528 70.9336 230.958C71.3096 230.388 71.6229 229.739 71.8735 229.01C72.147 228.212 72.3179 227.295 72.3862 226.258C72.466 225.21 72.5173 224.122 72.54 222.994C72.5628 221.855 72.6027 220.715 72.6597 219.576C72.728 218.437 72.8875 217.36 73.1382 216.346C73.2635 215.811 73.4287 215.315 73.6338 214.859C73.8389 214.404 74.0553 213.982 74.2832 213.595C72.7565 213.287 71.2355 212.9 69.7202 212.433C68.2163 211.954 66.7409 211.498 65.2939 211.065C63.8584 210.621 62.4684 210.239 61.124 209.92C59.791 209.601 58.5321 209.442 57.3472 209.442C56.2648 209.442 55.2622 209.596 54.3394 209.903C53.4279 210.211 52.6361 210.644 51.9639 211.202C51.3031 211.76 50.7847 212.433 50.4087 213.219C50.0441 214.005 49.8618 214.876 49.8618 215.833C49.8618 216.528 49.9814 217.167 50.2207 217.748C50.4714 218.329 50.8132 218.836 51.2461 219.269C51.679 219.69 52.1917 220.021 52.7842 220.26C53.3766 220.499 54.026 220.619 54.7324 220.619C55.473 220.619 56.1338 220.51 56.7148 220.294C57.2959 220.066 57.8086 219.787 58.2529 219.457C58.6973 219.126 59.0732 218.767 59.3809 218.38C59.6999 217.993 59.9562 217.634 60.1499 217.303C60.355 216.961 60.5031 216.682 60.5942 216.466C60.6968 216.238 60.748 216.124 60.748 216.124C60.7936 215.999 60.8734 215.896 60.9873 215.816C61.1012 215.737 61.2266 215.697 61.3633 215.697C61.557 215.697 61.7108 215.765 61.8247 215.902C61.95 216.027 62.0127 216.175 62.0127 216.346C62.0127 216.38 62.007 216.415 61.9956 216.449C61.9956 216.472 61.9899 216.5 61.9785 216.534C61.9671 216.557 61.9045 216.711 61.7905 216.996C61.6766 217.269 61.5 217.605 61.2607 218.004C61.0215 218.391 60.7139 218.813 60.3379 219.269C59.9619 219.724 59.5062 220.152 58.9707 220.55C58.4352 220.938 57.8143 221.262 57.1079 221.524C56.4129 221.775 55.6154 221.9 54.7153 221.9C53.8494 221.9 53.0405 221.747 52.2886 221.439C51.548 221.131 50.8986 220.71 50.3403 220.174C49.7935 219.639 49.3605 219.001 49.0415 218.26C48.7339 217.52 48.5801 216.711 48.5801 215.833C48.5801 214.671 48.8022 213.623 49.2466 212.689C49.6909 211.743 50.3062 210.934 51.0923 210.262C51.8784 209.59 52.807 209.072 53.8779 208.707C54.9489 208.342 56.111 208.16 57.3643 208.16C58.2757 208.16 59.1929 208.24 60.1157 208.399C61.0386 208.559 61.9728 208.77 62.9185 209.032C63.8755 209.294 64.8439 209.584 65.8237 209.903C66.8035 210.222 67.7948 210.547 68.7974 210.877C69.8114 211.196 70.8368 211.498 71.8735 211.783C72.9217 212.068 73.987 212.302 75.0693 212.484C75.3542 212.131 75.6333 211.817 75.9067 211.544C76.1916 211.271 76.4422 211.048 76.6587 210.877C76.8866 210.695 77.0745 210.558 77.2227 210.467C77.3708 210.365 77.4562 210.308 77.479 210.296C77.5929 210.239 77.6955 210.211 77.7866 210.211ZM80.7261 226.976C80.6805 227.284 80.6235 227.574 80.5552 227.848C80.4868 228.11 80.4185 228.343 80.3501 228.548C80.2931 228.742 80.2419 228.902 80.1963 229.027C80.1507 229.152 80.1222 229.221 80.1108 229.232C79.9969 229.494 79.7975 229.625 79.5127 229.625C79.3532 229.625 79.2051 229.568 79.0684 229.454C78.9316 229.329 78.8633 229.175 78.8633 228.993C78.8633 228.924 78.8747 228.873 78.8975 228.839C78.9202 228.805 78.9544 228.736 79 228.634C79.0456 228.531 79.1025 228.36 79.1709 228.121C79.2393 227.882 79.3247 227.512 79.4272 227.01C79.2336 227.01 79.0342 227.005 78.8291 226.993C78.624 226.982 78.436 226.942 78.2651 226.874C78.0828 226.805 77.9347 226.697 77.8208 226.549C77.7069 226.401 77.6499 226.196 77.6499 225.934C77.6499 225.74 77.7069 225.478 77.8208 225.147C77.9233 224.817 78.0658 224.492 78.248 224.173C78.4303 223.854 78.6354 223.581 78.8633 223.353C79.0911 223.114 79.319 222.994 79.5469 222.994C79.8089 222.994 80.0197 223.091 80.1792 223.285C80.3501 223.478 80.4811 223.718 80.5723 224.002C80.6634 224.276 80.7261 224.566 80.7603 224.874C80.8058 225.182 80.8286 225.449 80.8286 225.677C81.0223 225.677 81.2103 225.677 81.3926 225.677C81.5863 225.666 81.7686 225.66 81.9395 225.66C82.5889 225.66 83.0845 225.803 83.4263 226.087C83.7681 226.372 83.939 226.839 83.939 227.489C83.939 227.751 83.9219 228.024 83.8877 228.309C83.8535 228.594 83.8136 228.89 83.7681 229.198C83.7225 229.494 83.6826 229.79 83.6484 230.086C83.6143 230.383 83.5972 230.673 83.5972 230.958C83.5972 231.368 83.6541 231.71 83.7681 231.983C83.882 232.245 84.0244 232.456 84.1953 232.616C84.3662 232.775 84.5485 232.889 84.7422 232.958C84.9359 233.014 85.1125 233.043 85.272 233.043C85.7619 233.043 86.2233 232.883 86.6562 232.564C87.0892 232.245 87.488 231.864 87.8525 231.419C88.2171 230.964 88.5418 230.485 88.8267 229.984C89.1229 229.483 89.3678 229.044 89.5615 228.668C89.6185 228.565 89.6982 228.486 89.8008 228.429C89.9033 228.372 90.0116 228.343 90.1255 228.343C90.3306 228.343 90.4901 228.412 90.604 228.548C90.7179 228.674 90.7749 228.816 90.7749 228.976C90.7749 229.09 90.7521 229.192 90.7065 229.283C90.4445 229.75 90.1369 230.28 89.7837 230.873C89.4419 231.454 89.0488 232 88.6045 232.513C88.1602 233.026 87.6589 233.459 87.1006 233.812C86.5537 234.165 85.9499 234.342 85.2891 234.342C84.8789 234.342 84.4915 234.262 84.127 234.103C83.7624 233.954 83.4434 233.738 83.1699 233.453C82.9079 233.157 82.6971 232.798 82.5376 232.376C82.3781 231.944 82.2983 231.459 82.2983 230.924C82.2983 230.354 82.3553 229.79 82.4692 229.232C82.5832 228.662 82.6401 228.121 82.6401 227.608C82.6401 227.392 82.5889 227.232 82.4863 227.13C82.3952 227.016 82.1844 226.959 81.854 226.959C81.6945 226.959 81.5179 226.959 81.3242 226.959C81.1419 226.959 80.9425 226.965 80.7261 226.976ZM79.5811 225.711C79.5811 225.632 79.5754 225.529 79.564 225.404C79.564 225.267 79.5526 225.136 79.5298 225.011C79.5184 224.885 79.4956 224.777 79.4614 224.686C79.4386 224.595 79.4102 224.549 79.376 224.549C79.3418 224.549 79.2962 224.595 79.2393 224.686C79.1937 224.766 79.1424 224.868 79.0854 224.994C79.0285 225.108 78.9772 225.233 78.9316 225.37C78.8861 225.506 78.8519 225.62 78.8291 225.711H79.5811ZM102.772 229.232C102.726 229.323 102.63 229.517 102.481 229.813C102.345 230.098 102.162 230.428 101.935 230.804C101.718 231.18 101.462 231.573 101.166 231.983C100.869 232.394 100.539 232.77 100.174 233.111C99.8097 233.453 99.4167 233.738 98.9951 233.966C98.5736 234.182 98.1292 234.291 97.6621 234.291C97.0013 234.291 96.443 234.08 95.9873 233.658C95.543 233.237 95.2183 232.707 95.0132 232.069C94.6258 232.718 94.1644 233.237 93.6289 233.624C93.0934 234 92.5579 234.188 92.0225 234.188C91.6009 234.188 91.2192 234.114 90.8774 233.966C90.5356 233.806 90.2451 233.59 90.0059 233.316C89.7666 233.032 89.5786 232.701 89.4419 232.325C89.3166 231.949 89.2539 231.539 89.2539 231.095C89.2539 230.206 89.402 229.426 89.6982 228.753C90.0059 228.07 90.3932 227.5 90.8604 227.044C91.3275 226.589 91.8402 226.247 92.3984 226.019C92.9681 225.791 93.515 225.677 94.0391 225.677C94.3923 225.677 94.717 225.729 95.0132 225.831C95.3094 225.922 95.5601 226.025 95.7651 226.139C95.9816 226.253 96.1468 226.361 96.2607 226.463C96.3747 226.555 96.4373 226.606 96.4487 226.617C96.5741 226.765 96.6367 226.919 96.6367 227.079C96.6367 227.25 96.5741 227.403 96.4487 227.54C96.3234 227.665 96.1753 227.728 96.0044 227.728C95.8221 227.728 95.6683 227.665 95.543 227.54C95.5202 227.517 95.4689 227.477 95.3892 227.42C95.3094 227.352 95.2012 227.284 95.0645 227.215C94.9277 227.147 94.7625 227.09 94.5688 227.044C94.3866 226.987 94.1758 226.959 93.9365 226.959C93.5833 226.959 93.2074 227.039 92.8086 227.198C92.4098 227.358 92.0452 227.608 91.7148 227.95C91.3844 228.281 91.1053 228.702 90.8774 229.215C90.661 229.716 90.5527 230.314 90.5527 231.009C90.5527 231.226 90.5755 231.448 90.6211 231.676C90.6667 231.892 90.7464 232.092 90.8604 232.274C90.9743 232.456 91.1281 232.604 91.3218 232.718C91.5155 232.832 91.7547 232.889 92.0396 232.889C92.2446 232.889 92.4782 232.821 92.7402 232.684C93.0137 232.547 93.27 232.337 93.5093 232.052C93.7599 231.767 93.9821 231.408 94.1758 230.975C94.3809 230.542 94.5233 230.029 94.603 229.437C94.6258 229.278 94.6999 229.146 94.8252 229.044C94.9505 228.93 95.0986 228.873 95.2695 228.873C95.429 228.873 95.5658 228.936 95.6797 229.061C95.805 229.186 95.8734 229.329 95.8848 229.488C95.8962 229.705 95.9189 230.012 95.9531 230.411C95.9873 230.799 96.0614 231.186 96.1753 231.573C96.3006 231.961 96.4829 232.297 96.7222 232.582C96.9614 232.866 97.2918 233.009 97.7134 233.009C97.9868 233.009 98.2546 232.935 98.5166 232.787C98.79 232.639 99.0521 232.445 99.3027 232.206C99.5648 231.955 99.8097 231.676 100.038 231.368C100.277 231.049 100.493 230.73 100.687 230.411C100.881 230.092 101.052 229.785 101.2 229.488C101.348 229.192 101.473 228.936 101.576 228.719C101.633 228.594 101.712 228.497 101.815 228.429C101.929 228.36 102.049 228.326 102.174 228.326C102.368 228.326 102.521 228.4 102.635 228.548C102.761 228.685 102.823 228.833 102.823 228.993C102.823 229.072 102.806 229.152 102.772 229.232ZM108.514 228.617C108.343 229.414 108.098 230.16 107.779 230.855C107.46 231.539 107.118 232.137 106.754 232.65C106.401 233.163 106.042 233.567 105.677 233.863C105.313 234.16 104.999 234.319 104.737 234.342C104.441 234.342 104.111 234.194 103.746 233.897C103.393 233.601 103.051 233.191 102.721 232.667C102.402 232.132 102.134 231.499 101.917 230.77C101.701 230.041 101.593 229.249 101.593 228.395C101.593 227.643 101.655 227.073 101.781 226.686C101.917 226.298 102.003 226.076 102.037 226.019C102.094 225.917 102.168 225.837 102.259 225.78C102.362 225.723 102.476 225.694 102.601 225.694C102.795 225.694 102.949 225.763 103.062 225.899C103.176 226.025 103.233 226.167 103.233 226.327C103.233 226.441 103.211 226.537 103.165 226.617C103.154 226.64 103.102 226.794 103.011 227.079C102.92 227.363 102.875 227.791 102.875 228.36C102.875 229.033 102.943 229.653 103.08 230.223C103.216 230.793 103.382 231.283 103.575 231.693C103.769 232.103 103.968 232.428 104.173 232.667C104.39 232.895 104.566 233.009 104.703 233.009C104.794 233.009 104.925 232.923 105.096 232.752C105.278 232.582 105.466 232.348 105.66 232.052C105.865 231.756 106.07 231.402 106.275 230.992C106.492 230.582 106.686 230.138 106.856 229.659C107.039 229.169 107.181 228.657 107.284 228.121C107.398 227.574 107.455 227.022 107.455 226.463C107.455 226.349 107.449 226.241 107.438 226.139C107.438 226.025 107.438 225.911 107.438 225.797C107.438 225.603 107.494 225.444 107.608 225.318C107.734 225.182 107.893 225.113 108.087 225.113C108.235 225.113 108.366 225.159 108.48 225.25C108.605 225.341 108.685 225.466 108.719 225.626C108.719 225.615 108.742 225.706 108.788 225.899C108.833 226.093 108.907 226.344 109.01 226.651C109.124 226.948 109.26 227.272 109.42 227.625C109.591 227.979 109.79 228.309 110.018 228.617C110.257 228.913 110.531 229.164 110.838 229.369C111.146 229.574 111.499 229.676 111.898 229.676C112.114 229.676 112.302 229.631 112.462 229.54C112.621 229.448 112.752 229.346 112.855 229.232C112.958 229.118 113.032 229.01 113.077 228.907C113.134 228.805 113.163 228.748 113.163 228.736C113.208 228.611 113.282 228.514 113.385 228.446C113.499 228.366 113.624 228.326 113.761 228.326C113.943 228.326 114.097 228.395 114.222 228.531C114.347 228.657 114.41 228.805 114.41 228.976C114.41 229.055 114.393 229.135 114.359 229.215C114.291 229.374 114.188 229.557 114.051 229.762C113.926 229.967 113.761 230.16 113.556 230.343C113.351 230.525 113.106 230.679 112.821 230.804C112.547 230.918 112.24 230.975 111.898 230.975C111.499 230.975 111.129 230.907 110.787 230.77C110.445 230.622 110.132 230.44 109.847 230.223C109.574 229.995 109.323 229.745 109.095 229.471C108.867 229.186 108.674 228.902 108.514 228.617ZM115.23 232.12C115.47 232.451 115.777 232.718 116.153 232.923C116.529 233.117 116.991 233.214 117.538 233.214C118.096 233.214 118.603 233.083 119.059 232.821C119.514 232.547 119.93 232.194 120.306 231.761C120.682 231.328 121.018 230.844 121.314 230.309C121.611 229.773 121.878 229.238 122.118 228.702C122.175 228.577 122.254 228.486 122.357 228.429C122.459 228.36 122.573 228.326 122.699 228.326C122.892 228.326 123.046 228.395 123.16 228.531C123.285 228.668 123.348 228.816 123.348 228.976C123.348 229.033 123.342 229.084 123.331 229.129C123.32 229.164 123.303 229.203 123.28 229.249C122.494 230.981 121.633 232.285 120.699 233.163C119.776 234.04 118.728 234.49 117.555 234.513C116.803 234.513 116.153 234.365 115.606 234.068C115.06 233.784 114.61 233.413 114.256 232.958C113.903 232.49 113.641 231.966 113.47 231.385C113.299 230.804 113.214 230.223 113.214 229.642C113.214 229.061 113.282 228.526 113.419 228.036C113.567 227.546 113.772 227.118 114.034 226.754C114.308 226.389 114.627 226.104 114.991 225.899C115.367 225.694 115.777 225.592 116.222 225.592C116.484 225.592 116.74 225.649 116.991 225.763C117.253 225.865 117.486 226.019 117.691 226.224C117.896 226.418 118.062 226.657 118.187 226.942C118.312 227.227 118.375 227.551 118.375 227.916C118.375 228.383 118.295 228.822 118.136 229.232C117.976 229.642 117.754 230.024 117.469 230.377C117.196 230.73 116.865 231.055 116.478 231.351C116.091 231.647 115.675 231.904 115.23 232.12ZM114.718 231.009C115.071 230.861 115.39 230.673 115.675 230.445C115.971 230.217 116.222 229.967 116.427 229.693C116.632 229.42 116.791 229.135 116.905 228.839C117.019 228.531 117.076 228.224 117.076 227.916C117.076 227.574 116.991 227.318 116.82 227.147C116.649 226.965 116.45 226.874 116.222 226.874C115.914 226.874 115.652 226.959 115.436 227.13C115.219 227.301 115.042 227.523 114.906 227.796C114.769 228.07 114.667 228.377 114.598 228.719C114.541 229.05 114.513 229.38 114.513 229.71C114.513 229.916 114.53 230.132 114.564 230.36C114.61 230.588 114.661 230.804 114.718 231.009ZM131.859 229.266C131.734 229.528 131.574 229.841 131.38 230.206C131.198 230.559 130.987 230.93 130.748 231.317C130.509 231.704 130.241 232.092 129.945 232.479C129.649 232.855 129.324 233.197 128.971 233.504C128.629 233.801 128.259 234.04 127.86 234.222C127.472 234.416 127.057 234.513 126.612 234.513C125.929 234.513 125.342 234.302 124.852 233.88C124.362 233.459 123.946 232.906 123.604 232.223C123.263 231.539 122.984 230.764 122.767 229.898C122.562 229.021 122.403 228.132 122.289 227.232C122.175 226.321 122.095 225.438 122.049 224.583C122.015 223.729 121.998 222.971 121.998 222.311C121.998 221.354 122.027 220.362 122.083 219.337C122.152 218.312 122.254 217.309 122.391 216.329C122.528 215.349 122.699 214.421 122.904 213.543C123.12 212.666 123.371 211.897 123.656 211.236C123.952 210.576 124.288 210.051 124.664 209.664C125.04 209.277 125.467 209.083 125.946 209.083C126.322 209.083 126.658 209.174 126.954 209.356C127.262 209.527 127.518 209.812 127.723 210.211C127.928 210.61 128.088 211.128 128.202 211.766C128.316 212.404 128.373 213.185 128.373 214.107C128.373 215.247 128.253 216.426 128.014 217.645C127.774 218.853 127.45 220.072 127.04 221.302C126.629 222.533 126.145 223.763 125.587 224.994C125.029 226.213 124.431 227.403 123.792 228.565C124.077 230.012 124.459 231.152 124.938 231.983C125.416 232.804 125.991 233.214 126.664 233.214C127.119 233.214 127.558 233.037 127.979 232.684C128.401 232.319 128.788 231.892 129.142 231.402C129.495 230.912 129.802 230.417 130.064 229.916C130.338 229.403 130.549 228.993 130.697 228.685C130.754 228.571 130.833 228.486 130.936 228.429C131.039 228.36 131.153 228.326 131.278 228.326C131.472 228.326 131.625 228.395 131.739 228.531C131.865 228.668 131.927 228.822 131.927 228.993C131.927 229.061 131.904 229.152 131.859 229.266ZM123.297 222.396C123.297 223.125 123.314 223.826 123.348 224.498C123.382 225.17 123.428 225.814 123.485 226.429C123.963 225.506 124.419 224.527 124.852 223.49C125.285 222.442 125.667 221.388 125.997 220.328C126.327 219.257 126.59 218.198 126.783 217.149C126.988 216.09 127.091 215.082 127.091 214.125C127.091 212.78 126.983 211.817 126.766 211.236C126.55 210.655 126.259 210.365 125.895 210.365C125.655 210.365 125.422 210.53 125.194 210.86C124.977 211.191 124.772 211.641 124.579 212.21C124.385 212.78 124.208 213.452 124.049 214.227C123.889 215.002 123.753 215.833 123.639 216.722C123.536 217.611 123.451 218.539 123.382 219.508C123.325 220.476 123.297 221.439 123.297 222.396ZM151.615 229.232C151.569 229.323 151.472 229.517 151.324 229.813C151.188 230.098 151.005 230.428 150.777 230.804C150.561 231.18 150.305 231.573 150.008 231.983C149.712 232.394 149.382 232.77 149.017 233.111C148.653 233.453 148.259 233.738 147.838 233.966C147.416 234.182 146.972 234.291 146.505 234.291C145.844 234.291 145.286 234.08 144.83 233.658C144.386 233.237 144.061 232.707 143.856 232.069C143.469 232.718 143.007 233.237 142.472 233.624C141.936 234 141.401 234.188 140.865 234.188C140.444 234.188 140.062 234.114 139.72 233.966C139.378 233.806 139.088 233.59 138.849 233.316C138.609 233.032 138.421 232.701 138.285 232.325C138.159 231.949 138.097 231.539 138.097 231.095C138.097 230.206 138.245 229.426 138.541 228.753C138.849 228.07 139.236 227.5 139.703 227.044C140.17 226.589 140.683 226.247 141.241 226.019C141.811 225.791 142.358 225.677 142.882 225.677C143.235 225.677 143.56 225.729 143.856 225.831C144.152 225.922 144.403 226.025 144.608 226.139C144.824 226.253 144.99 226.361 145.104 226.463C145.217 226.555 145.28 226.606 145.292 226.617C145.417 226.765 145.479 226.919 145.479 227.079C145.479 227.25 145.417 227.403 145.292 227.54C145.166 227.665 145.018 227.728 144.847 227.728C144.665 227.728 144.511 227.665 144.386 227.54C144.363 227.517 144.312 227.477 144.232 227.42C144.152 227.352 144.044 227.284 143.907 227.215C143.771 227.147 143.605 227.09 143.412 227.044C143.229 226.987 143.019 226.959 142.779 226.959C142.426 226.959 142.05 227.039 141.651 227.198C141.253 227.358 140.888 227.608 140.558 227.95C140.227 228.281 139.948 228.702 139.72 229.215C139.504 229.716 139.396 230.314 139.396 231.009C139.396 231.226 139.418 231.448 139.464 231.676C139.509 231.892 139.589 232.092 139.703 232.274C139.817 232.456 139.971 232.604 140.165 232.718C140.358 232.832 140.597 232.889 140.882 232.889C141.087 232.889 141.321 232.821 141.583 232.684C141.856 232.547 142.113 232.337 142.352 232.052C142.603 231.767 142.825 231.408 143.019 230.975C143.224 230.542 143.366 230.029 143.446 229.437C143.469 229.278 143.543 229.146 143.668 229.044C143.793 228.93 143.941 228.873 144.112 228.873C144.272 228.873 144.409 228.936 144.522 229.061C144.648 229.186 144.716 229.329 144.728 229.488C144.739 229.705 144.762 230.012 144.796 230.411C144.83 230.799 144.904 231.186 145.018 231.573C145.143 231.961 145.326 232.297 145.565 232.582C145.804 232.866 146.135 233.009 146.556 233.009C146.83 233.009 147.097 232.935 147.359 232.787C147.633 232.639 147.895 232.445 148.146 232.206C148.408 231.955 148.653 231.676 148.88 231.368C149.12 231.049 149.336 230.73 149.53 230.411C149.723 230.092 149.894 229.785 150.042 229.488C150.191 229.192 150.316 228.936 150.418 228.719C150.475 228.594 150.555 228.497 150.658 228.429C150.772 228.36 150.891 228.326 151.017 228.326C151.21 228.326 151.364 228.4 151.478 228.548C151.603 228.685 151.666 228.833 151.666 228.993C151.666 229.072 151.649 229.152 151.615 229.232ZM152.23 226.976C152.184 227.284 152.127 227.574 152.059 227.848C151.991 228.11 151.922 228.343 151.854 228.548C151.797 228.742 151.746 228.902 151.7 229.027C151.655 229.152 151.626 229.221 151.615 229.232C151.501 229.494 151.301 229.625 151.017 229.625C150.857 229.625 150.709 229.568 150.572 229.454C150.436 229.329 150.367 229.175 150.367 228.993C150.367 228.924 150.379 228.873 150.401 228.839C150.424 228.805 150.458 228.736 150.504 228.634C150.549 228.531 150.606 228.36 150.675 228.121C150.743 227.882 150.829 227.512 150.931 227.01C150.737 227.01 150.538 227.005 150.333 226.993C150.128 226.982 149.94 226.942 149.769 226.874C149.587 226.805 149.439 226.697 149.325 226.549C149.211 226.401 149.154 226.196 149.154 225.934C149.154 225.74 149.211 225.478 149.325 225.147C149.427 224.817 149.57 224.492 149.752 224.173C149.934 223.854 150.139 223.581 150.367 223.353C150.595 223.114 150.823 222.994 151.051 222.994C151.313 222.994 151.524 223.091 151.683 223.285C151.854 223.478 151.985 223.718 152.076 224.002C152.167 224.276 152.23 224.566 152.264 224.874C152.31 225.182 152.333 225.449 152.333 225.677C152.526 225.677 152.714 225.677 152.896 225.677C153.09 225.666 153.272 225.66 153.443 225.66C154.093 225.66 154.588 225.803 154.93 226.087C155.272 226.372 155.443 226.839 155.443 227.489C155.443 227.751 155.426 228.024 155.392 228.309C155.357 228.594 155.318 228.89 155.272 229.198C155.226 229.494 155.187 229.79 155.152 230.086C155.118 230.383 155.101 230.673 155.101 230.958C155.101 231.368 155.158 231.71 155.272 231.983C155.386 232.245 155.528 232.456 155.699 232.616C155.87 232.775 156.052 232.889 156.246 232.958C156.44 233.014 156.616 233.043 156.776 233.043C157.266 233.043 157.727 232.883 158.16 232.564C158.593 232.245 158.992 231.864 159.356 231.419C159.721 230.964 160.046 230.485 160.331 229.984C160.627 229.483 160.872 229.044 161.065 228.668C161.122 228.565 161.202 228.486 161.305 228.429C161.407 228.372 161.515 228.343 161.629 228.343C161.834 228.343 161.994 228.412 162.108 228.548C162.222 228.674 162.279 228.816 162.279 228.976C162.279 229.09 162.256 229.192 162.21 229.283C161.948 229.75 161.641 230.28 161.288 230.873C160.946 231.454 160.553 232 160.108 232.513C159.664 233.026 159.163 233.459 158.604 233.812C158.058 234.165 157.454 234.342 156.793 234.342C156.383 234.342 155.995 234.262 155.631 234.103C155.266 233.954 154.947 233.738 154.674 233.453C154.412 233.157 154.201 232.798 154.042 232.376C153.882 231.944 153.802 231.459 153.802 230.924C153.802 230.354 153.859 229.79 153.973 229.232C154.087 228.662 154.144 228.121 154.144 227.608C154.144 227.392 154.093 227.232 153.99 227.13C153.899 227.016 153.688 226.959 153.358 226.959C153.198 226.959 153.022 226.959 152.828 226.959C152.646 226.959 152.446 226.965 152.23 226.976ZM151.085 225.711C151.085 225.632 151.079 225.529 151.068 225.404C151.068 225.267 151.056 225.136 151.034 225.011C151.022 224.885 151 224.777 150.965 224.686C150.943 224.595 150.914 224.549 150.88 224.549C150.846 224.549 150.8 224.595 150.743 224.686C150.698 224.766 150.646 224.868 150.589 224.994C150.532 225.108 150.481 225.233 150.436 225.37C150.39 225.506 150.356 225.62 150.333 225.711H151.085ZM168.944 232.12C168.659 232.12 168.408 232.097 168.192 232.052C168.021 232.394 167.816 232.713 167.577 233.009C167.337 233.294 167.058 233.544 166.739 233.761C166.432 233.977 166.084 234.148 165.697 234.273C165.309 234.399 164.888 234.461 164.432 234.461C163.897 234.461 163.407 234.365 162.962 234.171C162.518 233.989 162.131 233.732 161.8 233.402C161.47 233.06 161.214 232.656 161.031 232.188C160.849 231.71 160.758 231.186 160.758 230.616C160.758 229.887 160.889 229.255 161.151 228.719C161.413 228.172 161.715 227.722 162.057 227.369C162.398 227.005 162.74 226.737 163.082 226.566C163.424 226.384 163.68 226.292 163.851 226.292C164.045 226.292 164.187 226.344 164.278 226.446C164.381 226.549 164.432 226.686 164.432 226.856C164.432 227.05 164.369 227.198 164.244 227.301C164.13 227.392 163.982 227.483 163.8 227.574C163.618 227.665 163.424 227.796 163.219 227.967C163.014 228.127 162.82 228.332 162.638 228.583C162.467 228.833 162.324 229.129 162.21 229.471C162.097 229.813 162.04 230.195 162.04 230.616C162.04 230.992 162.097 231.345 162.21 231.676C162.324 231.995 162.49 232.274 162.706 232.513C162.923 232.741 163.179 232.923 163.475 233.06C163.771 233.185 164.102 233.248 164.466 233.248C165.116 233.248 165.651 233.1 166.073 232.804C166.506 232.496 166.836 232.109 167.064 231.642C166.392 231.288 165.839 230.787 165.406 230.138C164.973 229.488 164.757 228.759 164.757 227.95C164.757 227.301 164.911 226.771 165.218 226.361C165.537 225.951 165.953 225.746 166.466 225.746C166.773 225.746 167.064 225.82 167.337 225.968C167.611 226.116 167.85 226.349 168.055 226.668C168.272 226.987 168.443 227.398 168.568 227.899C168.693 228.4 168.756 228.998 168.756 229.693C168.756 230.058 168.71 230.44 168.619 230.838C168.688 230.85 168.756 230.855 168.824 230.855C168.893 230.855 168.967 230.855 169.046 230.855C169.434 230.855 169.781 230.81 170.089 230.719C170.396 230.628 170.676 230.491 170.926 230.309C171.177 230.126 171.399 229.893 171.593 229.608C171.798 229.323 171.992 228.993 172.174 228.617C172.208 228.548 172.282 228.486 172.396 228.429C172.51 228.36 172.624 228.326 172.738 228.326C172.886 228.326 173.023 228.389 173.148 228.514C173.285 228.628 173.353 228.782 173.353 228.976C173.353 229.067 173.33 229.169 173.285 229.283C173.239 229.386 173.194 229.483 173.148 229.574C172.954 229.916 172.726 230.246 172.464 230.565C172.214 230.873 171.912 231.146 171.559 231.385C171.217 231.613 170.829 231.795 170.396 231.932C169.964 232.069 169.479 232.132 168.944 232.12ZM166.021 227.813C166.021 228.03 166.05 228.258 166.107 228.497C166.164 228.736 166.249 228.976 166.363 229.215C166.489 229.443 166.637 229.665 166.808 229.881C166.99 230.086 167.201 230.263 167.44 230.411C167.474 230.172 167.491 229.938 167.491 229.71C167.491 229.403 167.468 229.09 167.423 228.771C167.377 228.451 167.309 228.161 167.218 227.899C167.138 227.625 167.035 227.409 166.91 227.25C166.785 227.079 166.637 226.993 166.466 226.993C166.397 226.993 166.306 227.044 166.192 227.147C166.078 227.25 166.021 227.472 166.021 227.813ZM177.813 232.086C177.415 232.735 176.948 233.248 176.412 233.624C175.888 234 175.358 234.188 174.823 234.188C174.39 234.188 174.002 234.108 173.661 233.949C173.319 233.789 173.023 233.567 172.772 233.282C172.521 232.986 172.328 232.633 172.191 232.223C172.066 231.812 172.003 231.351 172.003 230.838C172.003 230.041 172.077 229.334 172.225 228.719C172.385 228.104 172.556 227.591 172.738 227.181C172.92 226.76 173.091 226.441 173.25 226.224C173.41 226.008 173.49 225.899 173.49 225.899C173.547 225.831 173.615 225.78 173.695 225.746C173.786 225.711 173.877 225.694 173.968 225.694C174.151 225.694 174.299 225.763 174.413 225.899C174.538 226.025 174.601 226.173 174.601 226.344C174.601 226.412 174.583 226.48 174.549 226.549C174.527 226.617 174.498 226.686 174.464 226.754C174.407 226.856 174.316 227.016 174.19 227.232C174.065 227.438 173.934 227.711 173.797 228.053C173.661 228.395 173.541 228.799 173.438 229.266C173.336 229.722 173.285 230.246 173.285 230.838C173.285 231.511 173.416 232.023 173.678 232.376C173.951 232.718 174.333 232.889 174.823 232.889C175.028 232.889 175.261 232.826 175.523 232.701C175.797 232.564 176.059 232.359 176.31 232.086C176.572 231.812 176.799 231.465 176.993 231.043C177.187 230.622 177.312 230.126 177.369 229.557L177.625 226.617C177.648 226.446 177.722 226.304 177.848 226.19C177.973 226.076 178.121 226.019 178.292 226.019C178.486 226.019 178.639 226.093 178.753 226.241C178.867 226.378 178.924 226.537 178.924 226.72L178.702 229.557C178.679 229.796 178.685 230.109 178.719 230.497C178.765 230.884 178.85 231.266 178.976 231.642C179.101 232.018 179.289 232.342 179.54 232.616C179.79 232.878 180.121 233.009 180.531 233.009C180.827 233.009 181.118 232.935 181.402 232.787C181.687 232.627 181.961 232.422 182.223 232.171C182.485 231.921 182.724 231.642 182.94 231.334C183.168 231.015 183.373 230.696 183.556 230.377C183.749 230.058 183.915 229.756 184.051 229.471C184.188 229.175 184.302 228.924 184.393 228.719C184.45 228.594 184.53 228.497 184.632 228.429C184.735 228.36 184.849 228.326 184.974 228.326C185.179 228.326 185.339 228.395 185.453 228.531C185.567 228.668 185.624 228.816 185.624 228.976C185.624 229.067 185.606 229.152 185.572 229.232C185.527 229.323 185.436 229.517 185.299 229.813C185.174 230.098 185.003 230.428 184.786 230.804C184.581 231.169 184.33 231.556 184.034 231.966C183.738 232.376 183.408 232.758 183.043 233.111C182.678 233.453 182.28 233.738 181.847 233.966C181.425 234.182 180.969 234.291 180.479 234.291C179.807 234.291 179.249 234.103 178.805 233.727C178.36 233.339 178.03 232.792 177.813 232.086ZM188.204 232.462C188.386 232.086 188.597 231.676 188.836 231.231C189.076 230.776 189.332 230.32 189.605 229.864C189.879 229.397 190.164 228.936 190.46 228.48C190.768 228.024 191.087 227.591 191.417 227.181C191.747 226.782 192.078 226.498 192.408 226.327C192.75 226.144 193.069 226.053 193.365 226.053C193.958 226.053 194.396 226.27 194.681 226.703C194.966 227.136 195.108 227.671 195.108 228.309C195.108 228.457 195.097 228.639 195.074 228.856C195.063 229.061 195.046 229.283 195.023 229.522C195.012 229.762 194.994 230.007 194.972 230.257C194.96 230.497 194.955 230.724 194.955 230.941C194.955 231.214 194.966 231.476 194.989 231.727C195.023 231.978 195.08 232.2 195.16 232.394C195.239 232.576 195.353 232.724 195.501 232.838C195.65 232.94 195.843 232.992 196.083 232.992C196.515 232.992 196.937 232.826 197.347 232.496C197.757 232.154 198.133 231.756 198.475 231.3C198.828 230.833 199.13 230.36 199.381 229.881C199.643 229.403 199.837 229.015 199.962 228.719C200.019 228.594 200.099 228.497 200.201 228.429C200.315 228.36 200.435 228.326 200.56 228.326C200.754 228.326 200.908 228.4 201.021 228.548C201.147 228.685 201.209 228.833 201.209 228.993C201.209 229.072 201.192 229.152 201.158 229.232C201.113 229.323 201.021 229.511 200.885 229.796C200.748 230.081 200.566 230.411 200.338 230.787C200.121 231.152 199.865 231.545 199.569 231.966C199.273 232.376 198.942 232.752 198.578 233.094C198.224 233.436 197.837 233.721 197.416 233.949C197.005 234.177 196.572 234.291 196.117 234.291C195.604 234.291 195.188 234.194 194.869 234C194.55 233.795 194.299 233.533 194.117 233.214C193.935 232.883 193.81 232.525 193.741 232.137C193.684 231.738 193.656 231.34 193.656 230.941C193.656 230.77 193.661 230.576 193.673 230.36C193.696 230.143 193.718 229.916 193.741 229.676C193.775 229.437 193.798 229.198 193.81 228.958C193.832 228.719 193.844 228.491 193.844 228.275C193.844 227.91 193.787 227.665 193.673 227.54C193.559 227.403 193.456 227.335 193.365 227.335C193.183 227.335 192.972 227.443 192.733 227.66C192.505 227.865 192.26 228.138 191.998 228.48C191.747 228.822 191.485 229.209 191.212 229.642C190.95 230.064 190.699 230.485 190.46 230.907C190.232 231.328 190.016 231.733 189.811 232.12C189.617 232.496 189.463 232.809 189.349 233.06C189.121 233.539 188.893 233.858 188.666 234.017C188.438 234.188 188.204 234.273 187.965 234.273C187.634 234.273 187.367 234.177 187.162 233.983C186.968 233.778 186.871 233.493 186.871 233.128C186.871 233.049 186.882 232.895 186.905 232.667C186.928 232.428 186.957 232.149 186.991 231.83C187.025 231.499 187.059 231.146 187.093 230.77C187.127 230.394 187.162 230.024 187.196 229.659C187.23 229.283 187.258 228.936 187.281 228.617C187.304 228.298 187.315 228.03 187.315 227.813C187.315 227.529 187.304 227.255 187.281 226.993C187.258 226.731 187.213 226.572 187.145 226.515C187.042 226.549 186.86 226.765 186.598 227.164C186.336 227.551 186 228.241 185.589 229.232C185.532 229.357 185.447 229.454 185.333 229.522C185.219 229.591 185.099 229.625 184.974 229.625C184.78 229.625 184.627 229.562 184.513 229.437C184.399 229.3 184.342 229.146 184.342 228.976C184.342 228.896 184.359 228.81 184.393 228.719C184.906 227.5 185.384 226.606 185.829 226.036C186.284 225.455 186.734 225.165 187.179 225.165C187.441 225.165 187.663 225.233 187.845 225.37C188.028 225.495 188.17 225.666 188.272 225.882C188.386 226.099 188.466 226.338 188.512 226.6C188.569 226.862 188.597 227.13 188.597 227.403C188.597 227.608 188.58 227.927 188.546 228.36C188.523 228.793 188.489 229.26 188.443 229.762C188.398 230.252 188.352 230.742 188.307 231.231C188.272 231.721 188.238 232.132 188.204 232.462ZM206.627 229.027C207.185 231.659 207.994 232.975 209.054 232.975C209.464 232.975 209.857 232.826 210.233 232.53C210.609 232.223 210.956 231.852 211.275 231.419C211.606 230.975 211.896 230.508 212.147 230.018C212.398 229.528 212.603 229.101 212.762 228.736C212.876 228.463 213.076 228.326 213.36 228.326C213.543 228.326 213.696 228.395 213.822 228.531C213.947 228.668 214.01 228.816 214.01 228.976C214.01 229.067 213.993 229.146 213.958 229.215C213.879 229.409 213.759 229.671 213.6 230.001C213.451 230.32 213.264 230.667 213.036 231.043C212.819 231.408 212.574 231.784 212.301 232.171C212.027 232.559 211.725 232.906 211.395 233.214C211.065 233.521 210.711 233.778 210.335 233.983C209.971 234.177 209.583 234.273 209.173 234.273C208.41 234.273 207.755 234.011 207.208 233.487C206.661 232.952 206.188 232.075 205.79 230.855C205.243 232.018 204.69 232.861 204.132 233.385C203.574 233.909 202.97 234.171 202.32 234.171C201.979 234.171 201.648 234.114 201.329 234C201.01 233.897 200.731 233.721 200.492 233.47C200.252 233.22 200.059 232.901 199.911 232.513C199.763 232.114 199.688 231.63 199.688 231.061C199.688 230.274 199.825 229.551 200.099 228.89C200.372 228.229 200.725 227.665 201.158 227.198C201.591 226.72 202.07 226.349 202.594 226.087C203.129 225.825 203.659 225.694 204.183 225.694C204.354 225.694 204.502 225.757 204.627 225.882C204.753 225.996 204.815 226.144 204.815 226.327C204.815 226.486 204.764 226.629 204.662 226.754C204.559 226.879 204.422 226.953 204.251 226.976C203.91 227.022 203.545 227.13 203.158 227.301C202.77 227.472 202.411 227.722 202.081 228.053C201.762 228.372 201.494 228.782 201.278 229.283C201.073 229.785 200.97 230.383 200.97 231.078C200.97 231.647 201.084 232.092 201.312 232.411C201.551 232.73 201.893 232.889 202.337 232.889C202.52 232.889 202.713 232.844 202.918 232.752C203.124 232.65 203.34 232.456 203.568 232.171C203.807 231.887 204.063 231.482 204.337 230.958C204.622 230.434 204.935 229.745 205.277 228.89C205.083 227.888 204.907 226.731 204.747 225.421C204.588 224.111 204.508 222.647 204.508 221.029C204.508 220.322 204.531 219.588 204.576 218.824C204.622 218.049 204.696 217.298 204.798 216.568C204.901 215.828 205.038 215.127 205.208 214.466C205.379 213.806 205.584 213.224 205.824 212.723C206.074 212.222 206.365 211.829 206.695 211.544C207.026 211.248 207.402 211.1 207.823 211.1C208.199 211.1 208.518 211.202 208.78 211.407C209.042 211.612 209.253 211.897 209.413 212.262C209.583 212.626 209.709 213.065 209.789 213.578C209.868 214.09 209.908 214.654 209.908 215.27C209.908 216.591 209.794 217.913 209.566 219.234C209.339 220.556 209.054 221.821 208.712 223.028C208.382 224.236 208.028 225.353 207.652 226.378C207.276 227.403 206.935 228.286 206.627 229.027ZM208.626 215.252C208.626 214.968 208.615 214.66 208.592 214.33C208.581 213.999 208.541 213.692 208.473 213.407C208.416 213.111 208.336 212.866 208.233 212.672C208.131 212.478 207.994 212.381 207.823 212.381C207.538 212.381 207.271 212.632 207.02 213.133C206.781 213.635 206.57 214.295 206.388 215.116C206.205 215.925 206.057 216.847 205.943 217.884C205.841 218.91 205.79 219.946 205.79 220.995C205.79 221.997 205.829 223 205.909 224.002C205.989 225.005 206.08 225.899 206.183 226.686C206.513 225.808 206.826 224.908 207.123 223.985C207.419 223.051 207.675 222.1 207.892 221.131C208.119 220.163 208.296 219.189 208.421 218.209C208.558 217.218 208.626 216.232 208.626 215.252ZM234.312 216.893C234.312 217.075 234.25 217.223 234.125 217.337C233.999 217.44 233.845 217.491 233.663 217.491H224.999V217.679C224.999 218.374 224.947 219.115 224.845 219.901C224.742 220.687 224.6 221.473 224.417 222.259C224.247 223.034 224.047 223.792 223.819 224.532C223.603 225.273 223.375 225.956 223.136 226.583C222.908 227.21 222.68 227.757 222.452 228.224C222.224 228.679 222.019 229.021 221.837 229.249C221.985 229.773 222.162 230.263 222.367 230.719C222.572 231.163 222.8 231.556 223.05 231.898C223.312 232.228 223.591 232.49 223.888 232.684C224.184 232.878 224.503 232.975 224.845 232.975C225.243 232.975 225.637 232.809 226.024 232.479C226.423 232.137 226.787 231.738 227.118 231.283C227.459 230.816 227.756 230.348 228.006 229.881C228.268 229.403 228.456 229.021 228.57 228.736C228.684 228.463 228.884 228.326 229.168 228.326C229.362 228.326 229.516 228.395 229.63 228.531C229.755 228.668 229.818 228.816 229.818 228.976C229.818 229.055 229.801 229.135 229.767 229.215C229.732 229.295 229.647 229.477 229.51 229.762C229.385 230.047 229.214 230.377 228.998 230.753C228.792 231.129 228.548 231.528 228.263 231.949C227.989 232.359 227.676 232.735 227.323 233.077C226.981 233.419 226.611 233.704 226.212 233.932C225.813 234.16 225.392 234.273 224.947 234.273C224.161 234.273 223.455 234.017 222.828 233.504C222.201 232.992 221.666 232.274 221.222 231.351C220.789 230.428 220.458 229.334 220.23 228.07C220.003 226.805 219.889 225.421 219.889 223.917C219.889 223.541 219.894 223.102 219.906 222.601C219.917 222.088 219.94 221.553 219.974 220.995C220.008 220.425 220.06 219.844 220.128 219.251C220.196 218.648 220.287 218.061 220.401 217.491H214.266C214.084 217.491 213.93 217.44 213.805 217.337C213.679 217.223 213.617 217.075 213.617 216.893C213.617 216.711 213.679 216.568 213.805 216.466C213.93 216.352 214.084 216.295 214.266 216.295H220.692C220.806 215.885 220.937 215.509 221.085 215.167C221.244 214.825 221.421 214.529 221.615 214.278C221.82 214.028 222.042 213.834 222.281 213.697C222.532 213.549 222.805 213.475 223.102 213.475C223.386 213.475 223.631 213.549 223.836 213.697C224.053 213.834 224.235 214.028 224.383 214.278C224.531 214.529 224.645 214.825 224.725 215.167C224.816 215.509 224.885 215.885 224.93 216.295H233.663C233.845 216.295 233.999 216.352 234.125 216.466C234.25 216.568 234.312 216.711 234.312 216.893ZM221.444 227.54C221.786 226.788 222.093 225.979 222.367 225.113C222.652 224.236 222.891 223.353 223.084 222.464C223.29 221.576 223.443 220.704 223.546 219.85C223.66 218.995 223.717 218.209 223.717 217.491H221.7C221.541 218.198 221.41 219.075 221.307 220.123C221.216 221.16 221.17 222.424 221.17 223.917C221.17 224.749 221.193 225.449 221.239 226.019C221.284 226.577 221.353 227.084 221.444 227.54ZM223.033 214.757C222.931 214.757 222.783 214.871 222.589 215.099C222.395 215.315 222.201 215.714 222.008 216.295H223.648C223.591 215.816 223.506 215.44 223.392 215.167C223.29 214.894 223.17 214.757 223.033 214.757ZM221.717 228.771V228.788V228.771ZM229.989 232.547C230.171 232.16 230.382 231.744 230.621 231.3C230.86 230.844 231.117 230.383 231.39 229.916C231.664 229.437 231.954 228.964 232.262 228.497C232.569 228.03 232.888 227.591 233.219 227.181C233.549 226.782 233.88 226.498 234.21 226.327C234.552 226.144 234.871 226.053 235.167 226.053C235.463 226.053 235.72 226.116 235.936 226.241C236.164 226.355 236.346 226.515 236.483 226.72C236.631 226.925 236.739 227.164 236.808 227.438C236.887 227.711 236.927 228.007 236.927 228.326C236.927 228.588 236.899 228.941 236.842 229.386C236.796 229.819 236.773 230.274 236.773 230.753C236.773 231.026 236.785 231.3 236.808 231.573C236.842 231.835 236.893 232.075 236.961 232.291C237.041 232.496 237.155 232.667 237.303 232.804C237.451 232.929 237.645 232.992 237.884 232.992C238.158 232.992 238.431 232.918 238.705 232.77C238.978 232.61 239.246 232.405 239.508 232.154C239.77 231.892 240.021 231.607 240.26 231.3C240.499 230.981 240.715 230.667 240.909 230.36C241.103 230.041 241.274 229.739 241.422 229.454C241.57 229.158 241.69 228.913 241.781 228.719C241.895 228.457 242.094 228.326 242.379 228.326C242.573 228.326 242.726 228.395 242.84 228.531C242.954 228.668 243.011 228.816 243.011 228.976C243.011 229.067 242.994 229.152 242.96 229.232C242.914 229.323 242.823 229.511 242.687 229.796C242.561 230.081 242.385 230.411 242.157 230.787C241.94 231.163 241.684 231.556 241.388 231.966C241.091 232.376 240.761 232.758 240.396 233.111C240.043 233.453 239.656 233.738 239.234 233.966C238.824 234.182 238.391 234.291 237.936 234.291C237.411 234.291 236.99 234.182 236.671 233.966C236.352 233.738 236.101 233.453 235.919 233.111C235.748 232.77 235.628 232.388 235.56 231.966C235.503 231.545 235.475 231.135 235.475 230.736C235.475 230.531 235.48 230.314 235.492 230.086C235.514 229.847 235.537 229.614 235.56 229.386C235.583 229.158 235.6 228.947 235.611 228.753C235.634 228.548 235.646 228.377 235.646 228.241C235.646 227.888 235.594 227.648 235.492 227.523C235.401 227.398 235.292 227.335 235.167 227.335C234.985 227.335 234.774 227.443 234.535 227.66C234.307 227.865 234.062 228.138 233.8 228.48C233.549 228.822 233.293 229.209 233.031 229.642C232.78 230.064 232.535 230.485 232.296 230.907C232.057 231.328 231.84 231.733 231.646 232.12C231.453 232.496 231.293 232.809 231.168 233.06C230.929 233.539 230.684 233.858 230.433 234.017C230.194 234.188 229.977 234.273 229.784 234.273C229.431 234.273 229.157 234.137 228.963 233.863C228.781 233.578 228.69 233.237 228.69 232.838V231.761C228.69 229.608 228.69 227.557 228.69 225.609C228.701 223.649 228.73 221.832 228.775 220.157C228.832 218.471 228.918 216.95 229.032 215.594C229.157 214.227 229.339 213.065 229.579 212.108C229.818 211.139 230.12 210.393 230.484 209.869C230.86 209.345 231.327 209.083 231.886 209.083C232.364 209.083 232.769 209.214 233.099 209.476C233.43 209.738 233.697 210.097 233.902 210.553C234.107 210.997 234.256 211.521 234.347 212.125C234.438 212.717 234.483 213.344 234.483 214.005C234.483 215.349 234.358 216.671 234.107 217.97C233.868 219.257 233.543 220.516 233.133 221.747C232.723 222.977 232.245 224.179 231.698 225.353C231.151 226.515 230.576 227.648 229.972 228.753C229.972 228.958 229.972 229.203 229.972 229.488C229.972 229.773 229.972 230.058 229.972 230.343C229.972 230.628 229.972 230.895 229.972 231.146C229.972 231.397 229.972 231.596 229.972 231.744L229.989 232.547ZM229.989 226.241C230.467 225.193 230.9 224.173 231.288 223.182C231.686 222.18 232.022 221.183 232.296 220.191C232.581 219.2 232.803 218.198 232.962 217.184C233.122 216.158 233.202 215.093 233.202 213.988C233.202 213.806 233.19 213.515 233.167 213.116C233.156 212.717 233.105 212.313 233.014 211.903C232.934 211.493 232.803 211.134 232.621 210.826C232.45 210.519 232.205 210.365 231.886 210.365C231.635 210.365 231.419 210.536 231.236 210.877C231.054 211.208 230.895 211.664 230.758 212.245C230.621 212.814 230.507 213.481 230.416 214.244C230.325 215.007 230.251 215.816 230.194 216.671C230.137 217.525 230.091 218.403 230.057 219.303C230.034 220.203 230.017 221.08 230.006 221.935C229.994 222.778 229.989 223.569 229.989 224.31C229.989 225.051 229.989 225.694 229.989 226.241ZM243.849 232.12C244.088 232.451 244.396 232.718 244.771 232.923C245.147 233.117 245.609 233.214 246.156 233.214C246.714 233.214 247.221 233.083 247.677 232.821C248.132 232.547 248.548 232.194 248.924 231.761C249.3 231.328 249.636 230.844 249.933 230.309C250.229 229.773 250.497 229.238 250.736 228.702C250.793 228.577 250.873 228.486 250.975 228.429C251.078 228.36 251.192 228.326 251.317 228.326C251.511 228.326 251.664 228.395 251.778 228.531C251.904 228.668 251.966 228.816 251.966 228.976C251.966 229.033 251.961 229.084 251.949 229.129C251.938 229.164 251.921 229.203 251.898 229.249C251.112 230.981 250.252 232.285 249.317 233.163C248.395 234.04 247.346 234.49 246.173 234.513C245.421 234.513 244.771 234.365 244.225 234.068C243.678 233.784 243.228 233.413 242.875 232.958C242.521 232.49 242.259 231.966 242.088 231.385C241.917 230.804 241.832 230.223 241.832 229.642C241.832 229.061 241.9 228.526 242.037 228.036C242.185 227.546 242.39 227.118 242.652 226.754C242.926 226.389 243.245 226.104 243.609 225.899C243.985 225.694 244.396 225.592 244.84 225.592C245.102 225.592 245.358 225.649 245.609 225.763C245.871 225.865 246.104 226.019 246.31 226.224C246.515 226.418 246.68 226.657 246.805 226.942C246.931 227.227 246.993 227.551 246.993 227.916C246.993 228.383 246.913 228.822 246.754 229.232C246.594 229.642 246.372 230.024 246.087 230.377C245.814 230.73 245.484 231.055 245.096 231.351C244.709 231.647 244.293 231.904 243.849 232.12ZM243.336 231.009C243.689 230.861 244.008 230.673 244.293 230.445C244.589 230.217 244.84 229.967 245.045 229.693C245.25 229.42 245.41 229.135 245.523 228.839C245.637 228.531 245.694 228.224 245.694 227.916C245.694 227.574 245.609 227.318 245.438 227.147C245.267 226.965 245.068 226.874 244.84 226.874C244.532 226.874 244.27 226.959 244.054 227.13C243.837 227.301 243.661 227.523 243.524 227.796C243.387 228.07 243.285 228.377 243.216 228.719C243.159 229.05 243.131 229.38 243.131 229.71C243.131 229.916 243.148 230.132 243.182 230.36C243.228 230.588 243.279 230.804 243.336 231.009ZM129.569 286.675C131.711 283.883 133.198 281.565 134.029 279.719C134.086 279.594 134.16 279.503 134.251 279.446C134.354 279.377 134.468 279.343 134.593 279.343C134.787 279.343 134.946 279.412 135.072 279.548C135.197 279.674 135.26 279.822 135.26 279.993C135.26 280.072 135.243 280.152 135.208 280.232C134.707 281.371 133.995 282.642 133.072 284.043C132.149 285.444 130.982 287.028 129.569 288.794C129.569 289.512 129.575 290.229 129.586 290.947C129.597 291.665 129.603 292.451 129.603 293.306C129.603 294.16 129.58 295.003 129.535 295.835C129.5 296.678 129.432 297.476 129.33 298.228C129.227 298.991 129.085 299.692 128.902 300.33C128.731 300.979 128.504 301.537 128.219 302.004C127.945 302.483 127.609 302.853 127.21 303.115C126.823 303.389 126.362 303.525 125.826 303.525C125.063 303.525 124.476 303.235 124.066 302.654C123.656 302.073 123.451 301.247 123.451 300.176C123.451 299.606 123.502 298.985 123.604 298.313C123.718 297.652 123.878 296.969 124.083 296.262C124.288 295.556 124.533 294.838 124.818 294.109C125.114 293.391 125.439 292.69 125.792 292.007C126.145 291.323 126.527 290.668 126.937 290.042C127.359 289.415 127.803 288.845 128.27 288.333C128.281 287.535 128.287 286.743 128.287 285.957C128.299 285.171 128.316 284.447 128.338 283.787C127.997 284.22 127.586 284.561 127.108 284.812C126.641 285.063 126.174 285.188 125.707 285.188C125.308 285.188 124.943 285.114 124.613 284.966C124.294 284.806 124.02 284.59 123.792 284.316C123.565 284.032 123.388 283.701 123.263 283.325C123.137 282.949 123.075 282.539 123.075 282.095C123.075 281.206 123.223 280.426 123.519 279.753C123.827 279.07 124.214 278.5 124.681 278.044C125.148 277.589 125.661 277.247 126.219 277.019C126.789 276.791 127.336 276.677 127.86 276.677C128.213 276.677 128.538 276.723 128.834 276.814C129.13 276.905 129.381 277.008 129.586 277.122C129.802 277.236 129.968 277.344 130.082 277.446C130.195 277.549 130.258 277.606 130.27 277.617C130.395 277.754 130.458 277.908 130.458 278.079C130.458 278.25 130.395 278.403 130.27 278.54C130.144 278.665 129.996 278.728 129.825 278.728C129.666 278.728 129.512 278.665 129.364 278.54C129.318 278.506 129.256 278.46 129.176 278.403C129.107 278.335 129.011 278.267 128.885 278.198C128.771 278.13 128.629 278.073 128.458 278.027C128.299 277.982 128.105 277.959 127.877 277.959C127.535 277.959 127.159 278.039 126.749 278.198C126.339 278.346 125.957 278.586 125.604 278.916C125.251 279.246 124.955 279.674 124.715 280.198C124.476 280.71 124.356 281.331 124.356 282.061C124.356 282.607 124.476 283.052 124.715 283.394C124.955 283.724 125.325 283.889 125.826 283.889C126.065 283.889 126.316 283.821 126.578 283.684C126.852 283.547 127.114 283.337 127.364 283.052C127.615 282.767 127.831 282.408 128.014 281.975C128.207 281.542 128.344 281.029 128.424 280.437C128.447 280.278 128.521 280.146 128.646 280.044C128.771 279.93 128.919 279.873 129.09 279.873C129.284 279.873 129.432 279.941 129.535 280.078C129.649 280.215 129.706 280.369 129.706 280.54C129.706 280.551 129.7 280.728 129.688 281.069C129.677 281.4 129.666 281.844 129.654 282.402C129.643 282.961 129.626 283.61 129.603 284.351C129.592 285.08 129.58 285.854 129.569 286.675ZM128.27 290.417C127.735 291.158 127.25 291.961 126.817 292.827C126.384 293.704 126.014 294.587 125.707 295.476C125.399 296.365 125.16 297.225 124.989 298.057C124.829 298.9 124.75 299.652 124.75 300.312C124.75 300.734 124.784 301.07 124.852 301.321C124.932 301.571 125.023 301.765 125.125 301.902C125.239 302.039 125.359 302.13 125.484 302.175C125.621 302.221 125.746 302.244 125.86 302.244C126.214 302.244 126.521 302.101 126.783 301.816C127.045 301.532 127.267 301.15 127.45 300.671C127.632 300.204 127.78 299.663 127.894 299.048C128.008 298.433 128.093 297.795 128.15 297.134C128.207 296.484 128.247 295.835 128.27 295.186C128.293 294.536 128.304 293.938 128.304 293.391C128.304 292.901 128.304 292.411 128.304 291.921C128.304 291.431 128.293 290.93 128.27 290.417ZM143.771 280.266C143.645 280.528 143.486 280.841 143.292 281.206C143.11 281.559 142.899 281.93 142.66 282.317C142.42 282.704 142.153 283.092 141.856 283.479C141.56 283.855 141.236 284.197 140.882 284.504C140.541 284.801 140.17 285.04 139.771 285.222C139.384 285.416 138.968 285.513 138.524 285.513C137.84 285.513 137.254 285.302 136.764 284.88C136.274 284.459 135.858 283.906 135.516 283.223C135.174 282.539 134.895 281.764 134.679 280.898C134.474 280.021 134.314 279.132 134.2 278.232C134.086 277.321 134.007 276.438 133.961 275.583C133.927 274.729 133.91 273.971 133.91 273.311C133.91 272.354 133.938 271.362 133.995 270.337C134.063 269.312 134.166 268.309 134.303 267.329C134.439 266.349 134.61 265.421 134.815 264.543C135.032 263.666 135.283 262.897 135.567 262.236C135.864 261.576 136.2 261.051 136.576 260.664C136.952 260.277 137.379 260.083 137.857 260.083C138.233 260.083 138.569 260.174 138.866 260.356C139.173 260.527 139.43 260.812 139.635 261.211C139.84 261.61 139.999 262.128 140.113 262.766C140.227 263.404 140.284 264.185 140.284 265.107C140.284 266.247 140.165 267.426 139.925 268.645C139.686 269.853 139.361 271.072 138.951 272.302C138.541 273.533 138.057 274.763 137.499 275.994C136.94 277.213 136.342 278.403 135.704 279.565C135.989 281.012 136.371 282.152 136.849 282.983C137.328 283.804 137.903 284.214 138.575 284.214C139.031 284.214 139.47 284.037 139.891 283.684C140.313 283.319 140.7 282.892 141.053 282.402C141.406 281.912 141.714 281.417 141.976 280.916C142.25 280.403 142.46 279.993 142.608 279.685C142.665 279.571 142.745 279.486 142.848 279.429C142.95 279.36 143.064 279.326 143.189 279.326C143.383 279.326 143.537 279.395 143.651 279.531C143.776 279.668 143.839 279.822 143.839 279.993C143.839 280.061 143.816 280.152 143.771 280.266ZM135.208 273.396C135.208 274.125 135.226 274.826 135.26 275.498C135.294 276.17 135.34 276.814 135.396 277.429C135.875 276.506 136.331 275.527 136.764 274.49C137.197 273.442 137.578 272.388 137.909 271.328C138.239 270.257 138.501 269.198 138.695 268.149C138.9 267.09 139.002 266.082 139.002 265.125C139.002 263.78 138.894 262.817 138.678 262.236C138.461 261.655 138.171 261.365 137.806 261.365C137.567 261.365 137.333 261.53 137.105 261.86C136.889 262.191 136.684 262.641 136.49 263.21C136.297 263.78 136.12 264.452 135.96 265.227C135.801 266.002 135.664 266.833 135.55 267.722C135.448 268.611 135.362 269.539 135.294 270.508C135.237 271.476 135.208 272.439 135.208 273.396ZM150.504 283.12C150.219 283.12 149.968 283.097 149.752 283.052C149.581 283.394 149.376 283.713 149.137 284.009C148.897 284.294 148.618 284.544 148.299 284.761C147.992 284.977 147.644 285.148 147.257 285.273C146.869 285.399 146.448 285.461 145.992 285.461C145.457 285.461 144.967 285.365 144.522 285.171C144.078 284.989 143.691 284.732 143.36 284.402C143.03 284.06 142.774 283.656 142.591 283.188C142.409 282.71 142.318 282.186 142.318 281.616C142.318 280.887 142.449 280.255 142.711 279.719C142.973 279.172 143.275 278.722 143.617 278.369C143.958 278.005 144.3 277.737 144.642 277.566C144.984 277.384 145.24 277.292 145.411 277.292C145.605 277.292 145.747 277.344 145.838 277.446C145.941 277.549 145.992 277.686 145.992 277.856C145.992 278.05 145.93 278.198 145.804 278.301C145.69 278.392 145.542 278.483 145.36 278.574C145.178 278.665 144.984 278.796 144.779 278.967C144.574 279.127 144.38 279.332 144.198 279.583C144.027 279.833 143.884 280.129 143.771 280.471C143.657 280.813 143.6 281.195 143.6 281.616C143.6 281.992 143.657 282.345 143.771 282.676C143.884 282.995 144.05 283.274 144.266 283.513C144.483 283.741 144.739 283.923 145.035 284.06C145.331 284.185 145.662 284.248 146.026 284.248C146.676 284.248 147.211 284.1 147.633 283.804C148.066 283.496 148.396 283.109 148.624 282.642C147.952 282.288 147.399 281.787 146.966 281.138C146.533 280.488 146.317 279.759 146.317 278.95C146.317 278.301 146.471 277.771 146.778 277.361C147.097 276.951 147.513 276.746 148.026 276.746C148.333 276.746 148.624 276.82 148.897 276.968C149.171 277.116 149.41 277.349 149.615 277.668C149.832 277.987 150.003 278.398 150.128 278.899C150.253 279.4 150.316 279.998 150.316 280.693C150.316 281.058 150.27 281.44 150.179 281.838C150.248 281.85 150.316 281.855 150.384 281.855C150.453 281.855 150.527 281.855 150.606 281.855C150.994 281.855 151.341 281.81 151.649 281.719C151.957 281.628 152.236 281.491 152.486 281.309C152.737 281.126 152.959 280.893 153.153 280.608C153.358 280.323 153.552 279.993 153.734 279.617C153.768 279.548 153.842 279.486 153.956 279.429C154.07 279.36 154.184 279.326 154.298 279.326C154.446 279.326 154.583 279.389 154.708 279.514C154.845 279.628 154.913 279.782 154.913 279.976C154.913 280.067 154.89 280.169 154.845 280.283C154.799 280.386 154.754 280.483 154.708 280.574C154.514 280.916 154.286 281.246 154.024 281.565C153.774 281.873 153.472 282.146 153.119 282.385C152.777 282.613 152.389 282.795 151.957 282.932C151.524 283.069 151.039 283.132 150.504 283.12ZM147.582 278.813C147.582 279.03 147.61 279.258 147.667 279.497C147.724 279.736 147.809 279.976 147.923 280.215C148.049 280.443 148.197 280.665 148.368 280.881C148.55 281.086 148.761 281.263 149 281.411C149.034 281.172 149.051 280.938 149.051 280.71C149.051 280.403 149.028 280.09 148.983 279.771C148.937 279.451 148.869 279.161 148.778 278.899C148.698 278.625 148.596 278.409 148.47 278.25C148.345 278.079 148.197 277.993 148.026 277.993C147.958 277.993 147.866 278.044 147.752 278.147C147.639 278.25 147.582 278.472 147.582 278.813ZM168.106 280.266C168.072 280.334 167.998 280.477 167.884 280.693C167.77 280.898 167.622 281.143 167.44 281.428C167.258 281.702 167.041 281.998 166.791 282.317C166.54 282.625 166.266 282.909 165.97 283.171C165.674 283.433 165.355 283.65 165.013 283.821C164.671 283.992 164.318 284.077 163.954 284.077C163.361 284.077 162.86 283.975 162.45 283.77C162.04 283.553 161.703 283.314 161.441 283.052C161.259 283.451 161.037 283.815 160.775 284.146C160.513 284.476 160.222 284.761 159.903 285C159.584 285.251 159.243 285.444 158.878 285.581C158.525 285.718 158.16 285.786 157.784 285.786C157.089 285.786 156.497 285.581 156.007 285.171C155.517 284.761 155.107 284.214 154.776 283.53C154.457 282.835 154.207 282.032 154.024 281.121C153.842 280.209 153.7 279.252 153.597 278.25C153.506 277.247 153.449 276.233 153.426 275.208C153.403 274.182 153.392 273.208 153.392 272.285C153.392 270.519 153.443 268.993 153.546 267.705C153.648 266.406 153.785 265.307 153.956 264.407C154.138 263.495 154.343 262.76 154.571 262.202C154.811 261.632 155.061 261.194 155.323 260.886C155.585 260.567 155.853 260.351 156.126 260.237C156.4 260.123 156.668 260.066 156.93 260.066C157.351 260.066 157.722 260.191 158.041 260.442C158.371 260.693 158.644 261.046 158.861 261.501C159.089 261.946 159.26 262.487 159.374 263.125C159.487 263.763 159.544 264.464 159.544 265.227C159.544 266.446 159.413 267.705 159.151 269.004C158.889 270.303 158.548 271.602 158.126 272.9C157.716 274.188 157.254 275.458 156.742 276.711C156.229 277.953 155.722 279.132 155.221 280.249C155.289 280.807 155.392 281.343 155.528 281.855C155.665 282.357 155.842 282.807 156.058 283.206C156.275 283.593 156.531 283.906 156.827 284.146C157.123 284.373 157.465 284.487 157.853 284.487C158.24 284.487 158.604 284.379 158.946 284.163C159.288 283.935 159.584 283.644 159.835 283.291C160.086 282.926 160.279 282.516 160.416 282.061C160.564 281.605 160.638 281.138 160.638 280.659C160.638 280.34 160.604 280.021 160.536 279.702C160.479 279.372 160.382 279.081 160.245 278.831C160.12 278.569 159.96 278.358 159.767 278.198C159.573 278.039 159.339 277.959 159.066 277.959C158.861 277.959 158.701 278.005 158.587 278.096C158.473 278.175 158.388 278.272 158.331 278.386C158.274 278.489 158.24 278.591 158.229 278.694C158.217 278.796 158.211 278.865 158.211 278.899C158.211 279.058 158.246 279.218 158.314 279.377C158.382 279.537 158.513 279.679 158.707 279.805C158.901 279.941 158.998 280.129 158.998 280.369C158.998 280.562 158.929 280.716 158.792 280.83C158.667 280.944 158.525 281.001 158.365 281.001C158.137 281.001 157.932 280.933 157.75 280.796C157.579 280.659 157.431 280.488 157.306 280.283C157.18 280.067 157.083 279.839 157.015 279.6C156.947 279.36 156.913 279.138 156.913 278.933C156.913 278.603 156.97 278.301 157.083 278.027C157.197 277.743 157.351 277.503 157.545 277.31C157.75 277.104 157.978 276.951 158.229 276.848C158.491 276.734 158.764 276.677 159.049 276.677C159.539 276.677 159.96 276.791 160.313 277.019C160.678 277.247 160.98 277.549 161.219 277.925C161.458 278.301 161.635 278.728 161.749 279.207C161.863 279.685 161.92 280.169 161.92 280.659C161.92 280.944 161.903 281.223 161.869 281.497C161.914 281.588 161.988 281.707 162.091 281.855C162.193 282.004 162.33 282.146 162.501 282.283C162.672 282.419 162.877 282.539 163.116 282.642C163.355 282.744 163.635 282.795 163.954 282.795C164.227 282.795 164.506 282.693 164.791 282.488C165.087 282.271 165.366 282.009 165.628 281.702C165.902 281.383 166.153 281.047 166.38 280.693C166.608 280.329 166.796 279.993 166.944 279.685C167.001 279.571 167.081 279.486 167.184 279.429C167.286 279.36 167.4 279.326 167.525 279.326C167.719 279.326 167.873 279.395 167.987 279.531C168.112 279.668 168.175 279.822 168.175 279.993C168.175 280.061 168.152 280.152 168.106 280.266ZM154.896 278.062C155.283 277.104 155.676 276.102 156.075 275.054C156.474 273.994 156.833 272.917 157.152 271.824C157.471 270.73 157.733 269.625 157.938 268.508C158.143 267.392 158.246 266.292 158.246 265.21C158.246 264.8 158.223 264.373 158.177 263.928C158.143 263.472 158.075 263.057 157.972 262.681C157.87 262.305 157.727 261.991 157.545 261.741C157.374 261.49 157.152 261.365 156.878 261.365C156.787 261.365 156.668 261.427 156.52 261.553C156.383 261.667 156.235 261.877 156.075 262.185C155.916 262.481 155.756 262.897 155.597 263.433C155.437 263.968 155.289 264.652 155.152 265.483C155.027 266.304 154.919 267.295 154.828 268.457C154.748 269.619 154.708 270.986 154.708 272.559C154.708 273.083 154.714 273.618 154.725 274.165C154.736 274.701 154.748 275.213 154.759 275.703C154.782 276.193 154.805 276.643 154.828 277.053C154.85 277.463 154.873 277.799 154.896 278.062ZM169.012 283.12C169.251 283.451 169.559 283.718 169.935 283.923C170.311 284.117 170.772 284.214 171.319 284.214C171.878 284.214 172.385 284.083 172.84 283.821C173.296 283.547 173.712 283.194 174.088 282.761C174.464 282.328 174.8 281.844 175.096 281.309C175.392 280.773 175.66 280.238 175.899 279.702C175.956 279.577 176.036 279.486 176.139 279.429C176.241 279.36 176.355 279.326 176.48 279.326C176.674 279.326 176.828 279.395 176.942 279.531C177.067 279.668 177.13 279.816 177.13 279.976C177.13 280.033 177.124 280.084 177.113 280.129C177.101 280.164 177.084 280.203 177.062 280.249C176.275 281.981 175.415 283.285 174.481 284.163C173.558 285.04 172.51 285.49 171.336 285.513C170.584 285.513 169.935 285.365 169.388 285.068C168.841 284.784 168.391 284.413 168.038 283.958C167.685 283.49 167.423 282.966 167.252 282.385C167.081 281.804 166.996 281.223 166.996 280.642C166.996 280.061 167.064 279.526 167.201 279.036C167.349 278.546 167.554 278.118 167.816 277.754C168.089 277.389 168.408 277.104 168.773 276.899C169.149 276.694 169.559 276.592 170.003 276.592C170.265 276.592 170.522 276.649 170.772 276.763C171.035 276.865 171.268 277.019 171.473 277.224C171.678 277.418 171.843 277.657 171.969 277.942C172.094 278.227 172.157 278.551 172.157 278.916C172.157 279.383 172.077 279.822 171.917 280.232C171.758 280.642 171.536 281.024 171.251 281.377C170.978 281.73 170.647 282.055 170.26 282.351C169.872 282.647 169.457 282.904 169.012 283.12ZM168.5 282.009C168.853 281.861 169.172 281.673 169.457 281.445C169.753 281.217 170.003 280.967 170.208 280.693C170.414 280.42 170.573 280.135 170.687 279.839C170.801 279.531 170.858 279.224 170.858 278.916C170.858 278.574 170.772 278.318 170.602 278.147C170.431 277.965 170.231 277.874 170.003 277.874C169.696 277.874 169.434 277.959 169.217 278.13C169.001 278.301 168.824 278.523 168.688 278.796C168.551 279.07 168.448 279.377 168.38 279.719C168.323 280.05 168.294 280.38 168.294 280.71C168.294 280.916 168.312 281.132 168.346 281.36C168.391 281.588 168.443 281.804 168.5 282.009Z" fill="#9E7D77"/>
</g>
</g>
<defs>
<filter id="filter0_d_603_463" x="0" y="0" width="314" height="308" filterUnits="userSpaceOnUse" color-interpolation-filters="sRGB">
<feFlood flood-opacity="0" result="BackgroundImageFix"/>
<feColorMatrix in="SourceAlpha" type="matrix" values="0 0 0 0 0 0 0 0 0 0 0 0 0 0 0 0 0 0 127 0" result="hardAlpha"/>
<feOffset dx="10" dy="4"/>
<feGaussianBlur stdDeviation="2"/>
<feComposite in2="hardAlpha" operator="out"/>
<feColorMatrix type="matrix" values="0 0 0 0 0 0 0 0 0 0 0 0 0 0 0 0 0 0 0.25 0"/>
<feBlend mode="normal" in2="BackgroundImageFix" result="effect1_dropShadow_603_463"/>
<feBlend mode="normal" in="SourceGraphic" in2="effect1_dropShadow_603_463" result="shape"/>
</filter>
<linearGradient id="paint0_linear_603_463" x1="166.5" y1="20" x2="166.5" y2="191" gradientUnits="userSpaceOnUse">
<stop stop-color="#92A8D1"/>
<stop offset="1" stop-color="#64FCD9" stop-opacity="0"/>
</linearGradient>
<clipPath id="clip0_603_463">
<path d="M0 60C0 26.8629 26.8629 0 60 0H240C273.137 0 300 26.8629 300 60V240C300 273.137 273.137 300 240 300H60C26.8629 300 0 273.137 0 240V60Z" fill="white"/>
</clipPath>
</defs>
</svg>
