<svg width="191" height="185" viewBox="0 0 191 185" fill="none" xmlns="http://www.w3.org/2000/svg">
<g filter="url(#filter0_d_325_241)">
<path d="M147 0H30C13.4315 0 0 13.4315 0 30V147C0 163.569 13.4315 177 30 177H147C163.569 177 177 163.569 177 147V30C177 13.4315 163.569 0 147 0Z" fill="white"/>
<path d="M150.683 127.039C149.699 146.217 134.333 163.596 115.497 167.335C96.6611 171.073 76.046 161.13 66.868 144.262C65.855 142.4 64.9531 140.448 64.0513 138.495C61.7229 133.455 59.3953 128.417 55.1626 124.95C50.33 120.992 44.1147 119.933 37.8369 118.864C33.8504 118.185 29.8386 117.502 26.1396 116.069C17.2225 112.615 10.2989 104.432 8.36887 95.066C5.24121 79.8886 15.1481 64.3926 28.3594 56.2933C41.5704 48.1938 57.4454 45.9379 72.8442 44.1997C78.7345 43.5349 83.5194 39.0957 86.9369 34.2521C88.2599 32.3771 89.4503 30.4065 90.6398 28.4377C92.5228 25.3207 94.4035 22.2073 96.805 19.4812C106.974 7.93774 125.91 5.98985 138.863 14.2903C151.815 22.5907 158.014 39.6586 154.57 54.6517C153.976 57.234 153.134 59.7486 152.292 62.2632L152.292 62.2636C151.486 64.6708 150.68 67.078 150.092 69.5452C148.835 74.8186 148.595 80.2758 148.452 85.6951C148.281 92.1563 148.241 98.6345 148.846 105.07C149.057 107.308 149.345 109.544 149.634 111.779C150.289 116.859 150.945 121.936 150.683 127.039Z" fill="url(#paint0_linear_325_241)" fill-opacity="0.8"/>
<path d="M72.8227 39.6192C79.8657 36.1156 85.4711 30.0305 89.0012 23.0007C89.464 22.079 89.9025 21.0996 89.8865 20.0683C89.8702 19.0371 89.27 17.9447 88.2725 17.6828C86.8428 17.3075 85.6135 18.6782 84.7219 19.8572C78.5976 27.9561 69.6837 34.3142 59.6249 35.7007C55.7618 36.2333 51.8395 36.0332 47.945 35.8321L41.8619 35.518C36.9625 35.265 31.995 35.0172 27.1992 36.0511C22.4034 37.0848 17.7174 39.5713 15.0834 43.7103C14.245 45.0276 13.617 46.58 13.849 48.1244C14.0867 49.7068 15.2115 51.0499 16.5665 51.9014C17.9214 52.7526 19.4956 53.1786 21.0557 53.535C22.1979 53.796 23.3645 54.027 24.5331 53.9449C26.444 53.8104 28.1779 52.8602 29.8651 51.9356C29.9776 51.874 30.0897 51.8126 30.2018 51.7515C33.1506 50.1427 36.2061 48.714 39.3931 47.6524C44.0406 46.1045 48.9272 45.3469 53.8021 44.5913C60.369 43.5732 66.9142 42.5586 72.8227 39.6192Z" fill="#E5C7EB" fill-opacity="0.5"/>
<path d="M36.197 132.961L36.2012 132.961C36.4882 132.973 36.7752 132.984 37.0612 132.999C41.587 133.234 46.0655 134.344 50.1776 136.249C51.7456 136.975 53.3334 137.884 54.2141 139.37C55.3038 141.21 56.6117 142.92 58.1015 144.453C58.6797 145.048 59.3056 145.629 60.0773 145.933C60.8493 146.237 61.8023 146.209 62.4284 145.666C63.189 145.005 63.2383 143.831 63.004 142.851C62.6198 141.246 61.6616 139.846 60.7133 138.494C57.6017 134.058 54.3258 129.623 49.9954 126.366C45.665 123.109 40.0766 121.137 34.7762 122.262C32.9461 122.65 31.1322 123.442 29.9189 124.866C28.7054 126.29 28.2258 128.434 29.0997 130.088C29.7931 131.4 31.1985 132.208 32.6376 132.572C33.7973 132.865 34.9983 132.913 36.1967 132.961H36.197Z" fill="#FEF7F4"/>
<path d="M158.612 66.2419C157.402 65.7857 156.032 66.3365 155.008 67.1259C152.986 68.6852 151.789 71.1242 151.245 73.6192C150.7 76.1142 150.744 78.6951 150.791 81.2486L151.191 103.187C151.22 104.79 151.291 106.518 152.277 107.782C152.585 108.177 153.007 108.525 153.506 108.576C154.111 108.637 154.671 108.256 155.108 107.833C157.496 105.52 157.81 101.876 158.096 98.5555L158.107 98.4349C158.527 93.56 159.254 88.7119 160.283 83.9286C160.573 82.5834 160.891 81.2298 161.496 79.9943C163.394 76.1208 162.94 71.2038 160.365 67.7433C159.899 67.1174 159.342 66.517 158.612 66.2419Z" fill="url(#paint1_linear_325_241)" fill-opacity="0.7"/>
<path d="M115.276 95.9375C116.553 96.2891 117.696 97.3521 117.822 98.6704C118.064 98.146 118.595 97.767 119.17 97.7094L118.336 98.596L119.391 98.617L117.939 99.4282C118.839 101.094 118.694 103.148 118.116 104.951C117.763 106.055 117.252 107.16 117.352 108.315C117.45 109.451 118.458 110.611 119.56 110.378L119.616 110.365C120.94 110.031 122.391 110.224 123.582 110.895C125.293 111.859 126.33 113.649 127.506 115.221C128.544 116.609 129.772 117.9 131.307 118.704C132.843 119.508 134.726 119.774 136.325 119.106C137.119 118.775 137.829 118.227 138.671 118.052C139.514 117.877 140.377 118.346 140.686 119.144C140.823 119.497 140.528 120.805 139.779 122.333C139.901 122.298 140.028 122.275 140.162 122.266C144.101 122.011 148.077 121.154 151.467 119.132C152.544 118.489 153.551 117.735 154.55 116.976L155.133 116.532L155.485 116.261C157.678 114.562 159.843 112.668 160.745 110.084L160.792 109.945L160.892 109.64C161.085 109.062 161.329 108.464 161.887 108.285C162.66 108.036 163.363 108.784 163.833 109.446L167.216 114.216C167.303 114.338 167.392 114.465 167.425 114.611C167.572 115.26 166.604 115.587 165.981 115.357C164.847 114.939 163.937 113.692 162.747 113.905C161.911 114.056 161.411 114.865 160.998 115.628L160.894 115.823C158.39 120.511 154.176 124.261 149.23 126.205C147.955 126.706 146.638 127.089 145.322 127.473L142.665 128.247L143.133 128.33C147.098 129.026 151.328 129.45 154.929 127.693C157.326 126.523 159.173 124.509 160.915 122.474L161.547 121.731L161.808 121.421C162.877 120.138 163.893 118.765 164.205 117.14C164.325 116.516 165.112 116.218 165.725 116.387C166.338 116.556 166.804 117.041 167.238 117.505L170.528 121.026C170.787 121.303 171.06 121.609 171.098 121.987C171.136 122.365 170.797 122.792 170.432 122.686L166.866 121.65C166.531 121.553 166.16 121.458 165.845 121.607C165.604 121.721 165.448 121.955 165.31 122.186L161.476 128.661C160.396 130.485 158.395 131.542 156.429 132.332C151.713 134.229 146.597 135.12 141.519 134.929C140.967 134.908 140.415 134.875 139.87 134.789C137.821 134.466 135.971 133.424 134.18 132.37C134.494 133.519 134.214 134.488 132.348 134.562C130.696 134.627 126.649 127.824 125.39 127.471C118.52 125.544 117.392 121.741 115.184 119.144C115.184 119.144 110.724 119.72 107.779 119.106C100.876 117.667 96.2372 113.24 94.5647 112.958C92.8921 112.676 91.7893 113.748 91.2729 113.098V112.627C91.353 112.497 92.1521 111.75 94.4318 112.236C97.6154 112.913 102.705 115.47 106.591 115.947C110.671 116.449 114.127 115.785 114.108 115.674C114.069 115.446 115.095 114.481 114.275 113.994C113.456 113.506 101.561 108.732 98.9755 104.754L98.9444 104.704C98.5 103.966 98.1623 102.132 99.0567 102.972L99.3071 102.528C100.27 103.436 103.433 105.512 106.717 107.559C110.19 109.723 115.095 111.109 115.184 111.048C117.183 109.696 115.411 108.718 115.08 108.43C114.305 107.758 113.277 107.391 112.61 106.612C111.01 104.744 112.153 101.401 110.323 99.7562C110.047 99.5075 109.711 99.3116 109.51 98.9979C109.166 98.4606 109.335 97.7129 109.752 97.2296C110.168 96.7463 110.776 96.4763 111.379 96.266C112.629 95.8296 114 95.5859 115.276 95.9375Z" fill="white"/>
<path d="M116.348 105.964C116.609 105.964 116.82 105.753 116.82 105.492C116.82 105.231 116.609 105.02 116.348 105.02C116.087 105.02 115.876 105.231 115.876 105.492C115.876 105.753 116.087 105.964 116.348 105.964Z" fill="#FFB61D"/>
<path d="M113.47 105.964C113.663 105.964 113.82 105.753 113.82 105.492C113.82 105.231 113.663 105.02 113.47 105.02C113.276 105.02 113.12 105.231 113.12 105.492C113.12 105.753 113.276 105.964 113.47 105.964Z" fill="#FFB61D"/>
<path d="M96.3649 107.779C91.9765 106.645 87.3643 106.383 82.8758 107.013C83.2152 105.336 83.6402 103.676 84.1488 102.041C82.6885 102.513 80.9642 101.174 81.0586 99.6425C81.153 98.1106 83.0288 96.9941 84.4202 97.6412C84.8981 96.5384 84.9286 95.2489 84.5028 94.1246C84.2987 93.5853 85.1127 93.274 85.6894 93.274L88.8759 93.2733C89.3212 93.2731 89.9424 93.0663 89.8317 92.6349C89.5693 91.6116 90.2728 90.4427 91.2996 90.1954C92.3078 89.9528 93.443 90.6431 93.7035 91.6437L93.717 91.6994C93.9589 92.7742 95.3201 93.1152 96.4213 93.0942L96.9693 93.081C97.9218 93.0609 98.9144 93.0918 99.5521 93.758C100.314 94.5548 100.144 95.8238 99.8926 96.9056L99.8759 96.9773C99.5197 98.4788 99.14 99.9748 98.7372 101.464C99.5197 107.764 97.5815 108.094 96.3649 107.779Z" fill="white"/>
<path d="M59.7632 102.52C59.298 99.4922 59.2987 96.3933 59.7651 93.3657L59.7886 93.2193C59.9045 92.5321 60.1077 91.8069 60.6819 91.4283C61.1117 91.1449 61.6545 91.1236 62.1722 91.1234L66.1359 91.1345C66.3162 91.135 66.5139 91.1416 66.6496 91.2605C66.7853 91.3795 66.7816 91.6525 66.6076 91.7009C66.1925 91.8158 65.9539 92.2947 66.0042 92.7226C66.0547 93.1502 66.3329 93.5207 66.6596 93.8015C67.4386 94.4713 68.6497 94.7092 69.5121 94.1508C70.3744 93.5924 70.5774 92.1538 69.7601 91.5312C71.6116 91.4935 73.4639 91.4994 75.3151 91.5487L76.0092 91.5692C76.2336 91.5763 76.4817 91.5942 76.6384 91.7549C76.7561 91.8755 76.7948 92.0509 76.8213 92.2173C77.0263 93.499 76.8021 94.8454 76.193 95.9914C76.096 96.1738 75.8714 96.3749 75.7182 96.2361C75.0678 95.6456 73.9739 95.7259 73.3084 96.2994C72.6429 96.8729 72.3854 97.8251 72.5032 98.6957C72.6162 99.5335 73.227 100.428 74.0716 100.386C74.7367 100.353 75.4763 99.7714 75.9787 100.208L75.132 103.992C74.9816 104.664 74.7117 105.461 74.0381 105.605C70.1502 106.437 66.0738 106.374 62.2133 105.423L62.0259 105.375C61.5575 105.253 61.0909 105.094 60.7253 104.781C60.0891 104.236 59.8904 103.348 59.7632 102.52Z" fill="white"/>
<path d="M90.2662 72.8315L99.6616 73.0203L99.8152 73.0241C100.097 73.033 100.382 73.0578 100.636 73.1763C101.21 73.4444 101.473 74.1049 101.648 74.7143C102.58 77.9666 102.465 81.5101 101.324 84.695L101.276 84.8255C101.127 85.2172 100.933 85.6078 100.582 85.8285C100.294 86.01 99.9417 86.0477 99.5993 86.0661L99.5261 86.0697C98.129 86.136 96.7271 86.1003 95.3352 85.963C96.06 85.5167 96.2431 84.4302 95.7829 83.7142C95.3225 82.9981 94.3499 82.6991 93.5312 82.9318C93.0321 83.0734 92.5672 83.4147 92.3866 83.9011C92.2059 84.3875 92.3805 85.0121 92.8419 85.2496C93.161 85.4138 93.106 85.9311 92.8265 86.1565C92.5471 86.3819 92.1589 86.3977 91.8002 86.4036L87.0863 86.4801C86.7321 86.4857 86.3594 86.4872 86.0484 86.3175C85.6073 86.0767 85.4043 85.5583 85.2802 85.0714C84.9802 83.8966 84.9397 82.6564 85.1622 81.4644C85.4303 82.4058 86.5902 82.9774 87.5 82.6165C88.4096 82.2554 88.8622 81.044 88.4119 80.1751C87.9616 79.3061 86.7108 78.9774 85.8914 79.5124L85.8575 79.2087C85.7397 78.1441 85.6484 77.0658 85.853 76.0172C86.0767 74.8689 86.7156 73.7413 87.7627 73.2195C88.5264 72.8388 89.4083 72.8178 90.2662 72.8315Z" fill="white"/>
<path d="M61.7704 83.4001C60.4474 83.4053 59.1241 83.3508 57.8058 83.237L57.6779 83.2252C57.2059 83.178 56.7108 83.0836 56.4016 82.7327C55.9841 82.2588 56.0861 81.5444 56.2114 80.9195L56.2241 80.8574C56.7842 78.1151 57.0043 75.3034 56.8778 72.5075L56.8545 72.0254C56.8193 71.1585 56.8748 70.1756 57.5948 69.7298C57.8138 69.5941 58.0682 69.5311 58.3217 69.4801L58.4062 69.4634C63.0167 68.5651 67.8174 68.6562 72.3906 69.7284C72.9926 69.8698 73.1602 70.6854 72.9605 71.2709C72.7609 71.8562 72.3321 72.3482 72.1716 72.9455C72.0111 73.5429 72.3052 74.3516 72.9235 74.371C74.2102 74.4113 75.3005 75.7183 75.1277 76.9939C74.9548 78.2695 73.576 79.2368 72.3139 78.9836C72.018 78.9241 71.9132 79.3619 71.9455 79.6623L72.3056 82.9921C72.3646 83.5356 71.5934 83.7071 71.0482 83.6646L67.8686 83.4173C67.369 83.3784 66.6992 83.4645 66.6223 83.9596C66.4307 85.1925 65.1666 86.1549 63.9272 86.0121C62.6879 85.8691 61.6762 84.6441 61.7704 83.4001Z" fill="white"/>
<path fill-rule="evenodd" clip-rule="evenodd" d="M53.2121 103.892C53.5649 103.978 54.07 104.13 54.0421 104.464C53.4774 111.188 51.0471 109.951 48.8801 111.879C48.3073 112.388 47.9651 113.593 47.7192 113.621C48.6314 114.042 49.9548 115.732 52.2327 115.809C58.5792 116.024 60.8892 111.393 60.8892 111.393C61.0386 109.908 60.2855 107.234 61.2255 107.983C61.8743 108.5 61.7461 105.982 62.6323 106.232C62.8987 106.308 62.4336 107.982 62.6323 108.082C62.7423 108.138 62.9046 107.681 63.1881 107.318C63.4245 107.015 63.7892 106.791 63.8647 106.857C63.9159 106.902 63.8668 107.335 63.6539 107.701C63.3547 108.215 62.8544 108.711 62.9245 108.793C63.0014 108.884 64.3209 107.656 64.4011 107.763C64.9349 108.476 61.554 116.672 55.8485 118.219L55.3968 118.341C52.0708 119.224 50.6742 119.345 47.5927 118.219C46.1316 117.685 45.2228 122.67 44.4107 124.329C43.8979 125.377 41.4072 127.944 40.2696 127.168C38.7692 126.143 37.5455 124.237 36.2685 123.272L36.1864 123.212C35.3162 122.588 33.3478 121.641 30.2814 120.371L30.4195 120.307C31.0593 120.017 32.7073 119.306 33.9725 118.219C35.7705 116.676 36.7443 113.36 37.9977 111.572C39.235 109.806 40.8957 110.066 39.8935 109.754C39.8935 109.754 37.3539 108.408 36.1864 108.285C32.2876 107.874 27.2049 109.716 25.5789 110.904C23.348 112.533 25.5645 114.931 22.4819 113.755C21.4545 113.364 24.2082 108.29 28.0066 106.232C33.2862 103.373 38.2783 102.586 43.2834 107.138C45.3203 108.991 45.5218 110.64 46.0682 111.897L45.9563 111.589C51.9941 111.191 42.9475 105.146 50.5 103.634C51.2932 103.475 52.1258 103.64 52.9207 103.824L53.2121 103.892Z" fill="white"/>
<path d="M49.3241 108.56C49.5847 108.56 49.7961 108.349 49.7961 108.088C49.7961 107.827 49.5847 107.616 49.3241 107.616C49.0634 107.616 48.8521 107.827 48.8521 108.088C48.8521 108.349 49.0634 108.56 49.3241 108.56Z" fill="#FFB61D"/>
<path d="M51.92 109.504C52.1807 109.504 52.392 109.293 52.392 109.032C52.392 108.771 52.1807 108.56 51.92 108.56C51.6593 108.56 51.448 108.771 51.448 109.032C51.448 109.293 51.6593 109.504 51.92 109.504Z" fill="#FFB61D"/>
<path fill-rule="evenodd" clip-rule="evenodd" d="M24.5192 126.393C29.6352 129.935 23.0892 125.042 28.6791 130.874C29.8082 132.051 35.5236 125.326 36.1131 129.311C36.3281 130.765 35.8592 132.279 36.145 133.72C36.4119 135.065 42.2626 134.258 42.7143 133.67C44.3526 131.537 39.2543 126.058 38.1855 125.183C32.2201 120.296 30.2516 120.635 24.6778 125.691L24.5192 126.393Z" fill="white"/>
<path fill-rule="evenodd" clip-rule="evenodd" d="M157.609 37.8436C158.612 37.9637 159.545 38.0751 159.545 36.9055C159.545 36.6272 156.168 34.1827 155.167 35.1241C153.88 36.3348 152.858 37.723 151.868 39.0677C149.79 41.8905 147.853 44.5214 143.904 44.9134L143.856 44.9186C142.325 45.1034 145.178 46.462 148.381 44.9134C150.583 43.8483 153.513 40.4792 154.904 38.8791C155.269 38.4602 155.527 38.1626 155.64 38.0593L155.669 38.0342C156.144 37.6684 156.894 37.7581 157.609 37.8436ZM162.373 41.009L165.715 43.6614C166.366 44.1783 165.603 45.2917 164.774 45.3451C164.293 45.3762 163.831 45.228 163.367 45.0791C163.031 44.9715 162.694 44.8634 162.348 44.8223C160.386 44.5903 158.89 46.4384 157.672 47.9951C156.56 49.4175 155.342 50.7572 154.031 51.9998L153.854 52.1664L153.669 52.3363C152.615 53.2945 151.433 54.1625 150.042 54.4127C147.995 54.781 145.961 53.7325 144.289 52.4954C143.88 52.1933 143.48 51.8766 143.079 51.5596C141.836 50.5779 140.592 49.5947 139.119 49.0436C137.842 49.7401 136.648 50.5819 135.557 51.5419L135.605 51.5037C137.437 53.3396 138.718 55.7182 139.242 58.2578L138.892 58.1964L138.661 58.157C136.496 57.7941 134.179 57.5793 132.349 58.7374C131.705 59.1456 131.13 59.7156 130.561 60.2791C130.166 60.6716 129.773 61.0608 129.362 61.3902C129.467 61.4523 129.573 61.5167 129.683 61.5837C131.707 62.4116 133.852 62.9417 136.029 63.152C136.361 63.1843 136.698 63.2098 137.035 63.2353C138.596 63.354 140.177 63.4741 141.512 64.2579L141.98 64.5375C142.73 64.9821 143.567 65.4053 144.196 64.8906C144.377 64.7424 144.495 64.5397 144.614 64.3357H144.614C144.686 64.2116 144.759 64.0872 144.846 63.9747C145.076 63.6771 145.532 63.4675 145.817 63.712L145.933 64.6215C146.017 64.0365 146.582 63.561 147.173 63.5772C147.764 63.5938 148.301 64.1 148.352 64.6888C148.446 65.7574 147.234 66.3972 146.205 66.7373L140.874 68.4554C138.97 69.0692 136.858 68.7513 135.022 67.9555C133.312 67.2147 131.804 66.0871 130.362 64.9019L130.043 64.6378C128.954 63.7321 127.483 62.7479 126.248 63.4408C128.394 63.5713 129.959 65.4206 131.239 67.1696L131.362 67.3386C131.569 67.6242 131.782 67.9248 131.834 68.2739C131.977 69.2514 130.867 69.9002 129.929 70.2107C130.719 70.6341 130.327 71.8632 129.715 72.5179C128.824 73.4704 127.658 74.1557 126.399 74.4953L126.285 74.8927C126.277 74.9196 126.274 74.9336 126.275 74.934C126.868 74.8927 127.234 75.6902 126.993 76.2337C126.751 76.7772 126.154 77.0668 125.581 77.2287C123.695 77.762 121.564 77.3412 120.022 76.1306L119.722 76.287C118.419 76.9613 117.071 77.5883 115.623 77.801C114.064 78.0299 112.347 77.7085 111.219 76.6068L111.294 76.7692C111.453 77.1227 111.596 77.4885 111.602 77.8739C111.607 78.3183 111.378 78.7983 110.957 78.9408C110.262 79.1761 109.655 78.4337 109.294 77.7948C109.096 78.2867 109.3 78.8401 109.498 79.3782C109.724 79.9922 109.943 80.586 109.55 81.0457C109.141 81.5246 108.365 81.4021 107.802 81.1196C105.694 80.0618 104.703 77.3998 105.16 75.0855C105.617 72.7713 107.281 70.8333 109.262 69.5535C107.917 68.5675 106.933 67.0993 106.532 65.4801C106.638 65.6179 107.116 65.1747 107.793 64.5448C109.032 63.3929 110.943 61.617 112.487 61.6338C112.783 61.6369 113.26 61.8655 113.728 62.0897C114.067 62.2521 114.4 62.4119 114.656 62.4817C114.677 62.4546 114.703 62.4298 114.733 62.4081L114.44 62.1983C113.853 61.781 113.239 61.3886 112.544 61.2156C111.732 61.0138 110.771 61.1797 110.254 61.837C108.99 63.4444 107.388 64.7849 105.583 65.7461L106.653 67.7216C106.21 67.9329 105.659 67.8942 105.249 67.6277L105.198 67.5933L105.23 67.6329C105.846 68.4367 105.305 69.8381 104.296 69.9972C103.272 70.4267 102.24 69.1435 102.34 68.0379C102.411 67.2629 102.795 66.5761 103.18 65.8882C103.344 65.5943 103.508 65.3005 103.648 64.9994C104.122 63.9822 104.33 62.8523 104.537 61.7294C104.82 60.1904 105.101 58.6651 106.059 57.4622C106.73 56.6197 107.67 56.0337 108.634 55.5535C112.46 53.6466 116.987 53.1906 121.116 54.2963C121.819 51.7768 123.213 49.4536 125.106 47.6479L125.219 47.542C125.943 46.8748 126.844 46.2789 127.804 46.3884L127.88 46.3986C128.834 46.5439 129.663 45.8081 130.356 45.127L130.569 44.9172L130.737 44.7558C132.112 43.442 133.709 42.2296 135.588 42.0989C137.26 41.9825 138.861 42.75 140.304 43.6022C141.936 44.5665 143.489 45.6653 144.942 46.8842L145.197 47.1007L145.271 47.1646L145.355 47.2359L145.402 47.277C146.772 48.4534 148.271 49.7408 150.054 49.6341C151.882 49.5246 153.217 48.0071 154.447 46.6091L154.448 46.6086L154.448 46.6081C154.547 46.4953 154.646 46.3832 154.744 46.2728C156.262 44.5641 157.991 43.0596 159.74 41.586L160.491 40.9559C160.718 40.7657 160.962 40.5675 161.256 40.5292C161.669 40.4757 162.046 40.7499 162.373 41.009ZM129.334 69.9735C128.963 69.8997 128.456 69.932 127.814 70.0705C128.237 70.0722 128.593 70.0646 128.882 70.0479C129.022 70.0307 129.161 70.009 129.298 69.9813L129.334 69.9735ZM115.575 61.7919C115.71 61.6529 115.853 61.5063 116.012 61.3808C116.307 61.2253 116.639 61.1464 116.974 61.1781C118.105 61.2857 118.963 62.4895 118.815 63.6171C118.217 65.0978 116.738 65.9427 115.276 66.7784V66.7786C114.375 67.2933 113.48 67.8045 112.801 68.4589C112.972 68.1778 113.158 67.9536 113.347 67.8158C113.937 67.386 114.554 67.0139 115.136 66.6627H115.136C115.625 66.3677 116.089 66.0878 116.491 65.8018C117.123 65.3515 117.548 64.9239 117.877 64.5923C118.129 64.3388 118.324 64.1415 118.514 64.0337C118.53 64.0249 119.243 62.579 117.519 61.6338C116.217 60.9201 115.636 61.8228 115.324 62.308C115.223 62.4654 115.15 62.579 115.09 62.579C115.075 62.579 115.053 62.5764 115.026 62.5716C115.069 62.4178 115.134 62.2691 115.218 62.1299C115.335 62.0378 115.452 61.9182 115.575 61.7919ZM115.943 61.419C115.647 61.5906 115.392 61.8398 115.218 62.1299L115.175 62.1624C115.089 62.2247 115.003 62.2707 114.914 62.2918C114.735 62.334 114.308 62.0067 113.947 61.7291C113.731 61.5635 113.538 61.4155 113.435 61.3751C112.759 61.1101 112.68 61.1063 112.211 61.0841C112.132 61.0804 112.042 61.0761 111.936 61.07L111.741 61.0577C111.699 61.0553 111.652 61.0535 111.602 61.0513C111.213 61.035 110.654 61.0115 110.765 60.7094C112.762 55.3043 121.295 54.128 119.884 60.2381C119.768 60.7431 119.461 61.1854 119.155 61.6276C119.002 61.8488 118.849 62.0697 118.719 62.2988C118.168 61.5153 117.567 61.1023 116.917 61.0598C116.554 61.036 116.264 61.1816 116.012 61.3808L115.943 61.419ZM131.42 56.5702L131.422 56.5671C130.952 57.4596 130.448 58.5342 129.909 59.7902C130.314 58.6741 130.822 57.5958 131.42 56.5702ZM135.224 57.3933L135.159 57.3957C134.638 57.4176 134.171 57.4955 133.758 57.6296C133.299 57.7782 132.811 58.0268 132.294 58.3751C133.199 57.8736 134.2 57.538 135.224 57.3933Z" fill="white"/>
<path fill-rule="evenodd" clip-rule="evenodd" d="M108.601 80.0304C108.192 80.5093 107.599 80.355 107.056 79.8254C105.919 78.7171 105.463 76.5789 105.919 74.2645C106.376 71.9503 108.156 70.9968 110.138 69.717C109.249 69.3507 107.638 67.0287 107.476 64.7723C108.024 65.4794 108.053 66.7486 108.601 67.4559C109.121 68.1271 110.161 68.9439 110.681 69.6151C110.747 69.7007 110.804 69.8447 110.71 69.8983C108.81 70.9772 107.579 71.3343 106.459 74.2645C105.339 77.1947 107.613 79.9051 107.916 79.8254C108.288 79.727 108.156 79.233 107.942 78.9128C107.339 78.0091 107.913 76.8046 108.405 75.8358C108.667 76.1305 108.035 76.9761 108.169 77.8552C108.299 78.7136 108.965 79.6042 108.601 80.0304Z" fill="#E7EAEE"/>
<path d="M116.348 70.8C116.609 70.8 116.82 70.5886 116.82 70.328C116.82 70.0673 116.609 69.856 116.348 69.856C116.087 69.856 115.876 70.0673 115.876 70.328C115.876 70.5886 116.087 70.8 116.348 70.8Z" fill="#FFB61D"/>
<path d="M114.696 68.912C114.957 68.912 115.168 68.7007 115.168 68.44C115.168 68.1793 114.957 67.968 114.696 67.968C114.435 67.968 114.224 68.1793 114.224 68.44C114.224 68.7007 114.435 68.912 114.696 68.912Z" fill="#FFB61D"/>
<path d="M44.111 73.0755C44.3839 73.5848 43.955 74.313 43.3773 74.3213C42.8824 71.5398 42.3491 68.6618 40.7391 66.3405C37.6562 61.8959 31.3038 60.436 28.6644 55.7144C26.8672 56.9935 24.1195 56.6673 22.6715 55.0033C21.7711 53.9684 20.2015 53.8412 18.8493 54.0723C17.4971 54.3031 16.176 54.8136 14.8048 54.7701C14.2099 54.7512 13.5617 54.5912 13.2154 54.1072C12.8691 53.6229 13.0692 52.771 13.6584 52.6865C16.2255 52.319 18.7926 51.9516 21.3597 51.5841C21.5613 51.5553 21.7752 51.5209 21.9282 51.3866C22.1014 51.2346 22.1558 50.9915 22.2007 50.7657C22.5723 48.8954 22.8401 46.6657 21.4629 45.3467C20.3214 44.2535 18.5199 44.2913 16.9692 44.5962C15.4185 44.9013 13.8203 45.4031 12.2921 45.0002C10.7638 44.5976 9.48578 42.7823 10.3096 41.4335C10.8615 40.5301 10.2392 39.3256 9.38808 38.6962C8.53692 38.067 7.47766 37.7571 6.65265 37.094C5.82764 36.4306 5.30405 35.151 5.96119 34.3212C6.2502 33.9563 6.70273 33.764 7.14669 33.6238C8.61608 33.1603 10.2545 33.1252 11.6709 33.7314C13.0872 34.338 14.2374 35.6378 14.4679 37.1612C14.6557 38.4024 14.2989 39.8462 15.1194 40.7961C16.192 42.0382 18.1746 41.3415 19.8157 41.3266C21.4941 41.3113 23.1538 42.2012 24.0699 43.6076C24.9861 45.0141 25.1291 46.8917 24.4367 48.4208C26.3863 46.4372 29.0122 44.9155 31.7916 45.0191C34.3588 45.1149 36.7174 46.5915 38.4345 48.5024C40.1514 50.4133 41.3227 52.7405 42.4711 55.0385C42.8989 55.8947 43.9843 56.3586 44.8988 56.0764C45.8133 55.7941 46.4486 54.7992 46.3195 53.8509C47.1165 54.0246 47.1996 55.1019 47.2241 55.9173C47.2758 57.6304 47.896 59.3216 48.9644 60.6619C49.3219 60.0025 49.5945 59.2976 49.7736 58.5693C50.5536 59.4658 50.8444 60.7633 50.5222 61.907C50.1998 63.0507 49.274 64.0053 48.1407 64.3626C47.5378 64.5528 46.8005 64.6441 46.5012 65.2013C47.6319 67.1814 48.6047 69.2516 49.4066 71.3862C49.8369 72.5308 50.1472 74.0034 49.2419 74.8254C48.195 74.0525 47.6003 72.8267 47.045 71.65C46.1786 69.8146 45.3123 67.9793 44.4462 66.1439" fill="white"/>
<path fill-rule="evenodd" clip-rule="evenodd" d="M46.9685 54.5634C46.741 56.7858 47.5729 59.0934 49.1661 60.6598C49.7342 60.3169 50.0974 59.6589 50.0849 58.9955C50.682 59.9773 50.3473 61.3083 49.6051 62.1853C48.8626 63.0622 47.7976 63.5881 46.7639 64.0898C46.1718 64.3772 45.5567 64.6706 44.8988 64.6902C43.8948 64.7202 42.9954 64.1165 42.1746 63.5376L39.7662 61.8395C41.0104 64.1615 43.8427 65.5136 46.4304 65.021C48.2302 67.5455 49.332 70.5623 49.5834 73.6523L49.0996 72.7585C49.0951 72.7477 49.0892 72.7368 49.0819 72.726L49.0996 72.7585C49.169 72.9299 48.8971 73.1196 48.7142 73.0309C48.5195 72.9367 48.4459 72.7021 48.3885 72.4938C47.68 69.9247 46.4104 67.5118 44.6939 65.4732L47.2928 70.9793C47.8481 72.156 48.443 73.3818 49.4897 74.1545C50.395 73.3327 50.0846 71.8601 49.6547 70.7155C48.8525 68.5809 47.8799 66.5107 46.749 64.5304C46.9921 64.0782 47.524 63.9329 48.0383 63.7924H48.0385C48.1575 63.7599 48.2755 63.7278 48.3887 63.6919C49.5218 63.3346 50.4476 62.38 50.77 61.2363C51.0924 60.0927 50.8014 58.7951 50.0214 57.8986C49.8423 58.6266 49.5697 59.3318 49.2124 59.9912C48.144 58.6509 47.5236 56.9598 47.4719 55.2466C47.4473 54.4313 47.3645 53.3539 46.5675 53.1802C46.6964 54.1285 46.0613 55.1234 45.1468 55.4057C44.2323 55.6877 43.1469 55.2237 42.7191 54.3678C41.5705 52.0698 40.3992 49.7424 38.6823 47.8315C36.9654 45.9206 34.6066 44.444 32.0394 44.3484C29.26 44.2448 26.6343 45.7665 24.6847 47.7501C25.3771 46.2211 25.2338 44.3432 24.3177 42.9369C23.4016 41.5306 21.7419 40.6406 20.0635 40.6559C19.6377 40.6597 19.189 40.7095 18.7391 40.7593C17.455 40.9018 16.1615 41.0451 15.3672 40.1254C14.8061 39.4757 14.7956 38.5952 14.7849 37.7064C14.78 37.2955 14.7751 36.8828 14.7157 36.4905C14.4852 34.9672 13.335 33.6673 11.9187 33.0607C10.5023 32.4542 8.86388 32.4896 7.3945 32.9531C6.95053 33.0933 6.498 33.2854 6.209 33.6505C5.55185 34.4803 6.07544 35.7599 6.90045 36.423C7.33465 36.7721 7.83374 37.0234 8.33323 37.2748C8.78279 37.5011 9.23268 37.7274 9.63588 38.0255C10.487 38.6549 11.1093 39.8594 10.5574 40.7628C9.73359 42.1116 11.0116 43.9269 12.5399 44.3295C13.8032 44.6625 15.1143 44.3772 16.4069 44.0961C16.678 44.0371 16.9482 43.9783 17.217 43.9255C18.7677 43.6206 20.5692 43.5828 21.7107 44.676C23.0879 45.995 22.8201 48.2245 22.4485 50.095C22.4036 50.3208 22.3492 50.5639 22.176 50.7159C22.023 50.8502 21.8091 50.8846 21.6075 50.9134L13.9062 52.0158C13.317 52.1 13.117 52.9522 13.4632 53.4365C13.8095 53.9206 14.4577 54.0806 15.0526 54.0994C15.9623 54.1282 16.85 53.9132 17.7393 53.6978C18.1905 53.5885 18.642 53.4792 19.0971 53.4016C20.4494 53.1705 22.0189 53.2975 22.9194 54.3326C24.3672 55.9966 27.1152 56.3228 28.9121 55.0437C30.301 57.528 32.7181 59.1095 35.1458 60.698C37.3317 62.1282 39.5262 63.564 40.9868 65.6698C42.5968 67.9911 43.1302 70.8691 43.6251 73.6504C44.2028 73.6421 44.6319 72.9141 44.3588 72.4048L43.816 73.1208C43.6156 68.7371 41.3767 64.4889 37.874 61.8454C37.0065 61.1908 36.0554 60.6171 35.1062 60.0443C33.0204 58.7862 30.9446 57.5339 29.7896 55.4439C29.6857 55.2556 29.5887 55.0564 29.572 54.8419C29.5507 54.5707 29.6588 54.3092 29.7631 54.0567L29.778 54.0209C30.1943 53.0108 30.4851 51.9028 30.2807 50.8297C30.0761 49.7566 29.2683 48.742 28.1881 48.5803C30.0166 49.7502 30.3916 52.653 28.9199 54.2488C27.4485 55.8447 24.5249 55.7061 23.2109 53.9779C22.158 52.5931 20.0524 52.7627 18.3576 53.1554C16.6628 53.5481 14.667 53.9593 13.3578 52.8137C16.1588 52.0434 19.0411 51.5693 21.9412 51.4015C22.6321 51.3614 22.9031 50.4997 22.9961 49.8139C23.1392 48.7597 23.2822 47.6885 23.1255 46.6364C22.9688 45.5841 22.4687 44.5346 21.5758 43.9562C20.5036 43.2616 19.1194 43.3692 17.8488 43.5023L14.4723 43.8556C13.7448 43.9316 12.9971 44.0062 12.2917 43.8127C11.5864 43.6189 10.9226 43.0929 10.7874 42.374C10.702 41.92 10.832 41.473 10.963 41.0222C11.0574 40.6977 11.1522 40.3713 11.1677 40.039C11.2118 39.0929 10.6006 38.2261 9.85803 37.6384C9.40305 37.2783 8.89605 36.9949 8.3886 36.7114C8.0678 36.5321 7.74682 36.3527 7.43867 36.1538C6.85863 35.7792 6.26349 35.1741 6.42477 34.5027C6.5279 34.0734 6.91641 33.7758 7.30701 33.57C8.62576 32.8748 10.2741 32.8436 11.6182 33.4881C12.9624 34.1329 13.9699 35.438 14.2532 36.9014C14.3232 37.2625 14.3549 37.6396 14.3866 38.016C14.46 38.8864 14.533 39.7528 15.0769 40.407C15.7266 41.1881 16.8494 41.3849 17.8644 41.3366C18.2124 41.32 18.5603 41.2811 18.908 41.2422C19.5743 41.1674 20.2396 41.093 20.9021 41.1763C23.1298 41.4569 24.8848 43.7747 24.5511 45.995C24.5324 46.1179 24.5088 46.2418 24.485 46.366C24.3998 46.8089 24.3141 47.2562 24.4654 47.672C24.6592 48.2049 25.5064 48.4885 25.775 47.9892C26.9779 45.7524 29.7369 44.6252 32.2596 44.9207C34.7824 45.2162 37.0397 46.7351 38.696 48.6608C40.3522 50.5863 41.4789 52.9036 42.5064 55.2263C42.8682 56.0446 43.9458 56.3407 44.8067 56.0974C45.6677 55.8541 46.3506 55.2105 46.9685 54.5634ZM42.4479 58.4619C42.4722 58.4586 42.5291 58.5695 42.6145 58.7371C42.8253 59.1494 43.2102 59.9029 43.7181 60.1323C43.6954 60.3459 43.3596 60.2314 43.2199 60.0684C42.8229 59.6044 42.4017 59.0708 42.4479 58.4619ZM43.6463 62.1232C43.9083 62.5074 42.3389 62.6986 41.8171 62.3635C41.9091 62.3458 42.0302 62.3552 42.1642 62.3656C42.3231 62.3779 42.5005 62.3918 42.6688 62.3635C42.9157 62.3219 43.1538 62.2462 43.3336 62.189C43.508 62.1336 43.6274 62.0956 43.6463 62.1232ZM43.2697 60.6961C42.6447 60.8033 41.8773 59.9711 41.8773 59.1885C42.0573 59.7672 42.6971 60.2262 43.0507 60.4797C43.2305 60.6088 43.3362 60.6848 43.2697 60.6961ZM45.5079 63.9687C44.6758 63.9687 44.2986 62.5655 44.6758 62.4753C44.7661 62.4345 44.7704 62.56 44.7768 62.7458C44.7831 62.9409 44.7921 63.2022 44.9054 63.4059C45.0314 63.632 45.2983 63.783 45.4541 63.8713C45.5719 63.938 45.6261 63.9687 45.5079 63.9687ZM46.4349 62.0581C46.6176 62.1586 46.7844 62.3148 46.8316 62.5178C46.8788 62.721 46.7653 62.9674 46.5612 63.0096C46.4972 62.9157 46.5319 62.8558 46.5685 62.7927C46.6221 62.7002 46.6799 62.6006 46.4349 62.375C46.3318 62.2799 46.2119 62.2386 46.1276 62.2096C46.0627 62.1874 46.0193 62.1723 46.021 62.1459C46.0313 61.9771 46.2869 61.9764 46.4349 62.0581ZM44.8775 60.2295C44.8362 60.2583 44.8079 60.2779 44.8322 60.3006C44.9075 60.3704 44.996 60.4039 45.0843 60.3532C45.1518 60.3143 45.186 60.2359 45.2018 60.1597C45.2905 59.7347 44.8417 59.2955 44.4188 59.3939C44.4563 59.4927 44.528 59.5244 44.6153 59.5628C44.7161 59.6072 44.8372 59.6605 44.9495 59.8366C45.1013 60.074 44.9623 60.1708 44.8775 60.2295ZM44.7352 64.2371C44.2453 64.0945 43.7608 62.9374 44.0216 62.8496C44.1842 62.7951 44.1835 62.8038 44.1738 62.8954C44.1653 62.9792 44.1495 63.1323 44.2453 63.3698C44.3642 63.6648 44.5311 63.9041 44.6373 64.0565C44.71 64.1608 44.7543 64.2246 44.7352 64.2371ZM156.958 37.9665C155.906 38.0958 155.078 38.9442 154.555 39.866C154.302 40.3118 154.1 40.7836 153.897 41.2551C153.681 41.759 153.465 42.2626 153.188 42.7344C151.864 44.9856 149.349 46.2159 146.939 47.2215C146.524 47.3949 145.796 47.3133 145.925 46.8821C149.871 46.1335 153.268 43.0093 154.344 39.1399C154.47 38.6842 153.877 38.2992 153.42 38.4198C153.006 38.5289 152.711 38.8741 152.445 39.2168L152.362 39.3247C150.164 42.1833 147.009 44.6 143.407 44.7562C143.152 44.7671 142.787 44.6115 142.899 44.3824C145.567 44.2929 148.082 42.9758 150.064 41.1865C152.045 39.3971 153.556 37.1542 154.969 34.8893C155.188 34.5391 155.713 34.6139 156.104 34.7472C157.303 35.1562 158.454 35.7077 159.523 36.3867C160.098 36.7513 159.643 37.7239 158.99 37.9146C158.614 38.0243 158.223 37.9976 157.829 37.971C157.538 37.9511 157.245 37.9313 156.958 37.9665ZM155.934 35.7358L155.841 35.708C155.561 35.6275 155.247 35.5826 155.021 35.757C154.934 35.8245 154.871 35.9178 154.814 36.0129L154.063 37.279C154.457 37.3701 154.835 37.5318 155.173 37.7536C155.449 37.9349 155.83 37.9419 156.113 37.7708C156.396 37.5997 156.566 37.2592 156.534 36.9302C156.522 36.8075 156.723 36.7742 156.807 36.8644C156.87 36.9319 156.889 37.0244 156.907 37.1166C156.914 37.1478 156.92 37.1789 156.928 37.2092C156.96 37.3281 157.057 37.4565 157.178 37.4322C157.3 37.3156 157.367 37.1431 157.355 36.9746C157.399 36.8006 157.671 36.9557 157.713 37.1301C157.755 37.3045 157.834 37.5525 158.007 37.506C158.261 37.443 158.341 37.0883 158.217 36.8573C158.093 36.626 157.844 36.4955 157.606 36.385C157.063 36.1335 156.504 35.9166 155.934 35.7358ZM153.651 37.7942C154.043 38.1888 154.614 38.3986 155.168 38.3523C154.828 37.9245 154.25 37.701 153.711 37.7838L153.651 37.7942ZM125.582 77.0887C123.695 77.6223 121.565 77.2015 120.023 75.9908C118.627 76.7224 117.183 77.4321 115.624 77.661C114.064 77.8901 112.348 77.5687 111.22 76.467C111.407 76.8706 111.596 77.2895 111.602 77.7339C111.608 78.1785 111.378 78.6583 110.957 78.8011C110.263 79.0364 109.655 78.2937 109.295 77.6548C109.097 78.1467 109.301 78.7003 109.499 79.2384C109.725 79.8522 109.944 80.4463 109.551 80.906C109.142 81.3848 108.366 81.2621 107.803 80.9798C105.695 79.9221 104.704 77.26 105.161 74.9458C105.617 72.6316 107.281 70.6935 109.263 69.4137C107.918 68.4275 106.934 66.9596 106.533 65.3404C106.807 65.6939 107.01 66.1048 107.213 66.5154V66.5156C107.416 66.9263 107.62 67.3372 107.894 67.6907C108.154 68.0263 108.485 68.3045 108.815 68.583C109.146 68.8612 109.477 69.1397 109.737 69.4753C109.804 69.561 109.861 69.7049 109.766 69.7585C107.867 70.8373 106.242 72.5565 105.703 74.6737C105.164 76.7906 105.914 79.2899 107.774 80.4352C108.102 80.6369 108.493 80.7991 108.865 80.7007C109.238 80.6025 109.517 80.135 109.303 79.8147C108.7 78.9113 108.627 77.6799 109.118 76.7111L110.677 78.4591C111.036 78.3669 111.124 77.8849 111.029 77.5272C110.999 77.4139 110.957 77.302 110.916 77.1904V77.1902C110.827 76.9497 110.738 76.7101 110.762 76.4583C110.797 76.0899 111.278 75.7605 111.532 76.0295C112.545 77.104 114.174 77.4087 115.632 77.1722C117.09 76.9357 118.426 76.2358 119.732 75.5459L121.274 74.732C121.163 75.1766 120.802 75.55 120.362 75.6767C121.85 76.7458 123.84 77.0818 125.596 76.5605C125.899 76.4706 126.21 76.3465 126.406 76.0991C126.602 75.852 126.634 75.4499 126.397 75.2415C126.368 75.216 126.336 75.1936 126.303 75.1714C126.24 75.1275 126.177 75.0841 126.141 75.0175C126.086 74.917 126.171 74.748 126.276 74.794C126.869 74.7527 127.235 75.5502 126.993 76.0939C126.751 76.6374 126.155 76.9268 125.582 77.0887ZM115.049 69.1983C114.71 69.0892 114.33 69.3231 114.183 69.6471C114.036 69.9714 114.077 70.3523 114.189 70.6902C114.224 70.3089 114.273 70.0214 114.417 69.7705C114.479 69.6625 114.672 69.5605 114.841 69.4708C115.06 69.355 115.24 69.2596 115.049 69.1983ZM114.762 68.2399C115.257 68.1167 115.815 68.3071 116.131 68.7064C116.448 69.106 116.505 69.6934 116.271 70.1463C116.215 70.0785 116.202 69.9558 116.186 69.8019C116.137 69.3474 116.058 68.621 114.762 68.2399ZM114.333 71.752C114.177 71.9472 114.722 72.4633 115.574 72.1074C115.732 72.0416 115.603 72.034 115.4 72.022C115.215 72.0111 114.968 71.9967 114.82 71.9311C114.696 71.8754 114.632 71.7865 114.584 71.7197C114.514 71.621 114.478 71.5715 114.333 71.752ZM116.06 72.4053C116.606 72.1331 116.264 72.9308 115.121 72.8331C115.018 72.8242 114.883 72.7845 114.884 72.6807C114.885 72.6441 114.981 72.6358 115.132 72.6226C115.365 72.6023 115.728 72.5707 116.06 72.4053ZM112.691 70.8911C112.896 71.0919 113.195 71.0971 113.395 71.0586C113.517 71.035 113.576 70.9262 113.465 70.8911C113.439 70.8828 113.395 70.876 113.343 70.8677C113.225 70.8491 113.061 70.8234 112.951 70.757C112.88 70.7143 112.84 70.5689 112.805 70.4443C112.77 70.3164 112.741 70.21 112.691 70.26C112.592 70.3582 112.485 70.6902 112.691 70.8911ZM112.873 71.57C112.972 71.7216 112.593 71.6694 112.512 71.57C112.43 71.4709 112.35 71.0971 112.487 71.0971C112.526 71.0971 112.54 71.1559 112.556 71.2264C112.571 71.2916 112.588 71.3666 112.63 71.4145C112.712 71.507 112.767 71.521 112.807 71.5311C112.834 71.538 112.855 71.5431 112.873 71.57ZM129.917 70.8184C130.121 71.2264 129.763 71.684 129.419 71.9833C128.018 73.1996 126.343 74.0993 124.556 74.5965C126.482 74.6095 128.4 73.7851 129.716 72.3781C130.328 71.7232 130.72 70.4944 129.93 70.071C130.867 69.7604 131.978 69.1116 131.834 68.1341C131.783 67.7851 131.57 67.4844 131.363 67.1986L131.24 67.0299C129.96 65.2809 128.395 63.4316 126.249 63.3011C127.484 62.6082 128.955 63.5923 130.044 64.4981L130.363 64.7622C131.804 65.9474 133.313 67.0747 135.022 67.8158C136.859 68.6113 138.97 68.9295 140.875 68.3156L146.206 66.5975C147.235 66.2572 148.446 65.6177 148.353 64.5488C148.301 63.96 147.764 63.4538 147.174 63.4375C146.583 63.421 146.018 63.8965 145.934 64.4816L145.818 63.5723C145.533 63.3278 145.077 63.5373 144.846 63.8349C144.76 63.9475 144.687 64.0719 144.615 64.1958C144.496 64.3997 144.378 64.6026 144.197 64.7506C143.567 65.2653 142.731 64.8424 141.98 64.3978L141.512 64.1181C140.178 63.3341 138.597 63.214 137.036 63.0955C136.698 63.0698 136.362 63.0443 136.029 63.0122C133.853 62.8019 131.707 62.2716 129.683 61.4438C131.54 62.966 133.965 63.2213 136.411 63.479C137.644 63.6088 138.882 63.7393 140.055 64.0327C140.986 64.2654 142.015 64.7397 142.243 65.6717C142.575 67.0247 140.968 68.0728 139.58 68.1993C137.311 68.4062 135.101 67.4415 133.174 66.21L132.957 66.0694C132.26 65.6118 131.585 65.1195 130.909 64.6274L130.909 64.6272C129.67 63.7242 128.432 62.822 127.064 62.1362C128.477 62.2072 129.508 61.1844 130.562 60.1394C131.131 59.5758 131.706 59.0059 132.35 58.5976C134.245 57.398 136.663 57.6713 138.893 58.0565L139.243 58.1181C138.719 55.5782 137.438 53.1998 135.606 51.364L138.754 57.5516C135.44 56.4476 131.466 57.8273 129.549 60.7471C131.028 55.7538 134.548 51.3982 139.12 48.9037C140.593 49.4547 141.837 50.4381 143.079 51.4199H143.08V51.4201C143.48 51.7368 143.881 52.0536 144.289 52.3554C145.962 53.5928 147.996 54.6411 150.043 54.2729C151.516 54.0081 152.755 53.0504 153.855 52.0264L154.032 51.86C155.343 50.6175 156.561 49.2777 157.673 47.8551C158.89 46.2987 160.386 44.4506 162.349 44.6826C162.695 44.7236 163.032 44.8317 163.368 44.9393C163.832 45.0883 164.293 45.2362 164.775 45.2053C165.604 45.152 166.366 44.0383 165.715 43.5217L162.374 40.8693C162.047 40.6099 161.67 40.3357 161.257 40.3895C160.963 40.4275 160.719 40.6257 160.491 40.8162L159.741 41.4463C157.991 42.9199 156.263 44.4242 154.745 46.133C154.647 46.2437 154.548 46.356 154.448 46.4691C153.218 47.8674 151.882 49.3849 150.054 49.4941C148.271 49.6008 146.773 48.3137 145.403 47.137C145.334 47.078 145.266 47.0192 145.198 46.9607L144.942 46.7445C143.49 45.5256 141.937 44.4265 140.304 43.4624C138.861 42.6103 137.261 41.8425 135.589 41.9589C133.633 42.0951 131.983 43.403 130.57 44.7772L130.357 44.987C129.663 45.6681 128.834 46.4042 127.881 46.2586L127.805 46.2484C126.844 46.1392 125.944 46.7351 125.22 47.4022L125.107 47.508C123.214 49.3138 121.82 51.6368 121.117 54.1566C116.988 53.0509 112.46 53.5068 108.635 55.4135C107.671 55.894 106.731 56.4797 106.06 57.3223C105.102 58.5251 104.821 60.0507 104.537 61.5896C104.331 62.7123 104.123 63.8422 103.649 64.8594C103.509 65.1605 103.345 65.4546 103.18 65.7482C102.796 66.4363 102.412 67.1229 102.341 67.8979C102.24 69.0038 103.273 70.2869 104.297 69.8574C105.323 69.6957 105.865 68.2498 105.199 67.4533C105.614 67.7506 106.193 67.8016 106.653 67.5817L105.583 65.6063C107.389 64.6451 108.99 63.3046 110.255 61.6972C110.772 61.04 111.733 60.8738 112.544 61.0756C113.24 61.2486 113.854 61.6413 114.441 62.0585L114.733 62.2683C114.393 62.5159 114.589 63.1739 115.009 63.1949C114.738 62.0906 115.842 60.9307 116.974 61.0383C118.106 61.1457 118.964 62.3498 118.816 63.4771C118.218 64.958 116.739 65.8029 115.276 66.6386C113.689 67.5453 112.121 68.4412 111.719 70.1267C111.314 71.8245 112.623 73.7259 114.354 73.9529C116.085 74.18 117.84 72.6804 117.887 70.9354C117.887 70.9354 118.143 70.9619 118.233 70.6902C118.376 70.2624 118.511 69.7883 118.645 69.3184C118.898 68.435 119.145 67.5665 119.431 67.0478C120.234 65.5934 121.727 64.4414 123.388 64.4013C123.916 64.3886 124.44 64.3105 124.963 64.2323C125.632 64.1325 126.3 64.0327 126.973 64.0697C128.173 64.1361 129.488 64.8384 129.661 66.0276C128.33 65.7692 126.942 65.8128 125.63 66.1543L130.274 66.7066C131.294 66.8279 131.485 68.4069 130.758 69.1324C130.073 69.8166 129.029 69.9289 128.051 69.9726L127.875 69.9796C128.045 70.3282 128.47 70.3641 128.895 70.4002C129.319 70.4363 129.743 70.4722 129.917 70.8184ZM154.619 50.5252C153.18 52.1236 151.497 53.8415 149.347 53.9217C147.467 53.9918 145.823 52.7804 144.302 51.6599L144.19 51.5773L143.826 51.3118C142.127 50.0792 140.367 48.9303 138.555 47.8707C137.152 47.0501 135.538 46.2576 133.964 46.6645L136.455 47.4487C136.035 47.6741 135.886 48.2872 136.155 48.6809C136.212 48.0916 136.894 47.7168 137.479 47.8089C138.064 47.9011 138.54 48.3304 138.902 48.7989C135.761 50.0032 133.088 52.3877 131.535 55.3717C131.246 55.9268 130.995 56.501 130.744 57.0747C130.403 57.8525 130.063 58.6297 129.63 59.3587C128.877 60.6253 127.762 61.7777 126.327 62.1133C126.126 62.1603 125.92 62.1909 125.714 62.2219C125.301 62.2837 124.89 62.3453 124.523 62.5362C124.491 62.553 124.458 62.5707 124.424 62.5886L124.396 62.6039C123.965 62.834 123.434 63.1175 123.168 62.7434C122.733 62.1308 122.04 61.7081 121.296 61.6021C122.526 57.4695 125.69 53.9578 129.673 52.3058C129.898 52.2124 129.812 51.8749 129.689 51.6644L127.877 48.5645C127.71 48.2783 127.906 47.8891 128.201 47.7371C128.495 47.5851 128.847 47.608 129.176 47.6491C131.271 47.9099 133.289 48.7699 134.928 50.1007C135.19 50.3135 135.62 50.5224 135.812 50.2444C133.942 48.3583 131.266 47.4837 128.633 47.1313C130.909 46.9088 133.263 47.6255 135.028 49.0785L135.114 49.1491C135.536 49.4915 136.046 49.8555 136.533 49.6454C134.561 47.7541 131.865 46.6381 129.134 46.5821C129.695 46.1642 130.221 45.6995 130.745 45.2348L130.746 45.2346C131.279 44.7626 131.812 44.2906 132.384 43.8674C133.52 43.028 134.877 42.3724 136.287 42.4547C137.31 42.5144 138.27 42.956 139.176 43.437C141.09 44.4532 142.892 45.6801 144.54 47.0881C144.653 47.1854 144.768 47.284 144.883 47.3831L144.892 47.3907C146.458 48.7401 148.166 50.2123 150.19 50.0221C151.424 49.9062 152.518 49.1607 153.386 48.2761C153.867 47.7869 154.295 47.251 154.724 46.715L154.724 46.7148C155.07 46.2819 155.417 45.8491 155.79 45.4406C156.329 44.8513 156.954 44.2969 157.72 44.072C158.487 43.8469 159.421 44.0333 159.876 44.6896L154.619 50.5252ZM105.019 61.4728C105.297 59.9539 105.572 58.452 106.598 57.3461C107.101 56.8047 107.744 56.4146 108.398 56.0722C111.747 54.3206 115.653 53.6536 119.394 54.195C120.309 54.3274 121.444 54.8412 121.429 55.7101C121.423 55.7635 121.418 55.8166 121.414 55.8697C121.423 55.8154 121.428 55.7621 121.429 55.7101C121.802 52.0762 123.918 48.6573 127.011 46.7103C127.285 48.6228 128.123 50.4509 129.393 51.907C126.028 53.3242 123.234 56.0493 121.733 59.3778L121.709 59.4304C121.283 60.3636 120.607 61.5094 119.62 61.2769L120.108 58.2571C120.153 57.9802 120.195 57.6803 120.063 57.4325C119.917 57.1556 119.603 57.0282 119.298 56.9362L119.191 56.9048C117.421 56.404 115.436 55.923 113.82 56.8007C112.966 57.2651 112.352 58.0432 111.778 58.8421L111.352 59.4406C110.341 60.8523 109.209 62.1777 107.972 63.3969C107.474 63.888 106.936 64.3761 106.269 64.5875C105.602 64.799 104.774 64.6567 104.378 64.0799C104.694 63.2558 104.857 62.3613 105.019 61.4728ZM115.924 73.2402C114.873 73.6299 114.018 73.4378 113.199 72.9603C112.848 72.756 112.517 72.4928 112.32 72.1381C112.023 71.6062 112.068 70.9458 112.239 70.3613C112.494 69.4876 113.017 68.6942 113.719 68.1145C114.204 67.7138 114.763 67.4198 115.322 67.1257L115.322 67.1255C115.515 67.024 115.708 66.9225 115.897 66.8168C117.75 65.7831 119.349 64.2968 120.514 62.5237C120.747 62.1697 121.237 62.055 121.648 62.1595C122.058 62.2641 122.4 62.5452 122.696 62.8482C122.908 63.0651 123.065 63.4963 122.782 63.6055C120.804 64.3716 119.21 66.0715 118.574 68.0954C118.556 68.1506 118.54 68.2063 118.523 68.2623C118.426 68.5823 118.328 68.9063 118.12 69.1654C117.877 69.4697 117.387 70.5409 117.637 71.0487C117.637 71.0487 116.974 72.8506 115.924 73.2402ZM118.669 57.2073C118.99 57.2793 119.339 57.3824 119.514 57.66C119.658 57.8872 119.649 58.1761 119.627 58.444C119.537 59.5043 119.315 60.5531 118.965 61.558C118.906 61.7279 118.723 61.9323 118.591 61.8112C118.44 61.0504 117.744 60.4318 116.972 60.3704C116.198 60.3091 115.414 60.8101 115.145 61.5377C115.092 61.6812 114.906 61.7345 114.758 61.6949C114.647 61.6651 114.552 61.5981 114.462 61.5259L114.372 61.4527C113.451 60.7046 112.205 60.3726 111.034 60.5632C111.658 59.513 112.449 58.5629 113.369 57.7593C113.745 57.4306 114.154 57.1205 114.629 56.9664C115.077 56.8212 115.557 56.8226 116.027 56.8465C116.916 56.8918 117.801 57.0126 118.669 57.2073ZM160.664 43.8443C160.217 43.3669 159.603 43.0476 158.955 42.9569L159.69 42.0226C159.924 41.7297 160.196 41.4293 160.564 41.3833C160.829 41.3498 161.09 41.4588 161.332 41.5737C162.14 41.9587 162.901 42.4408 163.595 43.0065C163.826 43.1953 164.059 43.406 164.159 43.6874C164.26 43.9684 164.179 44.3366 163.909 44.4652C163.64 44.5938 163.251 44.312 163.362 44.0345L163.373 44.0036C163.418 43.8457 163.346 43.6595 163.204 43.5764L162.943 44.0756C162.92 44.1192 162.892 44.1615 162.849 44.1853C162.675 44.2814 162.533 44.0111 162.522 43.8129L162.52 43.7855C162.502 43.5901 162.399 43.3411 162.22 43.402C162.196 43.7364 161.956 44.0454 161.639 44.1525C161.321 44.2597 160.944 44.1587 160.722 43.9073L160.664 43.8443ZM104.586 68.4879L104.272 67.2951C104.122 67.2534 103.976 67.4032 103.955 67.5569C103.941 67.6593 103.964 67.7608 103.994 67.8606L104.043 68.0095C104.204 68.5157 104.2 69.0732 104.032 69.577C103.72 68.9394 103.557 68.2292 103.56 67.5193C103.357 67.4077 103.219 67.748 103.234 67.9793L103.321 69.3599C102.895 68.9759 102.745 68.3529 102.818 67.7841C102.891 67.2151 103.158 66.69 103.458 66.2013C103.615 65.9462 103.788 65.6906 104.038 65.5249C104.287 65.3592 104.631 65.3026 104.885 65.46C105.097 65.5905 105.195 65.8227 105.295 66.058C105.37 66.236 105.446 66.4158 105.573 66.555C105.617 66.6044 105.669 66.6549 105.723 66.7061C105.929 66.9046 106.149 67.1167 106.005 67.3305C105.561 67.0584 105.156 66.7247 104.804 66.3422C104.676 67.1325 104.793 67.9604 105.134 68.6847C105.204 68.8327 104.973 68.9741 104.828 68.8981C104.683 68.8221 104.628 68.6462 104.586 68.4879ZM147.157 64.5863C147.384 64.3855 147.591 64.2019 147.692 64.2519C147.984 64.3978 147.189 65.039 146.768 65.2202C146.799 65.4234 147.094 65.3323 147.266 65.2202C147.438 65.1081 147.921 64.9875 147.826 65.1095C147.238 65.8702 146.102 66.4748 145.052 66.5933C144.627 66.6412 144.101 66.5274 143.965 66.1213C143.841 65.7505 144.117 65.385 144.408 65.1095L144.478 65.0451C144.6 64.9356 144.797 64.8287 144.91 64.9481C145.21 65.2655 145.734 65.0059 146.08 64.7388C146.08 64.7388 146.978 63.8724 147.129 63.9279C147.278 63.9829 146.68 64.9599 146.68 64.9599C146.829 64.8766 146.997 64.7275 147.157 64.5863ZM142.858 65.3906C142.965 65.3661 143.077 65.4095 143.17 65.469C143.507 65.6859 143.669 66.1425 143.542 66.523C143.415 66.9036 143.012 67.1722 142.612 67.1432C142.555 67.1392 142.496 67.1283 142.451 67.0927C142.358 67.0178 142.37 66.8751 142.39 66.7573L142.541 65.8954C142.578 65.6873 142.652 65.4374 142.858 65.3906ZM123.834 63.4337C124.413 63.336 125.012 63.3598 125.581 63.5036C125.548 63.7382 125.274 63.8448 125.042 63.8927C124.326 64.0407 123.586 64.0726 122.86 63.9869C123.042 63.6449 123.453 63.4984 123.834 63.4337ZM160.108 44.3236L158.589 43.4271C159.338 43.3152 160.135 43.7081 160.503 44.3694C160.397 44.4654 160.231 44.3961 160.108 44.3236ZM126.834 62.308C126.19 62.4784 125.554 62.6764 124.927 62.9015C125.578 63.2614 126.502 62.9737 126.834 62.308ZM120.542 61.4938C120.719 61.5304 120.639 61.8093 120.497 61.9221C120.067 62.2658 119.413 62.2955 118.953 61.9922L120.542 61.4938ZM160.95 40.6937C161.054 40.6689 161.161 40.7112 161.259 40.7553C161.893 41.0416 162.474 41.4454 162.963 41.9402L160.781 40.8261C160.815 40.7605 160.878 40.7107 160.95 40.6937ZM127.705 46.7131L127.727 46.7282C127.923 46.6999 128.127 46.7164 128.316 46.7766C128.151 47.0893 127.921 47.3678 127.644 47.5889C127.506 47.3147 127.53 46.9656 127.705 46.7131ZM165.045 43.6515L165.05 43.6652C165.291 43.7631 165.455 44.0248 165.438 44.2844C164.942 44.027 164.54 43.5911 164.323 43.0754C164.619 43.1781 164.879 43.385 165.045 43.6515ZM119.864 62.6972L119.829 62.7465C119.703 62.9176 119.553 63.1031 119.342 63.1276C119.131 63.1522 118.915 62.8794 119.064 62.7278C119.314 62.616 119.607 62.6046 119.864 62.6972ZM104.93 64.8145C105.118 64.8584 105.331 64.9958 105.302 65.1865C104.871 65.1303 104.445 65.0307 104.034 64.8896C104.315 64.7721 104.634 64.7454 104.93 64.8145ZM144.951 64.778C144.853 64.8204 144.765 64.6418 144.858 64.5896C144.858 64.5896 145.5 63.4627 145.528 64.2519C145.542 64.4483 145.126 64.6885 144.951 64.778ZM117.8 70.564C117.848 70.222 117.938 69.577 118.12 69.577C118.379 69.5497 118.28 69.9907 118.21 70.3013C118.19 70.387 118.173 70.4627 118.166 70.5161C118.143 70.7028 117.968 70.8493 117.769 70.7594C117.777 70.7323 117.787 70.6603 117.8 70.5645L117.8 70.564ZM57.5708 82.3892C58.8889 82.503 60.2121 82.5573 61.5351 82.5521C61.4412 83.796 62.4527 85.0211 63.6919 85.1641C64.9314 85.3071 66.1954 84.3445 66.3871 83.1119C66.464 82.6167 67.1338 82.5304 67.6334 82.5693L70.813 82.8169C71.3582 82.8593 72.1294 82.6875 72.0706 82.144L71.7103 78.8143C71.6779 78.5141 71.7827 78.0763 72.0789 78.1358C73.3408 78.389 74.7195 77.4217 74.8925 76.1461C75.0655 74.8705 73.9749 73.5633 72.6883 73.523C72.0699 73.5036 71.7759 72.6951 71.9364 72.0978C72.0227 71.7766 72.1865 71.4858 72.3508 71.1946C72.4919 70.9442 72.633 70.6935 72.7253 70.4229C72.925 69.8376 72.7576 69.0217 72.1554 68.8806C67.5822 67.8084 62.7814 67.7174 58.1709 68.6153L58.0865 68.6321C57.833 68.6833 57.5786 68.7461 57.3596 68.8818C56.6395 69.3276 56.5841 70.3108 56.6192 71.1776L56.6426 71.6595C56.7691 74.4556 56.5492 77.2671 55.9889 80.0094L55.9761 80.0717C55.8508 80.6966 55.7489 81.411 56.1664 81.8847C56.4758 82.2358 56.9707 82.3302 57.4427 82.3774L57.5708 82.3892ZM65.6819 83.0597C65.7187 83.2398 65.6724 83.4274 65.6002 83.5961L65.5771 83.6476C65.1516 84.546 63.885 84.9312 63.0361 84.4056C62.1714 83.8704 61.9595 82.5252 62.6174 81.7497C60.9451 81.95 59.2504 81.9633 57.575 81.7889C57.0566 81.735 56.3788 81.4552 56.4847 80.9447C57.214 77.4349 57.4417 73.8213 57.159 70.2475C57.1078 69.5999 57.905 69.2639 58.5438 69.1466C62.6665 68.3897 66.9327 68.4211 71.0438 69.2384C71.5698 69.3429 72.2469 69.7427 72.0138 70.2256C71.4651 71.3626 71.2456 72.6561 71.3891 73.9105C71.4257 74.2302 71.676 74.6489 71.9552 74.4887C72.7071 74.0568 73.7956 74.403 74.1595 75.1901C74.5236 75.9771 74.083 77.0306 73.2672 77.3242C72.4513 77.6178 71.4403 77.0863 71.2196 76.2476C71.0226 77.9749 71.0927 79.7324 71.4273 81.4382C71.5432 82.0296 70.6823 82.2526 70.0814 82.2078L65.2845 81.8504C65.1374 82.082 65.2882 82.3215 65.4466 82.5731C65.5455 82.7303 65.6474 82.8919 65.6819 83.0597ZM90.5025 72.2195L99.8979 72.4083L100.052 72.4121C100.334 72.4211 100.618 72.4458 100.872 72.5643C101.446 72.8324 101.71 73.493 101.884 74.1023C102.816 77.3544 102.701 80.8982 101.56 84.083L101.512 84.2135C101.364 84.6053 101.169 84.9959 100.819 85.2165C100.53 85.398 100.178 85.4358 99.8356 85.4542L99.7624 85.4577C98.3653 85.524 96.9632 85.4884 95.5715 85.351C96.2963 84.9048 96.4794 83.8182 96.019 83.1022C95.5588 82.3862 94.5862 82.0872 93.7675 82.3199C93.2682 82.4615 92.8035 82.8027 92.6227 83.2891C92.4422 83.7755 92.6168 84.4002 93.0782 84.6376C93.3973 84.8019 93.342 85.3192 93.0629 85.5446C92.7834 85.7697 92.3952 85.7858 92.0365 85.7917L87.3226 85.8681C86.9681 85.8738 86.5957 85.8752 86.2847 85.7055C85.8436 85.4648 85.6406 84.9463 85.5165 84.4594C85.2166 83.2846 85.176 82.0444 85.3985 80.8524C85.6664 81.7938 86.8265 82.3654 87.7361 82.0046C88.6459 81.6435 89.0985 80.4321 88.6482 79.5631C88.1979 78.6942 86.9471 78.3654 86.1278 78.9004L86.0938 78.5967C85.976 77.5321 85.8847 76.4538 86.089 75.4053C86.313 74.2569 86.9519 73.1293 87.999 72.6075C88.7627 72.2268 89.6444 72.2058 90.5025 72.2195ZM100.759 73.2022C100.523 73.0606 100.24 73.0363 99.9637 73.0248L99.8951 73.0222C96.9724 72.9129 94.0479 72.8577 91.1232 72.8563L90.1483 72.8579C89.5316 72.86 88.8949 72.8688 88.3303 73.1175C87.4881 73.4883 86.9424 74.3485 86.7196 75.2415C86.4971 76.1345 86.5504 77.07 86.6052 77.9888C88.0861 77.5807 89.6793 79.0857 89.5035 80.6117C89.3277 82.1377 87.636 83.2398 86.1285 82.9455C86.06 83.4276 85.9928 83.9282 86.1344 84.3941C86.276 84.8599 86.6894 85.2812 87.1761 85.2656L91.5463 85.1249C91.817 85.1162 92.1908 84.9763 92.1122 84.7171C91.6657 83.2462 92.9543 81.529 94.4914 81.5462C96.0287 81.5637 97.278 83.3096 96.7985 84.7702C97.759 84.9864 98.7578 85.032 99.7341 84.9038C100.051 84.8623 100.382 84.795 100.625 84.5871C100.864 84.3825 100.981 84.0731 101.08 83.775C102.095 80.7358 102.206 77.4016 101.396 74.3018C101.291 73.901 101.146 73.4696 100.81 73.2357L100.759 73.2022ZM59.2919 102.144C58.8268 99.1162 58.8273 96.0173 59.2938 92.9897L59.3174 92.8433C59.4333 92.1561 59.6365 91.4309 60.2105 91.0523C60.6405 90.7689 61.1833 90.7476 61.7008 90.7474L65.6644 90.7585C65.845 90.759 66.0427 90.7656 66.1782 90.8845C66.3139 91.0035 66.3104 91.2768 66.1364 91.3249C65.7213 91.4398 65.4825 91.9187 65.533 92.3465C65.5835 92.7744 65.8615 93.1447 66.1883 93.4255C66.9674 94.0953 68.1783 94.3332 69.0409 93.7748C69.9032 93.2164 70.1059 91.7778 69.2887 91.1552C71.1403 91.1175 72.9925 91.1234 74.8436 91.1727L75.538 91.1932C75.7622 91.2003 76.0102 91.2182 76.1671 91.3789C76.2847 91.4995 76.3234 91.6749 76.35 91.8413C76.5549 93.123 76.3309 94.4694 75.7218 95.6154C75.6246 95.7978 75.3999 95.9991 75.247 95.8601C74.5965 95.2696 73.5027 95.3501 72.8369 95.9234C72.1714 96.4968 71.9142 97.4491 72.0317 98.3197C72.145 99.1575 72.7557 100.052 73.6002 100.01C73.8383 99.9984 74.0856 99.9162 74.3285 99.8358C74.7643 99.6911 75.1847 99.5516 75.5075 99.8322L74.6607 103.616C74.5104 104.288 74.2404 105.085 73.5669 105.229C69.6788 106.061 65.6024 105.998 61.7419 105.047L61.5547 104.999C61.0863 104.876 60.6194 104.718 60.2539 104.405C59.6179 103.86 59.4192 102.972 59.2919 102.144ZM74.757 100.509C73.657 101.026 72.2243 100.582 71.5359 99.5804C70.8475 98.5786 70.915 97.147 71.6213 96.1579C72.3277 95.1686 73.5971 94.6428 74.808 94.7464L74.909 94.7552C75.0789 94.7696 75.2531 94.7759 75.3971 94.691C75.5795 94.5836 75.6571 94.3629 75.7079 94.1576C75.9101 93.338 75.899 92.4669 75.6758 91.6529L70.5517 91.6902C70.645 93.1128 69.4742 94.5008 68.0563 94.6485C66.6386 94.7962 65.2066 93.6795 65.0048 92.2682L64.9767 92.0584C64.9463 91.8467 64.8988 91.6376 64.7407 91.5033C64.6298 91.4092 64.484 91.3716 64.3398 91.3431L64.2859 91.3327C62.7951 91.0509 60.905 90.9339 60.1227 92.234C59.8562 92.6765 59.7845 93.2063 59.7304 93.7201C59.4189 96.6698 59.493 99.6599 59.9499 102.591L59.9723 102.728C60.0467 103.164 60.163 103.612 60.4875 103.905C60.7108 104.106 61.0037 104.206 61.2942 104.287L61.3669 104.308C65.0846 105.33 69.0428 105.467 72.8225 104.705L73.0323 104.662C73.2181 104.622 73.4114 104.577 73.5574 104.456C73.7477 104.298 73.8208 104.043 73.8841 103.803L74.757 100.509ZM102.409 108.005C102.409 108.005 102.431 107.415 102.505 107.221C102.639 106.872 103.036 106.374 103.036 106.374C103.008 106.509 102.97 106.653 102.93 106.802C102.794 107.311 102.643 107.874 102.872 108.29C103.048 108.612 105.63 110.303 106.517 110.7C110.311 112.395 114.125 113.93 117.956 115.472H117.956H117.956L117.957 115.472L117.959 115.473C119.525 116.103 121.094 116.734 122.666 117.378C119.965 117.049 117.478 115.791 115.055 114.554C114.532 117.456 116.149 120.381 118.33 122.364C119.918 123.809 121.788 124.879 123.658 125.95H123.658C124.356 126.35 125.053 126.749 125.737 127.168L125.988 127.324C128.411 128.841 130.729 130.756 131.799 133.398C131.996 133.883 132.598 134.158 133.093 133.99C133.589 133.822 133.899 133.237 133.759 132.733C134.277 133.158 133.978 134.108 133.351 134.343C132.723 134.578 132.003 134.259 131.54 133.775C131.191 133.41 130.947 132.964 130.704 132.519L130.704 132.519L130.703 132.518V132.518L130.703 132.517C130.623 132.372 130.544 132.227 130.461 132.085C128.965 129.52 126.322 127.927 123.7 126.469L122.469 125.788C119.624 124.199 116.709 122.29 115.49 119.282C111.066 119.984 106.46 119.508 102.273 117.916C101.378 117.575 100.501 117.185 99.6241 116.794H99.6239C98.2277 116.173 96.8325 115.551 95.3646 115.133C94.5468 114.9 93.4194 114.875 93.1131 115.669C93.1131 115.668 93.1126 115.669 93.1119 115.67C93.103 115.686 93.0449 115.788 92.7839 115.81C92.6617 115.821 92.5493 115.606 92.5144 115.464C92.4847 115.424 92.4743 115.312 92.4743 115.081C92.4743 114.957 92.7277 114.414 93.2044 114.077C93.5358 113.844 93.9091 113.759 94.1046 113.714C94.1926 113.694 94.2447 113.683 94.2403 113.669C94.2303 113.638 93.8914 113.55 93.5832 113.699C93.3456 113.815 93.1204 113.967 92.9135 114.107C92.5932 114.324 92.3166 114.511 92.1037 114.486C91.8158 114.453 91.6112 114.318 91.6081 114.028C91.6048 113.739 91.6818 113.386 91.9055 113.204C92.3836 112.814 93.001 112.6 93.6174 112.609C93.7506 112.61 93.8981 112.63 93.9849 112.73C94.072 112.831 94.029 113.033 93.8962 113.039C93.0971 113.075 92.1731 113.208 91.8618 114.028C91.7715 114.267 92.3433 114.305 92.5644 114.178C92.6928 114.104 92.803 114.005 92.9135 113.906C92.9932 113.834 93.073 113.762 93.1598 113.699C93.4197 113.512 93.7425 113.415 94.0623 113.426C94.1914 113.431 94.3335 113.46 94.4095 113.565C94.4855 113.669 94.4319 113.858 94.3028 113.86C93.4744 113.874 92.7181 114.592 92.6614 115.418C92.6645 115.448 92.6874 115.585 92.7839 115.617C92.8967 115.655 93.0211 115.563 93.0263 115.554C93.4574 114.784 94.2452 114.269 95.0917 114.527C95.4118 114.624 95.7197 114.773 96.0263 114.92C96.5627 115.179 97.0949 115.435 97.6797 115.413L97.3288 113.552C95.9057 112.248 93.7612 111.788 91.9286 112.394C91.7325 112.459 91.5206 112.553 91.4406 112.744C91.3606 112.934 91.5362 113.211 91.7292 113.137C91.4257 113.418 90.9129 112.941 91.0285 112.545C91.1439 112.148 91.5791 111.944 91.9791 111.84C94.2237 111.256 96.4608 112.273 98.6228 113.256C99.024 113.438 99.4226 113.619 99.8184 113.789C104.22 115.676 109.194 116.204 113.894 115.283C113.69 115.841 112.995 116.009 112.405 116.076C108.219 116.546 103.919 115.97 100.004 114.414C99.5257 115.022 99.7534 115.965 100.298 116.515C100.842 117.064 101.611 117.313 102.352 117.535C106.503 118.775 110.904 119.724 115.145 118.842L114.458 114.82L114.444 114.747C114.41 114.586 114.347 114.42 114.197 114.369L114.159 114.356C108.723 112.51 104.58 111.103 99.2 105.975C99.1892 105.964 99.1788 105.954 99.1684 105.943C99.1288 107.485 98.64 107.824 96.6017 107.404C92.1545 106.487 87.6011 106.007 83.1126 106.638C83.452 104.96 83.8773 103.3 84.3858 101.665C82.9252 102.137 81.201 100.798 81.2954 99.2665C81.3898 97.7349 83.2655 96.6181 84.657 97.2655C85.1351 96.1624 85.1653 94.8729 84.7398 93.7486C84.5355 93.2094 85.3494 92.8983 85.9262 92.8981L89.1127 92.8974C89.558 92.8974 90.1792 92.6904 90.0685 92.259C89.806 91.2359 90.5096 90.0668 91.5366 89.8197C92.5448 89.5769 93.6798 90.2674 93.9403 91.2678L93.9538 91.3237C94.1957 92.3982 95.5569 92.7393 96.6581 92.7183L97.2063 92.705C98.1588 92.6852 99.1512 92.7161 99.7889 93.3824C100.551 94.1791 100.381 95.4481 100.13 96.5296L100.113 96.6014C99.9902 97.1182 99.8115 97.5383 99.6317 97.9608C99.2892 98.7655 98.9433 99.579 98.9739 101.088C98.9865 101.704 99.0086 102.268 99.0339 102.786C99.1222 102.422 99.2 102.183 99.2 102.183C99.2 102.183 109.586 109.916 116.001 110.965C116.769 110.286 116.326 108.963 115.551 108.29C115.225 108.007 114.854 107.778 114.483 107.549C113.975 107.236 113.468 106.923 113.082 106.472C112.315 105.577 112.178 104.344 112.042 103.121C111.894 101.791 111.748 100.473 110.795 99.6165C110.71 99.5401 110.62 99.4688 110.529 99.3973H110.529C110.325 99.2361 110.121 99.0754 109.982 98.8583C109.638 98.3209 109.807 97.573 110.223 97.0897C110.639 96.6063 111.248 96.3366 111.85 96.1263C113.1 95.6897 114.471 95.4462 115.748 95.7978C117.024 96.1494 118.168 97.2124 118.293 98.5307C118.535 98.0063 119.067 97.6273 119.642 97.5697L118.808 98.4564L119.863 98.4774L118.411 99.2885C119.311 100.954 119.165 103.008 118.588 104.811C118.518 105.032 118.441 105.252 118.364 105.473L118.363 105.473L118.363 105.475C118.055 106.36 117.744 107.252 117.824 108.175C117.921 109.311 118.93 110.471 120.032 110.238L120.087 110.226C121.412 109.891 122.863 110.085 124.054 110.755C125.442 111.538 126.387 112.864 127.323 114.177C127.54 114.481 127.756 114.785 127.978 115.081C129.016 116.47 130.244 117.76 131.779 118.564C133.315 119.369 135.197 119.634 136.797 118.966C137.091 118.844 137.374 118.691 137.656 118.539C138.135 118.28 138.613 118.022 139.143 117.912C139.985 117.738 141.057 118.15 141.158 119.004C140.722 118.276 139.69 118.147 138.878 118.392C138.42 118.531 137.997 118.757 137.574 118.984H137.573C137.247 119.159 136.92 119.334 136.576 119.469C134.853 120.145 132.847 119.736 131.262 118.782C129.725 117.858 128.522 116.478 127.437 115.049L127.332 114.911C127.222 114.764 127.112 114.617 127.002 114.47L127.002 114.469L127.002 114.469L127.002 114.469L127.002 114.468L127.001 114.468L127.001 114.468L127.001 114.467L127.001 114.467C126.237 113.441 125.468 112.408 124.461 111.628C123.331 110.752 121.813 110.235 120.453 110.655L120.369 110.682C119.068 111.123 117.689 109.878 117.455 108.524C117.221 107.17 117.773 105.817 118.313 104.553C118.87 103.25 117.847 101.729 116.557 101.142C115.36 100.597 113.922 100.609 112.735 101.175C112.35 101.358 112.281 101.863 112.294 102.294L112.295 102.342C112.362 103.865 112.769 105.467 113.881 106.511C114.212 106.821 114.594 107.071 114.975 107.321C115.453 107.634 115.929 107.947 116.302 108.374C116.973 109.144 117.076 110.585 116.144 111.001C117.744 111.29 119.326 111.672 120.881 112.146C112.515 111.29 104.823 107.344 99.2999 102.577C99.1868 102.798 99.1073 103.031 99.0589 103.271C99.0716 103.51 99.0849 103.737 99.0974 103.954C99.1148 104.26 99.1311 104.543 99.1441 104.807C99.4098 105.681 100.031 106.453 100.885 106.792C100.817 106.177 101.024 105.538 101.439 105.079C101.17 105.681 100.743 106.836 102.409 108.005ZM115.26 96.2271C114.516 96.0883 113.759 96.0147 113.002 96.0067C112.95 96.102 112.931 96.2144 112.947 96.3213C113.791 96.3916 114.623 96.6141 115.389 96.9747C115.069 97.2952 114.54 97.1034 114.11 96.9474L114.085 96.9384C113.35 96.6722 112.543 96.608 111.775 96.7541C111.384 96.8287 110.992 96.9627 110.691 97.2233C110.389 97.484 110.192 97.8895 110.259 98.2824C110.345 98.7842 110.817 99.1268 111.288 99.3199C112.456 99.7982 113.855 99.6635 114.91 98.9711C114.996 98.9149 115.116 99.0086 115.122 99.1108C115.126 99.213 115.058 99.3031 114.985 99.3753C114.565 99.7938 113.939 99.9271 113.347 99.9616C113.174 99.9717 113 99.975 112.826 99.9783C112.404 99.9866 111.983 99.9948 111.576 100.098C111.631 100.434 112.05 100.549 112.39 100.574C113.687 100.668 115.003 100.494 116.23 100.064C116.538 99.9571 116.82 100.265 117.001 100.536L118.324 102.509C118.758 102.1 118.732 101.394 118.527 100.833C118.447 100.614 118.345 100.403 118.244 100.192C118.085 99.8634 117.927 99.5353 117.852 99.1797C117.811 98.9836 117.796 98.7825 117.781 98.5817C117.761 98.2996 117.74 98.0183 117.647 97.7531C117.318 96.8185 116.234 96.4086 115.26 96.2271ZM99.2862 114.241L98.0859 113.551C97.9528 113.474 97.7073 113.461 97.7208 113.614C97.6797 114.234 97.7302 114.993 98.1286 115.509C98.3795 115.835 98.5607 116.001 99.4471 116.221L99.382 114.486C99.3784 114.394 99.3659 114.286 99.2862 114.241ZM117.564 104.801C117.71 104.716 117.803 104.566 117.889 104.421C118.045 104.162 118.205 103.888 118.212 103.587C118.219 103.285 118.01 102.956 117.709 102.944C117.559 102.938 117.416 103.01 117.293 103.096C117.022 103.289 116.812 103.568 116.702 103.882C116.841 104.082 117.155 103.903 117.295 103.704C117.434 103.505 117.641 103.253 117.863 103.352C117.717 103.861 117.457 104.337 117.109 104.736C117.202 104.876 117.418 104.886 117.564 104.801ZM119.965 119.457C119.631 118.927 119.271 118.355 118.676 118.182C119.995 120.666 122.04 122.758 124.493 124.134C125.349 124.615 126.252 125.009 127.155 125.404C128.413 125.953 129.67 126.503 130.795 127.283C132.206 128.26 133.372 129.587 134.161 131.11C133.851 128.938 132.034 127.275 130.095 126.247C129.217 125.783 128.295 125.408 127.373 125.033H127.373C126.258 124.58 125.144 124.127 124.11 123.516C122.462 122.542 121.05 121.171 120.026 119.554C120.006 119.522 119.985 119.49 119.965 119.457ZM124.11 120.192L124.146 120.274C124.309 120.65 124.421 121.122 124.116 121.376C123.873 121.579 123.505 121.502 123.218 121.367C122.599 121.076 122.087 120.562 121.798 119.942C122.16 119.87 122.499 119.689 122.758 119.427C122.974 119.209 123.356 119.253 123.599 119.44C123.842 119.626 123.98 119.914 124.11 120.192ZM123.913 121.081C124.225 120.521 123.588 119.694 123.277 119.64C123.142 119.617 123.002 119.751 122.852 119.895C122.698 120.043 122.533 120.201 122.351 120.21C122.351 120.21 123.601 121.642 123.913 121.081ZM139.656 122.693C147.235 122.444 154.635 118.751 159.391 112.845C159.638 112.539 160.125 112.534 160.467 112.726C160.81 112.918 161.041 113.255 161.26 113.581C161.498 113.546 161.505 113.176 161.341 113C161.26 112.913 161.158 112.85 161.056 112.787C160.952 112.722 160.847 112.657 160.765 112.566C160.434 112.2 160.611 111.623 160.805 111.168L161.67 109.143C161.786 108.872 161.967 108.556 162.262 108.56C162.478 108.563 162.644 108.743 162.781 108.91C164.273 110.728 165.657 112.635 166.924 114.616C166.143 114.737 165.392 114.353 164.652 113.973C163.825 113.549 163.01 113.132 162.18 113.433C161.458 113.695 161.032 114.422 160.649 115.089C159.397 117.271 157.963 119.371 156.146 121.111C151.927 125.15 146.04 126.898 140.305 128.003C143.853 129.346 147.761 129.723 151.499 129.082C153.639 128.716 155.772 127.994 157.44 126.604C158.115 126.041 158.701 125.381 159.284 124.723L163.578 119.875C163.83 119.591 164.294 119.863 164.528 120.162C164.762 120.46 165.08 120.831 165.438 120.704C165.182 120.132 164.738 119.645 164.191 119.338C164.159 118.654 164.138 117.921 164.502 117.341C164.865 116.761 165.772 116.478 166.244 116.975C167.79 118.602 169.272 120.29 170.685 122.034C169.856 122.165 169.068 121.808 168.286 121.454H168.286H168.286H168.286C168.044 121.344 167.803 121.235 167.562 121.141C166.539 120.741 165.105 120.749 164.639 121.744C163.363 124.464 162.037 127.253 159.847 129.309C156.189 132.744 150.845 133.519 145.86 134.084C143.649 134.335 141.378 134.573 139.225 134.01C137.658 133.6 136.232 132.785 134.828 131.978L133.713 131.339C133.385 131.421 133.648 131.918 133.94 132.09C135.806 133.19 137.729 134.312 139.869 134.649C140.415 134.735 140.967 134.768 141.518 134.789C146.597 134.98 151.713 134.089 156.428 132.193C158.395 131.402 160.396 130.345 161.475 128.521L165.281 122.095C165.426 121.849 165.587 121.589 165.845 121.467C166.16 121.318 166.531 121.413 166.865 121.51L170.432 122.546C170.797 122.652 171.135 122.225 171.097 121.847C171.059 121.469 170.787 121.163 170.528 120.886L167.238 117.365C166.804 116.901 166.338 116.416 165.725 116.247C165.112 116.078 164.324 116.376 164.205 117C163.851 118.843 162.592 120.361 161.377 121.792C159.496 124.005 157.539 126.279 154.929 127.553C151.186 129.379 146.763 128.849 142.665 128.107L145.322 127.333C146.637 126.95 147.955 126.566 149.23 126.065C154.176 124.121 158.39 120.371 160.893 115.683C161.328 114.869 161.839 113.929 162.747 113.766C163.493 113.631 164.129 114.072 164.779 114.523C165.166 114.79 165.558 115.061 165.98 115.217C166.604 115.448 167.572 115.12 167.425 114.472C167.392 114.325 167.303 114.198 167.216 114.076L163.832 109.306C163.363 108.644 162.659 107.896 161.887 108.145C161.266 108.344 161.034 109.061 160.828 109.693L160.809 109.75L160.801 109.776L160.792 109.805C159.828 112.74 157.239 114.79 154.781 116.661C153.705 117.479 152.627 118.299 151.466 118.992C148.077 121.015 144.101 121.871 140.162 122.127C139.049 122.199 138.349 123.243 137.709 124.199C137.633 124.312 137.557 124.425 137.483 124.534C136.386 126.132 134.825 127.406 133.04 128.16C133.338 128.49 133.882 128.293 134.26 128.057C136.05 126.938 137.57 125.387 138.652 123.573C138.891 123.173 139.19 122.708 139.656 122.693ZM115.875 105.57C115.7 105.952 115.312 106.226 114.894 106.264C114.476 106.301 114.045 106.099 113.806 105.754C113.719 105.627 113.719 105.38 113.873 105.393C114.192 105.817 114.859 105.927 115.298 105.628C115.488 105.498 115.818 105.347 115.875 105.57ZM112.515 102.796C112.553 102.477 112.822 102.199 113.141 102.151C113.459 102.104 113.798 102.291 113.928 102.586C113.695 102.586 113.539 102.543 113.409 102.508C113.145 102.437 112.989 102.395 112.515 102.796ZM114.983 104.577L114.621 104.733L114.6 104.721C114.506 104.899 114.229 104.697 114.208 104.496C114.203 104.454 114.201 104.41 114.199 104.366C114.191 104.196 114.183 104.019 114.042 103.942C113.866 104.196 113.786 104.529 113.888 104.82C113.99 105.111 114.301 105.332 114.605 105.277C114.909 105.222 115.127 104.85 114.983 104.577ZM115.418 102.107C115.876 102.144 115.998 102.169 116.125 102.47C116.149 102.529 115.953 102.474 115.767 102.42C115.629 102.381 115.497 102.343 115.461 102.354C113.928 102.809 114.96 102.07 115.418 102.107ZM115.288 102.899C115.542 103.1 115.468 103.899 115.094 103.749C114.938 103.686 114.751 102.473 115.288 102.899ZM127.412 124.313C127.291 124.162 127.428 123.893 127.621 123.903C127.706 123.958 127.764 124.053 127.774 124.154C127.701 124.273 127.55 124.338 127.413 124.309L127.412 124.313ZM123.968 122.754L124.231 122.714L124.252 122.706C124.344 122.535 124.044 122.34 123.925 122.493C123.899 122.581 123.915 122.679 123.968 122.754ZM125.843 123.793C125.69 123.834 125.67 123.572 125.755 123.439L126.12 123.605C126.064 123.704 125.959 123.773 125.847 123.787L125.843 123.793ZM121.29 119.972C121.25 119.871 121.105 119.833 121.02 119.9L121.043 119.923C120.971 120.019 121.029 120.182 121.145 120.21C121.253 120.2 121.331 120.072 121.29 119.972ZM113.281 103.768C113.135 103.768 112.981 103.624 112.989 103.375C112.996 103.126 113.064 102.895 113.281 103.018C113.499 103.14 113.433 103.768 113.281 103.768ZM44.9288 73.4699C45.017 73.5862 45.219 73.535 45.2969 73.4116C45.3746 73.2879 45.3649 73.1307 45.3507 72.9853C45.1473 70.884 44.6019 68.8164 43.7426 66.888C43.4979 66.3389 43.2406 65.654 43.6154 65.1839C44.4815 67.349 45.3552 69.5409 45.6707 71.8516C45.7569 72.4822 45.7878 73.1727 45.4361 73.7035C45.0845 74.234 44.2085 74.4375 43.8179 73.9348C44.4188 73.8095 44.8782 73.2008 44.8351 72.5886C45.1126 72.7779 45.1603 73.2265 44.9288 73.4699ZM51.9311 115.192C55.0744 115.02 58.7161 114.566 60.3648 111.884C60.7924 111.188 60.7013 110.095 60.6261 109.194C60.5656 108.47 60.5156 107.871 60.7533 107.701C61.2869 107.321 61.7135 108.302 61.7135 108.302C61.7294 108.237 61.7471 108.157 61.7674 108.066C61.9163 107.398 62.1907 106.167 62.6217 106.398C62.7991 106.493 62.738 107.092 62.696 107.503V107.503C62.6863 107.599 62.6774 107.686 62.6731 107.752C62.663 107.816 62.6616 107.869 62.6691 107.907C62.6752 107.904 62.6814 107.901 62.688 107.896C62.6906 107.896 62.6934 107.894 62.6967 107.892C62.6991 107.89 62.7017 107.887 62.7045 107.884C62.7741 107.825 62.8697 107.679 62.9759 107.518C63.1961 107.182 63.4623 106.777 63.6407 106.926C63.9209 107.16 62.9247 108.653 62.9247 108.653C62.9247 108.653 64.1078 107.354 64.2074 107.907C64.3072 108.46 61.6132 113.457 59.1815 115.416C56.7498 117.376 53.3235 118.473 50.2251 118.08C50.2944 116.851 50.7023 115.259 51.9311 115.192ZM62.7045 107.884C62.6988 107.888 62.6934 107.893 62.688 107.896C62.6691 107.899 62.667 107.844 62.6731 107.752C62.696 107.608 62.7635 107.41 62.8716 107.22C62.8511 107.285 62.8305 107.348 62.8114 107.407C62.725 107.672 62.6625 107.864 62.7274 107.849C62.7227 107.857 62.7182 107.864 62.7139 107.871C62.7106 107.876 62.7076 107.88 62.7045 107.884ZM63.29 106.756C63.1159 106.866 62.975 107.039 62.8716 107.22C63.033 106.709 63.1963 106.065 62.7991 106.013C62.1254 105.926 61.4667 107.022 61.5837 107.605C61.3968 107.141 60.6187 107.342 60.4304 107.805C60.2857 108.161 60.3473 108.55 60.4082 108.937V108.937C60.4269 109.054 60.4453 109.171 60.458 109.287C60.6603 111.135 59.2747 112.863 57.5949 113.66C56.0111 114.411 54.2137 114.517 52.4555 114.571L52.0453 114.583C51.0416 114.61 49.9548 114.586 49.1888 113.946C48.3996 113.286 48.4003 111.719 49.3915 111.442C51.9073 110.74 53.8262 108.289 53.9043 105.678C53.9274 104.906 54.4278 104.264 54.9116 103.644C54.955 103.588 54.9982 103.532 55.0411 103.477L55.1473 103.338C55.6887 102.62 56.1338 101.63 55.679 100.854C54.9748 101.758 53.6556 102.122 52.5872 101.708C52.1416 101.535 51.7468 101.247 51.3543 100.96C50.8287 100.576 50.3077 100.195 49.6749 100.099C48.4374 99.9129 47.2097 101.166 47.4214 102.4C47.0865 102.118 46.5664 102.544 46.5302 102.98C46.509 103.236 46.5763 103.486 46.644 103.736C46.6914 103.911 46.7391 104.088 46.7563 104.267C46.7764 104.476 46.7549 104.685 46.7334 104.895C46.719 105.036 46.7044 105.178 46.7028 105.319C46.6938 106.054 47.0209 106.733 47.343 107.402L47.3435 107.403L47.344 107.404C47.3763 107.471 47.4084 107.538 47.4403 107.605L47.5264 107.789C47.8931 108.584 48.1653 109.53 47.7744 110.314C47.3834 111.098 46.0528 111.344 45.6757 110.553C43.828 106.678 39.6402 104.04 35.3476 104.047C30.3775 104.054 25.9057 107.329 22.9768 111.345C22.6114 111.846 22.2539 112.385 22.1743 113C22.0947 113.615 22.38 114.32 22.9647 114.526C23.5495 114.731 24.3078 114.156 24.1173 113.566C24.414 113.913 25.0207 113.585 25.1604 113.151C25.239 112.907 25.2381 112.65 25.2371 112.392C25.2364 112.19 25.2355 111.989 25.2725 111.792C25.4538 110.829 26.444 110.273 27.3357 109.867L27.5155 109.785C29.6152 108.835 31.8031 107.986 34.0999 107.825C36.4622 107.659 38.9834 108.316 40.6069 110.04C38.3915 110.566 37.1051 112.788 36.0797 114.841L35.9374 115.128C34.902 117.207 33.5458 119.475 31.2752 119.916C31.3616 120.364 31.7571 120.735 32.2098 120.791L23.886 125.74L24.5244 126.532C22.4979 129.638 20.2057 132.571 17.6813 135.288C16.3088 136.766 14.5265 138.296 12.5396 137.952C12.1803 137.89 11.832 137.767 11.4848 137.644C10.9765 137.464 10.4707 137.285 9.93702 137.3C9.0388 137.326 8.1374 138.418 8.74711 139.079C10.0974 140.54 11.6385 141.826 13.3189 142.892L13.3625 142.919C13.567 143.046 13.792 143.165 14.0292 143.138C14.269 143.111 14.4643 142.94 14.6426 142.778L25.9159 132.499C26.8391 131.664 27.8551 130.828 29.0849 130.706L29.1887 130.693C30.0985 130.567 30.8478 129.991 31.5992 129.415C31.9266 129.163 32.2541 128.912 32.5956 128.697C33.7508 127.97 35.6672 127.895 36.1165 129.184C36.3553 129.869 36.0429 130.566 35.7347 131.253V131.253C35.6429 131.458 35.5515 131.661 35.4753 131.864C35.143 132.745 35.4154 134.1 36.3568 134.083L41.6252 133.99C41.8145 133.988 42.0139 133.998 42.1612 134.114C42.3153 134.235 42.3693 134.437 42.3988 134.635L42.4111 134.726C42.6096 136.339 42.5822 137.98 42.3299 139.587C42.0569 141.327 41.33 143.242 39.6877 143.88C38.6519 144.282 37.4981 144.073 36.407 143.823L29.7775 142.275C29.7667 141.472 30.4929 140.819 31.2672 140.606C31.9235 140.425 32.6131 140.48 33.2958 140.535C33.3378 140.538 33.3798 140.542 33.4216 140.545L33.6626 140.563C35.3403 140.678 37.0364 140.522 38.6648 140.103L36.315 134.222C36.5545 136.175 37.0827 138.091 37.8768 139.891L30.1514 140.142C29.4788 140.16 28.7318 140.131 28.2797 139.64C28.1635 139.514 28.0668 139.359 27.971 139.205C27.7741 138.89 27.5809 138.58 27.2313 138.539C26.9293 138.504 26.6555 138.706 26.4242 138.903C24.9138 140.192 23.6597 141.779 22.7563 143.547C23.082 144.353 24.1612 144.579 24.9997 144.348C25.4904 144.212 25.9378 143.968 26.3865 143.724C26.7046 143.551 27.0234 143.377 27.3581 143.242C29.2255 142.487 31.2785 142.998 33.2505 143.592L34.422 143.949C36.7369 144.644 39.5595 145.001 41.2943 143.318C42.3179 142.324 42.6908 140.846 42.8935 139.435C43.4783 135.361 43.0042 131.139 41.5301 127.296C43.1739 126.662 43.9494 124.824 44.5523 123.168L45.733 119.927C46.1276 118.844 47.024 117.515 48.0907 117.951C51.1405 119.198 54.7428 118.671 57.5824 116.999C60.4217 115.328 62.5473 112.619 63.9789 109.651L64.0174 109.571C64.2975 108.982 64.6546 107.606 64.3355 107.453C64.2168 107.36 64.0049 107.515 63.8604 107.62C63.7826 107.678 63.724 107.72 63.7108 107.701C63.7028 107.69 63.729 107.614 63.766 107.506C63.9119 107.081 64.2267 106.164 63.29 106.756ZM43.1078 124.952C42.7387 125.782 42.1281 126.758 41.2271 126.648C40.7445 126.589 40.3801 126.225 40.052 125.851L39.8765 125.647C37.9717 123.436 35.3844 121.967 32.7839 120.614L31.9176 120.167C34.0359 119.75 35.3427 117.655 36.2756 115.708L36.5729 115.088C37.4263 113.319 38.3972 111.499 40.1571 110.703C40.4001 110.593 40.6791 110.505 40.93 110.596C40.9682 110.61 41.009 110.626 41.0517 110.642C41.3616 110.761 41.7604 110.915 41.7541 110.621C41.1893 110.394 41.0966 109.57 41.4223 109.056C41.7196 108.586 42.2348 108.315 42.7448 108.082L42.8902 108.016C42.5647 107.567 41.8598 107.944 41.4912 108.358L41.461 108.392C41.0912 108.798 40.5238 109.242 40.0971 108.912C38.3337 107.55 35.9836 107.112 33.7657 107.326C31.5478 107.54 29.4316 108.351 27.4053 109.278C26.6626 109.618 25.9083 109.988 25.357 110.591C24.9308 111.058 24.8864 111.678 24.8421 112.302C24.8291 112.484 24.8161 112.667 24.7935 112.847C24.7387 113.28 24.5001 113.297 24.2901 113.312C24.1775 113.319 24.0729 113.327 24.0095 113.397C24.0043 113.403 23.9878 113.428 23.963 113.466C23.8367 113.66 23.4954 114.184 23.3412 114.132C23.1148 114.055 23.2302 113.566 23.2302 113.566C23.2302 113.566 22.5582 113.758 22.5081 113.566C22.3331 112.894 23.3412 111.519 23.3412 111.519C25.0363 109.025 27.5497 106.957 30.3133 105.754C33.1278 104.529 36.4122 104.292 39.2895 105.362C42.5333 106.567 45.102 109.448 45.9301 112.808C46.1366 113.645 47.111 114.015 47.9625 114.154C47.9913 114.159 48.0201 114.164 48.0491 114.169C48.1006 114.177 48.1523 114.185 48.2042 114.193L48.2054 114.193C48.991 114.316 49.8267 114.446 50.3275 115.046C50.475 115.223 50.4344 115.485 50.3837 115.71L50.3688 115.774C50.1819 116.576 49.8562 117.473 49.0774 117.716C48.3699 117.937 47.5314 117.366 47.4773 116.627C47.4726 116.562 47.4712 116.493 47.4698 116.423C47.4636 116.136 47.4575 115.833 47.2161 115.714L43.1078 124.952ZM36.4158 129.335C36.1512 127.975 35.3469 126.752 34.2918 125.854C34.3328 126.389 34.5589 126.907 34.9226 127.301C33.1344 127.87 31.4482 128.757 29.9671 129.909C29.5706 130.217 28.8973 130.498 28.665 130.053C27.7515 128.301 26.2973 126.836 24.5523 125.909L31.7262 121.786C32.0505 121.6 32.3934 121.409 32.7674 121.405C33.0572 121.402 33.3326 121.513 33.5948 121.642L33.7246 121.708C36.4094 123.091 38.8123 125.017 40.7461 127.337C41.2247 127.911 41.4477 128.646 41.6373 129.374L42.4906 132.708C42.547 132.928 42.5886 133.202 42.4156 133.35C42.3184 133.433 42.1812 133.448 42.0533 133.458L41.9037 133.469C39.7795 133.633 38.0656 133.765 35.9374 133.458C35.6197 132.849 35.8597 132.094 36.1075 131.315C36.3199 130.648 36.538 129.962 36.4158 129.335ZM25.7434 127.285C26.5394 127.986 27.2571 128.776 27.8787 129.635C27.945 129.727 28.0134 129.829 28.0064 129.943C27.9981 130.075 27.891 130.177 27.7914 130.264L18.5193 138.379C18.1327 138.717 17.516 138.658 17.0829 138.382C16.704 138.14 16.433 137.769 16.1845 137.391L16.079 137.229C18.4955 135.959 20.0456 133.684 21.6095 131.389C22.5904 129.949 23.5768 128.501 24.7857 127.289C24.9032 127.171 25.0358 127.049 25.2013 127.03C25.4059 127.007 25.589 127.149 25.7434 127.285ZM52.7451 104.648L52.9818 104.721C53.4427 104.864 53.5194 105.481 53.4606 105.96C53.2178 107.944 51.9849 109.907 50.0842 110.523L50.0164 110.546C48.7777 110.983 47.8924 112.279 47.9453 113.593C47.1139 113.749 46.2225 113.084 46.1352 112.242C46.1177 112.074 46.1673 111.857 46.3341 111.831C47.0893 111.715 47.7841 111.252 48.1813 110.599C48.5783 109.946 48.6703 109.116 48.426 108.391C48.376 108.244 48.3128 108.096 48.249 107.947C48.0685 107.526 47.8872 107.103 48.014 106.677C48.3036 106.704 48.3585 107.101 48.3279 107.39L48.3246 107.425C48.3012 107.71 48.3515 108.076 48.628 108.114C48.8102 107.696 48.8482 107.227 48.8858 106.762C48.9332 106.175 48.9802 105.593 49.3169 105.126C49.7019 104.591 50.3924 104.345 51.0513 104.337C51.6276 104.331 52.1914 104.48 52.7451 104.648ZM11.0842 138.086L11.1436 138.018C11.4755 137.945 11.7924 138.37 11.628 138.667C11.5226 138.858 11.8468 139.047 12.0279 138.925C12.2089 138.804 12.2455 138.558 12.2654 138.341C12.4475 138.283 12.6051 138.492 12.6395 138.68C12.6486 138.73 12.6542 138.781 12.6598 138.832C12.6756 138.975 12.6913 139.118 12.7815 139.226C12.9042 139.372 13.2291 139.297 13.1758 139.113C13.0963 138.84 13.4193 138.617 13.7012 138.577C13.769 138.567 13.8389 138.561 13.9091 138.555C14.1308 138.537 14.3543 138.519 14.5156 138.375L14.5399 138.355C14.7447 138.21 14.9983 138.479 15.1529 138.717L15.2247 138.833C15.5646 139.362 16.1423 139.732 16.7651 139.816C16.8871 139.833 16.8251 140.023 16.7354 140.107L14.6334 142.087C14.5316 142.183 14.3665 142.114 14.2471 142.042C12.9994 141.277 11.8476 140.357 10.8272 139.309C10.5057 138.978 10.7783 138.452 11.0842 138.086ZM29.466 141.77C29.4054 142.02 29.2331 142.299 28.9768 142.281C28.3594 142.235 27.7333 142.309 27.144 142.498C27.1981 142.247 27.0881 141.968 26.8769 141.821C26.723 142.042 26.7858 142.383 27.0083 142.534L26.4207 143.115L26.1394 142.468C26.0006 142.505 25.9966 142.675 26.006 142.831L26.0129 142.928C26.0412 143.338 25.694 143.736 25.2846 143.763C24.8754 143.791 24.4779 143.443 24.4508 143.034C24.4213 142.588 24.7628 142.214 25.0804 141.899L27.3349 139.667C27.3831 139.621 27.4378 139.579 27.5027 139.58C27.5742 139.581 27.6321 139.635 27.6826 139.686L28.5624 140.574C28.733 140.746 28.6252 141.01 28.5199 141.266C28.4118 141.531 28.3066 141.788 28.5109 141.931C28.7096 141.943 28.8753 141.77 28.9518 141.586C28.9907 141.492 29.0146 141.393 29.0382 141.294C29.061 141.199 29.0837 141.104 29.12 141.013C29.1942 140.828 29.3542 140.652 29.5533 140.656C29.7525 140.661 29.9064 140.945 29.7523 141.072C29.588 141.206 29.5411 141.425 29.4955 141.638V141.639C29.4861 141.683 29.4764 141.727 29.466 141.77ZM14.0504 142.758C12.0239 141.674 10.2325 140.153 8.83428 138.329C9.01761 138.155 9.29335 138.339 9.47068 138.536L9.51458 138.588C10.8431 140.232 12.5116 141.6 14.3841 142.58C14.3689 142.728 14.1815 142.828 14.0504 142.758ZM23.7695 142.343C24.6474 141.195 25.6202 140.119 26.6744 139.13C26.8379 138.977 27.1773 138.874 27.2186 139.094C25.9912 140.266 24.8173 141.493 23.7017 142.772C23.5804 142.667 23.672 142.47 23.7695 142.343ZM17.0276 139.472C16.415 139.254 15.8689 138.853 15.4776 138.334C15.3304 138.138 15.2375 137.799 15.4606 137.698C15.6369 137.619 15.8063 137.786 15.9292 137.947L16.0215 138.073C16.4177 138.596 16.9829 138.989 17.6115 139.177C17.6126 139.345 17.4738 139.502 17.3072 139.522C17.2123 139.533 17.1176 139.504 17.0276 139.472ZM47.0886 105.497C47.3765 105.504 47.6203 105.804 47.5679 106.087L47.5748 106.091C47.6147 106.297 47.5885 106.514 47.5009 106.704C47.1861 106.395 47.0284 105.934 47.0886 105.497ZM52.5749 105.504C52.6113 105.501 52.6495 105.497 52.6882 105.497C52.7368 105.496 52.7927 105.505 52.8456 105.513C52.9882 105.535 53.1076 105.554 52.9948 105.377C52.8404 105.135 52.3885 105.108 52.3144 105.385C52.3349 105.525 52.4428 105.516 52.5749 105.504ZM52.9386 106.7C52.9409 106.691 52.9431 106.683 52.9452 106.675C53.0552 106.258 52.9915 105.93 52.6882 105.93C52.5711 105.939 52.3925 106.535 52.4095 106.715C52.4267 106.896 52.6304 107.063 52.788 106.974C52.8815 106.92 52.9114 106.805 52.9386 106.7ZM50.938 106.573C50.7268 106.28 50.7046 105.862 50.8837 105.547C50.9104 105.5 50.9427 105.454 50.9897 105.427C51.1082 105.359 51.267 105.451 51.3192 105.578C51.3715 105.704 51.3487 105.847 51.3251 105.982C51.3251 105.982 51.1495 106.867 50.938 106.573ZM95.7273 106.582C91.8649 105.635 87.8298 105.395 83.8824 105.879C84.5676 104.283 84.8682 102.523 84.7523 100.79C83.7236 101.511 82.0348 100.666 81.9959 99.41C81.9569 98.1545 83.59 97.2058 84.6612 97.8614C84.9454 98.0351 85.2574 97.6747 85.3711 97.3618C85.7579 96.2955 85.7617 95.0948 85.3815 94.0262C85.2335 93.6101 85.8615 93.3842 86.3033 93.393L90.0517 93.4673C90.3033 93.4723 90.5707 93.4732 90.7857 93.3422C91.0004 93.211 91.1227 92.896 90.9648 92.6998C90.316 91.8951 91.0616 90.4548 92.0931 90.5194C93.1249 90.5843 93.6842 92.1065 92.9401 92.824C92.8011 92.9578 93.0709 93.1301 93.2637 93.1343L98.1649 93.2474C99.1396 93.2698 99.8285 94.3082 99.8684 95.2824C99.9019 96.1067 99.6093 96.8964 99.3199 97.6764C99.2949 97.7443 99.2697 97.8123 99.2446 97.88L99.1646 98.1007C98.2966 100.536 98.0172 103.18 98.3568 105.743C98.4231 106.243 97.9627 106.688 97.4699 106.797C97.0352 106.892 96.5875 106.797 96.1523 106.689L95.7273 106.582Z" fill="#00160A"/>
<path fill-rule="evenodd" clip-rule="evenodd" d="M43.4858 61.8618C43.5217 61.6307 43.8294 61.4971 44.052 61.5764C44.2745 61.6557 44.473 61.9748 44.3102 62.1553C44.052 62.4411 43.4167 62.3099 43.4858 61.8618Z" fill="#FFB61D"/>
<path fill-rule="evenodd" clip-rule="evenodd" d="M140.342 121.683C140.197 121.806 139.905 121.85 139.878 121.662C140.446 121.084 140.836 120.335 140.984 119.539C141.17 119.489 141.223 119.784 141.177 119.97C141.02 120.597 140.837 121.268 140.342 121.683Z" fill="#00160A"/>
<path d="M15.0155 52.8699C15.0098 53.0561 14.7273 53.0452 14.5565 52.9709C14.618 52.8048 14.8672 52.7493 14.9935 52.8734L15.0155 52.8699Z" fill="black"/>
<path fill-rule="evenodd" clip-rule="evenodd" d="M95.6123 104.021C95.4155 104.196 95.0844 103.929 95.1136 103.667C95.1429 103.405 95.3749 103.218 95.5974 103.077C96.3949 102.572 97.3183 102.267 98.2597 102.199C98.285 102.558 97.8196 102.707 97.4663 102.775C96.7168 102.922 96.0026 103.246 95.3999 103.715C95.5089 103.782 95.588 103.896 95.6123 104.021Z" fill="#00160A"/>
<path fill-rule="evenodd" clip-rule="evenodd" d="M98.2867 104.479C97.8449 104.692 97.3953 104.889 96.9391 105.07C96.9908 105.262 97.2674 105.256 97.455 105.188C97.6424 105.121 97.889 105.049 98.0106 105.207C97.7021 105.678 96.9379 105.752 96.5455 105.348C96.3749 105.173 96.0659 105.288 95.8455 105.182C95.5302 105.029 95.589 104.553 95.7747 104.256C96.1622 103.636 96.9014 103.254 97.6313 103.296C97.9093 103.312 98.2414 103.449 98.2598 103.727C97.388 103.672 96.4992 104.032 95.9106 104.677C96.2451 104.936 96.7246 104.743 97.1017 104.552C97.4789 104.361 97.9768 104.192 98.2867 104.479Z" fill="#00160A"/>
<path fill-rule="evenodd" clip-rule="evenodd" d="M51.8794 106.952C52.1296 107.203 52.2334 107.317 52.2334 107.685C52.2334 108.054 52.0338 108.29 51.6965 108.398C51.5412 108.448 51.326 108.41 51.2856 108.252C52.409 108.022 51.9962 107.532 51.8794 106.952Z" fill="#00160A"/>
<path fill-rule="evenodd" clip-rule="evenodd" d="M50.3804 105.386C50.5 104.988 51.0213 104.774 51.3862 104.971C51.5306 105.049 51.6508 105.192 51.6583 105.356C51.2323 105.366 50.8814 105.09 50.3804 105.386Z" fill="#00160A"/>
<path fill-rule="evenodd" clip-rule="evenodd" d="M51.4001 108.935C49.0238 107.616 50.8842 109.307 51.4001 108.935V108.935Z" fill="#00160A"/>
<path d="M43.6313 167V166.077L44.4224 165.967L48.1504 156.336H49.3882L53.0503 165.967L53.834 166.077V167H50.7725V166.077L51.5781 165.938L50.875 163.975H46.605L45.8799 165.938L46.6855 166.077V167H43.6313ZM47.0518 162.767H50.4355L48.8682 158.431L48.7803 158.189H48.7363L48.6484 158.431L47.0518 162.767ZM58.2578 167.154C57.54 167.154 56.915 166.988 56.3828 166.656C55.8506 166.319 55.438 165.853 55.145 165.257C54.8521 164.661 54.7056 163.973 54.7056 163.191V162.884C54.7056 162.132 54.8472 161.458 55.1304 160.862C55.4136 160.267 55.8213 159.795 56.3535 159.449C56.8857 159.102 57.5205 158.929 58.2578 158.929C58.8975 158.929 59.4565 159.034 59.9351 159.244C60.4185 159.454 60.8237 159.742 61.1509 160.108L61.1875 162.012H60.0596L59.8105 160.628C59.6445 160.457 59.437 160.32 59.188 160.218C58.939 160.115 58.646 160.064 58.3091 160.064C57.8794 160.064 57.501 160.191 57.1738 160.445C56.8516 160.699 56.6001 161.038 56.4194 161.463C56.2388 161.888 56.1484 162.361 56.1484 162.884V163.191C56.1484 163.768 56.2314 164.268 56.3975 164.693C56.5684 165.118 56.8101 165.447 57.1226 165.682C57.4399 165.911 57.8159 166.026 58.2505 166.026C58.7388 166.026 59.144 165.892 59.4663 165.623C59.7886 165.354 59.9863 164.986 60.0596 164.517H61.356L61.3706 164.561C61.3462 165.015 61.2119 165.44 60.9678 165.835C60.7236 166.231 60.3745 166.551 59.9204 166.795C59.4712 167.034 58.917 167.154 58.2578 167.154ZM62.3154 167V166.077L63.5093 165.872V156.709L62.3154 156.504V155.574H64.9521V160.13C65.2256 159.749 65.5601 159.454 65.9556 159.244C66.3511 159.034 66.7905 158.929 67.2739 158.929C68.1235 158.929 68.7827 159.183 69.2515 159.69C69.7202 160.198 69.9546 160.979 69.9546 162.034V165.872L71.1484 166.077V167H67.3179V166.077L68.5117 165.872V162.02C68.5117 161.365 68.3701 160.882 68.0869 160.569C67.8086 160.257 67.3911 160.101 66.8345 160.101C66.439 160.101 66.0776 160.196 65.7505 160.386C65.4282 160.572 65.1621 160.826 64.9521 161.148V165.872L66.146 166.077V167H62.3154ZM72.0859 167V166.077L73.2798 165.872V160.21L72.0859 160.005V159.075H74.7227V165.872L75.9165 166.077V167H72.0859ZM73.2065 157.12V155.574H74.7227V157.12H73.2065ZM80.5234 167.154C79.791 167.154 79.1538 166.988 78.6118 166.656C78.0698 166.319 77.6499 165.853 77.3521 165.257C77.0591 164.661 76.9126 163.973 76.9126 163.191V162.869C76.9126 162.117 77.0664 161.446 77.374 160.855C77.6865 160.259 78.0991 159.791 78.6118 159.449C79.1294 159.102 79.6934 158.929 80.3037 158.929C81.0166 158.929 81.6123 159.075 82.0908 159.368C82.5742 159.661 82.938 160.074 83.1821 160.606C83.4263 161.133 83.5483 161.756 83.5483 162.474V163.375H78.4067L78.3848 163.411C78.3945 163.919 78.4824 164.371 78.6484 164.766C78.8193 165.157 79.0635 165.464 79.3809 165.689C79.6982 165.914 80.0791 166.026 80.5234 166.026C81.0117 166.026 81.439 165.958 81.8052 165.821C82.1763 165.679 82.4961 165.486 82.7646 165.242L83.3286 166.18C83.0454 166.453 82.6694 166.685 82.2007 166.875C81.7368 167.061 81.1777 167.154 80.5234 167.154ZM78.4507 162.247H82.1055V162.056C82.1055 161.675 82.0371 161.336 81.9004 161.038C81.7686 160.735 81.5684 160.499 81.2998 160.328C81.0361 160.152 80.7041 160.064 80.3037 160.064C79.9814 160.064 79.6885 160.159 79.4248 160.35C79.1611 160.535 78.9438 160.789 78.7729 161.111C78.6021 161.434 78.4897 161.8 78.436 162.21L78.4507 162.247ZM87.7891 167L84.9692 160.115L84.1489 160.005V159.075H87.4741V160.005L86.4414 160.152L88.1992 164.664L88.4043 165.301H88.4482L88.6826 164.664L90.3159 160.152L89.2539 160.005V159.075H92.5718V160.005L91.7368 160.115L89.0562 167H87.7891ZM96.7539 167.154C96.0215 167.154 95.3843 166.988 94.8423 166.656C94.3003 166.319 93.8804 165.853 93.5825 165.257C93.2896 164.661 93.1431 163.973 93.1431 163.191V162.869C93.1431 162.117 93.2969 161.446 93.6045 160.855C93.917 160.259 94.3296 159.791 94.8423 159.449C95.3599 159.102 95.9238 158.929 96.5342 158.929C97.2471 158.929 97.8428 159.075 98.3213 159.368C98.8047 159.661 99.1685 160.074 99.4126 160.606C99.6567 161.133 99.7788 161.756 99.7788 162.474V163.375H94.6372L94.6152 163.411C94.625 163.919 94.7129 164.371 94.8789 164.766C95.0498 165.157 95.2939 165.464 95.6113 165.689C95.9287 165.914 96.3096 166.026 96.7539 166.026C97.2422 166.026 97.6694 165.958 98.0356 165.821C98.4067 165.679 98.7266 165.486 98.9951 165.242L99.5591 166.18C99.2759 166.453 98.8999 166.685 98.4312 166.875C97.9673 167.061 97.4082 167.154 96.7539 167.154ZM94.6812 162.247H98.3359V162.056C98.3359 161.675 98.2676 161.336 98.1309 161.038C97.999 160.735 97.7988 160.499 97.5303 160.328C97.2666 160.152 96.9346 160.064 96.5342 160.064C96.2119 160.064 95.9189 160.159 95.6553 160.35C95.3916 160.535 95.1743 160.789 95.0034 161.111C94.8325 161.434 94.7202 161.8 94.6665 162.21L94.6812 162.247ZM100.907 167V166.077L102.101 165.872V160.21L100.907 160.005V159.075H103.397L103.492 160.108C103.746 159.732 104.073 159.441 104.474 159.236C104.874 159.031 105.338 158.929 105.865 158.929C106.393 158.929 106.844 159.051 107.22 159.295C107.601 159.539 107.887 159.905 108.077 160.394C108.326 159.944 108.656 159.588 109.066 159.324C109.476 159.061 109.955 158.929 110.501 158.929C111.312 158.929 111.952 159.207 112.42 159.764C112.889 160.315 113.124 161.148 113.124 162.261V165.872L114.317 166.077V167H110.479V166.077L111.673 165.872V162.247C111.673 161.465 111.539 160.914 111.271 160.591C111.002 160.264 110.604 160.101 110.077 160.101C109.574 160.101 109.168 160.279 108.861 160.635C108.558 160.987 108.382 161.431 108.333 161.968V165.872L109.527 166.077V167H105.697V166.077L106.891 165.872V162.247C106.891 161.504 106.751 160.962 106.473 160.621C106.2 160.274 105.802 160.101 105.279 160.101C104.84 160.101 104.479 160.191 104.195 160.372C103.912 160.552 103.695 160.806 103.543 161.133V165.872L104.737 166.077V167H100.907ZM118.888 167.154C118.155 167.154 117.518 166.988 116.976 166.656C116.434 166.319 116.014 165.853 115.716 165.257C115.423 164.661 115.277 163.973 115.277 163.191V162.869C115.277 162.117 115.431 161.446 115.738 160.855C116.051 160.259 116.463 159.791 116.976 159.449C117.494 159.102 118.058 158.929 118.668 158.929C119.381 158.929 119.977 159.075 120.455 159.368C120.938 159.661 121.302 160.074 121.546 160.606C121.791 161.133 121.913 161.756 121.913 162.474V163.375H116.771L116.749 163.411C116.759 163.919 116.847 164.371 117.013 164.766C117.184 165.157 117.428 165.464 117.745 165.689C118.062 165.914 118.443 166.026 118.888 166.026C119.376 166.026 119.803 165.958 120.169 165.821C120.541 165.679 120.86 165.486 121.129 165.242L121.693 166.18C121.41 166.453 121.034 166.685 120.565 166.875C120.101 167.061 119.542 167.154 118.888 167.154ZM116.815 162.247H120.47V162.056C120.47 161.675 120.401 161.336 120.265 161.038C120.133 160.735 119.933 160.499 119.664 160.328C119.4 160.152 119.068 160.064 118.668 160.064C118.346 160.064 118.053 160.159 117.789 160.35C117.525 160.535 117.308 160.789 117.137 161.111C116.966 161.434 116.854 161.8 116.8 162.21L116.815 162.247ZM123.041 167V166.077L124.234 165.872V160.21L123.041 160.005V159.075H125.523L125.626 160.254C125.89 159.834 126.219 159.51 126.615 159.28C127.015 159.046 127.469 158.929 127.977 158.929C128.832 158.929 129.493 159.18 129.962 159.683C130.431 160.181 130.665 160.953 130.665 161.998V165.872L131.859 166.077V167H128.028V166.077L129.222 165.872V162.027C129.222 161.329 129.083 160.833 128.805 160.54C128.531 160.247 128.111 160.101 127.545 160.101C127.13 160.101 126.761 160.201 126.439 160.401C126.122 160.601 125.868 160.875 125.677 161.221V165.872L126.871 166.077V167H123.041ZM135.389 167.125C134.803 167.125 134.337 166.954 133.99 166.612C133.648 166.265 133.478 165.713 133.478 164.957V160.145H132.225V159.075H133.478V157.164H134.92V159.075H136.642V160.145H134.92V164.957C134.92 165.337 134.996 165.618 135.147 165.799C135.299 165.979 135.501 166.07 135.755 166.07C135.926 166.07 136.117 166.055 136.327 166.026C136.537 165.992 136.7 165.962 136.817 165.938L137.015 166.883C136.805 166.946 136.546 167.002 136.239 167.051C135.936 167.1 135.653 167.125 135.389 167.125ZM141.146 167.154C140.614 167.154 140.116 167.1 139.652 166.993C139.188 166.885 138.695 166.719 138.172 166.495L138.158 164.612H139.249L139.52 165.748C139.793 165.86 140.057 165.943 140.311 165.997C140.57 166.045 140.848 166.07 141.146 166.07C141.732 166.07 142.152 165.958 142.406 165.733C142.66 165.508 142.787 165.23 142.787 164.898C142.787 164.585 142.657 164.322 142.398 164.107C142.145 163.887 141.681 163.702 141.007 163.55C140.05 163.331 139.344 163.038 138.89 162.671C138.441 162.3 138.216 161.807 138.216 161.192C138.216 160.762 138.341 160.379 138.59 160.042C138.839 159.7 139.186 159.429 139.63 159.229C140.074 159.029 140.592 158.929 141.183 158.929C141.783 158.929 142.296 158.997 142.721 159.134C143.15 159.271 143.524 159.454 143.841 159.683L143.915 161.492H142.831L142.596 160.438C142.425 160.311 142.223 160.213 141.988 160.145C141.754 160.076 141.485 160.042 141.183 160.042C140.733 160.042 140.367 160.147 140.084 160.357C139.806 160.567 139.667 160.831 139.667 161.148C139.667 161.333 139.706 161.495 139.784 161.631C139.867 161.768 140.023 161.893 140.252 162.005C140.482 162.112 140.819 162.22 141.263 162.327C142.367 162.586 143.136 162.916 143.57 163.316C144.01 163.716 144.229 164.209 144.229 164.795C144.229 165.464 143.98 166.026 143.482 166.48C142.989 166.929 142.21 167.154 141.146 167.154Z" fill="#9E7D77"/>
</g>
<defs>
<filter id="filter0_d_325_241" x="0" y="0" width="191" height="185" filterUnits="userSpaceOnUse" color-interpolation-filters="sRGB">
<feFlood flood-opacity="0" result="BackgroundImageFix"/>
<feColorMatrix in="SourceAlpha" type="matrix" values="0 0 0 0 0 0 0 0 0 0 0 0 0 0 0 0 0 0 127 0" result="hardAlpha"/>
<feOffset dx="10" dy="4"/>
<feGaussianBlur stdDeviation="2"/>
<feComposite in2="hardAlpha" operator="out"/>
<feColorMatrix type="matrix" values="0 0 0 0 0 0 0 0 0 0 0 0 0 0 0 0 0 0 0.25 0"/>
<feBlend mode="normal" in2="BackgroundImageFix" result="effect1_dropShadow_325_241"/>
<feBlend mode="normal" in="SourceGraphic" in2="effect1_dropShadow_325_241" result="shape"/>
</filter>
<linearGradient id="paint0_linear_325_241" x1="81.6488" y1="9.20398" x2="81.6488" y2="168.119" gradientUnits="userSpaceOnUse">
<stop stop-color="#E2C7F1"/>
<stop offset="1" stop-color="#FCD2AF" stop-opacity="0"/>
</linearGradient>
<linearGradient id="paint1_linear_325_241" x1="156.713" y1="66.0765" x2="156.713" y2="108.582" gradientUnits="userSpaceOnUse">
<stop stop-color="#F9EBEC"/>
<stop offset="1" stop-color="#FFDBD4"/>
</linearGradient>
</defs>
</svg>
