<svg width="191" height="168" viewBox="0 0 191 168" fill="none" xmlns="http://www.w3.org/2000/svg">
<g filter="url(#filter0_d_325_770)">
<g clip-path="url(#clip0_325_770)">
<path d="M0 30C0 13.4315 13.4315 0 30 0H147C163.569 0 177 13.4315 177 30V130C177 146.569 163.569 160 147 160H30C13.4315 160 0 146.569 0 130V30Z" fill="white"/>
<path d="M61.347 125.736C100.981 131.493 121.008 117.626 121.101 117.226C122.19 116.561 123.289 115.904 124.317 115.155C125.952 113.962 127.542 112.71 129.129 111.456C129.911 110.837 130.674 110.189 131.386 109.494C131.897 108.995 132.268 108.358 132.773 107.851C133.932 106.688 135.182 105.61 136.309 104.419C138.332 102.279 140.322 100.106 142.269 97.8987C143.841 96.1151 145.353 94.278 146.845 92.4291C147.883 91.144 148.844 89.7998 149.837 88.4796C150.663 87.3808 151.563 86.3259 152.289 85.1661C153.147 83.7948 153.891 82.3503 154.613 80.9035C155.357 79.414 156.084 77.9095 156.694 76.3643C157.426 74.5148 158.422 72.7486 158.453 70.6652C158.478 68.9743 158.733 67.2879 158.789 65.5966C158.856 63.6081 158.565 61.6429 158.156 59.6965C157.802 58.0163 157.314 56.3673 156.431 54.8852C155.499 53.3223 154.493 51.7956 153.419 50.3238C152.129 48.5563 150.603 47.0055 148.76 45.7547C147.039 44.5868 145.174 43.7235 143.235 43.0059C141.421 42.3348 139.577 41.743 137.757 41.0887C136.712 40.7132 135.694 40.2661 134.654 39.8799C132.967 39.2535 131.254 38.6904 129.582 38.0287C126.975 36.9969 124.652 35.545 122.717 33.4989C121.457 32.1663 120.092 30.9277 118.76 29.6619C117.45 28.416 116.109 27.2006 114.806 25.9475C114.258 25.4215 113.816 24.7871 113.25 24.2849C112.412 23.5418 111.517 22.8605 110.627 22.176C109.748 21.4995 108.915 20.722 107.94 20.2176C105.782 19.1026 103.639 17.9432 101.246 17.3169C99.1682 16.773 97.1412 16.1014 94.9843 15.8032C92.7566 15.495 90.5454 15.2136 88.2956 15.2691C85.4109 15.3404 82.5255 15.3984 79.6413 15.4797C78.9319 15.4998 78.2138 15.532 77.5185 15.6576C75.6452 15.9956 73.7772 16.3669 71.9157 16.7642C70.4301 17.081 68.9552 17.4468 67.4798 17.8077L67.4279 17.8204C66.3522 18.0836 65.2754 18.3472 64.2138 18.6587C62.3649 19.2015 60.5236 19.772 58.6859 20.3507C56.1755 21.1415 53.966 22.6252 51.4183 23.3549C50.0618 23.7436 48.7612 24.3382 47.4643 24.9036C45.2385 25.8737 43.0281 26.8789 40.8258 27.8993C39.8014 28.3741 38.8457 29.0051 37.7979 29.4143C35.6858 30.2395 33.7228 31.3211 31.8705 32.5875C30.3514 33.6259 28.9375 34.8115 27.4331 35.8722C25.331 37.3545 23.3378 38.9478 21.7678 40.9864C20.6436 42.4462 19.4593 43.8801 18.5108 45.4474C17.1705 47.662 15.9494 49.9543 14.8137 52.2779C13.7523 54.4498 12.8449 56.6965 11.9152 58.9286C11.3059 60.3921 10.6993 61.8648 10.2336 63.376C9.69151 65.1358 9.35343 66.9556 8.83522 68.7233C8.42096 70.1369 8.2912 71.5617 8.34402 73.0148C8.35807 73.4058 8.47269 73.7934 8.48757 74.1844C8.63365 77.9982 8.75723 81.8127 8.91609 85.626C8.94468 86.3067 9.08529 86.9856 9.2113 87.6586C9.43179 88.8359 9.67223 90.0101 9.92152 91.1821C10.1295 92.1601 10.281 93.1591 10.5993 94.1028C11.514 96.8143 12.6682 99.4302 14.1777 101.879C15.1717 103.492 16.2017 105.084 17.2553 106.659C17.5836 107.15 18.0476 107.552 18.4419 108.001C19.2399 108.91 19.8621 109.696 20.8377 110.724C32.3654 122.875 48.2771 123.838 61.347 125.736Z" fill="url(#paint0_linear_325_770)" fill-opacity="0.8"/>
<path fill-rule="evenodd" clip-rule="evenodd" d="M62.5363 82.9727C63.1284 88.3247 63.7204 93.6768 64.3125 99.0288L64.7906 103.351C64.851 103.896 64.7939 104.972 65.0239 105.46C65.1051 105.632 65.3186 105.714 65.4755 105.816C66.0157 106.165 66.5561 106.515 67.0963 106.865C71.6663 109.822 76.2363 112.779 80.8061 115.736C85.1919 118.574 89.5778 121.412 93.9635 124.25C94.4174 124.544 95.1515 125.31 95.6414 125.108C96.1072 124.916 96.5831 124.443 97.0059 124.145C97.8176 123.571 98.6292 122.998 99.4409 122.425C104.352 118.956 109.263 115.486 114.175 112.017C116.201 110.586 118.227 109.155 120.254 107.723C120.808 107.332 121.363 106.94 121.917 106.549C122.207 106.344 122.245 106.351 122.359 106.003C122.786 104.704 122.983 103.215 123.285 101.866C123.618 100.38 123.951 98.8941 124.283 97.4079C124.432 96.7448 124.362 96.6592 124.12 96.0191C123.641 94.7521 123.162 93.4852 122.684 92.2183C121.621 89.4064 120.558 86.5944 119.495 83.7825C119.065 82.6454 118.03 81.8452 117.285 81.0089L105.712 68.0229C105.418 67.693 105.124 67.3632 104.83 67.0333C104.782 69.0158 104.457 71.147 104.934 73.0622C105.716 76.2051 106.498 79.348 107.281 82.4909C107.659 84.0101 108.037 85.5292 108.415 87.0482C108.485 87.3305 108.913 88.4497 108.798 88.698C108.735 88.8356 108.195 88.9748 108.078 89.0283C107.575 89.2588 107.073 89.4894 106.57 89.7199C105.169 90.3621 103.769 91.0044 102.368 91.6464C101.108 92.2242 99.8486 92.8018 98.5889 93.3793C98.1617 93.5753 97.66 93.938 97.2089 93.9077C96.8053 93.8807 96.3464 93.6399 95.9559 93.5187C95.2694 93.3056 94.5827 93.0924 93.8961 92.8792C92.5475 92.4606 91.1987 92.0419 89.85 91.6231C88.3327 91.152 87.0512 89.7685 85.7536 88.7444C83.5231 86.9842 81.2926 85.2239 79.0623 83.4638C78.5516 83.0608 78.5497 82.8309 78.3463 82.0951C77.889 80.4417 77.4316 78.7882 76.9744 77.1347C76.7302 76.2519 76.4299 75.3653 76.2455 74.4614C75.9414 72.9697 75.761 71.4255 75.52 69.9173C75.4474 69.4623 75.3747 69.0071 75.3021 68.5521C74.368 69.0089 73.4339 69.4659 72.4997 69.9229C72.3643 69.989 71.7046 70.1865 71.6459 70.3487C71.6088 70.4513 71.805 70.9167 71.8331 71.0167C72.6076 73.7815 73.3821 76.5463 74.1568 79.311C74.4004 80.1808 74.644 81.0504 74.8876 81.9201C74.3055 80.8174 73.7232 79.7146 73.141 78.6119C72.6836 80.4665 72.2261 82.3212 71.7686 84.1757C70.6874 82.672 69.6061 81.1683 68.5248 79.6645C68.1505 81.1683 67.7762 82.672 67.4019 84.1757C66.2375 82.3212 65.0732 80.4665 63.9086 78.6119C63.7703 79.5797 63.6318 80.5475 63.4933 81.5153C63.4515 81.8075 63.4599 82.6455 63.2985 82.8768C63.1657 83.0671 62.7832 82.9727 62.5363 82.9727Z" fill="url(#paint1_linear_325_770)"/>
<path fill-rule="evenodd" clip-rule="evenodd" d="M136.262 94.5415C136.196 97.0609 136.242 100.331 135.098 102.546C134.913 102.904 134.288 104.018 134.218 103.038C134.149 102.076 134.346 101.124 134.151 100.151C134.047 99.6301 133.697 98.493 133.099 98.9632C132.794 99.2029 132.714 99.7946 132.595 100.168C132.418 100.721 132.221 101.265 132.035 101.813C131.386 103.727 130.714 106.012 129.272 107.279C129.461 105.628 129.975 103.865 129.629 102.197C129.511 101.628 129.154 100.59 128.54 100.923C127.94 101.248 127.552 102.696 127.269 103.341C126.412 105.297 125.536 107.216 124.571 109.099C124.085 110.046 123.561 110.912 122.926 111.722C122.529 112.228 122.033 113.085 121.407 113.16C121.407 111.716 121.802 110.321 122.162 108.961C122.549 107.499 122.902 106.024 123.282 104.559C123.611 103.289 123.882 102.028 124.101 100.725C124.192 100.186 124.264 99.6276 124.645 99.2795C124.988 98.9667 125.529 98.8178 125.911 98.5879C126.914 97.9839 127.946 97.3321 128.878 96.5813C129.26 96.2731 129.59 95.8749 129.99 95.5984C130.447 95.2833 130.873 95.0182 131.295 94.6343C133.118 92.9777 134.76 90.9398 135.867 88.5141C136.047 89.4886 136.285 90.4409 136.311 91.4456C136.338 92.4756 136.289 93.5121 136.262 94.5415ZM121.264 106.121C120.973 105.528 120.529 105.771 120.138 106.057C119.531 106.501 118.922 106.942 118.312 107.38C117.07 108.272 115.851 109.21 114.638 110.157C112.168 112.083 109.613 113.66 107.009 115.291C104.493 116.867 102.076 118.743 99.7178 120.639C99.1512 121.094 98.5885 121.561 98.0444 122.055C97.5615 122.493 97.1752 123.109 96.6668 123.5C96.1373 123.906 95.7734 123.576 95.267 123.277C94.6337 122.902 93.9737 122.587 93.3263 122.249C90.7139 120.884 88.0941 119.467 85.5528 117.918C83.0269 116.378 80.6336 114.604 78.2134 112.841C77.0607 112.002 75.9277 111.11 74.7908 110.24C73.5808 109.314 72.3281 108.62 71.0589 107.833C70.4974 107.485 69.9999 107.012 69.4232 106.695C68.8168 106.362 68.1763 106.123 67.6333 105.643C67.3899 105.428 67.1846 105.171 66.9064 105.018C66.6779 104.893 66.4187 104.872 66.1931 104.74C65.7342 104.47 65.6029 103.921 65.514 103.351C64.9425 99.6918 64.6387 95.9308 64.3075 92.2305C64.1213 90.1497 63.9136 88.0769 63.6563 86.0071C63.5403 85.0739 63.7736 84.3509 63.8961 83.4431C64.0391 82.3828 64.0956 81.3003 64.1914 80.2328C64.6436 81.2424 65.0346 82.3019 65.6098 83.2232C66.0339 83.9022 66.7583 84.865 67.5392 84.8423C68.7528 84.8069 68.6973 82.298 68.7462 81.3021C69.299 81.8968 69.4667 82.8657 69.9256 83.5565C70.3445 84.1871 70.9147 84.9697 71.5581 85.252C72.9127 85.8468 72.7824 82.816 72.7079 81.9565C72.6705 81.5254 72.4685 80.8433 72.9477 81.0398C73.389 81.2209 73.8184 81.9714 74.1893 82.3156C74.8305 82.9108 75.5337 83.4053 76.1915 83.9734C77.0075 84.6784 77.8881 85.1878 78.7201 85.8444C79.2405 86.255 79.8082 86.3472 80.3755 86.6492C81.2066 87.0917 81.9408 87.7512 82.732 88.2817C84.2986 89.3318 86.0365 90.2734 87.7501 90.9065C88.3045 91.1113 89.0434 91.6887 89.4639 91.0953C89.7229 90.7302 89.8931 90.1725 90.113 89.7632C90.391 89.245 90.6864 88.7405 90.993 88.2462C92.0832 86.4898 93.293 84.8312 94.6365 83.3497C96.1997 81.6263 97.9089 80.0754 99.7372 78.7837C100.523 78.2287 103.803 75.7411 104.524 77.4918C103.931 77.4473 103.418 77.7085 102.911 78.0356C102.787 78.1154 102.15 78.6643 102.299 78.1805C102.114 78.2223 101.951 78.5135 101.811 78.6429C101.569 78.8667 101.201 79.125 100.92 79.3103C100.643 79.4933 100.3 79.5381 100.047 79.76C99.9546 79.8411 99.8986 79.9725 99.8105 80.0602L99.558 80.0626C99.5202 80.2311 99.4824 80.3996 99.4446 80.5681C99.3019 80.0167 99.0983 80.7338 98.8598 80.9668C98.7165 81.1068 98.4896 81.251 98.3208 81.3413C98.1946 81.4089 98.1751 81.2519 98.0526 81.3713C97.9438 81.4773 97.8745 81.7108 97.7575 81.8437C97.6139 82.0064 97.4301 82.1329 97.27 82.2718C96.9633 82.538 96.639 82.747 96.3283 82.9993C95.9104 83.3389 95.6912 83.9228 95.2854 84.2778C95.0932 84.4459 94.7946 84.4656 94.6906 84.5733C94.4297 84.8436 94.5157 85.2533 94.0291 85.2713C94.0734 85.3567 94.0999 85.4493 94.1091 85.5493C93.9932 85.5253 93.8901 85.4674 93.7999 85.3755C93.8201 85.9605 93.3429 86.1693 93.0568 86.5295C92.8919 86.737 92.6864 87.0288 92.5701 87.2786C92.5508 87.3204 92.5139 87.6538 92.5059 87.6583C92.4617 87.6839 92.1929 87.3992 92.2183 87.423C92.1433 87.9634 91.7094 88.4744 91.5194 88.9746C91.4193 89.2382 91.3177 89.662 91.1204 89.8474C91.0668 89.8978 90.9017 89.8451 90.7653 90.0203C90.6653 90.1487 90.5499 90.3862 90.5092 90.5566C90.4821 90.6704 90.5147 90.9648 90.4758 91.0331C90.4044 91.1579 90.2934 91.0325 90.1816 91.1248C89.975 91.2953 89.9697 91.5618 89.6674 91.5968C89.8758 92.207 91.1339 92.3951 91.5911 92.5687C92.8843 93.0592 94.2409 93.5491 95.4497 94.3004C95.7624 94.4946 96.0582 94.6548 96.1136 95.1024C96.1908 95.7253 95.9275 96.5535 95.8772 97.1827C95.7411 98.8817 95.7132 100.631 95.7417 102.337C95.7686 103.953 95.812 105.585 95.8746 107.199C95.9324 108.696 96.1828 110.163 96.318 111.649C96.355 112.057 96.3303 113.896 96.9122 113.803C97.398 113.726 97.0912 112.47 97.0821 112.11C97.0618 111.312 97.201 110.499 97.1952 109.694C97.1924 109.308 97.3326 108.975 97.3461 108.605C97.3595 108.239 97.2088 107.95 97.2539 107.572C97.2973 107.208 98.1891 105.117 97.3326 105.362C97.3828 105.063 97.4267 104.761 97.493 104.467C97.5845 104.566 97.6584 104.682 97.714 104.814C97.7903 104.172 97.7648 103.53 97.8121 102.888C97.8333 102.596 97.9312 102.278 97.8978 101.984C97.9042 101.862 97.8913 101.743 97.8594 101.626C97.8067 101.559 97.7415 101.523 97.664 101.52C97.6232 101.359 97.6127 101.315 97.6851 101.157C97.7162 101.05 97.7778 100.984 97.87 100.957C98.0456 100.932 98.0657 100.81 97.9301 100.592C98.0009 100.162 98.01 99.8897 97.9589 99.4599C97.916 99.0989 98.0738 98.3998 97.913 98.0783C97.7253 97.7025 97.6319 98.067 97.597 97.5461C97.5895 97.4359 97.5835 97.2061 97.6203 97.0962C97.6606 96.9765 97.7818 97.0255 97.7972 96.983C97.9024 96.6935 97.9094 96.1236 97.5372 96.1731C97.5518 95.9663 97.5664 95.7596 97.5809 95.5528C97.8498 95.9259 97.7558 95.6101 97.9083 95.4027C98.1136 95.1233 98.3145 95.0752 98.6081 94.9647C99.3905 94.6706 100.144 94.228 100.909 93.8689C102.528 93.1085 104.177 92.4296 105.748 91.531C109.053 89.6406 112.293 87.5891 115.619 85.7487C115.381 85.2173 115.529 85.1914 115.702 84.6925C115.934 84.8865 115.886 84.7512 116.05 84.7393C116.035 84.5728 116.078 84.5226 116.179 84.5886C116.259 84.6182 116.342 84.6288 116.426 84.62C116.632 84.6626 116.8 84.7991 116.987 84.851C117.049 84.9056 117.116 84.9465 117.19 84.974C117.256 84.9558 117.312 84.9164 117.359 84.8557C117.662 84.9233 117.764 85.1984 117.777 85.5966C117.779 85.6659 117.603 85.7368 117.654 85.8299C117.742 85.9926 117.979 85.9538 118.114 85.9746C118.084 86.1436 118.055 86.3125 118.025 86.4813C118.62 86.1507 118.465 87.1857 118.645 87.5257C118.695 87.6205 118.807 87.5448 118.865 87.6547C118.941 87.7981 118.918 88.0013 118.983 88.1441C119.129 88.4673 119.276 88.428 119.422 88.7981C120.184 90.7302 121.198 92.5303 121.929 94.504C122.278 95.4433 122.592 96.3988 122.956 97.3299C123.29 98.1869 123.481 98.9154 123.243 99.8512C122.69 102.022 122.098 104.233 121.373 106.329C121.337 106.26 121.301 106.191 121.264 106.121ZM82.6767 122.326C82.6248 122.432 82.5729 122.539 82.521 122.645C82.4057 121.846 82.7129 122.217 82.6767 122.326ZM80.2366 120.829C80.0703 120.769 80.1422 120.442 80.1475 120.302C80.2527 120.46 80.3559 120.621 80.4435 120.795C80.3745 120.806 80.3055 120.818 80.2366 120.829ZM73.549 117.757C73.7237 117.639 73.8493 117.554 74.0473 117.42C73.8461 117.893 73.8461 117.893 73.549 117.757ZM63.028 76.1135C62.7612 76.903 63.5749 81.7774 62.8173 81.9365C62.7086 81.5087 62.695 80.3307 62.2453 80.1901C61.6872 80.0155 61.7422 81.2283 61.666 81.6033C60.5203 80.6426 60.0114 78.7873 59.4641 77.3169C58.7664 75.4429 58.2175 73.4936 57.6932 71.5409C57.245 69.8713 56.8743 68.1723 56.4213 66.5054C56.1367 65.4585 55.8299 64.4091 55.6386 63.33C55.597 63.0956 55.4334 62.5011 55.5724 62.2783C55.7744 61.9542 56.5015 62.3254 56.7358 62.4105C58.2558 62.9617 59.8325 63.199 61.3942 63.5193C63.1292 63.8749 64.8604 64.2426 66.6059 64.5184C67.0421 64.5873 67.4785 64.6525 67.9152 64.716C68.1984 64.7572 68.6271 64.716 68.8961 64.869C69.4405 65.1787 69.5564 66.3636 69.7587 66.9783C70.5131 69.2718 71.401 71.4928 72.1954 73.7655C72.911 75.8128 73.4535 77.9909 74.4821 79.8551C73.715 79.4452 72.7427 77.278 71.8855 78.5271C71.5169 79.0643 71.6099 79.7719 71.6393 80.4147C71.682 81.344 71.6953 82.2803 71.6953 83.2111C70.8564 82.9484 70.2928 81.8006 69.8524 80.9875C69.2508 79.877 68.8719 78.8306 68.6055 77.5575C68.4901 77.0063 68.1842 76.9926 67.9123 76.6627C67.7376 76.4507 67.6498 76.165 67.3993 76.4734C67.0844 76.861 67.2939 77.9345 67.3483 78.3923C67.4774 79.4814 67.901 81.1576 67.4892 82.181C66.9336 83.5622 65.4445 80.0869 65.2701 79.585C65.1814 79.3295 63.5972 74.4297 63.028 76.1135ZM61.9878 52.4436C62.0816 52.4608 62.1753 52.4781 62.2691 52.4954C62.1935 52.5759 62.0362 52.858 61.9077 52.7834C61.9344 52.6702 61.9611 52.5569 61.9878 52.4436ZM66.957 51.1583C66.9277 51.1973 66.8981 51.2361 66.8687 51.275C66.7342 51.0723 66.7819 50.7768 66.7819 50.5424C66.9596 50.6719 67.0031 50.9308 66.957 51.1583ZM67.3586 53.4073V54.0698C66.9861 53.8752 66.9787 53.7748 67.3586 53.4073ZM67.811 54.2497C67.55 54.1634 67.5188 54.0937 67.5555 53.6103C67.6637 53.8811 67.7349 54.0596 67.811 54.2497ZM69.3134 59.1563C69.204 59.4955 68.5646 58.6871 68.588 58.4452C68.6104 58.2144 68.7085 58.1455 68.844 58.2939C68.8888 58.3431 68.8223 58.5207 68.8509 58.5823C68.9541 58.8055 69.162 58.988 69.3134 59.1563ZM69.3205 61.2001C69.1603 61.6822 68.8747 60.923 69.2933 60.9022C69.3207 60.9992 69.3299 61.0985 69.3205 61.2001ZM69.0097 60.44C68.9477 60.3403 68.8875 60.2393 68.8289 60.1364C69.0445 60.1889 69.2157 60.5675 69.4431 60.3149C69.4162 60.7001 69.1891 60.7108 69.0097 60.44ZM55.0683 54.1779C54.7216 53.7219 56.9824 53.4017 57.2551 53.3234C59.2343 52.7545 61.103 51.9314 62.9536 50.9213C63.8364 50.4396 64.7147 49.9519 65.5768 49.4178C65.9491 49.1873 66.4593 48.9918 66.7702 48.6456C66.9922 48.3986 66.9833 48.2116 67.2718 48.0644C67.5167 47.9398 67.5289 48.0575 67.6411 47.832C67.7085 47.6966 67.7847 47.2007 67.7453 47.0539C67.6378 46.6535 67.479 46.9782 67.2561 46.7022C67.0955 46.5033 67.1344 45.9376 67.1782 45.7033C67.2351 45.8149 67.2678 45.9361 67.2765 46.0666C67.5184 45.9228 67.4209 45.4292 67.6855 45.3483C67.9643 45.2632 67.9355 45.525 68.0083 45.7926C68.219 45.4197 68.05 45.1017 67.936 44.7375C68.5158 44.6066 69.1387 44.4799 69.7134 44.7124C70.1289 44.8803 70.4846 45.2934 70.9234 45.3732C71.3531 45.4513 71.4357 45.2057 71.7525 44.9566C72.0096 44.7543 72.2304 44.9925 72.3628 44.8397C72.2812 45.3555 71.5797 45.285 71.666 45.9295C71.7049 46.2195 71.9999 46.4801 72.1341 46.7058C72.3027 46.9891 72.437 47.3024 72.5518 47.6216C72.9983 48.8634 73.1892 50.3044 73.3766 51.6323C73.839 54.9101 73.8975 58.2526 74.3324 61.5409C74.5396 63.1071 74.7474 64.6743 74.855 66.2559C74.882 66.6514 75.0823 67.5484 74.9184 67.9288C74.7798 68.25 74.4714 68.2509 74.2007 68.3286C73.6709 68.4804 73.1735 68.6865 72.6653 68.9149C72.2098 69.1196 72.0775 69.2452 71.785 68.7286C71.5022 68.2288 71.3623 67.633 71.16 67.0851C70.9022 66.3869 70.5908 65.7132 70.2919 65.0397C70.8791 65.0397 71.2171 64.6576 71.2015 63.9384C71.1846 63.1417 70.641 62.9527 70.4169 62.298C70.1989 62.6392 70.1806 62.6488 70.0253 62.3249C69.8476 61.9545 69.7277 61.2768 69.619 60.8567C69.6968 60.9567 69.7745 61.0567 69.8522 61.1565C70.0482 60.8314 69.7412 60.319 69.6385 60.0128C69.4801 59.54 69.4521 59.0289 69.3018 58.5575C69.2198 58.3002 69.0299 58.0977 68.9834 57.8293C68.9523 57.6496 69.0768 57.4786 69.0473 57.2962C68.9959 56.9786 68.6978 56.6379 68.6051 56.3149C68.4625 55.818 68.3077 55.3806 68.1308 54.8966C67.8914 54.2414 67.947 53.5539 67.9032 52.8566C67.8578 52.1336 67.6657 51.4419 67.5978 50.7221C67.5509 50.2248 67.6977 49.5987 67.3856 49.2003C67.349 49.8624 67.5065 49.8522 66.9903 49.9713C66.4027 50.1068 65.9765 50.6344 65.421 50.7919C65.3064 50.8244 65.223 50.2214 65.2676 51.0439C65.0011 50.8068 64.4323 51.1012 64.6446 51.2419C64.4838 51.4493 64.167 51.3058 64.1141 51.6165C63.5675 50.9761 62.6911 53.156 62.0402 52.0189C61.9328 52.7896 61.4698 53.2452 60.8482 53.3471C60.5357 53.3983 60.343 53.5238 60.0657 53.6367C60.0094 53.6595 59.9887 53.757 59.9221 53.7834C59.8203 53.8234 59.6708 53.7026 59.5975 53.7261C59.4481 53.7739 59.2821 54.0107 59.0736 54.0578C58.8346 54.1118 58.5738 54.087 58.3345 54.0536C58.0353 54.0118 57.9037 53.9691 57.6108 54.0879C57.3473 54.1948 57.0651 54.4942 56.8205 54.1682C56.4364 54.9692 55.5205 54.7734 55.0683 54.1779ZM72.8273 44.5116C72.5366 44.4697 72.7385 44.1683 72.8731 44.0778C73.2389 43.8321 73.1412 44.557 72.8273 44.5116ZM56.7306 47.3861C58.4368 44.4193 61.3552 42.3808 63.9231 40.6657C65.3256 39.7289 66.7573 38.8208 68.23 38.0541C68.9622 37.673 69.7029 37.3067 70.4506 36.972C70.8498 36.7932 71.2539 36.6306 71.6583 36.4688C71.7701 36.4242 71.9734 36.287 72.0904 36.3004C72.0702 36.298 72.3813 36.4 72.3201 36.432C72.5205 36.3269 72.6158 36.0528 72.8514 35.9431C73.1161 35.8198 73.4533 35.7689 73.7369 35.7577C73.9878 35.7478 74.205 35.8728 74.4441 35.8825C74.6011 35.8889 74.7346 35.7989 74.8885 35.7857C74.9672 35.7791 74.9602 35.921 75.0076 35.9293C75.0282 35.9329 75.2378 35.838 75.2398 35.8397C75.3161 35.8988 75.3838 36.1295 75.4528 36.2195C75.6506 36.4779 75.9411 36.6579 76.2049 36.7938C76.5261 36.9592 77.3095 37.1255 76.9464 37.7375C77.2043 37.6929 77.3243 37.9738 77.0014 38.0449C76.8265 38.0835 76.7518 37.8905 76.6219 37.7587C76.3218 37.455 75.5935 37.0225 75.1613 37.0421C74.9182 37.053 74.7303 37.2754 74.5061 37.3562C74.2854 37.4356 74.1761 37.3124 73.9824 37.332C73.7561 37.3547 73.6104 37.5855 73.3947 37.6266C73.1927 37.665 73.0802 37.499 72.8996 37.5106C72.6851 37.5243 72.4772 37.749 72.2723 37.8244C71.9465 37.9444 71.7072 38.0262 71.389 38.2252C70.7725 38.6109 70.0839 38.7573 69.4485 39.0894C68.9405 39.3548 68.3645 39.4945 67.8943 39.788C67.3716 40.1141 66.8465 40.4391 66.3346 40.7935C65.9648 41.0496 65.213 41.1377 64.8053 41.0726C64.7994 41.9775 64.4299 41.3431 64.0574 41.7395C64.1455 41.8332 64.2456 41.9021 64.3572 41.9461C63.9536 42.1404 63.5806 42.3822 63.1896 42.6055C62.7855 42.8365 62.3543 42.8873 62.0888 43.3241C61.8443 43.7267 61.9271 43.519 61.5622 43.6775C61.3948 43.7503 61.2492 43.9722 61.1285 44.1212C60.9212 44.3775 60.8753 44.7654 60.7569 44.2388C60.7223 44.303 60.5863 44.7119 60.5599 44.7223C60.4115 44.5325 60.3902 44.7575 60.3072 44.8379C60.3509 45.0128 60.2885 45.1274 60.1201 45.1817C60.0349 45.2581 59.9486 45.3329 59.8613 45.4062C59.5449 45.6707 59.1422 45.8976 58.9194 46.2917C58.7551 46.1749 58.6942 45.9732 58.7943 45.7674C58.4802 46.1162 58.1056 46.4746 58.0206 47.0115C57.9816 46.9661 57.936 46.9333 57.8844 46.9132C57.7569 47.0169 57.9229 47.3261 58.0038 47.3957C58.3564 47.2306 57.9157 47.2905 58.1526 47.3171C58.2201 47.3246 58.2895 47.3855 58.364 47.3866C58.5824 47.39 58.7876 47.3774 59.0042 47.3372C59.4818 47.2485 59.9512 47.0833 60.4135 46.9176C60.9171 46.7371 61.4207 46.557 61.9132 46.3356C62.3186 46.1534 62.7174 45.9502 63.116 45.7478C63.2752 45.6669 63.4343 45.585 63.5937 45.5047C63.8965 45.3522 64.0562 45.1017 64.0139 45.5308C64.2551 45.4826 64.464 45.0717 64.6492 44.9041C64.9097 44.6684 65.2026 44.4927 65.5113 44.3724C65.6363 44.3236 65.7281 44.2617 65.8574 44.2612C65.9207 44.2611 65.9587 44.4764 65.9986 44.4647C66.2756 44.3838 66.1493 44.1988 66.2738 43.9324C66.5462 43.35 67.2798 43.0279 67.7303 42.6971C68.0162 42.487 68.2192 42.2045 68.4832 41.9718C68.6067 41.8631 68.6964 41.815 68.8258 41.769C68.9249 41.7336 69.0464 42.0079 69.1106 41.7323C68.8802 41.6188 68.6902 41.4788 68.4685 41.3959C68.3117 41.3371 68.4998 41.1361 68.2513 41.2558C68.1515 41.3039 68.1172 41.5367 68.0805 41.6341C67.8029 41.3353 67.0224 41.6449 66.693 41.77C66.6703 41.7786 66.5686 41.7139 66.5207 41.7179C66.3306 41.7332 66.1982 42.0416 66.0731 42.1745C65.7403 42.5278 65.3794 42.6754 64.9697 42.8771C65.0787 42.159 65.8801 41.8649 66.3478 41.5899C67.0315 41.1878 67.668 40.6746 68.4166 40.4583C68.9151 40.3141 69.5758 40.1982 69.7911 40.8968C69.92 41.3156 69.9362 42.356 69.5002 42.5493C69.4541 42.3538 69.6016 42.1867 69.646 42.0171C69.212 42.2168 69.1405 42.8452 68.8108 43.1732C68.6256 43.3574 68.5593 43.4165 68.4697 43.5945C68.3808 43.7713 68.3381 43.9363 68.1296 44.1244C67.7889 43.2521 67.8466 44.4469 67.6738 44.5969C67.7433 44.5366 67.3922 44.7127 67.4341 44.694C67.4179 44.7012 67.2649 44.4026 67.1657 44.4089C66.9852 44.4203 67.0199 44.6599 66.9329 44.7805C66.6381 45.1886 66.2572 45.4562 65.7828 45.392C65.7717 45.6824 65.846 46.0293 65.517 46.0558L65.4739 45.412C65.2948 45.6304 65.0591 45.8377 64.9134 46.0905C64.7476 46.3782 64.7653 46.5553 64.4902 46.747C64.2028 46.9475 63.5912 47.3424 63.2491 47.3765C63.3337 47.2318 63.3187 47.1012 63.2044 46.9848C63.0324 47.1986 62.7784 47.2196 62.5952 47.4127C63.231 47.7329 62.1068 47.7163 61.9642 47.7526C61.8688 47.7769 61.7854 47.8817 61.6887 47.9053C61.5603 47.9368 61.5437 47.7741 61.4332 47.8256C61.2715 47.9011 61.3371 48.1142 61.168 48.2213C61.0465 48.2983 60.8403 48.2972 60.7032 48.3703C60.3765 48.5447 59.6804 48.931 59.4596 48.4625C59.3477 49.2664 58.2048 48.777 57.7817 48.7229C57.2023 48.6488 56.1931 48.321 56.7306 47.3861ZM59.1642 39.1611C59.2461 39.0767 59.3282 39.0829 59.4103 39.1797C59.2961 38.4522 60.18 38.099 60.5656 37.7897C61.0771 37.3795 61.6792 36.5836 62.3486 36.6466C62.2344 36.7485 62.1205 36.8505 62.0065 36.9524C62.1693 36.9778 62.332 37.0033 62.4946 37.0287C62.4029 37.1911 62.311 37.3533 62.2191 37.5156C62.0689 36.5177 61.2851 37.7775 61.0583 37.9611C60.8299 38.1459 60.6021 38.2837 60.3991 38.5091C60.1979 38.7324 60.0164 39.1345 59.6839 38.9336C59.6536 39.5035 59.2735 39.3489 59.0106 39.6645C58.9996 39.4665 59.0937 39.3265 59.1642 39.1611ZM62.6368 36.3162C63.4459 35.951 64.1503 35.2756 64.9127 34.7933C65.6409 34.3324 66.3839 33.9186 67.1242 33.4887C67.4997 33.2705 68.1877 32.7063 68.617 32.9938C69.1962 33.3821 68.3988 33.5073 68.1917 33.6418C68.1151 33.0439 67.8467 33.5855 68.007 33.9182C67.565 33.6881 66.6009 34.5882 66.1793 34.8364C66.0838 34.8926 66.1266 34.9251 66.0181 34.9913C65.9914 35.0075 65.7146 35.0835 65.6354 35.1155C65.2384 35.2756 64.9768 35.1484 64.8058 35.726C64.77 35.5901 64.7341 35.454 64.6983 35.3179C64.4498 35.9905 63.6944 36.2849 63.2113 36.6827C63.0868 36.7852 62.7312 37.183 62.5733 37.1007C62.3535 36.9861 62.4417 36.4042 62.6368 36.3162ZM77.2322 38.3441C77.5738 38.3713 77.2445 38.5634 77.3383 38.6903C77.3277 38.676 77.544 38.8984 77.5157 38.8373C77.5539 38.9194 77.6456 38.9164 77.6925 39.0834C77.854 39.6573 77.1485 40.2504 76.9106 40.5761C76.448 41.2096 76.1806 42.0118 75.6985 42.625C75.4808 42.902 75.2642 43.0933 74.9624 43.1966C74.7512 43.2689 74.5278 43.1915 74.3337 43.4363C74.1773 43.6334 74.2128 43.7455 74.04 43.8503C73.7355 44.0351 73.6014 43.873 73.3052 44.2724C73.0504 43.4372 73.7827 43.4386 74.1648 42.9718C74.6923 42.3275 75.2704 41.6774 75.765 40.9881C76.2044 40.3756 76.3805 39.8387 76.5891 39.0946C76.6548 38.86 76.7264 38.3571 76.9077 38.2098C77.1901 37.9807 77.0206 38.3271 77.2322 38.3441ZM78.912 60.0397C79.8079 58.8319 80.9193 57.7475 82.124 57.02C82.5545 56.7598 83.1675 56.4185 83.6138 56.8189C84.0514 57.2114 83.9572 57.9944 83.7808 58.527C83.6118 58.447 83.7713 57.6984 83.6836 57.5135C83.4923 57.1099 83.0793 57.3242 82.7983 57.4595C82.4692 57.618 82.1755 57.793 81.9149 58.0807C81.8091 58.1972 81.6066 58.3017 81.5389 58.3819C81.4371 58.3309 81.377 58.368 81.3591 58.4931C81.38 58.5698 81.3775 58.6453 81.3515 58.7196C81.3366 58.7432 81.2043 58.6464 81.1854 58.6658C81.0996 58.7543 81.0192 58.8585 80.9348 58.9408C80.7652 59.1061 80.621 59.1843 80.4649 59.4146C80.1635 59.8599 79.7648 60.1208 79.462 60.545C79.3936 60.6409 79.3116 60.8868 79.2963 60.9083C79.1432 61.1236 78.9163 61.294 78.7436 61.5219C78.445 61.9158 78.1263 62.1801 77.7818 62.5178C77.6335 62.6631 77.4604 62.8196 77.3617 63.0217C77.3168 63.1139 77.2915 63.6192 77.2899 63.6213C76.952 64.0676 77.0178 63.1705 77.0432 63.058C77.3176 61.8476 78.2452 60.9389 78.912 60.0397ZM77.0679 68.224C77.11 68.4141 77.1445 68.5712 77.1872 68.7641C76.9193 68.4993 76.9193 68.4993 77.0679 68.224ZM76.7786 68.8465C76.6802 68.9661 76.5812 69.0849 76.4815 69.2029C76.2623 68.9237 76.8188 68.7987 76.7786 68.8465ZM76.6395 64.0404C76.5347 64.5513 76.151 65.1707 75.8873 65.574C75.9164 65.5295 75.6622 65.619 75.6333 65.6393C75.5393 65.7048 75.7643 66.1298 75.4388 65.9398C75.3233 66.0186 75.5507 66.3395 75.3937 66.4831C74.9401 65.2373 76.1787 64.1579 76.6583 63.2332C76.8929 63.4927 76.6984 63.7539 76.6395 64.0404ZM73.693 70.7761C74.0237 70.8786 74.1958 70.8141 74.4191 70.4226C74.5534 70.1874 74.6024 69.7709 74.9094 70.1227L74.9636 69.6703C75.4019 69.8869 75.3651 70.6701 75.5566 71.104C75.6498 70.6131 75.8705 69.2415 76.5463 69.4615C77.305 69.7086 76.0423 71.2812 75.925 71.6664C75.6671 71.184 75.7685 71.6328 75.5718 71.7007C75.403 71.7592 75.1392 71.6094 74.9341 71.623C74.3101 71.6639 73.7619 72.0022 73.1918 72.2887C73.0475 71.8197 72.9033 71.3507 72.7589 70.8816C73.0945 70.9128 73.7884 69.8361 73.887 70.6186C73.6381 70.5665 73.568 70.5797 73.4467 70.8528C73.5242 70.8054 73.6063 70.7798 73.693 70.7761ZM75.0938 76.8979C75.0928 76.8941 75.7393 76.9422 75.797 76.9168C76.2394 76.7221 76.0758 76.1173 76.1663 75.6898C76.3487 75.8919 76.252 76.2607 76.3083 76.5222C76.3742 76.8296 76.5654 77.0915 76.5831 77.4203C76.6234 78.1629 76.1177 77.9981 75.7345 78.2384C75.407 78.4438 75.3707 78.7022 75.0941 78.1487C75.0192 77.9989 74.8583 77.6087 74.8747 77.4171C74.891 77.2273 75.1404 77.0696 75.0938 76.8979ZM75.6148 80.1116L75.436 79.8703C75.9688 80.0668 75.6546 79.7713 75.7771 79.3673C76.186 79.6954 76.5195 80.0327 76.843 79.3757L77.4019 82.0929C77.0265 82.1994 76.5422 81.5003 76.2847 81.2601C76.136 81.1213 75.3107 80.5868 75.8062 80.431C75.7423 80.3245 75.6786 80.2181 75.6148 80.1116ZM79.2633 71.5792C78.9531 71.9349 78.6405 72.1339 78.3027 72.4135C78.0064 72.6589 78.1084 72.9405 77.8515 73.2142C77.681 73.3962 77.2811 73.5814 77.0704 73.7202C76.695 73.9674 76.3588 74.0145 75.9726 73.7378C76.0777 74.7575 75.4983 74.8373 74.7771 75.0393C74.4331 75.1357 74.2295 75.2829 73.9816 74.9032C73.8118 74.6433 73.7453 74.1728 73.9565 73.9351C74.292 73.5574 75.1858 73.6877 75.6162 73.4501C75.9428 73.27 76.2756 72.2548 76.6785 72.6243C76.4706 72.2251 76.7127 72.1176 76.8935 71.8329C77.0915 71.5209 77.2131 71.1561 77.418 70.8466C77.8073 70.2584 78.4049 69.6666 78.9577 69.3119C79.4441 68.9999 79.6995 69.2208 79.7724 69.8761C79.809 70.2056 79.8077 70.6964 79.6546 70.9887C79.6058 71.0819 79.4447 71.083 79.396 71.1705C79.311 71.3234 79.389 71.4352 79.2633 71.5792ZM84.9715 63.6707C85.3597 64.0328 85.3219 64.7937 85.383 65.3119C85.4692 66.0422 85.4067 66.749 85.3975 67.4929C85.3877 68.2723 85.0705 68.7799 84.9211 69.5104C84.7552 70.323 84.541 70.7534 84.1687 71.4353C84.5724 71.5119 83.9716 72.965 83.8725 73.1532C83.765 73.3574 82.8978 74.2984 83.2696 74.2984C83.0644 74.6244 82.8411 74.959 82.6368 75.276C82.5563 75.4008 82.4152 75.4498 82.3518 75.5379C82.2227 75.717 82.2148 75.8767 82.1224 76.0857C81.982 76.4028 81.9359 76.3182 81.7513 76.5482C81.624 76.7072 81.5404 76.917 81.4152 77.0693C81.012 77.5599 80.9606 77.158 80.7352 76.7801C80.7006 76.8813 80.6392 76.9448 80.551 76.9705C80.4804 76.5428 80.9665 76.1108 81.1708 75.851C81.5056 75.4251 81.8115 74.956 82.1074 74.4903C82.7412 73.4924 83.3107 72.4323 83.7601 71.2967C84.2382 70.0881 84.6201 68.7802 84.8185 67.4618C84.9697 66.4568 85.1134 64.733 83.9993 64.4773C83.189 64.2915 82.2957 64.8848 81.6277 65.3653C81.2206 65.6579 80.8113 65.9489 80.4235 66.278C80.0026 66.635 79.6388 67.1403 79.1819 67.4267C79.4318 67.27 78.6072 67.7416 78.7335 67.609C78.6743 67.6709 78.7254 67.8602 78.6863 67.9456C78.6354 68.0568 78.4585 68.1665 78.3792 68.2384C78.1696 68.4282 77.8347 68.6223 77.7394 68.9357C76.4099 67.7926 79.0537 65.7632 79.7314 65.2463C81.0758 64.2212 83.4149 62.2183 84.9715 63.6707ZM88.5577 52.5533C88.545 51.7302 89.1011 50.6065 89.4768 49.9352C89.6606 49.6066 89.9541 49.6197 90.0618 49.2322C90.1239 49.0091 90.0425 48.7751 90.0609 48.551C90.0859 48.248 90.1949 48.005 90.3207 47.7446C91.4576 45.3902 92.839 43.3064 94.3103 41.2523C95.0358 40.2397 95.7236 39.1882 96.506 38.2369C96.8328 37.8396 97.7113 36.4114 98.2138 36.5543C98.4799 36.6299 98.6348 37.1193 98.7549 37.3691C98.9535 37.7822 99.172 38.1691 99.4134 38.5489C100.051 39.5518 100.786 40.432 101.653 41.1428C102.195 41.587 102.743 42.0188 103.273 42.4842C103.709 42.8671 104.369 43.305 104.68 43.8428C104.992 44.3806 104.534 44.8361 104.284 45.2827C103.896 45.9773 103.538 46.697 103.148 47.3908C102.993 47.2563 103.033 46.9833 102.926 46.8111C102.832 46.6585 102.699 46.5964 102.568 46.5021C102.319 46.3218 102.074 46.1013 101.848 46.4034C101.454 46.9321 101.996 48.1819 102.581 48.0447C102.65 48.5665 101.482 49.4259 101.189 49.7131C100.291 50.594 99.3645 51.3598 98.1779 51.4395C97.6977 51.4717 97.198 51.4278 96.7418 51.2341C96.5232 51.1413 96.2815 51.014 96.114 50.8117C95.9134 50.5696 95.8622 50.2093 95.6676 49.9696C95.4988 49.7617 95.267 49.7297 95.0983 49.5209C94.9294 49.3121 94.8459 48.9822 94.7774 48.7116C94.6434 48.1831 94.6181 47.6257 94.4893 47.0959C94.4119 46.7773 94.3482 46.3513 94.0956 46.6574C93.7287 47.1022 93.9129 48.5008 94.0069 49.0337C94.1412 49.794 94.4563 50.4069 94.7863 51.061C95.1441 51.7706 95.2762 52.4288 95.3403 53.2498C95.4603 54.7868 95.8263 56.2616 96.3957 57.6445C96.6353 58.2267 96.9224 58.7742 97.1812 59.343C97.3021 59.6085 97.5729 60.514 97.9017 60.5092C98.4269 60.5014 97.6787 58.6552 97.5749 58.3453C96.9995 56.6288 96.45 54.8247 96.3267 52.9661C97.1515 53.2222 98.0505 53.4652 98.9046 53.3029C98.3533 54.7889 98.9292 56.2684 98.8587 57.798C98.8235 58.565 98.7981 59.2727 98.8112 60.0375C98.8228 60.7081 98.5715 61.3785 98.3543 61.9849C97.9229 63.1892 97.3798 64.6749 96.5786 65.5974C95.9087 66.3687 95.0127 66.429 94.1375 66.2514C92.1466 65.8472 90.8384 64.0026 90.0029 61.9076C89.4661 60.5618 89.0557 59.1252 88.801 57.6635C88.506 55.972 88.5839 54.2691 88.5577 52.5533ZM91.1432 41.1535C89.2853 39.5333 91.9851 37.6933 93.3594 37.9438C93.6818 38.0025 94.2749 38.1631 94.2447 38.6701C94.22 39.0846 93.6464 39.5465 93.4262 39.8023C92.7983 40.5322 92.1593 42.0394 91.1432 41.1535ZM104.659 77.155C104.595 77.0861 104.075 77.2551 104.281 76.8843C104.453 76.5762 104.927 76.9624 105.1 77.0416C104.957 77.16 104.834 77.3433 104.659 77.155ZM96.9228 96.7513C96.7631 96.775 96.5962 96.2559 97.1718 96.6437C97.0889 96.6795 97.0058 96.7155 96.9228 96.7513ZM96.9063 105.211C96.9262 105.444 96.9852 105.597 96.8481 105.766C96.7322 105.594 96.7172 105.351 96.9063 105.211ZM97.14 108.707C97.123 108.833 97.1061 108.96 97.0894 109.087C96.9564 109.005 96.8236 108.924 96.6906 108.843C96.8403 108.798 96.9903 108.752 97.14 108.707ZM97.3027 105.759C97.5008 105.849 97.4086 105.563 97.5525 105.523C97.604 105.82 97.5405 106.075 97.3989 106.32C97.3854 106.262 97.3128 105.764 97.3027 105.759ZM102.366 84.6659C102.088 84.6232 102.046 84.9772 101.839 85.1145C101.705 85.2032 101.298 85.1366 101.222 85.3063C101.322 85.3412 101.423 85.3763 101.523 85.4111C101.293 85.5603 101.063 85.7096 100.834 85.8588C101.386 85.8588 101.962 85.5408 102.511 85.6341C102.743 85.6737 102.913 85.7681 103.058 85.9955C103.146 86.1335 103.224 86.3556 103.238 86.5246C103.254 86.7075 103.135 86.8338 103.156 86.921C103.404 86.9291 103.374 87.418 103.319 87.6172C103.198 88.0493 102.72 88.7258 102.292 88.4518C102.471 88.7584 102.425 88.9334 102.16 89.1113C102.184 89.01 102.202 88.8327 102.066 88.8503C102.032 89.0202 102.045 89.2897 101.93 89.4178C101.801 89.5611 101.686 89.3936 101.563 89.4868C101.417 89.5975 101.46 89.7712 101.346 89.8912C101.194 90.0497 101.172 89.937 100.99 89.9678C100.715 90.0148 100.891 89.8088 100.67 90.0773C100.594 90.17 100.607 90.411 100.483 90.5466C100.246 90.8069 99.613 91.0782 99.3857 90.7444C98.8391 91.7884 97.2009 92.0389 96.4384 91.2147C95.2222 89.9003 97.4898 87.2272 98.2385 86.38C98.99 85.5298 99.8246 84.7954 100.669 84.0865C101.149 83.6838 101.641 83.3183 102.144 82.9595C102.454 82.738 102.844 82.3336 103.225 82.3724C103.567 82.4073 103.859 82.727 104.219 82.7903C104.479 82.836 104.985 82.9115 104.656 83.3371C104.503 83.5359 103.9 83.8574 103.694 83.9058C103.574 83.9342 103.447 83.8798 103.327 83.9092C103.125 83.9593 102.986 84.1652 102.765 84.139C102.835 84.5328 102.708 84.7182 102.366 84.6659ZM105.965 70.0453C105.965 70.3534 105.499 70.2766 105.401 70.1719C105.241 69.9997 105.235 69.4849 105.176 69.2507C105.447 69.333 105.965 69.634 105.965 70.0453ZM102.206 59.8805C103.187 58.9095 104.217 58.0193 105.307 57.2353C105.697 56.9545 106.247 56.3882 106.732 56.4589C106.935 56.4887 107.355 56.77 107.202 57.0803C107.174 57.1383 106.948 57.1616 106.878 57.2037C106.799 57.2514 106.736 57.3828 106.663 57.4478C106.154 57.8978 105.542 58.1744 105.032 58.6352C104.612 59.0137 104.221 59.4372 103.769 59.762C103.335 60.0734 102.883 60.2705 102.471 60.6155C102.479 60.6086 101.936 60.8441 102.042 60.8869C101.565 60.6946 102.069 60.0166 102.206 59.8805ZM108.741 59.5188C109.323 59.2391 109.893 58.8998 110.503 58.7118C110.807 58.618 111.119 58.5474 111.434 58.5897C111.488 58.4768 111.559 58.4518 111.648 58.5148C111.717 58.6435 111.809 58.7423 111.923 58.8113C112.096 58.9722 112.736 59.1826 112.608 59.5379C112.524 59.773 111.882 59.7925 111.707 59.8453C111.176 60.0045 110.682 60.3627 110.135 60.4507C110.084 60.459 109.917 60.3841 109.915 60.3845C109.701 60.4406 109.524 60.7072 109.341 60.835C108.947 61.1101 108.38 61.1562 108.097 61.6309C109.014 62.3799 109.809 61.6371 110.615 61.0716C111.098 60.7329 111.616 60.4886 112.144 60.2714C112.42 60.1581 112.698 60.0402 112.977 59.9406C113.093 59.8898 113.212 59.8533 113.334 59.8309C113.447 59.8036 113.529 59.8534 113.578 59.9803C113.916 59.9668 113.944 59.7113 114.148 60.1878C114.435 60.8597 113.996 60.8256 113.584 60.9081C113.012 61.0224 112.431 61.2798 111.867 61.4505C111.737 61.4899 110.598 61.8082 110.597 61.8195C110.545 62.2529 113.815 61.8515 114.095 61.7866C114.591 61.6717 115.122 61.3455 115.635 61.4242C116.028 61.4845 116.925 62.1807 116.297 62.6432C116.174 61.9299 115.749 62.519 115.528 62.7598C115.233 63.0802 114.81 63.0494 114.405 63.175C113.851 63.3464 112.434 63.9897 112.04 63.1695C112.165 63.8883 109.905 63.5231 109.595 63.4993C109.292 63.476 108.901 63.5536 108.608 63.4495C108.417 63.3817 108.311 63.2321 108.132 63.1984C108.088 63.2556 108.035 63.2945 107.973 63.3151C107.882 63.2596 107.8 63.1889 107.727 63.1034C107.122 62.7682 106.185 62.583 106.522 61.5152C106.839 60.5081 107.972 59.8884 108.741 59.5188ZM114.413 60.1412C114.428 60.0785 114.443 60.0158 114.458 59.953C114.46 60.1453 114.84 60.2274 114.796 60.4765C114.699 61.0283 114.26 60.1993 114.222 60.1089C114.286 60.1197 114.349 60.1304 114.413 60.1412ZM116.736 61.0579C116.78 61.2839 117.286 61.7651 117.161 61.8761C116.961 61.5491 116.41 61.6976 116.736 61.0579ZM108.2 81.6798C108.385 81.237 108.946 81.9911 108.886 81.235C109.191 81.2683 109.001 81.5475 109.366 81.4248C109.502 81.3788 109.595 81.1961 109.762 81.154C109.806 81.1427 109.998 81.161 110.064 81.1586C110.284 81.1505 111.144 81.121 110.552 80.7741C110.883 80.5101 110.924 80.6441 111.223 80.886C111.146 80.3859 111.586 80.6698 111.791 80.7322C111.645 80.4469 112.008 80.1435 112.125 79.9507C112.083 80.2477 112.105 80.5802 112.462 80.3902C112.551 80.343 112.531 80.1331 112.601 80.0988C112.73 80.0361 112.802 80.1502 112.849 80.1438C112.894 80.1376 112.99 80.1684 113.086 80.125C113.21 80.0686 113.15 79.8674 113.308 79.8375C113.411 79.8181 113.486 80 113.611 80.0015C113.675 80.0023 113.783 79.9235 113.832 79.9277C113.84 79.9284 113.902 79.7504 113.977 79.746C114.087 79.7396 114.132 80.0949 114.172 80.1639C114.364 80.4932 114.621 80.708 114.916 80.8836C114.382 81.4743 113.303 81.4117 112.631 81.6108C112.267 81.7188 111.957 81.8744 111.624 82.075C111.543 82.138 111.474 82.2153 111.416 82.3069C111.369 82.2691 111.322 82.2314 111.274 82.1936C111.092 82.2072 110.919 82.0983 110.714 82.1401C110.079 82.2691 109.582 82.8422 108.937 82.9699C108.647 83.0273 108.409 83.1075 108.22 82.8046C108.055 82.539 108.082 81.9622 108.2 81.6798ZM107.33 78.1502C107.474 78.2968 107.301 78.774 107.579 78.7222C107.777 78.6853 107.737 78.3159 107.893 78.2375C108.097 78.1348 108.22 78.3786 108.411 78.356C108.768 78.3136 108.748 77.9377 108.446 77.7726C108.76 77.6727 108.86 78.1199 109.138 78.1159C109.503 78.1106 109.416 77.5917 109.727 77.5057C109.861 77.4684 109.816 77.7064 109.903 77.736C110.078 77.7951 110.2 77.6936 110.354 77.6043C110.492 77.5245 110.591 77.3702 110.742 77.3178C110.811 77.2939 110.985 77.3377 111.036 77.2933C111.137 77.204 111.229 76.8561 111.329 76.81C111.308 76.8194 111.636 77.0176 111.683 77.0362C111.654 77.1831 111.588 77.2006 111.483 77.0887C111.483 77.4203 112.247 77.5236 112.091 77.1138C112.504 77.3201 112.196 77.4263 112.155 77.7142C112.138 77.83 112.083 77.8269 112.099 77.9493C112.107 78.0056 112.323 77.9571 112.321 78.0339C112.302 78.5288 110.994 78.681 110.746 78.7246C110.233 78.8149 109.747 78.967 109.252 79.1542C108.884 79.2936 108.249 79.6928 107.857 79.668C107.293 79.6324 107.219 78.7458 107.33 78.1502ZM106.07 73.1004C105.933 72.5499 106.374 71.4128 106.948 71.5549C107.089 71.5898 107.124 71.7308 107.234 71.7934C107.387 71.8809 107.636 71.8349 107.768 71.9252C108.065 72.1281 107.916 72.6449 108.214 72.8317C107.743 72.9691 106.289 73.9754 106.07 73.1004ZM106.615 75.2393C106.817 75.108 107.146 75.0911 107.284 74.8387C107.353 74.8961 107.483 75.2448 107.606 75.1914C107.664 75.1666 107.723 74.9776 107.719 74.9778C107.829 74.974 107.851 74.7946 108.019 74.8148C108.173 74.8334 108.346 75.0569 108.483 75.1402C108.46 74.5862 108.577 74.5333 108.95 74.2367C109.032 74.1718 109.1 73.9279 109.175 73.8292C109.103 74.4106 109.285 74.4137 109.67 74.5011C110.153 74.6106 110.454 74.923 110.647 75.4853C110.236 75.3886 109.705 75.505 109.543 76.038C109.215 75.3149 108.021 76.3128 107.635 76.5171C107.348 76.6688 107.015 76.8728 106.775 76.5192C106.606 76.2702 106.703 75.9707 106.706 75.7495C106.707 75.68 106.767 75.6759 106.761 75.5725C106.754 75.4405 106.612 75.3877 106.615 75.2393ZM111.007 86.6105C110.899 86.6601 110.339 86.6879 110.336 86.4646C110.333 86.2674 111.323 86.4661 111.007 86.6105ZM110.099 85.8881C109.676 86.2025 109.202 85.0946 109.047 84.7755C109.491 84.8439 109.707 84.3964 109.969 84.0563C110.218 84.7133 110.595 84.3661 110.993 84.1467C111.461 83.8879 111.975 83.8859 112.455 83.6783C112.605 83.6135 112.743 83.5171 112.889 83.4429C113.007 83.3898 113.124 83.3354 113.241 83.2796C113.324 83.1894 113.354 83.0783 113.33 82.9466C113.29 82.8359 113.317 82.766 113.41 82.7371C113.521 82.7768 113.633 82.7999 113.749 82.8061C113.934 82.7619 114.199 82.5515 113.976 82.3248C114.215 82.0628 114.455 82.3233 114.686 82.438C114.631 82.2499 114.576 82.0618 114.521 81.8737C114.636 81.9322 114.975 82.5036 115.01 82.5004C115.229 82.4806 115.206 82.1258 115.332 81.9827C115.405 82.0908 115.426 82.8969 115.712 82.6254C115.834 82.5093 115.571 82.1138 115.506 82.0237C115.833 82.1127 116.119 82.5834 116.207 82.9488C116.052 82.9759 115.908 82.9383 115.776 82.8357C115.692 83.3446 116.473 83.1384 116.6 83.4043C116.848 83.9247 115.236 84.2862 115.026 84.3345C114.606 84.431 114.11 84.467 113.725 84.6915C113.356 84.9063 113.268 84.9678 112.837 85.0081C112.345 85.0542 111.865 85.2496 111.389 85.4018C110.975 85.5338 110.465 85.6159 110.099 85.8881ZM119.094 67.2585C119.483 67.0899 120.792 66.2152 121.125 66.6042C121.09 66.563 121.365 67.249 121.363 67.2058C121.386 67.5627 121.379 67.7063 121.015 67.8772C120.754 67.9996 120.526 67.7395 120.291 67.8428C120.034 67.9563 120.214 68.1572 120.081 68.2975C119.936 68.4513 119.655 68.5178 119.474 68.5852C119.031 68.7501 118.584 68.888 118.143 69.0658C117.246 69.4274 116.296 69.7639 115.373 70.0197C114.684 70.2108 113.515 70.6859 112.88 70.1248C112.818 70.4438 112.666 70.4002 112.456 70.4466C112.291 70.483 111.992 70.5815 111.845 70.5866C111.601 70.5952 110.923 70.5181 111.016 70.1053C110.99 70.219 111.544 69.8298 111.448 69.8056C111.683 69.8653 111.607 69.7226 111.8 69.6432C112.051 69.5396 112.314 69.5451 112.571 69.4354C113.219 69.1587 113.762 68.7996 114.446 68.6262C116.007 68.2303 117.588 67.9118 119.094 67.2585ZM56.5019 109.903C56.3754 109.907 56.277 109.473 56.6618 109.783C56.6086 109.823 56.5553 109.863 56.5019 109.903ZM53.4615 109.342C53.2894 109.395 53.2208 109.279 53.2559 108.995C53.4958 108.881 53.5643 108.996 53.4615 109.342ZM51.1142 108.762C51.0702 108.508 51.2261 108.451 51.3675 108.337C51.3533 108.673 51.3533 108.673 51.1142 108.762ZM45.2083 106.675C44.9703 106.612 44.6533 106.332 44.5988 106.803C44.559 106.694 44.3559 106.181 44.4431 106.062C44.4886 106 44.6611 106.288 44.6427 106.259C44.8509 105.751 45.2099 106.364 45.4105 106.545C45.3431 106.589 45.2756 106.632 45.2083 106.675ZM107.067 50.5725C107.149 50.3632 107.246 50.2967 107.357 50.3732C107.182 50.8628 106.59 51.1283 107.067 50.5725ZM111.183 45.9765C111.329 46.3081 111.109 46.4482 110.951 46.7239C111.043 46.4266 111.107 46.2206 111.183 45.9765ZM129.071 78.3431C129.6 78.3429 130.727 78.0062 131.047 78.7354C131.258 78.2399 131.498 79.1691 131.681 79.3181C131.702 79.3349 131.834 79.2133 131.895 79.2581C131.988 79.3256 132.068 79.5095 132.121 79.6188C132.28 79.9484 132.349 80.3403 132.438 80.703C131.513 80.703 130.566 80.4436 129.642 80.3493C129.036 80.2874 128.441 80.2856 127.834 80.325C127.714 80.3328 127.474 80.2848 127.371 80.3122C127.266 80.34 127.076 80.5973 126.961 80.556C127.14 80.9621 129.439 81.9454 129.615 81.4956C129.407 81.344 128.945 81.2277 128.946 80.8614C128.946 80.451 129.379 80.4517 129.608 80.4638C130.11 80.4902 130.949 80.6914 131.155 81.32C131.243 81.5895 131.27 82.2679 131.173 82.5281C131.111 82.696 131.005 82.898 130.837 82.9321C130.769 82.9461 130.67 82.8359 130.659 82.8386C130.315 82.9266 129.678 83.2596 129.303 82.79C129.032 83.2121 127.729 82.7511 127.33 82.5918C126.632 82.3133 125.671 81.9309 125.247 81.146C124.73 80.1893 125.781 79.3808 126.384 78.9919C127.208 78.4605 128.15 78.3435 129.071 78.3431ZM132.593 80.555C132.755 80.6102 132.918 80.6656 133.08 80.7208C133.036 81.0636 132.396 80.7923 132.593 80.555ZM137.497 93.0174C137.547 91.6437 137.218 90.434 137.027 89.1055C136.98 88.7762 137.028 88.2004 136.821 87.9296C136.623 87.6706 136.18 87.8811 136.162 87.4234C135.967 87.699 135.987 87.7566 135.746 87.4397C135.79 87.5756 135.797 87.7138 135.765 87.8545C135.616 87.7514 135.075 87.4088 135.12 87.8772C134.675 87.7586 134.804 87.4231 134.55 87.167C134.514 87.1306 134.369 87.2598 134.313 87.2048C134.211 87.1051 134.16 87.0146 134.074 86.8861C133.965 87.0455 133.816 87.1607 133.682 87.2867C133.604 87.0827 133.453 86.9329 133.271 86.8833C133.441 87.3121 133.862 87.8676 133.285 88.1117C132.941 88.2572 132.377 88.0787 132.012 88.1127C130.661 88.239 129.181 87.884 127.875 87.496C126.533 87.0976 125.176 86.535 123.969 85.7128C123.712 85.5375 123.549 85.3299 123.328 85.1125C123.113 84.9011 122.956 84.8677 122.697 84.7325C122.231 84.4892 121.805 84.099 121.45 83.6641C120.688 82.729 119.98 81.506 120.192 80.1369C120.404 78.7722 121.182 77.7058 122.015 76.8072C122.999 75.7459 124.109 74.8597 125.288 74.1453C125.815 73.8261 127.162 72.6264 127.683 73.3283C128.016 73.7768 127.829 74.3489 127.374 74.4486C127.262 74.4733 127.145 74.3826 127.031 74.4447C126.868 74.5343 126.925 74.6402 126.858 74.7149C126.741 74.8447 126.616 75.0471 126.441 75.1596C125.83 75.5522 125.24 75.8633 124.656 76.3415C124.386 76.5618 124.127 76.6565 123.89 76.8488C123.654 77.04 123.6 77.3563 123.283 77.1612C123.396 77.7175 122.717 78.3133 122.451 78.6542C122.039 79.182 121.545 79.8557 121.737 80.6365C122.114 82.1652 123.814 83.3262 124.903 83.9983C126.261 84.8367 127.759 85.5042 129.271 85.7805C130.023 85.9177 130.8 86.0026 131.557 86.0896C132.147 86.1574 133.052 85.9092 133.476 86.5493C133.489 85.8029 135.423 85.8687 135.835 85.7732C135.01 82.3726 133.389 79.3491 131.656 76.5242C130.806 75.1375 129.971 73.7113 129.002 72.4401C127.94 71.0484 126.728 69.8047 125.576 68.5241C123.317 66.0125 120.761 63.7709 118.161 61.7962C115.567 59.8262 112.88 57.8873 110.038 56.4827C106.792 54.8785 103.374 53.8234 99.9526 52.9247C100.417 52.212 101.172 51.8643 101.766 51.3428C101.974 51.1603 102.255 50.7221 102.525 50.6623C102.818 50.5973 103.049 50.9768 103.257 51.1674C103.855 51.7141 104.268 51.4819 104.953 51.449C105.363 51.4293 106.334 51.7043 106.507 51.0362C106.736 51.4049 106.403 51.7006 106.233 51.9709C106.357 52.1797 106.457 51.9631 106.579 51.9305C106.617 51.8927 106.655 51.8548 106.693 51.8171C106.754 51.7109 106.809 51.7103 106.857 51.815C106.93 51.9476 107.004 51.9183 107.078 51.7269C107.098 51.7115 107.119 51.6961 107.139 51.6807C107.228 51.6239 107.313 51.534 107.395 51.4631C108.018 50.9271 108.573 50.4704 109.26 50.0755C109.837 49.7441 109.526 49.11 109.907 48.6622C109.993 48.5608 110.138 48.6116 110.23 48.5258C110.32 48.4414 110.333 48.3458 110.399 48.2554C110.557 48.0381 110.369 47.7859 110.772 48.052L110.627 47.0654C111.417 47.9899 111.414 45.3295 111.522 44.9358C111.508 44.9878 111.593 44.585 111.593 44.5884C111.616 43.7901 111.707 43.2115 110.931 43.1652C111.225 42.9425 111.315 43.3774 111.45 42.9271C111.518 42.7016 111.306 42.3139 111.644 42.4593C111.715 41.98 111.645 41.592 111.556 41.1261C111.465 40.6493 111.519 40.3311 111.523 39.8543C111.528 39.3134 111.317 38.7698 111.25 38.2372C111.198 37.8201 111.252 37.1622 110.804 37.3154C110.742 37.1968 110.963 36.8318 110.954 36.6514C110.94 36.3711 110.687 36.0863 110.616 35.8171C110.511 35.948 110.362 35.9916 110.219 35.9325C110.354 35.5668 110.227 35.4439 110.099 35.1286C110.025 34.948 110.07 34.7486 109.912 34.6192C109.821 34.5449 109.667 34.67 109.596 34.5829C109.444 34.3965 109.5 34.1491 109.396 33.9034C109.265 33.5953 108.965 33.36 108.759 33.1287C107.598 31.8287 106.338 30.8352 104.795 30.3273C103.237 29.8148 101.422 29.6312 99.8702 30.2223C99.2498 30.4586 98.6992 30.4343 98.1408 30.8755C97.9598 31.0187 97.9404 30.9803 97.8484 31.219C97.8272 31.2746 98.0199 31.4227 97.9019 31.5137C97.7737 31.6125 97.6321 31.4116 97.5667 31.2448C96.759 31.9495 96.0022 32.8889 95.5422 33.966C95.0851 35.0363 95.0431 36.2937 94.8686 37.4568C94.0635 36.3482 92.9746 35.8168 91.7907 36.3497C90.7588 36.8141 89.9593 37.8348 89.7574 39.1572C89.6343 39.9633 89.7687 40.7797 90.0725 41.507C90.2039 41.8213 90.363 42.1693 90.6045 42.3808C90.7955 42.5481 91.1227 42.5246 91.2126 42.8262C91.3505 43.2883 90.5542 44.2864 90.3475 44.6909C89.9736 45.4229 89.6261 46.1788 89.3616 46.9783C88.4133 45.3638 87.5056 43.6004 86.4273 42.1117C85.4096 40.7066 84.1964 39.4465 83.0066 38.2589C80.537 35.794 77.9692 33.4783 75.2067 31.5146C72.6345 29.6861 69.5275 28.6709 66.5297 29.0299C63.6007 29.3807 61.3582 31.6134 59.4712 34.1885C55.8429 39.1397 53.6207 46.1968 53.4036 52.7878C53.3383 54.7677 53.4635 56.7218 53.8692 58.6422C54.0624 59.5566 54.0344 60.4559 54.1467 61.3821C54.2734 62.4269 54.4926 63.4679 54.7046 64.4913C55.512 68.39 56.5408 72.2857 57.6952 76.0552C58.2955 78.0154 59.0217 79.9318 60.0042 81.6603C60.458 82.4588 61.0458 83.0834 61.5341 83.8416C62.0079 84.5769 62.133 85.4794 62.2372 86.3816C62.4869 88.545 62.6526 90.7176 62.8028 92.8936C62.8666 93.8159 62.9411 94.73 63.0424 95.6457C63.1307 96.4442 62.9085 96.4049 62.3512 96.6761C62.4642 95.9586 59.8016 96.4468 59.5502 96.4958C59.2766 96.549 58.9869 96.5498 58.7714 96.5922C58.5305 96.6394 58.2947 96.7078 58.0173 96.6982C57.6094 96.684 56.8457 96.5585 56.69 97.186C56.5829 96.4585 55.875 97.2539 56.3987 97.1189C55.8611 97.1914 55.3126 97.0708 54.7685 97.1318C54.1449 97.2016 53.516 97.2681 52.8968 97.3812C52.4657 97.4598 52.0544 97.66 51.6226 97.718C51.07 97.7924 50.4934 97.7855 49.9355 97.8448C47.8775 98.0636 45.7445 98.6046 43.7441 99.2241C43.2909 99.3644 42.7703 99.4641 42.3374 99.6894C42.2215 99.7495 42.1172 99.8842 42.0061 99.936C41.82 100.023 41.8454 99.9627 41.6801 100.002C40.6897 100.241 39.6679 100.631 38.6775 100.937C38.1282 101.106 37.2346 101.26 36.7866 101.722C36.5857 101.929 36.4102 102.296 36.732 102.531C36.9892 102.719 37.3562 102.419 37.5643 102.257C37.3789 102.839 37.0292 103.129 37.2181 103.792C37.3671 104.315 37.7037 104.961 38.2216 104.623C38.291 104.817 38.3191 105.204 38.5233 105.276C38.7068 105.34 38.8397 105.059 39.0195 105.125C39.0839 105.149 39.0594 105.296 39.117 105.334C39.2164 105.4 39.317 105.428 39.4308 105.474C39.5286 105.514 39.6861 105.596 39.7881 105.605C39.8529 105.611 40.0055 105.477 40.005 105.477C40.1537 105.504 40.2337 105.847 40.3407 105.946C40.4797 106.075 40.5945 106.105 40.7685 106.151C41.1303 106.248 41.5967 106.414 41.8355 105.968C41.7808 106.286 42.1405 106.255 42.2992 106.295C42.2816 106.128 42.2046 105.974 42.0859 105.882C42.4407 105.91 42.2968 106.335 42.5591 106.447C42.746 106.527 42.7248 106.324 42.8677 106.301C43.0561 106.272 43.1991 106.437 43.4933 106.285C43.557 106.626 43.5804 106.97 43.9283 107.021C44.1326 107.051 44.6088 106.607 44.5818 106.977C45.0381 106.816 45.2113 106.925 45.4497 107.409C45.49 107.112 45.685 107.198 45.8639 107.18C46.1475 107.15 46.1547 107.178 46.3745 106.984C46.3946 106.967 46.5675 106.489 46.6444 106.786C46.6789 106.919 46.4505 107.232 46.3659 107.311C46.471 107.375 46.8152 107.6 46.9476 107.558C47.0621 107.523 47.0625 107.287 47.2001 107.275C47.1664 107.41 47.1328 107.546 47.099 107.682C47.3668 107.729 47.5905 107.513 47.8019 107.355C48.0035 107.969 48.5798 107.623 48.8932 108.085C49.059 108.33 49.0668 108.516 49.3826 108.58C49.7059 108.645 49.9882 108.474 50.263 108.795C50.1759 108.596 49.9589 108.431 50.1745 108.216C50.3212 108.467 50.397 108.77 50.5661 109.003C50.5895 108.884 50.6128 108.766 50.6361 108.647C51.0772 109.215 51.6323 109.22 52.1973 109.536V109.119C52.6017 109.863 52.6233 109.393 53.1065 109.089C53.0737 109.308 53.0408 109.526 53.008 109.745C53.3557 109.713 53.6805 110.21 53.966 109.788C54.1384 110.137 54.3474 109.965 54.63 110.076C54.7907 110.139 54.9103 110.329 55.0666 110.399C55.3011 110.502 55.3711 110.497 55.5918 110.587C55.788 110.667 55.8996 110.823 56.1452 110.873C56.3048 110.905 56.4495 110.903 56.6022 110.894C56.6612 110.891 56.6418 110.731 56.7729 110.768C56.9756 110.826 57.1266 111.132 57.2725 111.289C57.4921 110.624 58.107 111.515 58.4041 111.634C58.4326 111.463 58.4275 111.258 58.5299 111.118C58.6502 111.435 58.6961 111.702 58.9457 111.907C59.0898 112.025 59.3014 112.109 59.4678 112.152C59.573 112.18 59.7642 112.147 59.8303 112.186C59.9431 112.253 59.9846 112.431 60.0985 112.447C60.1655 112.457 60.2648 112.245 60.315 112.261C60.5445 112.337 60.672 112.673 60.9039 112.855C61.5937 113.395 62.4617 113.448 63.2303 113.567C63.4232 113.596 63.4511 113.533 63.6078 113.669C63.6914 113.742 63.6535 113.964 63.7563 114.026C64.1437 114.26 64.1439 113.761 64.2251 113.45C64.3533 113.654 64.3753 113.923 64.5506 114.085C64.6463 114.082 64.7421 114.084 64.8377 114.093C64.8916 114.167 64.927 114.253 64.9435 114.35C65.1756 114.539 65.4384 114.473 65.6781 114.615C65.7567 114.661 65.8959 114.942 65.9927 115.023C66.166 115.168 66.434 115.245 66.632 115.308C67.0472 115.439 67.6426 115.264 67.8896 115.787C68.2176 115.363 68.0907 115.869 68.3134 115.975C68.4449 116.038 68.6427 115.789 68.7885 115.814C69.0511 115.858 69.1457 116.201 69.2298 116.45C69.3897 116.407 69.2799 115.862 69.2755 115.742C69.4742 115.714 69.5184 116.345 69.5527 116.483C69.8665 116.301 69.3514 115.734 69.6888 115.552C69.6579 116.035 69.9771 116.433 69.407 116.502C69.4857 116.793 71.3247 117.116 71.4524 116.859C71.4807 117.334 71.7452 116.891 71.8428 116.728C71.8538 117.005 71.7755 117.398 72.0333 117.527C72.2085 117.614 72.6035 117.388 72.6722 117.181C72.7507 117.497 72.8822 117.487 73.0456 117.688C73.1579 117.826 73.2319 118.065 73.3497 118.18C73.5664 118.393 73.9695 118.36 74.222 118.313C74.716 118.22 74.6577 118.106 74.8337 118.724C74.8735 118.49 74.9983 117.998 75.2158 118.364C75.3543 118.596 75.0595 119.107 74.9743 119.311C75.1647 119.185 75.3537 119.035 75.5703 118.981C75.5824 119.061 75.5935 119.232 75.5616 119.307C75.568 119.291 75.7991 119.478 75.8848 119.53C75.8642 119.517 75.9526 119.053 75.9501 119.068C76.2549 119.294 76.0434 119.728 76.3134 119.952C76.3831 120.01 76.5468 119.942 76.6311 119.977C76.778 120.039 76.905 120.204 77.0355 120.301C76.9313 120.133 76.9463 119.85 76.9534 119.656C77.0198 119.7 77.0672 119.865 77.1342 119.879C77.1595 119.883 77.4221 119.925 77.4204 119.924C77.6937 120.155 77.6375 120.184 77.4028 120.461C77.4866 120.62 77.8371 120.344 77.9319 120.298C77.9517 120.36 77.9568 120.586 77.9941 120.626C78.0167 120.693 78.0394 120.76 78.0621 120.826C78.1321 120.763 78.2072 120.742 78.2873 120.763C78.338 120.785 78.7334 120.978 78.7602 120.912C78.6737 120.878 78.5952 120.827 78.5251 120.757C78.7533 120.51 78.9034 120.378 79.1136 120.735C79.1401 120.78 79.0491 120.942 79.0761 121C79.1765 121.219 79.3829 121.392 79.523 121.57C79.581 121.325 79.446 120.71 79.7681 120.732C80.0255 120.75 80.2213 121.502 80.1322 121.735C80.2345 121.6 80.8453 121.466 80.9606 121.509C81.2866 121.628 81.1951 121.991 81.5963 121.459C81.8697 121.686 81.6287 121.772 81.678 122.05C81.7502 122.068 81.8186 122.046 81.8833 121.985C81.8349 123.164 82.5564 122.263 83.0249 122.443C83.2088 122.514 83.2558 122.765 83.4532 122.839C83.5576 122.878 83.6738 122.786 83.7753 122.808C83.8567 122.794 83.9375 122.777 84.0179 122.756C84.1197 122.695 84.1675 122.764 84.1612 122.963C84.3249 123.065 84.263 123.105 84.4544 123.125C84.5777 123.138 84.6911 122.983 84.8312 123.009C85.0729 123.055 85.0409 123.279 85.1954 123.396C85.3343 123.501 85.491 123.497 85.6622 123.477C85.7494 123.467 85.9943 123.331 86.0238 123.331C86.2067 123.328 86.1075 123.281 86.3271 123.47C86.498 123.618 86.5697 123.713 86.7796 123.781C87.0203 123.859 87.4472 124.029 87.6091 123.82C87.8278 124.215 87.9991 123.925 88.2878 123.951C88.4355 123.964 88.459 124.034 88.5905 124.061C88.8036 124.106 89.0695 124.067 89.2961 124.155C89.6533 124.293 89.6936 124.363 90.0587 124.382C90.1246 124.351 90.1904 124.319 90.2562 124.288C90.2759 124.421 90.3277 124.529 90.4116 124.613C90.6159 124.664 90.75 124.54 90.9184 124.404C91.0439 124.875 91.4511 124.916 91.7995 124.978C92.3615 125.078 92.899 125.133 93.441 125.356C93.8987 125.544 94.3573 125.755 94.7976 125.995C95.1851 126.207 95.5508 126.524 95.9892 126.375C96.9826 126.038 97.9452 124.809 98.7763 124.104C99.7606 123.268 100.822 122.579 101.851 121.828C105.945 118.836 110.271 116.306 114.309 113.203C116.513 111.509 118.558 109.496 120.925 108.126C120.588 109.804 120.014 111.508 120.118 113.265C120.16 113.973 120.333 114.81 120.788 115.304C121.352 115.915 121.979 115.526 122.518 115.089C123.672 114.154 124.442 112.789 125.306 111.507C126.328 109.991 127.121 108.361 127.871 106.633C128.051 106.937 127.914 107.447 127.917 107.784C127.92 108.215 128.016 108.629 128.182 109.014C128.609 110.005 129.423 110.246 130.158 109.566C131.572 108.259 132.393 105.93 133.151 104.055C133.584 105.024 134.197 106.245 135.235 105.552C136.092 104.981 136.595 103.704 136.857 102.623C137.622 99.4673 137.38 96.2525 137.497 93.0174Z" fill="black"/>
<path fill-rule="evenodd" clip-rule="evenodd" d="M136.198 74.0605C136.101 73.7745 136.058 73.8213 136.237 73.544C136.377 73.7101 136.265 73.8474 136.198 74.0605ZM140.527 91.3702C140.253 90.4289 140.422 89.4067 140.256 88.4411C140.179 87.9981 140.058 87.5684 140.015 87.1174C139.995 86.9172 139.847 86.0164 139.948 85.8746C139.638 85.6484 139.637 85.4811 139.566 85.0376C139.676 84.8964 139.662 84.776 139.524 84.676C139.434 84.5442 139.343 84.4124 139.253 84.2806C139.648 84.5136 139.414 83.9173 139.374 83.5737C139.342 83.3022 139.32 83.0189 139.245 82.7586C139.153 82.4386 138.947 82.2768 139.375 82.2768C139.234 82.0839 139.024 81.8848 138.954 81.6485C138.853 81.3085 139.019 80.8592 138.814 80.5589C138.699 80.3914 138.108 80.3259 138.212 79.9641C138.264 79.7797 138.504 79.9173 138.578 79.7881C138.869 79.2805 138.009 79.0701 137.967 78.8542C137.912 78.5742 138.223 78.5116 138.242 78.2498C138.261 77.9936 137.93 77.5726 137.843 77.3434C137.724 77.3783 137.593 77.6052 137.457 77.4968C137.431 77.4763 137.47 76.5893 137.439 76.4715C137.409 76.3558 137.346 76.0487 137.324 75.9919C137.236 75.7662 136.984 75.6562 136.944 75.3896C136.92 75.2305 137.437 74.9896 136.844 74.9821C137.057 74.5295 136.666 74.2545 136.524 73.8677C136.342 73.3704 136.234 72.8333 136.046 72.3335C135.864 71.8476 135.66 71.3866 135.397 70.957C135.159 70.568 135.056 70.1938 134.866 69.783C134.828 69.7469 134.79 69.7108 134.752 69.6748C134.593 69.7024 134.542 69.6154 134.599 69.4134C134.477 69.1967 134.387 68.9655 134.28 68.7391C134.156 68.4761 133.988 68.2617 133.859 68.0059C133.689 67.6668 133.639 67.2845 133.446 66.9443C133.209 66.5258 132.942 66.1568 132.723 65.7227C132.447 65.1788 132.143 64.8408 131.796 64.4196C131.631 64.219 131.612 63.7179 131.41 63.4331C131.19 63.1229 130.972 63.0389 130.82 62.6317C130.622 62.1019 130.331 61.849 130.047 61.3911C129.813 61.0134 129.699 60.5792 129.442 60.2138C129.22 59.9 128.969 59.6133 128.732 59.3157C128.434 58.9399 128.214 58.4832 127.903 58.1259C127.948 58.1775 127.633 57.8765 127.649 57.8861C127.579 57.8432 127.354 57.8088 127.387 57.8321C126.918 57.4999 126.33 56.2842 125.625 56.9284C125.254 57.2672 125.432 57.8885 125.691 58.2259C125.802 58.3709 126.38 59.0854 126.505 58.7841C126.64 59.0145 127.055 60.1281 127.401 59.809C127.366 60.1896 127.549 60.0633 127.669 60.3206C127.749 60.4904 127.71 60.5737 127.768 60.8386C127.927 61.567 128.535 62.2784 128.859 62.9136C129.665 64.4945 130.554 65.9938 131.36 67.5765C132.129 69.0849 132.99 70.5161 133.727 72.0448C134.566 73.7831 135.611 75.4239 136.243 77.2978C136.264 77.3608 136.44 77.4605 136.483 77.5551C136.559 77.7195 136.543 78.0037 136.592 78.1898C136.761 78.8352 137.036 79.4706 137.349 80.0051C137.624 80.4741 137.644 81.1116 137.833 81.6618C138.1 82.4372 138.381 83.2046 138.64 83.984C139.043 85.197 139.317 86.3597 139.595 87.6261C139.776 88.4468 139.919 89.2671 139.977 90.1146C140.03 90.894 140.043 91.7058 140.282 92.4437C140.445 92.14 140.637 91.7464 140.527 91.3702Z" fill="black"/>
<path fill-rule="evenodd" clip-rule="evenodd" d="M48.3118 108.071C48.0221 108 47.7495 107.906 47.6881 107.505C47.6461 107.694 47.6042 107.883 47.5621 108.072C47.9148 108.168 48.2677 108.265 48.6204 108.361C48.538 108.186 48.4779 108.111 48.3118 108.071Z" fill="black"/>
<path fill-rule="evenodd" clip-rule="evenodd" d="M49.089 42.2769C49.111 42.1639 49.1394 42.053 49.1745 41.9449C49.1983 42.0503 49.3151 42.2783 49.2471 42.3777C49.1605 42.5039 49.0729 42.4324 49.089 42.2769ZM50.5092 39.0202C50.6042 39.0707 50.81 39.0805 50.928 39.1232C50.6218 39.4406 50.5679 39.3473 50.1721 39.3104C50.1545 38.9892 50.2628 38.8895 50.5092 39.0202ZM47.8554 46.9715C47.8964 46.9729 47.9376 46.9741 47.9789 46.9753C47.9814 46.8355 47.9784 46.6958 47.9697 46.5562C48.3871 46.6661 48.1508 45.7869 48.0197 45.6047C48.4269 45.6211 48.6253 44.0671 48.7543 43.7677C48.8688 43.5019 48.9986 43.399 49.0823 43.0748C49.1555 42.7911 49.2347 42.5357 49.3404 42.2673C49.5832 41.6502 49.9017 41.0898 49.843 40.3705C50.0487 40.9102 50.2296 40.3714 50.3601 40.1134C50.5703 39.6976 51.0832 39.1671 51.1377 38.6733C51.1859 38.2386 50.9179 38.2156 51.0761 37.8124C51.236 37.4043 51.3675 37.4452 51.6478 37.3147C51.8341 37.2278 51.8712 37.3333 52.0027 37.0497C52.0879 36.8661 52.0578 36.7293 52.167 36.5788C52.212 36.626 52.2633 36.6455 52.3207 36.6374C52.4093 36.4965 52.4674 36.3395 52.495 36.1664C52.5672 35.9328 52.6022 35.7182 52.711 35.4956C52.8141 35.2848 52.9973 34.7208 53.0944 34.6191C53.1974 34.5111 53.7819 34.566 53.7794 34.5699C54.0208 34.2039 53.5778 33.8393 54.1913 33.9164C54.0701 33.6446 54.4957 33.3071 54.6192 33.1558C54.9277 32.7783 54.9523 32.6035 55.0174 32.1287C55.0505 31.8866 54.8347 31.9145 55.124 31.8593C55.2436 31.8366 55.3584 32.021 55.4447 31.9939C55.8259 31.8748 55.4271 31.8975 55.5323 31.7103C55.5655 31.6509 55.7351 31.4112 55.7334 31.4138C55.7252 31.4258 55.7716 31.2052 55.81 31.1485C55.8829 31.141 55.9546 31.1257 56.0251 31.1025C56.0609 31.0153 56.0926 30.926 56.1201 30.8346C56.3959 30.5573 56.8086 30.4332 56.9994 30.1286C57.1228 29.9316 57.0858 29.7387 57.2453 29.5423C57.3971 29.3552 57.598 29.4907 57.6281 29.0682C57.6664 28.5306 57.1873 28.2913 56.9913 28.8339C56.4598 28.0449 54.2383 30.9397 53.9817 31.3179C52.8669 32.9596 51.7713 34.642 50.8569 36.4574C49.966 38.2264 49.2347 40.0877 48.6632 42.0388C48.3876 42.9795 48.2198 43.916 48.0515 44.889C47.995 45.2149 47.5727 46.667 47.7485 46.992C47.784 46.9852 47.8197 46.9783 47.8554 46.9715Z" fill="black"/>
<path fill-rule="evenodd" clip-rule="evenodd" d="M135.601 87.232C135.788 87.081 135.788 87.081 135.821 86.7958C135.57 86.8511 135.57 86.8511 135.601 87.232Z" fill="black"/>
<path fill-rule="evenodd" clip-rule="evenodd" d="M43.0485 106.424C43.051 106.424 43.0528 106.425 43.0543 106.427C43.0501 106.42 43.0347 106.399 43.0485 106.424Z" fill="black"/>
<path fill-rule="evenodd" clip-rule="evenodd" d="M42.9221 106.576C42.9802 106.727 43.0734 106.765 43.2019 106.689C43.2525 106.776 42.7625 106.144 42.9221 106.576Z" fill="black"/>
<path fill-rule="evenodd" clip-rule="evenodd" d="M51.3967 37.6014C51.1026 38.2963 51.4709 37.7909 51.4521 38.0166C51.4644 37.8684 51.5155 37.6571 51.3967 37.6014Z" fill="black"/>
<path fill-rule="evenodd" clip-rule="evenodd" d="M99.204 48.3564C99.3314 49.6023 100.746 49.013 101.064 48.2594C101.296 47.7107 101.881 45.5425 101.251 45.0844C100.785 44.7449 100.685 46.2083 100.57 46.5352C100.377 47.0827 100.226 46.6948 99.7979 46.8352C99.3249 46.9902 99.1514 47.8397 99.204 48.3564Z" fill="black"/>
<path fill-rule="evenodd" clip-rule="evenodd" d="M97.6588 46.0757C98.1643 46.211 98.6599 46.1413 99.0189 45.6601C99.2178 45.3936 99.4824 44.8651 99.1244 44.6072C98.7999 44.3736 98.432 44.9205 98.0902 44.8075C97.6255 44.6536 97.8648 44.0531 97.7053 43.6564C97.1195 44.063 96.7926 45.8438 97.6588 46.0757Z" fill="black"/>
<path fill-rule="evenodd" clip-rule="evenodd" d="M98.183 49.2218C97.6957 49.2206 97.6917 49.943 97.9461 50.2526C98.1895 50.5488 98.805 50.8487 99.135 50.6183C99.786 50.1636 98.5773 49.2687 98.183 49.2218Z" fill="black"/>
<path fill-rule="evenodd" clip-rule="evenodd" d="M69.8287 77.9483C69.9327 78.0092 70.2394 78.3226 70.3687 78.1811C70.1863 77.9596 70.0037 77.7381 69.8213 77.5166C69.7205 77.6498 69.6514 77.8445 69.8287 77.9483Z" fill="black"/>
<path fill-rule="evenodd" clip-rule="evenodd" d="M67.5257 46.2559C67.4739 46.3025 67.422 46.3489 67.3702 46.3954C67.545 46.5709 67.5407 46.6231 67.7168 46.4569C67.6646 46.3739 67.6009 46.307 67.5257 46.2559Z" fill="black"/>
<path fill-rule="evenodd" clip-rule="evenodd" d="M100.554 87.5953C100.456 87.3833 100.271 87.7743 100.146 87.8379C99.9419 87.9412 99.7749 87.3938 99.8333 88.0499C99.373 87.7959 99.0937 88.3786 98.7969 88.6821C98.3776 89.1109 97.8647 89.3435 97.585 89.9525C98.9016 90.3238 100.348 88.9557 101.33 88.0571C101.49 87.9103 102.291 87.1701 101.748 87.0985C101.526 87.0693 100.718 87.9517 100.554 87.5953Z" fill="black"/>
<path fill-rule="evenodd" clip-rule="evenodd" d="M100.163 86.3106C100.421 86.0658 99.8649 86.0434 99.777 86.0177C99.7846 86.2124 99.7919 86.407 99.7996 86.6017C99.9241 86.5108 100.045 86.4136 100.163 86.3106Z" fill="black"/>
<path fill-rule="evenodd" clip-rule="evenodd" d="M99.1943 87.1273C99.2714 87.0693 99.4864 86.8881 99.3402 86.7531C99.2081 86.8544 99.1136 87.0198 99.0929 87.2085C99.1267 87.1815 99.1605 87.1544 99.1943 87.1273Z" fill="black"/>
<path fill-rule="evenodd" clip-rule="evenodd" d="M77.8711 71.3372C77.7063 71.415 77.6325 71.5382 77.6498 71.7069C77.9031 71.6445 77.8548 71.3563 77.8711 71.3372Z" fill="black"/>
<path d="M52.3237 152.678C50.8979 152.678 49.7065 152.365 48.7494 151.74C47.7989 151.115 47.0828 150.259 46.601 149.172C46.1257 148.085 45.8881 146.851 45.8881 145.471V145.266C45.8881 143.873 46.1388 142.636 46.6401 141.555C47.1414 140.468 47.8608 139.612 48.7983 138.987C49.7358 138.362 50.8556 138.049 52.1576 138.049C53.0756 138.049 53.9155 138.192 54.6772 138.479C55.4389 138.765 56.0704 139.13 56.5717 139.573V142.639H55.0385L54.8334 140.393C54.6251 140.23 54.3842 140.093 54.1108 139.983C53.8438 139.872 53.5444 139.787 53.2123 139.729C52.8868 139.67 52.532 139.641 52.1479 139.641C51.2169 139.641 50.4291 139.882 49.7846 140.364C49.1401 140.839 48.6518 141.496 48.3198 142.336C47.9877 143.176 47.8217 144.146 47.8217 145.246V145.471C47.8217 146.662 47.9975 147.681 48.3491 148.528C48.7071 149.367 49.2247 150.009 49.9018 150.451C50.5854 150.894 51.4155 151.115 52.392 151.115C52.8478 151.115 53.2937 151.06 53.7299 150.949C54.1661 150.839 54.5274 150.696 54.8139 150.52L55.0287 148.537H56.5326V151.623C55.9988 151.955 55.3608 152.216 54.6186 152.405C53.8764 152.587 53.1114 152.678 52.3237 152.678ZM58.183 152.473V151.242L59.7748 150.969V138.752L58.183 138.479V137.239H61.6987V143.313C62.0632 142.805 62.5092 142.411 63.0366 142.131C63.5639 141.851 64.1498 141.711 64.7944 141.711C65.9272 141.711 66.8061 142.05 67.4311 142.727C68.0561 143.404 68.3686 144.446 68.3686 145.852V150.969L69.9604 151.242V152.473H64.853V151.242L66.4448 150.969V145.832C66.4448 144.96 66.256 144.315 65.8783 143.899C65.5073 143.482 64.9506 143.274 64.2084 143.274C63.6811 143.274 63.1993 143.401 62.7631 143.655C62.3334 143.902 61.9786 144.24 61.6987 144.67V150.969L63.2905 151.242V152.473H58.183ZM74.6967 152.678C73.5964 152.678 72.7599 152.411 72.1869 151.877C71.614 151.337 71.3276 150.578 71.3276 149.602C71.3276 148.931 71.5099 148.349 71.8744 147.854C72.2455 147.352 72.7794 146.965 73.476 146.692C74.1726 146.412 75.006 146.272 75.976 146.272H77.8608V145.237C77.8608 144.599 77.6655 144.104 77.2748 143.752C76.8907 143.401 76.3471 143.225 75.644 143.225C75.2013 143.225 74.8172 143.28 74.4916 143.391C74.1661 143.495 73.8699 143.642 73.603 143.83L73.3979 145.305H71.9135V142.883C72.3888 142.499 72.9422 142.209 73.5737 142.014C74.2052 141.812 74.905 141.711 75.6733 141.711C76.9558 141.711 77.9617 142.017 78.6908 142.629C79.42 143.241 79.7846 144.117 79.7846 145.256V150.344C79.7846 150.481 79.7846 150.614 79.7846 150.744C79.7911 150.875 79.8009 151.005 79.8139 151.135L80.8393 151.242V152.473H78.0756C78.017 152.186 77.9714 151.929 77.9389 151.701C77.9063 151.474 77.8836 151.246 77.8705 151.018C77.4994 151.493 77.0339 151.89 76.4741 152.209C75.9207 152.522 75.3282 152.678 74.6967 152.678ZM74.9799 151.067C75.6179 151.067 76.2006 150.914 76.728 150.608C77.2553 150.302 77.6329 149.934 77.8608 149.504V147.59H75.9076C75.0222 147.59 74.3582 147.802 73.9155 148.225C73.4728 148.648 73.2514 149.12 73.2514 149.641C73.2514 150.103 73.3946 150.458 73.6811 150.705C73.9675 150.946 74.4005 151.067 74.9799 151.067ZM82.2358 152.473V151.242L83.8276 150.969V138.752L82.2358 138.479V137.239H85.7514V150.969L87.3432 151.242V152.473H82.2358ZM88.6225 152.473V151.242L90.2143 150.969V138.752L88.6225 138.479V137.239H92.1381V150.969L93.7299 151.242V152.473H88.6225ZM99.726 152.678C98.7494 152.678 97.8998 152.457 97.1772 152.014C96.4545 151.565 95.8946 150.943 95.4975 150.149C95.1069 149.354 94.9116 148.436 94.9116 147.395V146.965C94.9116 145.962 95.1166 145.067 95.5268 144.28C95.9435 143.485 96.4936 142.86 97.1772 142.405C97.8673 141.942 98.6192 141.711 99.433 141.711C100.384 141.711 101.178 141.906 101.816 142.297C102.46 142.688 102.945 143.238 103.271 143.948C103.596 144.651 103.759 145.481 103.759 146.438V147.639H96.9037L96.8744 147.688C96.8875 148.365 97.0047 148.967 97.226 149.494C97.4539 150.015 97.7794 150.425 98.2026 150.725C98.6257 151.024 99.1336 151.174 99.726 151.174C100.377 151.174 100.947 151.083 101.435 150.901C101.93 150.712 102.356 150.455 102.714 150.129L103.466 151.379C103.089 151.744 102.587 152.053 101.962 152.307C101.344 152.554 100.598 152.678 99.726 152.678ZM96.9623 146.135H101.835V145.881C101.835 145.373 101.744 144.921 101.562 144.524C101.386 144.12 101.119 143.804 100.761 143.576C100.41 143.342 99.9669 143.225 99.433 143.225C99.0033 143.225 98.6127 143.352 98.2612 143.606C97.9096 143.853 97.6199 144.192 97.392 144.621C97.1642 145.051 97.0144 145.539 96.9428 146.086L96.9623 146.135ZM105.263 152.473V151.242L106.855 150.969V143.42L105.263 143.147V141.906H108.574L108.71 143.479C109.062 142.919 109.501 142.486 110.029 142.18C110.563 141.867 111.168 141.711 111.845 141.711C112.984 141.711 113.867 142.046 114.492 142.717C115.117 143.381 115.429 144.41 115.429 145.803V150.969L117.021 151.242V152.473H111.914V151.242L113.505 150.969V145.842C113.505 144.911 113.32 144.25 112.949 143.86C112.584 143.469 112.024 143.274 111.269 143.274C110.716 143.274 110.224 143.407 109.794 143.674C109.371 143.941 109.033 144.306 108.779 144.768V150.969L110.371 151.242V152.473H105.263ZM122.929 156.74C122.421 156.74 121.871 156.669 121.279 156.526C120.686 156.389 120.165 156.2 119.716 155.959L120.214 154.465C120.572 154.654 120.996 154.81 121.484 154.934C121.972 155.058 122.447 155.119 122.91 155.119C123.769 155.119 124.397 154.878 124.794 154.397C125.198 153.915 125.4 153.228 125.4 152.336V151.33C125.055 151.773 124.641 152.108 124.16 152.336C123.678 152.564 123.124 152.678 122.499 152.678C121.64 152.678 120.898 152.466 120.273 152.043C119.648 151.614 119.166 151.018 118.828 150.256C118.496 149.488 118.33 148.599 118.33 147.59V147.385C118.33 146.252 118.496 145.259 118.828 144.406C119.166 143.554 119.648 142.893 120.273 142.424C120.898 141.949 121.647 141.711 122.519 141.711C123.183 141.711 123.766 141.841 124.267 142.102C124.768 142.362 125.188 142.74 125.527 143.235L125.703 141.906H127.324V152.336C127.324 153.248 127.151 154.032 126.806 154.69C126.468 155.347 125.969 155.852 125.312 156.203C124.661 156.561 123.867 156.74 122.929 156.74ZM122.978 151.115C123.557 151.115 124.042 150.985 124.433 150.725C124.824 150.458 125.146 150.084 125.4 149.602V144.739C125.152 144.289 124.83 143.934 124.433 143.674C124.036 143.407 123.557 143.274 122.997 143.274C122.386 143.274 121.874 143.449 121.464 143.801C121.061 144.153 120.758 144.638 120.556 145.256C120.354 145.868 120.253 146.578 120.253 147.385V147.59C120.253 148.651 120.478 149.504 120.927 150.149C121.376 150.793 122.06 151.115 122.978 151.115ZM127.031 143.479L126.279 141.906H128.632V143.137L127.031 143.479ZM134.355 152.678C133.378 152.678 132.529 152.457 131.806 152.014C131.083 151.565 130.524 150.943 130.126 150.149C129.736 149.354 129.54 148.436 129.54 147.395V146.965C129.54 145.962 129.746 145.067 130.156 144.28C130.572 143.485 131.122 142.86 131.806 142.405C132.496 141.942 133.248 141.711 134.062 141.711C135.012 141.711 135.807 141.906 136.445 142.297C137.089 142.688 137.574 143.238 137.9 143.948C138.225 144.651 138.388 145.481 138.388 146.438V147.639H131.533L131.503 147.688C131.516 148.365 131.634 148.967 131.855 149.494C132.083 150.015 132.408 150.425 132.831 150.725C133.255 151.024 133.762 151.174 134.355 151.174C135.006 151.174 135.576 151.083 136.064 150.901C136.559 150.712 136.985 150.455 137.343 150.129L138.095 151.379C137.718 151.744 137.216 152.053 136.591 152.307C135.973 152.554 135.227 152.678 134.355 152.678ZM131.591 146.135H136.464V145.881C136.464 145.373 136.373 144.921 136.191 144.524C136.015 144.12 135.748 143.804 135.39 143.576C135.039 143.342 134.596 143.225 134.062 143.225C133.632 143.225 133.242 143.352 132.89 143.606C132.539 143.853 132.249 144.192 132.021 144.621C131.793 145.051 131.643 145.539 131.572 146.086L131.591 146.135ZM144.228 152.678C143.518 152.678 142.854 152.606 142.236 152.463C141.617 152.32 140.96 152.099 140.263 151.799L140.244 149.289H141.699L142.06 150.803C142.425 150.953 142.776 151.063 143.115 151.135C143.46 151.2 143.831 151.233 144.228 151.233C145.009 151.233 145.569 151.083 145.908 150.783C146.246 150.484 146.415 150.113 146.415 149.67C146.415 149.253 146.243 148.902 145.898 148.615C145.559 148.323 144.941 148.075 144.042 147.873C142.766 147.58 141.826 147.19 141.22 146.701C140.621 146.207 140.322 145.549 140.322 144.729C140.322 144.156 140.488 143.645 140.82 143.196C141.152 142.74 141.614 142.378 142.206 142.112C142.799 141.845 143.489 141.711 144.277 141.711C145.078 141.711 145.761 141.802 146.328 141.985C146.9 142.167 147.399 142.411 147.822 142.717L147.919 145.129H146.474L146.162 143.723C145.934 143.554 145.664 143.423 145.351 143.332C145.039 143.241 144.68 143.196 144.277 143.196C143.678 143.196 143.19 143.336 142.812 143.615C142.441 143.895 142.255 144.247 142.255 144.67C142.255 144.918 142.307 145.132 142.412 145.315C142.522 145.497 142.731 145.663 143.037 145.813C143.343 145.956 143.792 146.099 144.384 146.242C145.856 146.587 146.881 147.027 147.46 147.561C148.046 148.095 148.339 148.752 148.339 149.533C148.339 150.425 148.007 151.174 147.343 151.78C146.686 152.378 145.647 152.678 144.228 152.678Z" fill="#9E7D77"/>
</g>
</g>
<defs>
<filter id="filter0_d_325_770" x="0" y="0" width="191" height="168" filterUnits="userSpaceOnUse" color-interpolation-filters="sRGB">
<feFlood flood-opacity="0" result="BackgroundImageFix"/>
<feColorMatrix in="SourceAlpha" type="matrix" values="0 0 0 0 0 0 0 0 0 0 0 0 0 0 0 0 0 0 127 0" result="hardAlpha"/>
<feOffset dx="10" dy="4"/>
<feGaussianBlur stdDeviation="2"/>
<feComposite in2="hardAlpha" operator="out"/>
<feColorMatrix type="matrix" values="0 0 0 0 0 0 0 0 0 0 0 0 0 0 0 0 0 0 0.25 0"/>
<feBlend mode="normal" in2="BackgroundImageFix" result="effect1_dropShadow_325_770"/>
<feBlend mode="normal" in="SourceGraphic" in2="effect1_dropShadow_325_770" result="shape"/>
</filter>
<linearGradient id="paint0_linear_325_770" x1="82.2202" y1="15.4118" x2="84.8524" y2="127.051" gradientUnits="userSpaceOnUse">
<stop stop-color="#E5C7EB"/>
<stop offset="0.0001" stop-color="#E5C7EB"/>
<stop offset="1" stop-color="#FFB5A7" stop-opacity="0"/>
<stop offset="1" stop-color="#FDEFEF"/>
</linearGradient>
<linearGradient id="paint1_linear_325_770" x1="93.4486" y1="67.0333" x2="93.4486" y2="125.142" gradientUnits="userSpaceOnUse">
<stop stop-color="#FFDAD3"/>
<stop offset="1" stop-color="#FFDAD3" stop-opacity="0"/>
</linearGradient>
<clipPath id="clip0_325_770">
<path d="M0 30C0 13.4315 13.4315 0 30 0H147C163.569 0 177 13.4315 177 30V130C177 146.569 163.569 160 147 160H30C13.4315 160 0 146.569 0 130V30Z" fill="white"/>
</clipPath>
</defs>
</svg>
