<svg width="300" height="300" viewBox="0 0 300 300" fill="none" xmlns="http://www.w3.org/2000/svg">
<g filter="url(#filter0_i_344_287)">
<path d="M240 0H60C26.8629 0 0 26.8629 0 60V240C0 273.137 26.8629 300 60 300H240C273.137 300 300 273.137 300 240V60C300 26.8629 273.137 0 240 0Z" fill="white"/>
<path fill-rule="evenodd" clip-rule="evenodd" d="M133.123 250.571C121.448 256.42 107.761 256.897 94.8096 255.231C69.736 252.006 44.4152 239.851 31.9481 217.858C26.5704 208.372 23.8544 197.616 21.9622 186.877C19.435 172.535 18.4142 157.116 24.7646 144.011C30.1182 132.962 40.0532 124.923 49.9516 117.66C60.3256 110.048 71.5636 102.647 84.3404 101.126C121.197 100.396 117.464 114.242 155.955 92.2212C167.144 85.8196 200.412 96.808 211.653 100.396C222.893 103.984 245.074 115.054 260.117 128.204C266.404 133.701 272.204 139.992 275.738 147.559C281.029 158.889 280.772 172.088 278.304 184.346C275.814 196.711 270.408 209.571 259.427 215.776C254.466 218.58 248.745 219.782 243.066 220.242C219.345 222.164 194.113 212.037 172.407 221.792C157.547 228.47 147.689 243.274 133.123 250.571Z" fill="url(#paint0_linear_344_287)"/>
<path fill-rule="evenodd" clip-rule="evenodd" d="M44.1827 148.796C48.6399 144.405 52.8291 139.878 55.6483 135.933C59.5291 130.503 65.2191 125.339 71.9611 124.343C79.8239 123.181 87.0447 128.602 92.7603 134.125C100.656 141.755 107.742 150.223 113.862 159.34C111.407 159.66 106.118 163.321 99.0883 163.204C94.9507 163.136 90.0075 159.449 85.2291 159.202C81.9099 159.032 78.2863 162.506 74.9443 162.241C69.1007 161.778 63.6351 157.475 58.7059 156.697C55.7691 156.233 51.8059 159.152 49.5487 158.566C43.3447 156.957 41.5063 151.432 44.1827 148.796Z" fill="white"/>
<path fill-rule="evenodd" clip-rule="evenodd" d="M177.839 217.101C197.102 210.75 217.977 218.111 238.258 217.839C247.244 217.719 256.85 215.736 263.036 209.217C249.486 201.24 239.202 188.554 231.712 174.73C224.22 160.906 219.296 145.867 214.41 130.922C207.984 127.258 199.711 133.455 192.656 131.226C189.051 130.087 184.746 126.993 182.159 129.75C180.597 131.414 177.688 130.435 176.17 128.732C174.651 127.029 173.805 124.765 172.092 123.256C170.379 121.748 167.128 121.558 166.257 123.668C164.748 127.319 163.158 131.09 160.265 133.78C157.372 136.471 152.786 137.77 149.397 135.738C146.75 134.151 145.501 131.063 143.96 128.39C142.418 125.716 141.817 123.313 138.751 123.668C128.396 145.485 120.665 166.933 107.926 187.45C102.452 196.266 71.8244 229.875 54.028 225.543C36.2317 221.212 37.5521 217.839 31.5422 212.513C37.8025 225.249 48.8616 235.27 61.4888 241.747C74.116 248.225 88.2593 251.339 102.406 252.464C107.988 252.908 113.65 253.048 119.145 251.968C141.664 247.542 156.044 224.288 177.839 217.101Z" fill="white"/>
<path fill-rule="evenodd" clip-rule="evenodd" d="M158.527 132.004C160.501 129.454 161.734 126.388 163.767 123.886C165.8 121.384 169.102 119.444 172.177 120.41C175.04 121.31 176.614 124.296 177.89 127.011C178.531 128.374 180.479 128.48 181.883 127.933C183.286 127.387 184.548 126.398 186.046 126.235C189.144 125.897 191.478 129.106 194.506 129.845C199.011 130.945 203.54 126.347 207.993 127.645C209.877 128.194 211.508 129.769 213.466 129.634C209.7 120.608 206.864 111.207 202.91 102.261C198.956 93.3145 193.742 84.6801 186.15 78.5117C185.37 77.8777 184.516 77.2497 183.518 77.1225C182.521 76.9953 181.365 77.5617 181.19 78.5521C180.67 81.4965 180.151 84.4409 179.631 87.3853C179.374 88.8429 178.694 90.6733 177.214 90.6453C176.228 90.6269 175.471 89.6601 175.335 88.6833C175.199 87.7065 175.527 86.7309 175.849 85.7989C176.86 82.8789 177.871 79.9585 178.882 77.0385C171.947 79.5409 165.936 84.1857 160.953 89.6193C155.97 95.0533 151.94 101.281 148.078 107.561C144.77 112.938 141.567 118.378 138.469 123.878C142.623 123.288 146.242 126.699 148.592 130.175C149.998 132.255 151.673 134.733 154.184 134.724C155.954 134.717 157.444 133.404 158.527 132.004Z" fill="white"/>
<path fill-rule="evenodd" clip-rule="evenodd" d="M185.397 69.1616C184.937 69.014 184.454 68.846 184.141 68.4784C183.69 67.9492 183.72 67.1756 183.774 66.4828C184.311 59.6348 184.847 52.7864 185.383 45.9384C185.445 45.1448 186.224 44.56 187.011 44.4428C187.798 44.3256 188.59 44.564 189.35 44.7996C194.255 46.3196 199.159 47.8396 204.063 49.3596C205.26 49.7304 205.324 51.392 205.071 52.6196C204.819 53.8468 204.63 55.4228 205.702 56.0724C212.854 60.4084 220.454 64.0052 228.341 66.7872C228.851 66.9672 228.888 67.7424 228.532 68.1492C228.176 68.556 227.608 68.6872 227.079 68.8C219.071 70.5088 211.235 73.0224 203.727 76.2904C202.677 76.7476 201.305 77.1656 200.512 76.3388C199.948 75.7504 200.002 74.8308 199.954 74.0168C199.907 73.2032 199.548 72.2284 198.739 72.1256C194.213 71.5504 189.74 70.5568 185.397 69.1616ZM202.198 55.2716C203.296 53.5344 202.513 50.908 200.644 50.054C196.212 48.0288 191.561 46.4836 186.798 45.4548C187.59 46.6764 187.547 48.2384 187.478 49.6924C187.21 55.2748 186.934 60.9088 185.476 66.304C185.35 66.7708 185.95 67.074 186.422 67.1796C190.646 68.124 194.902 68.9272 199.18 69.5868C198.828 65.4636 198.475 61.3404 198.123 57.2172C198.084 56.7592 198.048 56.2804 198.222 55.8548C198.505 55.1656 199.29 54.7908 200.035 54.7696C200.78 54.7484 201.5 55.012 202.198 55.2716ZM201.28 58.5216C201.616 63.3592 201.953 68.1972 202.289 73.0348C202.319 73.4592 202.368 73.9272 202.682 74.2144C209.501 71.3836 216.566 69.1436 223.77 67.5284C215.964 65.2868 209.378 59.1544 201.28 58.5216Z" fill="#F0DEEF"/>
<path fill-rule="evenodd" clip-rule="evenodd" d="M133.123 250.571C121.448 256.421 107.761 256.897 94.8096 255.231C69.736 252.006 44.4156 239.851 31.9483 217.859C26.5706 208.372 23.8546 197.616 21.9623 186.877C20.9242 180.985 18.908 172.161 22.5998 168.156C23.4246 167.262 46.5972 148.6 55.6488 135.934C59.5296 130.503 65.2197 125.339 71.9616 124.343C79.8244 123.181 87.0452 128.602 92.7608 134.125C100.657 141.755 107.743 150.223 113.862 159.34C107.119 156.475 102.266 150.522 97.7864 144.724C93.3072 138.926 88.6788 132.86 82.1212 129.592C75.5636 126.325 66.4572 126.869 62.1984 132.83C52.0472 147.039 39.2064 159.32 24.5588 168.827C23.4572 169.542 23.3576 171.088 23.3782 172.401C23.6163 187.56 25.3111 204.823 37.438 213.922C47.5668 221.522 62.2704 220.53 73.3656 214.427C84.4608 208.324 92.5752 198.002 99.5412 187.428C119.976 156.409 133.245 120.954 155.209 90.9988C160.258 84.1124 166.207 77.226 174.342 74.63C179.77 72.898 181.292 65.9716 181.192 60.2748C181.092 54.578 180.553 48.1008 184.509 44C183.675 53.4736 182.841 62.9472 182.008 72.4208C194.157 78.4528 201.254 91.2956 206.462 103.821C214.196 122.42 219.445 141.996 227.587 160.42C235.729 178.844 247.286 196.547 264.371 207.218C272.279 196.923 276.788 180.442 276.788 171.023C272.279 166.108 265.873 158.419 258.378 154.957C249.444 150.83 239.643 158.066 232.466 164.8C236.432 158.762 241.194 152.406 248.213 150.696C253.879 149.316 259.943 151.375 264.644 154.826C269.345 158.277 272.929 163 276.443 167.654C279.996 168.827 280.772 172.088 278.304 184.346C275.814 196.711 270.408 209.571 259.427 215.776C254.466 218.58 248.745 219.782 243.066 220.242C219.346 222.164 194.113 212.037 172.407 221.792C157.547 228.47 147.689 243.274 133.123 250.571ZM177.84 217.102C197.103 210.75 217.977 218.111 238.259 217.839C247.245 217.719 256.85 215.736 263.036 209.217C249.487 201.24 239.203 188.554 231.712 174.73C224.221 160.906 219.296 145.867 214.411 130.922C207.984 127.258 199.712 133.455 192.657 131.226C189.052 130.087 184.746 126.993 182.159 129.75C180.598 131.414 177.689 130.435 176.17 128.732C174.651 127.029 173.805 124.765 172.092 123.257C170.38 121.748 167.129 121.558 166.257 123.668C164.748 127.319 163.158 131.09 160.265 133.78C157.372 136.471 152.786 137.77 149.398 135.738C146.751 134.151 145.502 131.063 143.96 128.39C142.419 125.717 139.865 123.044 136.8 123.398C126.444 145.216 114.861 166.45 102.122 186.967C96.648 195.784 90.854 204.592 83.014 211.391C75.1736 218.19 64.9352 222.84 54.6008 221.895C46.2612 221.132 38.686 216.884 31.5428 212.513C37.8031 225.25 48.862 235.27 61.4896 241.748C74.1168 248.225 88.26 251.339 102.407 252.464C107.989 252.908 113.651 253.048 119.146 251.968C141.665 247.542 156.044 224.288 177.84 217.102ZM158.128 130.404C160.101 127.855 161.334 124.788 163.367 122.286C165.4 119.784 168.702 117.844 171.778 118.81C174.64 119.71 176.215 122.696 177.491 125.411C178.132 126.775 180.079 126.88 181.483 126.334C182.887 125.787 184.149 124.798 185.646 124.635C188.744 124.297 191.078 127.506 194.106 128.246C198.612 129.345 203.14 124.747 207.593 126.045C209.478 126.594 211.108 128.169 213.067 128.035C209.301 119.008 206.485 110.119 202.531 101.173C198.577 92.2264 189.989 76.4048 183.119 75.5224C176.17 74.63 165.536 82.5856 160.553 88.0196C155.57 93.4532 151.54 99.6808 147.678 105.961C144.371 111.338 141.167 116.778 138.069 122.278C142.224 121.688 145.842 125.1 148.192 128.576C149.599 130.655 151.274 133.133 153.784 133.124C155.554 133.117 157.044 131.804 158.128 130.404Z" fill="#00160A"/>
<path fill-rule="evenodd" clip-rule="evenodd" d="M127.504 57.854C123.14 58.2972 119.58 62.1288 117.782 67.3148C117.314 68.6628 115.78 69.2852 113.087 69.5448L112.917 69.5604C106.956 70.092 102.999 71.6272 101.091 75.1372L101.011 75.2876C100.856 75.586 100.723 75.884 100.528 76.3548L100.403 76.6616C99.9524 77.7684 99.722 78.2364 99.3368 78.7236C98.1368 80.2408 96.3308 80.7076 92.7168 80.8164L92.3156 80.8268C83.6572 81.0196 77.5404 82.3352 72.586 85.7956C71.1684 86.7856 70.3244 87.768 70.1356 89.0272C69.9188 90.4708 70.7576 91.9652 72.0964 92.786C73.1676 93.4424 74.4524 93.7016 76.0572 93.7064C78.0096 93.7124 79.9616 93.3724 81.7972 92.7072L81.9504 92.6512C82.2268 92.5484 82.4888 92.444 82.8784 92.2828L83.7036 91.9384C85.3964 91.238 86.2176 90.9896 87.2476 90.9356C88.8368 90.8524 90.0908 91.2716 92.7612 92.5764L93.3228 92.852C93.904 93.1364 94.3236 93.3348 94.7348 93.5152L94.8468 93.5636C99.3268 95.4988 103.906 95.8224 111.345 95.2552L112.813 95.1368L116.064 94.8616C116.917 94.7924 117.528 94.748 118.232 94.7032L118.911 94.6632C121.808 94.5056 124.901 94.5032 129.952 94.604L133.426 94.6764C140.388 94.8136 143.526 94.7768 146.873 94.432C150.76 94.032 153.292 91.3176 154.33 87.2964C155.171 84.0372 154.865 80.2344 153.693 78.4276C151.353 74.8196 147.86 72.6464 144.645 73.6476C143.58 73.9796 142.239 73.1972 141.556 71.9136C141.184 71.2164 140.996 70.5876 140.686 69.1784L140.536 68.4964C140.45 68.1108 140.386 67.8532 140.306 67.5632C139.216 63.6172 136.238 60.248 132.456 58.6808C130.796 57.9928 129.108 57.6916 127.504 57.854ZM131.996 59.7892C135.378 61.1908 138.065 64.1892 139.097 67.7008L139.149 67.8828C139.224 68.152 139.284 68.396 139.367 68.7672L139.552 69.6092C139.864 71.0076 140.074 71.6856 140.496 72.478C141.407 74.1872 143.236 75.2776 144.902 74.8224L145.002 74.7936C147.581 73.99 150.604 75.8712 152.686 79.0804C153.654 80.5712 153.932 84.036 153.168 86.9964C152.245 90.5728 150.078 92.896 146.75 93.2384L146.377 93.2756C143.312 93.5704 140.263 93.606 133.976 93.4868L129.385 93.3924C124.65 93.3032 121.663 93.3116 118.844 93.4652L117.738 93.5328C116.948 93.586 116.196 93.6448 114.966 93.7488L111.576 94.0336C104.234 94.6124 99.7704 94.3352 95.5104 92.5424L95.3228 92.462C94.9668 92.3084 94.6108 92.1432 94.1444 91.9176L93.0908 91.4024C90.3684 90.082 89.0032 89.642 87.1848 89.7372C85.942 89.8024 85.0124 90.0924 83.084 90.8964L82.2312 91.2516C81.894 91.3896 81.6584 91.4812 81.3884 91.5788C79.6852 92.1964 77.8724 92.512 76.0608 92.5064C74.6564 92.5024 73.5736 92.284 72.7232 91.7628C71.7688 91.1776 71.1828 90.1336 71.3224 89.2056C71.4496 88.3564 72.1016 87.5976 73.2728 86.7796C77.926 83.53 83.7424 82.2488 92.006 82.0348L92.3424 82.0264C96.5812 81.932 98.7268 81.4288 100.278 79.468C100.717 78.9128 100.976 78.4152 101.396 77.4032L101.72 76.614C101.885 76.2236 102.001 75.9752 102.145 75.7104C103.754 72.7504 107.222 71.3376 112.542 70.8012L113.024 70.7556C116.212 70.4712 118.152 69.732 118.876 67.8156L118.915 67.708C120.576 62.9172 123.812 59.4352 127.626 59.048C128.956 58.9128 130.38 59.1508 131.802 59.7108L131.996 59.7892Z" fill="#00160A"/>
<path fill-rule="evenodd" clip-rule="evenodd" d="M257.562 82.6885L257.414 82.8365C257.301 82.9517 257.19 83.0713 257.052 83.2237L256.502 83.8417C255.979 84.4281 255.696 84.7077 255.326 84.9869C254.519 85.5957 253.553 85.7837 252.91 85.4241C252.652 85.2797 252.46 85.0901 252.088 84.6337L251.812 84.2929C251.668 84.1185 251.566 84.0037 251.44 83.8769C249.784 82.2081 246.892 82.1273 244.69 83.4557C242.967 84.4957 241.728 86.0881 240.372 88.6217C239.819 89.6569 238.601 90.3725 237.152 90.5913C236.448 90.6977 235.708 90.7057 234.761 90.6353L234.298 90.5969L232.842 90.4493C225.184 89.6937 217.352 90.7761 210.185 93.5797C209.054 94.0221 208.425 94.4185 208.026 95.1569C207.45 96.2213 208.034 97.7661 209.263 97.8345C230.271 98.9985 251.366 98.6005 272.315 96.6457L273.644 96.5209L274.614 96.4545C274.704 96.4477 274.779 96.4413 274.872 96.4333L275.12 96.4085C277.032 96.1965 278.081 95.5625 278.081 93.9733C278.081 92.4385 277.341 92.0185 275.473 91.8281L275.099 91.7889C274.376 91.7101 274.045 91.6509 273.599 91.5125C272.015 91.0217 270.128 89.9981 269.716 89.4869C269.107 88.7309 268.847 88.0193 268.477 86.3653L268.36 85.8417C267.971 84.1381 267.661 83.3253 266.928 82.4133C264.788 79.7525 260.22 80.078 257.562 82.6885ZM265.993 83.1657C266.601 83.9213 266.86 84.6329 267.23 86.2845L267.347 86.8081C267.737 88.5149 268.046 89.3277 268.781 90.2397C269.376 90.9773 271.452 92.1033 273.244 92.6585L273.408 92.7081C273.837 92.8313 274.196 92.8945 274.824 92.9657L275.652 93.0549C276.708 93.1797 276.881 93.3301 276.881 93.9733C276.881 94.7561 276.314 95.0845 274.886 95.2265L274.521 95.2581L273.608 95.3201C273.564 95.3233 273.522 95.3269 273.482 95.3301L273.364 95.3409C252.092 97.3853 230.666 97.8185 209.33 96.6361C209.086 96.6229 208.885 96.0913 209.082 95.7277C209.303 95.3185 209.742 95.0413 210.622 94.6973C217.492 92.0097 224.991 90.9437 232.338 91.6069L233.237 91.6957L233.98 91.7721C234.153 91.7889 234.297 91.8017 234.456 91.8149C235.587 91.9093 236.469 91.9081 237.331 91.7781C239.125 91.5069 240.678 90.5945 241.43 89.1881C242.693 86.8289 243.816 85.3845 245.31 84.4833C247.072 83.4197 249.359 83.4837 250.588 84.7221L250.66 84.7965C250.719 84.8593 250.778 84.9269 250.852 85.0145L251.082 85.2973C251.597 85.9369 251.871 86.2173 252.324 86.4713C253.442 87.0969 254.898 86.8133 256.048 85.9449C256.471 85.6261 256.781 85.3257 257.294 84.7565L257.934 84.0373C258.12 83.8317 258.251 83.6937 258.403 83.5445C260.599 81.3881 264.348 81.1209 265.993 83.1657Z" fill="#00160A"/>
<path fill-rule="evenodd" clip-rule="evenodd" d="M181.191 60.2748C181.092 54.578 180.552 48.1008 184.508 44C183.674 53.4736 182.841 62.9472 182.007 72.4208C183.361 73.0928 181.342 74.2172 180.118 74.24C175.734 74.3208 181.291 65.9716 181.191 60.2748Z" fill="#F0DEEF"/>
<path d="M186.039 238.846C186.039 239.139 185.932 239.402 185.717 239.637C185.521 239.871 185.268 239.988 184.955 239.988C184.662 239.988 184.408 239.891 184.193 239.695C183.979 239.5 183.852 239.236 183.812 238.904C183.793 238.826 183.744 238.455 183.666 237.791C183.607 237.127 183.412 236.316 183.08 235.359C182.768 234.383 182.279 233.348 181.615 232.254C180.951 231.141 180.033 230.115 178.861 229.178C177.709 228.24 176.244 227.459 174.467 226.834C172.689 226.209 170.531 225.896 167.992 225.896C165.746 225.896 163.48 226.238 161.195 226.922C158.93 227.586 156.752 228.533 154.662 229.764C152.572 230.975 150.619 232.43 148.803 234.129C146.986 235.809 145.404 237.664 144.057 239.695C142.729 241.727 141.674 243.895 140.893 246.199C140.131 248.504 139.75 250.877 139.75 253.318C139.75 255.525 140.053 257.42 140.658 259.002C141.264 260.564 142.104 261.844 143.178 262.84C144.252 263.836 145.512 264.568 146.957 265.037C148.422 265.486 149.994 265.711 151.674 265.711C154.584 265.711 157.299 265.213 159.818 264.217C162.357 263.201 164.701 261.844 166.85 260.145C169.018 258.426 170.99 256.434 172.768 254.168C174.545 251.883 176.137 249.48 177.543 246.961C177.699 244.578 177.973 242.762 178.363 241.512C178.773 240.242 179.379 239.607 180.18 239.607C180.629 239.607 181 239.793 181.293 240.164C181.605 240.535 181.762 241.014 181.762 241.6C181.762 242.244 181.596 243.064 181.264 244.061C180.932 245.057 180.424 246.209 179.74 247.518C179.682 248.436 179.652 249.422 179.652 250.477C179.652 252.02 179.711 253.709 179.828 255.545C179.965 257.381 180.17 259.334 180.443 261.404C181.264 260.994 181.898 260.701 182.348 260.525C182.816 260.33 183.158 260.203 183.373 260.145C183.588 260.066 183.725 260.037 183.783 260.057C183.842 260.057 183.891 260.057 183.93 260.057C184.223 260.057 184.477 260.164 184.691 260.379C184.926 260.574 185.043 260.838 185.043 261.17C185.043 261.404 184.975 261.619 184.838 261.814C184.701 261.99 184.516 262.117 184.281 262.195C184.242 262.215 183.9 262.352 183.256 262.605C182.631 262.84 181.791 263.221 180.736 263.748C180.834 264.803 180.912 265.867 180.971 266.941C181.029 268.016 181.059 269.1 181.059 270.193C181.059 272.771 180.873 275.232 180.502 277.576C180.131 279.92 179.516 281.98 178.656 283.758C177.816 285.535 176.693 286.941 175.287 287.977C173.881 289.031 172.152 289.559 170.102 289.559C169.086 289.559 168.148 289.383 167.289 289.031C166.43 288.68 165.688 288.191 165.062 287.566C164.438 286.941 163.949 286.189 163.598 285.311C163.246 284.451 163.07 283.504 163.07 282.469C163.07 281.004 163.314 279.559 163.803 278.133C164.311 276.707 164.975 275.33 165.795 274.002C166.635 272.674 167.592 271.414 168.666 270.223C169.74 269.051 170.844 267.967 171.977 266.971C173.109 265.975 174.223 265.096 175.316 264.334C176.43 263.572 177.445 262.957 178.363 262.488C178.109 260.535 177.904 258.621 177.748 256.746C177.592 254.852 177.494 253.016 177.455 251.238C175.756 253.953 173.881 256.346 171.83 258.416C169.799 260.486 167.67 262.225 165.443 263.631C163.217 265.037 160.922 266.102 158.559 266.824C156.215 267.527 153.881 267.879 151.557 267.879C149.447 267.879 147.533 267.566 145.814 266.941C144.096 266.297 142.621 265.359 141.391 264.129C140.16 262.898 139.213 261.375 138.549 259.559C137.885 257.742 137.553 255.652 137.553 253.289C137.553 250.789 137.943 248.328 138.725 245.906C139.506 243.465 140.59 241.15 141.977 238.963C143.363 236.756 145.004 234.725 146.898 232.869C148.812 231.014 150.893 229.412 153.139 228.064C155.404 226.697 157.787 225.633 160.287 224.871C162.807 224.09 165.375 223.699 167.992 223.699C170.512 223.699 172.699 223.992 174.555 224.578C176.41 225.145 177.982 225.877 179.271 226.775C180.58 227.654 181.635 228.621 182.436 229.676C183.256 230.711 183.9 231.697 184.369 232.635C184.76 233.436 185.062 234.207 185.277 234.949C185.512 235.691 185.678 236.346 185.775 236.912C185.893 237.479 185.961 237.938 185.98 238.289C186.02 238.641 186.039 238.826 186.039 238.846ZM178.627 264.92C177.65 265.467 176.635 266.121 175.58 266.883C174.545 267.625 173.529 268.445 172.533 269.344C171.557 270.242 170.629 271.209 169.75 272.244C168.871 273.279 168.1 274.354 167.436 275.467C166.771 276.58 166.244 277.723 165.854 278.895C165.482 280.086 165.297 281.277 165.297 282.469C165.297 283.211 165.414 283.875 165.648 284.461C165.883 285.066 166.215 285.574 166.645 285.984C167.074 286.414 167.582 286.746 168.168 286.98C168.754 287.215 169.398 287.332 170.102 287.332C172.855 287.332 175.004 285.867 176.547 282.938C178.09 280.027 178.861 275.77 178.861 270.164C178.861 269.324 178.842 268.465 178.803 267.586C178.764 266.727 178.705 265.838 178.627 264.92ZM201.859 263.777C201.371 263.777 200.941 263.738 200.57 263.66C200.277 264.246 199.926 264.793 199.516 265.301C199.105 265.789 198.627 266.219 198.08 266.59C197.553 266.961 196.957 267.254 196.293 267.469C195.629 267.684 194.906 267.791 194.125 267.791C193.207 267.791 192.367 267.625 191.605 267.293C190.844 266.98 190.18 266.541 189.613 265.975C189.047 265.389 188.607 264.695 188.295 263.895C187.982 263.074 187.826 262.176 187.826 261.199C187.826 259.949 188.051 258.865 188.5 257.947C188.949 257.01 189.467 256.238 190.053 255.633C190.639 255.008 191.225 254.549 191.811 254.256C192.396 253.943 192.836 253.787 193.129 253.787C193.461 253.787 193.705 253.875 193.861 254.051C194.037 254.227 194.125 254.461 194.125 254.754C194.125 255.086 194.018 255.34 193.803 255.516C193.607 255.672 193.354 255.828 193.041 255.984C192.729 256.141 192.396 256.365 192.045 256.658C191.693 256.932 191.361 257.283 191.049 257.713C190.756 258.143 190.512 258.65 190.316 259.236C190.121 259.822 190.023 260.477 190.023 261.199C190.023 261.844 190.121 262.449 190.316 263.016C190.512 263.562 190.795 264.041 191.166 264.451C191.537 264.842 191.977 265.154 192.484 265.389C192.992 265.604 193.559 265.711 194.184 265.711C195.297 265.711 196.215 265.457 196.938 264.949C197.68 264.422 198.246 263.758 198.637 262.957C197.484 262.352 196.537 261.492 195.795 260.379C195.053 259.266 194.682 258.016 194.682 256.629C194.682 255.516 194.945 254.607 195.473 253.904C196.02 253.201 196.732 252.85 197.611 252.85C198.139 252.85 198.637 252.977 199.105 253.23C199.574 253.484 199.984 253.885 200.336 254.432C200.707 254.979 201 255.682 201.215 256.541C201.43 257.4 201.537 258.426 201.537 259.617C201.537 260.242 201.459 260.896 201.303 261.58C201.42 261.6 201.537 261.609 201.654 261.609C201.771 261.609 201.898 261.609 202.035 261.609C202.699 261.609 203.295 261.531 203.822 261.375C204.35 261.219 204.828 260.984 205.258 260.672C205.688 260.359 206.068 259.959 206.4 259.471C206.752 258.982 207.084 258.416 207.396 257.771C207.455 257.654 207.582 257.547 207.777 257.449C207.973 257.332 208.168 257.273 208.363 257.273C208.617 257.273 208.852 257.381 209.066 257.596C209.301 257.791 209.418 258.055 209.418 258.387C209.418 258.543 209.379 258.719 209.301 258.914C209.223 259.09 209.145 259.256 209.066 259.412C208.734 259.998 208.344 260.564 207.895 261.111C207.465 261.639 206.947 262.107 206.342 262.518C205.756 262.908 205.092 263.221 204.35 263.455C203.607 263.689 202.777 263.797 201.859 263.777ZM196.85 256.395C196.85 256.766 196.898 257.156 196.996 257.566C197.094 257.977 197.24 258.387 197.436 258.797C197.65 259.188 197.904 259.568 198.197 259.939C198.51 260.291 198.871 260.594 199.281 260.848C199.34 260.438 199.369 260.037 199.369 259.646C199.369 259.119 199.33 258.582 199.252 258.035C199.174 257.488 199.057 256.99 198.9 256.541C198.764 256.072 198.588 255.701 198.373 255.428C198.158 255.135 197.904 254.988 197.611 254.988C197.494 254.988 197.338 255.076 197.143 255.252C196.947 255.428 196.85 255.809 196.85 256.395ZM229.984 258.826C229.906 258.982 229.74 259.314 229.486 259.822C229.252 260.311 228.939 260.877 228.549 261.521C228.178 262.166 227.738 262.84 227.23 263.543C226.723 264.246 226.156 264.891 225.531 265.477C224.906 266.062 224.232 266.551 223.51 266.941C222.787 267.312 222.025 267.498 221.225 267.498C220.092 267.498 219.135 267.137 218.354 266.414C217.592 265.691 217.035 264.783 216.684 263.689C216.02 264.803 215.229 265.691 214.311 266.355C213.393 267 212.475 267.322 211.557 267.322C210.834 267.322 210.18 267.195 209.594 266.941C209.008 266.668 208.51 266.297 208.1 265.828C207.689 265.34 207.367 264.773 207.133 264.129C206.918 263.484 206.811 262.781 206.811 262.02C206.811 260.496 207.064 259.158 207.572 258.006C208.1 256.834 208.764 255.857 209.564 255.076C210.365 254.295 211.244 253.709 212.201 253.318C213.178 252.928 214.115 252.732 215.014 252.732C215.619 252.732 216.176 252.82 216.684 252.996C217.191 253.152 217.621 253.328 217.973 253.523C218.344 253.719 218.627 253.904 218.822 254.08C219.018 254.236 219.125 254.324 219.145 254.344C219.359 254.598 219.467 254.861 219.467 255.135C219.467 255.428 219.359 255.691 219.145 255.926C218.93 256.141 218.676 256.248 218.383 256.248C218.07 256.248 217.807 256.141 217.592 255.926C217.553 255.887 217.465 255.818 217.328 255.721C217.191 255.604 217.006 255.486 216.771 255.369C216.537 255.252 216.254 255.154 215.922 255.076C215.609 254.979 215.248 254.93 214.838 254.93C214.232 254.93 213.588 255.066 212.904 255.34C212.221 255.613 211.596 256.043 211.029 256.629C210.463 257.195 209.984 257.918 209.594 258.797C209.223 259.656 209.037 260.682 209.037 261.873C209.037 262.244 209.076 262.625 209.154 263.016C209.232 263.387 209.369 263.729 209.564 264.041C209.76 264.354 210.023 264.607 210.355 264.803C210.688 264.998 211.098 265.096 211.586 265.096C211.938 265.096 212.338 264.979 212.787 264.744C213.256 264.51 213.695 264.148 214.105 263.66C214.535 263.172 214.916 262.557 215.248 261.814C215.6 261.072 215.844 260.193 215.98 259.178C216.02 258.904 216.146 258.68 216.361 258.504C216.576 258.309 216.83 258.211 217.123 258.211C217.396 258.211 217.631 258.318 217.826 258.533C218.041 258.748 218.158 258.992 218.178 259.266C218.197 259.637 218.236 260.164 218.295 260.848C218.354 261.512 218.48 262.176 218.676 262.84C218.891 263.504 219.203 264.08 219.613 264.568C220.023 265.057 220.59 265.301 221.312 265.301C221.781 265.301 222.24 265.174 222.689 264.92C223.158 264.666 223.607 264.334 224.037 263.924C224.486 263.494 224.906 263.016 225.297 262.488C225.707 261.941 226.078 261.395 226.41 260.848C226.742 260.301 227.035 259.773 227.289 259.266C227.543 258.758 227.758 258.318 227.934 257.947C228.031 257.732 228.168 257.566 228.344 257.449C228.539 257.332 228.744 257.273 228.959 257.273C229.291 257.273 229.555 257.4 229.75 257.654C229.965 257.889 230.072 258.143 230.072 258.416C230.072 258.553 230.043 258.689 229.984 258.826ZM244.633 258.885C244.418 259.334 244.145 259.871 243.812 260.496C243.5 261.102 243.139 261.736 242.729 262.4C242.318 263.064 241.859 263.729 241.352 264.393C240.844 265.037 240.287 265.623 239.682 266.15C239.096 266.658 238.461 267.068 237.777 267.381C237.113 267.713 236.4 267.879 235.639 267.879C234.467 267.879 233.461 267.518 232.621 266.795C231.781 266.072 231.068 265.125 230.482 263.953C229.896 262.781 229.418 261.453 229.047 259.969C228.695 258.465 228.422 256.941 228.227 255.398C228.031 253.836 227.895 252.322 227.816 250.857C227.758 249.393 227.729 248.094 227.729 246.961C227.729 245.32 227.777 243.621 227.875 241.863C227.992 240.105 228.168 238.387 228.402 236.707C228.637 235.027 228.93 233.436 229.281 231.932C229.652 230.428 230.082 229.109 230.57 227.977C231.078 226.844 231.654 225.945 232.299 225.281C232.943 224.617 233.676 224.285 234.496 224.285C235.141 224.285 235.717 224.441 236.225 224.754C236.752 225.047 237.191 225.535 237.543 226.219C237.895 226.902 238.168 227.791 238.363 228.885C238.559 229.979 238.656 231.316 238.656 232.898C238.656 234.852 238.451 236.873 238.041 238.963C237.631 241.033 237.074 243.123 236.371 245.232C235.668 247.342 234.838 249.451 233.881 251.561C232.924 253.65 231.898 255.691 230.805 257.684C231.293 260.164 231.947 262.117 232.768 263.543C233.588 264.949 234.574 265.652 235.727 265.652C236.508 265.652 237.26 265.35 237.982 264.744C238.705 264.119 239.369 263.387 239.975 262.547C240.58 261.707 241.107 260.857 241.557 259.998C242.025 259.119 242.387 258.416 242.641 257.889C242.738 257.693 242.875 257.547 243.051 257.449C243.227 257.332 243.422 257.273 243.637 257.273C243.969 257.273 244.232 257.391 244.428 257.625C244.643 257.859 244.75 258.123 244.75 258.416C244.75 258.533 244.711 258.689 244.633 258.885ZM229.955 247.107C229.955 248.357 229.984 249.559 230.043 250.711C230.102 251.863 230.18 252.967 230.277 254.021C231.098 252.439 231.879 250.76 232.621 248.982C233.363 247.186 234.018 245.379 234.584 243.562C235.15 241.727 235.6 239.91 235.932 238.113C236.283 236.297 236.459 234.568 236.459 232.928C236.459 230.623 236.273 228.973 235.902 227.977C235.531 226.98 235.033 226.482 234.408 226.482C233.998 226.482 233.598 226.766 233.207 227.332C232.836 227.898 232.484 228.67 232.152 229.646C231.82 230.623 231.518 231.775 231.244 233.104C230.971 234.432 230.736 235.857 230.541 237.381C230.365 238.904 230.219 240.496 230.102 242.156C230.004 243.816 229.955 245.467 229.955 247.107ZM245.922 256.16C245.805 256.473 245.658 256.824 245.482 257.215C245.326 257.605 245.141 258.016 244.926 258.445C244.75 258.777 244.564 259.041 244.369 259.236C244.193 259.412 243.959 259.5 243.666 259.5C243.334 259.5 243.07 259.402 242.875 259.207C242.68 258.992 242.582 258.748 242.582 258.475C242.582 258.377 242.592 258.299 242.611 258.24C242.631 258.162 242.68 258.045 242.758 257.889C243.266 256.912 243.637 256.062 243.871 255.34C244.125 254.598 244.33 253.826 244.486 253.025C244.35 252.576 244.252 252.195 244.193 251.883C244.135 251.57 244.105 251.248 244.105 250.916C244.105 250.271 244.242 249.754 244.516 249.363C244.789 248.953 245.17 248.748 245.658 248.748C246.107 248.748 246.459 248.943 246.713 249.334C246.986 249.725 247.123 250.203 247.123 250.77C247.123 251.082 247.094 251.395 247.035 251.707C246.977 252.02 246.898 252.41 246.801 252.879C247.25 253.992 247.699 254.979 248.148 255.838C248.598 256.697 248.998 257.488 249.35 258.211C249.701 258.914 249.984 259.578 250.199 260.203C250.434 260.828 250.551 261.453 250.551 262.078C250.551 262.898 250.385 263.68 250.053 264.422C249.721 265.164 249.174 265.789 248.412 266.297C248.51 266.316 248.607 266.326 248.705 266.326C248.803 266.326 248.9 266.326 248.998 266.326C250.111 266.326 251.137 266.072 252.074 265.564C253.012 265.057 253.852 264.402 254.594 263.602C255.355 262.781 256.029 261.883 256.615 260.906C257.201 259.91 257.709 258.924 258.139 257.947C258.334 257.498 258.607 257.273 258.959 257.273C259.291 257.273 259.545 257.391 259.721 257.625C259.916 257.859 260.014 258.113 260.014 258.387C260.014 258.543 259.984 258.689 259.926 258.826C259.711 259.354 259.428 259.959 259.076 260.643C258.744 261.307 258.334 262 257.846 262.723C257.377 263.426 256.83 264.119 256.205 264.803C255.58 265.486 254.877 266.102 254.096 266.648C253.334 267.176 252.494 267.596 251.576 267.908C250.658 268.24 249.652 268.406 248.559 268.406C247.25 268.406 246.029 268.172 244.896 267.703C243.783 267.254 242.875 266.502 242.172 265.447C242.055 265.271 241.996 265.086 241.996 264.891C241.996 264.598 242.104 264.344 242.318 264.129C242.553 263.895 242.816 263.777 243.109 263.777C243.422 263.777 243.686 263.885 243.9 264.1C243.92 264.139 243.988 264.207 244.105 264.305C244.223 264.383 244.359 264.48 244.516 264.598C244.691 264.695 244.887 264.783 245.102 264.861C245.336 264.939 245.57 264.979 245.805 264.979C246.273 264.979 246.664 264.881 246.977 264.686C247.309 264.49 247.572 264.256 247.768 263.982C247.963 263.689 248.1 263.387 248.178 263.074C248.275 262.742 248.324 262.459 248.324 262.225C248.324 261.736 248.246 261.248 248.09 260.76C247.934 260.271 247.729 259.783 247.475 259.295C247.24 258.807 246.977 258.309 246.684 257.801C246.41 257.273 246.156 256.727 245.922 256.16Z" fill="#9E7D77"/>
</g>
<defs>
<filter id="filter0_i_344_287" x="0" y="0" width="304" height="304" filterUnits="userSpaceOnUse" color-interpolation-filters="sRGB">
<feFlood flood-opacity="0" result="BackgroundImageFix"/>
<feBlend mode="normal" in="SourceGraphic" in2="BackgroundImageFix" result="shape"/>
<feColorMatrix in="SourceAlpha" type="matrix" values="0 0 0 0 0 0 0 0 0 0 0 0 0 0 0 0 0 0 127 0" result="hardAlpha"/>
<feOffset dx="10" dy="4"/>
<feGaussianBlur stdDeviation="2"/>
<feComposite in2="hardAlpha" operator="arithmetic" k2="-1" k3="1"/>
<feColorMatrix type="matrix" values="0 0 0 0 0 0 0 0 0 0 0 0 0 0 0 0 0 0 0.25 0"/>
<feBlend mode="normal" in2="shape" result="effect1_innerShadow_344_287"/>
</filter>
<linearGradient id="paint0_linear_344_287" x1="149.998" y1="90.2571" x2="149.998" y2="256.067" gradientUnits="userSpaceOnUse">
<stop stop-color="#F1DEED"/>
<stop offset="1" stop-color="#FBEEEA"/>
</linearGradient>
</defs>
</svg>
