<svg width="184" height="168" viewBox="0 0 184 168" fill="none" xmlns="http://www.w3.org/2000/svg">
<g filter="url(#filter0_d_328_463)">
<path d="M140 0H30C13.4315 0 0 13.4315 0 30V130C0 146.569 13.4315 160 30 160H140C156.569 160 170 146.569 170 130V30C170 13.4315 156.569 0 140 0Z" fill="white"/>
<path fill-rule="evenodd" clip-rule="evenodd" d="M71.246 118.129C65.0627 120.688 57.8137 120.897 50.9542 120.168C37.6746 118.757 24.2642 113.44 17.6613 103.819C14.8132 99.6695 13.3747 94.9641 12.3725 90.2663C11.0341 83.9924 10.4934 77.2476 13.8568 71.5146C16.6921 66.6814 21.9539 63.1645 27.1964 59.9874C32.6907 56.6575 38.6426 53.4201 45.4095 52.7546C64.9297 52.4353 62.9523 58.492 83.3381 48.8592C89.2644 46.0588 106.884 50.8657 112.837 52.4353C118.79 54.005 130.538 58.8476 138.505 64.6001C141.835 67.0046 144.906 69.7565 146.778 73.0668C149.58 78.0231 149.444 83.7967 148.137 89.1592C146.818 94.5682 143.955 100.194 138.139 102.908C135.512 104.135 132.482 104.661 129.474 104.862C116.911 105.702 103.548 101.273 92.0514 105.54C84.1813 108.461 78.9602 114.937 71.246 118.129Z" fill="url(#paint0_linear_328_463)"/>
<path fill-rule="evenodd" clip-rule="evenodd" d="M25.0369 79.3577C27.5627 77.0161 29.9366 74.6018 31.5341 72.4977C33.7332 69.6015 36.9576 66.8476 40.778 66.3162C45.2336 65.6966 49.3254 68.5877 52.5642 71.5332C57.0386 75.6028 61.054 80.1188 64.5216 84.9813C63.1308 85.1518 60.1333 87.1044 56.1501 87.0424C53.8055 87.0059 51.0043 85.0394 48.2966 84.908C46.4157 84.8169 44.3623 86.6697 42.4685 86.5284C39.1571 86.2814 36.06 83.9868 33.2667 83.5716C31.6026 83.3244 29.3567 84.8811 28.0777 84.5688C24.5621 83.7105 23.5203 80.7637 25.0369 79.3577Z" fill="white"/>
<path fill-rule="evenodd" clip-rule="evenodd" d="M100.775 115.787C111.691 112.4 123.52 116.326 135.013 116.181C140.105 116.117 145.548 115.059 149.053 111.583C141.376 107.328 135.548 100.562 131.303 93.1894C127.058 85.8168 124.267 77.7959 121.499 69.8253C117.857 67.8708 113.169 71.1761 109.172 69.9872C107.129 69.3799 104.689 67.7297 103.223 69.2C102.338 70.0877 100.69 69.5655 99.8294 68.6571C98.9688 67.7487 98.4894 66.5413 97.5188 65.7368C96.5482 64.9325 94.7061 64.8312 94.2122 65.9561C93.3572 67.9034 92.456 69.9147 90.8167 71.3496C89.1774 72.7845 86.5785 73.4772 84.6584 72.3936C83.1585 71.5473 82.4507 69.9004 81.5771 68.4747C80.7035 67.0488 80.3628 65.7671 78.6257 65.9561C72.7577 77.5921 68.3769 89.0309 61.1581 99.9732C58.0561 104.675 40.7005 122.6 30.6159 120.29C20.5313 117.98 21.2795 116.181 17.8739 113.34C21.4214 120.133 27.6882 125.477 34.8436 128.932C41.9991 132.387 50.0135 134.047 58.0301 134.648C61.1934 134.884 64.4019 134.959 67.5156 134.383C80.2763 132.022 88.4247 119.62 100.775 115.787Z" fill="white"/>
<path fill-rule="evenodd" clip-rule="evenodd" d="M89.8321 70.4021C90.9504 69.0424 91.649 67.4067 92.8012 66.0723C93.9533 64.7379 95.8242 63.7035 97.5671 64.2189C99.1891 64.6985 100.082 66.2912 100.805 67.7393C101.168 68.4664 102.271 68.5227 103.067 68.2311C103.862 67.9396 104.577 67.4125 105.426 67.3252C107.182 67.145 108.504 68.8568 110.22 69.2508C112.773 69.8375 115.339 67.3852 117.863 68.0772C118.93 68.3699 119.855 69.2103 120.964 69.1384C118.83 64.3241 117.223 59.3105 114.982 54.5391C112.742 49.7677 109.787 45.1627 105.485 41.8729C105.043 41.5347 104.559 41.1998 103.994 41.132C103.428 41.0641 102.773 41.3662 102.674 41.8944C102.38 43.4648 102.085 45.0351 101.791 46.6055C101.645 47.3828 101.26 48.3591 100.422 48.3441C99.8625 48.3343 99.4335 47.8187 99.3566 47.2977C99.2796 46.7768 99.4652 46.2564 99.6479 45.7594C100.221 44.202 100.793 42.6445 101.366 41.0872C97.4365 42.4218 94.0302 44.899 91.2066 47.7969C88.383 50.6951 86.0993 54.0164 83.9106 57.3658C82.0365 60.2334 80.2212 63.1349 78.4656 66.0683C80.8198 65.7536 82.8702 67.5729 84.2021 69.4268C84.9991 70.5359 85.9481 71.8575 87.3707 71.8526C88.3739 71.8492 89.2183 71.1488 89.8321 70.4021Z" fill="white"/>
<path fill-rule="evenodd" clip-rule="evenodd" d="M105.058 36.8862C104.798 36.8075 104.524 36.7179 104.347 36.5218C104.091 36.2396 104.108 35.827 104.139 35.4575C104.443 31.8052 104.747 28.1528 105.05 24.5005C105.086 24.0772 105.527 23.7653 105.973 23.7028C106.419 23.6403 106.868 23.7675 107.299 23.8931C110.078 24.7038 112.857 25.5145 115.636 26.3251C116.314 26.5229 116.35 27.4091 116.207 28.0638C116.064 28.7183 115.957 29.5588 116.564 29.9053C120.617 32.2178 124.924 34.1361 129.393 35.6198C129.682 35.7158 129.703 36.1293 129.502 36.3462C129.3 36.5632 128.978 36.6332 128.678 36.6933C124.14 37.6047 119.7 38.9453 115.445 40.6882C114.85 40.9321 114.073 41.155 113.623 40.714C113.304 40.4002 113.334 39.9098 113.307 39.4756C113.281 39.0417 113.077 38.5218 112.619 38.467C110.054 38.1602 107.52 37.6303 105.058 36.8862ZM114.579 29.4782C115.201 28.5517 114.757 27.1509 113.698 26.6955C111.187 25.6154 108.551 24.7913 105.852 24.2426C106.301 24.8941 106.277 25.7272 106.237 26.5026C106.085 29.4799 105.929 32.4847 105.103 35.3621C105.032 35.6111 105.372 35.7728 105.639 35.8291C108.033 36.3328 110.444 36.7612 112.869 37.113C112.669 34.9139 112.469 32.7149 112.27 30.5158C112.247 30.2716 112.227 30.0162 112.326 29.7892C112.486 29.4217 112.931 29.2218 113.353 29.2105C113.775 29.1992 114.183 29.3397 114.579 29.4782ZM114.059 31.2115C114.249 33.7916 114.44 36.3718 114.631 38.9519C114.647 39.1782 114.675 39.4278 114.853 39.581C118.717 38.0713 122.721 36.8766 126.803 36.0152C122.379 34.8196 118.647 31.549 114.059 31.2115Z" fill="#E2C7F0"/>
<path fill-rule="evenodd" clip-rule="evenodd" d="M71.1638 118.018C64.9632 120.695 57.6938 120.913 50.815 120.151C37.4981 118.675 24.0501 113.111 17.4286 103.045C14.5724 98.7028 13.1299 93.7794 12.1249 88.8639C11.5735 86.1672 10.5027 82.1283 12.4634 80.2952C12.9015 79.8857 25.2088 71.3439 30.0162 65.5463C32.0774 63.0605 35.0994 60.6971 38.6801 60.2412C42.8562 59.7093 46.6912 62.1905 49.7269 64.7186C53.9205 68.211 57.684 72.0867 60.934 76.2598C57.3526 74.9486 54.775 72.2235 52.396 69.5696C50.0171 66.916 47.5589 64.1393 44.076 62.6436C40.5932 61.1482 35.7567 61.3972 33.4948 64.1259C28.1034 70.6295 21.2835 76.2505 13.5039 80.6021C12.9188 80.9295 12.8659 81.6371 12.8769 82.2382C13.0033 89.1766 13.9035 97.0783 20.3442 101.243C25.7238 104.721 33.533 104.268 39.4258 101.474C45.3186 98.6809 49.6283 93.9561 53.328 89.116C64.1812 74.9183 71.2286 58.6899 82.894 44.9789C85.5757 41.8268 88.7351 38.6748 93.0556 37.4866C95.9385 36.6938 96.7467 33.5235 96.6938 30.9159C96.6407 28.3084 96.3545 25.3437 98.4554 23.4667C98.0124 27.8029 97.5697 32.1391 97.1269 36.4754C103.58 39.2363 107.349 45.1147 110.115 50.8477C114.222 59.3607 117.011 68.3214 121.335 76.7543C125.659 85.1873 131.797 93.2902 140.871 98.1746C145.071 93.4623 147.466 85.9186 147.466 81.6074C145.071 79.3578 141.669 75.8384 137.688 74.2537C132.943 72.3648 127.738 75.6765 123.926 78.7588C126.033 75.9951 128.562 73.0862 132.29 72.3035C135.299 71.6717 138.519 72.614 141.016 74.1937C143.513 75.7732 145.416 77.9353 147.283 80.0653C149.17 80.6021 149.582 82.0948 148.271 87.7057C146.948 93.3651 144.077 99.2514 138.245 102.092C135.61 103.375 132.572 103.925 129.556 104.136C116.958 105.015 103.556 100.38 92.0278 104.845C84.1355 107.902 78.9 114.678 71.1638 118.018ZM94.9133 102.698C105.144 99.7911 116.231 103.16 127.003 103.036C131.775 102.981 136.877 102.073 140.162 99.0895C132.966 95.4382 127.504 89.6316 123.526 83.3041C119.547 76.9768 116.931 70.0931 114.337 63.2526C110.923 61.5751 106.53 64.4119 102.783 63.3917C100.868 62.8703 98.5815 61.4541 97.2075 62.7161C96.3781 63.4778 94.8334 63.0296 94.0267 62.25C93.2199 61.4704 92.7705 60.4341 91.8608 59.7439C90.9512 59.0535 89.2246 58.9665 88.7617 59.9319C87.9604 61.6032 87.1157 63.3293 85.5793 64.5607C84.0429 65.7922 81.607 66.3867 79.8076 65.4568C78.4018 64.7305 77.7384 63.317 76.9196 62.0935C76.1008 60.8699 74.7446 59.6465 73.1164 59.8087C67.6166 69.7948 61.4644 79.5142 54.6987 88.9053C51.7914 92.9407 48.7141 96.9725 44.5502 100.084C40.3861 103.197 34.9483 105.325 29.4596 104.892C25.0303 104.543 21.007 102.599 17.2132 100.598C20.5381 106.428 26.4117 111.015 33.1183 113.979C39.8248 116.944 47.3364 118.369 54.85 118.884C57.8148 119.088 60.8218 119.151 63.7404 118.657C75.7004 116.631 83.3373 105.987 94.9133 102.698ZM84.444 63.0155C85.4922 61.8485 86.1469 60.4446 87.2268 59.2994C88.3066 58.1542 90.0602 57.2664 91.6937 57.7087C93.2139 58.1203 94.0503 59.4872 94.728 60.73C95.0683 61.3542 96.1027 61.4023 96.8484 61.1522C97.5939 60.9019 98.2641 60.4495 99.0593 60.3748C100.705 60.2199 101.944 61.689 103.553 62.0274C105.946 62.5307 108.351 60.4261 110.716 61.02C111.717 61.2714 112.583 61.9924 113.623 61.9309C111.623 57.799 110.127 53.7306 108.027 49.6357C105.927 45.5407 101.366 38.2989 97.7171 37.895C94.0267 37.4866 88.3787 41.128 85.7322 43.6152C83.0858 46.1023 80.9454 48.9528 78.8941 51.8272C77.1376 54.2883 75.4361 56.7785 73.7907 59.2959C75.9972 59.026 77.9189 60.5874 79.1673 62.1784C79.9142 63.1303 80.8037 64.2643 82.137 64.2601C83.0773 64.2572 83.8687 63.6561 84.444 63.0155Z" fill="#00160A"/>
<path fill-rule="evenodd" clip-rule="evenodd" d="M61.4283 23.4897C58.9551 23.726 56.9376 25.7696 55.9187 28.5354C55.6537 29.2544 54.7842 29.5863 53.2585 29.7247L53.1622 29.7331C49.7842 30.0166 47.5418 30.8354 46.4606 32.7074L46.4152 32.7876C46.3273 32.9467 46.252 33.1057 46.1419 33.3567L46.0707 33.5204C45.8155 34.1107 45.6849 34.3603 45.4666 34.6201C44.7866 35.4293 43.7633 35.6782 41.7153 35.7363L41.488 35.7418C36.5815 35.8446 33.1154 36.5463 30.3079 38.3918C29.5046 38.9198 29.0263 39.4438 28.9193 40.1154C28.7965 40.8853 29.2718 41.6823 30.0304 42.1201C30.6374 42.4701 31.3655 42.6084 32.2749 42.6109C33.3812 42.6141 34.4874 42.4328 35.5275 42.078L35.6144 42.0482C35.771 41.9933 35.9194 41.9377 36.1402 41.8517L36.6078 41.668C37.5671 41.2945 38.0324 41.162 38.6161 41.1332C39.5167 41.0888 40.2273 41.3124 41.7405 42.0083L42.0587 42.1553C42.3881 42.3069 42.6258 42.4127 42.8589 42.509L42.9223 42.5348C45.461 43.5669 48.0561 43.7395 52.2714 43.437L53.1033 43.3738L54.9452 43.227C55.4287 43.1901 55.775 43.1665 56.1737 43.1426L56.5586 43.1212C58.2006 43.0372 59.9531 43.0359 62.8153 43.0897L64.7836 43.1283C68.729 43.2014 70.5074 43.1818 72.4037 42.9979C74.6067 42.7846 76.0413 41.3369 76.6295 39.1923C77.1062 37.454 76.9327 35.4259 76.2686 34.4622C74.9424 32.538 72.9629 31.3789 71.1414 31.9129C70.5376 32.09 69.778 31.6727 69.3906 30.9881C69.1801 30.6163 69.0733 30.2809 68.8976 29.5293L68.8129 29.1656C68.7639 28.9599 68.7279 28.8226 68.6825 28.6679C68.0646 26.5634 66.3771 24.7665 64.234 23.9306C63.2935 23.5637 62.3368 23.403 61.4283 23.4897ZM63.9735 24.5218C65.8902 25.2693 67.4125 26.8684 67.9975 28.7413L68.027 28.8384C68.0692 28.9819 68.1032 29.1121 68.1503 29.31L68.2553 29.7591C68.4318 30.5049 68.5513 30.8665 68.7904 31.2891C69.3065 32.2007 70.3426 32.7822 71.2872 32.5395L71.3436 32.5241C72.8049 32.0955 74.5183 33.0988 75.6981 34.8104C76.2462 35.6055 76.4039 37.4534 75.971 39.0323C75.4479 40.9397 74.2202 42.1787 72.3341 42.3613L72.1226 42.3812C70.3859 42.5384 68.6583 42.5574 65.0953 42.4938L62.4939 42.4435C59.8108 42.3959 58.1183 42.4004 56.5205 42.4823L55.894 42.5184C55.4466 42.5467 55.02 42.5781 54.3232 42.6336L52.4024 42.7854C48.242 43.0941 45.7124 42.9463 43.2984 41.9901L43.1921 41.9473C42.9903 41.8653 42.7886 41.7772 42.5243 41.6569L41.9273 41.3821C40.3846 40.6779 39.6109 40.4433 38.5805 40.494C37.8763 40.5288 37.3495 40.6835 36.2567 41.1123L35.7735 41.3017C35.5824 41.3753 35.4489 41.4242 35.2959 41.4762C34.3307 41.8056 33.3035 41.9739 32.2769 41.9709C31.4811 41.9688 30.8675 41.8523 30.3856 41.5743C29.8448 41.2622 29.5127 40.7054 29.5918 40.2105C29.6639 39.7576 30.0334 39.3529 30.6971 38.9166C33.3339 37.1835 36.6298 36.5002 41.3125 36.3861L41.5032 36.3816C43.9051 36.3313 45.121 36.0629 46 35.0171C46.2489 34.721 46.3955 34.4556 46.6333 33.9159L46.8174 33.495C46.9105 33.2868 46.9762 33.1543 47.0578 33.0131C47.9697 31.4344 49.9347 30.6809 52.9498 30.3948L53.2227 30.3705C55.0293 30.2188 56.1284 29.8246 56.5391 28.8025L56.5611 28.7451C57.5024 26.19 59.3357 24.333 61.497 24.1265C62.2511 24.0543 63.058 24.1813 63.8638 24.4799L63.9735 24.5218Z" fill="#00160A"/>
<path fill-rule="evenodd" clip-rule="evenodd" d="M145.952 44.1005L145.868 44.1794C145.804 44.2408 145.741 44.3046 145.663 44.3859L145.351 44.7155C145.055 45.0283 144.894 45.1774 144.685 45.3263C144.228 45.651 143.68 45.7512 143.316 45.5594C143.169 45.4824 143.061 45.3813 142.85 45.1379L142.693 44.9561C142.612 44.8631 142.554 44.8019 142.482 44.7343C141.544 43.8443 139.905 43.8012 138.657 44.5096C137.681 45.0643 136.979 45.9136 136.211 47.2648C135.897 47.8169 135.207 48.1986 134.386 48.3153C133.987 48.372 133.568 48.3763 133.031 48.3388L132.769 48.3183L131.944 48.2396C127.604 47.8366 123.166 48.4139 119.105 49.9091C118.464 50.1451 118.108 50.3565 117.881 50.7503C117.555 51.318 117.886 52.1418 118.582 52.1783C130.487 52.7991 142.441 52.5869 154.312 51.5443L155.065 51.4777L155.615 51.4423C155.666 51.4387 155.708 51.4353 155.761 51.431L155.902 51.4178C156.985 51.3047 157.579 50.9666 157.579 50.119C157.579 49.3005 157.16 49.0765 156.101 48.9749L155.889 48.954C155.48 48.912 155.292 48.8804 155.039 48.8066C154.142 48.5448 153.072 47.9989 152.839 47.7263C152.494 47.3231 152.347 46.9436 152.137 46.0614L152.071 45.7822C151.85 44.8736 151.675 44.4401 151.259 43.9537C150.046 42.5346 147.458 42.7082 145.952 44.1005ZM150.729 44.355C151.074 44.758 151.221 45.1375 151.43 46.0183L151.497 46.2976C151.718 47.2079 151.893 47.6414 152.309 48.1278C152.646 48.5212 153.823 49.1217 154.838 49.4178L154.931 49.4443C155.174 49.51 155.378 49.5437 155.734 49.5816L156.203 49.6292C156.801 49.6958 156.899 49.776 156.899 50.119C156.899 50.5365 156.578 50.7117 155.769 50.7874L155.562 50.8043L155.044 50.8373C155.019 50.839 154.996 50.8409 154.973 50.8426L154.906 50.8484C142.852 51.9388 130.711 52.1698 118.62 51.5392C118.482 51.5321 118.368 51.2486 118.48 51.0547C118.605 50.8365 118.854 50.6886 119.353 50.5052C123.245 49.0718 127.495 48.5032 131.658 48.8569L132.168 48.9043L132.588 48.945C132.687 48.954 132.768 48.9608 132.858 48.9679C133.499 49.0182 133.999 49.0176 134.487 48.9483C135.504 48.8036 136.384 48.317 136.811 47.5669C137.526 46.3087 138.162 45.5383 139.009 45.0577C140.007 44.4904 141.303 44.5246 142 45.185L142.04 45.2247C142.074 45.2582 142.108 45.2943 142.149 45.341L142.28 45.4918C142.572 45.8329 142.727 45.9825 142.984 46.118C143.617 46.4516 144.442 46.3004 145.094 45.8372C145.334 45.6672 145.509 45.507 145.8 45.2034L146.162 44.8198C146.268 44.7102 146.342 44.6366 146.428 44.557C147.673 43.4069 149.797 43.2644 150.729 44.355Z" fill="#00160A"/>
<path fill-rule="evenodd" clip-rule="evenodd" d="M102.675 32.1466C102.619 29.1083 102.313 25.6538 104.555 23.4667C104.082 28.5193 103.61 33.5718 103.137 38.6244C103.904 38.9828 102.76 39.5825 102.067 39.5947C99.5828 39.6378 102.732 35.1849 102.675 32.1466Z" fill="#E2C7F0"/>
<path d="M67.2871 141.308C65.3145 141.308 63.6055 140.854 62.1602 139.945C60.7148 139.027 59.6016 137.758 58.8203 136.137C58.0391 134.516 57.6484 132.641 57.6484 130.512V130.16C57.6484 128.012 58.0391 126.132 58.8203 124.521C59.6113 122.899 60.6904 121.635 62.0576 120.727C63.4248 119.818 64.9775 119.364 66.7158 119.364C68.376 119.364 69.7822 119.555 70.9346 119.936C72.0967 120.316 73.0879 120.829 73.9082 121.474V125.78H71.5352L71.2275 122.689C70.749 122.377 70.1631 122.143 69.4697 121.986C68.7764 121.82 67.9561 121.737 67.0088 121.737C65.7881 121.737 64.6895 122.089 63.7129 122.792C62.7363 123.495 61.9648 124.477 61.3984 125.736C60.832 126.986 60.5488 128.451 60.5488 130.131V130.512C60.5488 132.211 60.8076 133.695 61.3252 134.965C61.8525 136.225 62.6191 137.206 63.625 137.909C64.6309 138.603 65.8516 138.949 67.2871 138.949C68.2637 138.949 69.0889 138.866 69.7627 138.7C70.4365 138.524 71.0322 138.3 71.5498 138.026V133.017L67.4629 132.87V130.746H74.4355V139.008C73.8203 139.584 72.9365 140.111 71.7842 140.59C70.6416 141.068 69.1426 141.308 67.2871 141.308ZM84.8799 141.308C83.415 141.308 82.1504 140.966 81.0859 140.282C80.0312 139.589 79.2158 138.637 78.6396 137.426C78.0635 136.205 77.7754 134.813 77.7754 133.251V132.929C77.7754 131.366 78.0635 129.979 78.6396 128.769C79.2158 127.548 80.0312 126.591 81.0859 125.897C82.1504 125.204 83.4053 124.857 84.8506 124.857C86.3154 124.857 87.5752 125.204 88.6299 125.897C89.6943 126.591 90.5146 127.543 91.0908 128.754C91.667 129.965 91.9551 131.356 91.9551 132.929V133.251C91.9551 134.823 91.667 136.22 91.0908 137.44C90.5146 138.651 89.6992 139.599 88.6445 140.282C87.5898 140.966 86.335 141.308 84.8799 141.308ZM84.8799 139.052C85.7979 139.052 86.5645 138.803 87.1797 138.305C87.8047 137.797 88.2734 137.108 88.5859 136.239C88.9082 135.36 89.0693 134.364 89.0693 133.251V132.929C89.0693 131.815 88.9082 130.824 88.5859 129.955C88.2734 129.076 87.8047 128.388 87.1797 127.89C86.5547 127.382 85.7783 127.128 84.8506 127.128C83.9326 127.128 83.1611 127.382 82.5361 127.89C81.9111 128.388 81.4424 129.076 81.1299 129.955C80.8174 130.824 80.6611 131.815 80.6611 132.929V133.251C80.6611 134.364 80.8174 135.36 81.1299 136.239C81.4424 137.108 81.9111 137.797 82.5361 138.305C83.1709 138.803 83.9521 139.052 84.8799 139.052ZM99.6016 141.308C97.9512 141.308 96.6963 140.907 95.8369 140.106C94.9775 139.296 94.5479 138.158 94.5479 136.693C94.5479 135.688 94.8213 134.813 95.3682 134.071C95.9248 133.319 96.7256 132.738 97.7705 132.328C98.8154 131.908 100.065 131.698 101.521 131.698H104.348V130.146C104.348 129.188 104.055 128.446 103.469 127.919C102.893 127.392 102.077 127.128 101.022 127.128C100.358 127.128 99.7822 127.211 99.2939 127.377C98.8057 127.533 98.3613 127.753 97.9609 128.036L97.6533 130.248H95.4268V126.615C96.1396 126.039 96.9697 125.604 97.917 125.312C98.8643 125.009 99.9141 124.857 101.066 124.857C102.99 124.857 104.499 125.316 105.593 126.234C106.687 127.152 107.233 128.466 107.233 130.175V137.807C107.233 138.012 107.233 138.212 107.233 138.407C107.243 138.603 107.258 138.798 107.277 138.993L108.815 139.154V141H104.67C104.582 140.57 104.514 140.185 104.465 139.843C104.416 139.501 104.382 139.159 104.362 138.817C103.806 139.53 103.107 140.126 102.268 140.604C101.438 141.073 100.549 141.308 99.6016 141.308ZM100.026 138.891C100.983 138.891 101.857 138.661 102.648 138.202C103.439 137.743 104.006 137.191 104.348 136.547V133.676H101.418C100.09 133.676 99.0938 133.993 98.4297 134.628C97.7656 135.263 97.4336 135.971 97.4336 136.752C97.4336 137.445 97.6484 137.978 98.0781 138.349C98.5078 138.71 99.1572 138.891 100.026 138.891ZM110.91 141V139.154L113.298 138.744V120.419L110.91 120.009V118.148H116.184V138.744L118.571 139.154V141H110.91ZM127.053 141.308C125.988 141.308 124.992 141.2 124.064 140.985C123.137 140.771 122.15 140.438 121.105 139.989L121.076 136.225H123.259L123.801 138.495C124.348 138.72 124.875 138.886 125.383 138.993C125.9 139.091 126.457 139.14 127.053 139.14C128.225 139.14 129.064 138.915 129.572 138.466C130.08 138.017 130.334 137.46 130.334 136.796C130.334 136.171 130.075 135.644 129.558 135.214C129.05 134.774 128.122 134.403 126.774 134.101C124.86 133.661 123.449 133.075 122.541 132.343C121.643 131.601 121.193 130.614 121.193 129.384C121.193 128.524 121.442 127.758 121.94 127.084C122.438 126.4 123.132 125.858 124.021 125.458C124.909 125.058 125.944 124.857 127.126 124.857C128.327 124.857 129.353 124.994 130.202 125.268C131.062 125.541 131.809 125.907 132.443 126.366L132.59 129.984H130.422L129.953 127.875C129.611 127.621 129.206 127.426 128.737 127.289C128.269 127.152 127.731 127.084 127.126 127.084C126.228 127.084 125.495 127.294 124.929 127.714C124.372 128.134 124.094 128.661 124.094 129.296C124.094 129.667 124.172 129.989 124.328 130.263C124.494 130.536 124.807 130.785 125.266 131.01C125.725 131.225 126.398 131.439 127.287 131.654C129.494 132.172 131.032 132.831 131.901 133.632C132.78 134.433 133.22 135.419 133.22 136.591C133.22 137.929 132.722 139.052 131.726 139.96C130.739 140.858 129.182 141.308 127.053 141.308Z" fill="#9E7D77"/>
</g>
<defs>
<filter id="filter0_d_328_463" x="0" y="0" width="184" height="168" filterUnits="userSpaceOnUse" color-interpolation-filters="sRGB">
<feFlood flood-opacity="0" result="BackgroundImageFix"/>
<feColorMatrix in="SourceAlpha" type="matrix" values="0 0 0 0 0 0 0 0 0 0 0 0 0 0 0 0 0 0 127 0" result="hardAlpha"/>
<feOffset dx="10" dy="4"/>
<feGaussianBlur stdDeviation="2"/>
<feComposite in2="hardAlpha" operator="out"/>
<feColorMatrix type="matrix" values="0 0 0 0 0 0 0 0 0 0 0 0 0 0 0 0 0 0 0.25 0"/>
<feBlend mode="normal" in2="BackgroundImageFix" result="effect1_dropShadow_328_463"/>
<feBlend mode="normal" in="SourceGraphic" in2="effect1_dropShadow_328_463" result="shape"/>
</filter>
<linearGradient id="paint0_linear_328_463" x1="80.1833" y1="48" x2="80.1833" y2="120.533" gradientUnits="userSpaceOnUse">
<stop stop-color="#EEDBF1"/>
<stop offset="1" stop-color="#FED9B8" stop-opacity="0"/>
</linearGradient>
</defs>
</svg>
