<svg width="300" height="300" viewBox="0 0 300 300" fill="none" xmlns="http://www.w3.org/2000/svg">
<g filter="url(#filter0_i_594_585)">
<path d="M240 0H60C26.8629 0 0 26.8629 0 60V240C0 273.137 26.8629 300 60 300H240C273.137 300 300 273.137 300 240V60C300 26.8629 273.137 0 240 0Z" fill="white"/>
<path fill-rule="evenodd" clip-rule="evenodd" d="M218.023 186.645C254.311 154.422 207.461 136.036 216.095 108.805C224.73 81.5751 246.585 40.6238 165.038 47.8386C83.4914 55.0534 15.7907 137.022 44.8625 175.6C73.9342 214.178 181.735 218.868 218.023 186.645Z" fill="url(#paint0_linear_594_585)"/>
<path fill-rule="evenodd" clip-rule="evenodd" d="M150.732 120.063C153.086 121.213 155.44 122.362 157.794 123.511C161.503 125.322 165.275 127.176 168.265 130.023C171.256 132.87 173.395 136.92 172.947 141.028C172.42 145.857 168.61 149.578 165.033 152.858C160.37 157.134 155.708 161.41 151.045 165.685C149.001 167.559 146.764 170.227 147.864 172.774C150.722 179.388 153.311 186.911 150.713 193.631C149.979 195.529 148.46 197.488 146.43 197.394C144.92 197.325 143.723 196.136 142.752 194.976C138.892 190.364 136.028 184.92 134.411 179.124C132.342 171.701 132.594 163.003 137.631 157.178C141.544 152.651 148.287 149.607 148.704 143.633C141.08 137.148 130.05 134.937 120.523 137.986C110.994 141.034 103.286 149.239 100.826 158.951C99.4859 164.24 102.485 169.685 106.174 173.699C109.862 177.715 114.387 181.043 117.226 185.7C122.934 195.067 120.442 207.061 117.771 217.703C116.844 221.397 111.251 222.013 108.467 219.42C105.682 216.828 105.203 212.592 105.498 208.796C105.793 204.999 106.677 201.161 105.935 197.427C104.02 187.787 92.756 183.387 87.2366 175.261C83.0536 169.103 82.477 161.046 84.0261 153.76C85.5748 146.475 89.0383 139.763 92.4652 133.153C86.0882 123.373 83.4113 111.235 85.0816 99.6745C85.9244 93.8414 78.2604 89.3532 79.0583 83.5141C79.6955 78.8536 85.1533 76.7492 89.7671 75.8724C98.5478 74.2036 107.527 73.5868 116.453 74.0391C118.449 74.1401 119.327 71.2357 118.328 69.5025C117.328 67.7689 115.377 66.8765 113.76 65.6994C110.504 63.3281 108.458 59.5894 107.33 55.7181C105.882 50.75 105.879 45.109 108.568 40.6894C109.24 39.5851 110.395 37.9481 112.153 39.5344C112.681 36.7656 118.28 34.1044 121.86 35.5909C124.005 36.4818 126.292 34.6547 127.655 32.7711C129.019 30.8875 130.338 28.613 132.604 28.1019C136.662 27.1867 139.26 32.6257 138.793 36.7656C138.325 40.9056 136.508 45.2791 138.292 49.0425C138.971 50.4732 140.146 51.7122 140.371 53.2801C140.566 54.6404 140.216 54.1099 139.455 57.2416C138.693 60.3729 136.858 61.3789 136.101 63.1112C134.937 65.7778 135.112 68.12 132.678 70.4802C132.269 70.8773 133.103 71.7875 132.808 72.4617C138.801 72.5478 143.353 77.5539 147.992 81.356C153.76 86.0845 160.817 89.3923 168.242 90.0339C175.668 90.6754 183.439 88.493 188.983 83.503C191.153 81.5497 196.331 84.1017 196.709 81.2033C196.781 80.4523 196.583 80.1291 195.873 79.9443C195.506 79.8488 194.637 80.0475 194.367 79.6999C193.577 78.6812 198.181 76.9248 197.986 78.3238C197.936 78.6822 197.727 78.9469 197.754 79.179C197.831 79.8539 198.214 80.0621 198.806 80.1812C200.054 80.2593 201.842 79.4021 202.587 78.3238C203.087 77.6016 202.892 77.4098 202.501 77.3781C201.86 77.3257 200.691 77.7006 201.17 76.8806C201.758 75.8724 203.275 74.9163 204.718 75.794C205.029 75.9835 204.92 76.3514 204.76 76.7127C204.467 77.3759 204.004 78.0168 205.661 77.4955C208.221 76.6902 208.367 76.841 209.029 77.0378C209.69 77.2346 210.661 78.4031 211.283 79.4948C212.562 81.7408 213.874 84.0966 213.993 86.6797C214.113 89.2628 212.625 92.1192 210.096 92.6357C210.074 93.3874 210.44 94.0956 210.997 94.5937C211.604 95.1366 213.163 94.8058 212.901 95.2908C212.05 96.8666 209.977 97.2708 208.345 96.7194C207.897 96.5679 208.931 95.7924 209.029 95.255C209.186 94.3943 209.007 93.4677 208.484 92.7646C207.008 93.3903 205.532 94.0159 204.056 94.642C204.484 95.1905 204.289 95.8419 204.718 96.3905C205.122 96.9086 206.16 96.7774 206.334 97.5127C206.524 98.3123 204.991 98.6479 204.199 98.7225C203.331 98.8044 201.98 98.8939 201.576 98.3123C201.116 97.6511 202.556 97.4393 202.623 96.7476C202.695 95.9924 202.42 95.1854 201.758 94.82C200.49 94.1201 198.672 95.4089 198.908 96.8394C199.504 100.443 198.014 104.318 195.158 106.59C192.302 108.861 188.196 109.437 184.827 108.038C181.782 106.773 178.408 108.4 175.256 109.37C168.11 111.568 159.956 110.166 153.952 105.706C153.605 110.692 152.652 116.092 149.471 119.768C149.987 120.063 149.722 120.063 150.732 120.063Z" fill="white"/>
<path d="M118.5 67C119.328 67 120 66.1046 120 65C120 63.8954 119.328 63 118.5 63C117.672 63 117 63.8954 117 65C117 66.1046 117.672 67 118.5 67Z" fill="#FFB61D"/>
<path d="M131.5 63C132.328 63 133 62.3284 133 61.5C133 60.6716 132.328 60 131.5 60C130.672 60 130 60.6716 130 61.5C130 62.3284 130.672 63 131.5 63Z" fill="#FFB61D"/>
<path fill-rule="evenodd" clip-rule="evenodd" d="M141.813 138.048C141.032 137.698 140.249 137.347 139.461 137.005C133.693 134.503 126.775 132.703 121.334 135.848C120.503 130.557 126.194 126.517 131.432 125.32C132.869 124.991 134.351 124.759 135.833 124.526C139.756 123.91 143.679 123.293 146.759 120.908C151.33 117.368 152.55 111.056 152.952 105.3C158.956 109.736 167.11 111.131 174.256 108.944C174.801 108.777 175.353 108.591 175.909 108.403C178.565 107.505 181.309 106.579 183.827 107.619C187.196 109.011 191.302 108.438 194.158 106.179C197.014 103.919 198.504 100.064 197.908 96.4791C197.672 95.0561 199.49 93.774 200.758 94.4704C201.42 94.8338 201.695 95.6366 201.623 96.3878C201.593 96.6957 201.288 96.9082 201.002 97.1078C200.648 97.3541 200.322 97.5809 200.576 97.9443C200.98 98.5229 202.331 98.4338 203.199 98.3523C203.991 98.2781 205.524 97.9443 205.334 97.1489C205.234 96.7298 204.851 96.5937 204.465 96.457C204.178 96.355 203.89 96.2527 203.718 96.0326C203.503 95.7597 203.445 95.4613 203.387 95.1629C203.328 94.8645 203.27 94.566 203.056 94.2932L207.484 92.4256C208.007 93.1251 208.186 94.0469 208.029 94.903C207.987 95.1329 207.771 95.4067 207.576 95.6558C207.316 95.9865 207.09 96.2738 207.345 96.3597C208.977 96.9082 211.05 96.5062 211.901 94.9387C212.034 94.6933 211.697 94.6579 211.253 94.6112C210.823 94.566 210.296 94.5105 209.997 94.2452C209.44 93.7497 209.074 93.0452 209.096 92.2974C211.625 91.7836 213.113 88.9422 212.993 86.3726C212.874 83.803 211.562 81.4595 210.283 79.2253C209.661 78.1393 208.69 76.9769 208.029 76.7811C207.988 76.7691 207.949 76.7571 207.911 76.7454C207.34 76.5705 207.062 76.4852 204.661 77.2365C203.174 77.702 203.394 77.2359 203.667 76.6586C203.698 76.5926 203.73 76.5253 203.76 76.4578C203.92 76.0984 204.029 75.7324 203.718 75.5439C202.275 74.6707 200.758 75.6219 200.17 76.6248C199.819 77.2239 200.355 77.1819 200.919 77.138C201.123 77.1219 201.33 77.1058 201.501 77.1197C201.892 77.1512 202.087 77.342 201.587 78.0604C200.842 79.1331 199.054 79.9858 197.806 79.9081C197.214 79.7897 196.831 79.5825 196.754 78.9111C196.74 78.7883 196.792 78.6563 196.852 78.5063C196.904 78.374 196.963 78.2274 196.986 78.0604C197.181 76.6687 192.577 78.416 193.367 79.4293C193.543 79.6548 193.973 79.6494 194.353 79.6444C194.556 79.6419 194.745 79.6397 194.873 79.6725C195.583 79.8563 195.781 80.1778 195.709 80.9249C195.503 82.4991 193.865 82.4568 192.067 82.4104C190.573 82.3719 188.968 82.3305 187.983 83.2125C182.439 88.1764 174.668 90.3474 167.242 89.7092C159.817 89.071 152.76 85.7805 146.992 81.0768C146.195 80.4275 145.402 79.7429 144.603 79.0542C140.748 75.7292 136.772 72.3001 131.808 72.229C131.954 71.8972 131.824 71.5078 131.704 71.1516C131.582 70.7875 131.472 70.4575 131.678 70.2579C132.96 69.0213 133.615 66.6127 134.182 64.5266C134.691 62.6518 135.13 61.0378 135.889 60.7697C137.408 60.2332 137.854 58.8936 138.368 57.3488C138.397 57.2626 138.425 57.1757 138.455 57.0886C138.63 56.5656 138.787 56.1431 138.92 55.7834C139.327 54.6829 139.518 54.1675 139.371 53.1478C139.224 52.131 138.674 51.2531 138.12 50.3708C137.824 49.8996 137.528 49.4275 137.292 48.9324C135.994 46.2087 136.602 43.1642 137.21 40.1212C137.438 38.9815 137.665 37.842 137.793 36.7198C138.26 32.6015 135.662 27.191 131.604 28.1014C129.627 28.545 128.371 30.3243 127.177 32.0154C127.002 32.2623 126.829 32.5074 126.655 32.7462C125.292 34.6199 123.005 36.4374 120.86 35.5511C117.28 34.0725 111.681 36.7198 111.153 39.4741C109.395 37.8961 108.24 39.5245 107.568 40.623C104.879 45.0194 104.882 50.631 106.33 55.5731C107.458 59.4241 109.504 63.1432 112.76 65.5021C113.174 65.8021 113.61 66.0835 114.046 66.3648C115.314 67.1827 116.584 68.0025 117.328 69.2853C118.327 71.0095 117.449 73.8986 115.453 73.7982C106.527 73.3482 97.5478 73.9618 88.7671 75.6219C84.1533 76.4941 78.6956 78.5874 78.0584 83.2235C77.6602 86.1215 79.3684 88.6851 81.0757 91.2471C82.7905 93.8201 84.5041 96.3919 84.0816 99.2994C82.4113 110.799 85.0883 122.874 91.4652 132.602C88.0383 139.178 84.5749 145.855 83.0261 153.102C81.477 160.35 82.0536 168.365 86.2367 174.491C88.4166 177.683 91.4923 180.297 94.5346 182.883C99.1951 186.844 103.776 190.738 104.935 196.54C105.48 199.267 105.148 202.05 104.816 204.831C104.696 205.838 104.576 206.845 104.498 207.85C104.203 211.626 104.682 215.839 107.467 218.418C109.056 219.891 111.562 220.323 113.592 219.738C113.574 220.049 113.556 220.338 113.54 220.61C113.447 222.091 113.387 223.063 113.647 224.215C113.715 224.515 113.825 224.856 114.114 224.966C114.688 225.183 115.071 224.307 115.032 223.712C114.885 221.459 114.603 220.188 114.332 219.47C115.513 218.944 116.44 218.023 116.771 216.711C119.442 206.123 121.934 194.192 116.226 184.875C114.34 181.797 111.71 179.302 109.075 176.803C107.744 175.541 106.412 174.277 105.174 172.937C101.485 168.943 98.4859 163.527 99.8257 158.266C102.286 148.605 109.994 140.443 119.523 137.41C129.05 134.378 140.08 136.576 147.704 143.028C147.42 147.076 144.201 149.771 140.941 152.502C139.414 153.78 137.878 155.066 136.631 156.502C131.594 162.296 131.342 170.949 133.411 178.333C135.028 184.099 137.892 189.514 141.752 194.102C142.723 195.256 143.92 196.439 145.43 196.508C147.46 196.601 148.979 194.652 149.713 192.765C152.311 186.079 149.722 178.596 146.864 172.016C145.764 169.483 148.001 166.829 150.045 164.965L164.033 152.204C167.61 148.942 171.42 145.241 171.947 140.437C172.395 136.35 170.256 132.321 167.265 129.489C164.275 126.657 160.503 124.812 156.794 123.011L149.732 119.582C152.06 122.563 155.574 124.237 159.033 125.885C159.702 126.204 160.368 126.521 161.023 126.847C165.072 128.858 169.227 131.794 170.154 136.206C171.293 141.626 167.155 146.601 163.32 150.608C158.463 155.682 153.563 160.792 147.793 164.806C145.83 166.171 143.653 167.442 141.261 167.528C138.868 167.613 136.265 166.119 135.889 163.762C135.55 161.635 137.021 159.685 138.403 158.03L148.63 145.788C150.185 143.927 152.232 143.443 154.668 142.867C155.525 142.664 156.43 142.45 157.378 142.161C151.639 142.453 146.753 140.263 141.813 138.048ZM100.424 105.146C100.837 108.851 101.982 112.562 104.305 115.484C106.628 118.407 110.248 120.441 113.985 120.279C115.237 120.225 115.638 118.37 114.895 117.364C114.25 116.493 113.184 116.096 112.151 115.711C111.993 115.653 111.836 115.594 111.681 115.534C110.513 115.082 109.267 114.326 109.057 113.096C112.352 115.651 117.272 115.888 120.8 113.661C122.027 117.173 126.1 119.282 129.786 118.702C133.472 118.122 136.554 115.186 137.776 111.673C137.8 111.605 137.823 111.537 137.846 111.47C138.032 110.923 138.222 110.361 138.644 109.973C139.038 109.612 139.574 109.459 140.089 109.317L150.168 106.54C150.418 106.471 150.702 106.406 150.924 106.54C151.161 106.683 151.226 106.991 151.26 107.265C151.958 112.775 148.854 118.562 143.869 121.046C141.197 122.378 138.142 122.813 135.114 123.245C131.164 123.808 127.258 124.364 124.302 126.898C122.693 128.277 121.577 130.088 120.459 131.903C119.925 132.77 119.39 133.637 118.801 134.459C115.188 139.499 108.553 142.911 102.66 140.942C99.2785 139.812 96.6495 137.137 94.4885 134.309C87.9837 125.794 84.5502 114.999 84.9455 104.304C85.0172 102.364 85.2174 100.4 85.9215 98.5892C90.3869 103.761 95.5504 108.333 101.229 112.144C101.031 111.118 100.317 110.276 99.6065 109.506C97.5744 107.306 95.3309 105.244 93.0904 103.185C87.8798 98.3972 82.6822 93.6215 80.1796 87.1286C79.6295 85.7012 79.2225 84.1431 79.5613 82.652C80.3302 79.2699 84.3188 77.8621 87.7302 77.1752C95.9223 75.5265 104.283 74.7096 112.64 74.7418C113.084 79.9005 117.392 84.5145 122.543 85.1937C127.694 85.873 133.123 82.4375 134.569 77.4645C134.612 77.3167 134.652 77.1673 134.692 77.0173C134.872 76.3491 135.054 75.674 135.483 75.139C136.009 74.4841 137.079 74.162 137.693 74.7361C142.244 78.9904 147.019 83.0805 152.461 86.1231C157.903 89.1657 164.086 91.128 170.319 90.853C159.671 94.7243 148.787 97.9513 137.746 100.51C136.902 100.706 135.857 100.834 135.314 100.161C133.391 97.7738 130.256 96.4115 127.192 96.6322C124.128 96.853 121.222 98.6505 119.663 101.289C119.099 102.243 117.691 102.123 116.62 101.825C114.393 101.204 112.1 100.248 110.784 98.3523C110.561 98.0324 110.369 97.6879 110.177 97.3444C109.8 96.6717 109.425 96.0013 108.832 95.521C107.993 94.8414 106.893 94.6759 105.804 94.5117C105.501 94.4662 105.199 94.4208 104.904 94.3643C101.542 93.7229 98.5649 91.3403 97.2103 88.208C100.379 86.0931 104.659 87.0967 108.158 88.6093C108.71 88.8474 109.262 89.0975 109.816 89.3489C112.783 90.6926 115.81 92.0634 119.01 91.7704C121.731 91.5215 124.105 90.1106 126.49 88.6936C128.599 87.4406 130.715 86.1831 133.085 85.7199C139.167 84.5312 145.136 89.0438 147.983 94.5291C148.005 94.5711 148.026 94.6134 148.049 94.6557C148.514 95.556 149.018 96.5302 149.952 96.9082C148.999 91.5692 144.975 86.8861 139.828 85.1265C134.68 83.3666 128.618 84.6013 124.577 88.2329C122.07 90.4864 118.259 90.6455 114.986 89.8175C113.143 89.3508 111.386 88.6204 109.628 87.8896C108.265 87.3228 106.901 86.7556 105.495 86.311C102.277 85.2932 98.5595 84.992 95.6947 86.7733C94.8349 84.8849 93.6843 83.1279 92.2956 81.5833C93.672 89.4531 100.875 95.9236 108.872 96.4743L104.434 98.1547C103.397 98.5472 102.323 98.9643 101.562 99.7687C100.259 101.146 100.214 103.264 100.424 105.146ZM98.2343 160.193C97.8033 162.359 97.5665 164.706 98.5387 166.69C99.0628 167.759 99.8995 168.638 100.722 169.502L100.779 169.561C105.728 174.759 110.377 180.241 114.694 185.972C112.777 187.807 110.643 189.417 108.35 190.757C107.712 191.131 107.022 191.494 106.281 191.48C105.178 191.46 104.281 190.629 103.505 189.848C98.083 184.389 92.8008 178.792 87.6657 173.064C86.033 171.243 84.3731 169.336 83.6311 167.008C82.6879 164.05 83.3554 160.849 84.0289 157.819C85.8855 149.461 87.8388 140.876 92.6802 133.805C95.4001 138.672 100.437 142.184 105.958 143.064C102.13 148.095 99.4673 154 98.2343 160.193ZM132.726 67.0176C131.916 68.7052 130.551 70.196 128.779 70.814C126.417 71.6382 123.819 70.8137 121.506 69.8603C120.305 69.3648 119.091 68.8154 118.16 67.91C117.37 67.142 116.829 66.1599 116.327 65.18C114.766 62.1282 113.476 58.9388 112.477 55.6612C111.651 52.9511 111.226 49.5213 113.424 47.7264C115.936 49.6473 119.314 50.1292 122.459 49.7648C125.255 49.4408 127.934 48.5146 130.599 47.5934C130.931 47.4785 131.263 47.3635 131.595 47.2498C131.975 47.1201 132.424 47.0004 132.751 47.2312C133.002 47.4077 133.09 47.7317 133.158 48.0298C134.17 52.4648 134.465 57.0611 134.028 61.5882C133.848 63.4501 133.536 65.3303 132.726 67.0176ZM142.818 193.711C138.315 187.73 135.299 180.646 134.112 173.263C133.602 170.093 133.437 166.771 134.497 163.74C135.509 167.71 140.304 170.246 144.171 168.855C145.181 170.927 146.098 173.044 146.921 175.196C149.081 180.852 150.552 187.287 148.159 192.849C147.584 194.186 146.448 195.61 145.004 195.396C144.068 195.257 143.385 194.465 142.818 193.711ZM112.84 39.2685C113.978 37.2369 116.483 36.2047 118.809 36.4C119.352 36.4455 119.893 36.5143 120.423 36.5816C122.102 36.795 123.673 36.9945 124.859 36.4C126.665 35.4947 127.419 34.2363 128.187 32.9554C128.7 32.1004 129.219 31.2353 130.06 30.4586C130.592 29.9673 131.186 29.4957 131.894 29.3404C133.344 29.0227 134.735 30.1225 135.561 31.3513C137.332 33.9886 137.566 37.5782 136.151 40.4215C134.593 43.5529 131.382 45.5124 128.168 46.9138C125.855 47.9228 123.407 48.741 120.883 48.7931C118.358 48.8452 115.731 48.0485 113.99 46.2257C112.25 44.4027 111.609 41.4655 112.84 39.2685ZM105.721 204.059C105.613 203.259 105.528 202.366 106.015 201.721C108.012 201.9 110.072 201.179 111.518 199.795C111.078 198.891 109.717 198.952 108.857 199.477C108.527 199.679 108.224 199.926 107.922 200.173C107.436 200.569 106.953 200.963 106.365 201.162C105.796 200.602 105.898 199.612 106.371 198.969C106.844 198.326 107.587 197.946 108.303 197.59L112.809 195.344C111.943 194.49 110.5 194.479 109.395 194.99C108.29 195.501 107.445 196.428 106.632 197.331C105.729 195.759 106.373 193.504 107.971 192.641L113.809 189.493C114.262 189.249 114.743 188.997 115.259 189.012C116.375 189.046 117.048 190.25 117.353 191.32C118.236 194.416 117.967 197.706 117.69 200.913C117.284 205.628 116.87 210.38 115.543 214.924C115.086 216.49 114.364 218.196 112.844 218.803C111.196 219.462 109.257 218.462 108.272 216.99C107.286 215.518 107.024 213.696 106.787 211.943L105.721 204.059ZM183.542 97.1489C184.173 97.0718 184.721 96.3442 184.413 95.7891L182.243 91.8777C181.957 91.3624 181.664 90.8252 181.627 90.2375C181.588 89.6502 181.883 88.9968 182.445 88.8152C183.249 88.555 183.989 89.3303 184.455 90.0338C185.436 91.5165 186.292 93.0812 187.01 94.7066C187.862 93.5754 186.931 92.0135 186.081 90.8811C185.231 89.749 184.487 88.0128 185.55 87.0762C186.601 86.1512 188.27 87.0992 189.074 88.243C189.497 88.8439 189.844 89.5103 190.19 90.1744C190.861 91.4606 191.527 92.7376 192.725 93.5091C193.242 93.1939 192.984 92.4038 192.671 91.8866L188.65 85.2534C188.29 84.6604 188.884 83.8561 189.572 83.756C190.261 83.6559 190.925 84.0225 191.499 84.4125C194.265 86.2886 196.467 89.16 196.986 92.4531C197.506 95.7461 196.095 99.4046 193.195 101.067C192.319 101.57 191.342 101.883 190.349 102.075C184.304 103.246 177.688 99.39 175.75 93.5656C175.454 92.6741 175.382 91.4565 176.224 91.0343C176.865 90.7125 177.64 91.0949 178.175 91.5733C178.947 92.2646 179.499 93.1491 180.051 94.0339C180.582 94.8863 181.114 95.7392 181.844 96.4204C182.309 96.8542 182.909 97.2259 183.542 97.1489ZM120.483 103.693C121.225 103.716 121.995 103.74 122.613 104.138C123.293 104.577 123.59 105.69 122.945 106.18C122.701 106.365 122.384 106.419 122.081 106.468C119.264 106.918 116.05 107.268 113.86 105.446C113.367 105.67 113.224 106.345 113.424 106.846C113.626 107.347 114.073 107.703 114.52 108.006C116.508 109.353 118.887 110.118 121.29 110.183C119.716 111.541 117.413 112.003 115.435 111.357C114.658 111.104 113.566 110.815 113.222 111.554C114.746 113.005 117.072 113.117 119.179 113.144C115.414 114.932 110.474 113.768 107.912 110.488C107.73 110.254 107.318 110.374 107.173 110.632C107.028 110.89 107.068 111.208 107.111 111.501C107.333 112.991 107.637 114.629 108.824 115.562C109.453 116.056 110.232 116.271 111.012 116.486C111.323 116.572 111.634 116.658 111.936 116.762C112.994 117.125 114.088 117.922 114.098 119.037C110.689 119.33 107.352 117.405 105.288 114.686C103.225 111.966 102.277 108.557 101.84 105.175C101.726 104.301 101.647 103.396 101.902 102.552C102.409 100.872 104.075 99.8558 105.61 98.9962C106.724 98.3726 108.26 97.7981 109.143 98.7174C112.021 101.713 116.095 103.535 120.254 103.686C120.33 103.689 120.406 103.691 120.483 103.693ZM127.794 109.734L171.42 97.699C173.319 97.1748 175.568 96.7166 177.088 97.9671C159.816 103.286 142.322 107.892 124.667 111.768C123.706 111.979 122.336 111.937 122.168 110.971C122.748 110.992 122.746 110.344 122.744 109.658C122.741 108.983 122.738 108.272 123.292 108.129L174.13 94.8967C174.437 94.8168 174.827 94.7634 175.016 95.0179C175.322 95.4323 174.695 95.8949 174.198 96.0326L125.711 109.465C126.151 110.068 127.074 109.932 127.794 109.734ZM176.981 106.266C173.833 108.367 169.838 108.919 166.076 108.474C162.314 108.03 158.727 106.665 155.24 105.188L176.113 99.3578C176.844 99.1535 177.748 98.9928 178.264 99.5486C182.499 104.109 190.205 104.922 195.306 101.348C194.711 104.186 192.136 106.494 189.241 106.784C187.592 106.949 185.968 106.523 184.353 106.098C183.924 105.986 183.496 105.873 183.069 105.772C181.029 105.29 178.723 105.103 176.981 106.266ZM119.302 71.3445C119.6 70.9192 120.241 70.6848 120.654 71.0003C123.076 72.8502 126.444 73.3965 129.33 72.4075C130.251 72.092 131.298 72.7454 131.678 73.639C132.059 74.5327 131.905 75.5679 131.571 76.4796C130.554 79.2557 127.816 81.3209 124.859 81.5432C121.901 81.7655 118.884 80.1326 117.46 77.54C117.021 76.7395 116.875 75.4848 117.722 75.14C118.567 74.7958 118.81 73.7354 118.901 72.8297L118.904 72.8022C118.955 72.2944 119.009 71.762 119.302 71.3445ZM199.959 93.5675C199.618 93.6594 199.258 93.7497 198.917 93.6588C198.576 93.5678 198.275 93.2262 198.361 92.8851C201.412 92.4023 204.357 91.2664 206.938 89.5763C207.943 88.9178 209.011 87.7706 208.503 86.6836C208.167 85.963 207.264 85.6857 206.467 85.718C205.312 85.765 204.237 86.281 203.199 86.7869L197.601 89.5156C197.341 89.2084 197.449 88.7145 197.724 88.4205C197.989 88.1372 198.365 87.992 198.729 87.8517L198.77 87.836C201.311 86.8529 203.678 85.4262 205.732 83.6394C206.333 83.1165 206.021 82.0384 205.334 81.6326C204.648 81.2268 203.784 81.3067 203 81.4529C200.723 81.8767 198.532 82.7521 196.592 84.0127C195.637 84.6335 194.281 85.3207 193.5 84.493C195.609 82.3637 198.498 81.2271 201.298 80.1484L206.716 78.0604C207.093 77.9154 207.5 77.768 207.891 77.8678C208.424 78.0036 208.736 78.5398 208.977 79.0321C210.345 81.8246 211.353 84.7924 211.967 87.8391C212.056 88.2812 212.13 88.7697 211.901 89.1588C211.694 89.5118 211.29 89.6925 210.911 89.8485C207.345 91.3188 203.684 92.5617 199.959 93.5675ZM174.335 93.7538C174.132 93.9689 173.83 94.0529 173.543 94.1277L123.79 107.109C124.562 105.25 126.833 104.614 128.805 104.185C142.533 101.199 155.981 97.0819 169.413 92.9691C170.177 92.7351 170.941 92.5014 171.705 92.2677C172.368 92.065 173.09 91.8632 173.739 92.1054C174.388 92.3476 174.81 93.2505 174.335 93.7538ZM106.997 44.2451C107.302 43.251 107.8 41.877 108.58 41.1861C108.977 40.834 109.516 40.4582 109.994 40.69C110.295 40.8355 110.443 41.1722 110.566 41.482C110.75 41.9452 111.014 42.5664 111.277 43.1872C111.54 43.8084 111.804 44.4295 111.988 44.8928C112.247 45.5427 112.497 46.5526 112.023 46.8807C109.994 48.284 110.456 53.4071 111.364 55.7645C111.581 56.3272 111.767 57.4808 111.58 58.3214C111.393 59.1623 110.456 59.9186 109.689 59.5211C109.249 59.2931 108.552 58.0849 108.299 57.6472C108.276 57.6071 108.257 57.5736 108.241 57.5477C104.504 51.1754 106.576 45.4189 106.949 44.3828C106.972 44.3184 106.988 44.2723 106.997 44.2451ZM123.392 113.245C126.714 112.632 130.002 111.834 133.236 110.858C133.286 110.843 133.336 110.828 133.387 110.812C134.393 110.507 135.415 110.198 136.465 110.203C136.333 111.86 135.41 113.395 134.143 114.476C132.876 115.557 131.29 116.215 129.665 116.589C128.433 116.873 127.134 117.001 125.91 116.686C124.685 116.37 123.543 115.555 123.078 114.383C122.911 113.963 122.946 113.327 123.392 113.245ZM127.511 103.361C125.392 103.661 123.152 103.507 121.245 102.54C120.841 102.336 121.05 101.721 121.335 101.371C122.799 99.5707 125.018 98.3991 127.335 98.202C129.653 98.0053 132.038 98.7856 133.787 100.313C134.076 100.566 134.37 100.965 134.174 101.295C134.072 101.469 133.866 101.549 133.676 101.617C131.661 102.338 129.63 103.062 127.511 103.361ZM120.983 83.7743C119.099 83.1856 117.624 81.6913 116.547 80.0423C115.894 79.0428 115.36 77.9748 114.825 76.9065C114.478 76.2121 114.13 75.518 113.751 74.8419C114.448 74.7263 115.128 75.2006 115.515 75.7908C115.792 76.2124 115.959 76.6892 116.127 77.1667C116.194 77.3578 116.261 77.5491 116.335 77.7367C117.728 81.2612 121.877 83.3748 125.613 82.6763C129.349 81.9778 132.379 78.6983 133.027 74.9657C133.095 74.5735 133.219 74.0881 133.61 74.0104C134.034 74.3625 134.053 74.9995 133.978 75.5439C133.436 79.496 129.841 82.4694 126 83.5924C124.37 84.0689 122.603 84.2808 120.983 83.7743ZM195.669 86.1405C198.023 84.3095 200.797 83.0189 203.718 82.3965C204.068 82.3216 204.594 82.3987 204.563 82.7546C204.553 82.867 204.479 82.9627 204.407 83.0495C202.956 84.7933 200.833 85.8136 198.778 86.7818C198.203 87.0531 197.596 87.3307 196.96 87.2915C196.324 87.2524 195.668 86.7752 195.669 86.1405ZM205.856 87.0181C206.159 86.9217 206.49 86.8314 206.787 86.9426C207.084 87.0537 207.281 87.4608 207.072 87.6986C205.269 89.749 202.573 90.7608 199.942 91.5057C199.254 91.7006 198.242 91.6955 198.125 90.9926C200.456 89.2516 203.081 87.902 205.856 87.0181ZM135.08 56.9793C135.232 56.0411 135.414 54.92 135.414 54.195C135.414 53.199 135.565 51.9807 136.497 51.626C137.391 51.2859 138.4 52.1016 138.573 53.0392C138.744 53.9768 137.682 57.7618 137.154 58.557C136.913 58.9201 136.633 59.2823 136.236 59.4649C135.839 59.6477 135.298 59.5883 135.056 59.2264C134.929 59.0379 134.901 58.8027 134.879 58.5769C134.857 58.3508 134.959 57.7223 135.08 56.9793ZM135.101 45.1887C135.148 45.2553 135.168 45.3362 135.186 45.4154C135.573 47.0528 135.724 48.7457 135.631 50.4254C135.187 50.6244 134.819 50.0338 134.689 49.5665L134.131 47.5672C133.911 46.7803 133.734 45.8171 134.321 45.2465C134.533 45.0393 134.931 44.9452 135.101 45.1887ZM111.61 63.0045C111.034 62.6073 110.566 62.2852 110.566 61.3024C110.566 60.1397 111.827 59.0063 112.101 59.2264C113.101 60.0266 114.896 63.9945 114.986 65.2687C114.234 64.9627 113.68 64.5456 112.669 63.7836C112.448 63.6178 112.206 63.4359 111.936 63.2347C111.825 63.1526 111.716 63.0775 111.61 63.0045ZM118.167 108.336L120.205 107.907C120.459 107.853 120.768 107.817 120.938 108.012C121.266 108.39 120.62 108.866 120.12 108.875C119.435 108.888 118.748 108.699 118.167 108.336ZM180.021 89.6792C180.39 89.7209 180.701 90.1898 180.459 90.4696L180.436 90.4949C180.118 90.7374 179.752 90.9932 179.355 90.9364C178.959 90.8792 178.68 90.3004 179.008 90.0717C179.312 89.8595 179.653 89.6375 180.021 89.6792ZM182.953 95.7502L182.49 95.6827L182.445 95.6782L181.464 94.1741C182.324 93.8966 183.283 94.9112 182.953 95.7502ZM180.798 93.0357C180.421 93.0537 180.118 92.5854 180.291 92.251C180.464 91.9166 181.022 91.8897 181.226 92.2058C181.431 92.5223 181.175 93.0174 180.798 93.0357ZM129.365 43.9802L125.823 45.6516C123.117 46.9284 119.718 46.5977 117.311 44.823C116.971 44.7447 116.676 45.1492 116.734 45.4922C116.791 45.8348 117.071 46.0941 117.351 46.3012C119.291 47.7346 121.945 47.9143 124.286 47.3199C126.627 46.7259 128.726 45.447 130.76 44.1482C130.613 43.6337 129.85 43.7512 129.365 43.9802ZM126.035 51.7344C125.744 51.9936 125.24 51.6415 125.245 51.2525C125.25 50.8631 125.566 50.5505 125.893 50.337C127.262 49.4417 129.225 49.5807 130.454 50.6597C130.183 51.104 129.549 51.0011 129.015 50.9142C128.973 50.9073 128.932 50.9007 128.892 50.8944C127.878 50.7355 126.8 51.0526 126.035 51.7344ZM119.475 53.2047C119.94 53.0989 120.432 52.7446 120.387 52.2715C120.35 51.873 119.948 51.6084 119.561 51.501C118.648 51.248 117.6 51.5768 116.998 52.3053C116.395 53.0338 116.272 54.122 116.696 54.9661C116.9 54.7842 117.066 54.5607 117.231 54.3377C117.477 54.0074 117.72 53.6796 118.082 53.4961C118.356 53.3572 118.663 53.3202 118.971 53.283C119.141 53.2625 119.31 53.2422 119.475 53.2047ZM128.725 58.4528C129.287 58.4449 129.666 57.866 129.808 57.3238C130.098 56.2088 129.802 54.9592 129.043 54.0908C128.699 53.6976 128.113 53.3705 127.675 53.6566C127.54 53.745 127.443 53.8811 127.364 54.0222C126.815 55.0107 127.09 56.2467 127.517 57.2935C127.741 57.8433 128.129 58.4613 128.725 58.4528ZM121.619 58.455L121.451 56.7162C121.387 56.0547 121.245 55.2766 120.64 54.9968C119.814 54.6143 118.94 55.5305 118.724 56.4125C118.491 57.3598 118.626 58.3918 119.093 59.2489C119.517 60.026 120.573 60.6772 121.247 60.1018C121.694 59.7203 121.675 59.0385 121.619 58.455ZM120.222 188.782C124.882 188.644 129.541 188.508 134.201 188.373C134.713 188.358 135.262 188.354 135.687 188.639C136.081 188.903 136.297 189.408 136.214 189.875L122.535 190.131C122.027 190.141 121.501 190.147 121.034 189.948C120.566 189.749 120.172 189.286 120.222 188.782ZM125.009 64.0823C124.509 63.9402 124.744 63.2016 124.979 62.7399C125.738 61.2481 125.311 59.4188 124.551 57.9276L124.532 57.891C124.363 57.5607 124.183 57.2076 124.243 56.8438C124.306 56.4668 124.783 56.1529 125.081 56.3935C125.17 56.4658 125.225 56.5716 125.277 56.6746C125.847 57.807 126.407 58.971 126.593 60.2243C126.778 61.4777 126.539 62.8536 125.676 63.7845C125.502 63.9731 125.256 64.1527 125.009 64.0823ZM125.754 68.833C128.093 68.4595 129.969 66.1899 129.888 63.8306C129.884 63.6904 129.871 63.5442 129.798 63.4239C129.595 63.086 129.043 63.165 128.782 63.4608C128.568 63.704 128.486 64.0267 128.406 64.3451H128.406C128.389 64.4136 128.372 64.4818 128.353 64.5491C128.04 65.6846 127.262 66.6854 126.237 67.2712C126.187 67.2996 126.136 67.3277 126.085 67.3558C125.786 67.5206 125.478 67.6902 125.32 67.9867C125.137 68.3338 125.365 68.8949 125.754 68.833ZM140.034 210.909C140.134 213.711 140.447 222.601 140.082 224.215C140.014 224.515 139.903 224.856 139.615 224.966C139.041 225.183 138.704 224.324 138.697 223.712C138.639 218.752 138.581 212.923 138.524 207.095V207.094C138.466 201.266 138.408 195.437 138.35 190.477C139.302 190.477 139.615 193.824 139.615 195.986C139.615 203.249 140.034 210.909 140.034 210.909ZM107.277 149.306C107.138 149.225 106.976 149.144 106.81 149.06C106.147 148.729 105.417 148.364 105.801 147.85C115.952 148.288 126.126 148.186 136.266 147.546C139.138 147.364 142.377 146.945 144.084 144.637C144.152 144.544 144.218 144.449 144.284 144.353C144.511 144.024 144.74 143.694 145.074 143.48C145.505 143.205 146.194 143.24 146.409 143.702C146.105 146.177 143.778 148.24 141.276 148.252C140.181 148.258 139.81 149.682 139.671 150.764C139.532 151.846 138.783 153.232 137.756 152.856C138.016 151.968 138.183 151.055 138.256 150.133C138.281 149.824 138.274 149.466 138.034 149.269C137.848 149.115 137.584 149.115 137.342 149.122L110.55 149.883C110.381 149.888 110.194 149.9 110.072 150.019C109.924 150.163 109.938 150.4 109.962 150.606L111.863 166.761C111.905 167.116 112.05 167.57 112.409 167.572L127.597 167.656C128.405 167.66 129.554 168.275 129.06 168.912C128.858 169.173 128.479 169.197 128.149 169.198L112.693 169.26C112.04 169.263 111.855 170.147 111.879 170.797L112.125 177.445C110.269 176.126 110.141 173.48 110.128 171.208C110.09 164.588 109.497 157.97 108.355 151.448C108.213 150.634 107.994 149.722 107.277 149.306Z" fill="#00160A"/>
<path fill-rule="evenodd" clip-rule="evenodd" d="M141.231 180.671C141.848 179.173 143.284 178.103 144.808 178.005C145.205 177.979 145.654 178.042 145.896 178.38C146.138 178.717 145.931 179.357 145.537 179.302C144.592 179.169 143.649 179.686 142.986 180.419C142.322 181.153 141.89 182.084 141.467 183C140.861 182.468 140.915 181.439 141.231 180.671Z" fill="#00160A"/>
<path fill-rule="evenodd" clip-rule="evenodd" d="M210.113 44.0344C210.909 44.1115 211.646 43.6394 212.306 43.1772C214.14 41.8916 216.115 40.1394 215.995 37.8668C215.957 37.1451 215.703 36.466 215.448 35.7862C215.34 35.4953 215.231 35.2042 215.138 34.9096C214.658 33.371 214.64 31.7486 214.622 30.1222C214.608 28.7881 214.593 27.4512 214.323 26.1554C214.226 25.6906 214.032 25.1627 213.586 25.0306C213.335 24.9561 213.068 25.0318 212.817 25.1072L204.804 27.5149C203.296 27.9681 202.973 29.9736 202.93 31.5826L202.812 35.9608C202.336 36.022 201.884 35.8308 201.432 35.6397C201.259 35.5667 201.087 35.4938 200.913 35.4348C199.201 34.8545 197.131 35.8302 196.447 37.5394C195.764 39.2485 196.572 41.431 198.19 42.2466C199.808 43.0623 201.99 42.387 202.895 40.7904C203.511 39.7061 203.547 38.3896 203.568 37.1358L203.605 34.7814C203.619 33.9015 204.584 33.4135 205.398 33.1338C207.908 32.2722 210.44 31.4814 212.993 30.7626C213.245 30.6915 213.558 30.6383 213.73 30.8398C213.824 30.9487 213.844 31.102 213.86 31.2458L214.209 34.3282C214.261 34.7854 214.211 35.4001 213.772 35.497C211.65 35.9651 209.764 37.4488 208.776 39.4274C208.355 40.2704 208.089 41.2383 208.276 42.166C208.462 43.0932 209.192 43.9457 210.113 44.0344ZM213.354 26.4019C213.443 26.495 213.469 26.6321 213.491 26.7607L213.734 28.2077C213.798 28.5899 213.859 29.0004 213.697 29.3513C213.441 29.9054 212.762 30.0722 212.172 30.1912C210.81 30.4663 209.466 30.8313 208.151 31.2832C207.051 31.661 205.973 32.0989 204.895 32.5367C204.804 32.5737 204.713 32.6107 204.622 32.6477C204.366 32.7514 204.013 32.8262 203.867 32.5887C203.83 32.5292 203.815 32.4588 203.802 32.3897C203.545 30.9866 204.178 29.4562 205.343 28.6638C205.984 28.2275 206.743 28.0134 207.487 27.8059L212.717 26.3477C212.933 26.2874 213.197 26.2389 213.354 26.4019ZM202.802 37.9405C202.78 39.2966 202.461 40.8472 201.286 41.5037C200.354 42.0243 199.138 41.7741 198.292 41.1199C197.299 40.3519 196.754 38.8224 197.48 37.7933C197.782 37.3646 198.254 37.0868 198.743 36.905C199.866 36.4874 201.149 36.5294 202.243 37.0195C202.417 37.0977 202.596 37.1943 202.697 37.3581C202.801 37.528 202.805 37.7403 202.802 37.9405ZM62.8136 40.9708C62.9493 41.3988 63.5404 41.3823 63.9684 41.2793L67.8601 40.3447C67.7517 39.3069 67.5547 38.2787 67.2725 37.2758C67.1892 36.9802 67.089 36.671 66.8624 36.4687C66.5121 36.1554 65.9873 36.1988 65.5257 36.2602L59.5484 37.0566C59.1377 37.1113 58.59 37.3844 58.7465 37.7766C60.1147 41.2129 61.1941 44.77 61.9686 48.3952C62.1166 49.0885 62.0918 50.0623 61.4143 50.2146C59.4523 50.6548 57.7734 52.2312 57.1757 54.1936C56.9919 54.7975 56.9083 55.4682 57.1461 56.0517C57.275 56.368 57.4915 56.6401 57.7338 56.8764C58.8977 58.0112 60.7535 58.3265 62.2131 57.6381C63.6727 56.9493 64.6437 55.3 64.5563 53.6575C64.5233 53.0371 64.3546 52.4336 64.1871 51.8365L60.3661 38.2232L65.4251 37.8169C65.9336 37.8461 66.1482 38.5851 65.8795 39.0276C65.6112 39.4701 65.0779 39.6542 64.5789 39.7569C64.507 39.7717 64.4344 39.7857 64.3618 39.7997C63.9294 39.8831 63.4895 39.9679 63.1388 40.2325C62.9119 40.4039 62.7266 40.6961 62.8136 40.9708Z" fill="#FFB61D"/>
<path fill-rule="evenodd" clip-rule="evenodd" d="M140.709 176.865C140.566 177.083 140.243 177.02 140.106 176.798C139.968 176.575 139.98 176.266 140.055 176.006C140.19 175.539 140.494 175.168 140.812 174.847C141.613 174.041 142.567 173.445 143.583 173.115C143.985 172.985 144.452 172.909 144.784 173.203C145.116 173.498 145.062 174.283 144.648 174.327C143.113 174.488 141.649 175.431 140.709 176.865Z" fill="#00160A"/>
<path d="M157.912 242.555C157.212 243.58 156.431 244.809 155.568 246.241C154.706 247.674 153.786 249.277 152.81 251.051C151.979 252.532 151.158 254.111 150.344 255.787C149.546 257.447 148.781 259.099 148.049 260.743C147.316 262.371 146.641 263.941 146.022 265.455C145.404 266.952 144.867 268.279 144.411 269.435C143.955 270.574 143.597 271.493 143.337 272.193C143.076 272.877 142.946 273.227 142.946 273.243C142.784 273.65 142.491 273.854 142.067 273.854C141.856 273.854 141.669 273.788 141.506 273.658C141.343 273.512 141.237 273.333 141.188 273.121C141.188 273.105 141.107 272.763 140.944 272.096C140.798 271.412 140.594 270.509 140.334 269.386C140.074 268.246 139.772 266.944 139.431 265.479C139.105 263.998 138.755 262.46 138.381 260.865C138.023 259.254 137.657 257.626 137.282 255.982C136.908 254.339 136.558 252.776 136.232 251.295C135.142 254.371 134.043 257.097 132.937 259.474C131.846 261.834 130.723 263.893 129.567 265.65C128.412 267.392 127.215 268.857 125.979 270.045C124.758 271.233 123.472 272.193 122.121 272.926C120.786 273.642 119.379 274.155 117.897 274.464C116.433 274.773 114.878 274.928 113.234 274.928C112.388 274.928 111.485 274.83 110.524 274.635C109.564 274.456 108.612 274.171 107.668 273.78C106.724 273.39 105.821 272.901 104.958 272.315C104.095 271.729 103.33 271.038 102.663 270.24C101.996 269.426 101.467 268.515 101.076 267.506C100.686 266.48 100.49 265.341 100.49 264.088C100.49 262.77 100.767 261.565 101.32 260.475C101.874 259.368 102.622 258.424 103.566 257.643C104.51 256.845 105.601 256.227 106.838 255.787C108.091 255.348 109.41 255.128 110.793 255.128C111.802 255.128 112.705 255.217 113.503 255.396C114.317 255.559 115.033 255.771 115.651 256.031C116.27 256.292 116.799 256.576 117.238 256.886C117.678 257.195 118.044 257.48 118.337 257.74C118.63 258.001 118.841 258.229 118.972 258.424C119.102 258.603 119.175 258.692 119.191 258.692C119.289 258.871 119.338 259.042 119.338 259.205C119.338 259.433 119.248 259.645 119.069 259.84C118.907 260.035 118.687 260.133 118.41 260.133C118.085 260.133 117.824 259.994 117.629 259.718C117.613 259.701 117.482 259.555 117.238 259.278C116.994 258.985 116.595 258.668 116.042 258.326C115.489 257.984 114.772 257.675 113.894 257.398C113.031 257.122 111.973 256.983 110.72 256.983C109.58 256.983 108.498 257.162 107.473 257.521C106.464 257.862 105.576 258.351 104.812 258.985C104.063 259.62 103.461 260.377 103.005 261.256C102.565 262.118 102.346 263.071 102.346 264.112C102.346 265.138 102.517 266.074 102.858 266.92C103.2 267.766 103.656 268.523 104.226 269.19C104.795 269.858 105.454 270.436 106.203 270.924C106.952 271.412 107.733 271.819 108.547 272.145C109.361 272.454 110.174 272.69 110.988 272.853C111.818 272.999 112.6 273.072 113.332 273.072C114.569 273.072 115.773 272.983 116.945 272.804C118.133 272.608 119.297 272.25 120.437 271.729C121.592 271.209 122.723 270.493 123.83 269.581C124.937 268.67 126.035 267.481 127.126 266.017C128.216 264.552 129.291 262.786 130.349 260.719C131.423 258.652 132.497 256.21 133.571 253.395C133.897 252.548 134.214 251.637 134.523 250.66C134.833 249.684 135.15 248.699 135.476 247.706C135.199 246.274 134.995 245.053 134.865 244.044C134.751 243.035 134.694 242.197 134.694 241.529C134.694 240.813 134.751 240.243 134.865 239.82C134.979 239.397 135.126 239.08 135.305 238.868C135.484 238.64 135.679 238.502 135.891 238.453C136.102 238.388 136.306 238.355 136.501 238.355C136.664 238.355 136.843 238.388 137.038 238.453C137.25 238.518 137.437 238.665 137.6 238.893C137.779 239.104 137.925 239.422 138.039 239.845C138.153 240.268 138.21 240.838 138.21 241.554C138.21 242.335 138.137 243.238 137.99 244.264C137.844 245.289 137.624 246.42 137.331 247.657C137.543 248.65 137.787 249.757 138.063 250.978C138.34 252.198 138.625 253.468 138.918 254.786C139.211 256.088 139.512 257.423 139.821 258.79C140.131 260.157 140.432 261.492 140.725 262.794C141.018 264.096 141.294 265.341 141.555 266.529C141.831 267.717 142.084 268.792 142.312 269.752C142.751 268.645 143.288 267.311 143.923 265.748C144.558 264.169 145.266 262.501 146.047 260.743C146.828 258.969 147.65 257.171 148.513 255.348C149.392 253.508 150.287 251.775 151.198 250.147C152.484 247.836 153.664 245.859 154.738 244.215C155.812 242.555 156.74 241.188 157.521 240.113C158.303 239.039 158.913 238.25 159.353 237.745C159.808 237.224 160.052 236.939 160.085 236.891C160.264 236.712 160.484 236.622 160.744 236.622C161.021 236.622 161.241 236.72 161.403 236.915C161.582 237.094 161.672 237.306 161.672 237.55C161.672 237.664 161.647 237.778 161.599 237.892C161.599 237.908 161.501 238.152 161.306 238.624C161.127 239.08 160.891 239.715 160.598 240.528C160.321 241.326 160.012 242.27 159.67 243.36C159.328 244.435 158.994 245.598 158.669 246.852C158.343 248.089 158.05 249.391 157.79 250.758C157.546 252.109 157.367 253.46 157.253 254.811C157.204 255.429 157.163 256.08 157.131 256.764C157.098 257.431 157.082 258.106 157.082 258.79C157.082 259.864 157.131 260.947 157.229 262.037C157.326 263.128 157.489 264.177 157.717 265.187C157.945 266.196 158.254 267.148 158.645 268.043C159.035 268.922 159.515 269.695 160.085 270.362C160.655 271.03 161.33 271.567 162.111 271.974C162.909 272.381 163.828 272.6 164.87 272.633C165.131 272.649 165.334 272.763 165.48 272.975C165.643 273.17 165.725 273.382 165.725 273.609C165.725 273.837 165.635 274.041 165.456 274.22C165.277 274.399 165.065 274.488 164.821 274.488C164.561 274.488 164.3 274.464 164.04 274.415C162.868 274.252 161.835 273.919 160.939 273.414C160.044 272.893 159.271 272.258 158.62 271.51C157.969 270.745 157.424 269.882 156.984 268.922C156.561 267.945 156.219 266.904 155.959 265.797C155.699 264.69 155.511 263.543 155.397 262.354C155.3 261.15 155.251 259.938 155.251 258.717C155.251 257.268 155.324 255.82 155.471 254.371C155.617 252.923 155.812 251.515 156.057 250.147C156.301 248.764 156.586 247.429 156.911 246.144C157.237 244.858 157.57 243.661 157.912 242.555ZM175.246 271.266C174.676 272.193 174.009 272.926 173.244 273.463C172.495 274 171.739 274.269 170.974 274.269C170.355 274.269 169.802 274.155 169.313 273.927C168.825 273.699 168.402 273.382 168.044 272.975C167.686 272.551 167.409 272.047 167.214 271.461C167.035 270.875 166.945 270.216 166.945 269.483C166.945 268.344 167.051 267.335 167.263 266.456C167.491 265.577 167.735 264.845 167.995 264.259C168.256 263.657 168.5 263.201 168.728 262.892C168.955 262.582 169.069 262.428 169.069 262.428C169.151 262.33 169.248 262.257 169.362 262.208C169.493 262.159 169.623 262.135 169.753 262.135C170.013 262.135 170.225 262.232 170.388 262.428C170.567 262.607 170.656 262.818 170.656 263.062C170.656 263.16 170.632 263.258 170.583 263.355C170.55 263.453 170.51 263.551 170.461 263.648C170.38 263.795 170.249 264.023 170.07 264.332C169.891 264.625 169.704 265.016 169.509 265.504C169.313 265.992 169.143 266.57 168.996 267.237C168.85 267.888 168.776 268.637 168.776 269.483C168.776 270.444 168.964 271.176 169.338 271.681C169.729 272.169 170.274 272.413 170.974 272.413C171.267 272.413 171.6 272.324 171.975 272.145C172.365 271.949 172.74 271.656 173.098 271.266C173.472 270.875 173.798 270.379 174.074 269.776C174.351 269.174 174.53 268.466 174.611 267.652L174.978 263.453C175.01 263.209 175.116 263.006 175.295 262.843C175.474 262.68 175.686 262.599 175.93 262.599C176.206 262.599 176.426 262.704 176.589 262.916C176.752 263.111 176.833 263.339 176.833 263.6L176.516 267.652C176.483 267.994 176.491 268.442 176.54 268.995C176.605 269.549 176.727 270.094 176.906 270.631C177.085 271.168 177.354 271.632 177.712 272.022C178.07 272.397 178.542 272.584 179.128 272.584C179.551 272.584 179.966 272.478 180.373 272.267C180.78 272.039 181.171 271.746 181.545 271.388C181.919 271.03 182.261 270.631 182.57 270.191C182.896 269.736 183.189 269.28 183.449 268.824C183.726 268.368 183.962 267.937 184.157 267.53C184.353 267.107 184.515 266.749 184.646 266.456C184.727 266.277 184.841 266.139 184.987 266.041C185.134 265.943 185.297 265.895 185.476 265.895C185.769 265.895 185.996 265.992 186.159 266.188C186.322 266.383 186.403 266.594 186.403 266.822C186.403 266.952 186.379 267.075 186.33 267.188C186.265 267.319 186.135 267.595 185.939 268.019C185.76 268.425 185.516 268.897 185.207 269.435C184.914 269.955 184.556 270.509 184.133 271.095C183.71 271.681 183.238 272.226 182.717 272.73C182.196 273.219 181.626 273.626 181.008 273.951C180.406 274.26 179.755 274.415 179.055 274.415C178.094 274.415 177.297 274.146 176.662 273.609C176.027 273.056 175.555 272.275 175.246 271.266ZM187.38 264.967C187.282 265.227 187.16 265.52 187.014 265.846C186.883 266.171 186.729 266.513 186.55 266.871C186.403 267.148 186.249 267.368 186.086 267.53C185.939 267.677 185.744 267.75 185.5 267.75C185.223 267.75 185.004 267.669 184.841 267.506C184.678 267.327 184.597 267.123 184.597 266.896C184.597 266.814 184.605 266.749 184.621 266.7C184.637 266.635 184.678 266.537 184.743 266.407C185.166 265.593 185.476 264.885 185.671 264.283C185.882 263.665 186.053 263.022 186.184 262.354C186.07 261.98 185.988 261.663 185.939 261.402C185.891 261.142 185.866 260.873 185.866 260.597C185.866 260.06 185.98 259.628 186.208 259.303C186.436 258.961 186.753 258.79 187.16 258.79C187.535 258.79 187.827 258.953 188.039 259.278C188.267 259.604 188.381 260.003 188.381 260.475C188.381 260.735 188.356 260.995 188.308 261.256C188.259 261.516 188.194 261.842 188.112 262.232C188.487 263.16 188.861 263.982 189.235 264.698C189.61 265.414 189.943 266.074 190.236 266.676C190.529 267.262 190.765 267.815 190.944 268.336C191.14 268.857 191.237 269.378 191.237 269.898C191.237 270.582 191.099 271.233 190.822 271.852C190.546 272.47 190.09 272.991 189.455 273.414C189.536 273.43 189.618 273.438 189.699 273.438C189.781 273.438 189.862 273.438 189.943 273.438C190.871 273.438 191.726 273.227 192.507 272.804C193.288 272.381 193.988 271.835 194.606 271.168C195.241 270.484 195.803 269.736 196.291 268.922C196.779 268.092 197.202 267.27 197.561 266.456C197.723 266.082 197.951 265.895 198.244 265.895C198.521 265.895 198.732 265.992 198.879 266.188C199.042 266.383 199.123 266.594 199.123 266.822C199.123 266.952 199.099 267.075 199.05 267.188C198.871 267.628 198.635 268.132 198.342 268.702C198.065 269.256 197.723 269.833 197.316 270.436C196.926 271.021 196.47 271.599 195.949 272.169C195.428 272.739 194.842 273.251 194.191 273.707C193.557 274.146 192.857 274.496 192.092 274.757C191.327 275.034 190.489 275.172 189.577 275.172C188.487 275.172 187.469 274.977 186.525 274.586C185.598 274.212 184.841 273.585 184.255 272.706C184.157 272.56 184.108 272.405 184.108 272.242C184.108 271.998 184.198 271.786 184.377 271.607C184.572 271.412 184.792 271.314 185.036 271.314C185.297 271.314 185.516 271.404 185.695 271.583C185.712 271.616 185.769 271.673 185.866 271.754C185.964 271.819 186.078 271.9 186.208 271.998C186.354 272.079 186.517 272.153 186.696 272.218C186.892 272.283 187.087 272.315 187.282 272.315C187.673 272.315 187.998 272.234 188.259 272.071C188.535 271.909 188.755 271.713 188.918 271.485C189.081 271.241 189.195 270.989 189.26 270.729C189.341 270.452 189.382 270.216 189.382 270.021C189.382 269.614 189.317 269.207 189.187 268.8C189.056 268.393 188.885 267.986 188.674 267.579C188.479 267.172 188.259 266.757 188.015 266.334C187.787 265.895 187.575 265.439 187.38 264.967ZM201.345 254.835C201.345 255.453 201.125 255.982 200.686 256.422C200.262 256.845 199.742 257.057 199.123 257.057C198.505 257.057 197.976 256.845 197.536 256.422C197.113 255.982 196.901 255.453 196.901 254.835C196.901 254.526 196.958 254.241 197.072 253.98C197.186 253.704 197.341 253.468 197.536 253.272C197.748 253.061 197.984 252.898 198.244 252.784C198.521 252.67 198.814 252.613 199.123 252.613C199.432 252.613 199.717 252.67 199.978 252.784C200.254 252.898 200.49 253.061 200.686 253.272C200.897 253.468 201.06 253.704 201.174 253.98C201.288 254.241 201.345 254.526 201.345 254.835ZM197.39 269.142C197.39 266.798 197.536 264.462 197.829 262.135C197.862 261.907 197.959 261.712 198.122 261.549C198.301 261.37 198.529 261.28 198.806 261.28C199.05 261.28 199.253 261.378 199.416 261.573C199.579 261.752 199.66 261.964 199.66 262.208C199.66 262.306 199.636 262.599 199.587 263.087C199.554 263.575 199.506 264.161 199.44 264.845C199.392 265.512 199.343 266.228 199.294 266.993C199.261 267.742 199.245 268.434 199.245 269.068C199.245 269.931 199.326 270.631 199.489 271.168C199.668 271.689 199.888 272.096 200.148 272.389C200.425 272.682 200.71 272.877 201.003 272.975C201.312 273.072 201.605 273.121 201.882 273.121C202.338 273.121 202.81 272.958 203.298 272.633C203.786 272.307 204.283 271.852 204.787 271.266C205.308 270.68 205.829 269.98 206.35 269.166C206.87 268.336 207.383 267.416 207.888 266.407C207.969 266.244 208.083 266.122 208.229 266.041C208.376 265.943 208.539 265.895 208.718 265.895C208.978 265.895 209.19 265.992 209.353 266.188C209.532 266.383 209.621 266.594 209.621 266.822C209.621 266.985 209.589 267.123 209.523 267.237C209.328 267.612 209.084 268.067 208.791 268.604C208.498 269.142 208.164 269.695 207.79 270.265C207.416 270.834 207.001 271.404 206.545 271.974C206.105 272.527 205.633 273.032 205.129 273.487C204.624 273.927 204.095 274.285 203.542 274.562C202.989 274.838 202.427 274.977 201.857 274.977C201.125 274.977 200.482 274.822 199.929 274.513C199.375 274.203 198.903 273.788 198.513 273.268C198.138 272.747 197.854 272.136 197.658 271.437C197.479 270.72 197.39 269.955 197.39 269.142ZM199.978 254.835C199.978 254.607 199.888 254.412 199.709 254.249C199.546 254.07 199.351 253.98 199.123 253.98C198.895 253.98 198.7 254.07 198.537 254.249C198.374 254.412 198.293 254.607 198.293 254.835C198.293 255.063 198.374 255.258 198.537 255.421C198.7 255.584 198.895 255.665 199.123 255.665C199.351 255.665 199.546 255.584 199.709 255.421C199.888 255.258 199.978 255.063 199.978 254.835ZM223.83 267.237C223.732 267.416 223.562 267.742 223.317 268.214C223.09 268.686 222.772 269.223 222.365 269.825C221.975 270.411 221.503 271.021 220.949 271.656C220.396 272.291 219.761 272.877 219.045 273.414C218.329 273.935 217.523 274.366 216.628 274.708C215.749 275.05 214.789 275.221 213.747 275.221C212.819 275.221 211.997 275.05 211.281 274.708C210.565 274.382 209.955 273.919 209.45 273.316C208.946 272.698 208.563 271.974 208.303 271.144C208.042 270.313 207.912 269.394 207.912 268.385C207.912 267.408 208.05 266.497 208.327 265.65C208.604 264.788 208.978 264.039 209.45 263.404C209.938 262.77 210.5 262.273 211.135 261.915C211.77 261.541 212.445 261.354 213.161 261.354C213.698 261.354 214.187 261.451 214.626 261.646C215.065 261.826 215.432 262.07 215.725 262.379C216.034 262.688 216.27 263.03 216.433 263.404C216.612 263.779 216.701 264.153 216.701 264.527C216.701 264.885 216.652 265.219 216.555 265.528C216.473 265.838 216.359 266.114 216.213 266.358C216.083 266.586 215.928 266.773 215.749 266.92C215.57 267.05 215.391 267.115 215.212 267.115C214.935 267.115 214.707 267.026 214.528 266.847C214.366 266.668 214.284 266.448 214.284 266.188C214.284 266.057 214.309 265.943 214.357 265.846C214.423 265.748 214.488 265.65 214.553 265.553C214.634 265.439 214.699 265.309 214.748 265.162C214.813 264.999 214.846 264.796 214.846 264.552C214.846 264.21 214.683 263.901 214.357 263.624C214.048 263.347 213.649 263.209 213.161 263.209C212.705 263.209 212.266 263.347 211.843 263.624C211.436 263.901 211.078 264.275 210.769 264.747C210.459 265.203 210.207 265.748 210.012 266.383C209.833 267.001 209.743 267.66 209.743 268.36C209.743 269.028 209.825 269.662 209.987 270.265C210.15 270.867 210.394 271.404 210.72 271.876C211.045 272.332 211.452 272.698 211.94 272.975C212.445 273.251 213.039 273.39 213.723 273.39C214.602 273.39 215.415 273.235 216.164 272.926C216.913 272.6 217.596 272.193 218.215 271.705C218.833 271.217 219.379 270.688 219.851 270.118C220.323 269.532 220.721 268.987 221.047 268.482C221.389 267.962 221.649 267.514 221.828 267.14C222.023 266.749 222.137 266.505 222.17 266.407C222.235 266.244 222.341 266.122 222.487 266.041C222.65 265.943 222.821 265.895 223 265.895C223.277 265.895 223.496 265.992 223.659 266.188C223.838 266.383 223.928 266.603 223.928 266.847C223.928 266.944 223.895 267.075 223.83 267.237Z" fill="#9E7D77"/>
</g>
<defs>
<filter id="filter0_i_594_585" x="0" y="0" width="304" height="304" filterUnits="userSpaceOnUse" color-interpolation-filters="sRGB">
<feFlood flood-opacity="0" result="BackgroundImageFix"/>
<feBlend mode="normal" in="SourceGraphic" in2="BackgroundImageFix" result="shape"/>
<feColorMatrix in="SourceAlpha" type="matrix" values="0 0 0 0 0 0 0 0 0 0 0 0 0 0 0 0 0 0 127 0" result="hardAlpha"/>
<feOffset dx="10" dy="4"/>
<feGaussianBlur stdDeviation="2"/>
<feComposite in2="hardAlpha" operator="arithmetic" k2="-1" k3="1"/>
<feColorMatrix type="matrix" values="0 0 0 0 0 0 0 0 0 0 0 0 0 0 0 0 0 0 0.25 0"/>
<feBlend mode="normal" in2="shape" result="effect1_innerShadow_594_585"/>
</filter>
<linearGradient id="paint0_linear_594_585" x1="135" y1="47" x2="135" y2="208" gradientUnits="userSpaceOnUse">
<stop stop-color="#F7E5EE"/>
<stop offset="1" stop-color="#FEF6F7"/>
</linearGradient>
</defs>
</svg>
