<svg width="184" height="178" viewBox="0 0 184 178" fill="none" xmlns="http://www.w3.org/2000/svg">
<g filter="url(#filter0_d_327_236)">
<path d="M0 30C0 13.4315 13.4315 0 30 0H140C156.569 0 170 13.4315 170 30V140C170 156.569 156.569 170 140 170H30C13.4315 170 0 156.569 0 140V30Z" fill="white"/>
<path d="M97.2204 114.811C123.654 119.825 137.039 107.477 137.102 107.121C137.829 106.529 138.564 105.943 139.251 105.276C140.344 104.214 141.407 103.1 142.468 101.983C142.991 101.433 143.501 100.856 143.977 100.238C144.319 99.7935 144.567 99.2276 144.905 98.7768C145.68 97.7419 146.516 96.7829 147.27 95.7233C148.624 93.8201 149.955 91.8882 151.257 89.925C152.309 88.339 153.321 86.7056 154.32 85.0619C155.015 83.9193 155.658 82.7245 156.323 81.551C156.876 80.5742 157.478 79.6362 157.964 78.6056C158.539 77.387 159.038 76.1038 159.523 74.8186C160.022 73.4953 160.509 72.1589 160.919 70.7866C161.41 69.1441 162.078 67.5748 162.102 65.7264C162.121 64.2263 162.294 62.7296 162.335 61.229C162.383 59.4647 162.192 57.7219 161.922 55.9962C161.689 54.5063 161.366 53.0446 160.78 51.7318C160.161 50.3475 159.492 48.9954 158.778 47.6922C157.92 46.1272 156.905 44.755 155.677 43.6496C154.531 42.6176 153.288 41.856 151.995 41.224C150.786 40.6328 149.557 40.1122 148.344 39.536C147.648 39.2053 146.969 38.8111 146.276 38.4709C145.151 37.9192 144.01 37.4236 142.895 36.8405C141.157 35.9313 139.61 34.6486 138.322 32.838C137.484 31.6587 136.576 30.5631 135.689 29.4432C134.817 28.341 133.925 27.2659 133.057 26.1572C132.693 25.6919 132.399 25.1302 132.022 24.6859C131.464 24.0287 130.868 23.4263 130.276 22.8212C129.69 22.2231 129.136 21.5352 128.486 21.0901C127.048 20.1059 125.62 19.0825 124.025 18.5324C122.64 18.0547 121.288 17.4637 119.85 17.2043C118.364 16.936 116.889 16.6917 115.388 16.7462C113.463 16.8162 111.538 16.8744 109.614 16.9534C109.14 16.9728 108.661 17.0031 108.197 17.1162C106.947 17.4205 105.7 17.7542 104.457 18.111C103.465 18.3956 102.481 18.7236 101.496 19.0472L101.461 19.0586C100.743 19.2947 100.024 19.531 99.3154 19.8099C98.0809 20.2958 96.8514 20.8063 95.6244 21.3239C93.9481 22.0314 92.4715 23.3529 90.7704 24.0063C89.8648 24.3543 88.996 24.8849 88.1298 25.3895C86.6431 26.2554 85.1666 27.1524 83.6956 28.0628C83.0113 28.4864 82.3726 29.0485 81.6728 29.414C80.2622 30.151 78.9507 31.1152 77.7127 32.243C76.6974 33.1678 75.7521 34.223 74.7466 35.1675C73.3415 36.4875 72.009 37.9057 70.958 39.718C70.2055 41.0157 69.4129 42.2906 68.7775 43.6833C67.8794 45.6511 67.0609 47.6876 66.2992 49.7517C65.5873 51.681 64.9781 53.6763 64.354 55.6588C63.945 56.9586 63.5378 58.2665 63.2245 59.6083C62.8598 61.1708 62.6312 62.786 62.2824 64.3555C62.0036 65.6105 61.9146 66.8749 61.9474 68.1639C61.9561 68.5108 62.0319 68.8543 62.0412 69.2012C62.1322 72.5843 62.2081 75.9681 62.3076 79.3507C62.3255 79.9545 62.4182 80.5565 62.5011 81.1532C62.6462 82.1972 62.8046 83.2383 62.969 84.2775C63.106 85.1447 63.2054 86.0306 63.4162 86.8671C64.0218 89.2704 64.7874 91.5884 65.7904 93.7574C66.4509 95.1856 67.1353 96.596 67.8356 97.9911C68.0538 98.4256 68.3627 98.7809 68.625 99.1783C69.1558 99.9828 69.5696 100.679 70.2188 101.589C77.8892 112.342 88.5036 113.158 97.2204 114.811Z" fill="url(#paint0_linear_327_236)" fill-opacity="0.8"/>
<path fill-rule="evenodd" clip-rule="evenodd" d="M37.7121 56.1199C37.5571 56.015 36.3465 56.672 36.1433 56.7725C35.3316 57.174 34.5671 57.8412 33.8024 58.384C34.3885 59.3349 34.9747 60.2861 35.5605 61.2372C36.135 59.3586 36.8732 57.8084 37.7121 56.1199ZM38.1117 67.8085C37.9123 67.8384 39.5957 73.2322 39.7923 73.8378C40.5076 76.0405 41.2587 78.2217 41.9835 80.4189C42.6858 82.5481 43.5766 84.5068 44.4741 86.4959C45.2417 88.197 46.0313 90.8369 47.1893 92.0969C46.4581 87.772 46.5544 82.7993 44.4573 79.168C42.2835 75.4034 40.1343 71.7274 38.1117 67.8085ZM122.573 125.485C119.324 118.626 115.258 112.558 111.871 105.822C109.974 102.05 108.128 98.2301 106.531 94.2152C105.37 91.2947 104.648 87.1277 102.854 84.8949C102.064 83.9112 101.22 82.9483 100.159 82.5076C98.7074 81.9046 96.7089 82.5023 95.2508 82.9791C92.5336 83.8674 89.8792 85.2468 87.3055 86.6956C84.6949 88.1649 82.4676 90.8044 80.1088 92.9249C77.5786 95.2 74.8397 96.8573 72.0048 98.3081C69.5365 99.5713 67.3406 101.385 64.8854 102.656C64.3961 102.91 63.3977 102.873 62.9873 103.203C62.5451 103.559 62.7192 104.609 62.1823 104.997C61.9401 105.172 61.8594 104.538 61.6735 104.548C61.446 104.561 61.2387 104.917 61.0195 105.142C60.1272 106.06 60.6739 106.672 61.0272 107.935C62.1788 112.051 62.7977 116.238 64.4147 120.123C65.7442 123.316 67.6469 126.178 69.8871 128.292C70.2279 128.614 71.3387 129.861 71.7387 129.778C72.0988 129.703 72.8314 128.427 73.0801 128.08C74.2082 126.507 75.2393 124.815 76.3667 123.24C78.1089 120.805 79.7859 118.305 81.4767 115.838C83.4393 112.973 85.1763 109.726 86.944 106.665C87.7572 105.257 88.8039 104.11 89.7077 102.804C90.9231 101.048 92.0391 99.1609 93.192 97.3323C93.5407 96.7789 94.125 95.3634 94.6671 95.38C95.0469 95.3917 95.7166 96.5842 95.9154 96.9578C96.6538 98.3468 96.6505 100.855 97.0177 102.589C97.9138 106.817 99.5297 110.946 101.746 114.209C103.95 117.453 106.772 119.76 109.379 122.368C112.202 125.194 114.877 128.085 117.117 131.734C118.005 130.637 118.974 129.667 119.866 128.556C120.716 127.499 121.823 126.641 122.573 125.485ZM80.7586 144.889C81.3902 144.897 82.4596 145.415 83.0246 145.103C81.3488 142.631 79.8099 140.51 77.6897 138.698C75.4895 136.818 73.2966 134.954 71.1596 132.949C66.853 128.907 63.6854 124.114 61.8865 117.384C61.4233 115.651 61.113 113.833 60.7735 112.051C60.5909 111.092 60.2273 106.603 59.6099 106.215C59.2442 105.985 56.4916 108.565 56.0555 108.886C55.0358 109.638 54.0124 110.221 52.9582 110.809C50.6922 112.075 48.3562 113.039 45.9533 113.845C43.0724 114.811 41.1101 113.213 39.3255 110.194C37.3007 106.768 35.6182 102.904 33.7669 99.3068C32.925 97.6708 32.2276 96.0374 31.6059 94.2329C31.199 93.0522 29.5851 89.8667 30.1428 88.6088C31.7337 90.2238 32.3061 93.4349 33.3899 95.5973C34.7406 98.2923 36.2628 100.833 37.6205 103.526C38.7622 105.79 39.9269 108.534 41.6136 110.161C43.0973 111.593 44.5068 111.153 46.1035 110.509C48.0388 109.729 50.0447 109.345 51.9413 108.378C53.9938 107.332 55.9356 105.847 57.9381 104.637C58.8716 104.073 59.9894 103.752 60.8691 103.048C61.6273 102.442 61.5143 102.122 61.5699 100.831C61.635 99.3254 61.7098 97.8184 61.7598 96.3112C61.7933 95.2985 61.3826 93.9255 61.6614 93.1695C59.3879 93.695 57.166 94.3989 54.9085 95.0216C53.6725 95.3625 52.4807 95.784 51.2321 96.0518C50.7561 96.1538 50.1055 96.151 49.6793 96.4274C49.3393 96.2973 49.166 96.3801 49.1594 96.6756C49.1431 96.8361 49.1174 96.9943 49.082 97.1499C48.3849 97.5727 47.9795 96.6658 47.3749 95.7959C46.6288 94.7223 46.0702 93.5133 45.5228 92.2518C44.2989 89.4313 42.8883 86.7786 41.7558 83.8786C40.6014 80.9225 39.664 77.7573 38.6853 74.6902C37.7875 71.8764 37.2126 68.8332 36.2205 66.086C35.7777 64.8597 35.2166 63.8456 34.5613 62.8097C34.0206 61.9548 33.1887 60.1107 32.3812 59.7181C32.1677 59.6142 31.6085 59.7887 31.366 59.7656C30.8826 59.7196 30.4518 59.483 29.957 59.5348C28.8859 59.6466 27.7181 60.5497 26.8622 61.3437C27.4153 62.0011 28.7991 62.8002 27.8051 63.9844C26.8406 65.1341 26.3078 63.0718 25.9398 62.1682C24.2066 64.0659 24.4571 66.6825 24.2569 69.3638C24.1523 70.7636 23.8772 72.1422 23.6997 73.521C23.5719 74.5134 23.6615 75.5398 23.625 76.5529C23.5319 79.1275 23.3378 81.5918 23.3473 84.1303C23.3572 86.8437 23.4959 89.4641 23.6587 92.1577C23.9328 96.6928 24.5609 101.229 25.0994 105.729C25.4024 108.257 25.8171 110.715 26.2197 113.203C26.6766 116.026 27.5217 118.701 27.9957 121.517C28.4787 120.699 28.8419 120.695 29.623 120.803C30.2238 120.887 30.6274 120.696 30.5922 121.808C30.5695 122.529 30.0923 123.08 29.5644 123.206C28.8759 123.37 28.642 122.912 28.2872 122.217C28.2042 123.533 28.8683 124.91 29.1309 126.196C29.3795 127.414 29.5441 128.609 29.9618 129.775C30.3694 130.913 30.7184 132.035 31.1308 133.162C31.3207 133.68 31.4983 134.207 31.6904 134.724C31.7875 134.986 31.9019 135.347 32.0468 135.568C32.3868 136.085 32.3327 135.834 32.7306 136.129C33.5976 136.771 33.272 136.611 33.2923 137.937C33.312 139.245 33.8151 140.206 34.6217 140.941C36.3332 142.501 38.0212 142.935 39.9669 143.723C41.7798 144.458 43.6893 145.088 45.609 145.073C47.9601 145.056 50.28 144.645 52.6311 144.603C55.2249 144.557 57.8437 144.576 60.4322 144.696C61.4985 144.745 62.4888 144.808 63.5182 145.171C64.7137 145.593 65.8702 145.426 67.1024 145.362C69.731 145.225 72.4504 144.954 75.0447 144.93C76.9127 144.912 78.8837 144.738 80.7586 144.889ZM148.923 146.247C149.39 146.576 150.438 146.441 150.907 146.35C151.735 146.189 151.824 145.752 152.349 144.768C153.252 143.073 153.986 141.45 154.518 139.488C155.536 135.731 155.951 131.888 156.398 127.958C156.895 123.592 155.988 119.066 155.663 114.729C155.589 113.734 155.487 112.748 155.369 111.761C155.298 111.17 155.28 109.162 154.989 108.651C154.429 107.669 151.826 108.461 150.802 108.55C147.945 108.799 145.07 108.857 142.214 108.9C140.692 108.923 139.161 109.008 137.654 109.024C136.961 109.031 136.284 108.985 135.59 108.895C135.357 108.866 135.13 108.794 134.896 108.777C134.095 108.718 134.155 108.563 133.948 109.509C133.585 111.167 133.864 113.276 133.769 114.997C133.641 117.297 133.572 119.629 133.604 121.933C133.633 124.062 133.579 126.187 133.638 128.321C133.663 129.205 133.736 129.925 133.91 130.769C134.108 131.724 134.326 133.953 134.818 134.613C134.874 134.689 135.292 134.513 135.403 134.701C135.575 134.989 135.543 135.599 135.661 135.786C136.041 136.389 136.827 136.437 137.398 136.708C138.962 137.452 140.398 138.26 141.872 139.263C143.19 140.159 145.314 140.922 146.107 142.69C146.47 143.501 146.519 144.57 146.853 145.406C147.233 146.359 146.472 145.861 147.404 146.247C147.824 146.421 148.492 146.247 148.923 146.247ZM10.0083 135.472C9.88972 137.672 8.9602 139.768 8.63663 141.931C8.48523 142.944 8.2284 143.939 8.05043 144.946C7.87977 145.912 7.26319 147.056 7.32561 148.012C9.60135 146.931 11.9065 146.659 14.285 146.368C16.5393 146.091 18.9208 145.981 21.1562 145.98C23.4341 145.978 25.8697 145.682 28.2152 145.636C30.6681 145.588 33.158 145.503 35.5753 145.164C34.3113 143.915 32.7296 142.743 31.7963 141.006C30.7816 139.118 30.2547 136.753 29.3619 134.761C27.5702 130.763 26.4312 125.802 25.492 121.311C23.596 112.244 21.4771 103.344 20.9664 93.939C19.9946 94.6026 19.2231 97.1772 18.7365 98.4592C18.1155 100.096 17.7902 101.871 17.3865 103.61C16.5551 107.194 15.9797 110.91 14.9617 114.459C13.016 121.244 11.7654 128.555 10.0083 135.472ZM133.542 82.6267C133.963 86.6819 134.846 90.7895 134.88 94.8937C134.887 95.7966 134.772 96.7993 134.914 97.6896C135.064 98.6401 135.555 99.4803 135.838 100.384C136.287 101.818 137.425 104.757 136.327 105.972C136.305 104.819 135.514 103.354 135.115 102.346C134.514 100.827 133.725 99.4381 133.074 97.9565C131.71 94.8556 130.183 91.821 128.426 89.0873C126.714 86.4244 124.742 84.0624 122.927 81.5268C122.382 80.7648 118.008 73.4321 117.835 73.5345C119.191 80.5103 121.498 86.5798 124.654 92.4205C126.201 95.2837 128.058 97.1679 129.942 99.5935C131.511 101.614 134.467 103.774 133.925 107.083C136.377 106.769 138.813 106.267 141.288 106.267C140.881 102.091 140.569 97.9813 139.843 93.8741C139.018 89.2104 138.459 84.4072 137.761 79.7021C137.049 74.8987 135.841 70.2485 135.09 65.4542C134.37 60.8633 133.752 56.2806 133.224 51.6386C132.788 54.2108 132.949 57.0359 132.794 59.6603C132.636 62.3415 132.651 64.9734 132.704 67.6704C132.802 72.6799 133.202 77.6289 133.542 82.6267ZM144.168 58.743C144.182 56.5987 144.494 54.4835 144.59 52.3443C144.62 51.688 145.11 47.2102 144.653 46.9765C144.277 48.0695 144.189 49.4682 143.847 50.6151C143.506 51.7608 143.05 52.8523 142.722 54.006C142.013 56.5053 141.769 59.3333 141.692 61.9905C141.519 68.0007 141.43 73.9974 141.733 80.0076C141.863 82.5837 141.962 85.1643 141.927 87.7455C141.888 90.5857 141.562 93.0509 141.958 95.8678C142.35 98.6573 142.596 101.435 142.727 104.266C142.819 106.252 142.855 106.111 144.277 105.972C145.303 105.871 146.339 105.979 147.367 105.916C146.886 98.1739 146.808 90.4159 146.04 82.7035C145.649 78.7689 145.638 74.7774 145.152 70.8575C144.91 68.9102 144.505 67.0022 144.272 65.0527C144.021 62.9596 144.145 60.8523 144.168 58.743ZM40.2248 53.8708C42.9612 54.1869 45.8719 55.2777 48.6768 54.5574C48.2144 54.3077 47.0045 53.9633 47.549 52.9778C48.1027 51.9758 49.0357 53.2468 49.5879 53.1155C49.9284 53.0345 50.6808 51.1368 50.8906 50.7439C51.3669 49.851 51.4243 49.6954 52.2808 49.4665C53.1106 49.2451 53.2987 49.4848 53.4037 48.3849C53.5244 47.1201 53.1962 45.6981 53.2288 44.4048C53.2987 41.6204 53.9723 39.1786 54.5994 36.5589C51.9353 37.3316 49.3304 38.248 46.6064 38.7461C45.442 38.959 43.6304 39.4502 42.5726 38.3948C42.2975 38.1203 42.3415 37.7498 42.1163 37.4317C41.7388 36.898 41.0386 36.3459 40.5032 36.1939C37.2083 35.2586 36.8868 41.5214 38.538 43.8649C38.9516 44.4521 39.527 44.7421 39.9505 45.2802C40.5158 45.9979 40.5621 46.7538 40.6446 47.8493C40.7993 49.9034 40.5892 51.9656 39.9319 53.8446L40.2248 53.8708ZM80.2088 83.437C81.1815 83.6832 82.1967 83.627 83.1718 83.837C83.5183 83.9116 84.5571 84.1719 84.8617 83.9019C85.3269 83.4895 85.4922 81.977 85.7122 81.2726C86.099 80.0337 86.6464 78.9531 87.0153 77.6916C88.5227 72.5389 89.9283 67.3656 91.7515 62.3889C91.0528 62.1468 90.5162 62.1372 89.812 62.0122C89.0783 61.8818 88.4133 61.3034 87.7134 61.0548C87.0481 60.8186 86.3512 60.8788 85.6921 60.6041C85.329 60.4529 85.0174 60.1167 84.6595 59.9992C84.0889 59.8121 83.423 59.7028 83.0837 60.2022C82.7359 60.7144 82.6139 62.1189 82.4246 62.7805C81.9206 64.5431 81.335 66.2442 80.9129 68.0474C80.5319 69.6737 80.1699 71.2827 79.8346 72.9238C79.4803 74.6564 78.7821 76.0843 78.3567 77.7394C78.0332 78.9991 77.7279 80.2869 77.6795 81.6301C77.6326 82.9408 77.4895 83.0242 78.4724 83.2336C78.9687 83.3392 79.742 83.7323 80.2088 83.437ZM144.206 144.778C144.459 144.935 144.698 144.914 144.923 144.715C142.726 143.478 140.59 141.763 138.298 140.914C136.149 140.118 134.06 139.167 131.989 138.187C130.306 137.391 128.794 136.771 127.273 135.369C126.349 134.518 125.529 133.561 124.894 132.318C124.188 130.934 124.031 128.964 123.266 127.717C122.233 129.229 121.02 130.374 119.798 131.576C119.376 131.991 118.362 132.898 118.217 133.541C118.035 134.352 118.524 135.129 118.765 135.95C119.384 138.054 119.687 140.157 120.023 142.344C120.157 143.221 120.448 144.538 120.988 144.906C121.48 145.24 122.904 144.997 123.516 144.935C126.708 144.612 129.844 144.282 133.056 144.576C136.69 144.908 140.581 145.138 144.206 144.778ZM150.583 105.795C151.163 105.797 151.73 105.701 152.308 105.701C151.974 103.623 152.754 100.935 153.031 98.8614C153.34 96.5419 153.576 94.1433 153.782 91.8051C154.217 86.8802 154.414 82.0151 154.42 77.0541C154.425 72.2536 155.08 67.8668 155.999 63.252C156.984 58.2959 158.599 53.8389 159.933 49.0592C158.469 50.0911 157.659 52.5059 156.89 54.352C155.917 56.6862 155.269 59.2707 154.872 61.8911C154.106 66.9462 153.266 72.0165 152.382 77.0631C151.461 82.3179 150.92 87.6209 149.865 92.8326C149.351 95.3742 148.652 98.5011 148.613 101.122C148.597 102.206 148.352 104.477 148.72 105.419C149.065 106.3 149.827 105.885 150.583 105.795ZM63.0009 99.2749C62.9704 99.8146 62.9415 100.328 62.8696 100.861C63.6733 100.851 64.6911 99.7389 65.3804 99.2397C66.2202 98.6317 67.0609 97.961 67.8821 97.3498C69.4676 96.1695 71.2675 95.3919 72.9604 94.4224C74.9051 93.3085 76.6926 91.9627 78.5523 90.6218C79.2019 90.1534 83.8706 87.4551 83.7922 86.7179C82.7673 86.6723 81.7423 86.627 80.7171 86.5816C79.8384 86.5426 78.4774 86.8074 77.6359 86.4452C77.175 86.2467 76.6575 85.516 76.4836 84.9438C76.3114 84.3776 76.6984 81.7733 76.4734 81.6073C75.3263 83.169 74.6049 85.2446 73.5793 86.9293C72.4459 88.7914 70.9813 89.8787 69.3671 90.8681C67.5846 91.9609 65.7397 92.8072 63.918 93.7437C63.1497 94.1386 63.165 94.3646 63.0981 95.4878C63.0232 96.7431 63.0313 98.0163 63.0009 99.2749ZM155.629 146.503C157.561 146.78 159.541 146.622 161.489 146.838C162.197 146.916 163.18 147.033 162.467 148.301C162.018 149.099 160.58 148.843 159.927 148.899C158.176 149.047 156.322 148.967 154.567 148.933C154.197 148.926 153.789 148.779 153.415 148.812C152.984 148.85 152.468 149.263 152.075 149.26C151.833 149.258 151.746 148.918 151.537 148.886C151.082 148.818 150.627 148.768 150.168 148.769C143.23 148.771 136.388 148.585 129.467 148.575C126.158 148.57 122.796 148.494 119.488 148.287C118.793 148.243 114.837 148.433 114.947 146.765C115.003 145.906 116.294 145.785 116.766 145.694C117.115 145.626 117.477 145.637 117.827 145.612C118.756 145.545 119.163 145.844 118.967 144.488C118.224 139.345 116.891 135.095 114.044 131.398C111.716 128.374 108.913 125.632 106.277 123.107C103.075 120.041 100.478 116.817 98.5774 112.126C97.4674 109.386 96.5382 106.586 95.968 103.557C95.7628 102.467 95.758 101.227 95.5065 100.177C95.3131 99.3681 94.8721 98.8021 94.6125 97.9643C91.4273 105.058 87.2057 110.993 83.3349 117.388C81.4853 120.444 79.3754 123.346 77.1656 126.004C76.5098 126.793 75.8979 127.617 75.2858 128.466C74.7738 129.176 73.961 129.808 73.5287 130.596C73.1139 131.352 73.216 131.316 73.8472 131.917C74.6816 132.71 75.6012 133.37 76.4487 134.144C77.8034 135.381 79.2821 136.426 80.4933 137.915C81.8034 139.525 82.9479 141.39 84.0929 143.206C84.8561 144.416 85.8575 145.969 86.0494 147.499C86.113 148.005 86.3544 149.257 86.0358 149.627C85.7635 149.944 85.7909 149.824 85.4529 149.631C85.01 149.378 84.8796 148.797 84.3386 148.52C82.9542 147.811 81.2789 148.055 79.8384 148.046C78.3974 148.037 76.9444 148.253 75.5041 148.245C72.215 148.227 68.9959 148.582 65.7078 148.773C62.2155 148.975 58.6804 148.489 55.1997 148.558C52.6208 148.609 49.9732 148.352 47.3231 148.543C45.9599 148.641 44.6212 148.414 43.2921 148.389C41.5519 148.355 39.7647 148.671 38.0096 148.716C35.1289 148.79 32.2834 148.789 29.3851 148.882C23.1509 149.081 16.9504 149.286 10.7125 149.418C9.88042 149.435 8.9695 149.398 8.14722 149.523C7.27448 149.655 7.72504 149.903 7.12622 150.322C5.4498 151.494 5.83695 147.148 5.87712 146.293C6.09261 141.712 6.96486 137.219 8.01308 132.869C9.00751 128.744 9.81485 124.427 10.657 120.213C11.5789 115.601 12.7801 111.177 13.8708 106.61C14.9884 101.93 15.8983 97.068 17.9282 92.9196C18.3905 91.9749 18.8683 90.9582 19.6121 90.3626C20.4458 89.6947 20.4817 90.0847 20.481 88.8627C20.4805 87.7116 20.5336 86.1739 20.3299 85.0755C20.1458 84.0832 20.1742 84.6715 19.7597 83.9588C19.4223 83.379 19.0694 82.9828 18.8273 82.2789C17.3405 84.289 13.937 83.2283 12.5005 81.7809C10.7422 80.0091 9.40296 77.0202 8.91222 74.1736C8.5181 71.8877 9.0017 67.5303 10.8993 66.4311C11.8243 65.8952 15.222 65.4901 15.3579 63.7436C15.428 62.842 14.2322 61.5743 13.9563 60.7992C13.4449 59.363 12.9539 57.4527 12.8118 55.8784C12.5342 52.8056 13.5804 49.3695 15.247 47.2939C18.3044 43.4861 23.6838 41.532 27.6165 43.9479C26.7855 39.7149 26.2838 36.0633 26.7023 31.6601C27.0629 27.8667 28.7415 25.7444 31.0512 23.8549C34.9928 20.6302 40.3528 19.3574 44.8596 20.295C45.8837 20.5082 46.8665 20.9653 47.8148 21.329C49.1924 21.8573 50.8416 21.6814 52.1424 22.5398C53.0855 23.1621 53.8017 24.4017 54.6299 25.2293C55.597 26.1955 56.4005 27.6376 57.0724 28.9713C58.5092 31.8232 57.9478 37.1162 56.7451 39.979C56.4873 40.593 56.1687 41.1099 55.7421 41.5289C55.2978 41.965 54.6206 42.1007 54.3917 42.6663C53.8053 44.115 54.371 47.2514 54.4491 48.8172C54.5403 50.6354 53.8508 52.0012 52.3046 52.1462C51.4101 52.2303 51.3815 51.5384 50.9532 52.9621C50.6756 53.8849 50.4234 54.8903 50.0228 55.7363C49.1969 57.4799 47.6842 57.3097 46.3062 57.2626C44.7112 57.2077 43.14 56.8717 41.5441 56.6596C41.9656 58.4603 43.1194 59.8579 43.8399 61.4621C44.8141 63.6318 45.4005 65.4303 45.5588 67.9582C45.6804 69.9003 45.4181 71.4341 44.4213 72.8795C44.0087 73.4779 43.643 73.5073 43.7455 74.1975C43.8079 74.6185 44.3539 75.3131 44.5471 75.6491C45.0583 76.5381 45.6518 77.354 46.1017 78.3034C47.8329 81.9562 48.3443 87.5246 48.3486 91.7768C48.3487 91.9718 48.4268 92.3864 48.3622 92.588C48.3144 92.737 47.9511 93.2087 47.9458 93.2492C47.8748 93.796 48.2745 94.7332 48.9019 94.8259C49.5608 94.9231 50.7676 94.19 51.3805 93.9491C52.3613 93.5635 53.3611 93.2789 54.3397 92.8829C55.9204 92.2434 57.4937 91.7334 59.1006 91.2322C59.8267 91.006 60.5569 90.8174 61.2853 90.6058C62.1151 90.365 62.5006 89.8995 62.9289 91.0251C63.2963 91.991 63.0678 92.1661 63.9579 91.6794C64.8416 91.1957 65.705 90.5963 66.5678 90.0504C68.0895 89.088 69.9017 88.23 71.2144 86.8091C73.404 84.4387 74.2148 80.6637 76.3104 78.1484C76.894 77.4481 77.2421 77.4357 77.611 76.4655C78.0059 75.4271 78.2096 74.0955 78.4171 72.9785C78.7809 71.0226 79.0397 69.0599 79.3696 67.1058C79.7805 64.6713 80.6685 62.4666 81.3164 60.1446C81.569 59.2399 81.6998 58.09 82.107 57.277C82.2149 57.0614 82.4211 56.9398 82.5053 56.7614C82.795 56.1489 82.792 55.9807 82.867 55.2438C83.2182 51.8007 84.7596 53.612 86.444 54.4016C87.1537 54.7343 90.5237 56.8918 89.2369 58.3266C90.7709 58.9201 93.2277 58.5976 93.2071 61.5287C93.1965 63.0306 92.5228 64.6372 92.1612 66.043C91.84 67.2912 91.5296 68.5443 91.2033 69.7906C90.4886 72.5205 89.6215 75.1688 88.9241 77.9072C88.6062 79.1552 88.3439 80.4324 87.9013 81.6102C87.511 82.6492 86.5659 83.7945 86.4101 84.9307C90.4979 82.6054 94.2796 79.2435 98.8552 79.4578C100.859 79.5514 102.677 80.6743 103.783 83.0231C105.171 85.9671 106.083 89.2633 107.439 92.2345C112.372 103.043 118.255 112.862 123.669 123.223C124.085 124.02 124.62 124.772 124.764 125.756C124.859 126.398 124.676 127.041 124.789 127.657C125.023 128.939 126.207 130.539 127.009 131.275C128.547 132.687 131.048 134.679 132.968 134.502C131.763 130.642 131.779 126.412 131.835 122.294C131.888 118.383 132.205 114.503 132.582 110.631C132.667 109.755 132.741 108.943 132.93 108.095C133.147 107.121 133.444 107.213 132.795 106.337C131.796 104.989 130.608 103.88 129.601 102.515C127.424 99.5638 125.192 97.2504 123.478 93.7258C121.848 90.3734 120.128 86.924 118.922 83.2529C117.68 79.4737 117.183 75.4377 116.567 71.4354C116.316 69.8114 115.404 67.9983 115.587 66.3022C115.819 64.1589 116.564 65.7196 116.868 66.8731C117.794 70.3942 119.962 73.5456 121.758 76.3774C123.699 79.4365 126.072 81.996 128.097 84.9662C130.303 88.201 131.813 91.9187 133.775 95.3718C133.775 91.0864 132.677 86.7226 132.228 82.4832C131.833 78.7519 131.709 75.0088 131.46 71.2612C130.893 62.7484 131.383 53.9848 132.178 45.5328C132.557 41.5188 132.342 37.5992 132.354 33.5715C132.357 32.2896 131.959 29.3352 132.467 28.1977C133.438 26.0189 134.004 30.7831 134.054 31.4934C134.347 35.7248 133.821 39.9091 134.09 44.1223C134.371 48.5222 134.981 52.7985 135.5 57.1475C136.063 61.8563 136.979 66.459 137.856 71.0775C138.777 75.9267 139.551 80.8771 140.575 85.6875C140.851 84.1755 140.463 82.3179 140.387 80.7779C140.278 78.5741 140.064 76.3699 140.046 74.1603C140.016 70.6388 139.996 67.052 140.145 63.5468C140.292 60.0919 140.248 56.4717 141.043 53.1432C141.42 51.5634 141.973 50.0221 142.514 48.5339C143.182 46.6989 143.418 44.9196 143.788 42.968C144.104 41.2965 144.568 39.6691 144.779 37.9642C144.91 36.904 145.276 33.774 146.187 36.1454C146.715 37.5218 146.487 39.5622 146.501 41.0409C146.52 42.9365 146.303 44.7797 146.269 46.6675C146.204 50.3711 146.158 54.0704 145.951 57.7679C145.733 61.6472 145.923 65.1237 146.477 68.9461C147.082 73.1301 147.26 77.3232 147.574 81.5584C147.735 83.7452 148.008 85.9197 148.14 88.1096C148.21 89.2693 147.852 92.5947 148.476 93.4206C148.536 91.412 148.967 89.4016 149.295 87.4444C149.682 85.1257 149.839 82.6882 150.125 80.3363C150.587 76.5259 151.485 72.8871 152.079 69.1194C153.303 61.3528 154.321 51.3708 159.452 46.2872C160.123 45.622 160.861 45.131 161.587 44.5836C161.998 44.2737 162.608 43.472 163.078 43.3321C163.592 43.1794 163.806 43.298 164.014 44.0918C164.304 45.1983 163.773 45.7152 163.278 46.5189C161.564 49.3 160.832 52.8652 159.774 56.1268C157.351 63.5955 156.279 71.4731 156.266 79.5463C156.26 83.7726 156.041 87.8488 155.703 92.0495C155.339 96.5702 154.861 101.351 153.83 105.7C154.864 106.009 155.984 105.549 156.265 107.15C156.334 107.543 156.209 108.008 156.285 108.52C156.359 109.018 156.538 109.513 156.643 110.002C156.861 111.015 156.976 112.013 157.082 113.053C157.492 117.07 158.195 120.891 158.27 124.964C158.339 128.729 157.786 132.544 157.276 136.236C156.763 139.955 155.292 143.126 154.133 146.489C154.632 146.489 155.13 146.496 155.629 146.503Z" fill="black"/>
<path fill-rule="evenodd" clip-rule="evenodd" d="M90.0525 137.953C89.503 138.161 86.8502 138.552 86.8507 139.661C86.851 140.327 89.5003 140.314 89.9691 140.386C89.997 139.576 90.0247 138.764 90.0525 137.953ZM95.908 145.612C97.4367 146 99.5117 145.455 100.489 143.658C100.946 142.818 101.162 141.541 101.311 140.539C101.453 139.584 101.891 137.201 101.593 136.306C101.227 135.207 97.7146 136.356 96.6918 136.482C94.9073 136.701 93.062 136.727 91.2763 136.572C91.2763 139.031 91.182 141.426 92.2665 143.542C93.0489 145.069 94.5181 145.429 95.908 145.612ZM95.6007 148.649C93.9397 147.838 92.1959 148.365 91.1143 145.987C90.8399 145.384 90.6088 144.736 90.4428 144.065C90.3616 143.772 90.2985 143.471 90.2537 143.163C90.3382 142.501 90.1561 142.314 89.7075 142.603C88.8271 142.375 87.8617 143.18 86.9344 142.943C84.6852 142.367 85.0937 138.071 86.6032 136.584C86.9013 136.29 87.1991 136.208 87.5405 136.063C88.2929 135.743 88.7001 136.1 89.3882 136.01C89.9444 135.936 90.0973 135.159 90.6949 134.816C91.0862 134.592 91.6294 134.61 92.0408 134.587C94.1937 134.469 96.3534 134.47 98.5201 134.283C99.5306 134.196 100.622 134.409 101.612 134.179C102.075 134.071 102.009 133.66 102.448 134.021C102.902 134.394 102.706 135.776 102.683 136.327C102.55 139.513 102.408 142.93 101.128 145.715C99.9568 148.263 97.6523 148.524 95.6007 148.649Z" fill="black"/>
<path fill-rule="evenodd" clip-rule="evenodd" d="M7.88025 149.526C8.41465 149.519 8.94889 149.511 9.48147 149.504C8.9464 149.512 8.41333 149.519 7.88025 149.526Z" fill="black"/>
<path fill-rule="evenodd" clip-rule="evenodd" d="M156.269 81.5981C156.268 80.9136 156.267 80.2292 156.266 79.5461C156.267 80.231 156.268 80.9145 156.269 81.5981Z" fill="black"/>
<path fill-rule="evenodd" clip-rule="evenodd" d="M20.3313 84.4088C20.3297 85.0755 20.3282 85.7422 20.3267 86.4074C20.328 85.7402 20.3296 85.0744 20.3313 84.4088Z" fill="black"/>
<path fill-rule="evenodd" clip-rule="evenodd" d="M64.7522 148.771C65.1774 148.772 65.6025 148.772 66.0257 148.774C65.5999 148.773 65.1762 148.772 64.7522 148.771Z" fill="black"/>
<path fill-rule="evenodd" clip-rule="evenodd" d="M38.9373 148.635C39.3624 148.636 39.7874 148.638 40.2106 148.64C39.7848 148.639 39.3611 148.637 38.9373 148.635Z" fill="black"/>
<path fill-rule="evenodd" clip-rule="evenodd" d="M131.891 120.945C131.872 121.395 131.854 121.845 131.835 122.294C131.854 121.844 131.872 121.394 131.891 120.945Z" fill="black"/>
<path fill-rule="evenodd" clip-rule="evenodd" d="M155.629 146.503C155.301 146.498 154.972 146.494 154.643 146.489C154.973 146.306 155.302 146.314 155.629 146.503Z" fill="black"/>
<path fill-rule="evenodd" clip-rule="evenodd" d="M126.459 148.494C126.695 148.49 126.931 148.485 127.164 148.48C126.928 148.485 126.693 148.49 126.459 148.494Z" fill="black"/>
<path fill-rule="evenodd" clip-rule="evenodd" d="M156.142 87.1513C156.147 86.8111 156.153 86.4711 156.159 86.1322C156.153 86.4726 156.147 86.812 156.142 87.1513Z" fill="black"/>
<path fill-rule="evenodd" clip-rule="evenodd" d="M134.09 44.1223C134.07 43.7714 134.051 43.4208 134.031 43.0709C134.051 43.4219 134.07 43.7721 134.09 44.1223Z" fill="black"/>
<path fill-rule="evenodd" clip-rule="evenodd" d="M156.258 82.9378C156.261 82.5861 156.264 82.2346 156.268 81.8842C156.264 82.2362 156.261 82.587 156.258 82.9378Z" fill="black"/>
<path fill-rule="evenodd" clip-rule="evenodd" d="M82.1016 148.059C82.3112 148.063 82.5209 148.067 82.7288 148.07C82.5188 148.066 82.3101 148.063 82.1016 148.059Z" fill="black"/>
<path fill-rule="evenodd" clip-rule="evenodd" d="M136.107 148.633C136.312 148.638 136.517 148.643 136.72 148.648C136.515 148.643 136.311 148.638 136.107 148.633Z" fill="black"/>
<path fill-rule="evenodd" clip-rule="evenodd" d="M158.246 123.905C158.231 123.597 158.217 123.289 158.202 122.981C158.217 123.289 158.232 123.597 158.246 123.905Z" fill="black"/>
<path fill-rule="evenodd" clip-rule="evenodd" d="M154.567 148.933C154.733 148.932 154.9 148.93 155.065 148.93C154.898 148.931 154.732 148.932 154.567 148.933Z" fill="black"/>
<path fill-rule="evenodd" clip-rule="evenodd" d="M131.836 148.646C132.001 148.641 132.167 148.636 132.33 148.631C132.164 148.636 132 148.641 131.836 148.646Z" fill="black"/>
<path fill-rule="evenodd" clip-rule="evenodd" d="M94.7004 148.478C94.8824 148.477 95.0642 148.476 95.2443 148.474C95.062 148.475 94.8812 148.477 94.7004 148.478Z" fill="black"/>
<path fill-rule="evenodd" clip-rule="evenodd" d="M52.7634 148.478C52.9362 148.479 53.1092 148.481 53.2802 148.483C53.1067 148.482 52.9351 148.48 52.7634 148.478Z" fill="black"/>
<path fill-rule="evenodd" clip-rule="evenodd" d="M42.5616 148.515C42.738 148.502 42.9139 148.489 43.0886 148.476C42.9118 148.489 42.7368 148.502 42.5616 148.515Z" fill="black"/>
<path fill-rule="evenodd" clip-rule="evenodd" d="M91.4042 58.951C91.1419 58.9209 90.8796 58.8908 90.6173 58.8605C90.8799 58.8851 91.1577 58.6779 91.4042 58.951Z" fill="black"/>
<path fill-rule="evenodd" clip-rule="evenodd" d="M158.271 146.636C158.012 146.601 157.754 146.566 157.495 146.531C157.754 146.566 158.012 146.601 158.271 146.636Z" fill="black"/>
<path fill-rule="evenodd" clip-rule="evenodd" d="M140.23 61.0745C140.212 61.3766 140.195 61.679 140.178 61.9803C140.195 61.6777 140.212 61.3759 140.23 61.0745Z" fill="black"/>
<path fill-rule="evenodd" clip-rule="evenodd" d="M156.323 73.6722C156.341 73.3858 156.358 73.0994 156.376 72.814C156.358 73.1009 156.341 73.3865 156.323 73.6722Z" fill="black"/>
<path fill-rule="evenodd" clip-rule="evenodd" d="M140.127 65.7615C140.108 66.0632 140.089 66.3647 140.071 66.6653C140.09 66.3633 140.108 66.0623 140.127 65.7615Z" fill="black"/>
<path fill-rule="evenodd" clip-rule="evenodd" d="M156.214 85.2353C156.212 84.9438 156.21 84.6523 156.209 84.3616C156.35 84.6523 156.344 84.9431 156.214 85.2353Z" fill="black"/>
<path fill-rule="evenodd" clip-rule="evenodd" d="M131.895 127.1C131.893 127.393 131.891 127.685 131.889 127.976C131.744 127.681 131.773 127.39 131.895 127.1Z" fill="black"/>
<path fill-rule="evenodd" clip-rule="evenodd" d="M148.381 93.2946C148.355 92.9989 148.33 92.7029 148.305 92.4081C148.33 92.7043 148.355 92.9995 148.381 93.2946Z" fill="black"/>
<path fill-rule="evenodd" clip-rule="evenodd" d="M11.8718 66.1501C11.7003 66.4523 11.4667 66.2453 11.2628 66.2821C11.466 66.238 11.6689 66.1942 11.8718 66.1501Z" fill="black"/>
<path fill-rule="evenodd" clip-rule="evenodd" d="M96.6712 134.493C96.4545 134.493 96.2379 134.494 96.0212 134.494C96.2381 134.494 96.4545 134.493 96.6712 134.493Z" fill="black"/>
<path fill-rule="evenodd" clip-rule="evenodd" d="M131.285 67.3915C131.305 67.6372 131.325 67.8829 131.346 68.1277C131.325 67.8816 131.305 67.6365 131.285 67.3915Z" fill="black"/>
<path fill-rule="evenodd" clip-rule="evenodd" d="M24.2137 42.9892C23.9959 42.995 23.7781 43.0007 23.5603 43.0065C23.7758 42.8374 23.9929 42.7884 24.2137 42.9892Z" fill="black"/>
<path fill-rule="evenodd" clip-rule="evenodd" d="M140.121 70.0117C140.107 70.2693 140.093 70.5268 140.079 70.7833C140.093 70.5256 140.107 70.2687 140.121 70.0117Z" fill="black"/>
<path fill-rule="evenodd" clip-rule="evenodd" d="M134.148 38.3842C134.165 38.1493 134.182 37.9144 134.199 37.6809C134.182 37.9162 134.165 38.1502 134.148 38.3842Z" fill="black"/>
<path fill-rule="evenodd" clip-rule="evenodd" d="M132.437 37.6484C132.42 37.9032 132.402 38.1582 132.385 38.4121C132.403 38.1568 132.42 37.9025 132.437 37.6484Z" fill="black"/>
<path fill-rule="evenodd" clip-rule="evenodd" d="M37.8255 20.6281C37.6039 20.6639 37.3822 20.6998 37.1608 20.7354C37.3824 20.6995 37.6039 20.6639 37.8255 20.6281Z" fill="black"/>
<path fill-rule="evenodd" clip-rule="evenodd" d="M21.8177 43.192C21.5902 43.2229 21.3628 43.2539 21.1355 43.2849C21.3629 43.2539 21.5904 43.2229 21.8177 43.192Z" fill="black"/>
<path fill-rule="evenodd" clip-rule="evenodd" d="M146.451 43.9388C146.465 43.7017 146.479 43.4644 146.493 43.2287C146.479 43.466 146.465 43.7024 146.451 43.9388Z" fill="black"/>
<path fill-rule="evenodd" clip-rule="evenodd" d="M14.3525 83.0645C14.4835 83.067 14.6143 83.0693 14.7433 83.0717C14.6119 83.0693 14.4822 83.067 14.3525 83.0645Z" fill="black"/>
<path fill-rule="evenodd" clip-rule="evenodd" d="M132.443 112.324C132.43 112.587 132.417 112.849 132.404 113.111C132.417 112.849 132.43 112.587 132.443 112.324Z" fill="black"/>
<path fill-rule="evenodd" clip-rule="evenodd" d="M145.805 61.2354C145.8 60.9824 145.795 60.7296 145.789 60.4773C145.795 60.7305 145.8 60.9829 145.805 61.2354Z" fill="black"/>
<path fill-rule="evenodd" clip-rule="evenodd" d="M43.4046 20.0294C43.2026 20.0294 43.0005 20.0296 42.7988 20.0296C43.0009 19.8445 43.2027 19.8492 43.4046 20.0294Z" fill="black"/>
<path fill-rule="evenodd" clip-rule="evenodd" d="M97.3449 79.5788C97.1236 79.5863 96.9024 79.5939 96.6814 79.6014C96.8987 79.3964 97.1202 79.3913 97.3449 79.5788Z" fill="black"/>
<path fill-rule="evenodd" clip-rule="evenodd" d="M116.684 148.049C116.815 148.052 116.947 148.056 117.076 148.06C116.944 148.057 116.814 148.053 116.684 148.049Z" fill="black"/>
<path fill-rule="evenodd" clip-rule="evenodd" d="M121.624 148.356C121.755 148.35 121.886 148.344 122.015 148.338C121.884 148.344 121.754 148.35 121.624 148.356Z" fill="black"/>
<path fill-rule="evenodd" clip-rule="evenodd" d="M44.3114 148.478C44.448 148.482 44.5847 148.487 44.7195 148.491C44.5823 148.486 44.4469 148.482 44.3114 148.478Z" fill="black"/>
<path fill-rule="evenodd" clip-rule="evenodd" d="M158.133 120.978C158.113 120.728 158.094 120.478 158.074 120.229C158.094 120.479 158.113 120.729 158.133 120.978Z" fill="black"/>
<path fill-rule="evenodd" clip-rule="evenodd" d="M140.289 78.8105C140.304 79.0489 140.32 79.2873 140.335 79.5241C140.32 79.2855 140.304 79.048 140.289 78.8105Z" fill="black"/>
<path fill-rule="evenodd" clip-rule="evenodd" d="M147.156 74.7174C147.134 74.4646 147.113 74.2119 147.092 73.96C147.113 74.213 147.134 74.4651 147.156 74.7174Z" fill="black"/>
<path fill-rule="evenodd" clip-rule="evenodd" d="M45.4199 148.628C45.5577 148.625 45.6957 148.623 45.832 148.62C45.6935 148.623 45.5567 148.626 45.4199 148.628Z" fill="black"/>
<path fill-rule="evenodd" clip-rule="evenodd" d="M95.6007 148.648C95.7348 148.64 95.8686 148.632 96.0011 148.625C95.8668 148.633 95.7337 148.641 95.6007 148.648Z" fill="black"/>
<path fill-rule="evenodd" clip-rule="evenodd" d="M146.035 56.259C146.029 56.0029 146.023 55.7468 146.017 55.4911C146.023 55.7474 146.029 56.0031 146.035 56.259Z" fill="black"/>
<path fill-rule="evenodd" clip-rule="evenodd" d="M32.354 148.796C32.4885 148.795 32.6228 148.793 32.7554 148.792C32.6203 148.793 32.4873 148.795 32.354 148.796Z" fill="black"/>
<path fill-rule="evenodd" clip-rule="evenodd" d="M145.979 148.793C146.117 148.795 146.255 148.797 146.392 148.799C146.253 148.797 146.116 148.795 145.979 148.793Z" fill="black"/>
<path fill-rule="evenodd" clip-rule="evenodd" d="M148.963 148.771C149.096 148.784 149.23 148.797 149.361 148.809C149.227 148.796 149.095 148.784 148.963 148.771Z" fill="black"/>
<path fill-rule="evenodd" clip-rule="evenodd" d="M150.168 148.768C150.304 148.773 150.44 148.779 150.574 148.782C150.438 148.777 150.303 148.773 150.168 148.768Z" fill="black"/>
<path fill-rule="evenodd" clip-rule="evenodd" d="M156.356 75.7328C156.347 75.4809 156.339 75.2288 156.33 74.9775C156.339 75.2299 156.347 75.4813 156.356 75.7328Z" fill="black"/>
<path fill-rule="evenodd" clip-rule="evenodd" d="M65.1584 145.466C65.5717 145.438 65.985 145.409 66.3984 145.38C65.985 145.409 65.5717 145.438 65.1584 145.466Z" fill="black"/>
<path fill-rule="evenodd" clip-rule="evenodd" d="M40.2247 53.8707C40.5835 53.9123 40.9423 53.9539 41.3007 53.9951C40.9419 53.9537 40.5833 53.9121 40.2247 53.8707Z" fill="black"/>
<path fill-rule="evenodd" clip-rule="evenodd" d="M141.519 74.6674C141.53 75.1239 141.541 75.5803 141.552 76.0354C141.541 75.5787 141.53 75.1232 141.519 74.6674Z" fill="black"/>
<path fill-rule="evenodd" clip-rule="evenodd" d="M148.923 146.247C149.297 146.277 149.672 146.307 150.046 146.338C149.669 146.36 149.287 146.504 148.923 146.247Z" fill="black"/>
<path fill-rule="evenodd" clip-rule="evenodd" d="M146.706 92.2573C146.709 91.8219 146.712 91.3865 146.715 90.9522C146.712 91.3878 146.709 91.8226 146.706 92.2573Z" fill="black"/>
<path fill-rule="evenodd" clip-rule="evenodd" d="M145.748 105.937C146.076 105.943 146.405 105.949 146.734 105.955C146.405 105.949 146.076 105.943 145.748 105.937Z" fill="black"/>
<path fill-rule="evenodd" clip-rule="evenodd" d="M63.0248 98.2826C63.0165 98.6144 63.0084 98.9462 63.0006 99.2764C63.0089 98.9442 63.0169 98.6135 63.0248 98.2826Z" fill="black"/>
<path fill-rule="evenodd" clip-rule="evenodd" d="M151.217 84.2321C151.203 84.5624 151.19 84.8924 151.177 85.2209C151.19 84.8904 151.204 84.5613 151.217 84.2321Z" fill="black"/>
<path fill-rule="evenodd" clip-rule="evenodd" d="M144.206 144.778C144.445 144.756 144.684 144.735 144.923 144.714C144.743 144.906 144.562 144.922 144.206 144.778Z" fill="black"/>
<path fill-rule="evenodd" clip-rule="evenodd" d="M142.606 101.614C142.623 101.97 142.639 102.326 142.655 102.681C142.639 102.325 142.623 101.969 142.606 101.614Z" fill="black"/>
<path fill-rule="evenodd" clip-rule="evenodd" d="M53.2209 45.4334C53.2233 45.0896 53.2257 44.7459 53.2282 44.4034C53.2259 44.7476 53.2235 45.0905 53.2209 45.4334Z" fill="black"/>
<path fill-rule="evenodd" clip-rule="evenodd" d="M142.896 106.009L143.787 105.983C143.493 106.173 143.196 106.179 142.896 106.009Z" fill="black"/>
<path fill-rule="evenodd" clip-rule="evenodd" d="M151.116 108.546C150.906 108.548 150.696 108.55 150.487 108.553C150.698 108.551 150.907 108.548 151.116 108.546Z" fill="black"/>
<path fill-rule="evenodd" clip-rule="evenodd" d="M74.1724 144.914C74.4632 144.919 74.7541 144.925 75.0449 144.929C74.7519 145.125 74.4607 145.153 74.1724 144.914Z" fill="black"/>
<path fill-rule="evenodd" clip-rule="evenodd" d="M19.3822 146.057C19.6774 146.022 19.9727 145.987 20.2679 145.952C19.9727 145.987 19.6774 146.022 19.3822 146.057Z" fill="black"/>
<path fill-rule="evenodd" clip-rule="evenodd" d="M141.621 77.5988C141.636 77.9561 141.65 78.3133 141.664 78.6695C141.65 78.3118 141.636 77.9554 141.621 77.5988Z" fill="black"/>
<path fill-rule="evenodd" clip-rule="evenodd" d="M47.4005 54.7095C47.6494 54.5459 47.9002 54.5185 48.1536 54.6918C47.9024 54.6977 47.6515 54.7037 47.4005 54.7095Z" fill="black"/>
<path fill-rule="evenodd" clip-rule="evenodd" d="M133.481 81.7242C133.501 82.0254 133.522 82.3269 133.543 82.6273C133.522 82.3256 133.501 82.0248 133.481 81.7242Z" fill="black"/>
<path fill-rule="evenodd" clip-rule="evenodd" d="M154.503 74.6924C154.375 74.3976 154.38 74.1043 154.509 73.8137C154.507 74.107 154.505 74.3998 154.503 74.6924Z" fill="black"/>
<path fill-rule="evenodd" clip-rule="evenodd" d="M141.662 64.457C141.662 64.7552 141.662 65.0536 141.662 65.3509C141.662 65.052 141.662 64.7545 141.662 64.457Z" fill="black"/>
<path fill-rule="evenodd" clip-rule="evenodd" d="M150.583 105.795C150.839 105.69 151.095 105.542 151.35 105.798C151.094 105.797 150.838 105.796 150.583 105.795Z" fill="black"/>
<path fill-rule="evenodd" clip-rule="evenodd" d="M67.8064 145.332C68.0642 145.3 68.3219 145.268 68.5795 145.236C68.3219 145.268 68.0642 145.3 67.8064 145.332Z" fill="black"/>
<path fill-rule="evenodd" clip-rule="evenodd" d="M32.4708 145.332C32.7069 145.194 32.9425 145.121 33.1751 145.343C32.9402 145.339 32.7056 145.336 32.4708 145.332Z" fill="black"/>
<path fill-rule="evenodd" clip-rule="evenodd" d="M80.7587 144.888C81.0112 144.741 81.263 144.661 81.5122 144.899C81.2609 144.895 81.0099 144.892 80.7587 144.888Z" fill="black"/>
<path fill-rule="evenodd" clip-rule="evenodd" d="M24.5643 101.342C24.5833 101.646 24.6023 101.95 24.6211 102.253C24.602 101.949 24.5831 101.646 24.5643 101.342Z" fill="black"/>
<path fill-rule="evenodd" clip-rule="evenodd" d="M83.1719 83.8368C83.4202 83.7164 83.6678 83.6535 83.9116 83.8547C83.6649 83.8485 83.4184 83.8427 83.1719 83.8368Z" fill="black"/>
<path fill-rule="evenodd" clip-rule="evenodd" d="M141.617 92.8835C141.631 93.1806 141.645 93.4777 141.659 93.7741C141.645 93.4768 141.631 93.1802 141.617 92.8835Z" fill="black"/>
<path fill-rule="evenodd" clip-rule="evenodd" d="M24.4038 66.0793C24.3832 66.3186 24.3626 66.5581 24.3422 66.796C24.3627 66.5563 24.3832 66.3179 24.4038 66.0793Z" fill="black"/>
<path fill-rule="evenodd" clip-rule="evenodd" d="M10.0082 135.472C9.99545 135.705 9.98283 135.938 9.97021 136.169C9.98333 135.936 9.99578 135.704 10.0082 135.472Z" fill="black"/>
<path fill-rule="evenodd" clip-rule="evenodd" d="M146.817 94.4556C146.803 94.2148 146.789 93.9739 146.775 93.7342C146.789 93.9755 146.803 94.2156 146.817 94.4556Z" fill="black"/>
<path fill-rule="evenodd" clip-rule="evenodd" d="M128.729 144.439C128.95 144.441 129.172 144.443 129.393 144.445C129.172 144.443 128.95 144.441 128.729 144.439Z" fill="black"/>
<path fill-rule="evenodd" clip-rule="evenodd" d="M62.941 100.332C62.9824 100.507 63.0237 100.683 63.065 100.858C62.789 100.947 62.7476 100.772 62.941 100.332Z" fill="black"/>
<path fill-rule="evenodd" clip-rule="evenodd" d="M79.5347 83.4406C79.7595 83.4393 79.9842 83.4382 80.209 83.4368C79.9846 83.5789 79.7599 83.6765 79.5347 83.4406Z" fill="black"/>
<path fill-rule="evenodd" clip-rule="evenodd" d="M24.6903 102.781C24.6979 103.047 24.7056 103.313 24.7129 103.577C24.7051 103.312 24.6976 103.046 24.6903 102.781Z" fill="black"/>
<path fill-rule="evenodd" clip-rule="evenodd" d="M27.0684 145.623C27.2853 145.623 27.5022 145.623 27.7191 145.622C27.502 145.623 27.2853 145.623 27.0684 145.623Z" fill="black"/>
<path fill-rule="evenodd" clip-rule="evenodd" d="M134.027 105.582C134.035 105.827 134.043 106.071 134.051 106.314C134.043 106.069 134.035 105.826 134.027 105.582Z" fill="black"/>
<path fill-rule="evenodd" clip-rule="evenodd" d="M22.462 145.921C22.6754 145.732 22.8892 145.749 23.1034 145.918C22.8895 145.919 22.6757 145.92 22.462 145.921Z" fill="black"/>
<path fill-rule="evenodd" clip-rule="evenodd" d="M28.0797 62.6622C28.0912 62.9119 28.1028 63.1618 28.1147 63.41C28.1033 63.1598 28.0915 62.911 28.0797 62.6622Z" fill="black"/>
<path fill-rule="evenodd" clip-rule="evenodd" d="M21.3521 145.947C21.5738 145.948 21.7956 145.949 22.0173 145.951C21.7948 146.152 21.5732 146.162 21.3521 145.947Z" fill="black"/>
<path fill-rule="evenodd" clip-rule="evenodd" d="M144.168 58.7427C144.17 58.4891 144.172 58.2356 144.173 57.9826C144.172 58.2365 144.17 58.4895 144.168 58.7427Z" fill="black"/>
<path fill-rule="evenodd" clip-rule="evenodd" d="M42.3429 54.3068C42.5551 54.3438 42.7672 54.3808 42.9792 54.4175C42.7671 54.3805 42.5549 54.3438 42.3429 54.3068Z" fill="black"/>
<path fill-rule="evenodd" clip-rule="evenodd" d="M23.6204 76.1985C23.6232 76.4354 23.626 76.6725 23.6293 76.9082C23.6265 76.6709 23.6235 76.4347 23.6204 76.1985Z" fill="black"/>
<path fill-rule="evenodd" clip-rule="evenodd" d="M145.597 76.1644C145.585 75.9232 145.574 75.6819 145.562 75.4417C145.574 75.6834 145.585 75.924 145.597 76.1644Z" fill="black"/>
<path fill-rule="evenodd" clip-rule="evenodd" d="M96.1122 145.664C96.374 145.696 96.6358 145.727 96.8974 145.759C96.6356 145.727 96.374 145.696 96.1122 145.664Z" fill="black"/>
<path fill-rule="evenodd" clip-rule="evenodd" d="M95.2375 136.628C95.0959 136.63 94.9546 136.633 94.8143 136.637C94.9563 136.635 95.0969 136.631 95.2375 136.628Z" fill="black"/>
<path fill-rule="evenodd" clip-rule="evenodd" d="M95.2495 145.526C95.469 145.555 95.6888 145.584 95.9082 145.612C95.6886 145.583 95.469 145.555 95.2495 145.526Z" fill="black"/>
<path fill-rule="evenodd" clip-rule="evenodd" d="M55.7343 125.81C56.02 127.962 53.5112 130.068 53.3123 127.008C53.2396 125.889 53.8007 125.102 54.4291 124.418C55.3209 123.448 55.8191 124.377 55.7343 125.81Z" fill="black"/>
<path fill-rule="evenodd" clip-rule="evenodd" d="M28.0806 99.5492C28.6716 99.8717 33.1871 101.834 30.8416 102.82C30.2207 103.082 29.2822 103.121 28.744 102.66C28.0965 102.107 27.4434 100.472 28.0806 99.5492Z" fill="black"/>
<path fill-rule="evenodd" clip-rule="evenodd" d="M29.1919 70.4004C30.7245 70.1631 32.1367 73.5195 30.2471 73.4106C28.8716 73.3311 27.0219 70.4004 29.1919 70.4004Z" fill="black"/>
<path fill-rule="evenodd" clip-rule="evenodd" d="M34.6745 78.6299C35.9543 80.1187 33.5821 83.4508 32.6403 82.1611C32.1594 81.5024 32.603 80.0833 32.9999 79.5321C33.4073 78.9666 34.1321 78.8603 34.6745 78.6299Z" fill="black"/>
<path fill-rule="evenodd" clip-rule="evenodd" d="M38.4846 117.227C37.729 117.387 34.4064 118.835 35.0993 116.205C35.3636 115.203 36.1007 115.5 36.7746 115.546C37.8607 115.62 38.4846 115.551 38.4846 117.227Z" fill="black"/>
<path fill-rule="evenodd" clip-rule="evenodd" d="M36.296 124C37.4271 124.807 35.7737 129.322 34.8362 128.361C33.5355 127.028 35.3145 124.406 36.296 124Z" fill="black"/>
<path fill-rule="evenodd" clip-rule="evenodd" d="M41.229 120.37C41.779 120.071 44.3717 123.396 43.3847 124.321C42.8789 124.795 41.9205 123.982 41.6155 123.492C41.0437 122.573 40.9919 121.44 41.229 120.37Z" fill="black"/>
<path fill-rule="evenodd" clip-rule="evenodd" d="M26.2705 93.1915C26.8326 93.3145 27.8031 93.3535 27.8395 94.4067C27.8714 95.3324 27.0009 95.6323 26.3882 95.7049C25.7523 95.7802 24.9106 95.5409 24.8985 94.4751C24.8857 93.3252 26.2506 93.3944 26.2705 93.1915Z" fill="black"/>
<path fill-rule="evenodd" clip-rule="evenodd" d="M40.1324 139.023C40.7311 139.508 43.5235 141.253 42.3265 142.513C41.8786 142.985 40.5207 142.01 40.2151 141.515C39.8504 140.924 39.4939 139.54 40.1324 139.023Z" fill="black"/>
<path fill-rule="evenodd" clip-rule="evenodd" d="M47.895 126.363C47.8085 124.437 50.2452 123.671 49.7401 126.404C49.5976 127.175 49.4598 128.345 48.7451 128.39C47.9004 128.443 47.8699 127.11 47.895 126.363Z" fill="black"/>
<path fill-rule="evenodd" clip-rule="evenodd" d="M40.3675 92.8742C40.3844 94.3351 38.285 95.6234 38.2687 93.3078C38.2543 91.2386 40.4459 90.633 40.3675 92.8742Z" fill="black"/>
<path fill-rule="evenodd" clip-rule="evenodd" d="M38.9811 85.2656C39.4984 85.4879 40.1859 85.6023 40.2314 86.4786C40.2797 87.4061 39.6336 87.8189 39.0522 87.7669C38.5754 87.7242 37.8698 87.2536 37.7832 86.5639C37.6562 85.5514 38.3973 85.4852 38.9811 85.2656Z" fill="black"/>
<path fill-rule="evenodd" clip-rule="evenodd" d="M29.3618 112.013C29.353 110.807 31.1649 109.358 31.4986 110.757C31.6054 111.205 30.7514 113.212 30.4673 113.362C29.7158 113.76 29.6109 112.833 29.3618 112.013Z" fill="black"/>
<path fill-rule="evenodd" clip-rule="evenodd" d="M44.2095 132.077C43.5973 132.807 41.7606 134.86 41.8979 132.105C41.9856 130.344 44.3711 130.436 44.2095 132.077Z" fill="black"/>
<path fill-rule="evenodd" clip-rule="evenodd" d="M74.1326 139.952C74.3333 138.793 77.2067 140.803 76.2478 142.267C75.9261 142.758 75.0845 142.313 74.761 142.022C74.1206 141.446 74.1067 140.914 74.1326 139.952Z" fill="black"/>
<path fill-rule="evenodd" clip-rule="evenodd" d="M58.1229 115.152C58.235 114.635 58.3595 113.722 58.729 113.392C59.3978 112.796 59.98 113.696 59.9801 114.644C59.9803 116.412 58.4704 116.97 58.1229 115.152Z" fill="black"/>
<path fill-rule="evenodd" clip-rule="evenodd" d="M51.0013 135.83C51.7474 136.058 53.4086 138.477 52.4452 139.463C51.518 140.412 50.2848 136.553 51.0013 135.83Z" fill="black"/>
<path fill-rule="evenodd" clip-rule="evenodd" d="M51.7115 117.527C52.6708 117.629 53.9893 119.7 52.4983 120.03C51.332 120.287 49.9757 118.034 51.7115 117.527Z" fill="black"/>
<path fill-rule="evenodd" clip-rule="evenodd" d="M60.3958 127.058C60.6364 125.978 63.0154 127.135 62.8817 128.325C62.8107 128.957 61.838 129.106 61.3267 128.939C60.5739 128.692 60.3785 128.034 60.3958 127.058Z" fill="black"/>
<path fill-rule="evenodd" clip-rule="evenodd" d="M32.353 66.7155C32.3703 65.3187 34.3832 64.7494 34.5306 66.157C34.6639 67.4287 32.3278 68.7818 32.353 66.7155Z" fill="black"/>
<path fill-rule="evenodd" clip-rule="evenodd" d="M59.7308 141.45C59.8759 140.748 59.9385 139.903 60.5964 139.81C61.3498 139.704 61.3276 140.474 61.2391 141.272C60.998 143.444 60.0776 143.553 59.7308 141.45Z" fill="black"/>
<path fill-rule="evenodd" clip-rule="evenodd" d="M27.9428 83.3336C26.8934 83.6493 24.9714 80.9545 26.1461 80.3764C26.9739 79.9684 27.9428 82.5206 27.9428 83.3336Z" fill="black"/>
<path fill-rule="evenodd" clip-rule="evenodd" d="M41.3273 104.266C40.7932 104.601 40.6702 104.805 40.26 104.254C39.9027 103.775 39.9185 102.44 40.2251 101.941C41.3995 100.032 41.3719 103.493 41.3273 104.266Z" fill="black"/>
<path fill-rule="evenodd" clip-rule="evenodd" d="M45.6846 100.394C46.2415 100.489 47.8966 102.582 47.0348 103.414C45.9787 104.433 45.3813 101.24 45.6846 100.394Z" fill="black"/>
<path fill-rule="evenodd" clip-rule="evenodd" d="M57.7353 100.945C57.3304 103.024 56.3198 101.625 56.3771 100.052C56.4691 97.5329 57.5163 99.7272 57.7353 100.945Z" fill="black"/>
<path fill-rule="evenodd" clip-rule="evenodd" d="M63.8799 134.331C64.5649 134.709 65.4945 138.2 64.5162 138.388C63.4174 138.598 63.7833 135.058 63.8799 134.331Z" fill="black"/>
<path fill-rule="evenodd" clip-rule="evenodd" d="M55.3258 132.37C56.1096 132.017 56.3968 134.222 55.9413 134.631C54.939 135.532 55.1504 132.89 55.3258 132.37Z" fill="black"/>
<path fill-rule="evenodd" clip-rule="evenodd" d="M47.895 126.363C47.8851 126.656 47.8753 126.948 47.865 127.239C47.8748 126.946 47.8847 126.655 47.895 126.363Z" fill="black"/>
<path fill-rule="evenodd" clip-rule="evenodd" d="M74.1326 139.952C74.1245 140.252 74.1164 140.552 74.1079 140.851C74.1157 140.55 74.1242 140.251 74.1326 139.952Z" fill="black"/>
<path fill-rule="evenodd" clip-rule="evenodd" d="M60.3958 127.058C60.3915 127.313 60.3868 127.567 60.3818 127.82C60.3862 127.565 60.3911 127.311 60.3958 127.058Z" fill="black"/>
<path fill-rule="evenodd" clip-rule="evenodd" d="M147.089 122.677C148.714 122.608 150.526 121.792 152.123 122.052C152.563 122.123 153.575 122.271 152.87 123.14C152.533 123.556 150.921 123.341 150.433 123.479C147.449 124.321 144.063 124.864 141.004 124.794C139.572 124.761 138.129 124.608 136.697 124.507C135.267 124.406 135.126 123.631 136.736 123.385C138.408 123.129 140.123 123.224 141.803 123.221C143.569 123.218 145.326 122.834 147.089 122.677Z" fill="black"/>
<path fill-rule="evenodd" clip-rule="evenodd" d="M150.656 117.457C150.5 118.051 150.362 119.414 149.763 119.503C148.924 119.628 148.785 117.706 148.816 117.004C148.853 116.155 149.082 114.746 149.873 115.04C150.541 115.288 150.607 116.778 150.656 117.457Z" fill="black"/>
<path fill-rule="evenodd" clip-rule="evenodd" d="M145.574 117.022C145.697 116.387 145.757 114.953 146.432 114.905C147.185 114.85 147.401 116.344 147.396 117.059C147.391 117.739 147.202 119.022 146.602 119.179C145.789 119.392 145.716 117.749 145.574 117.022Z" fill="black"/>
<path fill-rule="evenodd" clip-rule="evenodd" d="M137.112 118.163C136.867 118.927 136.706 119.98 135.95 119.458C135.366 119.056 135.284 117.431 135.394 116.687C135.509 115.916 135.751 115.032 136.415 115.378C137.181 115.778 137.103 117.321 137.112 118.163Z" fill="black"/>
<path fill-rule="evenodd" clip-rule="evenodd" d="M143.52 117.457C142.8 120.369 141.486 118.399 141.985 116.225C142.507 113.953 143.454 116.16 143.52 117.457Z" fill="black"/>
<path fill-rule="evenodd" clip-rule="evenodd" d="M140.011 117.601C139.811 118.114 139.598 119.22 139.058 119.103C138.397 118.96 138.376 117.264 138.449 116.632C138.512 116.079 138.698 115.158 139.252 115.17C140.051 115.187 139.997 116.938 140.011 117.601Z" fill="black"/>
<path fill-rule="evenodd" clip-rule="evenodd" d="M154.38 118.16C153.843 119.764 153.106 118.382 153.342 117.243C153.692 115.554 154.349 117.051 154.38 118.16Z" fill="black"/>
<path fill-rule="evenodd" clip-rule="evenodd" d="M141.247 123.223C140.662 123.22 140.076 123.217 139.49 123.214C140.076 123.067 140.662 123.01 141.247 123.223Z" fill="black"/>
<path fill-rule="evenodd" clip-rule="evenodd" d="M152.885 122.045C152.377 122.049 151.869 122.054 151.361 122.058C151.868 121.855 152.376 121.851 152.885 122.045Z" fill="black"/>
<path fill-rule="evenodd" clip-rule="evenodd" d="M147.089 122.677C146.682 122.713 146.276 122.75 145.869 122.786C146.276 122.75 146.682 122.713 147.089 122.677Z" fill="black"/>
<path fill-rule="evenodd" clip-rule="evenodd" d="M137.112 118.163C137.108 117.774 137.104 117.385 137.1 116.996C137.251 117.383 137.24 117.772 137.112 118.163Z" fill="black"/>
<path fill-rule="evenodd" clip-rule="evenodd" d="M140.298 124.786C140.534 124.788 140.77 124.791 141.004 124.794C140.767 124.791 140.533 124.788 140.298 124.786Z" fill="black"/>
<path fill-rule="evenodd" clip-rule="evenodd" d="M136.339 124.507C136.578 124.507 136.817 124.507 137.054 124.507C136.814 124.507 136.577 124.507 136.339 124.507Z" fill="black"/>
<path fill-rule="evenodd" clip-rule="evenodd" d="M138.297 123.257C137.965 123.293 137.633 123.329 137.301 123.366C137.633 123.329 137.965 123.293 138.297 123.257Z" fill="black"/>
<path fill-rule="evenodd" clip-rule="evenodd" d="M142.786 123.218C142.458 123.219 142.131 123.22 141.803 123.221C142.13 123.037 142.458 123.032 142.786 123.218Z" fill="black"/>
<path fill-rule="evenodd" clip-rule="evenodd" d="M140.011 117.601C140.002 117.196 139.994 116.79 139.987 116.385C139.995 116.791 140.003 117.196 140.011 117.601Z" fill="black"/>
<path fill-rule="evenodd" clip-rule="evenodd" d="M135.394 116.687C135.393 117.082 135.391 117.478 135.389 117.872C135.39 117.476 135.392 117.081 135.394 116.687Z" fill="black"/>
<path fill-rule="evenodd" clip-rule="evenodd" d="M148.952 122.53C148.662 122.565 148.372 122.6 148.082 122.635C148.372 122.6 148.662 122.565 148.952 122.53Z" fill="black"/>
<path fill-rule="evenodd" clip-rule="evenodd" d="M154.38 118.16C154.37 117.815 154.361 117.469 154.352 117.124C154.361 117.47 154.37 117.815 154.38 118.16Z" fill="black"/>
<path fill-rule="evenodd" clip-rule="evenodd" d="M142.05 124.796C142.252 124.792 142.453 124.787 142.653 124.782C142.451 124.787 142.25 124.792 142.05 124.796Z" fill="black"/>
<path fill-rule="evenodd" clip-rule="evenodd" d="M150.656 117.457C150.638 117.209 150.621 116.96 150.603 116.713C150.621 116.962 150.638 117.209 150.656 117.457Z" fill="black"/>
<path fill-rule="evenodd" clip-rule="evenodd" d="M143.52 117.457C143.507 117.202 143.494 116.947 143.481 116.693C143.494 116.948 143.507 117.203 143.52 117.457Z" fill="black"/>
<path fill-rule="evenodd" clip-rule="evenodd" d="M39.489 42.5221C38.6956 42.2446 38.5468 40.7579 38.6743 39.8449C38.8189 39.4048 38.9635 38.965 39.1081 38.5249C39.0515 38.3622 38.9951 38.1995 38.9386 38.0368C39.0112 37.1306 38.8257 36.7368 39.6068 37.1038C41.0578 37.786 41.2897 42.4522 39.489 42.5221Z" fill="black"/>
<path fill-rule="evenodd" clip-rule="evenodd" d="M51.2332 39.6479C51.8868 39.5793 53.074 40.5942 52.4234 41.5761C52.0203 42.1844 50.692 41.8966 50.1501 42.0237C49.4315 42.1921 48.6819 42.4226 49.0707 40.9873C49.376 39.8602 50.4664 39.6184 51.2332 39.6479Z" fill="black"/>
<path fill-rule="evenodd" clip-rule="evenodd" d="M50.5455 46.399C49.8816 45.6891 50.1779 42.4558 51.1883 43.0375C52.2277 43.6362 51.0995 45.9323 50.5455 46.399Z" fill="black"/>
<path fill-rule="evenodd" clip-rule="evenodd" d="M38.6743 39.8448C38.6743 40.1851 38.6742 40.5255 38.6737 40.8642C38.5352 40.5233 38.5395 40.184 38.6743 39.8448Z" fill="black"/>
<path fill-rule="evenodd" clip-rule="evenodd" d="M39.489 42.5211C39.6243 42.5164 39.7598 42.5114 39.8934 42.5071C39.7575 42.5125 39.6233 42.5168 39.489 42.5211Z" fill="black"/>
<path fill-rule="evenodd" clip-rule="evenodd" d="M121.464 135.639C121.402 137.109 120.218 136.022 120.302 135.038C120.454 133.253 121.212 135.017 121.464 135.639Z" fill="black"/>
<path d="M76.9434 28.4375V27.207L78.5352 26.9336V15.7324L76.9434 15.459V14.2285H83.2812C84.3164 14.2285 85.1888 14.3848 85.8984 14.6973C86.6146 15.0033 87.1582 15.4492 87.5293 16.0352C87.9004 16.6211 88.0859 17.3372 88.0859 18.1836C88.0859 19.0169 87.9036 19.7168 87.5391 20.2832C87.181 20.8496 86.6699 21.2793 86.0059 21.5723C85.3418 21.8587 84.554 22.0117 83.6426 22.0312L80.459 22.0898V26.9336L82.0508 27.207V28.4375H76.9434ZM86.3281 28.4375L83.1641 21.3379L85.0879 21.3184L87.7148 27.002L88.7012 27.1777V28.4375H86.3281ZM80.459 20.5762H83.0859C84.1602 20.5762 84.9414 20.3711 85.4297 19.9609C85.918 19.5508 86.1621 18.9518 86.1621 18.1641C86.1621 17.4154 85.9277 16.8229 85.459 16.3867C84.9902 15.9505 84.2643 15.7324 83.2812 15.7324H80.459V20.5762ZM95.2246 28.6426C94.248 28.6426 93.3984 28.4212 92.6758 27.9785C91.9531 27.5293 91.3932 26.9076 90.9961 26.1133C90.6055 25.319 90.4102 24.401 90.4102 23.3594V22.9297C90.4102 21.9271 90.6152 21.0319 91.0254 20.2441C91.4421 19.4499 91.9922 18.8249 92.6758 18.3691C93.3659 17.9069 94.1178 17.6758 94.9316 17.6758C95.8822 17.6758 96.6764 17.8711 97.3145 18.2617C97.959 18.6523 98.444 19.2025 98.7695 19.9121C99.0951 20.6152 99.2578 21.4453 99.2578 22.4023V23.6035H92.4023L92.373 23.6523C92.3861 24.3294 92.5033 24.9316 92.7246 25.459C92.9525 25.9798 93.278 26.39 93.7012 26.6895C94.1243 26.9889 94.6322 27.1387 95.2246 27.1387C95.8757 27.1387 96.4453 27.0475 96.9336 26.8652C97.4284 26.6764 97.8548 26.4193 98.2129 26.0938L98.9648 27.3438C98.5872 27.7083 98.0859 28.0176 97.4609 28.2715C96.8424 28.5189 96.097 28.6426 95.2246 28.6426ZM92.4609 22.0996H97.334V21.8457C97.334 21.3379 97.2428 20.8854 97.0605 20.4883C96.8848 20.0846 96.6178 19.7689 96.2598 19.541C95.9082 19.3066 95.4655 19.1895 94.9316 19.1895C94.502 19.1895 94.1113 19.3164 93.7598 19.5703C93.4082 19.8177 93.1185 20.1562 92.8906 20.5859C92.6628 21.0156 92.513 21.5039 92.4414 22.0508L92.4609 22.0996ZM104.336 28.6426C103.236 28.6426 102.399 28.3757 101.826 27.8418C101.253 27.3014 100.967 26.543 100.967 25.5664C100.967 24.8958 101.149 24.3132 101.514 23.8184C101.885 23.3171 102.419 22.9297 103.115 22.6562C103.812 22.3763 104.645 22.2363 105.615 22.2363H107.5V21.2012C107.5 20.5632 107.305 20.0684 106.914 19.7168C106.53 19.3652 105.986 19.1895 105.283 19.1895C104.84 19.1895 104.456 19.2448 104.131 19.3555C103.805 19.4596 103.509 19.6061 103.242 19.7949L103.037 21.2695H101.553V18.8477C102.028 18.4635 102.581 18.1738 103.213 17.9785C103.844 17.7767 104.544 17.6758 105.312 17.6758C106.595 17.6758 107.601 17.9818 108.33 18.5938C109.059 19.2057 109.424 20.0814 109.424 21.2207V26.3086C109.424 26.4453 109.424 26.5788 109.424 26.709C109.43 26.8392 109.44 26.9694 109.453 27.0996L110.479 27.207V28.4375H107.715C107.656 28.151 107.611 27.8939 107.578 27.666C107.546 27.4382 107.523 27.2103 107.51 26.9824C107.139 27.4577 106.673 27.8548 106.113 28.1738C105.56 28.4863 104.967 28.6426 104.336 28.6426ZM104.619 27.0312C105.257 27.0312 105.84 26.8783 106.367 26.5723C106.895 26.2663 107.272 25.8984 107.5 25.4688V23.5547H105.547C104.661 23.5547 103.997 23.7663 103.555 24.1895C103.112 24.6126 102.891 25.0846 102.891 25.6055C102.891 26.0677 103.034 26.4225 103.32 26.6699C103.607 26.9108 104.04 27.0312 104.619 27.0312ZM116.123 28.6426C115.264 28.6426 114.525 28.431 113.906 28.0078C113.294 27.5781 112.826 26.9824 112.5 26.2207C112.174 25.459 112.012 24.5703 112.012 23.5547V23.3496C112.012 22.2168 112.174 21.224 112.5 20.3711C112.826 19.5182 113.298 18.8574 113.916 18.3887C114.535 17.9134 115.277 17.6758 116.143 17.6758C116.768 17.6758 117.318 17.793 117.793 18.0273C118.275 18.2552 118.685 18.5872 119.023 19.0234V14.7168L117.432 14.4434V13.2031H119.023H120.947V26.9336L122.539 27.207V28.4375H119.277L119.121 27.1777C118.776 27.6595 118.353 28.0241 117.852 28.2715C117.357 28.5189 116.781 28.6426 116.123 28.6426ZM116.611 27.0801C117.184 27.0801 117.666 26.9499 118.057 26.6895C118.447 26.429 118.77 26.0612 119.023 25.5859V20.6836C118.776 20.2409 118.454 19.8893 118.057 19.6289C117.66 19.3685 117.184 19.2383 116.631 19.2383C116.019 19.2383 115.514 19.4141 115.117 19.7656C114.72 20.1107 114.424 20.5924 114.229 21.2109C114.033 21.8229 113.936 22.5358 113.936 23.3496V23.5547C113.936 24.6159 114.154 25.4688 114.59 26.1133C115.026 26.7578 115.7 27.0801 116.611 27.0801ZM123.799 28.4375V27.207L125.391 26.9336V19.3848L123.799 19.1113V17.8711H127.314V26.9336L128.906 27.207V28.4375H123.799ZM125.293 15.2637V13.2031H127.314V15.2637H125.293ZM130.234 28.4375V27.207L131.826 26.9336V19.3848L130.234 19.1113V17.8711H133.545L133.682 19.4434C134.033 18.8835 134.473 18.4505 135 18.1445C135.534 17.832 136.139 17.6758 136.816 17.6758C137.956 17.6758 138.838 18.0111 139.463 18.6816C140.088 19.3457 140.4 20.3743 140.4 21.7676V26.9336L141.992 27.207V28.4375H136.885V27.207L138.477 26.9336V21.8066C138.477 20.8757 138.291 20.2148 137.92 19.8242C137.555 19.4336 136.995 19.2383 136.24 19.2383C135.687 19.2383 135.195 19.3717 134.766 19.6387C134.342 19.9056 134.004 20.2702 133.75 20.7324V26.9336L135.342 27.207V28.4375H130.234ZM147.9 32.7051C147.393 32.7051 146.842 32.6335 146.25 32.4902C145.658 32.3535 145.137 32.1647 144.688 31.9238L145.186 30.4297C145.544 30.6185 145.967 30.7747 146.455 30.8984C146.943 31.0221 147.419 31.084 147.881 31.084C148.74 31.084 149.368 30.8431 149.766 30.3613C150.169 29.8796 150.371 29.1927 150.371 28.3008V27.2949C150.026 27.7376 149.613 28.0729 149.131 28.3008C148.649 28.5286 148.096 28.6426 147.471 28.6426C146.611 28.6426 145.869 28.431 145.244 28.0078C144.619 27.5781 144.137 26.9824 143.799 26.2207C143.467 25.4525 143.301 24.5638 143.301 23.5547V23.3496C143.301 22.2168 143.467 21.224 143.799 20.3711C144.137 19.5182 144.619 18.8574 145.244 18.3887C145.869 17.9134 146.618 17.6758 147.49 17.6758C148.154 17.6758 148.737 17.806 149.238 18.0664C149.74 18.3268 150.16 18.7044 150.498 19.1992L150.674 17.8711H152.295V28.3008C152.295 29.2122 152.122 29.9967 151.777 30.6543C151.439 31.3118 150.941 31.8164 150.283 32.168C149.632 32.526 148.838 32.7051 147.9 32.7051ZM147.949 27.0801C148.529 27.0801 149.014 26.9499 149.404 26.6895C149.795 26.4225 150.117 26.0482 150.371 25.5664V20.7031C150.124 20.2539 149.801 19.8991 149.404 19.6387C149.007 19.3717 148.529 19.2383 147.969 19.2383C147.357 19.2383 146.846 19.4141 146.436 19.7656C146.032 20.1172 145.729 20.6022 145.527 21.2207C145.326 21.8327 145.225 22.5423 145.225 23.3496V23.5547C145.225 24.6159 145.449 25.4688 145.898 26.1133C146.348 26.7578 147.031 27.0801 147.949 27.0801ZM152.002 19.4434L151.25 17.8711H153.604V19.1016L152.002 19.4434Z" fill="#9E7D77"/>
</g>
<defs>
<filter id="filter0_d_327_236" x="0" y="0" width="184" height="178" filterUnits="userSpaceOnUse" color-interpolation-filters="sRGB">
<feFlood flood-opacity="0" result="BackgroundImageFix"/>
<feColorMatrix in="SourceAlpha" type="matrix" values="0 0 0 0 0 0 0 0 0 0 0 0 0 0 0 0 0 0 127 0" result="hardAlpha"/>
<feOffset dx="10" dy="4"/>
<feGaussianBlur stdDeviation="2"/>
<feComposite in2="hardAlpha" operator="out"/>
<feColorMatrix type="matrix" values="0 0 0 0 0 0 0 0 0 0 0 0 0 0 0 0 0 0 0.25 0"/>
<feBlend mode="normal" in2="BackgroundImageFix" result="effect1_dropShadow_327_236"/>
<feBlend mode="normal" in="SourceGraphic" in2="effect1_dropShadow_327_236" result="shape"/>
</filter>
<linearGradient id="paint0_linear_327_236" x1="111.334" y1="16.887" x2="114.786" y2="115.857" gradientUnits="userSpaceOnUse">
<stop stop-color="#ECD9F3"/>
<stop offset="0.0001" stop-color="#F0DDEF"/>
<stop offset="1" stop-color="#FFB5A7" stop-opacity="0"/>
<stop offset="1" stop-color="#F1DFEE"/>
</linearGradient>
</defs>
</svg>
