<svg width="300" height="300" viewBox="0 0 300 300" fill="none" xmlns="http://www.w3.org/2000/svg">
<path d="M0 60C0 26.8629 26.8629 0 60 0H240C273.137 0 300 26.8629 300 60V240C300 273.137 273.137 300 240 300H60C26.8629 300 0 273.137 0 240V60Z" fill="white"/>
<path d="M171.565 202.608C218.212 211.456 241.833 189.665 241.945 189.038C243.228 187.992 244.524 186.959 245.736 185.781C247.665 183.908 249.542 181.941 251.414 179.97C252.337 178.999 253.237 177.98 254.077 176.89C254.68 176.106 255.119 175.107 255.714 174.312C257.083 172.486 258.558 170.793 259.889 168.924C262.277 165.565 264.627 162.156 266.925 158.691C268.781 155.892 270.567 153.01 272.33 150.109C273.555 148.093 274.691 145.984 275.864 143.914C276.84 142.19 277.903 140.535 278.761 138.716C279.775 136.565 280.655 134.301 281.51 132.033C282.391 129.698 283.251 127.339 283.974 124.918C284.841 122.019 286.019 119.25 286.061 115.988C286.096 113.341 286.401 110.699 286.473 108.051C286.558 104.938 286.221 101.862 285.745 98.8168C285.333 96.1876 284.764 93.608 283.729 91.2914C282.636 88.8484 281.456 86.4625 280.196 84.1626C278.683 81.4009 276.89 78.9793 274.724 77.0288C272.701 75.2074 270.509 73.8636 268.227 72.7482C266.094 71.705 263.925 70.7862 261.783 69.7694C260.555 69.1859 259.358 68.4901 258.134 67.8897C256.149 66.9162 254.135 66.0416 252.168 65.0127C249.101 63.4082 246.371 61.1446 244.098 57.9493C242.618 55.8684 241.016 53.9349 239.452 51.9586C237.912 50.0135 236.338 48.1163 234.806 46.1598C234.164 45.3387 233.645 44.3473 232.98 43.5634C231.996 42.4035 230.944 41.3406 229.899 40.2727C228.865 39.2172 227.887 38.0033 226.74 37.2178C224.203 35.4811 221.683 33.6749 218.868 32.7042C216.423 31.8613 214.038 30.8183 211.5 30.3605C208.878 29.8871 206.275 29.4558 203.626 29.5521C200.229 29.6757 196.832 29.7783 193.436 29.9177C192.601 29.952 191.755 30.0054 190.936 30.205C188.73 30.742 186.529 31.3309 184.336 31.9606C182.586 32.4629 180.848 33.0417 179.11 33.6128L179.049 33.6329C177.782 34.0494 176.513 34.4665 175.262 34.9586C173.084 35.8161 170.914 36.717 168.749 37.6305C165.791 38.879 163.185 41.2111 160.183 42.3641C158.585 42.9782 157.052 43.9145 155.523 44.805C152.9 46.333 150.294 47.916 147.698 49.5226C146.49 50.2701 145.363 51.262 144.128 51.9071C141.639 53.2077 139.325 54.9092 137.14 56.8995C135.348 58.5315 133.68 60.3935 131.906 62.0603C129.426 64.3897 127.075 66.8924 125.22 70.0906C123.892 72.3806 122.493 74.6304 121.372 77.0881C119.787 80.5607 118.343 84.1546 116.999 87.7971C115.742 91.2018 114.667 94.7229 113.566 98.2214C112.844 100.515 112.125 102.823 111.573 105.191C110.929 107.948 110.526 110.799 109.91 113.569C109.418 115.783 109.261 118.015 109.319 120.289C109.334 120.901 109.468 121.508 109.484 122.12C109.645 128.09 109.779 134.061 109.955 140.031C109.986 141.096 110.15 142.159 110.296 143.212C110.552 145.054 110.832 146.891 111.122 148.725C111.364 150.255 111.539 151.819 111.911 153.295C112.98 157.536 114.331 161.627 116.101 165.454C117.266 167.975 118.474 170.464 119.71 172.925C120.095 173.692 120.64 174.319 121.103 175.021C122.04 176.44 122.77 177.669 123.915 179.275C137.451 198.25 156.183 199.691 171.565 202.608Z" fill="url(#paint0_linear_327_236)" fill-opacity="0.8"/>
<path fill-rule="evenodd" clip-rule="evenodd" d="M83.2963 108.439C83.0762 108.29 81.3573 109.223 81.0688 109.365C79.9163 109.935 78.8308 110.883 77.7451 111.653C78.5772 113.004 79.4095 114.354 80.2414 115.705C81.057 113.037 82.1052 110.836 83.2963 108.439ZM83.8637 125.035C83.5806 125.077 85.9708 132.736 86.2499 133.596C87.2656 136.723 88.3321 139.82 89.3612 142.94C90.3583 145.963 91.6232 148.745 92.8975 151.569C93.9875 153.984 95.1086 157.733 96.7527 159.522C95.7146 153.381 95.8513 146.32 92.8737 141.164C89.7872 135.819 86.7355 130.599 83.8637 125.035ZM203.788 206.928C199.176 197.19 193.402 188.574 188.592 179.01C185.899 173.654 183.278 168.23 181.011 162.529C179.362 158.382 178.337 152.466 175.791 149.296C174.668 147.899 173.469 146.532 171.963 145.906C169.902 145.05 167.065 145.898 164.994 146.575C161.136 147.837 157.367 149.795 153.713 151.852C150.006 153.939 146.844 157.686 143.495 160.697C139.902 163.928 136.013 166.281 131.988 168.341C128.483 170.134 125.365 172.709 121.879 174.515C121.184 174.875 119.767 174.822 119.184 175.291C118.556 175.796 118.803 177.288 118.041 177.838C117.697 178.086 117.583 177.186 117.319 177.201C116.996 177.219 116.701 177.724 116.39 178.044C115.123 179.348 115.899 180.217 116.401 182.01C118.036 187.853 118.915 193.799 121.211 199.315C123.098 203.849 125.8 207.913 128.981 210.915C129.465 211.372 131.042 213.142 131.61 213.024C132.121 212.918 133.161 211.106 133.515 210.614C135.116 208.38 136.58 205.978 138.181 203.741C140.655 200.284 143.036 196.734 145.437 193.23C148.223 189.162 150.69 184.553 153.2 180.207C154.354 178.207 155.84 176.579 157.124 174.725C158.849 172.232 160.434 169.552 162.071 166.955C162.566 166.169 163.396 164.16 164.165 164.183C164.705 164.2 165.656 165.893 165.938 166.423C166.986 168.396 166.982 171.957 167.503 174.419C168.775 180.422 171.07 186.285 174.216 190.918C177.345 195.524 181.354 198.8 185.054 202.503C189.064 206.515 192.862 210.62 196.041 215.802C197.303 214.244 198.678 212.866 199.945 211.289C201.151 209.788 202.724 208.57 203.788 206.928ZM144.417 234.479C145.314 234.491 146.832 235.227 147.635 234.784C145.255 231.274 143.07 228.262 140.06 225.689C136.936 223.02 133.822 220.374 130.788 217.526C124.673 211.788 120.175 204.983 117.621 195.426C116.963 192.965 116.523 190.384 116.041 187.854C115.781 186.492 115.265 180.118 114.389 179.568C113.869 179.241 109.961 182.904 109.342 183.36C107.894 184.428 106.441 185.256 104.944 186.091C101.726 187.887 98.4096 189.257 94.9978 190.401C90.9073 191.772 88.1211 189.503 85.5871 185.217C82.7122 180.353 80.3232 174.866 77.6946 169.759C76.4993 167.436 75.509 165.117 74.6262 162.554C74.0485 160.878 71.757 156.355 72.5488 154.569C74.8077 156.862 75.6205 161.421 77.1593 164.492C79.0771 168.318 81.2385 171.926 83.1662 175.749C84.7873 178.964 86.4411 182.86 88.836 185.171C90.9427 187.203 92.9439 186.578 95.2111 185.665C97.9589 184.558 100.807 184.012 103.5 182.639C106.414 181.153 109.172 179.046 112.015 177.327C113.34 176.526 114.927 176.07 116.176 175.071C117.253 174.21 117.092 173.756 117.171 171.923C117.264 169.785 117.37 167.645 117.441 165.505C117.489 164.067 116.906 162.118 117.301 161.045C114.073 161.791 110.918 162.79 107.713 163.674C105.958 164.158 104.266 164.757 102.493 165.137C101.817 165.282 100.893 165.278 100.288 165.67C99.8056 165.486 99.5595 165.603 99.5501 166.023C99.527 166.251 99.4904 166.475 99.4402 166.696C98.4504 167.297 97.8748 166.009 97.0163 164.774C95.957 163.249 95.1637 161.533 94.3866 159.741C92.6488 155.737 90.6459 151.97 89.0378 147.853C87.3988 143.655 86.0677 139.161 84.6781 134.806C83.4033 130.811 82.587 126.49 81.1784 122.589C80.5497 120.848 79.753 119.408 78.8226 117.937C78.0548 116.724 76.8736 114.105 75.7271 113.548C75.4239 113.4 74.63 113.648 74.2856 113.615C73.5992 113.55 72.9875 113.214 72.285 113.287C70.7642 113.446 69.1061 114.728 67.8907 115.856C68.6761 116.789 70.6409 117.924 69.2296 119.605C67.8601 121.238 67.1036 118.309 66.581 117.026C64.1201 119.721 64.4758 123.436 64.1915 127.243C64.043 129.231 63.6524 131.188 63.4005 133.146C63.2189 134.555 63.3462 136.012 63.2944 137.451C63.1621 141.107 62.8866 144.606 62.9 148.21C62.9142 152.063 63.111 155.783 63.3422 159.608C63.7314 166.047 64.6231 172.489 65.3878 178.877C65.818 182.468 66.4069 185.956 66.9785 189.489C67.6272 193.498 68.8272 197.296 69.5002 201.295C70.1859 200.133 70.7017 200.127 71.8108 200.281C72.6639 200.4 73.2369 200.129 73.1869 201.708C73.1546 202.732 72.4772 203.514 71.7276 203.693C70.75 203.926 70.4179 203.275 69.9142 202.288C69.7963 204.158 70.7392 206.112 71.1121 207.938C71.465 209.668 71.6988 211.364 72.2919 213.02C72.8706 214.635 73.3661 216.229 73.9516 217.829C74.2213 218.565 74.4735 219.313 74.7462 220.047C74.8841 220.419 75.0465 220.931 75.2523 221.245C75.7351 221.979 75.6582 221.623 76.2233 222.042C77.4542 222.953 76.9919 222.726 77.0207 224.609C77.0488 226.466 77.763 227.83 78.9084 228.874C81.3384 231.089 83.7352 231.705 86.4979 232.824C89.072 233.867 91.7833 234.762 94.5089 234.742C97.8472 234.717 101.141 234.133 104.479 234.074C108.162 234.009 111.881 234.036 115.556 234.205C117.07 234.275 118.476 234.365 119.938 234.881C121.635 235.48 123.277 235.242 125.027 235.151C128.759 234.958 132.62 234.573 136.304 234.538C138.956 234.513 141.755 234.266 144.417 234.479ZM241.202 236.408C241.865 236.876 243.353 236.684 244.02 236.554C245.195 236.326 245.321 235.705 246.066 234.308C247.35 231.902 248.391 229.598 249.146 226.811C250.591 221.477 251.181 216.02 251.816 210.44C252.521 204.24 251.233 197.814 250.773 191.656C250.667 190.244 250.522 188.844 250.355 187.442C250.255 186.603 250.228 183.752 249.815 183.026C249.02 181.632 245.324 182.756 243.871 182.883C239.814 183.236 235.731 183.319 231.677 183.38C229.515 183.413 227.341 183.533 225.201 183.556C224.218 183.566 223.257 183.501 222.27 183.373C221.94 183.331 221.618 183.23 221.286 183.205C220.148 183.121 220.233 182.901 219.939 184.245C219.424 186.599 219.82 189.594 219.685 192.037C219.504 195.302 219.406 198.613 219.451 201.885C219.492 204.909 219.415 207.925 219.5 210.955C219.535 212.21 219.638 213.233 219.886 214.432C220.167 215.787 220.476 218.952 221.175 219.89C221.254 219.997 221.848 219.748 222.006 220.014C222.249 220.423 222.205 221.29 222.372 221.554C222.912 222.411 224.028 222.479 224.837 222.864C227.059 223.92 229.097 225.067 231.191 226.492C233.062 227.764 236.079 228.847 237.203 231.358C237.719 232.509 237.789 234.027 238.263 235.214C238.803 236.567 237.722 235.86 239.046 236.408C239.641 236.655 240.591 236.408 241.202 236.408ZM43.9602 221.109C43.7919 224.233 42.4721 227.208 42.0127 230.28C41.7977 231.718 41.4331 233.131 41.1804 234.561C40.938 235.933 40.0626 237.557 40.1512 238.914C43.3825 237.379 46.6555 236.993 50.0327 236.579C53.2335 236.187 56.615 236.031 59.789 236.029C63.0233 236.026 66.4816 235.605 69.8119 235.54C73.2946 235.472 76.83 235.351 80.2623 234.87C78.4676 233.098 76.2218 231.433 74.8966 228.967C73.4559 226.286 72.7077 222.928 71.44 220.099C68.8961 214.423 67.2788 207.379 65.9453 201.002C63.2531 188.127 60.2446 175.491 59.5195 162.137C58.1396 163.079 57.0442 166.735 56.3533 168.555C55.4715 170.88 55.0097 173.399 54.4364 175.869C53.2559 180.957 52.4389 186.233 50.9935 191.273C48.2308 200.907 46.4551 211.287 43.9602 221.109ZM219.364 146.075C219.961 151.833 221.214 157.665 221.262 163.493C221.273 164.775 221.11 166.198 221.311 167.463C221.525 168.812 222.221 170.005 222.623 171.288C223.26 173.324 224.876 177.497 223.318 179.222C223.286 177.585 222.163 175.506 221.597 174.074C220.744 171.917 219.623 169.945 218.698 167.842C216.762 163.439 214.593 159.13 212.099 155.248C209.669 151.467 206.868 148.113 204.292 144.513C203.518 143.431 197.307 133.02 197.06 133.165C198.987 143.07 202.261 151.688 206.743 159.981C208.94 164.046 211.577 166.722 214.252 170.166C216.479 173.034 220.677 176.101 219.907 180.801C223.389 180.354 226.848 179.641 230.361 179.641C229.783 173.712 229.341 167.877 228.309 162.045C227.138 155.423 226.345 148.603 225.354 141.922C224.343 135.102 222.628 128.5 221.56 121.692C220.539 115.174 219.661 108.667 218.912 102.076C218.293 105.728 218.521 109.739 218.301 113.466C218.077 117.273 218.099 121.01 218.173 124.839C218.312 131.952 218.88 138.979 219.364 146.075ZM234.451 112.163C234.471 109.118 234.913 106.115 235.05 103.078C235.092 102.146 235.788 95.7879 235.139 95.456C234.605 97.008 234.48 98.9941 233.995 100.622C233.511 102.249 232.863 103.799 232.398 105.437C231.391 108.986 231.044 113.001 230.935 116.774C230.69 125.308 230.563 133.822 230.993 142.356C231.178 146.014 231.319 149.678 231.269 153.343C231.213 157.376 230.75 160.876 231.312 164.876C231.869 168.837 232.219 172.781 232.405 176.8C232.535 179.62 232.587 179.421 234.605 179.222C236.062 179.079 237.534 179.232 238.993 179.143C238.311 168.15 238.199 157.135 237.109 146.184C236.553 140.597 236.538 134.93 235.848 129.364C235.505 126.599 234.929 123.89 234.598 121.122C234.242 118.15 234.417 115.158 234.451 112.163ZM86.864 105.245C90.7494 105.694 94.8823 107.243 98.8648 106.22C98.2083 105.866 96.4904 105.376 97.2636 103.977C98.0497 102.554 99.3744 104.359 100.158 104.173C100.642 104.058 101.71 101.363 102.008 100.805C102.684 99.5375 102.766 99.3165 103.982 98.9916C105.16 98.6773 105.427 99.0177 105.577 97.4559C105.748 95.66 105.282 93.641 105.328 91.8046C105.427 87.851 106.384 84.384 107.274 80.6643C103.492 81.7615 99.7928 83.0627 95.9251 83.7699C94.2718 84.0722 91.6996 84.7697 90.1976 83.2711C89.807 82.8814 89.8694 82.3552 89.5498 81.9036C89.0138 81.1458 88.0195 80.362 87.2593 80.1461C82.5809 78.8182 82.1245 87.7105 84.469 91.038C85.0562 91.8718 85.8732 92.2835 86.4746 93.0476C87.2772 94.0665 87.343 95.1399 87.4601 96.6953C87.6798 99.612 87.3814 102.54 86.4482 105.208L86.864 105.245ZM143.636 147.226C145.018 147.575 146.459 147.495 147.844 147.794C148.336 147.899 149.81 148.269 150.243 147.886C150.903 147.3 151.138 145.153 151.451 144.152C152 142.393 152.777 140.859 153.301 139.068C155.441 131.752 157.437 124.406 160.026 117.34C159.034 116.996 158.272 116.982 157.272 116.805C156.23 116.62 155.286 115.799 154.292 115.446C153.347 115.11 152.358 115.196 151.422 114.806C150.907 114.591 150.464 114.114 149.956 113.947C149.146 113.681 148.2 113.526 147.718 114.235C147.225 114.962 147.051 116.956 146.783 117.896C146.067 120.399 145.236 122.814 144.636 125.374C144.095 127.683 143.581 129.968 143.105 132.298C142.602 134.758 141.611 136.786 141.007 139.136C140.547 140.924 140.114 142.753 140.045 144.66C139.978 146.521 139.775 146.639 141.171 146.937C141.876 147.087 142.974 147.645 143.636 147.226ZM234.505 234.322C234.865 234.546 235.204 234.516 235.522 234.233C232.403 232.477 229.37 230.041 226.116 228.836C223.065 227.706 220.098 226.356 217.158 224.964C214.769 223.833 212.621 222.953 210.461 220.963C209.15 219.754 207.985 218.396 207.084 216.631C206.081 214.665 205.858 211.868 204.772 210.098C203.306 212.245 201.583 213.87 199.849 215.576C199.249 216.167 197.809 217.453 197.604 218.367C197.345 219.519 198.039 220.622 198.382 221.788C199.261 224.775 199.69 227.761 200.167 230.866C200.358 232.111 200.771 233.982 201.538 234.503C202.236 234.978 204.258 234.633 205.127 234.545C209.66 234.087 214.113 233.618 218.673 234.035C223.833 234.507 229.358 234.833 234.505 234.322ZM243.559 178.971C244.383 178.975 245.187 178.837 246.008 178.837C245.534 175.888 246.642 172.071 247.035 169.126C247.474 165.833 247.809 162.427 248.102 159.107C248.719 152.114 248.999 145.207 249.007 138.163C249.014 131.346 249.945 125.118 251.249 118.565C252.648 111.528 254.941 105.2 256.836 98.4133C254.757 99.8785 253.606 103.307 252.514 105.928C251.133 109.243 250.213 112.912 249.649 116.633C248.561 123.811 247.368 131.01 246.113 138.175C244.806 145.637 244.037 153.166 242.54 160.566C241.81 164.175 240.817 168.615 240.762 172.336C240.739 173.876 240.391 177.1 240.914 178.437C241.404 179.688 242.486 179.098 243.559 178.971ZM119.203 169.713C119.16 170.48 119.119 171.209 119.017 171.965C120.158 171.951 121.603 170.372 122.582 169.664C123.774 168.8 124.968 167.848 126.134 166.98C128.385 165.304 130.941 164.2 133.345 162.823C136.106 161.242 138.644 159.331 141.284 157.427C142.207 156.762 148.836 152.931 148.724 151.884C147.269 151.819 145.814 151.755 144.358 151.69C143.111 151.635 141.178 152.011 139.983 151.497C139.329 151.215 138.594 150.177 138.347 149.365C138.103 148.561 138.652 144.863 138.333 144.628C136.704 146.845 135.68 149.792 134.223 152.184C132.614 154.828 130.535 156.372 128.243 157.777C125.712 159.329 123.092 160.53 120.505 161.86C119.415 162.421 119.436 162.741 119.341 164.336C119.235 166.119 119.247 167.926 119.203 169.713ZM250.724 236.772C253.467 237.164 256.279 236.94 259.044 237.247C260.05 237.358 261.445 237.524 260.433 239.324C259.795 240.458 257.753 240.094 256.827 240.173C254.341 240.384 251.708 240.27 249.216 240.221C248.691 240.211 248.111 240.003 247.581 240.05C246.968 240.104 246.235 240.691 245.677 240.687C245.333 240.684 245.21 240.2 244.914 240.156C244.267 240.059 243.622 239.988 242.97 239.988C233.119 239.991 223.404 239.727 213.577 239.713C208.879 239.707 204.105 239.598 199.408 239.304C198.422 239.242 192.805 239.511 192.961 237.143C193.04 235.924 194.874 235.752 195.543 235.623C196.038 235.527 196.553 235.542 197.049 235.506C198.369 235.412 198.947 235.835 198.669 233.91C197.613 226.609 195.721 220.574 191.679 215.324C188.373 211.031 184.393 207.137 180.65 203.552C176.104 199.199 172.416 194.621 169.718 187.96C168.142 184.071 166.822 180.094 166.013 175.793C165.721 174.246 165.714 172.486 165.357 170.994C165.083 169.846 164.457 169.042 164.088 167.853C159.565 177.924 153.571 186.351 148.075 195.432C145.449 199.771 142.453 203.892 139.315 207.666C138.384 208.786 137.515 209.956 136.646 211.161C135.919 212.17 134.765 213.067 134.151 214.186C133.563 215.259 133.708 215.208 134.604 216.061C135.789 217.188 137.094 218.124 138.298 219.223C140.221 220.979 142.321 222.463 144.04 224.577C145.901 226.863 147.526 229.512 149.151 232.09C150.235 233.808 151.657 236.013 151.929 238.185C152.02 238.904 152.362 240.682 151.91 241.208C151.523 241.658 151.562 241.487 151.082 241.213C150.454 240.853 150.268 240.028 149.5 239.635C147.535 238.629 145.156 238.975 143.111 238.962C141.064 238.95 139.001 239.256 136.956 239.245C132.286 239.22 127.716 239.724 123.047 239.994C118.088 240.282 113.069 239.592 108.127 239.69C104.465 239.762 100.706 239.397 96.9427 239.669C95.0072 239.808 93.1064 239.485 91.2192 239.449C88.7483 239.401 86.2108 239.85 83.7187 239.913C79.6285 240.019 75.5882 240.018 71.473 240.149C62.6212 240.432 53.8172 240.723 44.9602 240.91C43.7787 240.935 42.4853 240.882 41.3178 241.059C40.0786 241.248 40.7183 241.599 39.8681 242.194C37.4878 243.858 38.0375 237.687 38.0945 236.473C38.4005 229.968 39.639 223.589 41.1273 217.414C42.5393 211.557 43.6856 205.427 44.8814 199.443C46.1904 192.894 47.8958 186.613 49.4445 180.129C51.0314 173.484 52.3234 166.58 55.2056 160.69C55.8621 159.348 56.5405 157.905 57.5965 157.059C58.7803 156.111 58.8312 156.665 58.8303 154.929C58.8296 153.295 58.905 151.112 58.6158 149.552C58.3544 148.143 58.3947 148.978 57.8061 147.966C57.3271 147.143 56.8259 146.581 56.4823 145.581C54.3711 148.435 49.5386 146.929 47.4989 144.874C45.0024 142.358 43.1008 138.114 42.404 134.073C41.8444 130.827 42.5311 124.64 45.2254 123.079C46.5388 122.318 51.3631 121.743 51.5561 119.263C51.6556 117.983 49.9577 116.183 49.5659 115.083C48.8399 113.043 48.1426 110.331 47.9409 108.096C47.5467 103.733 49.0323 98.8539 51.3987 95.9067C55.7397 90.5002 63.3778 87.7256 68.9618 91.1559C67.7818 85.1456 67.0695 79.9606 67.6637 73.7087C68.1757 68.3226 70.5591 65.3091 73.8387 62.6263C79.4352 58.0475 87.0457 56.2403 93.4449 57.5717C94.899 57.8743 96.2945 58.5234 97.6409 59.0397C99.597 59.79 101.939 59.5401 103.786 60.759C105.125 61.6425 106.142 63.4026 107.318 64.5777C108.691 65.9496 109.832 67.9973 110.786 69.8909C112.826 73.9403 112.028 81.4557 110.321 85.5205C109.955 86.3924 109.502 87.1263 108.897 87.7212C108.266 88.3404 107.304 88.5331 106.979 89.3361C106.147 91.3931 106.95 95.8464 107.061 98.0697C107.19 100.651 106.211 102.591 104.016 102.796C102.746 102.916 102.705 101.933 102.097 103.955C101.703 105.265 101.345 106.693 100.776 107.894C99.6033 110.37 97.4554 110.128 95.4989 110.061C93.2341 109.983 91.0033 109.506 88.7373 109.205C89.3358 111.762 90.974 113.746 91.9971 116.024C93.3803 119.105 94.2128 121.658 94.4377 125.248C94.6103 128.005 94.2378 130.183 92.8226 132.235C92.2368 133.085 91.7175 133.127 91.8629 134.107C91.9516 134.704 92.7268 135.691 93.0012 136.168C93.727 137.43 94.5697 138.588 95.2085 139.936C97.6666 145.123 98.3927 153.029 98.3988 159.067C98.399 159.344 98.5098 159.933 98.4181 160.219C98.3502 160.43 97.8345 161.1 97.8269 161.158C97.726 161.934 98.2937 163.265 99.1845 163.396C100.12 163.534 101.833 162.493 102.704 162.152C104.096 161.604 105.516 161.2 106.906 160.638C109.15 159.73 111.384 159.005 113.665 158.294C114.696 157.973 115.733 157.705 116.767 157.404C117.946 157.062 118.493 156.401 119.101 158C119.623 159.371 119.298 159.62 120.562 158.929C121.817 158.242 123.043 157.391 124.268 156.616C126.428 155.249 129.002 154.031 130.865 152.014C133.974 148.648 135.126 143.288 138.101 139.716C138.93 138.722 139.424 138.704 139.948 137.327C140.509 135.853 140.798 133.962 141.093 132.376C141.609 129.599 141.976 126.812 142.445 124.037C143.028 120.581 144.289 117.45 145.209 114.153C145.568 112.869 145.753 111.236 146.332 110.081C146.485 109.775 146.778 109.603 146.897 109.35C147.308 108.48 147.304 108.241 147.411 107.195C147.909 102.306 150.098 104.878 152.49 105.999C153.497 106.471 158.282 109.535 156.455 111.572C158.633 112.415 162.122 111.957 162.092 116.118C162.077 118.251 161.121 120.532 160.607 122.528C160.151 124.301 159.711 126.08 159.247 127.849C158.233 131.725 157.001 135.486 156.011 139.374C155.56 141.146 155.187 142.959 154.559 144.632C154.005 146.107 152.663 147.733 152.442 149.346C158.246 146.045 163.615 141.271 170.112 141.576C172.957 141.708 175.538 143.303 177.109 146.638C179.079 150.818 180.375 155.498 182.3 159.717C189.304 175.064 197.657 189.006 205.345 203.717C205.936 204.848 206.695 205.917 206.9 207.314C207.034 208.225 206.774 209.137 206.935 210.013C207.267 211.833 208.948 214.105 210.087 215.15C212.271 217.155 215.822 219.982 218.548 219.732C216.837 214.251 216.86 208.245 216.939 202.398C217.015 196.844 217.465 191.335 218 185.838C218.121 184.594 218.226 183.442 218.494 182.236C218.802 180.853 219.224 180.984 218.303 179.741C216.884 177.827 215.198 176.252 213.768 174.314C210.676 170.124 207.507 166.839 205.073 161.834C202.759 157.074 200.317 152.177 198.604 146.964C196.84 141.598 196.135 135.868 195.26 130.185C194.905 127.879 193.609 125.304 193.869 122.896C194.199 119.853 195.257 122.069 195.688 123.707C197.003 128.706 200.081 133.181 202.631 137.202C205.387 141.545 208.756 145.18 211.632 149.397C214.764 153.99 216.909 159.268 219.694 164.172C219.694 158.087 218.135 151.891 217.498 145.871C216.937 140.573 216.761 135.258 216.407 129.937C215.602 117.85 216.297 105.407 217.427 93.4062C217.964 87.7068 217.659 82.1415 217.676 76.4226C217.681 74.6025 217.116 70.4076 217.836 68.7924C219.215 65.6988 220.02 72.4634 220.09 73.472C220.507 79.4801 219.759 85.4212 220.141 91.4035C220.54 97.6508 221.406 103.723 222.144 109.898C222.943 116.584 224.243 123.119 225.488 129.677C226.796 136.562 227.895 143.591 229.348 150.421C229.74 148.274 229.191 145.637 229.082 143.45C228.927 140.321 228.624 137.191 228.598 134.054C228.556 129.054 228.526 123.961 228.739 118.984C228.948 114.078 228.885 108.938 230.013 104.212C230.548 101.969 231.334 99.7804 232.102 97.6674C233.05 95.0619 233.386 92.5356 233.911 89.7645C234.36 87.3912 235.018 85.0805 235.318 82.6598C235.504 81.1543 236.024 76.7102 237.317 80.0772C238.067 82.0315 237.743 84.9287 237.764 87.0282C237.791 89.7198 237.482 92.337 237.434 95.0173C237.342 100.276 237.276 105.529 236.982 110.779C236.673 116.287 236.943 121.223 237.729 126.65C238.589 132.591 238.84 138.545 239.286 144.558C239.516 147.663 239.904 150.751 240.091 153.86C240.19 155.507 239.682 160.228 240.567 161.401C240.652 158.549 241.265 155.695 241.73 152.916C242.28 149.623 242.503 146.162 242.908 142.823C243.565 137.413 244.84 132.246 245.683 126.896C247.422 115.869 248.866 101.695 256.152 94.4773C257.105 93.5329 258.153 92.8358 259.184 92.0585C259.767 91.6185 260.634 90.4801 261.301 90.2815C262.03 90.0646 262.334 90.2331 262.629 91.3601C263.041 92.9313 262.288 93.6652 261.585 94.8064C259.151 98.7552 258.112 103.817 256.609 108.448C253.169 119.053 251.646 130.238 251.629 141.701C251.62 147.702 251.309 153.49 250.829 159.454C250.313 165.873 249.633 172.662 248.17 178.837C249.637 179.275 251.229 178.622 251.627 180.895C251.725 181.454 251.548 182.114 251.656 182.841C251.761 183.548 252.014 184.25 252.164 184.945C252.473 186.382 252.637 187.801 252.787 189.277C253.368 194.98 254.367 200.405 254.473 206.189C254.571 211.535 253.786 216.951 253.063 222.194C252.334 227.475 250.245 231.976 248.6 236.752C249.308 236.752 250.016 236.762 250.724 236.772Z" fill="black"/>
<path fill-rule="evenodd" clip-rule="evenodd" d="M157.613 224.632C156.833 224.926 153.067 225.481 153.067 227.057C153.068 228.002 156.829 227.984 157.495 228.087C157.535 226.935 157.574 225.784 157.613 224.632ZM165.928 235.507C168.098 236.057 171.044 235.283 172.432 232.732C173.08 231.54 173.388 229.726 173.599 228.304C173.801 226.948 174.423 223.564 174 222.293C173.48 220.732 168.493 222.364 167.04 222.543C164.507 222.855 161.887 222.891 159.351 222.671C159.351 226.162 159.217 229.564 160.757 232.568C161.868 234.736 163.954 235.247 165.928 235.507ZM165.491 239.818C163.133 238.667 160.657 239.415 159.121 236.039C158.731 235.183 158.403 234.262 158.168 233.311C158.052 232.894 157.963 232.467 157.899 232.03C158.019 231.089 157.76 230.824 157.124 231.234C155.874 230.91 154.503 232.054 153.186 231.716C149.992 230.899 150.573 224.799 152.716 222.688C153.139 222.27 153.562 222.154 154.047 221.948C155.115 221.494 155.693 222.001 156.67 221.872C157.46 221.768 157.677 220.664 158.526 220.178C159.081 219.86 159.852 219.885 160.437 219.852C163.493 219.685 166.56 219.687 169.636 219.421C171.071 219.297 172.62 219.6 174.026 219.273C174.684 219.12 174.59 218.536 175.213 219.048C175.858 219.579 175.579 221.541 175.547 222.323C175.359 226.846 175.156 231.698 173.339 235.653C171.676 239.271 168.404 239.641 165.491 239.818Z" fill="black"/>
<path fill-rule="evenodd" clip-rule="evenodd" d="M40.9387 241.064C41.6974 241.053 42.456 241.043 43.2122 241.032C42.4525 241.043 41.6956 241.053 40.9387 241.064Z" fill="black"/>
<path fill-rule="evenodd" clip-rule="evenodd" d="M251.633 144.614C251.632 143.642 251.63 142.671 251.629 141.701C251.63 142.673 251.632 143.644 251.633 144.614Z" fill="black"/>
<path fill-rule="evenodd" clip-rule="evenodd" d="M58.6176 148.605C58.6154 149.552 58.6132 150.499 58.611 151.443C58.613 150.496 58.6152 149.551 58.6176 148.605Z" fill="black"/>
<path fill-rule="evenodd" clip-rule="evenodd" d="M121.69 239.991C122.294 239.993 122.897 239.994 123.498 239.996C122.894 239.995 122.292 239.993 121.69 239.991Z" fill="black"/>
<path fill-rule="evenodd" clip-rule="evenodd" d="M85.0359 239.798C85.6396 239.8 86.2431 239.803 86.8439 239.805C86.2393 239.803 85.6377 239.8 85.0359 239.798Z" fill="black"/>
<path fill-rule="evenodd" clip-rule="evenodd" d="M217.019 200.482C216.993 201.121 216.966 201.76 216.939 202.398C216.966 201.758 216.993 201.12 217.019 200.482Z" fill="black"/>
<path fill-rule="evenodd" clip-rule="evenodd" d="M250.724 236.771C250.257 236.765 249.791 236.758 249.325 236.752C249.793 236.491 250.26 236.503 250.724 236.771Z" fill="black"/>
<path fill-rule="evenodd" clip-rule="evenodd" d="M209.306 239.599C209.641 239.593 209.976 239.586 210.307 239.579C209.972 239.585 209.639 239.592 209.306 239.599Z" fill="black"/>
<path fill-rule="evenodd" clip-rule="evenodd" d="M251.452 152.499C251.46 152.016 251.468 151.533 251.477 151.052C251.468 151.536 251.46 152.017 251.452 152.499Z" fill="black"/>
<path fill-rule="evenodd" clip-rule="evenodd" d="M220.141 91.4035C220.113 90.9054 220.086 90.4075 220.058 89.9106C220.086 90.4091 220.113 90.9063 220.141 91.4035Z" fill="black"/>
<path fill-rule="evenodd" clip-rule="evenodd" d="M251.617 146.517C251.622 146.017 251.626 145.518 251.631 145.021C251.626 145.52 251.622 146.018 251.617 146.517Z" fill="black"/>
<path fill-rule="evenodd" clip-rule="evenodd" d="M146.324 238.981C146.622 238.987 146.919 238.992 147.214 238.997C146.916 238.991 146.62 238.986 146.324 238.981Z" fill="black"/>
<path fill-rule="evenodd" clip-rule="evenodd" d="M223.006 239.795C223.296 239.802 223.588 239.81 223.876 239.817C223.584 239.81 223.295 239.803 223.006 239.795Z" fill="black"/>
<path fill-rule="evenodd" clip-rule="evenodd" d="M254.44 204.686C254.419 204.248 254.398 203.81 254.377 203.373C254.398 203.811 254.419 204.248 254.44 204.686Z" fill="black"/>
<path fill-rule="evenodd" clip-rule="evenodd" d="M249.215 240.222C249.452 240.22 249.689 240.218 249.923 240.217C249.686 240.219 249.451 240.221 249.215 240.222Z" fill="black"/>
<path fill-rule="evenodd" clip-rule="evenodd" d="M216.941 239.814C217.176 239.807 217.41 239.8 217.642 239.793C217.407 239.8 217.174 239.807 216.941 239.814Z" fill="black"/>
<path fill-rule="evenodd" clip-rule="evenodd" d="M164.213 239.576C164.471 239.574 164.729 239.573 164.985 239.57C164.726 239.572 164.469 239.574 164.213 239.576Z" fill="black"/>
<path fill-rule="evenodd" clip-rule="evenodd" d="M104.667 239.575C104.913 239.577 105.158 239.58 105.401 239.582C105.155 239.58 104.911 239.578 104.667 239.575Z" fill="black"/>
<path fill-rule="evenodd" clip-rule="evenodd" d="M90.182 239.628C90.4323 239.609 90.6822 239.59 90.9302 239.572C90.6791 239.591 90.4306 239.609 90.182 239.628Z" fill="black"/>
<path fill-rule="evenodd" clip-rule="evenodd" d="M159.533 112.458C159.16 112.415 158.788 112.373 158.415 112.33C158.788 112.364 159.183 112.07 159.533 112.458Z" fill="black"/>
<path fill-rule="evenodd" clip-rule="evenodd" d="M254.475 236.96C254.108 236.911 253.741 236.861 253.373 236.812C253.741 236.861 254.108 236.911 254.475 236.96Z" fill="black"/>
<path fill-rule="evenodd" clip-rule="evenodd" d="M228.859 115.473C228.834 115.902 228.809 116.331 228.785 116.759C228.81 116.33 228.834 115.901 228.859 115.473Z" fill="black"/>
<path fill-rule="evenodd" clip-rule="evenodd" d="M251.709 133.361C251.734 132.954 251.759 132.547 251.784 132.142C251.759 132.549 251.734 132.955 251.709 133.361Z" fill="black"/>
<path fill-rule="evenodd" clip-rule="evenodd" d="M228.713 122.128C228.686 122.557 228.66 122.985 228.633 123.412C228.66 122.983 228.686 122.556 228.713 122.128Z" fill="black"/>
<path fill-rule="evenodd" clip-rule="evenodd" d="M251.554 149.779C251.552 149.365 251.549 148.951 251.547 148.538C251.747 148.951 251.739 149.364 251.554 149.779Z" fill="black"/>
<path fill-rule="evenodd" clip-rule="evenodd" d="M217.024 209.222C217.021 209.637 217.019 210.052 217.015 210.465C216.81 210.047 216.851 209.634 217.024 209.222Z" fill="black"/>
<path fill-rule="evenodd" clip-rule="evenodd" d="M240.432 161.222C240.396 160.802 240.36 160.382 240.324 159.963C240.36 160.384 240.396 160.803 240.432 161.222Z" fill="black"/>
<path fill-rule="evenodd" clip-rule="evenodd" d="M46.6061 122.68C46.3626 123.109 46.031 122.815 45.7415 122.868C46.03 122.805 46.3181 122.743 46.6061 122.68Z" fill="black"/>
<path fill-rule="evenodd" clip-rule="evenodd" d="M167.011 219.718C166.703 219.719 166.396 219.719 166.088 219.72C166.396 219.719 166.703 219.719 167.011 219.718Z" fill="black"/>
<path fill-rule="evenodd" clip-rule="evenodd" d="M216.158 124.443C216.187 124.792 216.216 125.141 216.244 125.488C216.216 125.139 216.187 124.791 216.158 124.443Z" fill="black"/>
<path fill-rule="evenodd" clip-rule="evenodd" d="M64.1302 89.7947C63.8209 89.8028 63.5117 89.811 63.2024 89.8192C63.5084 89.579 63.8167 89.5096 64.1302 89.7947Z" fill="black"/>
<path fill-rule="evenodd" clip-rule="evenodd" d="M228.705 128.163C228.685 128.529 228.665 128.894 228.645 129.259C228.665 128.893 228.685 128.528 228.705 128.163Z" fill="black"/>
<path fill-rule="evenodd" clip-rule="evenodd" d="M220.224 83.2559C220.248 82.9224 220.272 82.5889 220.295 82.2573C220.271 82.5914 220.248 82.9236 220.224 83.2559Z" fill="black"/>
<path fill-rule="evenodd" clip-rule="evenodd" d="M217.794 82.2109C217.769 82.5727 217.745 82.9348 217.721 83.2953C217.745 82.9329 217.769 82.5718 217.794 82.2109Z" fill="black"/>
<path fill-rule="evenodd" clip-rule="evenodd" d="M83.4574 58.0444C83.1427 58.0953 82.828 58.1463 82.5135 58.1969C82.8282 58.146 83.1427 58.0953 83.4574 58.0444Z" fill="black"/>
<path fill-rule="evenodd" clip-rule="evenodd" d="M60.7281 90.0825C60.4051 90.1265 60.0822 90.1705 59.7595 90.2145C60.0824 90.1705 60.4054 90.1265 60.7281 90.0825Z" fill="black"/>
<path fill-rule="evenodd" clip-rule="evenodd" d="M237.692 91.143C237.712 90.8064 237.732 90.4695 237.751 90.1348C237.732 90.4717 237.712 90.8074 237.692 91.143Z" fill="black"/>
<path fill-rule="evenodd" clip-rule="evenodd" d="M50.1287 146.696C50.3147 146.7 50.5004 146.703 50.6836 146.707C50.4969 146.703 50.3128 146.7 50.1287 146.696Z" fill="black"/>
<path fill-rule="evenodd" clip-rule="evenodd" d="M217.803 188.242C217.784 188.615 217.766 188.987 217.747 189.359C217.766 188.986 217.785 188.614 217.803 188.242Z" fill="black"/>
<path fill-rule="evenodd" clip-rule="evenodd" d="M236.775 115.702C236.768 115.343 236.76 114.984 236.753 114.625C236.761 114.985 236.768 115.343 236.775 115.702Z" fill="black"/>
<path fill-rule="evenodd" clip-rule="evenodd" d="M91.379 57.1943C91.0921 57.1943 90.8052 57.1946 90.5188 57.1946C90.8057 56.9319 91.0924 56.9385 91.379 57.1943Z" fill="black"/>
<path fill-rule="evenodd" clip-rule="evenodd" d="M167.968 141.747C167.653 141.758 167.339 141.769 167.025 141.779C167.334 141.488 167.648 141.481 167.968 141.747Z" fill="black"/>
<path fill-rule="evenodd" clip-rule="evenodd" d="M195.427 238.966C195.613 238.971 195.8 238.976 195.983 238.982C195.796 238.977 195.611 238.972 195.427 238.966Z" fill="black"/>
<path fill-rule="evenodd" clip-rule="evenodd" d="M202.441 239.403C202.627 239.394 202.813 239.385 202.996 239.377C202.81 239.386 202.625 239.394 202.441 239.403Z" fill="black"/>
<path fill-rule="evenodd" clip-rule="evenodd" d="M92.6665 239.576C92.8605 239.582 93.0545 239.588 93.2459 239.594C93.0512 239.588 92.8588 239.582 92.6665 239.576Z" fill="black"/>
<path fill-rule="evenodd" clip-rule="evenodd" d="M254.279 200.529C254.251 200.174 254.223 199.818 254.196 199.465C254.223 199.821 254.251 200.175 254.279 200.529Z" fill="black"/>
<path fill-rule="evenodd" clip-rule="evenodd" d="M228.943 140.656C228.965 140.995 228.987 141.333 229.008 141.67C228.986 141.331 228.964 140.993 228.943 140.656Z" fill="black"/>
<path fill-rule="evenodd" clip-rule="evenodd" d="M238.693 134.845C238.663 134.486 238.633 134.127 238.603 133.769C238.633 134.128 238.663 134.486 238.693 134.845Z" fill="black"/>
<path fill-rule="evenodd" clip-rule="evenodd" d="M94.2404 239.789C94.4361 239.785 94.6319 239.781 94.8255 239.778C94.6289 239.782 94.4346 239.785 94.2404 239.789Z" fill="black"/>
<path fill-rule="evenodd" clip-rule="evenodd" d="M165.491 239.818C165.682 239.806 165.872 239.795 166.06 239.784C165.869 239.795 165.68 239.806 165.491 239.818Z" fill="black"/>
<path fill-rule="evenodd" clip-rule="evenodd" d="M237.101 108.636C237.093 108.272 237.084 107.908 237.076 107.545C237.084 107.909 237.093 108.272 237.101 108.636Z" fill="black"/>
<path fill-rule="evenodd" clip-rule="evenodd" d="M75.6884 240.027C75.8793 240.025 76.07 240.023 76.2584 240.021C76.0665 240.024 75.8777 240.025 75.6884 240.027Z" fill="black"/>
<path fill-rule="evenodd" clip-rule="evenodd" d="M237.022 240.023C237.218 240.026 237.414 240.028 237.608 240.031C237.411 240.029 237.216 240.026 237.022 240.023Z" fill="black"/>
<path fill-rule="evenodd" clip-rule="evenodd" d="M241.259 239.992C241.448 240.01 241.638 240.028 241.825 240.046C241.634 240.028 241.447 240.01 241.259 239.992Z" fill="black"/>
<path fill-rule="evenodd" clip-rule="evenodd" d="M242.97 239.988C243.163 239.995 243.356 240.002 243.546 240.007C243.353 240 243.162 239.994 242.97 239.988Z" fill="black"/>
<path fill-rule="evenodd" clip-rule="evenodd" d="M251.757 136.286C251.744 135.929 251.731 135.571 251.719 135.214C251.732 135.572 251.744 135.929 251.757 136.286Z" fill="black"/>
<path fill-rule="evenodd" clip-rule="evenodd" d="M122.267 235.3C122.854 235.259 123.441 235.218 124.027 235.177C123.441 235.218 122.854 235.259 122.267 235.3Z" fill="black"/>
<path fill-rule="evenodd" clip-rule="evenodd" d="M86.864 105.245C87.3734 105.304 87.8828 105.363 88.3917 105.422C87.8823 105.363 87.3731 105.304 86.864 105.245Z" fill="black"/>
<path fill-rule="evenodd" clip-rule="evenodd" d="M230.689 134.773C230.705 135.422 230.721 136.07 230.737 136.716C230.721 136.067 230.705 135.421 230.689 134.773Z" fill="black"/>
<path fill-rule="evenodd" clip-rule="evenodd" d="M241.202 236.408C241.734 236.451 242.265 236.494 242.797 236.537C242.262 236.569 241.719 236.772 241.202 236.408Z" fill="black"/>
<path fill-rule="evenodd" clip-rule="evenodd" d="M238.055 159.749C238.059 159.131 238.063 158.513 238.067 157.896C238.063 158.515 238.059 159.132 238.055 159.749Z" fill="black"/>
<path fill-rule="evenodd" clip-rule="evenodd" d="M236.694 179.173C237.16 179.181 237.627 179.189 238.093 179.197C237.627 179.189 237.16 179.181 236.694 179.173Z" fill="black"/>
<path fill-rule="evenodd" clip-rule="evenodd" d="M119.237 168.304C119.226 168.775 119.214 169.246 119.203 169.715C119.215 169.244 119.226 168.774 119.237 168.304Z" fill="black"/>
<path fill-rule="evenodd" clip-rule="evenodd" d="M244.459 148.354C244.44 148.823 244.421 149.292 244.402 149.758C244.422 149.289 244.441 148.822 244.459 148.354Z" fill="black"/>
<path fill-rule="evenodd" clip-rule="evenodd" d="M234.505 234.322C234.844 234.291 235.184 234.261 235.522 234.231C235.267 234.504 235.011 234.527 234.505 234.322Z" fill="black"/>
<path fill-rule="evenodd" clip-rule="evenodd" d="M232.233 173.035C232.257 173.54 232.28 174.045 232.303 174.549C232.28 174.044 232.257 173.539 232.233 173.035Z" fill="black"/>
<path fill-rule="evenodd" clip-rule="evenodd" d="M105.317 93.2651C105.32 92.777 105.324 92.2889 105.327 91.8027C105.324 92.2915 105.321 92.7783 105.317 93.2651Z" fill="black"/>
<path fill-rule="evenodd" clip-rule="evenodd" d="M232.644 179.275L233.909 179.238C233.492 179.507 233.07 179.517 232.644 179.275Z" fill="black"/>
<path fill-rule="evenodd" clip-rule="evenodd" d="M244.316 182.877C244.017 182.88 243.719 182.883 243.423 182.887C243.722 182.884 244.019 182.88 244.316 182.877Z" fill="black"/>
<path fill-rule="evenodd" clip-rule="evenodd" d="M135.065 234.516C135.478 234.523 135.891 234.53 136.304 234.537C135.888 234.815 135.475 234.854 135.065 234.516Z" fill="black"/>
<path fill-rule="evenodd" clip-rule="evenodd" d="M57.2701 236.138C57.6892 236.088 58.1085 236.038 58.5276 235.988C58.1085 236.038 57.6892 236.088 57.2701 236.138Z" fill="black"/>
<path fill-rule="evenodd" clip-rule="evenodd" d="M230.834 138.936C230.855 139.443 230.875 139.951 230.896 140.456C230.875 139.948 230.855 139.442 230.834 138.936Z" fill="black"/>
<path fill-rule="evenodd" clip-rule="evenodd" d="M97.0526 106.436C97.4059 106.204 97.7621 106.165 98.1218 106.411C97.7652 106.419 97.409 106.428 97.0526 106.436Z" fill="black"/>
<path fill-rule="evenodd" clip-rule="evenodd" d="M219.276 144.793C219.305 145.221 219.335 145.649 219.364 146.076C219.334 145.647 219.305 145.22 219.276 144.793Z" fill="black"/>
<path fill-rule="evenodd" clip-rule="evenodd" d="M249.125 134.809C248.944 134.391 248.95 133.974 249.134 133.562C249.131 133.978 249.128 134.394 249.125 134.809Z" fill="black"/>
<path fill-rule="evenodd" clip-rule="evenodd" d="M230.892 120.276C230.892 120.699 230.893 121.123 230.893 121.545C230.892 121.121 230.892 120.698 230.892 120.276Z" fill="black"/>
<path fill-rule="evenodd" clip-rule="evenodd" d="M243.559 178.971C243.922 178.822 244.286 178.612 244.648 178.976C244.285 178.974 243.922 178.972 243.559 178.971Z" fill="black"/>
<path fill-rule="evenodd" clip-rule="evenodd" d="M126.027 235.108C126.393 235.063 126.759 235.017 127.124 234.972C126.759 235.017 126.393 235.063 126.027 235.108Z" fill="black"/>
<path fill-rule="evenodd" clip-rule="evenodd" d="M75.8544 235.109C76.1896 234.913 76.5241 234.81 76.8543 235.124C76.5208 235.119 76.1877 235.114 75.8544 235.109Z" fill="black"/>
<path fill-rule="evenodd" clip-rule="evenodd" d="M144.417 234.479C144.776 234.27 145.133 234.155 145.487 234.493C145.13 234.488 144.774 234.484 144.417 234.479Z" fill="black"/>
<path fill-rule="evenodd" clip-rule="evenodd" d="M64.6281 172.649C64.655 173.08 64.6821 173.512 64.7087 173.942C64.6816 173.51 64.6548 173.08 64.6281 172.649Z" fill="black"/>
<path fill-rule="evenodd" clip-rule="evenodd" d="M147.844 147.793C148.196 147.622 148.548 147.533 148.894 147.819C148.544 147.81 148.194 147.802 147.844 147.793Z" fill="black"/>
<path fill-rule="evenodd" clip-rule="evenodd" d="M230.829 160.638C230.849 161.06 230.868 161.482 230.887 161.903C230.868 161.481 230.848 161.059 230.829 160.638Z" fill="black"/>
<path fill-rule="evenodd" clip-rule="evenodd" d="M64.4001 122.58C64.3709 122.919 64.3416 123.259 64.3127 123.597C64.3419 123.257 64.3709 122.918 64.4001 122.58Z" fill="black"/>
<path fill-rule="evenodd" clip-rule="evenodd" d="M43.9602 221.108C43.942 221.439 43.9241 221.77 43.9062 222.099C43.9248 221.767 43.9425 221.438 43.9602 221.108Z" fill="black"/>
<path fill-rule="evenodd" clip-rule="evenodd" d="M238.211 162.87C238.192 162.529 238.172 162.187 238.152 161.846C238.172 162.189 238.192 162.53 238.211 162.87Z" fill="black"/>
<path fill-rule="evenodd" clip-rule="evenodd" d="M212.529 233.84C212.844 233.843 213.158 233.846 213.472 233.849C213.158 233.846 212.843 233.843 212.529 233.84Z" fill="black"/>
<path fill-rule="evenodd" clip-rule="evenodd" d="M119.118 171.214C119.177 171.463 119.236 171.712 119.294 171.961C118.902 172.088 118.844 171.838 119.118 171.214Z" fill="black"/>
<path fill-rule="evenodd" clip-rule="evenodd" d="M142.679 147.23C142.998 147.229 143.318 147.227 143.637 147.225C143.318 147.427 142.999 147.565 142.679 147.23Z" fill="black"/>
<path fill-rule="evenodd" clip-rule="evenodd" d="M64.807 174.692C64.8178 175.069 64.8287 175.447 64.839 175.822C64.8279 175.445 64.8173 175.068 64.807 174.692Z" fill="black"/>
<path fill-rule="evenodd" clip-rule="evenodd" d="M68.1835 235.522C68.4916 235.521 68.7994 235.521 69.1075 235.521C68.7992 235.521 68.4916 235.521 68.1835 235.522Z" fill="black"/>
<path fill-rule="evenodd" clip-rule="evenodd" d="M220.051 178.668C220.062 179.016 220.074 179.363 220.085 179.708C220.074 179.36 220.063 179.014 220.051 178.668Z" fill="black"/>
<path fill-rule="evenodd" clip-rule="evenodd" d="M61.6431 235.945C61.946 235.677 62.2496 235.7 62.5537 235.94C62.2501 235.942 61.9465 235.944 61.6431 235.945Z" fill="black"/>
<path fill-rule="evenodd" clip-rule="evenodd" d="M69.6195 117.728C69.6358 118.083 69.6523 118.437 69.6693 118.79C69.653 118.435 69.6363 118.081 69.6195 117.728Z" fill="black"/>
<path fill-rule="evenodd" clip-rule="evenodd" d="M60.0671 235.981C60.382 235.983 60.697 235.985 61.0116 235.987C60.6958 236.273 60.3811 236.287 60.0671 235.981Z" fill="black"/>
<path fill-rule="evenodd" clip-rule="evenodd" d="M234.451 112.163C234.454 111.803 234.456 111.443 234.458 111.083C234.456 111.444 234.454 111.803 234.451 112.163Z" fill="black"/>
<path fill-rule="evenodd" clip-rule="evenodd" d="M89.8716 105.864C90.1728 105.917 90.4741 105.969 90.7751 106.021C90.4739 105.969 90.1726 105.917 89.8716 105.864Z" fill="black"/>
<path fill-rule="evenodd" clip-rule="evenodd" d="M63.2878 136.948C63.2918 137.284 63.2958 137.621 63.3005 137.955C63.2965 137.618 63.2922 137.283 63.2878 136.948Z" fill="black"/>
<path fill-rule="evenodd" clip-rule="evenodd" d="M236.479 136.899C236.463 136.557 236.446 136.214 236.43 135.873C236.446 136.216 236.463 136.558 236.479 136.899Z" fill="black"/>
<path fill-rule="evenodd" clip-rule="evenodd" d="M166.217 235.58C166.589 235.625 166.961 235.67 167.332 235.715C166.961 235.67 166.589 235.625 166.217 235.58Z" fill="black"/>
<path fill-rule="evenodd" clip-rule="evenodd" d="M164.975 222.75C164.774 222.754 164.574 222.757 164.375 222.763C164.576 222.76 164.776 222.755 164.975 222.75Z" fill="black"/>
<path fill-rule="evenodd" clip-rule="evenodd" d="M164.992 235.384C165.304 235.425 165.616 235.466 165.928 235.507C165.616 235.466 165.304 235.425 164.992 235.384Z" fill="black"/>
<path fill-rule="evenodd" clip-rule="evenodd" d="M108.886 207.39C109.291 210.446 105.729 213.435 105.447 209.09C105.343 207.502 106.14 206.385 107.032 205.414C108.299 204.035 109.006 205.355 108.886 207.39Z" fill="black"/>
<path fill-rule="evenodd" clip-rule="evenodd" d="M69.6207 170.103C70.4599 170.56 76.8713 173.346 73.541 174.747C72.6594 175.118 71.3268 175.173 70.5626 174.52C69.6433 173.734 68.716 171.413 69.6207 170.103Z" fill="black"/>
<path fill-rule="evenodd" clip-rule="evenodd" d="M71.1986 128.715C73.3747 128.378 75.3798 133.144 72.6968 132.989C70.7439 132.876 68.1174 128.715 71.1986 128.715Z" fill="black"/>
<path fill-rule="evenodd" clip-rule="evenodd" d="M78.9833 140.4C80.8005 142.514 77.4323 147.245 76.095 145.414C75.4121 144.479 76.042 142.464 76.6056 141.681C77.1841 140.878 78.2132 140.727 78.9833 140.4Z" fill="black"/>
<path fill-rule="evenodd" clip-rule="evenodd" d="M84.3932 195.204C83.3204 195.431 78.6027 197.486 79.5866 193.753C79.9618 192.329 81.0085 192.751 81.9652 192.817C83.5073 192.922 84.3932 192.823 84.3932 195.204Z" fill="black"/>
<path fill-rule="evenodd" clip-rule="evenodd" d="M81.2856 204.82C82.8916 205.965 80.544 212.376 79.2129 211.012C77.366 209.12 79.892 205.396 81.2856 204.82Z" fill="black"/>
<path fill-rule="evenodd" clip-rule="evenodd" d="M88.2899 199.666C89.0708 199.241 92.7521 203.962 91.3507 205.276C90.6325 205.949 89.2717 204.795 88.8386 204.099C88.0268 202.794 87.9533 201.184 88.2899 199.666Z" fill="black"/>
<path fill-rule="evenodd" clip-rule="evenodd" d="M67.0507 161.076C67.8488 161.25 69.2268 161.306 69.2785 162.801C69.3237 164.116 68.0878 164.541 67.2178 164.644C66.315 164.751 65.1199 164.412 65.1027 162.898C65.0845 161.266 67.0224 161.364 67.0507 161.076Z" fill="black"/>
<path fill-rule="evenodd" clip-rule="evenodd" d="M86.7329 226.151C87.5829 226.839 91.5477 229.317 89.8482 231.106C89.2122 231.776 87.2842 230.393 86.8503 229.69C86.3324 228.851 85.8263 226.885 86.7329 226.151Z" fill="black"/>
<path fill-rule="evenodd" clip-rule="evenodd" d="M97.7548 208.175C97.632 205.441 101.092 204.353 100.375 208.234C100.172 209.328 99.9767 210.989 98.9619 211.053C97.7626 211.128 97.7192 209.236 97.7548 208.175Z" fill="black"/>
<path fill-rule="evenodd" clip-rule="evenodd" d="M87.0667 160.625C87.0907 162.7 84.1098 164.529 84.0867 161.241C84.0662 158.303 87.1779 157.443 87.0667 160.625Z" fill="black"/>
<path fill-rule="evenodd" clip-rule="evenodd" d="M85.0982 149.822C85.8327 150.137 86.8089 150.3 86.8734 151.544C86.942 152.861 86.0246 153.447 85.1991 153.373C84.5221 153.313 83.5203 152.644 83.3973 151.665C83.2169 150.228 84.2692 150.134 85.0982 149.822Z" fill="black"/>
<path fill-rule="evenodd" clip-rule="evenodd" d="M71.44 187.799C71.4275 186.088 74.0001 184.03 74.4739 186.016C74.6255 186.652 73.4129 189.502 73.0096 189.715C71.9425 190.28 71.7935 188.964 71.44 187.799Z" fill="black"/>
<path fill-rule="evenodd" clip-rule="evenodd" d="M92.5218 216.288C91.6525 217.325 89.0447 220.24 89.2396 216.327C89.3641 213.828 92.7512 213.958 92.5218 216.288Z" fill="black"/>
<path fill-rule="evenodd" clip-rule="evenodd" d="M135.009 227.47C135.294 225.825 139.374 228.678 138.012 230.756C137.556 231.454 136.361 230.822 135.901 230.409C134.992 229.591 134.972 228.836 135.009 227.47Z" fill="black"/>
<path fill-rule="evenodd" clip-rule="evenodd" d="M112.277 192.257C112.436 191.523 112.613 190.227 113.138 189.759C114.087 188.912 114.914 190.189 114.914 191.535C114.914 194.047 112.771 194.839 112.277 192.257Z" fill="black"/>
<path fill-rule="evenodd" clip-rule="evenodd" d="M102.165 221.618C103.225 221.941 105.583 225.375 104.216 226.775C102.899 228.123 101.148 222.643 102.165 221.618Z" fill="black"/>
<path fill-rule="evenodd" clip-rule="evenodd" d="M103.174 195.629C104.536 195.774 106.408 198.715 104.291 199.183C102.635 199.548 100.709 196.35 103.174 195.629Z" fill="black"/>
<path fill-rule="evenodd" clip-rule="evenodd" d="M115.504 209.162C115.846 207.628 119.224 209.271 119.034 210.96C118.933 211.858 117.552 212.069 116.826 211.832C115.757 211.482 115.48 210.547 115.504 209.162Z" fill="black"/>
<path fill-rule="evenodd" clip-rule="evenodd" d="M75.687 123.483C75.7115 121.499 78.5697 120.691 78.779 122.69C78.9683 124.495 75.6512 126.417 75.687 123.483Z" fill="black"/>
<path fill-rule="evenodd" clip-rule="evenodd" d="M114.56 229.597C114.766 228.6 114.855 227.399 115.789 227.268C116.859 227.117 116.827 228.211 116.702 229.344C116.359 232.428 115.053 232.582 114.56 229.597Z" fill="black"/>
<path fill-rule="evenodd" clip-rule="evenodd" d="M69.4251 147.079C67.9351 147.527 65.2061 143.701 66.8741 142.88C68.0494 142.3 69.4251 145.924 69.4251 147.079Z" fill="black"/>
<path fill-rule="evenodd" clip-rule="evenodd" d="M88.4294 176.8C87.6711 177.276 87.4964 177.565 86.9139 176.783C86.4067 176.103 86.4291 174.207 86.8644 173.499C88.5319 170.789 88.4928 175.703 88.4294 176.8Z" fill="black"/>
<path fill-rule="evenodd" clip-rule="evenodd" d="M94.6162 171.302C95.407 171.436 97.7569 174.408 96.5333 175.59C95.0339 177.037 94.1855 172.503 94.6162 171.302Z" fill="black"/>
<path fill-rule="evenodd" clip-rule="evenodd" d="M111.727 172.085C111.152 175.036 109.717 173.05 109.798 170.817C109.929 167.24 111.416 170.355 111.727 172.085Z" fill="black"/>
<path fill-rule="evenodd" clip-rule="evenodd" d="M120.451 219.489C121.424 220.026 122.744 224.983 121.355 225.249C119.795 225.547 120.314 220.521 120.451 219.489Z" fill="black"/>
<path fill-rule="evenodd" clip-rule="evenodd" d="M108.306 216.704C109.419 216.203 109.826 219.333 109.18 219.915C107.757 221.194 108.057 217.443 108.306 216.704Z" fill="black"/>
<path fill-rule="evenodd" clip-rule="evenodd" d="M97.7548 208.175C97.7407 208.591 97.7268 209.006 97.7122 209.419C97.7261 209.003 97.7402 208.589 97.7548 208.175Z" fill="black"/>
<path fill-rule="evenodd" clip-rule="evenodd" d="M135.009 227.47C134.997 227.896 134.986 228.322 134.974 228.746C134.985 228.319 134.997 227.894 135.009 227.47Z" fill="black"/>
<path fill-rule="evenodd" clip-rule="evenodd" d="M115.504 209.162C115.498 209.524 115.492 209.885 115.485 210.244C115.491 209.882 115.498 209.522 115.504 209.162Z" fill="black"/>
<path fill-rule="evenodd" clip-rule="evenodd" d="M238.598 202.942C240.905 202.843 243.479 201.685 245.746 202.054C246.37 202.155 247.807 202.365 246.807 203.599C246.329 204.189 244.039 203.884 243.346 204.08C239.11 205.276 234.301 206.047 229.958 205.947C227.924 205.901 225.876 205.684 223.843 205.54C221.812 205.397 221.613 204.297 223.898 203.947C226.272 203.583 228.707 203.718 231.092 203.714C233.6 203.71 236.095 203.165 238.598 202.942Z" fill="black"/>
<path fill-rule="evenodd" clip-rule="evenodd" d="M243.663 195.53C243.441 196.373 243.246 198.308 242.395 198.435C241.203 198.612 241.006 195.884 241.05 194.886C241.103 193.682 241.428 191.681 242.551 192.098C243.499 192.45 243.594 194.566 243.663 195.53Z" fill="black"/>
<path fill-rule="evenodd" clip-rule="evenodd" d="M236.448 194.913C236.622 194.01 236.707 191.975 237.665 191.905C238.735 191.828 239.041 193.949 239.034 194.965C239.027 195.93 238.759 197.752 237.907 197.974C236.752 198.276 236.648 195.944 236.448 194.913Z" fill="black"/>
<path fill-rule="evenodd" clip-rule="evenodd" d="M224.431 196.532C224.085 197.617 223.855 199.111 222.782 198.371C221.953 197.799 221.837 195.492 221.993 194.436C222.156 193.341 222.499 192.086 223.442 192.578C224.53 193.146 224.42 195.337 224.431 196.532Z" fill="black"/>
<path fill-rule="evenodd" clip-rule="evenodd" d="M233.531 195.53C232.508 199.664 230.643 196.867 231.351 193.78C232.092 190.555 233.437 193.688 233.531 195.53Z" fill="black"/>
<path fill-rule="evenodd" clip-rule="evenodd" d="M228.548 195.735C228.264 196.463 227.961 198.033 227.196 197.867C226.257 197.664 226.227 195.256 226.33 194.359C226.42 193.574 226.684 192.265 227.47 192.282C228.605 192.307 228.529 194.792 228.548 195.735Z" fill="black"/>
<path fill-rule="evenodd" clip-rule="evenodd" d="M248.95 196.528C248.189 198.806 247.141 196.844 247.476 195.226C247.974 192.827 248.907 194.953 248.95 196.528Z" fill="black"/>
<path fill-rule="evenodd" clip-rule="evenodd" d="M230.303 203.717C229.472 203.713 228.64 203.709 227.809 203.705C228.641 203.496 229.473 203.414 230.303 203.717Z" fill="black"/>
<path fill-rule="evenodd" clip-rule="evenodd" d="M246.828 202.044C246.106 202.05 245.385 202.056 244.664 202.063C245.384 201.775 246.105 201.768 246.828 202.044Z" fill="black"/>
<path fill-rule="evenodd" clip-rule="evenodd" d="M238.598 202.942C238.02 202.993 237.443 203.045 236.866 203.097C237.444 203.045 238.021 202.993 238.598 202.942Z" fill="black"/>
<path fill-rule="evenodd" clip-rule="evenodd" d="M224.432 196.532C224.426 195.979 224.421 195.427 224.416 194.875C224.629 195.425 224.614 195.977 224.432 196.532Z" fill="black"/>
<path fill-rule="evenodd" clip-rule="evenodd" d="M228.956 205.936C229.291 205.939 229.626 205.943 229.958 205.947C229.622 205.943 229.289 205.939 228.956 205.936Z" fill="black"/>
<path fill-rule="evenodd" clip-rule="evenodd" d="M226.115 203.765C225.643 203.816 225.172 203.868 224.701 203.919C225.172 203.868 225.643 203.816 226.115 203.765Z" fill="black"/>
<path fill-rule="evenodd" clip-rule="evenodd" d="M232.489 203.71C232.023 203.711 231.558 203.712 231.092 203.714C231.558 203.452 232.023 203.445 232.489 203.71Z" fill="black"/>
<path fill-rule="evenodd" clip-rule="evenodd" d="M228.548 195.735C228.536 195.159 228.525 194.583 228.514 194.008C228.526 194.584 228.537 195.159 228.548 195.735Z" fill="black"/>
<path fill-rule="evenodd" clip-rule="evenodd" d="M221.993 194.436C221.991 194.998 221.988 195.559 221.985 196.119C221.988 195.557 221.99 194.996 221.993 194.436Z" fill="black"/>
<path fill-rule="evenodd" clip-rule="evenodd" d="M241.243 202.732C240.831 202.782 240.42 202.831 240.009 202.881C240.42 202.831 240.832 202.782 241.243 202.732Z" fill="black"/>
<path fill-rule="evenodd" clip-rule="evenodd" d="M248.95 196.528C248.936 196.037 248.923 195.547 248.91 195.057C248.923 195.548 248.936 196.038 248.95 196.528Z" fill="black"/>
<path fill-rule="evenodd" clip-rule="evenodd" d="M231.443 205.951C231.729 205.944 232.016 205.937 232.299 205.931C232.012 205.938 231.728 205.945 231.443 205.951Z" fill="black"/>
<path fill-rule="evenodd" clip-rule="evenodd" d="M243.663 195.53C243.638 195.177 243.612 194.825 243.587 194.473C243.613 194.826 243.638 195.178 243.663 195.53Z" fill="black"/>
<path fill-rule="evenodd" clip-rule="evenodd" d="M233.531 195.53C233.513 195.168 233.494 194.805 233.476 194.444C233.494 194.807 233.513 195.168 233.531 195.53Z" fill="black"/>
<path fill-rule="evenodd" clip-rule="evenodd" d="M85.8192 89.1313C84.6927 88.7371 84.4815 86.6263 84.6625 85.3299C84.8679 84.705 85.0732 84.0805 85.2785 83.4557C85.1981 83.2247 85.118 82.9937 85.0378 82.7627C85.1408 81.476 84.8775 80.9168 85.9866 81.4379C88.0468 82.4066 88.3761 89.032 85.8192 89.1313Z" fill="black"/>
<path fill-rule="evenodd" clip-rule="evenodd" d="M102.495 85.0501C103.423 84.9527 105.108 86.3937 104.185 87.7879C103.612 88.6516 101.726 88.243 100.957 88.4234C99.9364 88.6626 98.8721 88.9898 99.4242 86.9519C99.8577 85.3515 101.406 85.0083 102.495 85.0501Z" fill="black"/>
<path fill-rule="evenodd" clip-rule="evenodd" d="M101.518 94.6359C100.575 93.628 100.996 89.0371 102.431 89.863C103.907 90.7132 102.305 93.9734 101.518 94.6359Z" fill="black"/>
<path fill-rule="evenodd" clip-rule="evenodd" d="M84.6626 85.3301C84.6626 85.8132 84.6623 86.2965 84.6616 86.7774C84.465 86.2934 84.4711 85.8116 84.6626 85.3301Z" fill="black"/>
<path fill-rule="evenodd" clip-rule="evenodd" d="M85.8192 89.1298C86.0114 89.1231 86.2037 89.116 86.3935 89.1099C86.2004 89.1175 86.0099 89.1237 85.8192 89.1298Z" fill="black"/>
<path fill-rule="evenodd" clip-rule="evenodd" d="M202.214 221.345C202.126 223.433 200.444 221.889 200.564 220.492C200.78 217.957 201.855 220.462 202.214 221.345Z" fill="black"/>
<path d="M141.091 17.0928C141.335 17.0928 141.547 17.1823 141.726 17.3613C141.921 17.5241 142.019 17.7438 142.019 18.0205C142.019 18.3786 141.864 18.6471 141.555 18.8262C141.506 18.8587 141.286 19.0133 140.896 19.29C140.521 19.5667 140.106 20.0143 139.651 20.6328C139.195 21.2513 138.755 22.0732 138.332 23.0986C137.909 24.1077 137.641 25.361 137.527 26.8584C137.494 27.1188 137.47 27.3792 137.453 27.6396C137.453 27.9001 137.445 28.1605 137.429 28.4209C137.722 28.3883 138.023 28.3639 138.332 28.3477C138.658 28.3151 139 28.2988 139.358 28.2988C140.53 28.2988 141.661 28.429 142.751 28.6895C143.842 28.9499 144.843 29.3242 145.754 29.8125C148.114 28.8685 149.921 27.6152 151.174 26.0527C152.427 24.4902 153.054 22.7487 153.054 20.8281C153.054 19.3958 152.696 18.1263 151.98 17.0195C151.264 15.8965 150.254 14.9525 148.952 14.1875C147.667 13.4225 146.12 12.8366 144.314 12.4297C142.523 12.0228 140.554 11.8193 138.406 11.8193C136.534 11.8193 134.621 11.9658 132.668 12.2588C130.731 12.5355 128.851 12.9587 127.029 13.5283C125.222 14.098 123.521 14.806 121.926 15.6523C120.331 16.4987 118.939 17.4753 117.751 18.582C116.563 19.6725 115.627 20.8932 114.944 22.2441C114.26 23.5951 113.918 25.0599 113.918 26.6387C113.918 27.8105 114.122 28.8441 114.529 29.7393C114.935 30.6182 115.473 31.3587 116.14 31.9609C116.823 32.5469 117.605 32.9945 118.484 33.3037C119.363 33.5967 120.282 33.7432 121.242 33.7432C122.382 33.7432 123.383 33.6292 124.245 33.4014C125.108 33.1735 125.832 32.9294 126.418 32.6689C127.004 32.3923 127.444 32.14 127.737 31.9121C128.046 31.668 128.217 31.5296 128.249 31.4971C128.363 31.4157 128.493 31.3262 128.64 31.2285C128.786 31.1146 128.941 31.0576 129.104 31.0576C129.348 31.0576 129.559 31.1471 129.739 31.3262C129.918 31.4889 130.007 31.7005 130.007 31.9609C130.007 32.2214 129.918 32.4329 129.739 32.5957C129.706 32.6283 129.494 32.8073 129.104 33.1328C128.729 33.4421 128.184 33.7757 127.468 34.1338C126.752 34.4919 125.873 34.8174 124.831 35.1104C123.806 35.4033 122.626 35.5498 121.291 35.5498C120.054 35.5498 118.874 35.3464 117.751 34.9395C116.644 34.5326 115.668 33.9466 114.822 33.1816C113.975 32.4167 113.3 31.4889 112.795 30.3984C112.307 29.2917 112.063 28.0384 112.063 26.6387C112.063 25.0924 112.38 23.6113 113.015 22.1953C113.65 20.763 114.545 19.4284 115.7 18.1914C116.856 16.9544 118.239 15.8395 119.851 14.8467C121.462 13.8376 123.236 12.9749 125.173 12.2588C127.126 11.5426 129.218 10.9893 131.447 10.5986C133.677 10.208 135.98 10.0127 138.357 10.0127C140.782 10.0127 143.003 10.2568 145.022 10.7451C147.056 11.2171 148.806 11.9089 150.271 12.8203C151.736 13.7155 152.875 14.8223 153.689 16.1406C154.503 17.4427 154.909 18.9238 154.909 20.584C154.909 22.7812 154.275 24.7751 153.005 26.5654C151.752 28.3558 149.905 29.8451 147.463 31.0332C148.358 31.7982 149.058 32.6934 149.563 33.7188C150.084 34.7279 150.466 35.7533 150.71 36.7949C150.971 37.8366 151.133 38.8294 151.198 39.7734C151.28 40.7174 151.337 41.5068 151.369 42.1416C151.402 43.0693 151.483 43.8262 151.614 44.4121C151.76 44.9818 151.955 45.4294 152.199 45.7549C152.46 46.0804 152.769 46.3083 153.127 46.4385C153.502 46.5524 153.949 46.6094 154.47 46.6094C155.202 46.6094 155.878 46.4385 156.496 46.0967C157.115 45.7386 157.668 45.2992 158.156 44.7783C158.661 44.2575 159.1 43.696 159.475 43.0938C159.865 42.4753 160.191 41.9056 160.451 41.3848C160.712 40.8477 160.907 40.4082 161.037 40.0664C161.184 39.7083 161.257 39.5212 161.257 39.5049C161.42 39.098 161.705 38.8945 162.112 38.8945C162.388 38.8945 162.608 38.9922 162.771 39.1875C162.95 39.3665 163.039 39.5781 163.039 39.8223C163.039 39.9036 163.023 40.0094 162.99 40.1396C162.974 40.2048 162.877 40.457 162.697 40.8965C162.535 41.3197 162.291 41.8405 161.965 42.459C161.64 43.0612 161.233 43.7122 160.744 44.4121C160.256 45.112 159.686 45.763 159.035 46.3652C158.401 46.9512 157.676 47.4395 156.863 47.8301C156.065 48.2207 155.178 48.416 154.201 48.416C153.339 48.416 152.614 48.2777 152.029 48.001C151.459 47.7243 150.987 47.3255 150.613 46.8047C150.254 46.2676 149.986 45.6247 149.807 44.876C149.644 44.111 149.546 43.2402 149.514 42.2637C149.498 41.8568 149.473 41.3766 149.441 40.8232C149.408 40.2536 149.343 39.6595 149.245 39.041C149.164 38.4062 149.042 37.7552 148.879 37.0879C148.716 36.4206 148.489 35.7695 148.196 35.1348C147.903 34.5 147.536 33.8978 147.097 33.3281C146.657 32.7585 146.12 32.262 145.486 31.8389C144.232 32.262 142.93 32.5957 141.579 32.8398C140.245 33.0677 138.861 33.1898 137.429 33.2061V33.9385C137.429 35.9404 137.225 37.8203 136.819 39.5781C136.428 41.3197 135.785 42.8415 134.89 44.1436C133.995 45.4294 132.839 46.4385 131.423 47.1709C130.007 47.9196 128.282 48.2939 126.247 48.2939C125.238 48.2939 124.237 48.1556 123.244 47.8789C122.268 47.6185 121.348 47.2523 120.486 46.7803C119.639 46.3083 118.874 45.7549 118.191 45.1201C117.523 44.4691 116.994 43.7692 116.604 43.0205C116.522 42.8903 116.482 42.7438 116.482 42.5811C116.482 42.3532 116.563 42.1497 116.726 41.9707C116.905 41.7754 117.133 41.6777 117.409 41.6777C117.767 41.6777 118.036 41.8324 118.215 42.1416C118.573 42.7764 119.037 43.3623 119.607 43.8994C120.176 44.4365 120.811 44.9004 121.511 45.291C122.227 45.6654 122.984 45.9583 123.781 46.1699C124.595 46.3815 125.417 46.4873 126.247 46.4873C127.924 46.4873 129.356 46.1943 130.544 45.6084C131.732 45.0062 132.701 44.1598 133.449 43.0693C134.198 41.9626 134.743 40.6442 135.085 39.1143C135.427 37.568 135.598 35.8428 135.598 33.9385V32.9863C135.061 32.8073 134.629 32.555 134.304 32.2295C133.978 31.904 133.816 31.5052 133.816 31.0332C133.816 30.5612 133.97 30.1462 134.28 29.7881C134.589 29.43 135.028 29.137 135.598 28.9092C135.598 28.5348 135.606 28.1686 135.622 27.8105C135.639 27.4362 135.663 27.07 135.696 26.7119C135.793 25.54 135.972 24.4902 136.233 23.5625C136.509 22.6348 136.827 21.821 137.185 21.1211C137.559 20.4212 137.942 19.8271 138.332 19.3389C138.723 18.8506 139.089 18.4518 139.431 18.1426C139.773 17.8171 140.058 17.5811 140.285 17.4346C140.513 17.2881 140.643 17.2067 140.676 17.1904C140.79 17.1253 140.928 17.0928 141.091 17.0928ZM143.386 30.7158C143.109 30.6344 142.841 30.5531 142.58 30.4717C142.32 30.3903 142.035 30.3252 141.726 30.2764C141.433 30.2113 141.099 30.1624 140.725 30.1299C140.367 30.0811 139.952 30.0566 139.48 30.0566C138.633 30.0566 137.942 30.1055 137.405 30.2031V30.2275V31.3994C138.397 31.3994 139.415 31.3424 140.456 31.2285C141.514 31.1146 142.491 30.9437 143.386 30.7158ZM164.114 44.3145C164.455 44.7865 164.895 45.1689 165.432 45.4619C165.969 45.7386 166.628 45.877 167.409 45.877C168.207 45.877 168.931 45.6898 169.582 45.3154C170.233 44.9248 170.827 44.4202 171.364 43.8018C171.902 43.1833 172.382 42.4915 172.805 41.7266C173.228 40.9616 173.611 40.1966 173.952 39.4316C174.034 39.2526 174.148 39.1224 174.294 39.041C174.441 38.9434 174.603 38.8945 174.782 38.8945C175.059 38.8945 175.279 38.9922 175.442 39.1875C175.621 39.3828 175.71 39.5944 175.71 39.8223C175.71 39.9036 175.702 39.9769 175.686 40.042C175.669 40.0908 175.645 40.1478 175.613 40.2129C174.489 42.6868 173.261 44.5505 171.926 45.8037C170.608 47.057 169.11 47.6999 167.434 47.7324C166.36 47.7324 165.432 47.5208 164.651 47.0977C163.869 46.6908 163.226 46.1618 162.722 45.5107C162.217 44.8434 161.843 44.0947 161.599 43.2646C161.355 42.4346 161.233 41.6045 161.233 40.7744C161.233 39.9443 161.33 39.1794 161.526 38.4795C161.737 37.7796 162.03 37.1693 162.405 36.6484C162.795 36.1276 163.251 35.7207 163.772 35.4277C164.309 35.1348 164.895 34.9883 165.53 34.9883C165.904 34.9883 166.27 35.0697 166.628 35.2324C167.003 35.3789 167.336 35.5986 167.629 35.8916C167.922 36.1683 168.158 36.5101 168.337 36.917C168.516 37.3239 168.606 37.7878 168.606 38.3086C168.606 38.9759 168.492 39.6025 168.264 40.1885C168.036 40.7744 167.719 41.3197 167.312 41.8242C166.921 42.3288 166.449 42.7926 165.896 43.2158C165.342 43.639 164.748 44.0052 164.114 44.3145ZM163.381 42.7275C163.886 42.516 164.341 42.2474 164.748 41.9219C165.171 41.5964 165.53 41.2383 165.822 40.8477C166.115 40.457 166.343 40.0501 166.506 39.627C166.669 39.1875 166.75 38.748 166.75 38.3086C166.75 37.8203 166.628 37.4541 166.384 37.21C166.14 36.9495 165.855 36.8193 165.53 36.8193C165.09 36.8193 164.716 36.9414 164.406 37.1855C164.097 37.4297 163.845 37.7471 163.65 38.1377C163.454 38.5283 163.308 38.9678 163.21 39.4561C163.129 39.9281 163.088 40.4001 163.088 40.8721C163.088 41.165 163.113 41.4743 163.161 41.7998C163.226 42.1253 163.3 42.4346 163.381 42.7275ZM192.849 40.1885C192.784 40.3187 192.645 40.5954 192.434 41.0186C192.239 41.4255 191.978 41.8975 191.653 42.4346C191.343 42.9717 190.977 43.5332 190.554 44.1191C190.131 44.7051 189.659 45.2422 189.138 45.7305C188.617 46.2188 188.056 46.6257 187.453 46.9512C186.851 47.2604 186.216 47.415 185.549 47.415C184.605 47.415 183.808 47.1139 183.156 46.5117C182.522 45.9095 182.058 45.1527 181.765 44.2412C181.211 45.1689 180.552 45.9095 179.787 46.4629C179.022 47 178.257 47.2686 177.492 47.2686C176.89 47.2686 176.345 47.1628 175.857 46.9512C175.368 46.7233 174.953 46.4141 174.612 46.0234C174.27 45.6165 174.001 45.1445 173.806 44.6074C173.627 44.0703 173.537 43.4844 173.537 42.8496C173.537 41.5801 173.749 40.4652 174.172 39.5049C174.612 38.5283 175.165 37.7145 175.832 37.0635C176.5 36.4124 177.232 35.9242 178.03 35.5986C178.843 35.2731 179.625 35.1104 180.373 35.1104C180.878 35.1104 181.342 35.1836 181.765 35.3301C182.188 35.4603 182.546 35.6068 182.839 35.7695C183.148 35.9323 183.384 36.0869 183.547 36.2334C183.71 36.3636 183.799 36.4368 183.816 36.4531C183.995 36.6647 184.084 36.8844 184.084 37.1123C184.084 37.3564 183.995 37.5762 183.816 37.7715C183.637 37.9505 183.425 38.04 183.181 38.04C182.92 38.04 182.701 37.9505 182.522 37.7715C182.489 37.7389 182.416 37.682 182.302 37.6006C182.188 37.5029 182.033 37.4053 181.838 37.3076C181.643 37.21 181.407 37.1286 181.13 37.0635C180.87 36.9821 180.569 36.9414 180.227 36.9414C179.722 36.9414 179.185 37.0553 178.615 37.2832C178.046 37.5111 177.525 37.8691 177.053 38.3574C176.581 38.8294 176.182 39.4316 175.857 40.1641C175.547 40.8802 175.393 41.7347 175.393 42.7275C175.393 43.0368 175.425 43.3542 175.49 43.6797C175.556 43.9889 175.669 44.2738 175.832 44.5342C175.995 44.7946 176.215 45.0062 176.491 45.1689C176.768 45.3317 177.11 45.4131 177.517 45.4131C177.81 45.4131 178.143 45.3154 178.518 45.1201C178.908 44.9248 179.275 44.6237 179.616 44.2168C179.975 43.8099 180.292 43.2972 180.569 42.6787C180.862 42.0602 181.065 41.3278 181.179 40.4814C181.211 40.2536 181.317 40.0664 181.496 39.9199C181.675 39.7572 181.887 39.6758 182.131 39.6758C182.359 39.6758 182.554 39.7653 182.717 39.9443C182.896 40.1234 182.994 40.3268 183.01 40.5547C183.026 40.8639 183.059 41.3034 183.108 41.873C183.156 42.4264 183.262 42.9798 183.425 43.5332C183.604 44.0866 183.864 44.5667 184.206 44.9736C184.548 45.3805 185.02 45.584 185.622 45.584C186.013 45.584 186.395 45.4782 186.77 45.2666C187.16 45.055 187.535 44.7783 187.893 44.4365C188.267 44.0785 188.617 43.6797 188.943 43.2402C189.284 42.7845 189.594 42.3288 189.87 41.873C190.147 41.4173 190.391 40.9779 190.603 40.5547C190.814 40.1315 190.993 39.7653 191.14 39.4561C191.221 39.277 191.335 39.1387 191.482 39.041C191.644 38.9434 191.815 38.8945 191.994 38.8945C192.271 38.8945 192.491 39.0003 192.654 39.2119C192.833 39.4072 192.922 39.6188 192.922 39.8467C192.922 39.9606 192.898 40.0745 192.849 40.1885ZM200.637 39.8955C201.434 43.6553 202.59 45.5352 204.104 45.5352C204.69 45.5352 205.251 45.3236 205.788 44.9004C206.325 44.4609 206.822 43.932 207.278 43.3135C207.75 42.6787 208.165 42.0114 208.523 41.3115C208.881 40.6117 209.174 40.0013 209.402 39.4805C209.564 39.0898 209.849 38.8945 210.256 38.8945C210.517 38.8945 210.736 38.9922 210.915 39.1875C211.094 39.3828 211.184 39.5944 211.184 39.8223C211.184 39.9525 211.159 40.0664 211.111 40.1641C210.997 40.4408 210.826 40.8151 210.598 41.2871C210.386 41.7428 210.118 42.2393 209.792 42.7764C209.483 43.2972 209.133 43.8343 208.742 44.3877C208.352 44.9411 207.92 45.4375 207.448 45.877C206.976 46.3164 206.472 46.6826 205.935 46.9756C205.414 47.2523 204.861 47.3906 204.275 47.3906C203.184 47.3906 202.248 47.0163 201.467 46.2676C200.686 45.5026 200.01 44.2493 199.441 42.5078C198.659 44.168 197.87 45.3724 197.072 46.1211C196.275 46.8698 195.412 47.2441 194.485 47.2441C193.996 47.2441 193.524 47.1628 193.069 47C192.613 46.8535 192.214 46.6012 191.872 46.2432C191.531 45.8851 191.254 45.4294 191.042 44.876C190.831 44.3063 190.725 43.6146 190.725 42.8008C190.725 41.6777 190.92 40.6442 191.311 39.7002C191.701 38.7562 192.206 37.9505 192.824 37.2832C193.443 36.5996 194.127 36.0706 194.875 35.6963C195.64 35.3219 196.397 35.1348 197.146 35.1348C197.39 35.1348 197.601 35.2243 197.781 35.4033C197.96 35.5661 198.049 35.7777 198.049 36.0381C198.049 36.266 197.976 36.4694 197.829 36.6484C197.683 36.8275 197.488 36.9333 197.243 36.9658C196.755 37.0309 196.234 37.1855 195.681 37.4297C195.128 37.6738 194.615 38.0319 194.143 38.5039C193.687 38.9596 193.305 39.5456 192.995 40.2617C192.702 40.9779 192.556 41.8324 192.556 42.8252C192.556 43.639 192.719 44.2738 193.044 44.7295C193.386 45.1852 193.874 45.4131 194.509 45.4131C194.769 45.4131 195.046 45.348 195.339 45.2178C195.632 45.0713 195.941 44.7946 196.267 44.3877C196.609 43.9808 196.975 43.403 197.365 42.6543C197.772 41.9056 198.22 40.9209 198.708 39.7002C198.432 38.2679 198.179 36.6159 197.951 34.7441C197.724 32.8724 197.61 30.7809 197.61 28.4697C197.61 27.4606 197.642 26.4108 197.707 25.3203C197.772 24.2135 197.878 23.1393 198.025 22.0977C198.171 21.0397 198.366 20.0387 198.611 19.0947C198.855 18.1507 199.148 17.3206 199.489 16.6045C199.848 15.8883 200.263 15.3268 200.735 14.9199C201.207 14.4967 201.744 14.2852 202.346 14.2852C202.883 14.2852 203.339 14.4316 203.713 14.7246C204.087 15.0176 204.389 15.4245 204.616 15.9453C204.861 16.4661 205.04 17.0928 205.154 17.8252C205.267 18.5576 205.324 19.3633 205.324 20.2422C205.324 22.1302 205.162 24.0182 204.836 25.9062C204.511 27.7943 204.104 29.6009 203.615 31.3262C203.143 33.0514 202.639 34.6465 202.102 36.1113C201.565 37.5762 201.076 38.8376 200.637 39.8955ZM203.493 20.2178C203.493 19.8109 203.477 19.3714 203.445 18.8994C203.428 18.4274 203.371 17.988 203.274 17.5811C203.192 17.1579 203.078 16.8079 202.932 16.5312C202.785 16.2546 202.59 16.1162 202.346 16.1162C201.939 16.1162 201.557 16.4743 201.198 17.1904C200.857 17.9066 200.556 18.8506 200.295 20.0225C200.035 21.1781 199.823 22.4964 199.66 23.9775C199.514 25.4424 199.441 26.9235 199.441 28.4209C199.441 29.8532 199.498 31.2855 199.612 32.7178C199.725 34.1501 199.856 35.4277 200.002 36.5508C200.474 35.2975 200.922 34.0117 201.345 32.6934C201.768 31.3587 202.134 29.9997 202.444 28.6162C202.769 27.2327 203.021 25.8411 203.2 24.4414C203.396 23.0254 203.493 21.6175 203.493 20.2178ZM213.406 27.835C213.406 28.4535 213.186 28.9824 212.746 29.4219C212.323 29.8451 211.802 30.0566 211.184 30.0566C210.565 30.0566 210.036 29.8451 209.597 29.4219C209.174 28.9824 208.962 28.4535 208.962 27.835C208.962 27.5257 209.019 27.2409 209.133 26.9805C209.247 26.7038 209.402 26.4678 209.597 26.2725C209.808 26.0609 210.044 25.8981 210.305 25.7842C210.582 25.6702 210.875 25.6133 211.184 25.6133C211.493 25.6133 211.778 25.6702 212.038 25.7842C212.315 25.8981 212.551 26.0609 212.746 26.2725C212.958 26.4678 213.121 26.7038 213.235 26.9805C213.349 27.2409 213.406 27.5257 213.406 27.835ZM209.45 42.1416C209.45 39.7979 209.597 37.4622 209.89 35.1348C209.922 34.9069 210.02 34.7116 210.183 34.5488C210.362 34.3698 210.59 34.2803 210.866 34.2803C211.111 34.2803 211.314 34.3779 211.477 34.5732C211.64 34.7523 211.721 34.9639 211.721 35.208C211.721 35.3057 211.697 35.5986 211.648 36.0869C211.615 36.5752 211.566 37.1611 211.501 37.8447C211.452 38.512 211.404 39.2282 211.355 39.9932C211.322 40.7419 211.306 41.4336 211.306 42.0684C211.306 42.931 211.387 43.6309 211.55 44.168C211.729 44.6888 211.949 45.0957 212.209 45.3887C212.486 45.6816 212.771 45.877 213.064 45.9746C213.373 46.0723 213.666 46.1211 213.943 46.1211C214.398 46.1211 214.87 45.9583 215.359 45.6328C215.847 45.3073 216.343 44.8516 216.848 44.2656C217.369 43.6797 217.89 42.9798 218.41 42.166C218.931 41.3359 219.444 40.4163 219.948 39.4072C220.03 39.2445 220.144 39.1224 220.29 39.041C220.437 38.9434 220.6 38.8945 220.779 38.8945C221.039 38.8945 221.251 38.9922 221.413 39.1875C221.592 39.3828 221.682 39.5944 221.682 39.8223C221.682 39.985 221.649 40.1234 221.584 40.2373C221.389 40.6117 221.145 41.0674 220.852 41.6045C220.559 42.1416 220.225 42.695 219.851 43.2646C219.476 43.8343 219.061 44.404 218.606 44.9736C218.166 45.527 217.694 46.0316 217.19 46.4873C216.685 46.9268 216.156 47.2848 215.603 47.5615C215.049 47.8382 214.488 47.9766 213.918 47.9766C213.186 47.9766 212.543 47.8219 211.989 47.5127C211.436 47.2035 210.964 46.7884 210.573 46.2676C210.199 45.7467 209.914 45.1364 209.719 44.4365C209.54 43.7204 209.45 42.9554 209.45 42.1416ZM212.038 27.835C212.038 27.6071 211.949 27.4118 211.77 27.249C211.607 27.07 211.412 26.9805 211.184 26.9805C210.956 26.9805 210.761 27.07 210.598 27.249C210.435 27.4118 210.354 27.6071 210.354 27.835C210.354 28.0628 210.435 28.2581 210.598 28.4209C210.761 28.5837 210.956 28.665 211.184 28.665C211.412 28.665 211.607 28.5837 211.77 28.4209C211.949 28.2581 212.038 28.0628 212.038 27.835ZM225.344 44.8027C225.604 44.2656 225.906 43.6797 226.247 43.0449C226.589 42.3939 226.955 41.7428 227.346 41.0918C227.737 40.4245 228.143 39.7653 228.567 39.1143C229.006 38.4632 229.462 37.8447 229.934 37.2588C230.406 36.6891 230.878 36.2822 231.35 36.0381C231.838 35.7777 232.294 35.6475 232.717 35.6475C233.563 35.6475 234.19 35.9567 234.597 36.5752C235.004 37.1937 235.207 37.9587 235.207 38.8701C235.207 39.0817 235.191 39.3421 235.158 39.6514C235.142 39.9443 235.118 40.2617 235.085 40.6035C235.069 40.9453 235.044 41.2952 235.012 41.6533C234.996 41.9951 234.988 42.3206 234.988 42.6299C234.988 43.0205 235.004 43.3949 235.036 43.7529C235.085 44.111 235.167 44.4284 235.281 44.7051C235.394 44.9655 235.557 45.1771 235.769 45.3398C235.98 45.4863 236.257 45.5596 236.599 45.5596C237.217 45.5596 237.82 45.3236 238.406 44.8516C238.991 44.3633 239.529 43.7936 240.017 43.1426C240.521 42.4753 240.953 41.7998 241.311 41.1162C241.685 40.4326 241.962 39.8792 242.141 39.4561C242.222 39.277 242.336 39.1387 242.483 39.041C242.645 38.9434 242.816 38.8945 242.995 38.8945C243.272 38.8945 243.492 39.0003 243.655 39.2119C243.834 39.4072 243.923 39.6188 243.923 39.8467C243.923 39.9606 243.899 40.0745 243.85 40.1885C243.785 40.3187 243.655 40.5872 243.459 40.9941C243.264 41.401 243.003 41.873 242.678 42.4102C242.369 42.931 242.003 43.4925 241.579 44.0947C241.156 44.6807 240.684 45.2178 240.163 45.7061C239.659 46.1943 239.105 46.6012 238.503 46.9268C237.917 47.2523 237.299 47.415 236.648 47.415C235.915 47.415 235.321 47.2767 234.865 47C234.41 46.707 234.052 46.3327 233.791 45.877C233.531 45.4049 233.352 44.8923 233.254 44.3389C233.173 43.7692 233.132 43.1995 233.132 42.6299C233.132 42.3857 233.14 42.109 233.156 41.7998C233.189 41.4906 233.222 41.165 233.254 40.8232C233.303 40.4814 233.336 40.1396 233.352 39.7979C233.384 39.4561 233.401 39.1305 233.401 38.8213C233.401 38.3005 233.319 37.9505 233.156 37.7715C232.994 37.5762 232.847 37.4785 232.717 37.4785C232.457 37.4785 232.156 37.6331 231.814 37.9424C231.488 38.2354 231.138 38.626 230.764 39.1143C230.406 39.6025 230.031 40.1559 229.641 40.7744C229.267 41.3766 228.908 41.9788 228.567 42.5811C228.241 43.1833 227.932 43.7611 227.639 44.3145C227.362 44.8516 227.142 45.2992 226.98 45.6572C226.654 46.3408 226.329 46.7965 226.003 47.0244C225.678 47.2686 225.344 47.3906 225.002 47.3906C224.53 47.3906 224.148 47.2523 223.855 46.9756C223.578 46.6826 223.44 46.2757 223.44 45.7549C223.44 45.641 223.456 45.4212 223.489 45.0957C223.521 44.7539 223.562 44.3551 223.611 43.8994C223.659 43.4274 223.708 42.9229 223.757 42.3857C223.806 41.8486 223.855 41.3197 223.904 40.7988C223.952 40.2617 223.993 39.7653 224.026 39.3096C224.058 38.8538 224.074 38.4714 224.074 38.1621C224.074 37.7552 224.058 37.3646 224.026 36.9902C223.993 36.6159 223.928 36.388 223.83 36.3066C223.684 36.3555 223.423 36.6647 223.049 37.2344C222.675 37.7878 222.195 38.7725 221.609 40.1885C221.527 40.3675 221.405 40.5059 221.242 40.6035C221.08 40.7012 220.909 40.75 220.73 40.75C220.453 40.75 220.233 40.6605 220.071 40.4814C219.908 40.2861 219.826 40.0664 219.826 39.8223C219.826 39.7083 219.851 39.5863 219.9 39.4561C220.632 37.7145 221.316 36.4368 221.95 35.623C222.601 34.793 223.244 34.3779 223.879 34.3779C224.253 34.3779 224.571 34.4756 224.831 34.6709C225.092 34.8499 225.295 35.0941 225.442 35.4033C225.604 35.7126 225.718 36.0544 225.783 36.4287C225.865 36.8031 225.906 37.1855 225.906 37.5762C225.906 37.8691 225.881 38.3249 225.832 38.9434C225.8 39.5618 225.751 40.2292 225.686 40.9453C225.621 41.6452 225.556 42.3451 225.49 43.0449C225.442 43.7448 225.393 44.3307 225.344 44.8027ZM251.028 49.3926C254.087 45.4049 256.211 42.0928 257.4 39.4561C257.481 39.277 257.587 39.1468 257.717 39.0654C257.864 38.9678 258.026 38.9189 258.205 38.9189C258.482 38.9189 258.71 39.0166 258.889 39.2119C259.068 39.391 259.157 39.6025 259.157 39.8467C259.157 39.9606 259.133 40.0745 259.084 40.1885C258.368 41.8161 257.351 43.6309 256.032 45.6328C254.714 47.6348 253.046 49.8971 251.028 52.4199C251.028 53.4453 251.036 54.4707 251.052 55.4961C251.068 56.5215 251.076 57.6445 251.076 58.8652C251.076 60.0859 251.044 61.2904 250.979 62.4785C250.93 63.6829 250.832 64.8223 250.686 65.8965C250.539 66.987 250.336 67.988 250.075 68.8994C249.831 69.8271 249.506 70.6247 249.099 71.292C248.708 71.9756 248.228 72.5046 247.658 72.8789C247.105 73.2695 246.446 73.4648 245.681 73.4648C244.59 73.4648 243.752 73.0498 243.166 72.2197C242.58 71.3896 242.287 70.2096 242.287 68.6797C242.287 67.8659 242.361 66.9788 242.507 66.0186C242.67 65.0745 242.898 64.098 243.191 63.0889C243.484 62.0798 243.834 61.0544 244.24 60.0127C244.664 58.9873 245.128 57.9863 245.632 57.0098C246.137 56.0332 246.682 55.0973 247.268 54.2021C247.87 53.307 248.505 52.4932 249.172 51.7607C249.188 50.6214 249.197 49.4902 249.197 48.3672C249.213 47.2441 249.237 46.2106 249.27 45.2666C248.781 45.8851 248.196 46.3734 247.512 46.7314C246.845 47.0895 246.177 47.2686 245.51 47.2686C244.94 47.2686 244.419 47.1628 243.947 46.9512C243.492 46.7233 243.101 46.4141 242.776 46.0234C242.45 45.6165 242.198 45.1445 242.019 44.6074C241.84 44.0703 241.75 43.4844 241.75 42.8496C241.75 41.5801 241.962 40.4652 242.385 39.5049C242.824 38.5283 243.378 37.7145 244.045 37.0635C244.712 36.4124 245.445 35.9242 246.242 35.5986C247.056 35.2731 247.837 35.1104 248.586 35.1104C249.091 35.1104 249.555 35.1755 249.978 35.3057C250.401 35.4359 250.759 35.5824 251.052 35.7451C251.361 35.9079 251.597 36.0625 251.76 36.209C251.923 36.3555 252.012 36.4368 252.029 36.4531C252.208 36.6484 252.297 36.8682 252.297 37.1123C252.297 37.3564 252.208 37.5762 252.029 37.7715C251.85 37.9505 251.638 38.04 251.394 38.04C251.166 38.04 250.946 37.9505 250.735 37.7715C250.669 37.7227 250.58 37.6576 250.466 37.5762C250.368 37.4785 250.23 37.3809 250.051 37.2832C249.888 37.1855 249.685 37.1042 249.441 37.0391C249.213 36.974 248.936 36.9414 248.611 36.9414C248.122 36.9414 247.585 37.0553 246.999 37.2832C246.413 37.4948 245.868 37.8366 245.364 38.3086C244.859 38.7806 244.436 39.391 244.094 40.1396C243.752 40.8721 243.581 41.7591 243.581 42.8008C243.581 43.582 243.752 44.2168 244.094 44.7051C244.436 45.1771 244.965 45.4131 245.681 45.4131C246.023 45.4131 246.381 45.3154 246.755 45.1201C247.146 44.9248 247.52 44.6237 247.878 44.2168C248.236 43.8099 248.545 43.2972 248.806 42.6787C249.083 42.0602 249.278 41.3278 249.392 40.4814C249.424 40.2536 249.53 40.0664 249.709 39.9199C249.888 39.7572 250.1 39.6758 250.344 39.6758C250.621 39.6758 250.832 39.7734 250.979 39.9688C251.142 40.1641 251.223 40.3838 251.223 40.6279C251.223 40.6442 251.215 40.8965 251.198 41.3848C251.182 41.8568 251.166 42.4915 251.15 43.2891C251.133 44.0866 251.109 45.0143 251.076 46.0723C251.06 47.1139 251.044 48.2207 251.028 49.3926ZM249.172 54.7393C248.407 55.7972 247.715 56.9447 247.097 58.1816C246.478 59.4349 245.949 60.6963 245.51 61.9658C245.071 63.2354 244.729 64.4642 244.485 65.6523C244.257 66.8568 244.143 67.931 244.143 68.875C244.143 69.4772 244.192 69.9574 244.289 70.3154C244.403 70.6735 244.533 70.9502 244.68 71.1455C244.843 71.3408 245.014 71.471 245.193 71.5361C245.388 71.6012 245.567 71.6338 245.73 71.6338C246.234 71.6338 246.674 71.4303 247.048 71.0234C247.422 70.6165 247.74 70.0713 248 69.3877C248.261 68.7204 248.472 67.9473 248.635 67.0684C248.798 66.1895 248.92 65.278 249.001 64.334C249.083 63.4062 249.14 62.4785 249.172 61.5508C249.205 60.623 249.221 59.7686 249.221 58.9873C249.221 58.2874 249.221 57.5876 249.221 56.8877C249.221 56.1878 249.205 55.4717 249.172 54.7393Z" fill="#9E7D77"/>
<defs>
<linearGradient id="paint0_linear_327_236" x1="196.473" y1="29.8006" x2="202.563" y2="204.453" gradientUnits="userSpaceOnUse">
<stop stop-color="#ECD9F3"/>
<stop offset="0.0001" stop-color="#F0DDEF"/>
<stop offset="1" stop-color="#FFB5A7" stop-opacity="0"/>
<stop offset="1" stop-color="#F1DFEE"/>
</linearGradient>
</defs>
</svg>
