<svg width="300" height="300" viewBox="0 0 300 300" fill="none" xmlns="http://www.w3.org/2000/svg">
<path d="M240 0H60C26.8629 0 0 26.8629 0 60V240C0 273.137 26.8629 300 60 300H240C273.137 300 300 273.137 300 240V60C300 26.8629 273.137 0 240 0Z" fill="white"/>
<path d="M110.438 233.302C110.666 233.302 110.878 233.391 111.073 233.57C111.285 233.733 111.391 233.953 111.391 234.229C111.391 234.571 111.236 234.832 110.927 235.011C110.91 235.027 110.683 235.182 110.243 235.475C109.82 235.768 109.315 236.223 108.729 236.842C109.95 236.988 111.195 237.062 112.465 237.062C113.702 237.062 114.825 236.98 115.834 236.817C116.859 236.638 117.771 236.402 118.568 236.109C119.382 235.8 120.082 235.442 120.668 235.035C121.27 234.628 121.766 234.181 122.157 233.692C122.255 233.578 122.369 233.489 122.499 233.424C122.629 233.342 122.767 233.302 122.914 233.302C123.174 233.302 123.386 233.399 123.549 233.595C123.728 233.79 123.817 234.002 123.817 234.229C123.817 234.457 123.76 234.636 123.646 234.767C123.256 235.287 122.735 235.8 122.084 236.305C121.433 236.793 120.643 237.232 119.716 237.623C118.788 238.014 117.722 238.331 116.517 238.575C115.313 238.803 113.97 238.917 112.489 238.917C111.643 238.917 110.796 238.884 109.95 238.819C109.104 238.738 108.257 238.632 107.411 238.502C107.037 239.039 106.687 239.641 106.361 240.309C106.052 240.976 105.8 241.708 105.604 242.506C105.263 243.873 105.067 245.322 105.018 246.852C104.986 248.382 104.953 249.944 104.921 251.539C104.905 253.118 104.831 254.697 104.701 256.275C104.571 257.838 104.262 259.352 103.773 260.816C103.399 261.923 102.894 262.949 102.26 263.893C101.641 264.837 100.876 265.659 99.9647 266.358C99.0696 267.042 98.036 267.579 96.8642 267.97C95.7086 268.377 94.4065 268.58 92.9579 268.58C90.5816 268.58 88.4332 268.108 86.5126 267.164C84.592 266.22 82.9237 264.731 81.5077 262.696C81.4589 262.615 81.3938 262.501 81.3124 262.354C81.231 262.208 81.1903 262.062 81.1903 261.915C81.1903 261.687 81.2717 261.467 81.4345 261.256C81.5972 261.044 81.8251 260.938 82.1181 260.938C82.2971 260.938 82.4599 260.987 82.6063 261.085C82.7528 261.166 82.8668 261.272 82.9481 261.402C84.1363 263.225 85.5279 264.576 87.1229 265.455C88.718 266.318 90.6548 266.749 92.9335 266.749C94.1379 266.749 95.2203 266.603 96.1806 266.31C97.1408 266 97.9872 265.569 98.7196 265.016C99.4683 264.446 100.111 263.754 100.648 262.94C101.185 262.127 101.633 261.199 101.991 260.157C102.382 259.018 102.626 257.708 102.724 256.227C102.837 254.729 102.911 253.175 102.943 251.563C102.976 249.936 103.033 248.308 103.114 246.681C103.212 245.053 103.44 243.515 103.798 242.066C103.977 241.301 104.213 240.593 104.506 239.942C104.799 239.291 105.108 238.689 105.433 238.136C103.252 237.696 101.08 237.143 98.9149 236.476C96.7665 235.792 94.6587 235.141 92.5917 234.522C90.5409 233.888 88.5552 233.342 86.6347 232.887C84.7304 232.431 82.9319 232.203 81.2392 232.203C79.6929 232.203 78.2606 232.423 76.9423 232.862C75.6402 233.302 74.509 233.92 73.5487 234.718C72.6047 235.515 71.8642 236.476 71.327 237.599C70.8062 238.722 70.5458 239.967 70.5458 241.334C70.5458 242.327 70.7167 243.238 71.0585 244.068C71.4166 244.898 71.9048 245.623 72.5233 246.241C73.1418 246.843 73.8742 247.315 74.7206 247.657C75.567 247.999 76.4947 248.17 77.5038 248.17C78.5617 248.17 79.5058 248.015 80.3358 247.706C81.1659 247.381 81.8983 246.982 82.5331 246.51C83.1679 246.038 83.705 245.525 84.1444 244.972C84.6002 244.418 84.9664 243.906 85.2431 243.434C85.536 242.945 85.7476 242.547 85.8778 242.237C86.0243 241.912 86.0975 241.749 86.0975 241.749C86.1627 241.57 86.2766 241.424 86.4393 241.31C86.6021 241.196 86.7811 241.139 86.9765 241.139C87.2531 241.139 87.4729 241.236 87.6356 241.432C87.8147 241.611 87.9042 241.822 87.9042 242.066C87.9042 242.115 87.8961 242.164 87.8798 242.213C87.8798 242.245 87.8716 242.286 87.8554 242.335C87.8391 242.368 87.7496 242.587 87.5868 242.994C87.424 243.385 87.1718 243.865 86.83 244.435C86.4882 244.988 86.0487 245.59 85.5116 246.241C84.9745 246.892 84.3235 247.503 83.5585 248.072C82.7935 248.626 81.9065 249.09 80.8974 249.464C79.9045 249.822 78.7652 250.001 77.4794 250.001C76.2424 250.001 75.0868 249.781 74.0126 249.342C72.9546 248.902 72.0269 248.3 71.2294 247.535C70.4481 246.77 69.8296 245.859 69.3739 244.801C68.9345 243.743 68.7147 242.587 68.7147 241.334C68.7147 239.674 69.0321 238.176 69.6669 236.842C70.3017 235.491 71.1806 234.335 72.3036 233.375C73.4267 232.415 74.7531 231.674 76.2831 231.153C77.813 230.632 79.4732 230.372 81.2636 230.372C82.5656 230.372 83.8759 230.486 85.1942 230.714C86.5126 230.942 87.8472 231.243 89.1981 231.617C90.5653 231.992 91.9488 232.407 93.3485 232.862C94.7483 233.318 96.1643 233.782 97.5966 234.254C99.0451 234.71 100.51 235.141 101.991 235.548C103.488 235.955 105.01 236.288 106.557 236.549C106.963 236.044 107.362 235.597 107.753 235.206C108.16 234.815 108.518 234.498 108.827 234.254C109.153 233.993 109.421 233.798 109.633 233.668C109.844 233.521 109.966 233.44 109.999 233.424C110.162 233.342 110.308 233.302 110.438 233.302ZM114.638 257.252C114.572 257.691 114.491 258.106 114.393 258.497C114.296 258.871 114.198 259.205 114.1 259.498C114.019 259.775 113.946 260.003 113.881 260.182C113.816 260.361 113.775 260.458 113.759 260.475C113.596 260.849 113.311 261.036 112.904 261.036C112.676 261.036 112.465 260.955 112.269 260.792C112.074 260.613 111.976 260.393 111.976 260.133C111.976 260.035 111.993 259.962 112.025 259.913C112.058 259.864 112.107 259.767 112.172 259.62C112.237 259.474 112.318 259.229 112.416 258.888C112.514 258.546 112.636 258.017 112.782 257.301C112.505 257.301 112.221 257.293 111.928 257.276C111.635 257.26 111.366 257.203 111.122 257.105C110.862 257.008 110.65 256.853 110.487 256.642C110.324 256.43 110.243 256.137 110.243 255.763C110.243 255.486 110.324 255.112 110.487 254.64C110.634 254.168 110.837 253.704 111.098 253.248C111.358 252.792 111.651 252.402 111.976 252.076C112.302 251.734 112.627 251.563 112.953 251.563C113.327 251.563 113.628 251.702 113.856 251.979C114.1 252.255 114.288 252.597 114.418 253.004C114.548 253.395 114.638 253.81 114.686 254.249C114.752 254.688 114.784 255.071 114.784 255.396C115.061 255.396 115.329 255.396 115.59 255.396C115.866 255.38 116.127 255.372 116.371 255.372C117.299 255.372 118.007 255.576 118.495 255.982C118.983 256.389 119.227 257.057 119.227 257.984C119.227 258.359 119.203 258.749 119.154 259.156C119.105 259.563 119.048 259.986 118.983 260.426C118.918 260.849 118.861 261.272 118.812 261.695C118.764 262.118 118.739 262.534 118.739 262.94C118.739 263.526 118.821 264.015 118.983 264.405C119.146 264.78 119.35 265.081 119.594 265.309C119.838 265.536 120.098 265.699 120.375 265.797C120.652 265.878 120.904 265.919 121.132 265.919C121.832 265.919 122.491 265.691 123.109 265.235C123.728 264.78 124.297 264.234 124.818 263.6C125.339 262.949 125.803 262.265 126.21 261.549C126.633 260.833 126.983 260.206 127.26 259.669C127.341 259.522 127.455 259.409 127.601 259.327C127.748 259.246 127.903 259.205 128.065 259.205C128.358 259.205 128.586 259.303 128.749 259.498C128.912 259.677 128.993 259.881 128.993 260.108C128.993 260.271 128.961 260.418 128.895 260.548C128.521 261.215 128.082 261.972 127.577 262.818C127.089 263.648 126.527 264.43 125.892 265.162C125.258 265.895 124.542 266.513 123.744 267.018C122.963 267.522 122.1 267.774 121.156 267.774C120.57 267.774 120.017 267.66 119.496 267.433C118.975 267.221 118.519 266.912 118.129 266.505C117.754 266.082 117.453 265.569 117.225 264.967C116.998 264.348 116.884 263.657 116.884 262.892C116.884 262.078 116.965 261.272 117.128 260.475C117.291 259.661 117.372 258.888 117.372 258.155C117.372 257.846 117.299 257.618 117.152 257.472C117.022 257.309 116.721 257.228 116.249 257.228C116.021 257.228 115.769 257.228 115.492 257.228C115.232 257.228 114.947 257.236 114.638 257.252ZM113.002 255.445C113.002 255.331 112.994 255.185 112.977 255.006C112.977 254.811 112.961 254.623 112.929 254.444C112.912 254.265 112.88 254.111 112.831 253.98C112.798 253.85 112.758 253.785 112.709 253.785C112.66 253.785 112.595 253.85 112.514 253.98C112.448 254.094 112.375 254.241 112.294 254.42C112.212 254.583 112.139 254.762 112.074 254.957C112.009 255.152 111.96 255.315 111.928 255.445H113.002ZM146.132 260.475C146.067 260.605 145.928 260.882 145.717 261.305C145.521 261.712 145.261 262.184 144.935 262.721C144.626 263.258 144.26 263.819 143.837 264.405C143.414 264.991 142.942 265.528 142.421 266.017C141.9 266.505 141.338 266.912 140.736 267.237C140.134 267.547 139.499 267.701 138.832 267.701C137.888 267.701 137.09 267.4 136.439 266.798C135.805 266.196 135.341 265.439 135.048 264.527C134.494 265.455 133.835 266.196 133.07 266.749C132.305 267.286 131.54 267.555 130.775 267.555C130.173 267.555 129.628 267.449 129.14 267.237C128.651 267.009 128.236 266.7 127.894 266.31C127.553 265.903 127.284 265.431 127.089 264.894C126.91 264.356 126.82 263.771 126.82 263.136C126.82 261.866 127.032 260.751 127.455 259.791C127.894 258.814 128.448 258.001 129.115 257.35C129.782 256.699 130.515 256.21 131.312 255.885C132.126 255.559 132.907 255.396 133.656 255.396C134.161 255.396 134.625 255.47 135.048 255.616C135.471 255.746 135.829 255.893 136.122 256.056C136.431 256.218 136.667 256.373 136.83 256.52C136.993 256.65 137.082 256.723 137.099 256.739C137.278 256.951 137.367 257.171 137.367 257.398C137.367 257.643 137.278 257.862 137.099 258.058C136.919 258.237 136.708 258.326 136.464 258.326C136.203 258.326 135.984 258.237 135.805 258.058C135.772 258.025 135.699 257.968 135.585 257.887C135.471 257.789 135.316 257.691 135.121 257.594C134.926 257.496 134.69 257.415 134.413 257.35C134.153 257.268 133.851 257.228 133.51 257.228C133.005 257.228 132.468 257.341 131.898 257.569C131.329 257.797 130.808 258.155 130.336 258.644C129.864 259.116 129.465 259.718 129.14 260.45C128.83 261.166 128.676 262.021 128.676 263.014C128.676 263.323 128.708 263.64 128.773 263.966C128.838 264.275 128.952 264.56 129.115 264.82C129.278 265.081 129.498 265.292 129.774 265.455C130.051 265.618 130.393 265.699 130.8 265.699C131.093 265.699 131.426 265.602 131.801 265.406C132.191 265.211 132.558 264.91 132.899 264.503C133.257 264.096 133.575 263.583 133.851 262.965C134.144 262.346 134.348 261.614 134.462 260.768C134.494 260.54 134.6 260.353 134.779 260.206C134.958 260.043 135.17 259.962 135.414 259.962C135.642 259.962 135.837 260.051 136 260.23C136.179 260.41 136.277 260.613 136.293 260.841C136.309 261.15 136.342 261.59 136.391 262.159C136.439 262.713 136.545 263.266 136.708 263.819C136.887 264.373 137.147 264.853 137.489 265.26C137.831 265.667 138.303 265.87 138.905 265.87C139.296 265.87 139.678 265.764 140.053 265.553C140.443 265.341 140.818 265.064 141.176 264.723C141.55 264.365 141.9 263.966 142.225 263.526C142.567 263.071 142.877 262.615 143.153 262.159C143.43 261.703 143.674 261.264 143.886 260.841C144.097 260.418 144.276 260.051 144.423 259.742C144.504 259.563 144.618 259.425 144.765 259.327C144.927 259.229 145.098 259.181 145.277 259.181C145.554 259.181 145.774 259.286 145.936 259.498C146.115 259.693 146.205 259.905 146.205 260.133C146.205 260.247 146.181 260.361 146.132 260.475ZM154.335 259.596C154.091 260.735 153.741 261.801 153.285 262.794C152.829 263.771 152.341 264.625 151.82 265.357C151.316 266.09 150.803 266.668 150.282 267.091C149.761 267.514 149.314 267.742 148.939 267.774C148.516 267.774 148.044 267.563 147.523 267.14C147.019 266.716 146.53 266.131 146.058 265.382C145.603 264.617 145.22 263.714 144.911 262.672C144.602 261.63 144.447 260.499 144.447 259.278C144.447 258.204 144.537 257.39 144.716 256.837C144.911 256.284 145.033 255.966 145.082 255.885C145.163 255.738 145.269 255.624 145.399 255.543C145.546 255.462 145.709 255.421 145.888 255.421C146.164 255.421 146.384 255.519 146.547 255.714C146.71 255.893 146.791 256.096 146.791 256.324C146.791 256.487 146.758 256.625 146.693 256.739C146.677 256.772 146.604 256.992 146.474 257.398C146.343 257.805 146.278 258.416 146.278 259.229C146.278 260.19 146.376 261.077 146.571 261.891C146.766 262.704 147.002 263.404 147.279 263.99C147.556 264.576 147.841 265.04 148.134 265.382C148.443 265.707 148.695 265.87 148.891 265.87C149.021 265.87 149.208 265.748 149.452 265.504C149.712 265.26 149.981 264.926 150.258 264.503C150.551 264.08 150.844 263.575 151.137 262.989C151.446 262.403 151.723 261.769 151.967 261.085C152.227 260.385 152.431 259.653 152.577 258.888C152.74 258.106 152.821 257.317 152.821 256.52C152.821 256.357 152.813 256.202 152.797 256.056C152.797 255.893 152.797 255.73 152.797 255.567C152.797 255.291 152.878 255.063 153.041 254.884C153.22 254.688 153.448 254.591 153.725 254.591C153.936 254.591 154.123 254.656 154.286 254.786C154.465 254.916 154.579 255.095 154.628 255.323C154.628 255.307 154.66 255.437 154.725 255.714C154.791 255.991 154.896 256.349 155.043 256.788C155.206 257.211 155.401 257.675 155.629 258.18C155.873 258.684 156.158 259.156 156.483 259.596C156.825 260.019 157.216 260.377 157.655 260.67C158.095 260.963 158.599 261.109 159.169 261.109C159.478 261.109 159.747 261.044 159.975 260.914C160.202 260.784 160.39 260.637 160.536 260.475C160.683 260.312 160.788 260.157 160.853 260.011C160.935 259.864 160.975 259.783 160.975 259.767C161.041 259.588 161.146 259.449 161.293 259.352C161.456 259.238 161.635 259.181 161.83 259.181C162.09 259.181 162.31 259.278 162.489 259.474C162.668 259.653 162.758 259.864 162.758 260.108C162.758 260.222 162.733 260.336 162.684 260.45C162.587 260.678 162.44 260.938 162.245 261.231C162.066 261.524 161.83 261.801 161.537 262.062C161.244 262.322 160.894 262.542 160.487 262.721C160.097 262.883 159.657 262.965 159.169 262.965C158.599 262.965 158.07 262.867 157.582 262.672C157.094 262.46 156.646 262.2 156.239 261.891C155.849 261.565 155.49 261.207 155.165 260.816C154.839 260.41 154.563 260.003 154.335 259.596ZM163.93 264.601C164.271 265.073 164.711 265.455 165.248 265.748C165.785 266.025 166.444 266.163 167.225 266.163C168.023 266.163 168.747 265.976 169.398 265.602C170.049 265.211 170.643 264.706 171.181 264.088C171.718 263.469 172.198 262.778 172.621 262.013C173.044 261.248 173.427 260.483 173.768 259.718C173.85 259.539 173.964 259.409 174.11 259.327C174.257 259.229 174.419 259.181 174.599 259.181C174.875 259.181 175.095 259.278 175.258 259.474C175.437 259.669 175.526 259.881 175.526 260.108C175.526 260.19 175.518 260.263 175.502 260.328C175.486 260.377 175.461 260.434 175.429 260.499C174.306 262.973 173.077 264.837 171.742 266.09C170.424 267.343 168.926 267.986 167.25 268.019C166.176 268.019 165.248 267.807 164.467 267.384C163.685 266.977 163.043 266.448 162.538 265.797C162.033 265.13 161.659 264.381 161.415 263.551C161.171 262.721 161.049 261.891 161.049 261.061C161.049 260.23 161.146 259.465 161.342 258.766C161.553 258.066 161.846 257.455 162.221 256.935C162.611 256.414 163.067 256.007 163.588 255.714C164.125 255.421 164.711 255.274 165.346 255.274C165.72 255.274 166.086 255.356 166.444 255.519C166.819 255.665 167.152 255.885 167.445 256.178C167.738 256.454 167.974 256.796 168.153 257.203C168.332 257.61 168.422 258.074 168.422 258.595C168.422 259.262 168.308 259.889 168.08 260.475C167.852 261.061 167.535 261.606 167.128 262.11C166.737 262.615 166.265 263.079 165.712 263.502C165.158 263.925 164.564 264.291 163.93 264.601ZM163.197 263.014C163.702 262.802 164.157 262.534 164.564 262.208C164.988 261.882 165.346 261.524 165.639 261.134C165.932 260.743 166.159 260.336 166.322 259.913C166.485 259.474 166.566 259.034 166.566 258.595C166.566 258.106 166.444 257.74 166.2 257.496C165.956 257.236 165.671 257.105 165.346 257.105C164.906 257.105 164.532 257.228 164.223 257.472C163.913 257.716 163.661 258.033 163.466 258.424C163.27 258.814 163.124 259.254 163.026 259.742C162.945 260.214 162.904 260.686 162.904 261.158C162.904 261.451 162.929 261.76 162.977 262.086C163.043 262.411 163.116 262.721 163.197 263.014ZM187.684 260.523C187.505 260.898 187.278 261.345 187.001 261.866C186.74 262.371 186.439 262.9 186.098 263.453C185.756 264.007 185.373 264.56 184.95 265.113C184.527 265.65 184.063 266.139 183.558 266.578C183.07 267.001 182.541 267.343 181.972 267.604C181.418 267.88 180.824 268.019 180.189 268.019C179.213 268.019 178.375 267.717 177.675 267.115C176.975 266.513 176.381 265.724 175.892 264.747C175.404 263.771 175.005 262.664 174.696 261.427C174.403 260.174 174.175 258.904 174.013 257.618C173.85 256.316 173.736 255.055 173.671 253.834C173.622 252.613 173.598 251.531 173.598 250.587C173.598 249.22 173.638 247.804 173.72 246.339C173.817 244.874 173.964 243.442 174.159 242.042C174.354 240.642 174.599 239.316 174.891 238.062C175.201 236.809 175.559 235.711 175.966 234.767C176.389 233.823 176.869 233.074 177.406 232.521C177.943 231.967 178.554 231.69 179.237 231.69C179.774 231.69 180.254 231.821 180.678 232.081C181.117 232.325 181.483 232.732 181.776 233.302C182.069 233.871 182.297 234.612 182.46 235.523C182.623 236.435 182.704 237.55 182.704 238.868C182.704 240.496 182.533 242.18 182.191 243.922C181.85 245.647 181.386 247.389 180.8 249.146C180.214 250.904 179.522 252.662 178.725 254.42C177.927 256.161 177.072 257.862 176.161 259.522C176.568 261.59 177.113 263.217 177.797 264.405C178.48 265.577 179.302 266.163 180.263 266.163C180.914 266.163 181.54 265.911 182.142 265.406C182.745 264.885 183.298 264.275 183.803 263.575C184.307 262.875 184.747 262.167 185.121 261.451C185.512 260.719 185.813 260.133 186.024 259.693C186.106 259.531 186.22 259.409 186.366 259.327C186.513 259.229 186.675 259.181 186.854 259.181C187.131 259.181 187.351 259.278 187.514 259.474C187.693 259.669 187.782 259.889 187.782 260.133C187.782 260.23 187.75 260.361 187.684 260.523ZM175.453 250.709C175.453 251.751 175.477 252.752 175.526 253.712C175.575 254.672 175.64 255.592 175.722 256.471C176.405 255.152 177.056 253.753 177.675 252.271C178.293 250.774 178.838 249.269 179.31 247.755C179.782 246.225 180.157 244.711 180.433 243.214C180.726 241.7 180.873 240.26 180.873 238.893C180.873 236.972 180.718 235.597 180.409 234.767C180.1 233.937 179.685 233.521 179.164 233.521C178.822 233.521 178.488 233.757 178.163 234.229C177.854 234.701 177.561 235.344 177.284 236.158C177.007 236.972 176.755 237.932 176.527 239.039C176.299 240.146 176.104 241.334 175.941 242.604C175.795 243.873 175.673 245.2 175.575 246.583C175.494 247.966 175.453 249.342 175.453 250.709ZM190.028 248.121C190.028 248.74 189.808 249.269 189.369 249.708C188.946 250.131 188.425 250.343 187.807 250.343C187.188 250.343 186.659 250.131 186.22 249.708C185.796 249.269 185.585 248.74 185.585 248.121C185.585 247.812 185.642 247.527 185.756 247.267C185.87 246.99 186.024 246.754 186.22 246.559C186.431 246.347 186.667 246.184 186.928 246.07C187.204 245.956 187.497 245.899 187.807 245.899C188.116 245.899 188.401 245.956 188.661 246.07C188.938 246.184 189.174 246.347 189.369 246.559C189.581 246.754 189.743 246.99 189.857 247.267C189.971 247.527 190.028 247.812 190.028 248.121ZM186.073 262.428C186.073 260.084 186.22 257.748 186.513 255.421C186.545 255.193 186.643 254.998 186.806 254.835C186.985 254.656 187.212 254.566 187.489 254.566C187.733 254.566 187.937 254.664 188.1 254.859C188.262 255.038 188.344 255.25 188.344 255.494C188.344 255.592 188.319 255.885 188.27 256.373C188.238 256.861 188.189 257.447 188.124 258.131C188.075 258.798 188.026 259.514 187.977 260.279C187.945 261.028 187.929 261.72 187.929 262.354C187.929 263.217 188.01 263.917 188.173 264.454C188.352 264.975 188.572 265.382 188.832 265.675C189.109 265.968 189.393 266.163 189.686 266.261C189.996 266.358 190.289 266.407 190.565 266.407C191.021 266.407 191.493 266.244 191.981 265.919C192.47 265.593 192.966 265.138 193.471 264.552C193.991 263.966 194.512 263.266 195.033 262.452C195.554 261.622 196.067 260.702 196.571 259.693C196.653 259.531 196.766 259.409 196.913 259.327C197.059 259.229 197.222 259.181 197.401 259.181C197.662 259.181 197.873 259.278 198.036 259.474C198.215 259.669 198.305 259.881 198.305 260.108C198.305 260.271 198.272 260.41 198.207 260.523C198.012 260.898 197.767 261.354 197.475 261.891C197.182 262.428 196.848 262.981 196.474 263.551C196.099 264.12 195.684 264.69 195.228 265.26C194.789 265.813 194.317 266.318 193.812 266.773C193.308 267.213 192.779 267.571 192.225 267.848C191.672 268.124 191.111 268.263 190.541 268.263C189.808 268.263 189.166 268.108 188.612 267.799C188.059 267.49 187.587 267.075 187.196 266.554C186.822 266.033 186.537 265.423 186.342 264.723C186.163 264.007 186.073 263.242 186.073 262.428ZM188.661 248.121C188.661 247.893 188.572 247.698 188.392 247.535C188.23 247.356 188.034 247.267 187.807 247.267C187.579 247.267 187.383 247.356 187.221 247.535C187.058 247.698 186.976 247.893 186.976 248.121C186.976 248.349 187.058 248.544 187.221 248.707C187.383 248.87 187.579 248.951 187.807 248.951C188.034 248.951 188.23 248.87 188.392 248.707C188.572 248.544 188.661 248.349 188.661 248.121ZM201.967 265.089C202.227 264.552 202.528 263.966 202.87 263.331C203.212 262.68 203.578 262.029 203.969 261.378C204.359 260.711 204.766 260.051 205.189 259.4C205.629 258.749 206.085 258.131 206.557 257.545C207.029 256.975 207.501 256.568 207.973 256.324C208.461 256.064 208.917 255.934 209.34 255.934C210.186 255.934 210.813 256.243 211.22 256.861C211.627 257.48 211.83 258.245 211.83 259.156C211.83 259.368 211.814 259.628 211.781 259.938C211.765 260.23 211.74 260.548 211.708 260.89C211.692 261.231 211.667 261.581 211.635 261.939C211.618 262.281 211.61 262.607 211.61 262.916C211.61 263.307 211.627 263.681 211.659 264.039C211.708 264.397 211.789 264.715 211.903 264.991C212.017 265.252 212.18 265.463 212.391 265.626C212.603 265.772 212.88 265.846 213.222 265.846C213.84 265.846 214.442 265.61 215.028 265.138C215.614 264.649 216.151 264.08 216.64 263.429C217.144 262.761 217.575 262.086 217.933 261.402C218.308 260.719 218.585 260.165 218.764 259.742C218.845 259.563 218.959 259.425 219.105 259.327C219.268 259.229 219.439 259.181 219.618 259.181C219.895 259.181 220.114 259.286 220.277 259.498C220.456 259.693 220.546 259.905 220.546 260.133C220.546 260.247 220.521 260.361 220.473 260.475C220.407 260.605 220.277 260.873 220.082 261.28C219.887 261.687 219.626 262.159 219.301 262.696C218.991 263.217 218.625 263.779 218.202 264.381C217.779 264.967 217.307 265.504 216.786 265.992C216.281 266.48 215.728 266.887 215.126 267.213C214.54 267.538 213.921 267.701 213.27 267.701C212.538 267.701 211.944 267.563 211.488 267.286C211.032 266.993 210.674 266.619 210.414 266.163C210.154 265.691 209.975 265.178 209.877 264.625C209.795 264.055 209.755 263.486 209.755 262.916C209.755 262.672 209.763 262.395 209.779 262.086C209.812 261.777 209.844 261.451 209.877 261.109C209.926 260.768 209.958 260.426 209.975 260.084C210.007 259.742 210.023 259.417 210.023 259.107C210.023 258.587 209.942 258.237 209.779 258.058C209.616 257.862 209.47 257.765 209.34 257.765C209.079 257.765 208.778 257.919 208.436 258.229C208.111 258.521 207.761 258.912 207.387 259.4C207.029 259.889 206.654 260.442 206.264 261.061C205.889 261.663 205.531 262.265 205.189 262.867C204.864 263.469 204.555 264.047 204.262 264.601C203.985 265.138 203.765 265.585 203.602 265.943C203.277 266.627 202.951 267.083 202.626 267.311C202.3 267.555 201.967 267.677 201.625 267.677C201.153 267.677 200.77 267.538 200.477 267.262C200.201 266.969 200.062 266.562 200.062 266.041C200.062 265.927 200.079 265.707 200.111 265.382C200.144 265.04 200.184 264.641 200.233 264.186C200.282 263.714 200.331 263.209 200.38 262.672C200.429 262.135 200.477 261.606 200.526 261.085C200.575 260.548 200.616 260.051 200.648 259.596C200.681 259.14 200.697 258.757 200.697 258.448C200.697 258.041 200.681 257.651 200.648 257.276C200.616 256.902 200.551 256.674 200.453 256.593C200.307 256.642 200.046 256.951 199.672 257.521C199.297 258.074 198.817 259.059 198.231 260.475C198.15 260.654 198.028 260.792 197.865 260.89C197.702 260.987 197.531 261.036 197.352 261.036C197.076 261.036 196.856 260.947 196.693 260.768C196.53 260.572 196.449 260.353 196.449 260.108C196.449 259.994 196.474 259.872 196.522 259.742C197.255 258.001 197.938 256.723 198.573 255.909C199.224 255.079 199.867 254.664 200.502 254.664C200.876 254.664 201.194 254.762 201.454 254.957C201.714 255.136 201.918 255.38 202.064 255.689C202.227 255.999 202.341 256.34 202.406 256.715C202.488 257.089 202.528 257.472 202.528 257.862C202.528 258.155 202.504 258.611 202.455 259.229C202.422 259.848 202.374 260.515 202.308 261.231C202.243 261.931 202.178 262.631 202.113 263.331C202.064 264.031 202.016 264.617 201.967 265.089ZM227.65 269.679C230.71 265.691 232.834 262.379 234.022 259.742C234.104 259.563 234.21 259.433 234.34 259.352C234.486 259.254 234.649 259.205 234.828 259.205C235.105 259.205 235.333 259.303 235.512 259.498C235.691 259.677 235.78 259.889 235.78 260.133C235.78 260.247 235.756 260.361 235.707 260.475C234.991 262.102 233.974 263.917 232.655 265.919C231.337 267.921 229.669 270.183 227.65 272.706C227.65 273.731 227.658 274.757 227.675 275.782C227.691 276.808 227.699 277.931 227.699 279.151C227.699 280.372 227.667 281.576 227.601 282.765C227.553 283.969 227.455 285.108 227.308 286.183C227.162 287.273 226.959 288.274 226.698 289.186C226.454 290.113 226.128 290.911 225.722 291.578C225.331 292.262 224.851 292.791 224.281 293.165C223.728 293.556 223.069 293.751 222.304 293.751C221.213 293.751 220.375 293.336 219.789 292.506C219.203 291.676 218.91 290.496 218.91 288.966C218.91 288.152 218.983 287.265 219.13 286.305C219.293 285.361 219.52 284.384 219.813 283.375C220.106 282.366 220.456 281.34 220.863 280.299C221.286 279.273 221.75 278.272 222.255 277.296C222.759 276.319 223.305 275.383 223.891 274.488C224.493 273.593 225.127 272.779 225.795 272.047C225.811 270.908 225.819 269.776 225.819 268.653C225.836 267.53 225.86 266.497 225.892 265.553C225.404 266.171 224.818 266.66 224.135 267.018C223.467 267.376 222.8 267.555 222.133 267.555C221.563 267.555 221.042 267.449 220.57 267.237C220.114 267.009 219.724 266.7 219.398 266.31C219.073 265.903 218.821 265.431 218.641 264.894C218.462 264.356 218.373 263.771 218.373 263.136C218.373 261.866 218.585 260.751 219.008 259.791C219.447 258.814 220.001 258.001 220.668 257.35C221.335 256.699 222.068 256.21 222.865 255.885C223.679 255.559 224.46 255.396 225.209 255.396C225.713 255.396 226.177 255.462 226.6 255.592C227.024 255.722 227.382 255.868 227.675 256.031C227.984 256.194 228.22 256.349 228.383 256.495C228.545 256.642 228.635 256.723 228.651 256.739C228.83 256.935 228.92 257.154 228.92 257.398C228.92 257.643 228.83 257.862 228.651 258.058C228.472 258.237 228.261 258.326 228.016 258.326C227.789 258.326 227.569 258.237 227.357 258.058C227.292 258.009 227.203 257.944 227.089 257.862C226.991 257.765 226.853 257.667 226.674 257.569C226.511 257.472 226.308 257.39 226.063 257.325C225.836 257.26 225.559 257.228 225.233 257.228C224.745 257.228 224.208 257.341 223.622 257.569C223.036 257.781 222.491 258.123 221.986 258.595C221.482 259.067 221.058 259.677 220.717 260.426C220.375 261.158 220.204 262.045 220.204 263.087C220.204 263.868 220.375 264.503 220.717 264.991C221.058 265.463 221.587 265.699 222.304 265.699C222.645 265.699 223.003 265.602 223.378 265.406C223.768 265.211 224.143 264.91 224.501 264.503C224.859 264.096 225.168 263.583 225.429 262.965C225.705 262.346 225.901 261.614 226.015 260.768C226.047 260.54 226.153 260.353 226.332 260.206C226.511 260.043 226.723 259.962 226.967 259.962C227.243 259.962 227.455 260.06 227.601 260.255C227.764 260.45 227.846 260.67 227.846 260.914C227.846 260.93 227.837 261.183 227.821 261.671C227.805 262.143 227.789 262.778 227.772 263.575C227.756 264.373 227.732 265.3 227.699 266.358C227.683 267.4 227.667 268.507 227.65 269.679ZM225.795 275.025C225.03 276.083 224.338 277.231 223.72 278.468C223.101 279.721 222.572 280.982 222.133 282.252C221.693 283.521 221.351 284.75 221.107 285.938C220.879 287.143 220.766 288.217 220.766 289.161C220.766 289.763 220.814 290.243 220.912 290.602C221.026 290.96 221.156 291.236 221.303 291.432C221.465 291.627 221.636 291.757 221.815 291.822C222.011 291.887 222.19 291.92 222.352 291.92C222.857 291.92 223.296 291.716 223.671 291.31C224.045 290.903 224.363 290.357 224.623 289.674C224.883 289.007 225.095 288.233 225.258 287.354C225.42 286.476 225.543 285.564 225.624 284.62C225.705 283.692 225.762 282.765 225.795 281.837C225.827 280.909 225.844 280.055 225.844 279.273C225.844 278.574 225.844 277.874 225.844 277.174C225.844 276.474 225.827 275.758 225.795 275.025Z" fill="#9E7D77"/>
<path d="M80.5312 126.98C79.1209 127.154 78.2671 126.131 77.2283 125.545C77.0763 125.46 76.9571 125.068 77.0148 124.879C77.3563 123.761 77.6948 122.633 78.1562 121.564C78.4327 120.923 79.0056 120.835 79.6056 121.267C79.9983 121.551 80.4191 121.792 80.8229 122.059C82.1238 122.921 82.2779 123.438 81.6203 124.858C81.2985 125.553 80.9382 126.23 80.5312 126.98ZM78.7959 122.977C78.5786 123.63 78.3609 124.283 78.1436 124.936C78.7783 125.082 79.6203 125.547 79.9947 125.293C80.4559 124.98 80.8347 123.979 80.6844 123.44C80.523 122.861 79.7939 122.175 78.7959 122.977Z" fill="#FFB61D"/>
<path d="M219.825 74.9805C218.697 75.1539 218.014 74.1313 217.183 73.5453C217.061 73.4596 216.966 73.0679 217.012 72.8788C217.285 71.7605 217.556 70.6331 217.925 69.564C218.146 68.9228 218.605 68.8346 219.085 69.2674C219.399 69.5506 219.735 69.7923 220.058 70.0594C221.099 70.9205 221.222 71.4382 220.696 72.8582C220.439 73.5533 220.151 74.2299 219.825 74.9805ZM218.437 70.9774C218.263 71.6302 218.089 72.2834 217.915 72.9362C218.423 73.0822 219.096 73.5471 219.396 73.2933C219.765 72.9802 220.068 71.9794 219.948 71.4399C219.818 70.8605 219.235 70.1754 218.437 70.9774Z" fill="#FFB61D"/>
<g filter="url(#filter0_d_603_407)">
<path d="M129.315 208.255C103.811 207.225 72.9769 158.371 101.285 141.398C129.593 124.425 121.228 75.3866 121.228 75.3866C124.724 55.358 127.132 35.6922 151.81 25.6914C165.321 20.2156 184.892 28.748 196.858 24.1778C224.412 13.6536 231.959 9.85177 243.093 25.4835C275.404 70.8424 224.528 106.668 235.791 143.739C241.859 163.712 249.378 183.579 241.325 198.444C233.272 213.308 229.819 205.517 207.404 210.814C196.217 213.458 183.888 219.243 170.669 219.938C157.45 220.634 161.167 215.308 149.428 210.745C142.079 207.888 135.296 213.846 129.315 208.255Z" fill="url(#paint0_linear_603_407)"/>
</g>
<path fill-rule="evenodd" clip-rule="evenodd" d="M137.626 186.973C135.816 186.025 134.338 184.039 134.108 181.952C133.887 179.947 135.244 177.736 136.25 176.106C136.494 175.711 136.76 175.339 137.025 174.967C137.436 174.39 137.846 173.816 138.169 173.164C138.233 173.037 138.298 172.904 138.364 172.768C138.768 171.942 139.231 170.997 139.767 170.321C140.43 169.487 141 168.62 141.581 167.737L141.583 167.735L141.586 167.73C141.685 167.58 141.784 167.43 141.883 167.279C142.15 166.876 142.448 166.486 142.747 166.097C143.202 165.502 143.657 164.906 144.005 164.258C144.503 163.33 145.274 162.386 145.951 161.586C146.413 161.039 146.798 160.445 147.185 159.85C147.52 159.332 147.856 158.814 148.243 158.327C148.663 157.798 148.999 157.211 149.335 156.624C149.582 156.192 149.829 155.76 150.11 155.351C150.657 154.556 151.247 153.416 151.459 152.475C151.552 152.066 151.687 151.686 151.822 151.309C152.02 150.754 152.216 150.207 152.265 149.585C152.357 148.429 152.266 147.635 151.852 146.564C151.791 146.405 151.74 146.238 151.689 146.069C151.604 145.791 151.518 145.509 151.383 145.257C151.311 144.947 151.103 145.129 150.801 145.394C150.17 145.946 149.129 146.858 148.053 144.418C147.81 143.928 147.673 143.347 147.545 142.796C147.514 142.662 147.483 142.529 147.45 142.4C147.114 141.045 147.113 139.439 147.432 138.083C147.541 137.62 147.618 137.139 147.695 136.66C147.735 136.414 147.775 136.168 147.819 135.926C147.933 135.292 148.116 133.941 148.052 133.297C147.771 131.667 146.771 129.347 145.718 126.903C144.603 124.318 143.429 121.593 142.98 119.395C142.594 117.916 141.995 116.696 141.315 115.326C139.576 114.617 137.813 114.019 136.036 113.422C133.77 112.661 132.166 111.447 130.757 109.477C129.649 107.925 128.858 105.913 128.44 104.065C128.298 103.434 128.244 102.8 128.19 102.165C128.153 101.729 128.116 101.293 128.049 100.856C127.943 100.155 128.161 99.2961 128.361 98.507C128.441 98.1896 128.518 97.8836 128.571 97.6032C128.926 95.7091 129.977 93.997 130.988 92.3502C131.218 91.976 131.446 91.6052 131.663 91.2362C132.545 89.7367 133.819 88.3758 135.052 87.0602C135.455 86.6302 135.853 86.2049 136.232 85.781C136.445 85.5421 136.624 85.2766 136.803 85.0105C136.972 84.7597 137.141 84.5085 137.34 84.2786C137.669 83.8976 138.015 83.5657 138.365 83.2296C138.541 83.0601 138.719 82.8892 138.896 82.7106C139.324 82.28 139.708 81.8095 140.091 81.3389C140.501 80.8366 140.91 80.3343 141.373 79.8809C142.394 78.8795 147.183 72.0354 148.004 69.6602C148.384 68.8098 148.794 67.9685 149.204 67.1275C149.698 66.114 150.191 65.1009 150.632 64.0729C150.803 63.6732 151.047 63.3094 151.291 62.9457C151.573 62.5241 151.856 62.1023 152.026 61.6245C152.245 61.0098 152.572 60.4494 152.9 59.889C153.097 59.5512 153.294 59.2134 153.468 58.8639C154.521 56.7416 155.92 54.7731 157.394 52.9166C158.826 51.1141 161.206 49.8249 163.394 49.2739C164.038 49.1116 164.296 49.1169 164.84 49.1281C165.005 49.1314 165.195 49.1353 165.43 49.1353C166.722 48.8538 167.4 49.0693 168.001 49.2601C168.208 49.3258 168.405 49.3886 168.616 49.4271C169.436 49.5773 170.39 50.0939 171.078 50.5939C172.487 51.6193 175.067 55.0179 174.698 59.0538C174.435 61.9351 172.135 69.0703 171.512 70.5768C171.343 70.9855 171.252 71.6422 171.171 72.2317C171.129 72.5401 171.089 72.8297 171.041 73.0564C170.943 73.5238 170.84 74.1851 170.788 74.6609C170.67 75.7257 170.793 76.3876 171.041 77.4407C171.088 77.6391 171.136 77.8374 171.185 78.0355L171.185 78.0367C171.261 78.3474 171.338 78.6577 171.406 78.9693C171.484 79.3205 171.687 79.7036 171.874 80.0571V80.0574C171.934 80.1697 171.992 80.2791 172.043 80.3836C172.062 80.4209 172.081 80.4591 172.1 80.4979C172.113 80.5253 172.127 80.5531 172.14 80.5811L172.174 80.6493C172.59 81.5023 173.115 82.5767 173.906 83.0318C174.243 83.117 174.499 83.2077 174.758 83.2996C175.001 83.3862 175.247 83.4735 175.567 83.5584L175.716 83.5977C176.293 83.7494 176.854 83.8976 177.383 84.1689C179.007 85.0024 180.198 86.3393 181.181 87.8612C181.357 88.1337 181.505 88.4642 181.625 88.767C181.785 89.1699 181.948 89.3957 182.248 89.709C182.288 89.7504 182.329 89.7921 182.37 89.8344C182.62 90.0874 182.891 90.3622 182.976 90.7111C183.041 90.9806 183.154 91.1784 183.279 91.3984L183.279 91.3989L183.279 91.3998C183.309 91.4526 183.34 91.5069 183.371 91.5635C183.449 91.7058 183.486 91.8464 183.523 91.9856C183.572 92.1688 183.621 92.3499 183.76 92.5291C183.969 92.7983 184.029 93.074 184.098 93.3914C184.104 93.4176 184.11 93.4442 184.115 93.471C184.183 93.7744 184.283 94.0749 184.384 94.3762C184.477 94.6502 184.569 94.9247 184.636 95.203C184.717 95.5376 184.869 95.8418 185.021 96.1452C185.179 96.4609 185.337 96.7756 185.414 97.1234C185.445 97.2631 185.794 98.0785 186.039 97.764C186.171 97.5945 186.229 97.3156 186.281 97.0577C186.308 96.9259 186.334 96.7993 186.368 96.6957C186.407 96.5781 186.465 96.4658 186.522 96.3538C186.612 96.1779 186.701 96.0029 186.717 95.8106C186.815 95.4005 186.96 95.0915 187.101 94.7911C187.169 94.6464 187.236 94.5034 187.297 94.352C187.45 93.9672 187.557 93.7254 187.72 93.3552L187.731 93.331C187.914 92.9176 188.129 92.4943 188.34 92.0792C188.428 91.9054 188.516 91.733 188.6 91.5635C188.674 91.4156 188.75 91.2601 188.827 91.1014L188.828 91.1008C189.037 90.674 189.257 90.2239 189.469 89.8304C189.637 89.5179 189.815 89.2294 189.994 88.9386C190.109 88.753 190.224 88.5663 190.338 88.3717C190.456 88.1699 190.516 87.8992 190.572 87.6489C190.589 87.5721 190.606 87.4972 190.624 87.4266C190.718 87.2854 190.759 87.1652 190.798 87.0517C190.82 86.9872 190.841 86.9248 190.871 86.8621C191.079 86.428 191.262 85.9969 191.444 85.5517C191.791 84.7037 192.208 83.9125 192.634 83.1033C192.683 83.012 192.731 82.9207 192.779 82.8291C192.826 82.7389 192.875 82.6529 192.924 82.5683C193.065 82.3223 193.2 82.0866 193.266 81.7908C193.291 81.6797 193.307 81.5685 193.321 81.4594C193.356 81.2053 193.389 80.9612 193.542 80.752C193.048 80.8316 192.32 80.799 191.819 80.7485C191.419 80.7082 189.132 80.4419 188.745 80.3494C188.675 80.3328 188.612 80.3264 188.557 80.3206C188.486 80.3133 188.426 80.3071 188.378 80.2809C188.145 80.1549 188.16 79.5665 188.245 76.1682C188.278 74.8674 188.321 73.1547 188.364 70.8989C188.633 70.5718 189.034 70.4855 189.423 70.4015C189.52 70.3805 189.617 70.3595 189.712 70.335C190.244 70.1961 190.408 70.2261 190.654 70.2708C190.812 70.2999 191.005 70.335 191.351 70.335C191.6 70.335 191.86 70.3595 192.118 70.3837C192.349 70.4053 192.579 70.4268 192.8 70.4309C193.246 70.4394 194.496 71.1106 194.682 71.452L200.85 72.0354C201.667 72.1999 203.661 74.0774 202.78 77.1029C202.625 77.49 202.384 77.8158 202.126 78.1399C201.967 78.3406 201.776 78.5055 201.585 78.6706C201.447 78.7905 201.308 78.9107 201.18 79.0446C200.976 79.2599 200.808 79.5017 200.639 79.7438C200.546 79.878 200.452 80.0125 200.353 80.1426C199.751 81.2246 197.261 84.4303 196.854 84.8711C196.699 85.1932 196.124 86.1742 195.612 87.0488V87.0491L195.611 87.0494C195.166 87.809 194.768 88.4881 194.734 88.5844C194.6 88.9543 194.371 89.3117 194.151 89.655C194.077 89.7708 194.004 89.8849 193.936 89.9972C193.907 90.0445 193.877 90.0929 193.845 90.1422L193.845 90.1425C193.681 90.4018 193.501 90.6871 193.488 90.9894C193.477 91.2271 193.415 91.48 193.346 91.7067C193.246 92.0378 193.1 92.3529 192.953 92.6682C192.787 93.0244 192.621 93.3812 192.521 93.7625C192.447 94.0437 192.323 94.2937 192.197 94.5466L192.197 94.5472C192.132 94.6779 192.067 94.8094 192.008 94.9465C191.886 95.2301 191.813 95.5221 191.739 95.8168C191.72 95.8894 191.702 95.962 191.683 96.0347C191.612 96.3063 191.524 96.5773 191.436 96.848L191.436 96.8486C191.381 97.0186 191.326 97.1884 191.275 97.3579C191.212 97.5656 191.173 97.7754 191.134 97.9851C191.101 98.1639 191.068 98.3428 191.02 98.5201C190.718 99.6421 190.473 100.799 190.283 101.946C190.143 102.791 190.069 103.643 189.994 104.496C189.901 105.551 189.809 106.606 189.593 107.646C189.487 108.155 189.359 108.65 189.209 109.145C189.146 109.353 189.053 109.476 188.941 109.624C188.907 109.668 188.872 109.715 188.835 109.767C188.769 109.86 188.71 109.955 188.651 110.05C188.5 110.295 188.351 110.534 188.104 110.704C188.082 110.719 188.06 110.734 188.04 110.748C188.015 110.766 187.991 110.783 187.969 110.799C187.809 110.914 187.7 110.991 187.466 111.065C187.379 111.093 187.293 111.124 187.206 111.155C187.036 111.215 186.865 111.276 186.689 111.313C186.449 111.363 186.189 111.355 185.938 111.348H185.937C185.875 111.346 185.813 111.344 185.753 111.344C184.646 111.144 183.527 109.277 183.116 108.591C183.078 108.529 183.047 108.476 183.021 108.436C182.744 107.986 182.515 107.505 182.286 107.023C181.979 106.376 181.671 105.729 181.246 105.158C180.74 104.478 180.342 103.723 179.945 102.967C179.515 102.147 179.084 101.327 178.513 100.602C177.992 99.9405 177.56 99.0333 177.13 98.1307C176.728 97.2844 176.327 96.4422 175.856 95.8106C175.187 96.404 174.791 97.951 174.664 98.8282C174.568 99.4962 174.413 100.109 174.158 100.739C173.858 101.481 173.651 102.31 173.461 103.085C173.372 103.449 173.25 103.808 173.128 104.168C173.042 104.422 172.956 104.677 172.881 104.933C172.799 105.217 172.735 105.504 172.671 105.791C172.602 106.104 172.532 106.418 172.437 106.729C172.045 108.017 171.732 109.257 171.682 110.616C171.672 110.867 171.656 111.124 171.64 111.382C171.579 112.337 171.517 113.325 171.795 114.222C171.898 114.554 171.942 114.926 171.942 115.272C171.942 115.583 172.006 115.887 172.069 116.192C172.107 116.373 172.145 116.555 172.169 116.739C172.297 117.69 172.525 119.288 172.691 119.888C172.708 119.951 172.726 120.015 172.745 120.081C172.848 120.44 172.96 120.834 172.96 121.19C172.96 121.725 173.035 122.231 173.11 122.734C173.17 123.14 173.23 123.545 173.25 123.962C173.344 124.447 173.405 124.958 173.465 125.469C173.522 125.946 173.578 126.422 173.662 126.879C173.729 127.242 173.728 127.605 173.728 127.967C173.727 128.384 173.727 128.8 173.829 129.213C173.967 129.77 174.139 133.894 174.268 137.012C174.325 138.384 174.374 139.561 174.408 140.152C174.446 140.802 174.371 141.36 174.298 141.894C174.243 142.299 174.19 142.691 174.19 143.098V149.62C174.19 152.287 174.187 154.941 174.064 157.601C174.039 158.149 173.987 158.695 173.936 159.24C173.863 160.003 173.791 160.765 173.791 161.532C173.791 162.619 173.714 163.707 173.525 164.779C173.135 166.987 173.126 169.138 173.126 171.375C173.126 172.198 173.093 173.018 173.059 173.837C173.026 174.657 172.993 175.478 172.993 176.304L172.987 186.294C172.966 186.508 172.955 186.731 172.943 186.956C172.917 187.494 172.889 188.041 172.719 188.503C172.716 188.672 172.701 188.84 172.686 189.008C172.669 189.201 172.653 189.396 172.653 189.593C172.653 189.66 172.655 189.729 172.657 189.798C172.664 190.003 172.672 190.214 172.619 190.405C172.569 190.588 172.528 190.764 172.489 190.935C172.378 191.418 172.276 191.864 171.979 192.33C171.92 192.423 171.863 192.515 171.807 192.604C171.431 193.209 171.106 193.731 170.498 194.12C169.134 194.995 167.381 195.113 165.748 195.004C166.043 195.492 165.971 196.956 165.913 198.15C165.858 199.251 165.816 200.122 166.083 199.784C166.158 199.689 166.24 199.598 166.322 199.506L166.322 199.505C166.463 199.348 166.605 199.19 166.713 199.013C166.854 198.781 166.989 198.565 167.213 198.4C167.754 198.002 168.387 198.408 168.615 198.952C168.707 199.173 168.843 199.376 168.978 199.578C169.144 199.825 169.309 200.072 169.393 200.349C169.541 200.839 169.985 201.38 170.334 201.747C171.221 202.68 172.152 203.419 173.305 204C174.171 204.436 175.128 204.675 176.072 204.91C176.328 204.974 176.583 205.037 176.835 205.104C177.076 205.169 177.316 205.251 177.555 205.334L177.556 205.334C177.882 205.447 178.208 205.559 178.54 205.626C179.047 205.728 179.397 206.066 179.397 206.608C179.397 207.634 178.614 208.746 177.752 209.243C177.005 209.672 176.183 209.803 175.355 209.935L175.353 209.935C175.162 209.966 174.971 209.996 174.78 210.03C173.813 210.203 172.793 210.189 171.794 210.174C171.52 210.17 171.247 210.166 170.977 210.166C170.68 210.166 170.381 210.164 170.081 210.162C168.824 210.152 167.55 210.142 166.313 210.303C164.767 210.504 163.226 210.362 161.683 210.221C161.233 210.179 160.781 210.138 160.33 210.105C160.252 210.125 160.211 210.141 160.19 210.154C160.174 210.137 160.137 210.112 160.059 210.078C159.943 210.026 159.825 210.006 159.708 209.985C159.588 209.964 159.469 209.943 159.352 209.89L159.303 209.868C159.016 209.739 158.726 209.607 158.509 209.365C158.411 209.255 158.331 209.105 158.251 208.957C158.195 208.854 158.14 208.751 158.079 208.663C157.533 207.871 157.65 206.864 157.759 205.916C157.791 205.648 157.821 205.384 157.836 205.132C157.877 204.43 158.132 203.645 158.408 203.015C158.517 202.765 158.548 202.5 158.58 202.234C158.608 202.001 158.635 201.767 158.716 201.542C158.884 201.073 159.3 200.026 159.782 199.784C161.156 200.691 160.924 198.107 160.773 196.435C160.702 195.64 160.649 195.051 160.796 195.142C161.52 194.85 162.704 194.515 163.258 194.85C163.494 194.85 163.754 194.853 164.021 194.856C164.131 194.857 164.242 194.859 164.353 194.859C163.987 194.806 163.623 194.742 163.259 194.677C162.866 194.608 162.474 194.539 162.079 194.483C161.336 194.379 160.553 194.381 159.796 194.382H159.795C159.713 194.382 159.632 194.382 159.551 194.382C159.263 194.382 158.991 194.408 158.712 194.434H158.712C158.641 194.44 158.57 194.447 158.499 194.453C158.444 194.458 158.354 194.504 158.257 194.553C158.051 194.658 157.811 194.78 157.796 194.569C157.758 194.013 157.771 193.415 157.783 192.831C157.79 192.544 157.796 192.26 157.796 191.987C157.796 190.065 157.796 188.118 157.58 186.211C157.434 184.919 157.293 183.646 157.19 182.354C157.078 180.946 156.953 179.521 156.659 178.137C155.731 178.672 155.05 179.24 154.368 180.056C154.053 180.434 153.724 180.805 153.395 181.177C152.857 181.783 152.318 182.391 151.835 183.034C150.421 184.915 148.984 186.601 147.165 188.1C147.012 188.226 146.85 188.367 146.681 188.514C145.931 189.167 145.037 189.946 144.147 190.101C143.573 190.201 142.807 190.137 142.15 189.969C141.511 190.529 140.881 191.099 140.252 191.668L140.249 191.67C139.898 191.987 139.547 192.305 139.195 192.619C139.164 192.647 139.111 192.69 139.044 192.744C138.648 193.062 137.777 193.762 138.229 194.003C138.512 194.154 138.864 194.169 139.21 194.184C139.429 194.193 139.645 194.203 139.84 194.246C140.406 194.373 140.568 194.876 140.726 195.366C140.763 195.482 140.8 195.597 140.842 195.707C141.261 196.79 140.965 197.949 140.689 199.03C140.661 199.142 140.632 199.252 140.605 199.362C140.451 199.983 140.323 200.748 140.323 201.386C140.323 201.854 140.541 202.323 140.747 202.769C140.827 202.94 140.904 203.107 140.968 203.27C141.27 204.048 141.661 204.782 142.053 205.517C142.311 206.002 142.569 206.486 142.802 206.984C143.068 207.551 143.304 208.302 143.304 208.931C143.304 209.7 143.178 210.165 142.579 210.635C141.672 211.345 139.84 210.927 139.039 210.165C137.969 209.969 137.026 209.164 136.131 208.398C135.724 208.05 135.326 207.71 134.931 207.44C134.609 206.664 133.951 206.071 133.225 205.614C132.428 205.112 131.814 204.407 131.206 203.71C131.078 203.562 130.949 203.415 130.819 203.27C130.608 203.033 130.363 202.65 130.123 202.272C129.909 201.936 129.698 201.605 129.516 201.386C129.345 201.18 129.19 200.834 129.032 200.478C128.836 200.039 128.633 199.586 128.384 199.362C128.156 199.158 127.991 198.917 127.824 198.674C127.679 198.462 127.533 198.249 127.344 198.059C127.127 197.84 127.053 197.662 126.968 197.457C126.916 197.332 126.86 197.198 126.765 197.038C126.678 196.892 126.637 196.848 126.59 196.798C126.511 196.713 126.413 196.609 126.041 195.955C125.926 195.754 125.815 195.7 125.719 195.653C125.605 195.597 125.513 195.552 125.461 195.287C125.246 194.817 125.117 194.623 125.052 194.525C125.017 194.472 125.001 194.448 125 194.423C125 194.402 125.011 194.382 125.03 194.343C125.06 194.286 125.109 194.192 125.172 194.003C125.339 193.496 125.604 193.429 125.938 193.343C126.18 193.281 126.459 193.21 126.765 192.954C126.946 192.802 127.091 192.656 127.226 192.521C127.556 192.191 127.822 191.925 128.384 191.787C128.507 191.756 128.62 191.729 128.725 191.704L128.731 191.702L128.732 191.702C129.83 191.437 129.951 191.408 129.951 190.766C130.531 190.766 130.591 190.484 130.642 190.248C130.671 190.111 130.697 189.989 130.819 189.946C131.073 189.857 131.244 189.841 131.401 189.826C131.604 189.808 131.784 189.791 132.089 189.622C132.253 189.531 132.427 189.397 132.607 189.258C132.98 188.969 133.383 188.657 133.799 188.657C133.953 188.657 134.08 188.752 134.208 188.849C134.331 188.94 134.455 189.034 134.609 189.05C134.939 189.083 135.156 188.847 135.365 188.62C135.408 188.573 135.451 188.525 135.495 188.482C135.836 188.137 136.262 187.846 136.677 187.561L136.677 187.56C136.849 187.442 137.02 187.325 137.182 187.206C137.352 187.081 137.518 187.021 137.68 187.007C137.661 186.993 137.643 186.982 137.626 186.973ZM148.483 122.38C148.131 121.355 147.859 120.563 147.763 120.315C147.523 119.863 147.392 119.23 147.268 118.622C147.185 118.222 147.105 117.832 146.998 117.513C146.778 116.863 147.667 116.996 148.248 117.084C148.406 117.108 148.542 117.128 148.626 117.128C149.469 117.128 150.291 116.958 151.114 116.788C151.701 116.667 152.288 116.546 152.885 116.486C153.217 116.452 153.546 116.38 153.872 116.306C154.01 116.276 154.154 116.259 154.297 116.243C154.471 116.224 154.643 116.205 154.804 116.16C154.976 116.111 155.172 115.965 155.368 115.82C155.813 115.487 156.254 115.159 156.39 116.013C156.485 116.609 156.467 117.153 156.448 117.726C156.443 117.861 156.439 117.999 156.436 118.139C156.425 118.623 156.305 119.064 156.183 119.513C156.128 119.712 156.073 119.914 156.028 120.121C155.924 120.59 155.701 120.987 155.477 121.385C155.353 121.606 155.229 121.827 155.125 122.061C154.979 122.387 154.781 122.666 154.579 122.949C154.519 123.033 154.459 123.118 154.4 123.205C154.259 123.41 154.133 123.626 154.007 123.842C153.885 124.053 153.762 124.263 153.626 124.463C153.532 124.602 153.428 124.742 153.324 124.882C153.127 125.147 152.927 125.416 152.778 125.695C152.741 125.766 152.703 125.837 152.665 125.909C152.51 126.202 152.352 126.501 152.183 126.781C152.132 126.865 152.077 126.95 152.022 127.036C151.847 127.309 151.667 127.59 151.574 127.896C151.549 127.978 151.512 128.099 151.469 128.237C151.34 128.657 151.156 129.251 151.093 129.504C150.682 128.78 149.344 124.885 148.483 122.38Z" fill="white"/>
<path fill-rule="evenodd" clip-rule="evenodd" d="M137.772 211.999C129.189 211.999 120.665 211.999 112.141 212C111.7 212 111.249 211.991 111.029 211.645C110.876 211.403 111.356 210.982 111.727 211.001C112.031 211.016 112.335 211.04 112.639 211.04C134.104 211.041 190.743 211.041 212.208 211.046C212.398 211.046 212.663 211.081 212.76 211.175C212.904 211.314 213.052 211.638 212.982 211.679C212.723 211.831 212.376 211.986 212.061 211.987C206.223 212.004 165.212 211.999 159.374 211.999C152.193 211.999 145.011 211.999 137.772 211.999Z" fill="black"/>
<path fill-rule="evenodd" clip-rule="evenodd" d="M95.6238 211.997C90.3326 211.997 85.1 211.997 79.8671 211.995C79.5387 211.995 79.1749 212.064 79.0422 211.694C78.9092 211.324 79.0914 211.055 79.5753 211.006C79.7092 210.993 79.8475 211.004 79.9837 211.004C89.0484 211.004 98.1134 211.005 107.178 211.003C107.597 211.003 108.017 210.971 107.999 211.451C107.986 211.826 107.726 211.997 107.12 211.997C103.308 211.997 99.4948 211.997 95.6238 211.997Z" fill="black"/>
<path d="M162.538 62.5665C162.155 62.7058 161.772 62.8448 161.389 62.9838C161.228 63.0427 161.021 62.9311 161.002 62.8059C160.983 62.6807 161.09 62.5631 161.212 62.4688C161.555 62.2018 162.052 62.031 162.569 62.0025C162.687 61.996 162.816 61.9992 162.906 62.0515C163.032 62.125 163.022 62.2683 162.929 62.3626C162.836 62.4568 162.684 62.5134 162.538 62.5665Z" fill="black"/>
<path d="M164 68.5435C164.293 68.2775 164.861 68.4576 165.146 68.1847C165.39 67.9505 165.245 67.5589 165.026 67.3052C164.808 67.051 164.516 66.8149 164.477 66.4941C164.439 66.1733 164.903 65.8404 165.136 66.0838C165.51 66.4764 165.85 66.9195 165.964 67.4297C166.079 67.9394 165.92 68.528 165.458 68.8318C164.995 69.1357 164.227 69.0208 164 68.5435Z" fill="black"/>
<path d="M168.05 64.7208C167.991 64.5987 167.984 64.4523 168.03 64.3246C168.059 64.2434 168.11 64.1699 168.175 64.1137C168.386 63.9308 168.75 63.9745 168.913 64.2023C169.076 64.4299 169.001 64.7914 168.762 64.9352C168.523 65.0789 168.172 64.9732 168.05 64.7208Z" fill="black"/>
<path d="M163.383 63.027C163.522 62.9599 163.676 63.0196 163.792 63.1868C163.886 63.3199 163.955 63.5187 163.985 63.7396C164.054 64.2493 163.883 64.8383 163.627 64.9714C163.371 65.1045 163.078 64.7575 163.013 64.2454C162.949 63.7333 163.126 63.1506 163.383 63.027Z" fill="black"/>
<path d="M165.584 72.3375C164.865 72.9491 163.725 73.1644 162.774 72.8688C161.822 72.5734 161.107 71.7818 161.008 70.9164C160.973 70.6034 161.045 70.2369 161.36 70.0763C161.795 69.8541 162.317 70.1648 162.743 70.4001C163.379 70.7521 164.125 70.9569 164.881 70.9875C165.216 71.0012 165.596 70.9954 165.831 71.2023C166.178 71.509 165.938 72.0363 165.584 72.3375ZM165.535 71.6822C165.377 71.4911 165.062 71.4737 164.79 71.4558C163.849 71.3945 162.93 71.1065 162.163 70.6334C162.004 70.5355 161.762 70.6313 161.682 70.7845C161.602 70.9377 161.642 71.1173 161.708 71.2752C161.978 71.9163 162.689 72.4033 163.476 72.4871C164.264 72.571 165.091 72.2472 165.535 71.6822Z" fill="black"/>
<path d="M176.551 96.1336C175.074 101.06 173.586 106.041 173.268 111.176C172.947 116.363 173.829 121.536 174.395 126.702C176.514 146.053 174.201 165.584 173.98 185.051C173.953 187.465 173.933 189.986 172.828 192.13C171.724 194.274 169.152 195.869 166.905 195.018C166.847 196.261 166.789 197.505 166.731 198.748C167.157 198.156 167.853 197.769 168.578 197.719C170.403 201.681 174.406 204.54 178.728 204.968C180.162 205.11 180.51 207.308 179.541 208.381C178.572 209.453 176.995 209.654 175.558 209.767C170.951 210.131 166.329 210.294 161.708 210.254C159.801 210.238 158.32 208.368 158.047 206.47C157.774 204.573 158.399 202.673 159.015 200.859C159.385 199.771 161.008 198.643 161.307 199.753C161.165 198.147 161.024 196.541 160.882 194.935C160.063 194.858 159.243 194.781 158.424 194.704C158.09 189.317 157.756 183.931 157.422 178.545C153.222 181.345 150.817 186.403 146.409 188.857C143.887 190.261 140.643 190.899 139.221 193.42C141.084 193.509 142.057 195.77 142.005 197.645C141.954 199.52 141.335 201.437 141.874 203.233C142.572 205.56 145.112 207.829 143.854 209.905C142.62 211.942 139.481 210.784 137.63 209.292C132.458 205.124 128.18 199.842 125.167 193.906C128.079 191.496 131.347 189.523 134.831 188.07C135.91 188.637 137.436 187.749 137.484 186.526C135.244 185.323 134.396 182.388 134.845 179.876C135.293 177.363 136.754 175.169 138.181 173.057C141.686 167.87 145.191 162.683 148.697 157.495C151.219 153.762 153.837 149.081 151.903 145.008C135.707 166.02 119.512 187.032 103.316 208.044C102.143 209.566 99.2802 208.597 98.9897 206.694C98.6989 204.791 100.66 203.026 102.567 203.198C98.6357 200.248 94.704 197.298 90.7723 194.348C90.0101 193.776 89.1895 193.112 89.0284 192.17C88.859 191.179 89.4774 190.243 90.0687 189.433C95.3827 182.146 100.994 175.079 106.883 168.254C108.599 166.266 110.394 164.254 112.718 163.043C115.043 161.832 118.041 161.576 120.189 163.081C123.377 165.315 126.565 167.548 129.754 169.782C136.053 161.552 142.352 153.323 148.651 145.094C146.32 141.556 148.702 136.821 148.197 132.608C147.645 128.006 143.648 124.317 143.355 119.691C143.212 117.431 141.345 115.651 139.363 114.576C137.38 113.501 135.157 112.874 133.308 111.581C129.132 108.662 127.768 102.816 128.89 97.8291C130.012 92.8423 133.164 88.5732 136.55 84.7586C139.936 80.9443 143.666 77.3768 146.348 73.0326C148.809 69.0458 150.3 64.5418 152.387 60.345C154.473 56.1481 157.358 52.0833 161.579 50.0798C165.799 48.0762 171.563 48.8091 174.152 52.7129C176.24 55.8608 175.792 60.0583 174.671 63.6698C173.55 67.2813 171.828 70.7727 171.578 74.5477C171.328 78.3226 173.119 82.6302 176.741 83.6558C182.28 85.2239 184.669 91.6264 186.256 97.1872C188.853 91.7916 191.451 86.3961 194.049 81.0009C192.225 80.8228 190.401 80.6451 188.577 80.4674C188.6 77.3827 188.758 74.3291 188.808 71.2508C188.818 70.6623 189.264 70.1655 189.847 70.118C196.127 69.607 194.129 72.0856 200.522 71.3802C201.409 71.5198 202.414 72.3586 203.099 72.9422C205.196 74.7277 203.212 78.0476 201.41 80.1323C195.395 87.0896 191.601 95.9582 190.715 105.133C190.575 106.589 190.492 108.1 189.823 109.399C189.154 110.698 187.698 111.726 186.286 111.37C185.028 111.053 184.258 109.814 183.619 108.68C181.263 104.498 178.907 100.316 176.551 96.1336ZM142.384 188.744C143.073 189.075 143.822 189.376 144.58 189.28C145.53 189.159 146.285 188.448 146.967 187.771C148.967 185.788 150.956 183.792 152.933 181.784C158.869 175.755 164.946 169.162 166.708 160.866C167.178 158.654 167.322 156.387 167.464 154.129C167.78 149.107 168.096 144.059 167.605 139.05C167.355 136.5 166.937 133.743 168.212 131.524C168.249 136.009 168.287 140.495 168.324 144.981C168.366 149.908 168.405 154.869 167.54 159.718C166.675 164.568 164.843 169.354 161.558 173.01C159.812 174.954 157.501 177.052 157.937 179.634C158.709 184.207 158.948 188.871 158.647 193.5C158.622 193.889 159.118 194.062 159.503 194.105C162.823 194.474 166.182 194.476 169.501 194.112C170.653 193.986 172.085 193.534 172.187 192.374C173.955 172.358 174.691 152.25 174.392 132.158C174.339 128.597 174.248 124.996 173.334 121.556C173.241 121.207 172.975 120.771 172.642 120.906C167.643 122.943 161.764 122.67 156.973 120.177C155.561 122.536 154.228 124.942 152.977 127.391C152.273 128.77 151.583 130.387 152.183 131.815C153.318 134.52 153.517 137.613 152.737 140.442C152.249 142.21 151.442 144.274 152.564 145.721C153.697 147.182 153.767 149.255 153.212 151.021C152.657 152.787 151.562 154.322 150.502 155.836C144.932 163.784 139.826 172.059 135.218 180.607C134.48 181.976 135.529 183.616 136.637 184.705C138.316 186.355 140.266 187.725 142.384 188.744ZM157.48 83.5136C157.197 83.2764 156.897 83.0291 156.533 82.9667C156.197 82.909 155.858 83.0195 155.534 83.1284C154.471 83.4868 153.408 83.8452 152.344 84.2033C151.424 84.5133 150.486 84.8326 149.71 85.4194C148.791 86.1152 148.172 87.1309 147.591 88.1303C146.765 89.5536 145.97 90.9956 145.208 92.4548C145.063 92.731 144.916 93.0241 144.929 93.3362C144.941 93.6549 145.117 93.9411 145.294 94.2056C146.805 96.4672 148.76 98.4284 151.012 99.9435C151.095 99.9995 151.183 100.056 151.283 100.064C151.418 100.074 151.542 99.9916 151.649 99.9074C153.086 98.7763 153.598 96.6062 152.82 94.9463C153.125 94.7391 153.442 95.1951 153.533 95.5538C155.516 103.337 156.805 111.299 157.379 119.313C157.425 119.964 158.179 120.277 158.807 120.441C161.106 121.041 163.441 121.582 165.815 121.634C168.19 121.685 170.628 121.217 172.628 119.928C172.804 119.815 173 119.634 172.937 119.433C171.69 115.465 171.676 111.187 172.319 107.076C172.963 102.966 174.244 98.9867 175.558 95.0407C175.65 94.7627 175.867 94.4189 176.141 94.5203C176.571 95.7781 177.475 96.8661 178.63 97.5153C180.389 96.0538 182.51 95.036 184.747 94.5806C183.907 92.6975 183.066 90.8144 182.226 88.9313C181.712 87.781 181.17 86.591 180.215 85.7737C179.239 84.9381 177.951 84.5931 176.709 84.272C174.3 83.6488 171.891 83.0256 169.482 82.4023C168.991 82.2756 168.413 82.1672 168.027 82.4959C167.607 82.8537 167.664 83.5063 167.723 84.0567C167.939 86.0383 167.708 88.0677 167.053 89.9493C167.009 90.0758 166.954 90.2118 166.838 90.2759C166.661 90.3727 166.448 90.2573 166.281 90.1445C163.236 88.0892 160.297 85.8748 157.48 83.5136ZM141.733 114.656C139.654 106.714 141.809 98.2227 145.259 90.7783C146.18 88.7891 147.215 86.8133 148.725 85.2289C150.235 83.6441 152.29 82.4755 154.473 82.4568C157.283 82.4329 159.156 79.3552 159.402 76.5409C159.647 73.7269 158.859 70.898 159.107 68.084C159.24 66.5887 159.661 65.1368 159.956 63.6651C160.195 62.474 160.35 61.2663 160.422 60.0536C160.437 59.8054 160.44 59.5321 160.285 59.3389C160.044 59.0397 159.588 59.1 159.205 59.0863C158.823 59.0726 158.347 58.7754 158.491 58.4187C162.834 59.199 167.49 58.01 170.936 55.2402C171.27 56.2213 169.192 56.7649 169.498 57.7553C170.467 60.8927 171.14 64.1855 170.811 67.454C170.483 70.7226 169.048 73.9842 166.443 75.9675C166.178 76.1691 165.886 76.3792 165.786 76.6974C165.709 76.9427 165.762 77.2078 165.815 77.4593C166.205 79.3051 166.961 81.5224 168.814 81.8283C170.34 82.0804 171.867 82.3324 173.394 82.5844C172.137 81.4609 171.26 79.9158 170.936 78.2568C170.669 76.8905 170.771 75.476 171.008 74.1042C171.55 70.9592 172.781 67.9829 173.684 64.9229C174.588 61.8627 175.162 58.5805 174.361 55.4917C173.559 52.4032 171.12 49.7422 167.964 49.3875C166.907 49.2687 165.799 49.2615 164.775 49.5508C159.681 50.9898 156.032 55.5156 153.599 60.2392C151.166 64.9629 149.582 70.1308 146.716 74.6021C144.277 78.4065 140.995 81.5728 137.921 84.8804C134.847 88.188 131.9 91.7651 130.36 96.0179C128.818 100.271 128.898 105.35 131.564 108.997C133.911 112.208 137.852 113.845 141.733 114.656ZM115.797 163.012C113.026 163.782 110.457 165.272 108.407 167.299C107.397 168.297 106.516 169.418 105.638 170.535C100.603 176.942 95.5672 183.349 90.5316 189.756C90.0982 190.307 89.6431 190.919 89.6495 191.622C89.6585 192.597 90.5289 193.313 91.3183 193.88C91.9509 194.334 92.5836 194.789 93.2159 195.244C93.4882 195.439 93.9022 195.622 94.1154 195.362C102.549 185.097 110.983 174.831 119.417 164.566C119.63 164.306 119.971 164.022 120.255 164.199C120.591 164.41 120.364 164.931 120.112 165.238C111.705 175.458 103.298 185.679 94.8911 195.899C94.6437 196.2 94.9841 196.622 95.2949 196.856C96.1845 197.526 97.0744 198.196 97.964 198.866C98.112 198.977 98.2832 199.095 98.4657 199.064C98.6285 199.037 98.7472 198.899 98.8512 198.77C107.393 188.195 115.935 177.621 124.477 167.046C122.712 165.771 120.947 164.495 119.183 163.219C118.232 162.532 116.925 162.698 115.797 163.012ZM99.6363 200.136C101.295 201.406 102.954 202.677 104.614 203.947C104.734 204.039 104.869 204.136 105.02 204.124C105.198 204.111 105.326 203.954 105.433 203.811C113.567 192.807 121.7 181.802 129.834 170.798C128.442 169.808 127.05 168.818 125.658 167.828C125.551 167.752 125.428 167.671 125.299 167.694C125.181 167.715 125.095 167.814 125.02 167.907C116.531 178.405 108.042 188.904 99.5537 199.402C99.4596 199.518 99.3593 199.654 99.3796 199.803C99.399 199.946 99.5221 200.048 99.6363 200.136ZM147.364 107.845C147.77 106.56 148.367 105.345 149.002 104.157C149.622 103 150.28 101.864 150.976 100.751C148.543 98.7879 146.059 96.767 144.442 94.0841C143.242 97.5205 142.115 101.017 141.733 104.639C140.876 112.793 143.851 120.847 147.348 128.255C148.122 129.895 148.94 131.582 149.007 133.396C149.071 135.124 148.447 136.796 148.228 138.511C147.949 140.701 148.352 142.974 149.367 144.932C149.536 145.258 149.744 145.596 150.08 145.739C150.417 145.881 150.9 145.708 150.936 145.342C151.076 143.913 151.642 142.567 151.994 141.175C152.927 137.487 152.332 133.572 151.261 129.922C150.191 126.271 148.655 122.769 147.656 119.099C146.658 115.428 146.217 111.472 147.364 107.845ZM166.756 74.9358C167.595 74.3536 168.124 73.4247 168.552 72.495C169.572 70.2777 170.171 67.8655 170.308 65.4267C170.337 64.9072 170.343 64.3723 170.166 63.8833C169.989 63.3944 169.591 62.9556 169.081 62.87C168.79 62.821 168.825 62.3292 169.09 62.1998C169.356 62.0707 169.67 62.1829 169.942 62.2957C169.858 60.9137 169.552 59.5458 169.04 58.2602C168.913 57.94 168.626 57.5607 168.312 57.6994C166.215 58.6259 163.941 59.144 161.652 59.2171C161.237 59.2305 161.17 59.8156 161.197 60.2322C161.425 63.6957 158.955 67.049 159.698 70.4385C160.547 74.3111 160.224 78.6457 157.86 81.8205C157.707 82.0268 157.536 82.275 157.614 82.5203C157.661 82.6646 157.784 82.768 157.901 82.8627C160.709 85.126 163.563 87.332 166.46 89.4782C167.079 87.8194 167.11 86.0065 167.133 84.2353C167.148 83.1319 167.151 81.9761 166.641 80.9991C166.319 80.3835 165.808 79.8709 165.571 79.218C165.374 78.6766 165.382 78.084 165.264 77.5199C165.145 76.9561 164.84 76.3667 164.295 76.1895C163.447 75.9142 162.641 75.5065 161.916 74.9856C161.67 74.8087 161.41 74.5768 161.405 74.2723C161.4 73.9681 161.849 73.7213 162.012 73.9775C162.983 75.501 165.275 75.9637 166.756 74.9358ZM185.177 103.108C184.737 102.625 185.03 101.863 185.29 101.263C186.082 99.4298 186.318 97.1796 185.215 95.5168C185.121 95.3749 185.006 95.2301 184.842 95.1849C184.71 95.1488 184.57 95.184 184.438 95.2213C182.638 95.728 180.924 96.5453 179.396 97.6271C179.17 97.7871 178.921 98.0601 179.056 98.3022C180.891 101.589 182.591 104.952 184.15 108.38C184.455 109.051 184.765 109.739 185.277 110.266C185.789 110.794 186.556 111.137 187.263 110.942C188.304 110.656 188.734 109.437 189.006 108.388C190.299 103.404 191.592 98.4205 192.885 93.437C193.392 91.4805 193.904 89.512 194.747 87.6761C195.59 85.8405 196.792 84.1258 198.445 82.974C199.725 82.0824 200.618 80.6501 200.86 79.1035C199.108 78.7151 197.219 78.9846 195.644 79.8476C195.27 80.0525 194.898 80.3059 194.701 80.6856C194.522 81.032 194.511 81.4379 194.471 81.8266C194.162 84.8157 192.001 87.2125 190.426 89.7669C188.443 92.9825 187.321 96.6476 186.27 100.28C185.988 101.255 185.704 102.244 185.177 103.108ZM156.339 114.638C155.68 109.391 155.017 104.126 153.655 99.0173C152.077 101.454 150.492 103.904 149.325 106.564C148.158 109.224 147.416 112.128 147.615 115.028C147.645 115.459 147.721 115.936 148.063 116.197C148.272 116.357 148.545 116.403 148.806 116.436C151.188 116.74 153.65 116.395 155.86 115.449C156.036 115.373 156.224 115.282 156.308 115.108C156.377 114.965 156.358 114.796 156.339 114.638ZM138.833 196.692C137.9 196.118 137.645 194.526 136.553 194.465C135.442 194.403 134.705 193.225 134.545 192.118C134.385 191.011 134.599 189.872 134.42 188.768C134.408 188.696 134.39 188.616 134.33 188.574C134.237 188.51 134.113 188.574 134.02 188.638C132.211 189.88 130.4 191.122 128.59 192.365C130.739 193.157 131.83 195.485 132.88 197.53C133.901 199.52 135.079 201.429 136.397 203.234C136.634 203.559 136.981 203.919 137.366 203.808C138.647 203.44 140.051 203.52 141.282 204.031C141.231 203.053 140.327 202.2 139.353 202.209C139.094 202.212 139.092 201.76 139.325 201.647C139.558 201.534 139.832 201.643 140.073 201.737C140.314 201.831 140.612 201.903 140.811 201.738C140.797 201.453 140.783 201.168 140.769 200.883C140.042 200.847 139.331 200.538 138.808 200.03C139.169 199.314 140.608 200.636 140.945 199.908C140.504 199.282 139.771 198.875 139.009 198.832C138.854 198.522 139.354 198.273 139.682 198.381C140.011 198.489 140.33 198.744 140.661 198.648C141.229 198.482 141.026 197.548 140.508 197.261C139.989 196.974 139.338 197.002 138.833 196.692ZM171.743 202.825C171.653 202.386 171.036 202.165 170.69 202.449C170.49 202.613 170.395 202.888 170.178 203.029C169.961 203.17 169.56 202.963 169.699 202.744C170.116 202.603 170.339 202.1 170.26 201.664C170.18 201.229 169.86 200.87 169.487 200.634C168.895 201.086 168.123 201.293 167.385 201.196C166.694 201.106 166.144 201.724 165.555 202.099C164.533 202.752 163.097 202.664 162.162 201.891C161.408 201.268 160.988 200.284 160.165 199.756C159.534 201.621 159.121 203.561 158.939 205.523C158.919 205.745 159.006 206.068 159.222 206.016C162.868 205.151 166.657 206.205 170.288 207.132C170.879 207.283 171.668 207.348 171.942 206.8C172.418 205.846 173.275 205.092 174.278 204.744C174.261 204.348 173.676 204.263 173.338 204.467C173 204.671 172.751 205.029 172.373 205.139C172.125 205.059 172.206 204.666 172.405 204.497C172.605 204.328 172.885 204.215 172.96 203.964C173.077 203.57 172.605 203.276 172.22 203.139C172.04 203.682 171.449 204.055 170.884 203.98C171.17 203.595 171.457 203.21 171.743 202.825ZM147.844 117.014C147.946 118.267 148.36 119.47 148.771 120.658C149.741 123.459 150.711 126.261 151.68 129.062C152.258 126.721 153.724 124.723 154.928 122.636C156.133 120.549 157.119 118.127 156.597 115.772C153.867 116.983 150.801 117.418 147.844 117.014ZM142.07 210.368C142.389 210.414 142.829 210.352 142.863 210.03C139.936 208.727 137.758 206.175 135.9 203.555C134.28 201.271 132.822 198.871 131.54 196.379C130.968 195.268 130.388 194.087 129.355 193.39C128.322 192.692 126.681 192.731 126.052 193.81C125.946 193.992 126.064 194.218 126.18 194.394C128.682 198.187 131.198 201.997 134.247 205.36C136.373 207.704 138.947 209.916 142.07 210.368ZM193.86 79.8459C193.912 79.8435 193.965 79.8403 194.011 79.8176C194.142 79.7526 194.153 79.5732 194.146 79.4269C194.02 76.7446 193.894 74.0625 193.768 71.3802C193.758 71.1564 193.494 71.2127 193.282 71.1439C193.07 71.0751 192.863 71.1025 192.641 71.1229C191.712 71.2086 190.783 71.2945 189.854 71.3802C189.585 71.405 189.554 71.5128 189.544 71.7852C189.458 74.2677 189.371 76.7504 189.284 79.2331C189.279 79.4007 189.275 79.5775 189.357 79.7235C189.522 80.0198 189.931 80.0405 190.269 80.0239C191.466 79.9645 192.663 79.9053 193.86 79.8459ZM178.381 208.1C176.893 207.488 175.213 207.919 173.608 208.015C169.184 208.28 164.873 205.921 160.466 206.399C159.944 206.456 159.377 206.581 159.055 206.998C158.56 207.638 158.954 208.646 159.641 209.073C160.328 209.5 161.183 209.508 161.99 209.504C165.69 209.483 169.39 209.463 173.09 209.442C174.952 209.432 176.998 209.354 178.381 208.1ZM138.366 187.074C138.318 187.045 138.266 187.016 138.211 187.015C138.113 187.012 138.035 187.09 137.969 187.162C137.261 187.936 136.553 188.711 135.846 189.485C135.685 189.661 135.522 189.84 135.412 190.051C135.282 190.299 135.231 190.581 135.201 190.859C135.121 191.588 135.185 192.36 135.554 192.992C135.924 193.624 136.648 194.081 137.37 193.976C138.269 193.845 138.834 192.975 139.462 192.314C140.417 191.309 141.748 190.642 142.431 189.434C141.077 188.647 139.721 187.86 138.366 187.074ZM165.931 200.884C166.071 200.703 166.187 200.499 166.24 200.276C166.328 199.907 166.242 199.523 166.183 199.148C166.004 198.004 166.09 196.836 166.155 195.679C166.172 195.377 166.079 194.959 165.779 194.978C164.525 195.057 163.262 194.995 162.021 194.792C161.846 194.764 161.686 194.924 161.646 195.098C161.607 195.272 161.654 195.452 161.698 195.624C162.043 196.999 162.144 198.435 161.994 199.845C161.97 200.077 161.939 200.312 161.985 200.541C162.062 200.919 162.343 201.226 162.665 201.437C163.682 202.102 165.187 201.847 165.931 200.884ZM200.522 78.3681C200.817 78.4211 201.167 78.4782 201.377 78.2629C200.498 77.8025 199.847 76.9255 199.657 75.9477C199.468 74.9696 199.744 73.911 200.387 73.1529C200.446 73.0835 200.51 73.0107 200.521 72.9207C200.532 72.8306 200.457 72.7255 200.369 72.7453C199.129 73.0259 197.855 73.1596 196.584 73.1436C196.395 73.1412 196.192 73.1395 196.036 73.2464C195.755 73.4378 195.775 73.8522 195.826 74.189C196.039 75.6007 195.963 76.7213 196.176 78.1329C196.183 78.1836 196.191 78.2352 196.214 78.2809C196.323 78.498 196.642 78.4368 196.87 78.3555C197.942 77.9733 199.402 78.1676 200.522 78.3681ZM143.531 208.85C143.403 207.566 142.949 206.316 142.224 205.252C142.131 205.116 142.032 204.981 141.905 204.876C141.751 204.747 141.563 204.669 141.375 204.6C140.315 204.213 139.162 204.087 138.044 204.236C137.819 204.266 137.535 204.376 137.548 204.605C137.553 204.693 137.606 204.771 137.658 204.843C139.003 206.714 140.772 208.274 142.791 209.374C142.96 209.466 143.167 209.556 143.337 209.465C143.539 209.359 143.553 209.078 143.531 208.85ZM101.262 208.269C102.386 208.571 103.679 207.773 103.919 206.629C104.159 205.485 103.297 204.229 102.148 204.049C101.693 203.978 101.214 204.059 100.807 204.277C100.081 204.667 99.6177 205.506 99.6748 206.332C99.7362 207.223 100.405 208.038 101.262 208.269ZM179.783 206.476C179.758 206.283 179.718 206.086 179.61 205.924C179.301 205.461 178.63 205.496 178.076 205.521C177.143 205.564 176.203 205.433 175.317 205.137C174.793 204.961 174.235 205.261 173.783 205.582C173.215 205.986 172.662 206.472 172.416 207.126C172.996 207.393 173.669 207.302 174.303 207.232C175.341 207.119 176.386 207.079 177.429 207.113C177.932 207.129 178.446 207.165 178.908 207.364C179.019 207.413 179.131 207.47 179.251 207.476C179.466 207.484 179.658 207.316 179.739 207.115C179.819 206.915 179.81 206.69 179.783 206.476ZM202.476 77.7979C202.882 77.6854 203.093 77.2396 203.203 76.8308C203.474 75.8206 203.431 74.6899 202.899 73.7904C202.609 73.3009 202.074 72.8621 201.524 72.9979C201.171 73.0847 200.906 73.3944 200.777 73.7359C200.649 74.0774 200.636 74.4503 200.631 74.8154C200.625 75.3795 200.638 75.9544 200.815 76.4902C200.991 77.0257 201.354 77.5249 201.874 77.7375C202.064 77.8153 202.278 77.8526 202.476 77.7979ZM141.187 195.32C141.19 195.193 141.191 195.061 141.136 194.946C141.027 194.723 140.75 194.651 140.507 194.604C139.997 194.505 139.486 194.406 138.975 194.306C138.604 194.234 138.089 194.249 138.003 194.619C137.958 194.817 138.077 195.013 138.201 195.174C138.756 195.889 139.533 196.426 140.396 196.689C140.643 196.765 140.968 196.791 141.104 196.571C141.164 196.474 141.168 196.353 141.17 196.239C141.176 195.933 141.182 195.626 141.187 195.32ZM168.985 200.378C169.064 200.34 169.145 200.297 169.197 200.226C169.319 200.062 169.239 199.828 169.144 199.646C168.915 199.204 168.62 198.798 168.272 198.444C168.222 198.392 168.162 198.339 168.091 198.34C168.004 198.341 167.941 198.421 167.893 198.493C167.53 199.044 167.243 199.645 167.042 200.274C166.98 200.47 166.947 200.729 167.12 200.839C167.764 200.817 168.404 200.659 168.985 200.378Z" fill="black"/>
<path d="M102.084 68.3981C102.645 67.6453 103.17 66.9161 103.72 66.2149C103.822 66.0851 104.028 66.0687 104.186 66C104.13 66.1707 104.105 66.368 104.014 66.5074C103.586 67.1713 103.116 67.8002 102.716 68.4871C102.619 68.6543 102.647 69.1002 102.766 69.2324C103.114 69.6202 103.527 69.9333 103.936 70.2342C104.061 70.3261 104.311 70.3733 104.409 70.2885C104.779 69.9691 105.118 69.5963 105.445 69.2151C105.481 69.1736 105.398 68.905 105.314 68.819C104.986 68.4841 104.623 68.1967 104.3 67.8564C104.192 67.7432 104.164 67.5241 104.1 67.3534C104.255 67.3641 104.446 67.3107 104.56 67.3979C104.907 67.6644 105.23 67.9761 105.551 68.2859C106.163 68.8757 106.147 69.3584 105.515 69.9632C105.259 70.2079 104.999 70.4497 104.764 70.7226C104.464 71.073 104.17 71.0813 103.834 70.8046C103.382 70.4327 102.903 70.1032 102.467 69.7068C102.129 69.3984 101.856 69.0074 102.084 68.3981Z" fill="#FFB61D"/>
<path d="M220.235 139.97C219.817 139.898 219.147 139.14 219.062 138.636C218.88 137.561 219.096 136.681 219.742 136.289C220.106 136.069 220.543 136.027 220.951 136C221.079 135.992 221.219 136.291 221.354 136.45C221.174 136.515 220.976 136.679 220.82 136.625C220.449 136.495 220.152 136.563 219.852 136.882C219.412 137.351 219.42 138.248 219.608 138.747C219.868 139.439 220.353 139.392 220.798 139.329C221.148 139.28 221.65 138.596 221.586 137.937C221.566 137.738 221.714 137.509 221.785 137.294C221.86 137.505 221.993 137.712 221.999 137.927C222.036 139.234 221.228 140.185 220.235 139.97Z" fill="#FFB61D"/>
<path d="M172.06 128.367C171.757 119.437 174.953 138.607 174.989 139.2C175.029 139.853 174.95 140.413 174.875 140.948V140.948C174.817 141.355 174.762 141.748 174.762 142.157V148.703C174.762 151.38 174.759 154.043 174.63 156.714C174.604 157.264 174.55 157.811 174.496 158.359V158.359C174.42 159.124 174.345 159.889 174.345 160.659C174.345 161.75 174.265 162.841 174.067 163.917C173.66 166.134 173.651 168.293 173.651 170.538C173.651 171.364 173.616 172.186 173.581 173.009C173.546 173.832 173.511 174.656 173.511 175.485L173.506 185.511C173.483 185.727 173.472 185.95 173.46 186.176C173.432 186.716 173.404 187.265 173.226 187.728C173.222 187.899 173.207 188.067 173.192 188.235C173.174 188.43 173.156 188.625 173.156 188.822C173.156 188.89 173.159 188.959 173.161 189.029C173.169 189.234 173.176 189.446 173.121 189.638C173.069 189.821 173.027 189.998 172.986 190.17C172.87 190.654 172.763 191.102 172.454 191.57C172.392 191.663 172.332 191.755 172.274 191.845C171.881 192.452 171.542 192.976 170.907 193.367C169.483 194.244 167.879 193.862 165.918 193.952C152.354 194.575 171.361 189.268 169.396 168.187C173.46 162.477 172.208 132.731 172.06 128.367Z" fill="#E7EAEE"/>
<defs>
<filter id="filter0_d_603_407" x="86" y="15" width="172" height="213" filterUnits="userSpaceOnUse" color-interpolation-filters="sRGB">
<feFlood flood-opacity="0" result="BackgroundImageFix"/>
<feColorMatrix in="SourceAlpha" type="matrix" values="0 0 0 0 0 0 0 0 0 0 0 0 0 0 0 0 0 0 127 0" result="hardAlpha"/>
<feOffset dy="4"/>
<feGaussianBlur stdDeviation="2"/>
<feComposite in2="hardAlpha" operator="out"/>
<feColorMatrix type="matrix" values="0 0 0 0 0 0 0 0 0 0 0 0 0 0 0 0 0 0 0.25 0"/>
<feBlend mode="normal" in2="BackgroundImageFix" result="effect1_dropShadow_603_407"/>
<feBlend mode="normal" in="SourceGraphic" in2="effect1_dropShadow_603_407" result="shape"/>
</filter>
<linearGradient id="paint0_linear_603_407" x1="172" y1="15" x2="172" y2="220" gradientUnits="userSpaceOnUse">
<stop stop-color="#F6E4ED"/>
<stop offset="1" stop-color="#FFF9F8"/>
</linearGradient>
</defs>
</svg>
