<svg width="300" height="300" viewBox="0 0 300 300" fill="none" xmlns="http://www.w3.org/2000/svg">
<g filter="url(#filter0_i_327_218)">
<path d="M240 0H60C26.8629 0 0 26.8629 0 60V240C0 273.137 26.8629 300 60 300H240C273.137 300 300 273.137 300 240V60C300 26.8629 273.137 0 240 0Z" fill="white"/>
<path fill-rule="evenodd" clip-rule="evenodd" d="M116.775 266.52C162.494 281.397 184.739 224.304 223.911 228.648C245.354 231.026 288.095 243.077 288 155.291C287.761 98.6158 242.618 84.424 196.066 113.489C182.367 119.688 171.552 117.767 159.81 111.608C148.068 105.448 132.966 77.9511 104.503 72.2943C18.8492 55.2713 -54.4387 210.805 116.775 266.52Z" fill="url(#paint0_linear_327_218)" fill-opacity="0.7"/>
<path fill-rule="evenodd" clip-rule="evenodd" d="M219.844 115.338C220.63 114.956 222.04 115.697 221.222 116.89C219.41 119.532 226.417 124.808 224.168 120.158C223.928 119.661 222.694 116.223 224.439 117.998C226.184 119.773 228.617 127.617 227.044 130.319C225.662 132.691 222.008 133.819 217.02 133.953L216.795 133.958L216.689 133.964C213.748 134.101 211.518 132.281 210.078 128.736L210.01 128.564C208.552 124.854 208.952 121.88 211.308 119.874C211.351 119.838 211.397 119.805 211.445 119.776L211.519 119.736L219.844 115.338Z" fill="white"/>
<path fill-rule="evenodd" clip-rule="evenodd" d="M60.9704 45.9057C60.6272 45.4193 60.0716 45.1389 59.4776 45.2113C58.87 45.2853 58.3616 45.7081 58.1763 46.2913L58.1271 46.4473C58.0895 46.5621 58.0451 46.6941 57.9928 46.8425C57.844 47.2657 57.6628 47.7357 57.4492 48.2409C56.842 49.6777 56.0943 51.1117 55.2024 52.4453C53.2771 55.3237 50.9571 57.3273 48.2379 58.0989C47.8131 58.2192 47.5663 58.6617 47.6867 59.0869C47.7479 59.3025 51.7196 61.2872 55.7736 60.7868C59.706 60.3016 63.7256 57.3369 63.758 57.1353L63.8076 56.7149L63.8216 56.5741C64.1032 53.5197 63.5684 50.0693 61.5116 46.7269C61.3408 46.4493 61.1603 46.1757 60.9704 45.9057Z" fill="#E7EAEE"/>
<path fill-rule="evenodd" clip-rule="evenodd" d="M69.1536 46.7944L69.1328 46.956C68.8476 49.024 68.0496 51.9036 66.6056 54.076C64.8284 56.7504 62.32 58.7956 59.7992 60.114C56.1624 62.0152 52.2044 62.3632 48.3068 59.8932L48.1348 59.7824C46.0868 58.4428 44.5324 57.798 42.4 58.33C40.2672 58.8624 39.2316 60.4156 38.3111 61.8568L38.2689 61.9176C38.1213 62.1148 37.9054 62.2512 37.6621 62.2992L33.6188 62.9396L35.0912 64.7688C35.5344 65.3236 35.8494 65.7232 36.0363 65.968L37.6547 68.1C42.478 74.4264 47.6688 80.4664 57.7912 78.3756L58.1344 78.302C60.816 77.7056 63.0644 79.3068 65.8852 81.6664L66.488 82.174C67.234 82.8056 69.49 84.794 70.4132 85.7516L70.7148 86.068L70.9932 86.3676C71.0512 86.4308 71.1064 86.4916 71.1588 86.5496L71.4468 86.874L71.6236 86.6656C73.5328 84.3668 74.7288 80.8656 75.348 77.9776C75.5816 76.8864 75.716 75.8416 75.772 74.8776L75.7788 74.752C75.7932 74.47 75.7996 74.224 75.8008 74.0188V73.866L75.5124 73.9508C72.174 74.8976 68.4176 74.9916 64.7524 74.5688C63.8672 74.4664 73.5796 66.6 71.586 56.4124C71.1316 54.0908 70.8432 50.9864 70.0496 48.8792C69.7992 48.2144 69.54 47.6068 69.2828 47.0636L69.1536 46.7944Z" fill="white"/>
<path fill-rule="evenodd" clip-rule="evenodd" d="M220.266 116.596L211.956 120.636C209.964 122.331 209.626 124.852 210.94 128.198C211.401 129.372 212.555 132.169 212.555 131.071C212.555 130.728 220.266 125.687 221.745 126.18C223.113 126.636 220.656 122.526 219.967 120.636L220.266 116.493L220.494 116.08" fill="#E7EAEE"/>
<path fill-rule="evenodd" clip-rule="evenodd" d="M209.179 119.628C209.731 119.628 206.602 121.1 206.763 123.814C206.924 126.528 209.046 131.531 208.53 131.728C208.014 131.926 207.036 130.467 206.839 129.951C205.612 126.741 205.38 125.432 205.424 123.559C205.481 121.108 206.77 119.628 209.179 119.628Z" fill="#E7EAEE"/>
<path d="M223.105 127.197C224.298 127.197 225.265 125.012 225.265 122.317C225.265 119.622 224.298 117.437 223.105 117.437C221.912 117.437 220.945 119.622 220.945 122.317C220.945 125.012 221.912 127.197 223.105 127.197Z" fill="#E7EAEE"/>
<path fill-rule="evenodd" clip-rule="evenodd" d="M72.2264 173.766C72.2264 165.299 73.1672 161.618 83.2692 156.997C103.973 148.629 103.973 148.306 143.637 132.971C154.127 128.936 176.241 138.601 185.857 134.551C192.268 131.851 198.263 129.846 203.56 127.168C204.072 130.517 207.388 136.187 208.556 137.162C202.354 138.464 196.354 140.476 190.557 143.201C178.025 149.09 185.451 147.485 165.602 166.203C163.92 167.79 157.738 171.406 148.8 175.174C148.8 175.174 130.8 172.757 123.581 169.754C116.234 166.698 105.102 156.997 105.102 156.997C105.102 156.997 92.1172 165.468 84.6528 169.276C81.1592 171.058 72.2264 173.766 72.2264 173.766Z" fill="white"/>
<path fill-rule="evenodd" clip-rule="evenodd" d="M72.226 169.366C72.226 167.379 72.016 165.992 72.226 164.458C72.9108 159.456 75.5932 156.897 83.324 153.361C104.028 144.992 103.973 143.906 143.637 128.571C154.126 124.536 176.24 134.201 185.857 130.151C192.268 127.451 198.263 125.446 203.559 122.768C203.574 122.864 203.023 127.44 203.023 127.44C203.023 127.44 189.948 134.345 181.298 135.809C172.109 137.365 159.486 130.151 146.882 133.699C127.689 139.102 83.458 156.084 78.2252 160.34C74.114 163.684 72.226 169.366 72.226 169.366Z" fill="#E7EAEE"/>
<path fill-rule="evenodd" clip-rule="evenodd" d="M60.9704 45.9057C60.6272 45.4193 60.0716 45.1389 59.4776 45.2113C58.87 45.2853 58.3616 45.7081 58.1763 46.2913L58.1271 46.4473C58.0895 46.5621 58.0451 46.6941 57.9928 46.8425C57.844 47.2657 57.6628 47.7357 57.4492 48.2409C56.842 49.6777 56.0943 51.1117 55.2024 52.4453C53.2771 55.3237 50.9571 57.3273 48.2379 58.0989C47.8131 58.2193 47.5663 58.6617 47.6867 59.0869C47.8075 59.5117 54.4144 56.5009 56.532 53.3349C57.4856 51.9097 58.2788 50.3881 58.9232 48.8641C59.1176 48.4041 59.2868 47.9709 59.4316 47.5713L59.502 47.3741C59.5588 47.2133 59.6076 47.0689 59.6488 46.9413C59.6592 46.8505 59.6692 46.8201 59.678 46.8501C64.2612 49.9853 62.4595 57.7665 62.8996 57.8045C63.32 57.8405 63.692 57.5449 63.758 57.1353L63.8076 56.7149L63.8216 56.5741C64.1032 53.5197 63.5684 50.0693 61.5116 46.7269C61.3408 46.4493 61.1603 46.1757 60.9704 45.9057Z" fill="#E7EAEE"/>
<path fill-rule="evenodd" clip-rule="evenodd" d="M70.5131 45.8824L70.6139 46.0628L70.7371 46.294C70.8115 46.4364 70.8947 46.6016 70.9855 46.7884C71.2999 47.4352 71.6171 48.1672 71.9211 48.9744C72.7771 51.2464 73.3751 53.6984 73.5795 56.2532C73.8567 59.72 73.3563 62.9916 72.0887 65.968L71.9803 66.218C70.9507 68.5432 69.4507 70.6736 67.5035 72.5848L67.3103 72.7716L67.4743 72.7796C70.2787 72.8976 73.0519 72.6464 75.4895 71.8692C76.0123 71.7024 76.5823 71.7884 77.0327 72.1016C77.4823 72.4144 77.7615 72.9176 77.7895 73.4644L77.7959 73.634L77.7999 73.8584V73.9448C77.7999 74.2576 77.7907 74.6088 77.7683 74.9932C77.7071 76.0552 77.5599 77.2008 77.3035 78.3968C76.5791 81.7756 75.1311 84.94 72.7643 87.6064C72.4499 87.9604 72.0083 88.1724 71.5383 88.1976L71.4299 88.2C70.9283 88.1908 70.4699 87.9832 70.1443 87.6292L69.9059 87.352L69.7892 87.2192L69.5407 86.9436L69.2687 86.6496C69.1739 86.5492 69.0755 86.4456 68.9735 86.34C68.1047 85.4388 67.1455 84.5456 66.1267 83.7236C63.3035 81.4452 60.5799 80.1588 58.2539 80.2984C54.4495 80.5268 51.2987 80.3492 48.3755 79.5288C44.5967 78.4688 41.6291 76.3884 39.6655 73.0764L39.5555 72.8876C38.5388 71.1148 37.0373 69.0724 35.2661 66.9468C34.7188 66.2896 34.1789 65.6648 33.6643 65.0872L33.4453 64.8424C33.0948 64.4524 32.8075 64.1416 32.6871 64.0152C32.2427 63.5468 32.0882 62.8748 32.2824 62.2604L32.3109 62.1772C32.5242 61.6032 33.0203 61.1776 33.625 61.058L36.8675 60.4172L36.9053 60.3628C38.0655 58.7136 39.7221 57.3168 41.9227 56.754C44.2179 56.1672 46.6331 56.6776 49.0655 58.2208L49.2351 58.33C52.5203 60.4788 55.7763 60.36 58.8723 58.7416C61.0835 57.5852 63.1915 55.6216 64.7883 53.2188C66.2735 50.9844 67.1559 48.596 67.2191 46.7108C67.2451 45.9232 67.7887 45.2468 68.5527 45.054C69.3175 44.8604 70.1175 45.1992 70.5131 45.8824ZM69.1535 46.7944L69.1327 46.956C68.8479 49.024 68.0495 51.9036 66.6059 54.076C64.8283 56.7504 62.3199 58.7956 59.7991 60.114C56.1627 62.0152 52.2043 62.3632 48.3067 59.8932L48.1347 59.7824C46.0867 58.4428 44.5323 57.798 42.3999 58.33C40.2675 58.8624 39.2316 60.4156 38.311 61.8568L38.2688 61.9176C38.1213 62.1148 37.9054 62.2512 37.6621 62.2992L33.6187 62.9396L35.0912 64.7688C35.5344 65.3236 35.8494 65.7232 36.0362 65.968L37.6547 68.1004C42.4779 74.4264 47.6687 80.4664 57.7911 78.3756L58.1343 78.302C60.8159 77.7056 63.0643 79.3068 65.8851 81.6664L66.4879 82.174C67.2339 82.8056 69.4899 84.794 70.4131 85.7516L70.7147 86.068L70.9931 86.3676C71.0511 86.4308 71.1063 86.4916 71.1591 86.5496L71.4467 86.874L71.6235 86.6656C73.5327 84.3668 74.7287 80.8656 75.3479 77.9776C75.5819 76.8864 75.7159 75.8416 75.7719 74.8776L75.7787 74.752C75.7931 74.47 75.7995 74.224 75.8007 74.0188V73.866L75.5123 73.9508C72.1739 74.8976 68.4175 74.9916 64.7523 74.5688C63.8671 74.4668 73.5795 66.6 71.5859 56.4124C71.1315 54.0908 70.8431 50.9864 70.0495 48.8792C69.7995 48.2144 69.5399 47.6068 69.2827 47.0636L69.1535 46.7944Z" fill="#E7EAEE"/>
<path fill-rule="evenodd" clip-rule="evenodd" d="M43.8 64.8C44.572 64.8 45.2 64.172 45.2 63.4C45.2 62.628 44.572 62 43.8 62C43.028 62 42.4 62.628 42.4 63.4C42.4 64.172 43.028 64.8 43.8 64.8Z" fill="#00160A"/>
<path d="M45 70.4C46.2151 70.4 47.2 69.5941 47.2 68.6C47.2 67.6059 46.2151 66.8 45 66.8C43.785 66.8 42.8 67.6059 42.8 68.6C42.8 69.5941 43.785 70.4 45 70.4Z" fill="#FFB61D"/>
<path d="M45 70.4C46.2151 70.4 47.2 69.5941 47.2 68.6C47.2 67.6059 46.2151 66.8 45 66.8C43.785 66.8 42.8 67.6059 42.8 68.6C42.8 69.5941 43.785 70.4 45 70.4Z" fill="#FED9B8"/>
<path fill-rule="evenodd" clip-rule="evenodd" d="M70.5136 45.8824L70.6144 46.0628L70.7376 46.294C70.8116 46.4364 70.8952 46.6016 70.986 46.7884C71.3004 47.4352 71.6176 48.1672 71.9216 48.9744C72.7776 51.2464 73.3756 53.6984 73.58 56.2532C73.8572 59.72 73.3568 62.9916 72.0892 65.968L71.9808 66.218C70.9512 68.5432 69.4512 70.6736 67.5036 72.5848L67.3108 72.7716L67.4748 72.7796C70.2792 72.8976 73.052 72.6464 75.49 71.8692C76.0128 71.7024 76.5828 71.7884 77.0332 72.1016C77.4828 72.4144 77.762 72.9176 77.79 73.4644L77.7964 73.634L77.8004 73.8584V73.9448C77.8004 74.2576 77.7912 74.6088 77.7688 74.9932C77.7072 76.0552 77.56 77.2008 77.304 78.3968C76.5796 81.7756 75.1316 84.94 72.7648 87.6064C72.4504 87.9604 72.0084 88.1724 71.5388 88.1976L71.4304 88.2C70.9284 88.1908 70.4704 87.9832 70.1448 87.6292L69.9064 87.352L69.7896 87.2192L69.5412 86.9436L69.2688 86.6496C69.1744 86.5492 69.076 86.4456 68.974 86.34C68.1048 85.4388 67.146 84.5456 66.1272 83.7236C63.3036 81.4452 60.5804 80.1588 58.2544 80.2984C54.4496 80.5268 51.2992 80.3492 48.376 79.5288C44.5968 78.4688 41.6296 76.3884 39.6659 73.0764L39.5559 72.8876C38.5392 71.1148 37.0377 69.0724 35.2665 66.9468C34.7192 66.2896 34.1793 65.6648 33.6647 65.0872L33.4457 64.8424C33.0952 64.4524 32.8079 64.1416 32.6876 64.0152C32.2431 63.5468 32.0886 62.8748 32.2828 62.2604L32.3113 62.1772C32.5246 61.6032 33.0208 61.1776 33.6255 61.058L36.8679 60.4172L36.9057 60.3628C38.0659 58.7136 39.7225 57.3168 41.9228 56.754C44.0888 56.2 46.362 56.6236 48.6552 57.97C51.1952 57.1184 53.3764 55.1756 55.2024 52.4456C56.0948 51.1116 56.8424 49.6776 57.4496 48.2412C57.6632 47.7356 57.844 47.266 57.9932 46.8424C58.0456 46.6944 58.09 46.5624 58.1276 46.4472L58.1768 46.2912C58.3616 45.708 58.87 45.2852 59.478 45.2116C60.0716 45.1388 60.6276 45.4192 60.9704 45.906C61.1608 46.1756 61.3412 46.4496 61.512 46.7272C63.1084 49.3216 63.788 51.9812 63.8804 54.47C64.198 54.0688 64.5016 53.6508 64.7888 53.2188C66.2736 50.9844 67.1564 48.596 67.2192 46.7108C67.2456 45.9232 67.7892 45.2468 68.5532 45.054C69.318 44.8604 70.118 45.1992 70.5136 45.8824ZM58.8728 58.7416C55.8656 60.3136 52.7072 60.4708 49.518 58.5092C51.6652 57.5164 55.1104 55.4608 56.5324 53.3352C57.4856 51.91 58.2792 50.388 58.9232 48.864C59.1176 48.4044 59.2868 47.9712 59.432 47.5712L59.5024 47.3744C59.5588 47.2132 59.6076 47.0688 59.6492 46.9416C59.6596 46.8504 59.6692 46.82 59.6784 46.85C62.7248 48.9344 62.95 53.0712 62.888 55.622C61.6636 56.9288 60.2896 58.0008 58.8728 58.7416ZM59.7996 60.114C61.0196 59.4756 62.2372 58.6672 63.3704 57.6992C63.4572 57.6488 63.5344 57.5816 63.5968 57.5024C64.7168 56.5148 65.7468 55.3688 66.606 54.076C68.05 51.9036 68.848 49.024 69.1332 46.956L69.154 46.7944L69.2832 47.0636C69.5404 47.6068 69.7996 48.2144 70.05 48.8792C70.6024 50.3456 70.91 52.2948 71.1992 54.1272V54.1276C71.3252 54.928 71.448 55.7064 71.5864 56.4124C73.1144 64.2208 67.7656 70.6656 65.5824 73.296C64.9172 74.0976 64.546 74.5448 64.7528 74.5688C68.418 74.9916 72.174 74.8976 75.5128 73.9508L75.8012 73.866V74.0188C75.8 74.224 75.7936 74.47 75.7792 74.752L75.7724 74.8776C75.7164 75.8416 75.582 76.8864 75.3484 77.9776C74.7292 80.8656 73.5332 84.3668 71.624 86.6656L71.4472 86.874L71.1592 86.5496C71.1068 86.4916 71.0516 86.4308 70.9936 86.3676L70.7152 86.068L70.4136 85.7516C69.4904 84.794 67.2344 82.8056 66.4884 82.174L65.8856 81.6664C63.0648 79.3068 60.8164 77.7056 58.1348 78.302L57.7916 78.3756C47.6692 80.4664 42.4784 74.4264 37.6551 68.1004L36.0367 65.968C35.8498 65.7232 35.5348 65.3236 35.0916 64.7688L33.6191 62.9396L37.6625 62.2992C37.9058 62.2512 38.1217 62.1148 38.2693 61.9176L38.3114 61.8568C39.232 60.4156 40.2676 58.8624 42.4004 58.33C44.5328 57.798 46.0872 58.4428 48.1352 59.7824L48.3072 59.8932C52.2048 62.3632 56.1628 62.0152 59.7996 60.114ZM219.844 115.338C220.63 114.956 222.04 115.697 221.222 116.89C219.984 118.696 221.36 122.89 222.198 125.444V125.444V125.445C222.586 126.626 222.858 127.456 222.704 127.538C222.214 127.793 221.61 127.604 221.354 127.114C219.969 124.464 219.173 122.359 218.975 120.759C218.876 119.963 218.854 119.193 218.91 118.45L218.918 118.364L212.514 121.477L212.432 121.552C210.987 122.908 210.351 124.482 211.409 127.271L211.471 127.433C212.62 130.357 214.564 132.454 216.586 132.367L216.744 132.359C221.239 132.268 223.926 130.916 224.884 129.269C226.09 127.198 226.417 124.808 224.168 120.158C223.928 119.662 222.694 116.224 224.439 117.998C226.184 119.773 228.617 127.617 227.044 130.319C225.73 132.575 222.359 133.706 217.74 133.926C217.766 134.044 217.772 134.168 217.754 134.295C217.316 137.264 215.961 139.132 213.694 139.673C211.961 140.086 210.098 139.539 208.392 138.22C202.397 139.507 196.594 141.469 190.983 144.106L190.152 144.5C187.288 145.867 185.647 146.784 184.448 147.675C183.745 148.198 183.164 148.733 182.54 149.422L182.439 149.537C182.136 149.888 181.476 150.694 180.725 151.612L180.723 151.613L180.722 151.614L180.722 151.615L180.722 151.616L180.719 151.618L180.718 151.62C179.718 152.84 178.56 154.256 177.868 155.057L177.534 155.442C174.717 158.669 171.168 162.33 166.289 166.931L166.152 167.056C164.323 168.691 159.462 171.454 153.4 174.241C170.129 173.647 182.192 167.262 189.704 155.076C190.034 154.539 190.772 154.438 191.234 154.866C204.152 166.83 219.118 172.366 236.193 171.502C253.312 170.634 265.876 166.185 273.921 158.196C274.312 157.807 274.946 157.81 275.335 158.202C275.724 158.593 275.722 159.226 275.33 159.616C266.89 167.996 248.972 174.284 231.401 175.174C214.312 176.039 204.116 168.998 191.079 157.426L190.76 157.141L190.646 157.316C182.389 169.829 164.45 178.956 146.548 179.085L145.987 179.087C127.676 179.087 117.116 170.221 104.762 158.102L104.666 158.008L104.622 158.045L104.299 158.317L103.83 158.711L103.543 158.953C91.9672 168.694 83.33 175.963 70.3372 177.82L69.9228 177.878C55.2736 180.842 33.0559 172.947 29.6416 169.077C26.5133 165.531 30.1622 167.735 31.1639 168.34C31.2554 168.396 31.3249 168.438 31.365 168.46C41.0608 174.012 52.24 176.126 65.6528 174.296C67.5036 174.044 69.3432 173.71 71.1708 173.294L71.1496 173.096C70.564 167.534 70.5604 165.103 71.4044 162.313C72.552 158.518 75.3388 155.634 80.3516 153.341L81.732 152.73C87.924 150.002 92.8416 147.953 97.9424 145.962L98.316 145.816C98.888 145.594 99.4676 145.37 100.059 145.143L100.639 144.922C100.848 144.848 103.574 143.767 107.719 142.124L107.72 142.124L107.731 142.119L107.733 142.118L107.734 142.118C117.315 138.32 134.458 131.524 145.641 127.2C148.06 126.269 150.99 125.96 154.582 126.146L154.892 126.163C157.584 126.321 160.231 126.686 164.57 127.437L168.384 128.105C172.641 128.842 174.704 129.133 177.113 129.304C177.87 129.358 178.59 129.425 179.274 129.489H179.274C181.807 129.724 183.845 129.914 185.47 129.23C186.914 128.621 188.33 128.034 189.718 127.458H189.718C194.257 125.575 198.491 123.819 202.42 121.866C202.689 120.119 203.378 118.829 204.456 117.979C206.12 116.669 208.476 116.647 210.519 117.441C211.034 117.642 211.289 118.221 211.089 118.736C211.024 118.902 210.608 118.826 210.019 118.717C208.788 118.49 206.802 118.124 205.694 119.55C204.461 121.138 204.051 123.57 205.143 128.358C205.934 131.828 211.064 137.728 213.23 137.728C215.646 137.728 216.211 135.382 216.531 134.052L216.551 133.969C213.678 134.044 211.496 132.226 210.079 128.737L210.01 128.564C208.552 124.854 208.952 121.88 211.308 119.874C211.351 119.838 211.397 119.805 211.445 119.777L211.52 119.737L219.844 115.338ZM206.547 136.412C206.446 136.289 206.346 136.164 206.247 136.035C206.209 135.995 206.173 135.955 206.142 135.917C206.051 135.806 205.958 135.694 205.862 135.58C205.087 134.649 204.189 133.57 203.486 132.015L203.384 131.788C202.256 129.261 202.122 126.423 202.191 124.082L202.201 123.811L202.142 123.841C197.481 126.147 192.412 128.461 186.933 130.782L186.246 131.073C183.9 132.061 180.97 132.759 177.258 132.519L176.971 132.499C174.435 132.318 172.302 132.015 167.828 131.239L164.489 130.653C155.074 129.023 150.363 128.769 146.481 130.22C146.481 130.22 88.5876 151.998 81.1728 155.164C76.6636 157.227 75.1336 159.168 73.2688 162.313C72.304 163.94 72.4016 168.427 72.4696 171.544V171.545C72.4808 172.067 72.4912 172.551 72.496 172.977C83.4424 170.239 93.9648 164.548 104.07 155.89C104.468 155.549 105.063 155.574 105.432 155.946C106.249 156.773 107.08 157.572 107.925 158.342L149.615 140.925C149.729 140.877 149.847 140.852 149.964 140.848C150.278 140.7 150.617 140.577 150.98 140.48C154.615 139.514 157.518 141.086 159.524 144.957L163.158 142.306C163.694 141.915 164.455 142.145 164.685 142.767C168.001 151.729 167.035 157.87 161.575 160.833C156.068 163.821 151.279 161.357 147.546 153.888C147.356 153.51 147.431 153.072 147.693 152.776C146.803 149.161 146.638 146.28 147.243 144.194L110.718 160.747C116.179 165.181 122.176 168.525 128.714 170.781C128.863 170.638 129.025 170.514 129.184 170.428C134.691 167.411 148.257 163.888 151.608 163.018C151.898 162.942 152.112 162.887 152.237 162.853C153.809 162.432 152.198 163.901 151.724 164.12L151.663 164.146L131.862 171.771C137.753 173.449 144.06 174.287 150.787 174.287C151.17 174.287 151.55 174.284 151.928 174.278L152.371 173.99H152.371L152.372 173.99L152.372 173.99C156.607 171.237 163.687 166.635 164.916 165.476L165.49 164.934C169.567 160.978 172.601 157.183 175.25 153.87C178.155 150.235 180.597 147.182 183.442 145.133C185.654 143.54 186.456 143.176 188.34 142.321C188.844 142.092 189.425 141.828 190.132 141.496C195.13 139.147 200.805 137.788 206.133 136.511L206.547 136.412ZM151.494 142.413C154.374 141.648 156.532 143 158.176 146.778L153.928 150.146L153.923 150.148L149.533 151.88L149.424 151.398C148.221 145.948 149.004 143.075 151.494 142.413ZM158.176 146.778L153.931 150.145C154.016 150.111 154.104 150.09 154.192 150.08C154.272 150.072 154.352 150.073 154.431 150.084C154.617 150.109 154.794 150.186 154.94 150.308C155.036 150.388 155.117 150.486 155.179 150.601C156.181 152.406 156.956 152.835 157.742 152.394C158.575 151.927 158.836 150.172 158.228 147.035L158.176 146.778ZM103.096 187.838C103.56 187.539 106.766 185.975 103.911 188.915C101.056 191.854 78.8228 204.326 66.8212 205.017C55.2536 205.683 44.9832 200.852 36.0473 194.529L35.7512 194.318L35.6922 194.394C35.2966 194.896 34.8901 195.351 34.4725 195.759L34.2928 195.932C33.5359 196.642 32.2259 197.446 30.3333 198.381C29.8381 198.626 28.0885 198.851 28.9938 197.927C29.8992 197.004 31.8808 195.675 33.0349 194.912C33.7891 194.414 34.0273 193.832 34.2636 193.254C34.3889 192.948 34.5136 192.642 34.7145 192.352C35.0371 191.885 35.6829 191.78 36.1368 192.12C44.946 198.722 55.2364 202.242 66.8212 201.575C78.4536 200.906 90.4676 195.963 103.096 187.838ZM171.515 194.214C171.921 193.839 171.921 191.167 171.515 191.542C167.022 195.688 157.615 199.334 146.008 200.002C134.385 200.671 125.248 198.844 118.577 194.554C118.112 194.256 115.813 193.466 117.195 194.855C118.577 196.244 134.11 203.49 146.122 202.799L146.482 202.778C158.318 202.055 166.662 198.692 171.515 194.214ZM163.31 144.893L163.25 144.714L160.24 146.91L160.295 147.221C160.9 150.762 160.487 153.076 158.808 154.088L158.72 154.139C156.97 155.12 155.322 154.427 153.945 152.41L153.884 152.32L149.836 153.956L149.93 154.126C153.024 159.71 156.454 161.263 160.49 159.144L160.621 159.075C164.674 156.875 165.673 152.386 163.451 145.328L163.31 144.893ZM45.2004 63.4C45.2004 64.172 44.5724 64.8 43.8004 64.8C43.0284 64.8 42.4004 64.172 42.4004 63.4C42.4004 62.628 43.0284 62 43.8004 62C44.5724 62 45.2004 62.628 45.2004 63.4Z" fill="#00160A"/>
<path d="M129.553 72.7762C129.339 73.1669 129.016 73.3622 128.587 73.3622C128.235 73.3622 127.962 73.245 127.766 73.0106C127.571 72.7958 127.473 72.5321 127.473 72.2196C127.473 72.1805 127.483 71.7802 127.503 71.0184C127.522 70.2372 127.532 69.1923 127.532 67.8837C127.532 66.2235 127.532 64.4559 127.532 62.5809C127.552 60.7059 127.532 58.8016 127.473 56.868C127.415 54.9344 127.288 53.0106 127.093 51.0966C126.897 49.1825 126.594 47.3563 126.184 45.618C125.774 43.8602 125.237 42.2294 124.573 40.7255C123.909 39.2216 123.059 37.9227 122.024 36.829C120.989 35.7157 119.759 34.8466 118.333 34.2216C116.907 33.5966 115.227 33.2841 113.294 33.2841C111.399 33.2841 109.671 33.6161 108.108 34.2802C106.546 34.9247 105.198 35.8036 104.065 36.9169C102.952 38.0106 102.083 39.2997 101.458 40.7841C100.852 42.2489 100.55 43.8016 100.55 45.4423C100.55 46.868 100.794 48.1864 101.282 49.3973C101.79 50.5887 102.473 51.6239 103.333 52.5028C104.192 53.3817 105.188 54.0751 106.321 54.5829C107.473 55.0712 108.694 55.3153 109.983 55.3153C110.94 55.3153 111.819 55.1884 112.62 54.9344C113.421 54.661 114.104 54.368 114.671 54.0555C115.237 53.743 115.677 53.4598 115.989 53.2059C116.302 52.9325 116.468 52.7958 116.487 52.7958C116.702 52.5809 116.966 52.4735 117.278 52.4735C117.571 52.4735 117.825 52.5809 118.04 52.7958C118.255 52.9911 118.362 53.2352 118.362 53.5282C118.362 53.8212 118.255 54.0751 118.04 54.2899C118.001 54.329 117.776 54.5243 117.366 54.8759C116.975 55.2079 116.428 55.5692 115.725 55.9598C115.022 56.3505 114.182 56.702 113.206 57.0145C112.249 57.327 111.184 57.4833 110.012 57.4833C108.391 57.4833 106.868 57.1805 105.442 56.5751C104.036 55.9696 102.805 55.1298 101.751 54.0555C100.696 52.9813 99.8562 51.7118 99.2312 50.2469C98.6257 48.7626 98.323 47.161 98.323 45.4423C98.323 43.4891 98.6941 41.6434 99.4363 39.9052C100.198 38.1669 101.243 36.6532 102.571 35.3641C103.899 34.0555 105.462 33.0302 107.259 32.288C109.075 31.5262 111.048 31.1454 113.177 31.1454C115.93 31.1454 118.255 31.6434 120.149 32.6395C122.044 33.6161 123.606 34.9344 124.837 36.5946C126.087 38.2352 127.044 40.1395 127.708 42.3075C128.391 44.4559 128.889 46.702 129.202 49.0458C129.514 51.3895 129.7 53.7528 129.759 56.1356C129.817 58.4989 129.846 60.7255 129.846 62.8153C129.846 63.2059 129.846 63.6259 129.846 64.0751C129.846 64.5243 129.837 64.9735 129.817 65.4227C129.817 65.8719 129.807 66.3016 129.788 66.7118C129.788 67.1024 129.788 67.4247 129.788 67.6786L149.417 31.3505C149.593 30.9794 149.905 30.7938 150.354 30.7938C150.686 30.7938 150.95 30.911 151.145 31.1454C151.36 31.3602 151.468 31.6141 151.468 31.9071C151.468 32.0048 151.409 32.3661 151.292 32.9911C151.175 33.5966 151.028 34.4071 150.852 35.4227C150.696 36.4384 150.52 37.62 150.325 38.9677C150.13 40.2958 149.944 41.7313 149.768 43.2743C149.612 44.8173 149.475 46.4286 149.358 48.1083C149.241 49.7684 149.182 51.4286 149.182 53.0887C149.182 55.8817 149.329 58.3622 149.622 60.5302C149.915 62.6786 150.393 64.495 151.057 65.9794C151.721 67.4637 152.591 68.5868 153.665 69.3485C154.759 70.1102 156.096 70.4911 157.678 70.4911C159.104 70.4911 160.462 70.1884 161.751 69.5829C163.04 68.9579 164.241 68.1083 165.354 67.0341C166.468 65.9598 167.503 64.7001 168.46 63.2548C169.417 61.8094 170.276 60.2567 171.038 58.5966C171.819 56.9169 172.503 55.1786 173.089 53.3817C173.694 51.5848 174.192 49.7977 174.583 48.0204C174.993 46.243 175.296 44.5145 175.491 42.8348C175.706 41.1552 175.813 39.6122 175.813 38.2059C175.813 35.6669 175.52 33.3329 174.934 31.204C174.368 29.0555 173.45 27.3075 172.18 25.9598C171.985 25.7645 171.887 25.5204 171.887 25.2274C171.887 24.9149 171.995 24.6512 172.21 24.4364C172.444 24.2216 172.708 24.1141 173.001 24.1141C173.333 24.1141 173.596 24.2216 173.792 24.4364C174.534 25.2372 175.169 26.1454 175.696 27.161C176.243 28.1571 176.682 29.2509 177.014 30.4423C177.366 31.6141 177.62 32.8544 177.776 34.163C177.952 35.4716 178.04 36.829 178.04 38.2352C178.04 40.3837 177.835 42.7274 177.425 45.2665C177.014 47.786 176.409 50.3251 175.608 52.8837C174.807 55.4227 173.821 57.8837 172.649 60.2665C171.497 62.6493 170.159 64.7587 168.635 66.5946C167.132 68.411 165.462 69.8759 163.626 70.9891C161.79 72.0829 159.807 72.6298 157.678 72.6298C155.667 72.6298 153.977 72.1805 152.61 71.2821C151.243 70.3641 150.139 69.0555 149.3 67.3563C148.479 65.6376 147.884 63.5575 147.512 61.1161C147.161 58.6747 146.985 55.9208 146.985 52.8544C146.985 51.5848 147.024 50.2762 147.102 48.9286C147.2 47.5809 147.307 46.2626 147.425 44.9735C147.561 43.6844 147.698 42.4442 147.835 41.2528C147.991 40.0614 148.137 38.9872 148.274 38.0302L129.553 72.7762ZM183.137 59.3876C183.059 59.9149 182.962 60.413 182.844 60.8817C182.727 61.3309 182.61 61.7313 182.493 62.0829C182.395 62.4149 182.307 62.6884 182.229 62.9032C182.151 63.118 182.102 63.2352 182.083 63.2548C181.887 63.704 181.546 63.9286 181.057 63.9286C180.784 63.9286 180.53 63.8309 180.296 63.6356C180.061 63.4208 179.944 63.1571 179.944 62.8446C179.944 62.7274 179.964 62.6395 180.003 62.5809C180.042 62.5223 180.1 62.4052 180.178 62.2294C180.257 62.0536 180.354 61.7606 180.471 61.3505C180.589 60.9403 180.735 60.3055 180.911 59.4462C180.579 59.4462 180.237 59.4364 179.885 59.4169C179.534 59.3973 179.212 59.329 178.919 59.2118C178.606 59.0946 178.352 58.9091 178.157 58.6552C177.962 58.4012 177.864 58.0497 177.864 57.6005C177.864 57.2684 177.962 56.8192 178.157 56.2528C178.333 55.6864 178.577 55.1298 178.889 54.5829C179.202 54.036 179.553 53.5673 179.944 53.1766C180.335 52.7665 180.725 52.5614 181.116 52.5614C181.565 52.5614 181.927 52.7274 182.2 53.0594C182.493 53.3915 182.718 53.8016 182.874 54.2899C183.03 54.7587 183.137 55.2567 183.196 55.7841C183.274 56.3114 183.313 56.7704 183.313 57.161C183.645 57.161 183.968 57.161 184.28 57.161C184.612 57.1415 184.925 57.1317 185.218 57.1317C186.331 57.1317 187.18 57.3759 187.766 57.8641C188.352 58.3524 188.645 59.1532 188.645 60.2665C188.645 60.7157 188.616 61.1844 188.557 61.6727C188.499 62.161 188.43 62.6688 188.352 63.1962C188.274 63.704 188.206 64.2118 188.147 64.7196C188.089 65.2274 188.059 65.7255 188.059 66.2137C188.059 66.9169 188.157 67.5028 188.352 67.9716C188.548 68.4208 188.792 68.7821 189.085 69.0555C189.378 69.329 189.69 69.5243 190.022 69.6415C190.354 69.7391 190.657 69.788 190.93 69.788C191.77 69.788 192.561 69.5145 193.303 68.9677C194.046 68.4208 194.729 67.7665 195.354 67.0048C195.979 66.2235 196.536 65.4032 197.024 64.5438C197.532 63.6844 197.952 62.9325 198.284 62.288C198.382 62.1122 198.518 61.9755 198.694 61.8778C198.87 61.7802 199.055 61.7313 199.251 61.7313C199.602 61.7313 199.876 61.8485 200.071 62.0829C200.266 62.2977 200.364 62.5419 200.364 62.8153C200.364 63.0106 200.325 63.1864 200.247 63.3427C199.798 64.1434 199.27 65.0516 198.665 66.0673C198.079 67.0634 197.405 68.0009 196.643 68.8798C195.882 69.7587 195.022 70.5009 194.065 71.1063C193.128 71.7118 192.093 72.0145 190.96 72.0145C190.257 72.0145 189.593 71.8778 188.968 71.6044C188.343 71.3505 187.796 70.9794 187.327 70.4911C186.878 69.9833 186.516 69.368 186.243 68.6454C185.969 67.9032 185.833 67.0731 185.833 66.1552C185.833 65.1786 185.93 64.2118 186.126 63.2548C186.321 62.2782 186.419 61.3505 186.419 60.4716C186.419 60.1005 186.331 59.827 186.155 59.6512C185.999 59.4559 185.637 59.3583 185.071 59.3583C184.798 59.3583 184.495 59.3583 184.163 59.3583C183.85 59.3583 183.509 59.368 183.137 59.3876ZM181.175 57.2196C181.175 57.0829 181.165 56.9071 181.145 56.6923C181.145 56.4579 181.126 56.2333 181.087 56.0184C181.067 55.8036 181.028 55.618 180.969 55.4618C180.93 55.3055 180.882 55.2274 180.823 55.2274C180.764 55.2274 180.686 55.3055 180.589 55.4618C180.51 55.5985 180.423 55.7743 180.325 55.9891C180.227 56.1844 180.139 56.3993 180.061 56.6337C179.983 56.868 179.925 57.0634 179.885 57.2196H181.175ZM203.059 48.4305C203.059 49.1727 202.796 49.8075 202.268 50.3348C201.76 50.8427 201.135 51.0966 200.393 51.0966C199.651 51.0966 199.016 50.8427 198.489 50.3348C197.981 49.8075 197.727 49.1727 197.727 48.4305C197.727 48.0594 197.796 47.7177 197.932 47.4052C198.069 47.0731 198.255 46.7899 198.489 46.5555C198.743 46.3016 199.026 46.1063 199.339 45.9696C199.671 45.8329 200.022 45.7645 200.393 45.7645C200.764 45.7645 201.106 45.8329 201.419 45.9696C201.751 46.1063 202.034 46.3016 202.268 46.5555C202.522 46.7899 202.718 47.0731 202.854 47.4052C202.991 47.7177 203.059 48.0594 203.059 48.4305ZM198.313 65.5985C198.313 62.786 198.489 59.9833 198.841 57.1903C198.88 56.9169 198.997 56.6825 199.192 56.4872C199.407 56.2723 199.68 56.1649 200.012 56.1649C200.305 56.1649 200.55 56.2821 200.745 56.5165C200.94 56.7313 201.038 56.9852 201.038 57.2782C201.038 57.3954 201.009 57.7469 200.95 58.3329C200.911 58.9188 200.852 59.6219 200.774 60.4423C200.716 61.243 200.657 62.1024 200.598 63.0204C200.559 63.9188 200.54 64.7489 200.54 65.5106C200.54 66.5458 200.637 67.3856 200.833 68.0302C201.048 68.6552 201.311 69.1434 201.624 69.495C201.956 69.8466 202.298 70.0809 202.649 70.1981C203.02 70.3153 203.372 70.3739 203.704 70.3739C204.251 70.3739 204.817 70.1786 205.403 69.788C205.989 69.3973 206.585 68.8505 207.19 68.1473C207.815 67.4442 208.44 66.6044 209.065 65.6278C209.69 64.6317 210.305 63.5282 210.911 62.3173C211.009 62.1219 211.145 61.9755 211.321 61.8778C211.497 61.7606 211.692 61.702 211.907 61.702C212.219 61.702 212.473 61.8192 212.669 62.0536C212.884 62.288 212.991 62.5419 212.991 62.8153C212.991 63.0106 212.952 63.1766 212.874 63.3134C212.639 63.7626 212.346 64.3094 211.995 64.954C211.643 65.5985 211.243 66.2626 210.794 66.9462C210.344 67.6298 209.846 68.3134 209.3 68.9969C208.772 69.661 208.206 70.2665 207.6 70.8134C206.995 71.3407 206.36 71.7704 205.696 72.1024C205.032 72.4344 204.358 72.6005 203.675 72.6005C202.796 72.6005 202.024 72.4149 201.36 72.0438C200.696 71.6727 200.13 71.1747 199.661 70.5497C199.212 69.9247 198.87 69.1923 198.635 68.3524C198.421 67.493 198.313 66.5751 198.313 65.5985ZM201.419 48.4305C201.419 48.1571 201.311 47.9227 201.096 47.7274C200.901 47.5126 200.667 47.4052 200.393 47.4052C200.12 47.4052 199.885 47.5126 199.69 47.7274C199.495 47.9227 199.397 48.1571 199.397 48.4305C199.397 48.704 199.495 48.9384 199.69 49.1337C199.885 49.329 200.12 49.4266 200.393 49.4266C200.667 49.4266 200.901 49.329 201.096 49.1337C201.311 48.9384 201.419 48.704 201.419 48.4305ZM234.612 42.1024C234.612 42.4149 234.505 42.6688 234.29 42.8641C234.075 43.0399 233.811 43.1278 233.499 43.1278H218.645V43.4501C218.645 44.6415 218.557 45.911 218.382 47.2587C218.206 48.6063 217.962 49.954 217.649 51.3016C217.356 52.6298 217.014 53.9286 216.624 55.1981C216.253 56.4677 215.862 57.6395 215.452 58.7137C215.061 59.788 214.671 60.7255 214.28 61.5262C213.889 62.3075 213.538 62.8934 213.225 63.2841C213.479 64.1825 213.782 65.0223 214.134 65.8036C214.485 66.5653 214.876 67.2391 215.305 67.8251C215.755 68.3915 216.233 68.8407 216.741 69.1727C217.249 69.5048 217.796 69.6708 218.382 69.6708C219.065 69.6708 219.739 69.3876 220.403 68.8212C221.087 68.2352 221.712 67.5516 222.278 66.7704C222.864 65.9696 223.372 65.1688 223.802 64.368C224.251 63.5477 224.573 62.8934 224.768 62.4052C224.964 61.9364 225.305 61.702 225.794 61.702C226.126 61.702 226.389 61.8192 226.585 62.0536C226.8 62.288 226.907 62.5419 226.907 62.8153C226.907 62.952 226.878 63.0887 226.819 63.2255C226.76 63.3622 226.614 63.6747 226.38 64.163C226.165 64.6512 225.872 65.2177 225.501 65.8622C225.149 66.5067 224.729 67.1903 224.241 67.913C223.772 68.6161 223.235 69.2606 222.63 69.8466C222.044 70.4325 221.409 70.9208 220.725 71.3114C220.042 71.702 219.319 71.8973 218.557 71.8973C217.21 71.8973 215.999 71.4579 214.925 70.579C213.85 69.7001 212.932 68.4696 212.171 66.8876C211.428 65.3055 210.862 63.4305 210.471 61.2626C210.081 59.0946 209.885 56.7216 209.885 54.1434C209.885 53.4989 209.895 52.7469 209.915 51.8876C209.934 51.0087 209.973 50.0907 210.032 49.1337C210.091 48.1571 210.178 47.161 210.296 46.1454C210.413 45.1102 210.569 44.1044 210.764 43.1278H200.247C199.934 43.1278 199.671 43.0399 199.456 42.8641C199.241 42.6688 199.134 42.4149 199.134 42.1024C199.134 41.7899 199.241 41.5458 199.456 41.37C199.671 41.1747 199.934 41.077 200.247 41.077H211.262C211.458 40.3739 211.682 39.7294 211.936 39.1434C212.21 38.5575 212.512 38.0497 212.844 37.62C213.196 37.1903 213.577 36.8583 213.987 36.6239C214.417 36.37 214.885 36.243 215.393 36.243C215.882 36.243 216.302 36.37 216.653 36.6239C217.024 36.8583 217.337 37.1903 217.591 37.62C217.844 38.0497 218.04 38.5575 218.177 39.1434C218.333 39.7294 218.45 40.3739 218.528 41.077H233.499C233.811 41.077 234.075 41.1747 234.29 41.37C234.505 41.5458 234.612 41.7899 234.612 42.1024ZM212.552 60.3544C213.137 59.0653 213.665 57.6786 214.134 56.1942C214.622 54.6903 215.032 53.1766 215.364 51.6532C215.716 50.1298 215.979 48.6356 216.155 47.1708C216.35 45.7059 216.448 44.3583 216.448 43.1278H212.991C212.718 44.3387 212.493 45.8427 212.317 47.6395C212.161 49.4169 212.083 51.5848 212.083 54.1434C212.083 55.5692 212.122 56.7704 212.2 57.7469C212.278 58.704 212.395 59.5731 212.552 60.3544ZM215.276 38.4403C215.1 38.4403 214.846 38.6356 214.514 39.0262C214.182 39.3973 213.85 40.0809 213.518 41.077H216.331C216.233 40.2567 216.087 39.6122 215.891 39.1434C215.716 38.6747 215.51 38.4403 215.276 38.4403ZM213.02 62.4637V62.493V62.4637ZM229.661 48.4305C229.661 49.1727 229.397 49.8075 228.87 50.3348C228.362 50.8427 227.737 51.0966 226.995 51.0966C226.253 51.0966 225.618 50.8427 225.091 50.3348C224.583 49.8075 224.329 49.1727 224.329 48.4305C224.329 48.0594 224.397 47.7177 224.534 47.4052C224.671 47.0731 224.856 46.7899 225.091 46.5555C225.344 46.3016 225.628 46.1063 225.94 45.9696C226.272 45.8329 226.624 45.7645 226.995 45.7645C227.366 45.7645 227.708 45.8329 228.02 45.9696C228.352 46.1063 228.635 46.3016 228.87 46.5555C229.124 46.7899 229.319 47.0731 229.456 47.4052C229.593 47.7177 229.661 48.0594 229.661 48.4305ZM224.915 65.5985C224.915 62.786 225.091 59.9833 225.442 57.1903C225.481 56.9169 225.598 56.6825 225.794 56.4872C226.009 56.2723 226.282 56.1649 226.614 56.1649C226.907 56.1649 227.151 56.2821 227.346 56.5165C227.542 56.7313 227.639 56.9852 227.639 57.2782C227.639 57.3954 227.61 57.7469 227.552 58.3329C227.512 58.9188 227.454 59.6219 227.376 60.4423C227.317 61.243 227.259 62.1024 227.2 63.0204C227.161 63.9188 227.141 64.7489 227.141 65.5106C227.141 66.5458 227.239 67.3856 227.434 68.0302C227.649 68.6552 227.913 69.1434 228.225 69.495C228.557 69.8466 228.899 70.0809 229.251 70.1981C229.622 70.3153 229.973 70.3739 230.305 70.3739C230.852 70.3739 231.419 70.1786 232.005 69.788C232.591 69.3973 233.186 68.8505 233.792 68.1473C234.417 67.4442 235.042 66.6044 235.667 65.6278C236.292 64.6317 236.907 63.5282 237.512 62.3173C237.61 62.1219 237.747 61.9755 237.923 61.8778C238.098 61.7606 238.294 61.702 238.509 61.702C238.821 61.702 239.075 61.8192 239.27 62.0536C239.485 62.288 239.593 62.5419 239.593 62.8153C239.593 63.0106 239.553 63.1766 239.475 63.3134C239.241 63.7626 238.948 64.3094 238.596 64.954C238.245 65.5985 237.844 66.2626 237.395 66.9462C236.946 67.6298 236.448 68.3134 235.901 68.9969C235.374 69.661 234.807 70.2665 234.202 70.8134C233.596 71.3407 232.962 71.7704 232.298 72.1024C231.634 72.4344 230.96 72.6005 230.276 72.6005C229.397 72.6005 228.626 72.4149 227.962 72.0438C227.298 71.6727 226.731 71.1747 226.262 70.5497C225.813 69.9247 225.471 69.1923 225.237 68.3524C225.022 67.493 224.915 66.5751 224.915 65.5985ZM228.02 48.4305C228.02 48.1571 227.913 47.9227 227.698 47.7274C227.503 47.5126 227.268 47.4052 226.995 47.4052C226.721 47.4052 226.487 47.5126 226.292 47.7274C226.096 47.9227 225.999 48.1571 225.999 48.4305C225.999 48.704 226.096 48.9384 226.292 49.1337C226.487 49.329 226.721 49.4266 226.995 49.4266C227.268 49.4266 227.503 49.329 227.698 49.1337C227.913 48.9384 228.02 48.704 228.02 48.4305ZM243.987 68.7919C244.3 68.1473 244.661 67.4442 245.071 66.6825C245.481 65.9012 245.921 65.12 246.389 64.3387C246.858 63.538 247.346 62.7469 247.854 61.9657C248.382 61.1844 248.928 60.4423 249.495 59.7391C250.061 59.0555 250.628 58.5673 251.194 58.2743C251.78 57.9618 252.327 57.8055 252.835 57.8055C253.85 57.8055 254.602 58.1766 255.091 58.9188C255.579 59.661 255.823 60.579 255.823 61.6727C255.823 61.9266 255.803 62.2391 255.764 62.6102C255.745 62.9618 255.716 63.3427 255.677 63.7528C255.657 64.163 255.628 64.5829 255.589 65.0126C255.569 65.4227 255.559 65.8134 255.559 66.1844C255.559 66.6532 255.579 67.1024 255.618 67.5321C255.677 67.9618 255.774 68.3427 255.911 68.6747C256.048 68.9872 256.243 69.2411 256.497 69.4364C256.751 69.6122 257.083 69.7001 257.493 69.7001C258.235 69.7001 258.958 69.4169 259.661 68.8505C260.364 68.2645 261.009 67.5809 261.594 66.7997C262.2 65.9989 262.718 65.1884 263.147 64.368C263.596 63.5477 263.928 62.8837 264.143 62.3759C264.241 62.161 264.378 61.995 264.553 61.8778C264.749 61.7606 264.954 61.702 265.169 61.702C265.501 61.702 265.764 61.829 265.96 62.0829C266.175 62.3173 266.282 62.5712 266.282 62.8446C266.282 62.9813 266.253 63.118 266.194 63.2548C266.116 63.411 265.96 63.7333 265.725 64.2216C265.491 64.7098 265.178 65.2762 264.788 65.9208C264.417 66.5458 263.977 67.2196 263.469 67.9423C262.962 68.6454 262.395 69.2899 261.77 69.8759C261.165 70.4618 260.501 70.9501 259.778 71.3407C259.075 71.7313 258.333 71.9266 257.552 71.9266C256.673 71.9266 255.96 71.7606 255.413 71.4286C254.866 71.077 254.436 70.6278 254.124 70.0809C253.811 69.5145 253.596 68.8993 253.479 68.2352C253.382 67.5516 253.333 66.868 253.333 66.1844C253.333 65.8915 253.343 65.5594 253.362 65.1884C253.401 64.8173 253.44 64.4266 253.479 64.0165C253.538 63.6063 253.577 63.1962 253.596 62.786C253.635 62.3759 253.655 61.9852 253.655 61.6141C253.655 60.9891 253.557 60.5692 253.362 60.3544C253.167 60.12 252.991 60.0028 252.835 60.0028C252.522 60.0028 252.161 60.1884 251.751 60.5594C251.36 60.911 250.94 61.3798 250.491 61.9657C250.061 62.5516 249.612 63.2157 249.143 63.9579C248.694 64.6805 248.264 65.4032 247.854 66.1259C247.464 66.8485 247.093 67.5419 246.741 68.2059C246.409 68.8505 246.145 69.3876 245.95 69.8173C245.559 70.6376 245.169 71.1844 244.778 71.4579C244.387 71.7509 243.987 71.8973 243.577 71.8973C243.01 71.8973 242.552 71.7313 242.2 71.3993C241.868 71.0477 241.702 70.5594 241.702 69.9344C241.702 69.7977 241.721 69.5341 241.76 69.1434C241.8 68.7333 241.848 68.2548 241.907 67.7079C241.966 67.1415 242.024 66.536 242.083 65.8915C242.141 65.2469 242.2 64.6122 242.259 63.9872C242.317 63.3427 242.366 62.7469 242.405 62.2001C242.444 61.6532 242.464 61.1942 242.464 60.8231C242.464 60.3348 242.444 59.8661 242.405 59.4169C242.366 58.9677 242.288 58.6942 242.171 58.5966C241.995 58.6552 241.682 59.0262 241.233 59.7098C240.784 60.3739 240.208 61.5555 239.505 63.2548C239.407 63.4696 239.26 63.6356 239.065 63.7528C238.87 63.87 238.665 63.9286 238.45 63.9286C238.118 63.9286 237.854 63.8212 237.659 63.6063C237.464 63.3719 237.366 63.1083 237.366 62.8153C237.366 62.6786 237.395 62.5321 237.454 62.3759C238.333 60.286 239.153 58.7528 239.915 57.7762C240.696 56.7802 241.468 56.2821 242.229 56.2821C242.678 56.2821 243.059 56.3993 243.372 56.6337C243.684 56.8485 243.928 57.1415 244.104 57.5126C244.3 57.8837 244.436 58.2938 244.514 58.743C244.612 59.1923 244.661 59.6512 244.661 60.12C244.661 60.4716 244.632 61.0184 244.573 61.7606C244.534 62.5028 244.475 63.3036 244.397 64.163C244.319 65.0028 244.241 65.8427 244.163 66.6825C244.104 67.5223 244.046 68.2255 243.987 68.7919ZM274.807 74.2997C278.479 69.5145 281.028 65.5399 282.454 62.3759C282.552 62.161 282.678 62.0048 282.835 61.9071C283.01 61.7899 283.206 61.7313 283.421 61.7313C283.753 61.7313 284.026 61.8485 284.241 62.0829C284.456 62.2977 284.563 62.5516 284.563 62.8446C284.563 62.9813 284.534 63.118 284.475 63.2548C283.616 65.2079 282.395 67.3856 280.813 69.788C279.231 72.1903 277.229 74.9052 274.807 77.9325C274.807 79.163 274.817 80.3934 274.837 81.6239C274.856 82.8544 274.866 84.202 274.866 85.6669C274.866 87.1317 274.827 88.577 274.749 90.0028C274.69 91.4481 274.573 92.8153 274.397 94.1044C274.221 95.413 273.977 96.6141 273.665 97.7079C273.372 98.8212 272.981 99.7782 272.493 100.579C272.024 101.399 271.448 102.034 270.764 102.483C270.1 102.952 269.309 103.186 268.391 103.186C267.083 103.186 266.077 102.688 265.374 101.692C264.671 100.696 264.319 99.2802 264.319 97.4442C264.319 96.4677 264.407 95.4032 264.583 94.2509C264.778 93.118 265.052 91.9462 265.403 90.7352C265.755 89.5243 266.175 88.2938 266.663 87.0438C267.171 85.8134 267.727 84.6122 268.333 83.4403C268.938 82.2684 269.593 81.1454 270.296 80.0712C271.018 78.9969 271.78 78.0204 272.581 77.1415C272.6 75.7743 272.61 74.4169 272.61 73.0692C272.63 71.7216 272.659 70.4813 272.698 69.3485C272.112 70.0907 271.409 70.6766 270.589 71.1063C269.788 71.536 268.987 71.7509 268.186 71.7509C267.503 71.7509 266.878 71.6239 266.311 71.37C265.764 71.0966 265.296 70.7255 264.905 70.2567C264.514 69.7684 264.212 69.202 263.997 68.5575C263.782 67.913 263.675 67.2098 263.675 66.4481C263.675 64.9247 263.928 63.5868 264.436 62.4344C264.964 61.2626 265.628 60.286 266.428 59.5048C267.229 58.7235 268.108 58.1376 269.065 57.7469C270.042 57.3563 270.979 57.161 271.878 57.161C272.483 57.161 273.04 57.2391 273.548 57.3954C274.055 57.5516 274.485 57.7274 274.837 57.9227C275.208 58.118 275.491 58.3036 275.686 58.4794C275.882 58.6552 275.989 58.7528 276.009 58.7723C276.223 59.0067 276.331 59.2704 276.331 59.5634C276.331 59.8563 276.223 60.12 276.009 60.3544C275.794 60.5692 275.54 60.6766 275.247 60.6766C274.973 60.6766 274.71 60.5692 274.456 60.3544C274.378 60.2958 274.27 60.2177 274.134 60.12C274.016 60.0028 273.85 59.8856 273.635 59.7684C273.44 59.6512 273.196 59.5536 272.903 59.4755C272.63 59.3973 272.298 59.3583 271.907 59.3583C271.321 59.3583 270.677 59.495 269.973 59.7684C269.27 60.0223 268.616 60.4325 268.01 60.9989C267.405 61.5653 266.897 62.2977 266.487 63.1962C266.077 64.0751 265.872 65.1395 265.872 66.3895C265.872 67.327 266.077 68.0887 266.487 68.6747C266.897 69.2411 267.532 69.5243 268.391 69.5243C268.802 69.5243 269.231 69.4071 269.68 69.1727C270.149 68.9384 270.598 68.577 271.028 68.0887C271.458 67.6005 271.829 66.9852 272.141 66.243C272.473 65.5009 272.708 64.6219 272.844 63.6063C272.884 63.3329 273.01 63.1083 273.225 62.9325C273.44 62.7372 273.694 62.6395 273.987 62.6395C274.319 62.6395 274.573 62.7567 274.749 62.9911C274.944 63.2255 275.042 63.4891 275.042 63.7821C275.042 63.8016 275.032 64.1044 275.012 64.6903C274.993 65.2567 274.973 66.0184 274.954 66.9755C274.934 67.9325 274.905 69.0458 274.866 70.3153C274.846 71.5653 274.827 72.8934 274.807 74.2997ZM272.581 80.7157C271.663 81.9852 270.833 83.3622 270.091 84.8466C269.348 86.3505 268.714 87.8641 268.186 89.3876C267.659 90.911 267.249 92.3856 266.956 93.8114C266.682 95.2567 266.546 96.5458 266.546 97.6786C266.546 98.4012 266.604 98.9774 266.721 99.4071C266.858 99.8368 267.014 100.169 267.19 100.403C267.385 100.638 267.591 100.794 267.805 100.872C268.04 100.95 268.255 100.989 268.45 100.989C269.055 100.989 269.583 100.745 270.032 100.257C270.481 99.7684 270.862 99.1141 271.175 98.2938C271.487 97.493 271.741 96.5653 271.936 95.5106C272.132 94.4559 272.278 93.3622 272.376 92.2294C272.473 91.1161 272.542 90.0028 272.581 88.8895C272.62 87.7762 272.639 86.7509 272.639 85.8134C272.639 84.9735 272.639 84.1337 272.639 83.2938C272.639 82.454 272.62 81.5946 272.581 80.7157Z" fill="#9E7D77"/>
</g>
<defs>
<filter id="filter0_i_327_218" x="0" y="0" width="304" height="304" filterUnits="userSpaceOnUse" color-interpolation-filters="sRGB">
<feFlood flood-opacity="0" result="BackgroundImageFix"/>
<feBlend mode="normal" in="SourceGraphic" in2="BackgroundImageFix" result="shape"/>
<feColorMatrix in="SourceAlpha" type="matrix" values="0 0 0 0 0 0 0 0 0 0 0 0 0 0 0 0 0 0 127 0" result="hardAlpha"/>
<feOffset dx="10" dy="4"/>
<feGaussianBlur stdDeviation="2"/>
<feComposite in2="hardAlpha" operator="arithmetic" k2="-1" k3="1"/>
<feColorMatrix type="matrix" values="0 0 0 0 0 0 0 0 0 0 0 0 0 0 0 0 0 0 0.25 0"/>
<feBlend mode="normal" in2="shape" result="effect1_innerShadow_327_218"/>
</filter>
<linearGradient id="paint0_linear_327_218" x1="150.5" y1="71" x2="150.5" y2="269" gradientUnits="userSpaceOnUse">
<stop stop-color="#E2C7F0"/>
<stop offset="1" stop-color="#FEC89A" stop-opacity="0"/>
</linearGradient>
</defs>
</svg>
