<svg width="364" height="358" viewBox="0 0 364 358" fill="none" xmlns="http://www.w3.org/2000/svg">
<g filter="url(#filter0_d_327_218)">
<path d="M320 0H30C13.4315 0 0 13.4315 0 30V320C0 336.569 13.4315 350 30 350H320C336.569 350 350 336.569 350 320V30C350 13.4315 336.569 0 320 0Z" fill="white"/>
<path fill-rule="evenodd" clip-rule="evenodd" d="M140.313 266.316C189.199 280.063 212.985 227.307 254.871 231.321C277.8 233.518 323.502 244.654 323.4 163.535C323.144 111.165 274.874 98.0513 225.097 124.908C210.449 130.637 198.885 128.862 186.329 123.17C173.774 117.479 157.626 92.0701 127.191 86.8429C35.6034 71.113 -42.7616 214.832 140.313 266.316Z" fill="url(#paint0_linear_327_218)" fill-opacity="0.7"/>
<path fill-rule="evenodd" clip-rule="evenodd" d="M256.484 134.561C257.402 134.115 259.047 134.98 258.092 136.372C255.979 139.453 264.153 145.609 261.529 140.185C261.249 139.605 259.81 135.594 261.846 137.665C263.882 139.735 266.72 148.886 264.884 152.039C263.273 154.806 259.009 156.122 253.189 156.278L252.927 156.284L252.804 156.291C249.373 156.451 246.771 154.328 245.091 150.192L245.011 149.991C243.311 145.662 243.777 142.193 246.526 139.853C246.576 139.811 246.63 139.773 246.686 139.739L246.772 139.692L256.484 134.561Z" fill="white"/>
<path fill-rule="evenodd" clip-rule="evenodd" d="M71.1321 53.5565C70.7317 52.989 70.0835 52.6619 69.3905 52.7463C68.6817 52.8327 68.0885 53.3259 67.8724 54.0063L67.815 54.1883C67.7712 54.3223 67.7194 54.4763 67.6582 54.6494C67.4846 55.1431 67.2733 55.6915 67.0241 56.2809C66.3157 57.9571 65.4434 59.6301 64.4028 61.186C62.1567 64.5441 59.45 66.8817 56.2776 67.7819C55.782 67.9223 55.4941 68.4385 55.6346 68.9345C55.706 69.1861 60.3395 71.5017 65.0692 70.9179C69.657 70.3518 74.3465 66.8929 74.3843 66.6577L74.4422 66.1672L74.4585 66.0029C74.7871 62.4395 74.1631 58.414 71.7635 54.5145C71.5643 54.1907 71.3538 53.8715 71.1321 53.5565Z" fill="#E7EAEE"/>
<path fill-rule="evenodd" clip-rule="evenodd" d="M80.6792 54.5935L80.655 54.782C80.3222 57.1947 79.3912 60.5542 77.7066 63.0887C75.6332 66.2088 72.7067 68.5949 69.7658 70.133C65.5228 72.3511 60.9052 72.7571 56.358 69.8754L56.1573 69.7462C53.768 68.1833 51.9545 67.431 49.4667 68.0517C46.9784 68.6728 45.7702 70.4849 44.6963 72.1663L44.647 72.2372C44.4749 72.4673 44.223 72.6264 43.9392 72.6824L39.2219 73.4296L40.9398 75.5636C41.4568 76.2109 41.8243 76.6771 42.0423 76.9627L43.9305 79.45C49.5577 86.8308 55.6136 93.8775 67.4231 91.4382L67.8235 91.3524C70.952 90.6566 73.5752 92.5246 76.8661 95.2775L77.5694 95.8697C78.4397 96.6066 81.0717 98.9264 82.1488 100.044L82.5006 100.413L82.8254 100.762C82.8931 100.836 82.9575 100.907 83.0186 100.975L83.3546 101.353L83.5609 101.11C85.7883 98.428 87.1836 94.3432 87.906 90.9739C88.1786 89.7008 88.3354 88.4819 88.4007 87.3572L88.4086 87.2107C88.4254 86.8817 88.4329 86.5947 88.4343 86.3553V86.177L88.0978 86.276C84.203 87.3806 79.8206 87.4902 75.5445 86.997C74.5118 86.8775 85.8429 77.7 83.517 65.8145C82.9869 63.106 82.6504 59.4842 81.7246 57.0258C81.4324 56.2502 81.13 55.5413 80.83 54.9076L80.6792 54.5935Z" fill="white"/>
<path fill-rule="evenodd" clip-rule="evenodd" d="M256.977 136.029L247.282 140.742C244.958 142.719 244.563 145.66 246.097 149.564C246.635 150.934 247.981 154.197 247.981 152.916C247.981 152.516 256.977 146.635 258.703 147.21C260.299 147.742 257.432 142.947 256.628 140.742L256.977 135.909L257.244 135.427" fill="#E7EAEE"/>
<path fill-rule="evenodd" clip-rule="evenodd" d="M244.042 139.566C244.686 139.566 241.036 141.283 241.224 144.45C241.412 147.617 243.887 153.453 243.285 153.683C242.683 153.913 241.542 152.212 241.312 151.61C239.881 147.865 239.61 146.337 239.661 144.152C239.728 141.293 241.232 139.566 244.042 139.566Z" fill="#E7EAEE"/>
<path d="M260.289 148.396C261.681 148.396 262.809 145.847 262.809 142.703C262.809 139.559 261.681 137.01 260.289 137.01C258.898 137.01 257.769 139.559 257.769 142.703C257.769 145.847 258.898 148.396 260.289 148.396Z" fill="#E7EAEE"/>
<path fill-rule="evenodd" clip-rule="evenodd" d="M84.2642 202.727C84.2642 192.849 85.3618 188.554 97.1474 183.163C121.302 173.4 121.302 173.024 167.577 155.133C179.815 150.426 205.614 161.701 216.833 156.976C224.313 153.826 231.307 151.487 237.486 148.362C238.085 152.27 241.953 158.885 243.315 160.022C236.079 161.541 229.08 163.889 222.316 167.068C207.696 173.938 216.36 172.066 193.202 193.904C191.24 195.754 184.028 199.974 173.601 204.37C173.601 204.37 152.601 201.55 144.178 198.046C135.606 194.481 122.619 183.163 122.619 183.163C122.619 183.163 107.47 193.046 98.7616 197.488C94.6858 199.567 84.2642 202.727 84.2642 202.727Z" fill="white"/>
<path fill-rule="evenodd" clip-rule="evenodd" d="M84.2637 197.594C84.2637 195.275 84.0187 193.657 84.2637 191.867C85.0626 186.032 88.1921 183.047 97.2113 178.921C121.366 169.158 121.302 167.89 167.576 150C179.814 145.292 205.614 156.568 216.833 151.843C224.312 148.693 231.307 146.353 237.486 143.229C237.503 143.341 236.86 148.68 236.86 148.68C236.86 148.68 221.605 156.736 211.515 158.444C200.794 160.259 186.067 151.843 171.363 155.982C148.97 162.286 97.3677 182.098 91.2627 187.064C86.4663 190.965 84.2637 197.594 84.2637 197.594Z" fill="#E7EAEE"/>
<path fill-rule="evenodd" clip-rule="evenodd" d="M71.1321 53.5565C70.7317 52.989 70.0835 52.6619 69.3905 52.7463C68.6817 52.8327 68.0885 53.3259 67.8724 54.0063L67.815 54.1883C67.7712 54.3223 67.7194 54.4763 67.6582 54.6494C67.4846 55.1431 67.2733 55.6915 67.0241 56.2809C66.3157 57.9571 65.4434 59.6301 64.4028 61.186C62.1567 64.5442 59.45 66.8817 56.2776 67.7819C55.782 67.9223 55.4941 68.4385 55.6346 68.9345C55.7755 69.4301 63.4835 65.9176 65.954 62.2239C67.0665 60.5611 67.9919 58.7859 68.7437 57.0079C68.9705 56.4713 69.1679 55.9659 69.3368 55.4997L69.419 55.2696C69.4853 55.082 69.5422 54.9135 69.5902 54.7647C69.6024 54.6587 69.6141 54.6233 69.6243 54.6583C74.9714 58.316 72.8695 67.3941 73.3828 67.4384C73.8733 67.4804 74.3073 67.1355 74.3843 66.6577L74.4422 66.1672L74.4585 66.0029C74.7871 62.4395 74.1631 58.414 71.7635 54.5145C71.5643 54.1907 71.3538 53.8715 71.1321 53.5565Z" fill="#E7EAEE"/>
<path fill-rule="evenodd" clip-rule="evenodd" d="M82.2654 53.5295L82.383 53.7399L82.5267 54.0097C82.6135 54.1758 82.7106 54.3685 82.8165 54.5865C83.1833 55.3411 83.5534 56.1951 83.908 57.1368C84.9067 59.7875 85.6044 62.6481 85.8428 65.6287C86.1662 69.6733 85.5824 73.4902 84.1036 76.9627L83.9771 77.2543C82.7759 79.9671 81.0259 82.4525 78.7542 84.6823L78.5288 84.9002L78.7201 84.9095C81.9919 85.0472 85.2273 84.7541 88.0712 83.8474C88.6811 83.6528 89.3461 83.7531 89.8716 84.1185C90.3961 84.4835 90.7218 85.0705 90.7545 85.7085L90.762 85.9063L90.7666 86.1681V86.2689C90.7666 86.6339 90.7559 87.0436 90.7298 87.4921C90.6584 88.7311 90.4866 90.0676 90.1875 91.4629C89.3424 95.4049 87.653 99.0967 84.8918 102.207C84.525 102.62 84.0098 102.868 83.4614 102.897L83.335 102.9C82.7498 102.889 82.215 102.647 81.8351 102.234L81.557 101.911L81.4207 101.756L81.1309 101.434L80.8136 101.091C80.703 100.974 80.5882 100.853 80.4692 100.73C79.4556 99.6786 78.3365 98.6365 77.1479 97.6775C73.8542 95.0194 70.6766 93.5186 67.963 93.6815C63.5245 93.9479 59.8486 93.7407 56.4382 92.7836C52.0296 91.5469 48.5674 89.1198 46.2765 85.2558L46.1481 85.0355C44.962 82.9673 43.2102 80.5845 41.1439 78.1046C40.5053 77.3379 39.8754 76.6089 39.2751 75.9351L39.0196 75.6495C38.6106 75.1945 38.2755 74.8319 38.135 74.6844C37.6165 74.1379 37.4363 73.3539 37.6628 72.6371L37.6961 72.5401C37.945 71.8704 38.5238 71.3739 39.2292 71.2343L43.0122 70.4867L43.0562 70.4233C44.4098 68.4992 46.3425 66.8696 48.9099 66.213C51.5876 65.5284 54.4054 66.1239 57.2432 67.9243L57.441 68.0517C61.2738 70.5586 65.0724 70.42 68.6844 68.5319C71.2642 67.1827 73.7235 64.8919 75.5864 62.0886C77.3192 59.4818 78.3486 56.6953 78.4224 54.4959C78.4527 53.5771 79.0869 52.7879 79.9782 52.563C80.8705 52.3371 81.8038 52.7324 82.2654 53.5295ZM80.6792 54.5935L80.6549 54.782C80.3226 57.1947 79.3912 60.5542 77.707 63.0887C75.6331 66.2088 72.7066 68.5949 69.7657 70.133C65.5232 72.3511 60.9051 72.7571 56.3579 69.8754L56.1572 69.7461C53.7679 68.1833 51.9544 67.431 49.4666 68.0517C46.9788 68.6728 45.7702 70.4849 44.6962 72.1663L44.647 72.2372C44.4749 72.4673 44.223 72.6264 43.9392 72.6824L39.2219 73.4295L40.9398 75.5636C41.4568 76.2109 41.8243 76.6771 42.0423 76.9627L43.9305 79.4505C49.5576 86.8308 55.6136 93.8775 67.423 91.4382L67.8234 91.3523C70.952 90.6565 73.5751 92.5246 76.866 95.2775L77.5693 95.8697C78.4396 96.6065 81.0716 98.9263 82.1487 100.044L82.5006 100.413L82.8254 100.762C82.893 100.836 82.9574 100.907 83.019 100.975L83.3546 101.353L83.5608 101.11C85.7882 98.4279 87.1836 94.3432 87.906 90.9739C88.179 89.7008 88.3353 88.4819 88.4006 87.3572L88.4086 87.2107C88.4254 86.8817 88.4328 86.5947 88.4342 86.3553V86.177L88.0978 86.2759C84.203 87.3805 79.8205 87.4902 75.5444 86.9969C74.5117 86.8779 85.8428 77.7 83.517 65.8145C82.9868 63.1059 82.6504 59.4841 81.7245 57.0257C81.4328 56.2501 81.13 55.5413 80.8299 54.9075L80.6792 54.5935Z" fill="#E7EAEE"/>
<path fill-rule="evenodd" clip-rule="evenodd" d="M51.1 75.6C52.0007 75.6 52.7333 74.8674 52.7333 73.9667C52.7333 73.066 52.0007 72.3334 51.1 72.3334C50.1993 72.3334 49.4667 73.066 49.4667 73.9667C49.4667 74.8674 50.1993 75.6 51.1 75.6Z" fill="#00160A"/>
<path d="M52.5 82.1333C53.9175 82.1333 55.0667 81.1931 55.0667 80.0333C55.0667 78.8735 53.9175 77.9333 52.5 77.9333C51.0825 77.9333 49.9333 78.8735 49.9333 80.0333C49.9333 81.1931 51.0825 82.1333 52.5 82.1333Z" fill="#FFB61D"/>
<path d="M52.5 82.1333C53.9175 82.1333 55.0667 81.1931 55.0667 80.0333C55.0667 78.8735 53.9175 77.9333 52.5 77.9333C51.0825 77.9333 49.9333 78.8735 49.9333 80.0333C49.9333 81.1931 51.0825 82.1333 52.5 82.1333Z" fill="#FED9B8"/>
<path fill-rule="evenodd" clip-rule="evenodd" d="M82.2658 53.5295L82.3834 53.7399L82.5272 54.0097C82.6135 54.1758 82.711 54.3685 82.817 54.5865C83.1838 55.3411 83.5538 56.1951 83.9085 57.1368C84.9072 59.7875 85.6048 62.6481 85.8433 65.6287C86.1667 69.6733 85.5829 73.4902 84.104 76.9627L83.9776 77.2543C82.7764 79.9671 81.0264 82.4525 78.7542 84.6823L78.5292 84.9002L78.7206 84.9095C81.9924 85.0472 85.2273 84.7541 88.0716 83.8474C88.6816 83.6528 89.3466 83.7531 89.872 84.1185C90.3966 84.4835 90.7223 85.0705 90.755 85.7085L90.7624 85.9063L90.7671 86.1681V86.2689C90.7671 86.6339 90.7564 87.0436 90.7302 87.4921C90.6584 88.7311 90.4866 90.0676 90.188 91.4629C89.3428 95.4049 87.6535 99.0967 84.8922 102.207C84.5254 102.62 84.0098 102.868 83.4619 102.897L83.3354 102.9C82.7498 102.889 82.2154 102.647 81.8356 102.234L81.5574 101.911L81.4212 101.756L81.1314 101.434L80.8136 101.091C80.7034 100.974 80.5886 100.853 80.4696 100.73C79.4556 99.6786 78.337 98.6365 77.1484 97.6775C73.8542 95.0194 70.6771 93.5186 67.9634 93.6815C63.5245 93.9479 59.849 93.7407 56.4386 92.7836C52.0296 91.5469 48.5678 89.1198 46.2769 85.2558L46.1484 85.0355C44.9624 82.9673 43.2106 80.5845 41.1442 78.1046C40.5057 77.3379 39.8758 76.6089 39.2754 75.9351L39.02 75.6495C38.611 75.1945 38.2759 74.8319 38.1355 74.6844C37.6169 74.1379 37.4366 73.3539 37.6632 72.6371L37.6965 72.5401C37.9453 71.8704 38.5242 71.3739 39.2296 71.2343L43.0125 70.4867L43.0566 70.4233C44.4102 68.4992 46.3429 66.8696 48.9099 66.213C51.4369 65.5667 54.089 66.0609 56.7644 67.6317C59.7277 66.6381 62.2724 64.3715 64.4028 61.1865C65.4439 59.6302 66.3161 57.9572 67.0245 56.2814C67.2737 55.6915 67.4846 55.1437 67.6587 54.6495C67.7198 54.4768 67.7716 54.3228 67.8155 54.1884L67.8729 54.0064C68.0885 53.326 68.6816 52.8327 69.391 52.7469C70.0835 52.6619 70.7322 52.9891 71.1321 53.557C71.3542 53.8715 71.5647 54.1912 71.764 54.5151C73.6264 57.5419 74.4193 60.6447 74.5271 63.5483C74.8976 63.0803 75.2518 62.5926 75.5869 62.0886C77.3192 59.4818 78.3491 56.6953 78.4224 54.4959C78.4532 53.5771 79.0874 52.7879 79.9787 52.563C80.871 52.3371 81.8043 52.7324 82.2658 53.5295ZM68.6849 68.5319C65.1765 70.3659 61.4917 70.5493 57.771 68.2607C60.276 67.1025 64.2954 64.7043 65.9544 62.2244C67.0665 60.5617 67.9924 58.786 68.7437 57.008C68.9705 56.4718 69.1679 55.9664 69.3373 55.4997L69.4194 55.2701C69.4852 55.0821 69.5422 54.9136 69.5907 54.7652C69.6028 54.6588 69.614 54.6233 69.6248 54.6583C73.1789 57.0901 73.4416 61.9164 73.3693 64.8923C71.9408 66.4169 70.3378 67.6676 68.6849 68.5319ZM69.7662 70.133C71.1895 69.3882 72.61 68.4451 73.9321 67.3157C74.0334 67.2569 74.1234 67.1785 74.1962 67.0861C75.5029 65.9339 76.7046 64.5969 77.707 63.0887C79.3916 60.5542 80.3226 57.1947 80.6554 54.782L80.6796 54.5935L80.8304 54.9075C81.1304 55.5413 81.4328 56.2501 81.725 57.0257C82.3694 58.7365 82.7283 61.0106 83.0657 63.1484V63.1489C83.2127 64.0827 83.356 64.9908 83.5174 65.8145C85.3001 74.9243 79.0598 82.4432 76.5128 85.512C75.7367 86.4472 75.3036 86.9689 75.5449 86.9969C79.821 87.4902 84.203 87.3805 88.0982 86.2759L88.4347 86.177V86.3553C88.4333 86.5947 88.4258 86.8817 88.409 87.2107L88.4011 87.3572C88.3358 88.4819 88.179 89.7008 87.9064 90.9739C87.184 94.3432 85.7887 98.4279 83.5613 101.11L83.355 101.353L83.019 100.975C82.9579 100.907 82.8935 100.836 82.8258 100.762L82.501 100.413L82.1492 100.044C81.0721 98.9263 78.4401 96.6065 77.5698 95.8697L76.8665 95.2775C73.5756 92.5246 70.9524 90.6565 67.8239 91.3523L67.4235 91.4382C55.614 93.8775 49.5581 86.8308 43.9308 79.4505L42.0427 76.9627C41.8247 76.6771 41.4572 76.2109 40.9402 75.5636L39.2223 73.4295L43.9395 72.6824C44.2234 72.6264 44.4752 72.4673 44.6474 72.2372L44.6966 72.1663C45.7706 70.4849 46.9788 68.6728 49.4671 68.0517C51.9549 67.431 53.7684 68.1833 56.1577 69.7461L56.3584 69.8754C60.9056 72.7571 65.5232 72.3511 69.7662 70.133ZM256.484 134.561C257.402 134.115 259.047 134.98 258.092 136.372C256.647 138.479 258.253 143.372 259.231 146.351V146.352V146.352C259.683 147.73 260.001 148.699 259.821 148.794C259.25 149.092 258.545 148.871 258.246 148.3C256.63 145.208 255.702 142.752 255.471 140.886C255.356 139.957 255.33 139.059 255.395 138.192L255.404 138.092L247.932 141.723L247.838 141.81C246.151 143.392 245.409 145.229 246.643 148.483L246.716 148.672C248.056 152.083 250.324 154.53 252.684 154.428L252.868 154.419C258.112 154.313 261.246 152.735 262.365 150.814C263.772 148.398 264.153 145.61 261.529 140.185C261.249 139.605 259.81 135.594 261.846 137.665C263.882 139.735 266.72 148.886 264.884 152.039C263.352 154.671 259.419 155.991 254.029 156.247C254.061 156.384 254.068 156.53 254.046 156.677C253.536 160.142 251.954 162.321 249.31 162.952C247.288 163.434 245.115 162.795 243.124 161.256C236.13 162.758 229.36 165.047 222.813 168.124L221.843 168.583C218.503 170.178 216.588 171.248 215.189 172.288C214.369 172.897 213.691 173.522 212.963 174.326L212.845 174.46C212.491 174.869 211.721 175.81 210.846 176.88L210.844 176.882L210.843 176.883L210.842 176.884L210.842 176.885L210.839 176.888L210.838 176.89C209.671 178.314 208.32 179.965 207.513 180.9L207.122 181.349C203.837 185.114 199.695 189.385 194.004 194.753L193.844 194.899C191.71 196.806 186.039 200.03 178.967 203.281C198.484 202.588 212.557 195.139 221.321 180.922C221.706 180.296 222.567 180.178 223.107 180.677C238.177 194.635 255.638 201.094 275.558 200.085C295.531 199.073 310.188 193.882 319.574 184.562C320.031 184.108 320.77 184.111 321.224 184.569C321.678 185.025 321.675 185.764 321.218 186.218C311.372 195.995 290.468 203.332 269.968 204.37C250.031 205.379 238.135 197.165 222.925 183.663L222.554 183.331L222.421 183.535C212.787 198.134 191.859 208.782 170.973 208.933L170.318 208.935C148.956 208.935 136.635 198.591 122.223 184.453L122.11 184.342L122.059 184.386L121.682 184.703L121.135 185.163L120.8 185.445C107.295 196.81 97.2183 205.29 82.06 207.457L81.5766 207.524C64.4858 210.982 38.5651 201.771 34.5818 197.256C30.9322 193.12 35.1892 195.691 36.3578 196.397C36.4646 196.462 36.5457 196.511 36.5925 196.537C47.9042 203.014 60.9466 205.48 76.5949 203.346C78.7542 203.051 80.9004 202.661 83.0326 202.176L83.0078 201.946C82.3246 195.457 82.3204 192.62 83.3051 189.365C84.644 184.937 87.8952 181.573 93.7435 178.898L95.354 178.185C102.578 175.002 108.315 172.612 114.266 170.289L114.702 170.119C115.369 169.86 116.045 169.598 116.736 169.334L117.412 169.076C117.656 168.989 120.836 167.728 125.672 165.811L125.674 165.811L125.686 165.806L125.689 165.805L125.69 165.804C136.868 161.373 156.868 153.444 169.915 148.4C172.737 147.314 176.154 146.953 180.346 147.17L180.707 147.19C183.847 147.375 186.936 147.801 191.999 148.677L196.447 149.456C201.415 150.316 203.822 150.655 206.632 150.855C207.515 150.918 208.355 150.996 209.152 151.07H209.153C212.108 151.345 214.486 151.566 216.381 150.768C218.067 150.058 219.719 149.373 221.338 148.701H221.338C226.633 146.504 231.573 144.456 236.156 142.177C236.471 140.139 237.274 138.634 238.532 137.642C240.474 136.114 243.222 136.088 245.606 137.015C246.206 137.249 246.504 137.925 246.27 138.525C246.195 138.719 245.709 138.63 245.022 138.503C243.586 138.238 241.269 137.811 239.976 139.475C238.538 141.328 238.06 144.165 239.334 149.751C240.257 153.799 246.241 160.682 248.769 160.682C251.587 160.682 252.246 157.946 252.62 156.394L252.643 156.297C249.291 156.384 246.745 154.263 245.092 150.193L245.011 149.991C243.311 145.663 243.777 142.193 246.526 139.853C246.576 139.811 246.63 139.773 246.686 139.74L246.773 139.693L256.484 134.561ZM240.971 159.147C240.853 159.004 240.736 158.858 240.621 158.708C240.577 158.661 240.535 158.614 240.499 158.57C240.393 158.441 240.284 158.31 240.172 158.176C239.268 157.09 238.221 155.832 237.4 154.017L237.281 153.753C235.965 150.805 235.808 147.493 235.889 144.763L235.901 144.446L235.832 144.481C230.395 147.172 224.48 149.871 218.088 152.579L217.287 152.918C214.55 154.071 211.132 154.885 206.801 154.605L206.466 154.582C203.507 154.371 201.018 154.018 195.8 153.112L191.904 152.429C180.92 150.527 175.423 150.23 170.894 151.924C170.894 151.924 103.352 177.331 94.7016 181.025C89.4408 183.431 87.6558 185.696 85.4802 189.365C84.3546 191.263 84.4685 196.498 84.5478 200.135V200.136C84.5609 200.745 84.573 201.31 84.5786 201.806C97.3494 198.612 109.626 191.972 121.415 181.872C121.88 181.474 122.573 181.503 123.003 181.937C123.957 182.902 124.927 183.834 125.913 184.732L174.551 164.412C174.684 164.356 174.822 164.327 174.958 164.322C175.324 164.15 175.72 164.007 176.143 163.894C180.384 162.766 183.771 164.601 186.111 169.116L190.351 166.024C190.976 165.568 191.864 165.836 192.133 166.561C196.001 177.017 194.874 184.181 188.504 187.638C182.079 191.124 176.492 188.25 172.136 179.536C171.916 179.095 172.003 178.584 172.308 178.239C171.27 174.021 171.077 170.66 171.784 168.226L129.17 187.538C135.542 192.711 142.539 196.613 150.166 199.244C150.34 199.077 150.529 198.933 150.715 198.832C157.139 195.313 172.967 191.203 176.876 190.187C177.215 190.099 177.463 190.035 177.61 189.995C179.444 189.504 177.565 191.218 177.011 191.474L176.94 191.504L153.839 200.399C160.712 202.357 168.07 203.335 175.918 203.335C176.365 203.335 176.808 203.332 177.249 203.325L177.766 202.989H177.766L177.767 202.988L177.768 202.988C182.708 199.777 190.968 194.408 192.402 193.055L193.072 192.423C197.828 187.807 201.368 183.38 204.458 179.515C207.848 175.274 210.696 171.712 214.016 169.322C216.596 167.463 217.531 167.039 219.73 166.041C220.318 165.774 220.996 165.466 221.821 165.079C227.651 162.338 234.273 160.752 240.488 159.263L240.971 159.147ZM176.743 166.149C180.103 165.256 182.621 166.834 184.539 171.241L179.582 175.17L179.577 175.172L174.455 177.193L174.327 176.631C172.925 170.273 173.838 166.921 176.743 166.149ZM184.539 171.241L179.586 175.169C179.686 175.13 179.788 175.105 179.89 175.094C179.984 175.084 180.078 175.085 180.169 175.098C180.387 175.127 180.593 175.217 180.763 175.359C180.875 175.453 180.97 175.567 181.042 175.701C182.211 177.807 183.115 178.308 184.032 177.793C185.004 177.248 185.309 175.2 184.599 171.541L184.539 171.241ZM120.278 219.144C120.82 218.795 124.56 216.971 121.23 220.401C117.899 223.83 91.9599 238.381 77.958 239.187C64.4625 239.963 52.4804 234.327 42.0552 226.951L41.7097 226.704L41.6408 226.793C41.1793 227.378 40.7051 227.909 40.2178 228.386L40.0082 228.587C39.1252 229.416 37.5969 230.354 35.3888 231.445C34.8111 231.73 32.7698 231.993 33.8261 230.915C34.8824 229.838 37.1942 228.287 38.5406 227.398C39.4205 226.817 39.6984 226.137 39.9741 225.463C40.1203 225.106 40.2658 224.749 40.5002 224.41C40.8765 223.866 41.63 223.743 42.1596 224.14C52.437 231.843 64.4424 235.949 77.958 235.171C91.5292 234.39 105.545 228.624 120.278 219.144ZM200.101 226.583C200.574 226.146 200.574 223.028 200.101 223.465C194.859 228.302 183.884 232.557 170.342 233.336C156.783 234.116 146.122 231.985 138.34 226.98C137.798 226.632 135.115 225.71 136.727 227.331C138.34 228.951 156.462 237.405 170.476 236.599L170.896 236.574C184.704 235.731 194.439 231.807 200.101 226.583ZM190.529 169.042L190.459 168.833L186.946 171.395L187.011 171.758C187.717 175.889 187.235 178.589 185.276 179.769L185.174 179.829C183.132 180.973 181.209 180.165 179.602 177.812L179.532 177.707L174.809 179.615L174.918 179.813C178.528 186.328 182.53 188.14 187.239 185.668L187.391 185.587C192.12 183.021 193.285 177.784 190.693 169.55L190.529 169.042ZM52.7338 73.9667C52.7338 74.8673 52.0011 75.6 51.1004 75.6C50.1998 75.6 49.4671 74.8673 49.4671 73.9667C49.4671 73.066 50.1998 72.3333 51.1004 72.3333C52.0011 72.3333 52.7338 73.066 52.7338 73.9667Z" fill="#00160A"/>
<path d="M97.7074 337.745L89.4066 305.665L86.4037 305.299V302.198H97.9271V305.299L94.2406 305.86L98.8793 325.416L99.9535 329.981L100.1 330.006L101.516 325.44L108.669 302.198H112.893L120.12 325.44L121.511 330.274H121.658L122.927 325.44L127.517 305.86L123.537 305.299V302.198H134.866V305.299L132.058 305.665L124.099 337.745H119.534L111.819 313.136L110.842 309.547H110.696L109.744 313.136L102.004 337.745H97.7074ZM137.869 337.745V334.669L141.848 333.985V315.113L137.869 314.43V311.329H146.145L146.56 314.698L146.609 315.162C147.357 313.811 148.277 312.753 149.368 311.988C150.474 311.223 151.736 310.841 153.152 310.841C153.656 310.841 154.169 310.89 154.69 310.987C155.227 311.069 155.609 311.15 155.837 311.231L155.203 315.699L151.858 315.504C150.588 315.423 149.522 315.715 148.66 316.383C147.797 317.034 147.13 317.913 146.658 319.02V333.985L150.637 334.669V337.745H137.869ZM158.596 337.745V334.669L162.576 333.985V315.113L158.596 314.43V311.329H167.385V333.985L171.365 334.669V337.745H158.596ZM162.331 304.811V299.659H167.385V304.811H162.331ZM184.011 338.16C182.058 338.16 180.504 337.59 179.348 336.451C178.209 335.296 177.639 333.456 177.639 330.934V314.894H173.464V311.329H177.639V304.957H182.449V311.329H188.186V314.894H182.449V330.934C182.449 332.203 182.701 333.139 183.205 333.741C183.71 334.343 184.385 334.645 185.232 334.645C185.801 334.645 186.436 334.596 187.136 334.498C187.836 334.384 188.381 334.286 188.772 334.205L189.431 337.354C188.731 337.566 187.869 337.753 186.843 337.916C185.834 338.079 184.89 338.16 184.011 338.16ZM192.336 337.745V334.669L196.316 333.985V315.113L192.336 314.43V311.329H201.125V333.985L205.105 334.669V337.745H192.336ZM196.072 304.811V299.659H201.125V304.811H196.072ZM208.425 337.745V334.669L212.405 333.985V315.113L208.425 314.43V311.329H216.702L217.043 315.26C217.922 313.86 219.021 312.778 220.339 312.013C221.674 311.231 223.188 310.841 224.88 310.841C227.729 310.841 229.934 311.679 231.496 313.355C233.059 315.016 233.84 317.587 233.84 321.07V333.985L237.82 334.669V337.745H225.051V334.669L229.031 333.985V321.168C229.031 318.84 228.567 317.188 227.639 316.212C226.728 315.235 225.328 314.747 223.44 314.747C222.056 314.747 220.828 315.081 219.753 315.748C218.695 316.415 217.849 317.327 217.214 318.482V333.985L221.194 334.669V337.745H208.425ZM252.59 348.414C251.321 348.414 249.945 348.235 248.464 347.877C246.983 347.535 245.681 347.063 244.558 346.461L245.803 342.726C246.698 343.198 247.756 343.588 248.977 343.897C250.198 344.207 251.386 344.361 252.541 344.361C254.69 344.361 256.26 343.759 257.253 342.555C258.262 341.35 258.767 339.633 258.767 337.403V334.889C257.904 335.995 256.871 336.834 255.666 337.403C254.462 337.973 253.079 338.258 251.516 338.258C249.368 338.258 247.512 337.729 245.95 336.671C244.387 335.597 243.183 334.107 242.336 332.203C241.506 330.283 241.091 328.061 241.091 325.538V325.025C241.091 322.193 241.506 319.711 242.336 317.579C243.183 315.447 244.387 313.795 245.95 312.623C247.512 311.435 249.384 310.841 251.565 310.841C253.225 310.841 254.682 311.166 255.935 311.817C257.188 312.468 258.238 313.412 259.084 314.649L259.524 311.329H263.577V337.403C263.577 339.682 263.145 341.643 262.283 343.287C261.436 344.931 260.191 346.192 258.547 347.071C256.92 347.966 254.934 348.414 252.59 348.414ZM252.712 334.352C254.161 334.352 255.373 334.026 256.35 333.375C257.327 332.708 258.132 331.772 258.767 330.567V318.409C258.148 317.286 257.343 316.399 256.35 315.748C255.357 315.081 254.161 314.747 252.761 314.747C251.231 314.747 249.954 315.187 248.928 316.065C247.919 316.944 247.162 318.157 246.658 319.703C246.153 321.233 245.901 323.007 245.901 325.025V325.538C245.901 328.191 246.462 330.323 247.585 331.935C248.708 333.546 250.417 334.352 252.712 334.352ZM262.844 315.26L260.964 311.329H266.848V314.405L262.844 315.26Z" fill="#9E7D77"/>
</g>
<defs>
<filter id="filter0_d_327_218" x="0" y="0" width="364" height="358" filterUnits="userSpaceOnUse" color-interpolation-filters="sRGB">
<feFlood flood-opacity="0" result="BackgroundImageFix"/>
<feColorMatrix in="SourceAlpha" type="matrix" values="0 0 0 0 0 0 0 0 0 0 0 0 0 0 0 0 0 0 127 0" result="hardAlpha"/>
<feOffset dx="10" dy="4"/>
<feGaussianBlur stdDeviation="2"/>
<feComposite in2="hardAlpha" operator="out"/>
<feColorMatrix type="matrix" values="0 0 0 0 0 0 0 0 0 0 0 0 0 0 0 0 0 0 0.25 0"/>
<feBlend mode="normal" in2="BackgroundImageFix" result="effect1_dropShadow_327_218"/>
<feBlend mode="normal" in="SourceGraphic" in2="effect1_dropShadow_327_218" result="shape"/>
</filter>
<linearGradient id="paint0_linear_327_218" x1="176.374" y1="85.647" x2="176.374" y2="268.607" gradientUnits="userSpaceOnUse">
<stop stop-color="#E2C7F0"/>
<stop offset="1" stop-color="#FEC89A" stop-opacity="0"/>
</linearGradient>
</defs>
</svg>
