<svg width="418" height="293" viewBox="0 0 418 293" fill="none" xmlns="http://www.w3.org/2000/svg">
<g filter="url(#filter0_d_328_463)">
<path d="M402 0H0V285H402V0Z" fill="white"/>
<path fill-rule="evenodd" clip-rule="evenodd" d="M178.385 238.043C162.741 243.599 144.4 244.052 127.045 242.47C93.4463 239.406 59.5164 227.858 42.8105 206.965C35.6044 197.954 31.965 187.735 29.4293 177.533C26.043 163.908 24.675 149.261 33.1846 136.81C40.3584 126.314 53.6713 118.677 66.9352 111.777C80.8364 104.546 95.8953 97.5148 113.016 96.0697C162.404 95.3762 157.401 108.53 208.98 87.6101C223.974 81.5286 268.553 91.9676 283.615 95.3762C298.677 98.7852 328.4 109.302 348.557 121.794C356.982 127.016 364.753 132.992 369.489 140.181C376.579 150.945 376.235 163.483 372.927 175.129C369.59 186.875 362.346 199.092 347.632 204.987C340.984 207.651 333.319 208.793 325.708 209.23C293.923 211.055 260.112 201.435 231.025 210.702C211.113 217.046 197.903 231.11 178.385 238.043Z" fill="url(#paint0_linear_328_463)"/>
<path fill-rule="evenodd" clip-rule="evenodd" d="M59.2049 141.356C65.1776 137.185 70.7911 132.885 74.5688 129.137C79.7691 123.978 87.3937 119.072 96.428 118.126C106.964 117.022 116.64 122.172 124.299 127.419C134.88 134.667 144.375 142.712 152.575 151.373C149.286 151.677 142.198 155.155 132.778 155.044C127.234 154.979 120.61 151.476 114.207 151.242C109.759 151.08 104.904 154.38 100.425 154.129C92.595 153.689 85.2711 149.601 78.666 148.862C74.7307 148.422 69.42 151.194 66.3954 150.638C58.082 149.109 55.6186 143.86 59.2049 141.356Z" fill="white"/>
<path fill-rule="evenodd" clip-rule="evenodd" d="M238.304 206.246C264.117 200.213 292.089 207.205 319.266 206.947C331.308 206.833 344.178 204.949 352.468 198.756C334.312 191.178 320.531 179.126 310.494 165.994C300.455 152.861 293.856 138.574 287.31 124.376C278.698 120.895 267.612 126.782 258.159 124.665C253.329 123.583 247.559 120.644 244.093 123.263C242 124.844 238.102 123.913 236.067 122.295C234.032 120.677 232.898 118.527 230.603 117.094C228.308 115.661 223.952 115.481 222.784 117.484C220.762 120.953 218.631 124.536 214.755 127.091C210.878 129.647 204.733 130.881 200.192 128.951C196.646 127.444 194.972 124.51 192.906 121.971C190.84 119.431 190.035 117.148 185.927 117.484C172.051 138.211 161.691 158.586 144.621 178.077C137.286 186.453 96.2447 218.381 72.3975 214.266C48.5504 210.151 50.3197 206.947 42.2665 201.888C50.6553 213.987 65.4745 223.507 82.395 229.66C99.3154 235.814 118.267 238.772 137.224 239.841C144.704 240.263 152.292 240.395 159.655 239.369C189.83 235.165 209.098 213.073 238.304 206.246Z" fill="white"/>
<path fill-rule="evenodd" clip-rule="evenodd" d="M212.426 125.404C215.071 122.982 216.723 120.068 219.448 117.691C222.172 115.314 226.596 113.472 230.717 114.39C234.553 115.244 236.663 118.081 238.373 120.661C239.232 121.956 241.842 122.056 243.723 121.537C245.604 121.017 247.295 120.078 249.301 119.923C253.453 119.602 256.58 122.651 260.638 123.353C266.675 124.398 272.744 120.03 278.71 121.263C281.235 121.784 283.421 123.281 286.044 123.153C280.998 114.577 277.197 105.647 271.899 97.1477C266.601 88.6487 259.614 80.446 249.442 74.586C248.396 73.9837 247.251 73.3871 245.915 73.2663C244.578 73.1454 243.029 73.6835 242.795 74.6244C242.098 77.4216 241.402 80.2187 240.705 83.0159C240.361 84.4006 239.451 86.1395 237.467 86.1129C236.146 86.0954 235.131 85.177 234.949 84.249C234.767 83.3211 235.206 82.3942 235.638 81.5088C236.992 78.7348 238.347 75.9605 239.702 73.1865C230.409 75.5637 222.354 79.9763 215.677 85.1382C209 90.3005 203.6 96.2167 198.424 102.183C193.992 107.291 189.699 112.459 185.548 117.684C191.115 117.124 195.964 120.364 199.113 123.666C200.998 125.642 203.242 127.996 206.606 127.987C208.978 127.981 210.975 126.734 212.426 125.404Z" fill="white"/>
<path fill-rule="evenodd" clip-rule="evenodd" d="M248.432 65.7035C247.815 65.5633 247.169 65.4037 246.749 65.0545C246.145 64.5518 246.185 63.8168 246.258 63.1587C246.976 56.6531 247.695 50.1471 248.413 43.6415C248.497 42.8876 249.54 42.332 250.595 42.2207C251.65 42.1093 252.711 42.3358 253.73 42.5596C260.301 44.0036 266.873 45.4476 273.444 46.8916C275.048 47.2439 275.134 48.8224 274.795 49.9886C274.458 51.1545 274.204 52.6517 275.64 53.2688C285.224 57.388 295.408 60.805 305.977 63.4479C306.66 63.6189 306.71 64.3553 306.233 64.7418C305.756 65.1282 304.995 65.2529 304.286 65.36C293.555 66.9834 283.055 69.3713 272.994 72.4759C271.587 72.9102 269.749 73.3073 268.686 72.5219C267.93 71.9629 268.003 71.0893 267.939 70.316C267.875 69.5431 267.394 68.617 266.31 68.5193C260.246 67.9729 254.252 67.029 248.432 65.7035ZM270.946 52.508C272.416 50.8577 271.368 48.3626 268.863 47.5513C262.925 45.6274 256.691 44.1594 250.309 43.1821C251.37 44.3426 251.313 45.8265 251.22 47.2078C250.861 52.5111 250.491 57.8634 248.538 62.9888C248.369 63.4323 249.173 63.7203 249.805 63.8206C255.466 64.7178 261.169 65.4809 266.901 66.1075C266.429 62.1904 265.957 58.2734 265.485 54.3564C265.432 53.9213 265.384 53.4664 265.617 53.0621C265.996 52.4073 267.049 52.0513 268.047 52.0311C269.045 52.011 270.01 52.2614 270.946 52.508ZM269.715 55.5955C270.166 60.1913 270.617 64.7874 271.068 69.3831C271.107 69.7863 271.174 70.2309 271.594 70.5037C280.732 67.8144 290.198 65.6864 299.852 64.152C289.391 62.0225 280.566 56.1967 269.715 55.5955Z" fill="#E2C7F0"/>
<path fill-rule="evenodd" clip-rule="evenodd" d="M178.385 238.043C162.741 243.6 144.4 244.052 127.045 242.47C93.4462 239.406 59.5168 227.858 42.8106 206.966C35.6045 197.954 31.965 187.735 29.4294 177.533C28.0383 171.936 25.3367 163.553 30.2836 159.749C31.3888 158.898 62.4402 141.17 74.5693 129.137C79.7696 123.978 87.3942 119.072 96.4285 118.126C106.965 117.022 116.641 122.172 124.299 127.419C134.88 134.667 144.375 142.712 152.575 151.373C143.539 148.651 137.036 142.995 131.034 137.487C125.032 131.98 118.83 126.217 110.042 123.112C101.255 120.009 89.0526 120.525 83.3458 126.189C69.7432 139.687 52.5365 151.354 32.9087 160.385C31.4325 161.065 31.299 162.534 31.3266 163.781C31.6457 178.182 33.9167 194.582 50.1669 203.226C63.7395 210.445 83.4423 209.503 98.3099 203.706C113.177 197.908 124.051 188.102 133.385 178.056C160.768 148.589 178.549 114.906 207.98 86.4488C214.746 79.9068 222.718 73.3647 233.618 70.8985C240.892 69.2531 242.931 62.673 242.797 57.261C242.663 51.8491 241.941 45.6957 247.242 41.8C246.124 50.7999 245.007 59.7998 243.89 68.7997C260.171 74.5301 269.68 86.7308 276.659 98.6297C287.022 116.299 294.057 134.897 304.967 152.399C315.877 169.902 331.364 186.72 354.257 196.857C364.854 187.077 370.896 171.42 370.896 162.472C364.854 157.803 356.27 150.498 346.227 147.209C334.255 143.289 321.121 150.162 311.504 156.56C316.819 150.823 323.2 144.786 332.606 143.162C340.198 141.85 348.323 143.806 354.623 147.085C360.922 150.363 365.725 154.85 370.434 159.271C375.195 160.385 376.234 163.484 372.927 175.129C369.59 186.875 362.346 199.092 347.632 204.987C340.984 207.651 333.319 208.793 325.708 209.23C293.923 211.055 260.112 201.435 231.025 210.702C211.113 217.046 197.903 231.11 178.385 238.043ZM238.305 206.246C264.118 200.212 292.089 207.205 319.267 206.947C331.308 206.833 344.179 204.949 352.468 198.756C334.313 191.178 320.532 179.126 310.494 165.993C300.456 152.861 293.857 138.574 287.311 124.376C278.699 120.895 267.613 126.782 258.16 124.665C253.329 123.583 247.56 120.644 244.093 123.263C242.001 124.844 238.103 123.913 236.068 122.295C234.033 120.677 232.899 118.527 230.604 117.094C228.309 115.661 223.953 115.48 222.785 117.484C220.763 120.953 218.632 124.535 214.755 127.091C210.879 129.647 204.733 130.881 200.193 128.951C196.647 127.444 194.973 124.51 192.907 121.97C190.841 119.431 187.419 116.892 183.311 117.228C169.435 137.955 153.913 158.127 136.843 177.619C129.508 185.994 121.744 194.362 111.239 200.821C100.733 207.28 87.0131 211.698 73.165 210.8C61.9899 210.075 51.8391 206.04 42.2673 201.888C50.6561 213.987 65.475 223.507 82.396 229.66C99.3165 235.814 118.268 238.772 137.225 239.841C144.705 240.263 152.292 240.395 159.656 239.369C189.831 235.165 209.099 213.073 238.305 206.246ZM211.891 123.884C214.536 121.462 216.188 118.548 218.912 116.171C221.636 113.794 226.061 111.952 230.182 112.87C234.018 113.724 236.128 116.561 237.838 119.141C238.696 120.436 241.306 120.536 243.187 120.017C245.068 119.497 246.759 118.558 248.766 118.403C252.917 118.082 256.044 121.131 260.102 121.833C266.14 122.878 272.208 118.51 278.175 119.743C280.7 120.264 282.885 121.761 285.509 121.633C280.463 113.057 276.69 104.613 271.392 96.1141C266.093 87.6151 254.585 72.5845 245.379 71.7463C236.068 70.8985 221.818 78.4563 215.141 83.6186C208.464 88.7805 203.064 94.6967 197.888 100.663C193.457 105.771 189.164 110.939 185.013 116.164C190.58 115.604 195.428 118.845 198.578 122.147C200.462 124.122 202.707 126.476 206.071 126.467C208.443 126.461 210.439 125.214 211.891 123.884Z" fill="#00160A"/>
<path fill-rule="evenodd" clip-rule="evenodd" d="M170.856 54.9613C165.008 55.3823 160.237 59.0223 157.827 63.949C157.201 65.2296 155.145 65.8209 151.537 66.0675L151.309 66.0824C143.321 66.5874 138.018 68.0458 135.462 71.3803L135.354 71.5232C135.146 71.8067 134.969 72.0898 134.708 72.537L134.54 72.8285C133.936 73.88 133.627 74.3246 133.111 74.7874C131.503 76.2287 129.083 76.6722 124.24 76.7756L123.703 76.7854C112.101 76.9686 103.904 78.2184 97.2652 81.5058C95.3656 82.4463 94.2347 83.3796 93.9817 84.5758C93.6912 85.9472 94.8152 87.3669 96.6092 88.1467C98.0446 88.7703 99.7662 89.0165 101.917 89.0211C104.533 89.0268 107.149 88.7038 109.608 88.0718L109.814 88.0186C110.184 87.921 110.535 87.8218 111.057 87.6686L112.163 87.3415C114.431 86.6761 115.532 86.4401 116.912 86.3888C119.041 86.3098 120.722 86.708 124.3 87.9476L125.053 88.2094C125.831 88.4796 126.394 88.668 126.945 88.8394L127.095 88.8854C133.098 90.7238 139.235 91.0313 149.203 90.4924L151.17 90.3799L155.525 90.1185C156.668 90.0528 157.487 90.0106 158.43 89.968L159.34 89.93C163.223 89.7803 167.368 89.778 174.136 89.8738L178.79 89.9426C188.12 90.0729 192.325 90.0379 196.81 89.7104C202.019 89.3304 205.411 86.7517 206.802 82.9316C207.929 79.8353 207.519 76.2227 205.949 74.5062C202.813 71.0786 198.132 69.0141 193.825 69.9652C192.397 70.2806 190.601 69.5373 189.684 68.3179C189.187 67.6556 188.934 67.0582 188.519 65.7195L188.318 65.0716C188.202 64.7052 188.117 64.4605 188.01 64.185C186.549 60.4363 182.558 57.2356 177.49 55.7467C175.267 55.0931 173.004 54.807 170.856 54.9613ZM176.875 56.7997C181.407 58.1312 185.007 60.9797 186.39 64.3157L186.46 64.4886C186.56 64.7444 186.64 64.9762 186.751 65.3288L187 66.1287C187.417 67.4572 187.7 68.1013 188.265 68.8541C189.486 70.4778 191.936 71.5137 194.169 71.0813L194.303 71.0539C197.758 70.2905 201.81 72.0776 204.6 75.1264C205.896 76.5426 206.269 79.8342 205.245 82.6466C204.008 86.0441 201.105 88.2512 196.645 88.5765L196.145 88.6118C192.038 88.8919 187.953 88.9257 179.527 88.8124L173.376 88.7228C167.031 88.638 163.029 88.646 159.25 88.7919L157.769 88.8561C156.711 88.9067 155.702 88.9625 154.054 89.0613L149.512 89.3319C139.674 89.8818 133.692 89.6184 127.984 87.9153L127.733 87.8389C127.255 87.693 126.778 87.536 126.153 87.3217L124.742 86.8323C121.094 85.5779 119.264 85.1599 116.828 85.2503C115.162 85.3123 113.917 85.5878 111.333 86.3516L110.19 86.689C109.738 86.8201 109.422 86.9071 109.06 86.9998C106.778 87.5866 104.349 87.8864 101.921 87.8811C100.04 87.8773 98.5886 87.6698 97.4491 87.1746C96.1702 86.6187 95.3849 85.6269 95.572 84.7453C95.7424 83.9386 96.6161 83.2177 98.1855 82.4406C104.421 79.3535 112.215 78.1363 123.288 77.933L123.739 77.9251C129.419 77.8354 132.294 77.3573 134.372 75.4946C134.961 74.9671 135.308 74.4944 135.87 73.533L136.305 72.7833C136.526 72.4124 136.681 72.1764 136.874 71.9249C139.03 69.1129 143.677 67.7707 150.807 67.2611L151.452 67.2178C155.724 66.9476 158.323 66.2454 159.294 64.4248L159.346 64.3226C161.572 59.7713 165.908 56.4634 171.018 56.0956C172.802 55.9671 174.71 56.1932 176.615 56.7252L176.875 56.7997Z" fill="#00160A"/>
<path fill-rule="evenodd" clip-rule="evenodd" d="M345.133 78.554L344.935 78.6946C344.784 78.804 344.634 78.9176 344.449 79.0624L343.713 79.6495C343.012 80.2066 342.633 80.4722 342.136 80.7375C341.056 81.3158 339.761 81.4944 338.9 81.1528C338.554 81.0156 338.296 80.8355 337.799 80.4019L337.428 80.0782C337.235 79.9125 337.098 79.8034 336.929 79.683C334.71 78.0976 330.835 78.0208 327.884 79.2828C325.576 80.2708 323.916 81.7836 322.099 84.1905C321.357 85.174 319.725 85.8538 317.783 86.0616C316.84 86.1627 315.848 86.1703 314.58 86.1034L313.959 86.067L312.009 85.9267C301.747 85.2089 291.252 86.2372 281.648 88.9006C280.132 89.3209 279.29 89.6975 278.755 90.399C277.984 91.4101 278.766 92.8777 280.413 92.9427C308.563 94.0485 336.83 93.6704 364.902 91.8133L366.683 91.6948L367.983 91.6317C368.103 91.6252 368.204 91.6191 368.328 91.6115L368.661 91.588C371.222 91.3866 372.629 90.7843 372.629 89.2745C372.629 87.8165 371.637 87.4175 369.134 87.2366L368.632 87.1994C367.663 87.1245 367.221 87.0683 366.622 86.9368C364.5 86.4705 361.971 85.4981 361.419 85.0125C360.603 84.2943 360.255 83.6182 359.759 82.0469L359.603 81.5495C359.081 79.9311 358.666 79.1589 357.684 78.2925C354.815 75.7648 348.695 76.0741 345.133 78.554ZM356.431 79.0073C357.245 79.7251 357.593 80.4012 358.088 81.9702L358.245 82.4676C358.767 84.0891 359.182 84.8612 360.167 85.7276C360.963 86.4283 363.746 87.498 366.146 88.0255L366.367 88.0726C366.941 88.1896 367.423 88.2497 368.265 88.3173L369.374 88.4021C370.789 88.5206 371.021 88.6635 371.021 89.2745C371.021 90.0182 370.261 90.3302 368.347 90.4651L367.858 90.4951L366.634 90.554C366.575 90.557 366.52 90.5605 366.466 90.5635L366.308 90.5738C337.804 92.5159 309.093 92.9275 280.502 91.8042C280.175 91.7917 279.906 91.2866 280.169 90.9412C280.466 90.5525 281.055 90.2891 282.234 89.9623C291.439 87.4091 301.488 86.3964 311.333 87.0265L312.537 87.1108L313.533 87.1834C313.765 87.1994 313.958 87.2115 314.171 87.2241C315.687 87.3137 316.869 87.3126 318.023 87.1891C320.428 86.9315 322.509 86.0647 323.517 84.7286C325.209 82.4874 326.713 81.1152 328.715 80.259C331.077 79.2486 334.141 79.3094 335.788 80.4859L335.884 80.5566C335.963 80.6162 336.043 80.6805 336.141 80.7637L336.45 81.0323C337.14 81.64 337.507 81.9063 338.115 82.1476C339.612 82.742 341.563 82.4725 343.105 81.6476C343.671 81.3447 344.087 81.0593 344.774 80.5186L345.631 79.8353C345.88 79.64 346.056 79.5089 346.26 79.3672C349.202 77.3186 354.227 77.0648 356.431 79.0073Z" fill="#00160A"/>
<path fill-rule="evenodd" clip-rule="evenodd" d="M242.796 57.261C242.663 51.8491 241.94 45.6957 247.241 41.8C246.124 50.7999 245.007 59.7998 243.889 68.7997C245.704 69.4381 242.998 70.5063 241.358 70.528C235.484 70.6047 242.93 62.673 242.796 57.261Z" fill="#E2C7F0"/>
<path d="M218.008 264.71C215.378 264.71 213.099 264.105 211.172 262.894C209.245 261.67 207.761 259.977 206.719 257.816C205.677 255.654 205.157 253.154 205.157 250.316V249.847C205.157 246.982 205.677 244.476 206.719 242.327C207.774 240.166 209.213 238.48 211.035 237.269C212.858 236.058 214.929 235.452 217.246 235.452C219.46 235.452 221.335 235.706 222.871 236.214C224.421 236.722 225.742 237.405 226.836 238.265V244.007H223.672L223.262 239.886C222.624 239.469 221.843 239.157 220.918 238.948C219.994 238.727 218.9 238.616 217.637 238.616C216.009 238.616 214.545 239.085 213.242 240.023C211.94 240.96 210.912 242.269 210.157 243.948C209.401 245.615 209.024 247.568 209.024 249.808V250.316C209.024 252.581 209.369 254.56 210.059 256.253C210.762 257.933 211.784 259.241 213.125 260.179C214.466 261.103 216.094 261.566 218.008 261.566C219.31 261.566 220.41 261.455 221.309 261.234C222.207 260.999 223.002 260.7 223.692 260.335V253.655L218.242 253.46V250.628H227.539V261.644C226.719 262.412 225.541 263.115 224.004 263.753C222.481 264.391 220.482 264.71 218.008 264.71ZM241.465 264.71C239.512 264.71 237.826 264.254 236.407 263.343C235 262.418 233.913 261.149 233.145 259.534C232.377 257.907 231.992 256.051 231.992 253.968V253.538C231.992 251.455 232.377 249.606 233.145 247.991C233.913 246.364 235 245.088 236.407 244.163C237.826 243.239 239.499 242.777 241.426 242.777C243.379 242.777 245.059 243.239 246.465 244.163C247.884 245.088 248.978 246.357 249.746 247.972C250.515 249.586 250.899 251.442 250.899 253.538V253.968C250.899 256.064 250.515 257.926 249.746 259.554C248.978 261.168 247.891 262.431 246.485 263.343C245.078 264.254 243.405 264.71 241.465 264.71ZM241.465 261.702C242.689 261.702 243.711 261.37 244.532 260.706C245.365 260.029 245.99 259.111 246.407 257.952C246.836 256.78 247.051 255.452 247.051 253.968V253.538C247.051 252.054 246.836 250.732 246.407 249.573C245.99 248.402 245.365 247.484 244.532 246.82C243.698 246.142 242.663 245.804 241.426 245.804C240.202 245.804 239.173 246.142 238.34 246.82C237.507 247.484 236.882 248.402 236.465 249.573C236.048 250.732 235.84 252.054 235.84 253.538V253.968C235.84 255.452 236.048 256.78 236.465 257.952C236.882 259.111 237.507 260.029 238.34 260.706C239.186 261.37 240.228 261.702 241.465 261.702ZM261.094 264.71C258.894 264.71 257.22 264.176 256.074 263.109C254.929 262.028 254.356 260.511 254.356 258.558C254.356 257.217 254.72 256.051 255.449 255.062C256.192 254.059 257.259 253.284 258.653 252.737C260.046 252.178 261.713 251.898 263.653 251.898H267.422V249.827C267.422 248.551 267.032 247.562 266.25 246.859C265.482 246.155 264.395 245.804 262.989 245.804C262.103 245.804 261.335 245.915 260.684 246.136C260.033 246.344 259.44 246.637 258.907 247.015L258.496 249.964H255.528V245.12C256.478 244.352 257.585 243.773 258.848 243.382C260.111 242.978 261.511 242.777 263.047 242.777C265.612 242.777 267.624 243.389 269.082 244.612C270.541 245.836 271.27 247.588 271.27 249.866V260.042C271.27 260.316 271.27 260.583 271.27 260.843C271.283 261.103 271.302 261.364 271.328 261.624L273.379 261.839V264.3H267.852C267.735 263.727 267.644 263.213 267.578 262.757C267.513 262.301 267.468 261.846 267.442 261.39C266.699 262.34 265.769 263.135 264.649 263.773C263.542 264.398 262.357 264.71 261.094 264.71ZM261.66 261.487C262.936 261.487 264.102 261.181 265.157 260.57C266.211 259.958 266.966 259.222 267.422 258.362V254.534H263.516C261.745 254.534 260.417 254.958 259.532 255.804C258.646 256.65 258.203 257.594 258.203 258.636C258.203 259.56 258.49 260.27 259.063 260.765C259.636 261.247 260.502 261.487 261.66 261.487ZM276.172 264.3V261.839L279.356 261.292V236.859L276.172 236.312V233.831H283.203V261.292L286.387 261.839V264.3H276.172ZM297.696 264.71C296.276 264.71 294.948 264.567 293.711 264.28C292.474 263.994 291.159 263.551 289.766 262.952L289.727 257.933H292.637L293.36 260.96C294.089 261.26 294.792 261.481 295.469 261.624C296.159 261.754 296.901 261.82 297.696 261.82C299.258 261.82 300.378 261.52 301.055 260.921C301.732 260.322 302.071 259.58 302.071 258.695C302.071 257.861 301.726 257.158 301.035 256.585C300.358 255.999 299.121 255.504 297.324 255.101C294.772 254.515 292.891 253.734 291.68 252.757C290.482 251.767 289.883 250.452 289.883 248.812C289.883 247.666 290.215 246.644 290.879 245.745C291.543 244.834 292.468 244.111 293.653 243.577C294.838 243.043 296.218 242.777 297.793 242.777C299.395 242.777 300.762 242.959 301.895 243.323C303.041 243.688 304.037 244.176 304.883 244.788L305.078 249.612H302.188L301.563 246.8C301.107 246.461 300.567 246.201 299.942 246.019C299.317 245.836 298.601 245.745 297.793 245.745C296.595 245.745 295.619 246.025 294.864 246.585C294.121 247.145 293.75 247.848 293.75 248.695C293.75 249.189 293.854 249.619 294.063 249.984C294.284 250.348 294.701 250.68 295.313 250.98C295.925 251.266 296.823 251.553 298.008 251.839C300.951 252.529 303.002 253.408 304.16 254.476C305.332 255.543 305.918 256.859 305.918 258.421C305.918 260.205 305.254 261.702 303.926 262.913C302.611 264.111 300.534 264.71 297.696 264.71Z" fill="#9E7D77"/>
</g>
<defs>
<filter id="filter0_d_328_463" x="0" y="0" width="418" height="293" filterUnits="userSpaceOnUse" color-interpolation-filters="sRGB">
<feFlood flood-opacity="0" result="BackgroundImageFix"/>
<feColorMatrix in="SourceAlpha" type="matrix" values="0 0 0 0 0 0 0 0 0 0 0 0 0 0 0 0 0 0 127 0" result="hardAlpha"/>
<feOffset dx="12" dy="4"/>
<feGaussianBlur stdDeviation="2"/>
<feComposite in2="hardAlpha" operator="out"/>
<feColorMatrix type="matrix" values="0 0 0 0 0 0 0 0 0 0 0 0 0 0 0 0 0 0 0.25 0"/>
<feBlend mode="normal" in2="BackgroundImageFix" result="effect1_dropShadow_328_463"/>
<feBlend mode="normal" in="SourceGraphic" in2="effect1_dropShadow_328_463" result="shape"/>
</filter>
<linearGradient id="paint0_linear_328_463" x1="200.998" y1="85.7442" x2="200.998" y2="243.263" gradientUnits="userSpaceOnUse">
<stop stop-color="#EEDBF1"/>
<stop offset="1" stop-color="#FED9B8" stop-opacity="0"/>
</linearGradient>
</defs>
</svg>
