<svg width="314" height="308" viewBox="0 0 314 308" fill="none" xmlns="http://www.w3.org/2000/svg">
<g filter="url(#filter0_d_609_587)">
<path d="M240 0H60C26.8629 0 0 26.8629 0 60V240C0 273.137 26.8629 300 60 300H240C273.137 300 300 273.137 300 240V60C300 26.8629 273.137 0 240 0Z" fill="white"/>
<path d="M109.635 238.032C111.035 238.423 112.223 238.87 113.199 239.375C114.192 239.88 115.022 240.409 115.689 240.962C116.373 241.499 116.91 242.052 117.301 242.622C117.691 243.192 117.993 243.737 118.204 244.258C118.416 244.779 118.546 245.267 118.595 245.723C118.66 246.162 118.692 246.536 118.692 246.846C118.692 247.985 118.473 249.002 118.033 249.897C117.61 250.793 117.032 251.582 116.3 252.266C115.567 252.949 114.713 253.527 113.736 253.999C112.776 254.471 111.767 254.854 110.709 255.146C109.651 255.456 108.569 255.675 107.462 255.806C106.355 255.952 105.305 256.025 104.312 256.025C102.701 256.025 101.033 255.863 99.3076 255.537C97.5986 255.212 95.8652 254.683 94.1074 253.95C93.7168 253.787 93.5215 253.503 93.5215 253.096C93.5215 252.819 93.6191 252.599 93.8145 252.437C94.0098 252.257 94.2214 252.168 94.4492 252.168C94.5632 252.168 94.6852 252.192 94.8154 252.241C96.3291 252.876 97.8835 253.356 99.4785 253.682C101.074 254.007 102.677 254.17 104.288 254.17C106.485 254.17 108.373 253.958 109.952 253.535C111.531 253.112 112.825 252.559 113.834 251.875C114.859 251.175 115.616 250.394 116.104 249.531C116.593 248.652 116.837 247.765 116.837 246.87C116.837 245.877 116.56 244.958 116.007 244.111C115.47 243.265 114.697 242.508 113.688 241.841C112.695 241.174 111.498 240.604 110.099 240.132C108.699 239.66 107.145 239.31 105.436 239.082C104.312 239.277 103.222 239.416 102.164 239.497C101.106 239.578 100.13 239.619 99.2344 239.619H98.6729C98.5589 239.619 98.4531 239.611 98.3555 239.595C97.1836 242.41 95.7839 244.844 94.1562 246.895C92.5449 248.945 90.8197 250.646 88.9805 251.997C87.1576 253.332 85.2777 254.325 83.3408 254.976C81.4202 255.61 79.5729 255.928 77.7988 255.928C75.9596 255.928 74.2669 255.667 72.7207 255.146C71.1908 254.642 69.8724 253.918 68.7656 252.974C67.6589 252.03 66.7962 250.89 66.1777 249.556C65.5592 248.205 65.25 246.699 65.25 245.039C65.25 243.314 65.5837 241.532 66.251 239.692C66.9346 237.837 67.9437 235.957 69.2783 234.053C70.5479 232.262 71.9557 230.659 73.502 229.243C75.0482 227.811 76.6676 226.558 78.3604 225.483C80.0693 224.409 81.8271 223.49 83.6338 222.725C85.4404 221.96 87.2308 221.333 89.0049 220.845C90.7952 220.356 92.5368 220.007 94.2295 219.795C95.9385 219.567 97.5417 219.453 99.0391 219.453C100.26 219.453 101.424 219.494 102.53 219.575C103.637 219.657 104.695 219.779 105.704 219.941C106.29 219.29 106.762 218.826 107.12 218.55C107.478 218.257 107.682 218.094 107.73 218.062C107.926 217.964 108.097 217.915 108.243 217.915C108.471 217.915 108.674 217.98 108.854 218.11C109.033 218.241 109.122 218.428 109.122 218.672C109.122 218.997 109.008 219.274 108.78 219.502C108.552 219.714 108.243 220.007 107.853 220.381C110.831 221.113 113.11 222.22 114.688 223.701C116.267 225.166 117.057 226.981 117.057 229.146C117.057 230.334 116.861 231.4 116.471 232.344C116.08 233.288 115.543 234.118 114.859 234.834C114.192 235.55 113.403 236.177 112.491 236.714C111.596 237.235 110.644 237.674 109.635 238.032ZM105.46 237.227C106.176 237.096 106.909 236.925 107.657 236.714C108.422 236.502 109.163 236.25 109.879 235.957C110.611 235.648 111.303 235.29 111.954 234.883C112.605 234.46 113.167 233.971 113.639 233.418C114.127 232.848 114.509 232.214 114.786 231.514C115.079 230.814 115.226 230.016 115.226 229.121C115.226 227.298 114.469 225.793 112.955 224.604C111.441 223.416 109.269 222.537 106.437 221.968C105.623 222.977 104.858 224.092 104.142 225.312C103.425 226.533 102.766 227.803 102.164 229.121C101.562 230.423 101.017 231.75 100.528 233.101C100.056 234.435 99.6657 235.729 99.3564 236.982C99.682 236.966 99.9831 236.958 100.26 236.958C100.536 236.958 100.772 236.958 100.968 236.958C101.603 236.958 102.294 236.982 103.043 237.031C103.792 237.064 104.597 237.129 105.46 237.227ZM104.361 221.626C103.531 221.512 102.677 221.431 101.798 221.382C100.919 221.333 99.9993 221.309 99.0391 221.309C97.6068 221.309 96.085 221.414 94.4736 221.626C92.8623 221.838 91.2103 222.171 89.5176 222.627C87.8249 223.083 86.1159 223.677 84.3906 224.409C82.6816 225.125 81.0133 225.996 79.3857 227.021C77.7744 228.031 76.2363 229.211 74.7715 230.562C73.3066 231.912 71.972 233.434 70.7676 235.127C69.5469 236.852 68.6273 238.553 68.0088 240.229C67.3903 241.906 67.0811 243.501 67.0811 245.015C67.0811 246.431 67.3333 247.7 67.8379 248.823C68.3587 249.946 69.0911 250.898 70.0352 251.68C70.9792 252.445 72.1104 253.039 73.4287 253.462C74.7471 253.869 76.2038 254.072 77.7988 254.072C79.3939 254.072 81.054 253.787 82.7793 253.218C84.5046 252.632 86.1891 251.745 87.833 250.557C89.4769 249.352 91.0394 247.839 92.5205 246.016C94.0016 244.176 95.2956 241.995 96.4023 239.473C96.1094 239.473 95.8083 239.391 95.499 239.229C95.1898 239.049 95.0352 238.773 95.0352 238.398C95.0352 238.008 95.2223 237.731 95.5967 237.568C95.971 237.389 96.557 237.243 97.3545 237.129C97.7939 235.794 98.2415 234.46 98.6973 233.125C99.153 231.79 99.6576 230.472 100.211 229.17C100.764 227.868 101.375 226.59 102.042 225.337C102.709 224.067 103.482 222.83 104.361 221.626ZM130.436 252.266C129.866 253.193 129.199 253.926 128.434 254.463C127.685 255 126.928 255.269 126.163 255.269C125.545 255.269 124.991 255.155 124.503 254.927C124.015 254.699 123.591 254.382 123.233 253.975C122.875 253.551 122.599 253.047 122.403 252.461C122.224 251.875 122.135 251.216 122.135 250.483C122.135 249.344 122.241 248.335 122.452 247.456C122.68 246.577 122.924 245.845 123.185 245.259C123.445 244.657 123.689 244.201 123.917 243.892C124.145 243.582 124.259 243.428 124.259 243.428C124.34 243.33 124.438 243.257 124.552 243.208C124.682 243.159 124.812 243.135 124.942 243.135C125.203 243.135 125.414 243.232 125.577 243.428C125.756 243.607 125.846 243.818 125.846 244.062C125.846 244.16 125.821 244.258 125.772 244.355C125.74 244.453 125.699 244.551 125.65 244.648C125.569 244.795 125.439 245.023 125.26 245.332C125.081 245.625 124.894 246.016 124.698 246.504C124.503 246.992 124.332 247.57 124.186 248.237C124.039 248.888 123.966 249.637 123.966 250.483C123.966 251.444 124.153 252.176 124.527 252.681C124.918 253.169 125.463 253.413 126.163 253.413C126.456 253.413 126.79 253.324 127.164 253.145C127.555 252.949 127.929 252.656 128.287 252.266C128.661 251.875 128.987 251.379 129.264 250.776C129.54 250.174 129.719 249.466 129.801 248.652L130.167 244.453C130.2 244.209 130.305 244.006 130.484 243.843C130.663 243.68 130.875 243.599 131.119 243.599C131.396 243.599 131.616 243.704 131.778 243.916C131.941 244.111 132.022 244.339 132.022 244.6L131.705 248.652C131.673 248.994 131.681 249.442 131.729 249.995C131.795 250.549 131.917 251.094 132.096 251.631C132.275 252.168 132.543 252.632 132.901 253.022C133.259 253.397 133.731 253.584 134.317 253.584C134.741 253.584 135.156 253.478 135.562 253.267C135.969 253.039 136.36 252.746 136.734 252.388C137.109 252.03 137.451 251.631 137.76 251.191C138.085 250.736 138.378 250.28 138.639 249.824C138.915 249.368 139.151 248.937 139.347 248.53C139.542 248.107 139.705 247.749 139.835 247.456C139.916 247.277 140.03 247.139 140.177 247.041C140.323 246.943 140.486 246.895 140.665 246.895C140.958 246.895 141.186 246.992 141.349 247.188C141.511 247.383 141.593 247.594 141.593 247.822C141.593 247.952 141.568 248.075 141.52 248.188C141.454 248.319 141.324 248.595 141.129 249.019C140.95 249.425 140.706 249.897 140.396 250.435C140.104 250.955 139.745 251.509 139.322 252.095C138.899 252.681 138.427 253.226 137.906 253.73C137.385 254.219 136.816 254.626 136.197 254.951C135.595 255.26 134.944 255.415 134.244 255.415C133.284 255.415 132.486 255.146 131.852 254.609C131.217 254.056 130.745 253.275 130.436 252.266ZM149.332 247.896C150.13 251.655 151.285 253.535 152.799 253.535C153.385 253.535 153.946 253.324 154.483 252.9C155.021 252.461 155.517 251.932 155.973 251.313C156.445 250.679 156.86 250.011 157.218 249.312C157.576 248.612 157.869 248.001 158.097 247.48C158.259 247.09 158.544 246.895 158.951 246.895C159.212 246.895 159.431 246.992 159.61 247.188C159.789 247.383 159.879 247.594 159.879 247.822C159.879 247.952 159.854 248.066 159.806 248.164C159.692 248.441 159.521 248.815 159.293 249.287C159.081 249.743 158.813 250.239 158.487 250.776C158.178 251.297 157.828 251.834 157.438 252.388C157.047 252.941 156.616 253.438 156.144 253.877C155.672 254.316 155.167 254.683 154.63 254.976C154.109 255.252 153.556 255.391 152.97 255.391C151.879 255.391 150.943 255.016 150.162 254.268C149.381 253.503 148.705 252.249 148.136 250.508C147.354 252.168 146.565 253.372 145.768 254.121C144.97 254.87 144.107 255.244 143.18 255.244C142.691 255.244 142.219 255.163 141.764 255C141.308 254.854 140.909 254.601 140.567 254.243C140.226 253.885 139.949 253.429 139.737 252.876C139.526 252.306 139.42 251.615 139.42 250.801C139.42 249.678 139.615 248.644 140.006 247.7C140.396 246.756 140.901 245.951 141.52 245.283C142.138 244.6 142.822 244.071 143.57 243.696C144.335 243.322 145.092 243.135 145.841 243.135C146.085 243.135 146.297 243.224 146.476 243.403C146.655 243.566 146.744 243.778 146.744 244.038C146.744 244.266 146.671 244.469 146.524 244.648C146.378 244.827 146.183 244.933 145.938 244.966C145.45 245.031 144.929 245.186 144.376 245.43C143.823 245.674 143.31 246.032 142.838 246.504C142.382 246.96 142 247.546 141.69 248.262C141.397 248.978 141.251 249.832 141.251 250.825C141.251 251.639 141.414 252.274 141.739 252.729C142.081 253.185 142.569 253.413 143.204 253.413C143.465 253.413 143.741 253.348 144.034 253.218C144.327 253.071 144.636 252.795 144.962 252.388C145.304 251.981 145.67 251.403 146.061 250.654C146.467 249.906 146.915 248.921 147.403 247.7C147.127 246.268 146.874 244.616 146.646 242.744C146.419 240.872 146.305 238.781 146.305 236.47C146.305 235.461 146.337 234.411 146.402 233.32C146.467 232.214 146.573 231.139 146.72 230.098C146.866 229.04 147.062 228.039 147.306 227.095C147.55 226.151 147.843 225.321 148.185 224.604C148.543 223.888 148.958 223.327 149.43 222.92C149.902 222.497 150.439 222.285 151.041 222.285C151.578 222.285 152.034 222.432 152.408 222.725C152.783 223.018 153.084 223.424 153.312 223.945C153.556 224.466 153.735 225.093 153.849 225.825C153.963 226.558 154.02 227.363 154.02 228.242C154.02 230.13 153.857 232.018 153.531 233.906C153.206 235.794 152.799 237.601 152.311 239.326C151.839 241.051 151.334 242.646 150.797 244.111C150.26 245.576 149.771 246.838 149.332 247.896ZM152.188 228.218C152.188 227.811 152.172 227.371 152.14 226.899C152.123 226.427 152.066 225.988 151.969 225.581C151.887 225.158 151.773 224.808 151.627 224.531C151.48 224.255 151.285 224.116 151.041 224.116C150.634 224.116 150.252 224.474 149.894 225.19C149.552 225.907 149.251 226.851 148.99 228.022C148.73 229.178 148.518 230.496 148.355 231.978C148.209 233.442 148.136 234.924 148.136 236.421C148.136 237.853 148.193 239.285 148.307 240.718C148.421 242.15 148.551 243.428 148.697 244.551C149.169 243.298 149.617 242.012 150.04 240.693C150.463 239.359 150.829 238 151.139 236.616C151.464 235.233 151.716 233.841 151.896 232.441C152.091 231.025 152.188 229.618 152.188 228.218ZM176.993 248.188C176.928 248.319 176.79 248.595 176.578 249.019C176.383 249.425 176.122 249.897 175.797 250.435C175.488 250.972 175.121 251.533 174.698 252.119C174.275 252.705 173.803 253.242 173.282 253.73C172.761 254.219 172.2 254.626 171.598 254.951C170.995 255.26 170.361 255.415 169.693 255.415C168.749 255.415 167.952 255.114 167.301 254.512C166.666 253.91 166.202 253.153 165.909 252.241C165.356 253.169 164.697 253.91 163.932 254.463C163.167 255 162.402 255.269 161.637 255.269C161.035 255.269 160.489 255.163 160.001 254.951C159.513 254.723 159.098 254.414 158.756 254.023C158.414 253.617 158.146 253.145 157.95 252.607C157.771 252.07 157.682 251.484 157.682 250.85C157.682 249.58 157.893 248.465 158.316 247.505C158.756 246.528 159.309 245.715 159.977 245.063C160.644 244.412 161.376 243.924 162.174 243.599C162.988 243.273 163.769 243.11 164.518 243.11C165.022 243.11 165.486 243.184 165.909 243.33C166.332 243.46 166.69 243.607 166.983 243.77C167.293 243.932 167.529 244.087 167.691 244.233C167.854 244.364 167.944 244.437 167.96 244.453C168.139 244.665 168.229 244.884 168.229 245.112C168.229 245.356 168.139 245.576 167.96 245.771C167.781 245.951 167.569 246.04 167.325 246.04C167.065 246.04 166.845 245.951 166.666 245.771C166.633 245.739 166.56 245.682 166.446 245.601C166.332 245.503 166.178 245.405 165.982 245.308C165.787 245.21 165.551 245.129 165.274 245.063C165.014 244.982 164.713 244.941 164.371 244.941C163.867 244.941 163.329 245.055 162.76 245.283C162.19 245.511 161.669 245.869 161.197 246.357C160.725 246.829 160.326 247.432 160.001 248.164C159.692 248.88 159.537 249.735 159.537 250.728C159.537 251.037 159.57 251.354 159.635 251.68C159.7 251.989 159.814 252.274 159.977 252.534C160.139 252.795 160.359 253.006 160.636 253.169C160.912 253.332 161.254 253.413 161.661 253.413C161.954 253.413 162.288 253.315 162.662 253.12C163.053 252.925 163.419 252.624 163.761 252.217C164.119 251.81 164.436 251.297 164.713 250.679C165.006 250.06 165.209 249.328 165.323 248.481C165.356 248.254 165.462 248.066 165.641 247.92C165.82 247.757 166.031 247.676 166.275 247.676C166.503 247.676 166.699 247.765 166.861 247.944C167.04 248.123 167.138 248.327 167.154 248.555C167.171 248.864 167.203 249.303 167.252 249.873C167.301 250.426 167.407 250.98 167.569 251.533C167.748 252.087 168.009 252.567 168.351 252.974C168.692 253.381 169.164 253.584 169.767 253.584C170.157 253.584 170.54 253.478 170.914 253.267C171.305 253.055 171.679 252.778 172.037 252.437C172.411 252.078 172.761 251.68 173.087 251.24C173.429 250.785 173.738 250.329 174.015 249.873C174.291 249.417 174.535 248.978 174.747 248.555C174.959 248.132 175.138 247.765 175.284 247.456C175.366 247.277 175.479 247.139 175.626 247.041C175.789 246.943 175.96 246.895 176.139 246.895C176.415 246.895 176.635 247 176.798 247.212C176.977 247.407 177.066 247.619 177.066 247.847C177.066 247.961 177.042 248.075 176.993 248.188ZM187.833 248.188C187.833 249.686 187.564 250.964 187.027 252.021C186.49 253.079 185.831 253.885 185.05 254.438H185.147C186.108 254.438 186.979 254.227 187.76 253.804C188.557 253.364 189.273 252.811 189.908 252.144C190.543 251.46 191.113 250.703 191.617 249.873C192.122 249.043 192.569 248.237 192.96 247.456C193.041 247.277 193.155 247.139 193.302 247.041C193.465 246.943 193.635 246.895 193.814 246.895C194.091 246.895 194.311 246.992 194.474 247.188C194.636 247.383 194.718 247.594 194.718 247.822C194.718 247.952 194.693 248.075 194.645 248.188C194.221 249.132 193.717 250.085 193.131 251.045C192.545 251.989 191.861 252.843 191.08 253.608C190.299 254.373 189.42 254.992 188.443 255.464C187.467 255.952 186.384 256.196 185.196 256.196C184.334 256.196 183.495 256.058 182.682 255.781C181.868 255.521 181.152 255.106 180.533 254.536C180.305 254.357 180.11 254.17 179.947 253.975C179.785 253.763 179.654 253.568 179.557 253.389C179.524 253.356 179.508 253.324 179.508 253.291C179.41 253.145 179.361 252.99 179.361 252.827C179.361 252.616 179.435 252.42 179.581 252.241C179.597 252.209 179.614 252.192 179.63 252.192C179.646 252.176 179.662 252.16 179.679 252.144C179.841 251.997 180.021 251.916 180.216 251.899H180.289C180.37 251.899 180.427 251.908 180.46 251.924C180.476 251.924 180.484 251.932 180.484 251.948C180.501 251.948 180.517 251.948 180.533 251.948C180.582 251.948 180.639 251.965 180.704 251.997C180.72 252.013 180.737 252.021 180.753 252.021C180.899 252.119 181.021 252.241 181.119 252.388C181.233 252.583 181.363 252.762 181.51 252.925C181.64 253.055 181.795 253.177 181.974 253.291C182.153 253.389 182.356 253.438 182.584 253.438C182.991 253.438 183.398 253.315 183.805 253.071C184.212 252.827 184.578 252.477 184.903 252.021C185.229 251.566 185.489 251.012 185.685 250.361C185.896 249.71 186.002 248.986 186.002 248.188C186.002 247.603 185.937 247.106 185.807 246.699C185.693 246.276 185.538 245.934 185.343 245.674C185.164 245.413 184.968 245.226 184.757 245.112C184.545 244.982 184.342 244.917 184.146 244.917C183.707 244.917 183.259 245.145 182.804 245.601C182.364 246.056 181.925 246.634 181.485 247.334C181.046 248.034 180.606 248.807 180.167 249.653C179.744 250.5 179.312 251.322 178.873 252.119C178.84 254.756 178.792 257.271 178.727 259.663C178.678 262.056 178.58 264.277 178.434 266.328C178.303 268.379 178.116 270.234 177.872 271.895C177.628 273.555 177.294 274.971 176.871 276.143C176.448 277.331 175.927 278.242 175.309 278.877C174.69 279.512 173.933 279.829 173.038 279.829C172.761 279.829 172.444 279.772 172.086 279.658C171.728 279.544 171.394 279.308 171.085 278.95C170.776 278.608 170.515 278.112 170.304 277.461C170.092 276.81 169.986 275.939 169.986 274.849C169.986 273.465 170.157 271.862 170.499 270.039C170.841 268.216 171.329 266.279 171.964 264.229C172.582 262.194 173.323 260.103 174.186 257.954C175.048 255.806 176 253.714 177.042 251.68C177.042 251.11 177.042 250.549 177.042 249.995C177.058 249.442 177.066 248.905 177.066 248.384C176.855 248.628 176.603 248.75 176.31 248.75C176.033 248.75 175.813 248.652 175.65 248.457C175.488 248.262 175.406 248.05 175.406 247.822C175.406 247.708 175.431 247.586 175.479 247.456C175.87 246.561 176.171 245.715 176.383 244.917C176.594 244.103 176.749 243.395 176.847 242.793C176.961 242.174 177.026 241.686 177.042 241.328C177.058 240.97 177.066 240.783 177.066 240.767C177.066 240.522 177.156 240.311 177.335 240.132C177.514 239.953 177.734 239.863 177.994 239.863C178.238 239.863 178.45 239.953 178.629 240.132C178.808 240.295 178.897 240.506 178.897 240.767V248.262C179.272 247.627 179.646 247 180.021 246.382C180.395 245.763 180.785 245.21 181.192 244.722C181.616 244.233 182.063 243.843 182.535 243.55C183.023 243.241 183.561 243.086 184.146 243.086C184.7 243.086 185.204 243.216 185.66 243.477C186.116 243.737 186.507 244.095 186.832 244.551C187.158 245.007 187.402 245.552 187.564 246.187C187.743 246.805 187.833 247.472 187.833 248.188ZM176.993 256.025C176.196 257.816 175.471 259.614 174.82 261.421C174.186 263.228 173.648 264.969 173.209 266.646C172.753 268.322 172.403 269.893 172.159 271.357C171.915 272.822 171.793 274.108 171.793 275.215C171.793 275.492 171.809 275.793 171.842 276.118C171.874 276.444 171.939 276.745 172.037 277.021C172.135 277.298 172.273 277.526 172.452 277.705C172.631 277.9 172.867 277.998 173.16 277.998C173.697 277.998 174.161 277.656 174.552 276.973C174.942 276.305 175.268 275.394 175.528 274.238C175.805 273.099 176.033 271.781 176.212 270.283C176.391 268.802 176.529 267.248 176.627 265.62C176.741 263.993 176.822 262.349 176.871 260.688C176.92 259.045 176.961 257.49 176.993 256.025ZM195.914 252.314C196.256 252.786 196.695 253.169 197.232 253.462C197.77 253.739 198.429 253.877 199.21 253.877C200.007 253.877 200.732 253.69 201.383 253.315C202.034 252.925 202.628 252.42 203.165 251.802C203.702 251.183 204.182 250.492 204.605 249.727C205.029 248.962 205.411 248.197 205.753 247.432C205.834 247.253 205.948 247.122 206.095 247.041C206.241 246.943 206.404 246.895 206.583 246.895C206.86 246.895 207.079 246.992 207.242 247.188C207.421 247.383 207.511 247.594 207.511 247.822C207.511 247.904 207.503 247.977 207.486 248.042C207.47 248.091 207.446 248.148 207.413 248.213C206.29 250.687 205.061 252.55 203.727 253.804C202.408 255.057 200.911 255.7 199.234 255.732C198.16 255.732 197.232 255.521 196.451 255.098C195.67 254.691 195.027 254.162 194.522 253.511C194.018 252.843 193.644 252.095 193.399 251.265C193.155 250.435 193.033 249.604 193.033 248.774C193.033 247.944 193.131 247.179 193.326 246.479C193.538 245.78 193.831 245.169 194.205 244.648C194.596 244.128 195.051 243.721 195.572 243.428C196.109 243.135 196.695 242.988 197.33 242.988C197.704 242.988 198.071 243.07 198.429 243.232C198.803 243.379 199.137 243.599 199.43 243.892C199.723 244.168 199.959 244.51 200.138 244.917C200.317 245.324 200.406 245.788 200.406 246.309C200.406 246.976 200.292 247.603 200.064 248.188C199.837 248.774 199.519 249.32 199.112 249.824C198.722 250.329 198.25 250.793 197.696 251.216C197.143 251.639 196.549 252.005 195.914 252.314ZM195.182 250.728C195.686 250.516 196.142 250.247 196.549 249.922C196.972 249.596 197.33 249.238 197.623 248.848C197.916 248.457 198.144 248.05 198.307 247.627C198.469 247.188 198.551 246.748 198.551 246.309C198.551 245.82 198.429 245.454 198.185 245.21C197.94 244.95 197.656 244.819 197.33 244.819C196.891 244.819 196.516 244.941 196.207 245.186C195.898 245.43 195.646 245.747 195.45 246.138C195.255 246.528 195.108 246.968 195.011 247.456C194.929 247.928 194.889 248.4 194.889 248.872C194.889 249.165 194.913 249.474 194.962 249.8C195.027 250.125 195.1 250.435 195.182 250.728ZM208.487 245.967C208.39 246.227 208.268 246.52 208.121 246.846C207.991 247.171 207.836 247.513 207.657 247.871C207.511 248.148 207.356 248.368 207.193 248.53C207.047 248.677 206.852 248.75 206.607 248.75C206.331 248.75 206.111 248.669 205.948 248.506C205.785 248.327 205.704 248.123 205.704 247.896C205.704 247.814 205.712 247.749 205.729 247.7C205.745 247.635 205.785 247.537 205.851 247.407C206.274 246.593 206.583 245.885 206.778 245.283C206.99 244.665 207.161 244.022 207.291 243.354C207.177 242.98 207.096 242.663 207.047 242.402C206.998 242.142 206.974 241.873 206.974 241.597C206.974 241.06 207.088 240.628 207.315 240.303C207.543 239.961 207.861 239.79 208.268 239.79C208.642 239.79 208.935 239.953 209.146 240.278C209.374 240.604 209.488 241.003 209.488 241.475C209.488 241.735 209.464 241.995 209.415 242.256C209.366 242.516 209.301 242.842 209.22 243.232C209.594 244.16 209.968 244.982 210.343 245.698C210.717 246.414 211.051 247.074 211.344 247.676C211.637 248.262 211.873 248.815 212.052 249.336C212.247 249.857 212.345 250.378 212.345 250.898C212.345 251.582 212.206 252.233 211.93 252.852C211.653 253.47 211.197 253.991 210.562 254.414C210.644 254.43 210.725 254.438 210.807 254.438C210.888 254.438 210.969 254.438 211.051 254.438C211.979 254.438 212.833 254.227 213.614 253.804C214.396 253.381 215.095 252.835 215.714 252.168C216.349 251.484 216.91 250.736 217.398 249.922C217.887 249.092 218.31 248.27 218.668 247.456C218.831 247.082 219.059 246.895 219.352 246.895C219.628 246.895 219.84 246.992 219.986 247.188C220.149 247.383 220.23 247.594 220.23 247.822C220.23 247.952 220.206 248.075 220.157 248.188C219.978 248.628 219.742 249.132 219.449 249.702C219.173 250.256 218.831 250.833 218.424 251.436C218.033 252.021 217.577 252.599 217.057 253.169C216.536 253.739 215.95 254.251 215.299 254.707C214.664 255.146 213.964 255.496 213.199 255.757C212.434 256.034 211.596 256.172 210.685 256.172C209.594 256.172 208.577 255.977 207.633 255.586C206.705 255.212 205.948 254.585 205.362 253.706C205.265 253.56 205.216 253.405 205.216 253.242C205.216 252.998 205.305 252.786 205.484 252.607C205.68 252.412 205.899 252.314 206.144 252.314C206.404 252.314 206.624 252.404 206.803 252.583C206.819 252.616 206.876 252.673 206.974 252.754C207.071 252.819 207.185 252.9 207.315 252.998C207.462 253.079 207.625 253.153 207.804 253.218C207.999 253.283 208.194 253.315 208.39 253.315C208.78 253.315 209.106 253.234 209.366 253.071C209.643 252.909 209.863 252.713 210.025 252.485C210.188 252.241 210.302 251.989 210.367 251.729C210.449 251.452 210.489 251.216 210.489 251.021C210.489 250.614 210.424 250.207 210.294 249.8C210.164 249.393 209.993 248.986 209.781 248.579C209.586 248.172 209.366 247.757 209.122 247.334C208.894 246.895 208.683 246.439 208.487 245.967ZM238.248 230.562C238.248 230.822 238.159 231.034 237.979 231.196C237.8 231.343 237.581 231.416 237.32 231.416H224.942V231.685C224.942 232.677 224.869 233.735 224.723 234.858C224.576 235.981 224.373 237.104 224.112 238.228C223.868 239.334 223.583 240.417 223.258 241.475C222.949 242.533 222.623 243.509 222.281 244.404C221.956 245.299 221.63 246.081 221.305 246.748C220.979 247.399 220.686 247.887 220.426 248.213C220.637 248.962 220.89 249.661 221.183 250.312C221.476 250.947 221.801 251.509 222.159 251.997C222.534 252.469 222.932 252.843 223.355 253.12C223.779 253.397 224.234 253.535 224.723 253.535C225.292 253.535 225.854 253.299 226.407 252.827C226.977 252.339 227.498 251.769 227.97 251.118C228.458 250.451 228.881 249.784 229.239 249.116C229.614 248.433 229.882 247.887 230.045 247.48C230.208 247.09 230.493 246.895 230.899 246.895C231.176 246.895 231.396 246.992 231.559 247.188C231.738 247.383 231.827 247.594 231.827 247.822C231.827 247.936 231.803 248.05 231.754 248.164C231.705 248.278 231.583 248.538 231.388 248.945C231.209 249.352 230.965 249.824 230.655 250.361C230.362 250.898 230.012 251.468 229.605 252.07C229.215 252.656 228.767 253.193 228.263 253.682C227.774 254.17 227.245 254.577 226.676 254.902C226.106 255.228 225.504 255.391 224.869 255.391C223.746 255.391 222.737 255.024 221.842 254.292C220.947 253.56 220.182 252.534 219.547 251.216C218.928 249.897 218.456 248.335 218.131 246.528C217.805 244.722 217.643 242.744 217.643 240.596C217.643 240.059 217.651 239.432 217.667 238.716C217.683 237.983 217.716 237.218 217.765 236.421C217.813 235.607 217.887 234.777 217.984 233.931C218.082 233.068 218.212 232.23 218.375 231.416H209.61C209.35 231.416 209.13 231.343 208.951 231.196C208.772 231.034 208.683 230.822 208.683 230.562C208.683 230.301 208.772 230.098 208.951 229.951C209.13 229.788 209.35 229.707 209.61 229.707H218.79C218.953 229.121 219.14 228.584 219.352 228.096C219.579 227.607 219.832 227.184 220.108 226.826C220.401 226.468 220.719 226.191 221.061 225.996C221.419 225.785 221.809 225.679 222.232 225.679C222.639 225.679 222.989 225.785 223.282 225.996C223.591 226.191 223.852 226.468 224.063 226.826C224.275 227.184 224.438 227.607 224.552 228.096C224.682 228.584 224.78 229.121 224.845 229.707H237.32C237.581 229.707 237.8 229.788 237.979 229.951C238.159 230.098 238.248 230.301 238.248 230.562ZM219.864 245.771C220.353 244.697 220.792 243.542 221.183 242.305C221.59 241.051 221.931 239.79 222.208 238.521C222.501 237.251 222.721 236.006 222.867 234.785C223.03 233.564 223.111 232.441 223.111 231.416H220.23C220.003 232.425 219.815 233.678 219.669 235.176C219.539 236.657 219.474 238.464 219.474 240.596C219.474 241.784 219.506 242.785 219.571 243.599C219.636 244.396 219.734 245.12 219.864 245.771ZM222.135 227.51C221.988 227.51 221.777 227.673 221.5 227.998C221.223 228.307 220.947 228.877 220.67 229.707H223.014C222.932 229.023 222.81 228.486 222.647 228.096C222.501 227.705 222.33 227.51 222.135 227.51ZM220.255 247.529V247.554V247.529Z" fill="#9E7D77"/>
<path fill-rule="evenodd" clip-rule="evenodd" d="M77.4769 172.602C49.2315 153.05 83.0597 127.141 74.7961 96.16C66.5328 65.1792 46.5158 18.9859 125.485 35.4456C205.496 52.1231 256.243 73.5975 244.25 140.115C232.258 206.633 105.722 192.154 77.4769 172.602Z" fill="url(#paint0_linear_609_587)"/>
<path fill-rule="evenodd" clip-rule="evenodd" d="M199.734 199.142C197.974 197.384 197.14 194.927 196.362 192.563C194.324 195.519 189.774 195.614 186.65 193.85C183.525 192.086 181.417 189.007 179.173 186.204C175.156 181.186 157.95 168.795 157.667 165.057C157.517 163.074 163.274 159.465 163.274 159.465L152.928 153.369C152.928 153.369 147.563 157.491 144.478 157.981C135.896 159.344 129.825 158.532 129.818 160.08C129.792 165.677 163.605 194.073 152.822 193.85C136.64 193.516 107.084 161.972 97.5094 159.465C93.5 158.415 66 160.08 66 153.413C66 144.46 90.5633 138.299 90.5633 138.299C90.5633 138.299 84.1613 116.679 91.9096 98.9996C93.6842 94.9503 95.8812 90.2458 96.0955 86.2677C96.1543 85.1761 127.132 55.7899 131.111 54.3219C140.39 50.899 150.261 49.0899 160.149 49C161.467 48.9881 199.051 54.3219 215.952 82.2604C219.007 87.3097 232.881 124.806 218.794 148.327C216.572 152.038 216.844 156.644 218.381 160.729C219.917 164.814 221.807 169.358 220.065 173.36C219.114 166.949 217.444 160.644 215.097 154.603C211.823 156.986 213.481 162.115 215.432 165.666C217.892 170.141 220.351 174.615 222.81 179.09C223.833 180.952 224.891 183.002 224.523 185.094C224.102 187.487 221.974 189.142 220.002 190.557C215.501 193.787 210.999 197.018 206.498 200.248C204.478 201.698 201.494 200.9 199.734 199.142Z" fill="white"/>
<path fill-rule="evenodd" clip-rule="evenodd" d="M139.14 100.188C139.541 99.1617 140.986 98.7374 142.052 99.1654C143.118 99.5932 143.78 100.663 143.947 101.746C144.114 102.829 143.86 103.93 143.534 104.98C143.237 105.938 142.878 106.879 142.46 107.796C142.421 107.881 142.369 107.976 142.273 107.996C142.171 108.018 142.077 107.943 142.004 107.873C140.192 106.138 139.1 103.75 139.005 101.314C138.99 100.934 139 100.545 139.14 100.188ZM142.271 100.439C141.974 100.198 141.59 100.04 141.199 100.052C140.285 100.078 139.648 101.019 139.668 101.883C139.689 102.747 140.175 103.53 140.648 104.27C140.986 104.799 141.325 105.329 141.663 105.858C141.778 106.039 142.005 106.245 142.185 106.119C142.257 106.069 142.285 105.981 142.309 105.899C142.447 105.418 142.586 104.937 142.724 104.456C142.922 103.768 143.122 103.069 143.109 102.356C143.097 101.644 142.844 100.903 142.271 100.439Z" fill="#FFB61D"/>
<path fill-rule="evenodd" clip-rule="evenodd" d="M141.636 102.963C141.532 103.021 141.419 103.01 141.318 102.932C141.124 102.78 140.989 102.362 141.001 101.943C141.012 101.525 141.168 101.138 141.37 101.029C141.675 100.864 142.019 101.428 141.999 102.062C141.986 102.473 141.833 102.851 141.636 102.963Z" fill="#FFB61D"/>
<path fill-rule="evenodd" clip-rule="evenodd" d="M151.599 194.736C152.248 194.82 152.009 195.815 151.588 196.311C147.571 201.041 142.325 204.742 136.496 206.96C135.189 207.457 133.836 207.885 132.439 207.98C129.847 208.156 127.266 207.156 125.217 205.577C123.168 203.998 121.606 201.877 120.334 199.637C116.853 193.513 115.394 186.286 116.23 179.31C116.309 178.654 116.761 177.783 117.373 178.049C117.196 180.382 117.168 182.725 117.291 185.061C117.411 187.355 117.679 189.656 118.345 191.857C118.962 193.894 119.911 195.817 120.9 197.705C121.917 199.646 122.995 201.582 124.464 203.216C125.932 204.851 127.839 206.179 130.008 206.602C132.727 207.133 135.517 206.207 138.024 205.038C143.223 202.614 147.886 199.075 151.599 194.736Z" fill="#00160A"/>
<path fill-rule="evenodd" clip-rule="evenodd" d="M169.82 167.867C174.805 163.052 179.789 158.237 184.773 153.421C185.052 153.151 185.465 152.864 185.795 153.07C186.235 153.346 185.883 154.01 185.512 154.37C180.148 159.58 174.783 164.79 169.418 170C169.032 169.807 168.919 169.288 169.055 168.884C169.192 168.48 169.511 168.166 169.82 167.867Z" fill="#00160A"/>
<path fill-rule="evenodd" clip-rule="evenodd" d="M134.114 141.844C133.832 141.896 133.55 141.948 133.267 142C132.718 141.124 132.157 140.215 131.985 139.178C131.813 138.142 132.135 136.935 133 136.424C133.978 135.845 134.273 134.422 133.961 133.278C133.649 132.134 132.878 131.207 132.121 130.329C131.353 129.437 130.122 128.49 129.21 129.213C128.615 129.684 127.726 129.418 127.194 128.869C126.662 128.32 126.38 127.561 126.036 126.863C125.385 125.541 124.436 124.349 123.195 123.656C121.953 122.964 120.399 122.826 119.15 123.502C117.91 124.173 117.128 125.508 116.071 126.47C115.014 127.432 113.269 127.943 112.317 126.864C112.075 126.59 111.913 126.183 112.05 125.836C112.188 125.49 112.722 125.37 112.893 125.7C113.327 126.54 114.528 126.528 115.279 125.998C116.03 125.468 116.5 124.602 117.116 123.902C118.321 122.533 120.153 121.82 121.904 122.039C123.655 122.258 125.281 123.403 126.155 125.032C126.577 125.817 126.836 126.71 127.386 127.398C127.936 128.087 128.936 128.509 129.641 128.006C130.438 127.438 131.478 128.144 132.177 128.843C133.123 129.789 134.046 130.811 134.578 132.071C135.111 133.331 135.196 134.882 134.499 136.048C133.92 137.018 132.81 137.804 132.906 138.95C132.996 140.019 134.151 140.772 134.114 141.844Z" fill="#00160A"/>
<path fill-rule="evenodd" clip-rule="evenodd" d="M146.159 94.6493C147.855 95.4825 149.363 96.8147 150.235 98.553C151.107 100.291 151.284 102.451 150.503 104.236C148.886 107.928 143.745 109.366 143.178 113.386C143.033 114.41 143.23 115.474 142.989 116.478C142.822 117.171 142.457 117.79 142.165 118.437C141.538 119.823 141.243 121.373 141.311 122.906C140.658 123.277 139.89 122.486 139.806 121.712C139.723 120.937 140.018 120.168 140.002 119.389C139.973 117.924 138.892 116.757 137.971 115.656C136.589 114.004 135.388 112.06 135.164 109.874C135.091 109.17 135.122 108.452 134.971 107.762C134.808 107.019 134.445 106.346 134.124 105.663C133.257 103.821 132.67 101.696 133.204 99.7189C133.737 97.7425 135.727 96.1076 137.615 96.6516C138.151 96.8059 138.676 97.1217 139.226 97.0354C140.192 96.8844 140.582 95.6751 141.255 94.9327C142.462 93.6021 144.573 93.8706 146.159 94.6493ZM137.948 113.856C139.019 115.334 140.089 116.812 141.16 118.289C142.388 116.933 141.88 114.738 142.253 112.909C142.762 110.417 144.887 108.725 146.727 107.062C148.569 105.399 150.396 103.124 149.983 100.613C149.651 98.5949 147.972 97.1609 146.363 96.0019C145.455 95.3486 144.408 94.6918 143.326 94.9015C142.232 95.1139 141.482 96.1319 140.694 96.9557C139.905 97.7795 138.717 98.495 137.73 97.9552C136.342 97.1956 134.574 98.4918 134.182 100.082C133.79 101.673 134.354 103.337 134.972 104.846C135.591 106.356 136.288 107.92 136.171 109.558C136.056 111.153 137.026 112.583 137.948 113.856Z" fill="#00160A"/>
<path fill-rule="evenodd" clip-rule="evenodd" d="M182.501 160.005C182.869 160.053 183.064 160.479 182.981 160.819C182.897 161.16 182.625 161.427 182.363 161.675C180.25 163.683 178.136 165.691 176.023 167.699C175.866 167.847 175.683 168.007 175.461 168C175.163 167.991 174.968 167.667 175.004 167.388C175.041 167.11 175.235 166.876 175.424 166.659C177.368 164.423 179.477 162.316 181.731 160.355C181.948 160.167 182.208 159.966 182.501 160.005Z" fill="#00160A"/>
<path fill-rule="evenodd" clip-rule="evenodd" d="M119.951 129.007C120.981 129.096 121.773 130.014 121.95 130.981C122.127 131.948 121.809 132.936 121.378 133.829C121.141 134.32 120.868 134.796 120.562 135.252C120.342 135.581 120.062 135.925 119.658 135.989C118.982 136.095 118.508 135.39 118.248 134.79C117.881 133.944 117.544 133.087 117.239 132.22C117.089 131.795 116.944 131.347 117.021 130.904C117.138 130.227 117.745 129.72 118.38 129.393C118.863 129.144 119.405 128.961 119.951 129.007ZM118.983 133.986C119.063 134.103 119.147 134.223 119.271 134.297C119.372 134.358 119.497 134.383 119.616 134.368C119.922 134.327 120.119 134.047 120.275 133.794C120.685 133.132 121.105 132.437 121.151 131.67C121.197 130.903 120.738 130.05 119.946 129.892C119.019 129.707 118.156 130.588 118.077 131.484C117.999 132.379 118.472 133.23 118.983 133.986Z" fill="#FFB61D"/>
<path fill-rule="evenodd" clip-rule="evenodd" d="M119.959 130.065C120.331 130.185 120.652 130.457 120.832 130.805C120.992 131.115 121.04 131.481 120.965 131.822C120.793 132.608 119.906 133.157 119.127 132.959C118.348 132.762 117.829 131.855 118.052 131.082C118.274 130.308 119.195 129.817 119.959 130.065ZM119.787 131.697C120.071 131.548 119.817 131.003 119.52 131.124C119.29 131.155 119.138 131.445 119.243 131.652C119.348 131.859 119.672 131.907 119.832 131.739L119.787 131.697Z" fill="#FFB61D"/>
<path fill-rule="evenodd" clip-rule="evenodd" d="M181.643 142.35C181.045 141.52 180.507 140.619 180.039 139.661C179.889 139.355 180.199 138.956 180.478 139.004C180.757 139.052 180.963 139.352 181.14 139.632C181.76 140.608 182.38 141.584 183 142.561C182.929 142.909 182.586 143.067 182.315 142.974C182.044 142.882 181.833 142.614 181.643 142.35Z" fill="#00160A"/>
<path fill-rule="evenodd" clip-rule="evenodd" d="M203.999 180.35C204.006 180.451 203.971 180.55 203.934 180.643C203.566 181.59 203.017 182.458 202.331 183.18C201.239 184.33 199.759 185.182 199.174 186.689C199.036 187.045 198.519 187.097 198.251 186.836C197.982 186.574 197.945 186.125 198.064 185.761C198.183 185.396 198.429 185.096 198.669 184.805C199.452 183.859 200.235 182.912 201.017 181.965C201.617 181.24 202.243 180.493 203.074 180.096C203.416 179.932 203.97 179.955 203.999 180.35Z" fill="#00160A"/>
<path fill-rule="evenodd" clip-rule="evenodd" d="M182.921 138.298C183.844 139.209 184.767 140.12 185.691 141.031C185.846 141.184 186.01 141.358 186 141.559C185.983 141.871 185.527 142.057 185.165 141.984C184.803 141.912 184.53 141.669 184.287 141.432C183.504 140.67 182.804 139.849 182.196 138.982C181.959 138.644 181.867 138.053 182.33 138.003C182.567 137.977 182.765 138.145 182.921 138.298Z" fill="#00160A"/>
<path fill-rule="evenodd" clip-rule="evenodd" d="M173.186 143.627C173.062 143.478 172.934 143.283 173.039 143.124C173.211 142.861 173.68 143.065 173.913 143.291C174.74 144.09 175.443 144.983 176 145.939C175.47 146.169 174.906 145.701 174.562 145.286C174.103 144.733 173.644 144.18 173.186 143.627Z" fill="#00160A"/>
<path fill-rule="evenodd" clip-rule="evenodd" d="M174.577 146.475C174.877 146.858 175.181 147.488 174.868 147.855C174.55 148.229 174.041 147.807 173.76 147.391C173.08 146.384 172.489 145.288 172 144.126C172.314 143.795 172.779 144.18 173.065 144.545C173.569 145.188 174.073 145.832 174.577 146.475Z" fill="#00160A"/>
<path fill-rule="evenodd" clip-rule="evenodd" d="M175.183 142.802C175.046 142.598 174.918 142.317 175.066 142.121C175.277 141.842 175.706 142.099 175.943 142.357C176.628 143.105 177.314 143.853 178 144.601C177.969 144.872 177.658 145.034 177.393 144.994C177.129 144.954 176.909 144.773 176.71 144.59C176.134 144.058 175.62 143.457 175.183 142.802Z" fill="#00160A"/>
<path fill-rule="evenodd" clip-rule="evenodd" d="M179.337 141.518C179.795 142.032 180.252 142.547 180.709 143.061C180.89 143.265 181.082 143.527 180.963 143.764C180.85 143.993 180.489 144.053 180.229 143.955C179.968 143.856 179.786 143.648 179.616 143.449C179.139 142.887 178.666 142.322 178.198 141.755C178.094 141.63 177.986 141.489 178.002 141.335C178.028 141.077 178.401 140.944 178.68 141.022C178.959 141.101 179.157 141.315 179.337 141.518Z" fill="#00160A"/>
<path fill-rule="evenodd" clip-rule="evenodd" d="M179.763 144.225C179.884 144.35 180.012 144.495 179.999 144.664C179.982 144.889 179.705 145.029 179.47 144.995C179.236 144.962 179.042 144.809 178.867 144.658C177.71 143.667 176.736 142.485 176 141.18C176.145 140.821 176.714 141.064 176.987 141.347C177.912 142.307 178.838 143.266 179.763 144.225Z" fill="#00160A"/>
<path fill-rule="evenodd" clip-rule="evenodd" d="M187.912 138.46C187.956 138.544 188.003 138.64 188 138.751C187.996 138.919 187.876 139.024 187.776 138.995C187.676 138.967 187.595 138.849 187.521 138.735C186.99 137.923 186.482 137.068 186 136.176C186.171 135.796 186.531 136.101 186.738 136.427C187.149 137.074 187.541 137.752 187.912 138.46Z" fill="#00160A"/>
<path fill-rule="evenodd" clip-rule="evenodd" d="M185.18 139.332C184.823 138.471 184.466 137.61 184.109 136.749C184.043 136.591 183.974 136.399 184.01 136.214C184.079 135.849 184.393 136.011 184.562 136.255C185.099 137.026 185.555 137.972 185.9 139.031C185.967 139.236 186.031 139.48 185.984 139.701C185.923 139.983 185.704 140.066 185.547 139.948C185.389 139.83 185.281 139.576 185.18 139.332Z" fill="#00160A"/>
<path fill-rule="evenodd" clip-rule="evenodd" d="M189.181 136.694C188.804 136.275 188.427 135.857 188.049 135.438C187.915 135.289 188.077 135.024 188.274 135.002C188.47 134.981 188.65 135.109 188.805 135.234C189.091 135.465 189.367 135.709 189.632 135.965C189.779 136.108 189.927 136.263 189.982 136.462C190.038 136.661 189.962 136.914 189.772 136.982C189.553 137.06 189.339 136.869 189.181 136.694Z" fill="#00160A"/>
<path fill-rule="evenodd" clip-rule="evenodd" d="M187.508 137.758C187.028 137.082 186.569 136.379 186.131 135.651C186.055 135.524 185.975 135.368 186.007 135.21C186.044 135.031 186.214 134.961 186.342 135.021C186.47 135.081 186.563 135.229 186.651 135.37C187.051 136.022 187.452 136.674 187.853 137.326C187.961 137.503 188.068 137.78 187.945 137.937C187.821 138.095 187.626 137.925 187.508 137.758Z" fill="#00160A"/>
<path fill-rule="evenodd" clip-rule="evenodd" d="M219.241 178.62C219.722 178.482 220.939 178.176 221.42 178.038C221.636 177.977 221.956 177.969 221.996 178.175C222.03 178.344 221.82 178.459 221.644 178.514C221.158 178.665 219.919 178.939 219.411 178.996C219.23 179.017 218.967 178.954 219.003 178.788C219.025 178.693 219.141 178.649 219.241 178.62Z" fill="#00160A"/>
<path fill-rule="evenodd" clip-rule="evenodd" d="M137.873 148.64C139.033 148.653 140.404 148.85 140.866 149.627C141.301 150.357 140.618 151.234 139.659 151.613C138.701 151.992 137.56 152.001 136.471 152C121.607 151.986 106.744 151.724 91.8967 151.214C90.9715 151.182 90.8841 150.207 91.0954 149.548C91.2215 149.155 91.3635 148.74 91.7516 148.453C92.3102 148.039 93.1962 148.011 93.9915 148.009C104.665 147.984 115.358 147.959 125.986 148.677C127.67 148.791 129.355 148.923 131.046 148.911C133.325 148.895 135.593 148.616 137.873 148.64ZM139.537 150.612C139.787 150.256 139.42 149.805 138.922 149.642C138.423 149.479 137.85 149.521 137.307 149.56C130.339 150.061 123.324 149.483 116.335 149.184C111.255 148.968 106.165 148.898 101.077 148.829C98.9562 148.801 96.8352 148.772 94.7142 148.743C94.0377 148.734 93.2963 148.74 92.7766 149.057C92.2567 149.374 92.2393 150.12 92.8844 150.269C93.001 150.296 93.1249 150.3 93.2472 150.305C108.18 150.835 123.132 151.073 138.082 151.018C138.63 151.017 139.287 150.968 139.537 150.612Z" fill="#00160A"/>
<path fill-rule="evenodd" clip-rule="evenodd" d="M128.031 160.368C129.338 163.251 132.154 165.386 135.265 165.852C136.729 166.071 137.728 167.413 138.562 168.645C139.428 169.926 140.064 172.097 138.632 172.663C144.19 178.841 149.749 185.018 155.308 191.196C155.954 191.914 156.581 193.111 155.832 193.719C155.554 193.945 155.173 193.98 154.816 193.992C150.237 194.147 145.915 191.987 141.952 189.669C136.244 186.331 130.793 182.548 125.663 178.365C121.915 175.309 116.531 174.435 112.02 176.151C109.68 177.04 106.746 175.226 106.473 172.721C106.2 170.216 108.673 167.803 111.149 168.16C107.427 162.593 100.77 159.153 94.1121 159.356C86.0768 159.601 78.0096 158.751 70.198 156.838C69.5119 156.67 68.7754 156.46 68.3449 155.896C67.4869 154.771 68.3871 153.171 69.3303 152.118C76.2793 144.357 86.972 140.169 97.2976 141.166C97.7375 141.209 97.9768 140.67 98.0799 140.237C100.705 129.212 103.33 118.188 105.955 107.163C106.271 105.834 108.279 105.65 109.274 106.579C110.268 107.509 110.487 108.991 110.602 110.353C111.457 120.508 109.964 131.44 114.973 140.293C115.206 140.706 115.47 141.128 115.88 141.362C116.283 141.593 116.77 141.607 117.234 141.615C126.508 141.781 135.782 141.946 145.056 142.112C146.212 142.132 147.63 141.994 148.097 140.929C149.294 138.198 150.49 135.468 151.686 132.738C152.067 131.869 152.591 130.884 153.523 130.741C154.857 130.536 155.701 132.224 155.658 133.583C155.614 134.943 155.161 136.387 155.755 137.608C157.934 135.274 160.149 132.91 162.874 131.258C165.598 129.606 168.945 128.728 172 129.616C169.299 133.944 166.598 138.272 163.897 142.6C166.153 144.104 166.331 147.909 164.225 149.62C163.326 150.351 164.039 151.793 164.784 152.683C167.118 155.47 169.451 158.257 171.784 161.044C169.793 161.975 167.473 161.017 165.515 160.017C162.015 158.23 158.599 156.277 155.281 154.167C153.671 153.143 151.897 155.063 150.436 156.293C148.116 158.245 144.913 158.634 141.906 158.943C137.281 159.418 132.656 159.893 128.031 160.368ZM136.098 154.309C138.94 154.466 141.836 154.664 144.593 153.955C147.416 153.228 149.985 151.535 151.779 149.221C152.214 148.659 152.978 148.5 153.675 148.379C156.082 147.962 158.618 147.554 160.917 148.384C161.955 148.758 163.221 148.33 163.823 147.4C164.426 146.47 164.307 145.13 163.55 144.322C162.731 144.3 162.581 145.472 162.146 146.172C161.575 147.093 160.33 147.242 159.254 147.297C155.308 147.497 151.361 147.697 147.415 147.897C146.456 147.946 145.137 147.664 145.165 146.698C145.178 146.273 145.486 145.921 145.788 145.625C146.848 144.582 148.057 143.695 149.367 142.998C133.343 143.121 117.317 142.939 101.3 142.454C93.4235 142.215 85.0245 142.034 78.313 146.196C77.6865 146.584 77.1966 147.73 77.9237 147.843C80.0646 148.176 82.2055 148.509 84.3461 148.842C84.6014 148.881 84.8742 148.93 85.0585 149.111C85.6119 149.656 84.8367 150.531 84.124 150.834C81.1832 152.082 77.6787 151.891 74.8882 150.332C74.2555 149.979 73.5053 149.549 72.8611 149.88C72.0824 150.28 72.1896 151.541 72.8498 152.117C73.51 152.694 74.4505 152.775 75.3225 152.829C83.1554 153.316 90.9885 153.803 98.8217 154.291C101.024 154.427 103.232 154.564 105.434 154.426C115.641 153.785 125.886 153.746 136.098 154.309ZM147.533 184.912C144.791 181.111 141.668 177.589 138.227 174.417C137.101 173.379 136.108 172.204 135.119 171.032C130.794 165.907 126.469 160.783 122.143 155.658C121.712 155.147 120.965 155.08 120.299 155.058C114.619 154.877 108.919 155.302 103.327 156.325C102.914 156.401 102.467 156.498 102.194 156.82C101.561 157.567 102.352 158.658 103.094 159.295C110.52 165.666 118.217 171.715 126.16 177.418C127.621 178.467 129.105 179.513 130.756 180.223C133.87 181.563 136.984 182.904 140.098 184.244C142.481 185.269 145.321 186.272 147.533 184.912ZM110.345 128.335C110.23 126.838 110.23 125.314 109.822 123.871C109.086 121.269 107.125 119.227 105.173 117.37C105.022 117.227 104.822 117.072 104.626 117.143C104.448 117.209 104.384 117.424 104.343 117.611C102.889 124.287 101.434 130.964 99.979 137.64C99.7044 138.901 99.4282 140.178 99.4878 141.467C104.588 141.532 109.688 141.597 114.788 141.661C112.247 137.679 110.705 133.055 110.345 128.335ZM170.271 130.552C167.103 130.279 163.839 131.453 161.559 133.685C157.381 137.774 152.919 141.569 148.218 145.033C147.574 145.507 146.885 146.033 146.666 146.806C150.605 146.627 154.544 146.448 158.483 146.268C159.522 146.221 160.745 146.064 161.242 145.144C163.96 140.104 166.976 135.229 170.271 130.552ZM69.1657 154.19C69.0582 154.422 68.9632 154.679 69.0229 154.928C69.1282 155.367 69.6369 155.549 70.0724 155.656C78.8795 157.809 88.0165 158.087 97.0754 158.354C97.9768 158.381 98.912 158.401 99.7397 158.04C100.567 157.679 101.255 156.822 101.121 155.923C95.2323 155.1 89.2885 154.679 83.3441 154.663C79.7828 154.653 76.1202 154.772 72.7814 153.523C71.9762 153.221 71.0648 152.617 71.1673 151.758C70.3096 152.38 69.6134 153.226 69.1657 154.19ZM153.147 152.588C152.831 151.897 151.941 151.641 151.203 151.801C150.465 151.96 149.838 152.431 149.219 152.867C147.79 153.872 146.245 154.759 144.549 155.164C143.071 155.517 141.533 155.492 140.014 155.465C134.469 155.366 128.923 155.267 123.378 155.168C124.613 157.025 126.306 159.111 128.511 158.867C132.824 158.39 137.193 158.504 141.486 157.866C145.779 157.227 150.128 155.729 153.147 152.588ZM165.978 157.368C166.179 157.341 166.415 157.273 166.478 157.078C166.531 156.914 166.434 156.743 166.339 156.6C164.742 154.178 162.775 152.03 160.817 149.894C160.518 149.568 160.206 149.233 159.801 149.061C159.381 148.883 158.907 148.9 158.453 148.934C156.596 149.074 154.756 149.456 152.995 150.067C152.851 150.117 152.684 150.197 152.667 150.349C152.655 150.468 152.743 150.571 152.826 150.656C154.676 152.552 156.991 153.906 159.276 155.237C161.343 156.442 163.611 157.69 165.978 157.368ZM113.317 169.548C113.144 169.413 112.961 169.274 112.745 169.245C112.569 169.222 112.393 169.276 112.224 169.329C111.833 169.451 111.441 169.574 111.05 169.696C110.666 169.816 110.187 170.171 110.409 170.509C111.099 171.563 111.379 172.881 111.177 174.127C111.112 174.531 111.689 174.676 112.094 174.647C114.189 174.498 116.284 174.348 118.379 174.199C118.598 174.184 118.893 174.072 118.842 173.858C117 172.421 115.159 170.984 113.317 169.548ZM149.217 140.992C149.07 141.379 149.462 141.801 149.872 141.844C150.282 141.886 150.672 141.678 151.032 141.476C152.331 140.748 153.731 139.902 154.221 138.488C154.381 138.028 154.43 137.537 154.478 137.051C154.561 136.218 154.644 135.385 154.726 134.552C154.745 134.367 154.76 134.167 154.663 134.009C154.566 133.851 154.307 133.787 154.2 133.938C153.764 134.547 153.125 135.006 152.411 135.222C152.102 135.315 151.77 135.369 151.509 135.561C151.199 135.789 151.047 136.171 150.91 136.532C150.346 138.019 149.782 139.505 149.217 140.992ZM136.307 167.688C135.742 166.625 134.183 166.268 133.217 166.98C134.463 167.961 135.165 169.475 136.223 170.659C136.587 171.067 137.06 171.461 137.603 171.425C138.146 171.389 138.595 170.658 138.21 170.27C137.455 169.509 136.812 168.636 136.307 167.688ZM108.61 170.588C107.77 171.416 108.056 172.816 108.403 173.948C108.52 174.33 108.893 174.804 109.203 174.555C109.308 174.47 109.345 174.329 109.377 174.197C109.532 173.546 109.688 172.881 109.619 172.216C109.549 171.551 109.21 170.875 108.61 170.588Z" fill="#00160A"/>
<path fill-rule="evenodd" clip-rule="evenodd" d="M202.09 200.146C200.32 198.393 199.481 195.941 198.698 193.582C196.648 196.531 193.988 198.625 190.844 196.865C187.701 195.105 183.662 190.034 181.404 187.238C177.363 182.232 172.562 177.832 167.214 174.232C170.07 177.344 171.778 181.474 171.95 185.681C174.116 185.659 176.283 185.636 178.449 185.614C171.165 188.079 163.361 189.019 155.695 188.353C159.861 184.874 163.118 180.331 165.067 175.284C164.632 173.918 162.566 174.235 161.359 175.019C160.152 175.804 158.591 176.799 157.429 175.951C155.998 174.908 156.097 171.638 154.398 172.149C149.987 173.477 144.757 170.84 143.234 166.519C142.193 167.165 141.153 167.811 140.112 168.457C139.611 166.856 141.931 165.62 143.494 166.251C145.058 166.882 145.974 168.453 147.058 169.737C148.142 171.022 149.881 172.156 151.428 171.486C154.312 170.239 158.104 172.492 158.361 175.605C160.597 173.823 163.664 173.116 166.461 173.739C164.676 171.171 162.685 168.746 160.512 166.494C162.164 164.307 164.207 162.413 166.517 160.926C165.383 163.054 163.812 164.951 161.928 166.466C171.59 175.874 181.253 185.283 190.915 194.691C191.523 195.283 192.221 195.914 193.072 195.926C194.005 195.938 194.758 195.208 195.394 194.53C199.929 189.697 204.464 184.864 208.999 180.031C210.181 178.771 211.424 177.383 211.601 175.671C211.824 173.521 210.312 171.614 208.869 169.996C203.062 163.485 196.884 157.302 190.374 151.484C187.518 148.933 183.754 146.279 180.162 147.63C175.827 149.261 174.796 155.739 170.344 157.019C171.675 155.202 173.006 153.384 174.338 151.567C171.698 149.671 168.397 145.439 168.225 142.209C170.344 140.292 172.956 138.84 175.122 137.727C172.956 132.661 173.213 131.608 176.111 130.916C179.008 130.224 181.518 129.538 184.181 128.654C191.563 126.202 195.087 114.576 188.89 109.747C185.481 107.09 159.932 81.0124 148.962 71.3978C149.793 75.0778 144.912 78.5475 141.673 76.5793C142.294 78.7006 140.8 81.2677 138.594 81.5474C136.387 81.8274 134.235 79.3974 135.007 77.3256C135.672 75.5425 137.799 74.8047 139.034 73.3516C140.269 71.8988 139.192 68.7053 137.513 69.62C136.626 73.1637 131.408 74.6734 128.744 72.1572C127.806 71.2713 126.578 71.0534 125.321 71.2628C123.782 71.5191 121.12 72.1125 119.982 73.2084C118.198 74.9256 117.796 77.4337 115.672 78.599C115.334 78.785 114.979 78.9443 114.605 79.0712C111.879 79.9937 108.062 77.3147 109.477 74.8237C101.721 81.9262 96.397 91.602 94.5667 101.921C98.6149 103.067 99.3833 108.347 99.372 112.527C94.8052 113.678 99.1014 122.336 95.1516 124.887C90.6493 127.795 91.9009 134.558 93.6841 139.589C89.1197 129.835 88.5707 118.296 92.1879 108.157C91.8304 114.589 91.473 121.022 91.1156 127.454C94.1781 127.009 95.415 123.303 95.6682 120.239C95.9212 117.176 96.1141 113.571 98.7075 111.893C97.7393 109.443 97.3419 106.771 97.5555 104.147C96.4284 103.785 95.3014 103.424 94.1743 103.063C93.4972 107.798 88.2003 110.128 83.8327 112.145C79.1173 114.322 74.6814 117.094 70.6652 120.374C66.3573 123.893 62.255 128.73 62.7321 134.249C63.1909 139.555 67.7952 143.613 72.6289 145.919C67.4526 145.908 63.01 141.335 62.1755 136.261C61.3411 131.188 63.567 125.968 67.047 122.163C70.527 118.357 75.1414 115.77 79.8209 113.572C85.9487 110.694 93.3814 106.962 93.6101 100.233C93.8008 94.6245 99.9947 89.1277 97.0275 84.3518C92.8597 77.6434 90.5347 69.8178 90.3686 61.937C90.2865 58.0492 91.001 53.648 94.2102 51.4195C95.8079 50.3102 97.7956 49.923 99.7323 49.7021C106.915 48.883 114.314 50.0258 120.907 52.973C124.797 54.712 129.046 57.1229 133.05 55.6583C142.386 52.243 152.316 50.4383 162.264 50.3486C163.59 50.3364 164.691 49.3696 165.614 48.4239C169.248 44.7037 172.28 40.3987 176.234 37.0162C180.188 33.6337 185.448 31.1986 190.559 32.2454C195.91 33.3414 199.904 38.0737 201.652 43.2143C203.4 48.3552 203.301 53.9089 203.183 59.3332C202.972 69.0481 215.241 74.3387 218.407 83.5327C220.274 88.9533 226.433 91.4655 231.972 93.0648C237.512 94.6639 243.717 96.4358 246.572 101.414C249.231 106.051 247.916 112.125 244.777 116.456C241.638 120.787 236.99 123.754 232.455 126.617C225.114 131.252 227.175 143.107 221.266 149.448C218.288 152.645 219.305 157.745 220.85 161.821C222.396 165.897 224.297 170.431 222.545 174.424C221.589 168.026 219.908 161.736 217.547 155.709C214.253 158.087 215.921 163.204 217.884 166.747C220.358 171.211 222.833 175.676 225.307 180.141C226.336 181.997 227.4 184.043 227.03 186.131C226.607 188.518 224.465 190.169 222.482 191.581C217.953 194.804 213.424 198.027 208.896 201.25C206.863 202.696 203.861 201.9 202.09 200.146ZM211.755 158.997C211.358 158.552 210.632 158.769 210.089 159.018C209.545 159.268 209.001 159.517 208.457 159.767C208.337 159.821 208.206 159.877 208.079 159.843C207.841 159.779 207.8 159.427 207.95 159.232C208.1 159.037 208.354 158.958 208.589 158.882C209.091 158.721 209.58 158.522 210.052 158.289C210.321 158.156 210.611 157.98 210.684 157.689C210.758 157.399 210.422 157.047 210.174 157.217C209.444 157.716 208.622 158.084 207.762 158.297C207.504 158.36 207.101 158.28 207.162 158.023C207.186 157.924 207.278 157.86 207.364 157.806C208.132 157.326 208.97 156.958 209.843 156.715C210.158 156.628 210.08 156.102 209.78 155.973C209.48 155.844 209.138 155.975 208.838 156.105C208.114 156.418 207.39 156.732 206.666 157.045C206.511 157.112 206.337 157.201 206.295 157.364C206.258 157.51 206.343 157.657 206.425 157.784C206.951 158.603 207.477 159.421 208.004 160.239C208.084 160.364 208.175 160.497 208.317 160.543C208.471 160.593 208.635 160.524 208.782 160.456C209.784 159.992 210.775 159.505 211.755 158.997ZM162.288 69.9778C160.584 70.0069 159.304 68.0825 159.621 66.4194C159.938 64.756 161.443 63.5113 163.074 63.0182C165.29 62.3482 167.936 62.7404 169.701 61.252C170.495 60.5835 170.979 59.6232 171.702 58.8798C173.277 57.2592 176.016 56.9161 177.947 58.0982C178.38 56.9686 177.098 55.8764 175.897 55.6751C174.697 55.4739 173.403 55.7142 172.297 55.2086C170.355 54.3205 168.068 55.4614 166.513 56.9195C164.959 58.3779 163.684 60.2148 161.768 61.1576C159.853 62.1004 156.954 61.5745 156.427 59.5163C156.262 58.8751 156.242 58.0254 155.613 57.8092C154.619 57.4679 154.103 56.3164 154.161 55.2742C154.221 54.232 154.723 53.273 155.216 52.3505C153.269 52.2533 151.315 52.3133 149.378 52.5298C148.913 52.5817 148.323 52.7767 148.324 53.2408C148.326 54.2005 147.429 54.8889 146.623 55.4179C144.917 56.5379 143.211 57.6579 141.505 58.7779C141.558 59.8963 143.219 60.1642 144.191 59.5976C145.164 59.031 145.849 58.0182 146.898 57.6067C147.458 57.3867 148.073 57.3598 148.675 57.3354C149.703 57.2939 150.731 57.2523 151.759 57.2107C153.076 57.1576 154.852 57.4898 154.922 58.797C154.979 59.8692 153.78 60.4954 153.013 61.252C151.266 62.9732 151.273 66.305 148.98 67.1938C148.166 67.5094 147.947 68.63 148.304 69.4228C148.662 70.2153 149.407 70.7541 150.112 71.2678C162.417 80.2349 183.854 103.354 184.323 103.415C184.792 103.477 185.342 103.143 185.316 102.674C185.248 101.46 185.182 100.225 185.481 99.047C185.78 97.8689 186.505 96.7348 187.623 96.242C188.654 95.7883 190.153 95.6854 190.377 94.5876C190.876 92.1324 193.351 90.2336 195.869 90.3739C197.107 90.443 198.472 90.912 199.501 90.2271C198.671 89.4449 197.444 89.2833 196.414 88.7867C195.385 88.2902 194.479 87.033 195.094 86.0743C196.003 84.6587 194.679 82.8074 194.952 81.1502C195.067 80.4471 195.467 79.8246 195.89 79.249C197.323 77.2981 199.133 75.6212 201.193 74.3372C201.672 74.0387 201.792 73.41 201.867 72.8534C202.049 71.51 202.232 70.1663 202.414 68.8225C202.541 67.885 202.627 66.8094 201.979 66.116C199.871 63.8594 196.362 63.7854 193.264 63.886C190.167 63.9863 186.666 63.9466 184.52 61.7257C183.854 61.0363 182.638 61.2707 181.916 61.9016C181.193 62.5326 180.794 63.441 180.256 64.2332C178.577 66.7079 175.324 68.0194 172.383 67.4085C170.807 67.0813 169.219 66.2566 167.672 66.6982C165.609 67.2869 164.433 69.9416 162.288 69.9778ZM221.489 130.888C221.584 131.23 221.722 131.62 222.059 131.735C222.33 131.827 222.622 131.701 222.879 131.578C223.735 131.168 224.591 130.759 225.447 130.35C225.886 130.14 226.379 129.861 226.458 129.383C228.042 119.691 227.583 109.674 225.119 100.165C224.536 97.9167 223.841 95.6914 222.915 93.5595C221.731 90.8361 220.181 88.2868 218.59 85.7768C216.299 82.164 213.912 78.6112 211.433 75.1237C210.973 75.8365 210.835 76.6997 210.601 77.5137C210.368 78.3278 209.975 79.1715 209.222 79.5684C208.469 79.9653 207.313 79.6284 207.179 78.7925C206.891 76.985 204.938 75.6181 203.127 75.9565C202.737 76.0293 202.609 76.5103 202.56 76.9009C202.119 80.4512 201.678 84.0018 201.238 87.5521C201.206 87.8102 201.192 88.1174 201.397 88.2799C201.567 88.4152 201.81 88.3852 202.027 88.3818C203.26 88.3636 204.335 89.6421 204.097 90.8433C203.859 92.0445 202.376 92.823 201.243 92.3417C200.753 92.1342 200.37 92.793 200.247 93.307C199.507 96.4107 198.767 99.5145 198.027 102.618C197.808 103.534 198.604 104.398 199.46 104.8C200.317 105.202 201.295 105.348 202.081 105.873C204.048 107.19 203.964 110.183 205.555 111.931C206.851 113.355 209.251 113.614 210.824 112.5C212.233 111.503 212.845 109.683 212.846 107.966C212.846 106.794 213.579 105.654 214.648 105.16C215.717 104.666 217.067 104.844 217.97 105.598C218.849 106.332 219.247 107.473 219.607 108.556C219.766 109.034 219.925 109.555 219.754 110.029C219.475 110.803 218.517 111.033 217.733 111.299C216.293 111.788 215.032 112.777 214.219 114.054C213.822 114.677 213.554 115.552 214.045 116.105C215.244 117.457 216.444 118.809 217.644 120.161C218.271 120.867 218.917 121.608 219.169 122.517C219.942 125.307 220.716 128.098 221.489 130.888ZM99.287 86.4483C101.167 82.9637 103.065 79.4515 105.619 76.419C107.856 73.7634 110.55 71.5303 113.24 69.3281C116.784 66.4269 120.349 63.5516 123.936 60.7026C125.429 59.5167 126.946 58.3232 128.686 57.5379C123.468 55.2542 118.216 52.9589 112.676 51.6173C107.135 50.2761 101.234 49.9261 95.7677 51.5383C95.2409 51.6936 94.7117 51.8702 94.2574 52.1764C93.4896 52.6939 93.0044 53.5317 92.6407 54.3795C91.2109 57.7107 91.2911 61.4854 91.7562 65.0772C92.7326 72.6175 95.3162 79.949 99.287 86.4483ZM217.112 189.865C217.063 190.371 216.513 190.847 216.051 190.627C215.833 190.523 215.701 190.303 215.58 190.094C213.74 186.903 211.899 183.712 210.059 180.52C208.871 180.964 208.3 182.386 208.434 183.639C208.567 184.893 209.24 186.017 209.897 187.095C210.902 188.744 211.906 190.393 212.911 192.043C212.383 192.583 211.532 191.865 211.141 191.22C209.747 188.921 208.353 186.623 206.958 184.324C204.296 187.044 201.633 189.764 198.97 192.484C200.704 195.176 202.438 197.868 204.172 200.56C204.581 201.195 205.456 201.397 206.197 201.238C206.938 201.078 207.579 200.631 208.197 200.195C212.844 196.912 217.491 193.63 222.138 190.348C222.492 190.098 222.87 189.813 222.974 189.395C223.082 188.958 222.857 188.514 222.638 188.12C212.126 169.127 200.906 150.52 189.01 132.35C188.66 131.815 188.217 131.224 187.576 131.182C187.149 131.154 186.753 131.385 186.388 131.608C181.67 134.491 176.952 137.375 172.234 140.258C171.36 140.792 170.487 141.326 169.613 141.86C169.386 141.999 169.141 142.16 169.065 142.414C168.975 142.714 169.153 143.023 169.325 143.285C171.044 145.908 172.858 148.468 174.764 150.96C177.015 148.553 179.694 145.961 183.001 146.043C185.856 146.113 188.211 148.175 190.291 150.119C191.507 151.257 192.724 152.394 193.94 153.531C192.017 149.954 189.744 146.563 187.163 143.421C187.052 142.892 187.99 143.037 188.351 143.441C191.953 147.465 193.936 152.753 197.729 156.6C201.605 160.531 205.481 164.461 209.357 168.393C211.003 170.062 212.75 171.949 212.88 174.282C212.999 176.413 211.727 178.352 210.447 180.067C212.702 182.71 214.764 185.515 216.613 188.453C216.884 188.884 217.161 189.359 217.112 189.865ZM176.063 52.7892C177.695 53.1105 179.329 53.432 180.931 53.8811C185.055 55.0379 188.89 57.017 192.691 58.9829C196.009 60.6985 199.344 62.4257 202.322 64.6738C202.646 56.6373 202.325 48.6574 199.633 41.0718C198.856 38.8843 196.981 36.5256 195.157 35.0775C193.015 33.3773 190.041 33.0781 187.327 33.4638C182.585 34.1375 178.266 36.6597 174.709 39.8456C171.152 43.0315 168.268 46.8755 165.409 50.692C168.96 51.3911 172.512 52.0902 176.063 52.7892ZM223.697 91.7977C228.278 103.406 229.775 116.201 227.994 128.543C233.808 125.234 239.005 120.858 243.243 115.703C245.355 113.134 247.313 110.111 247.175 106.797C247.062 104.074 245.502 101.56 243.442 99.7592C241.383 97.9579 238.853 96.7804 236.311 95.7539C232.222 94.1023 227.999 92.7783 223.697 91.7977ZM214.712 111.646C215.788 110.862 216.941 110.179 218.147 109.612C218.144 108.847 218.136 108.057 217.827 107.357C217.518 106.656 216.825 106.063 216.056 106.116C215.249 106.171 214.64 106.904 214.383 107.666C214.127 108.429 214.123 109.251 213.945 110.035C213.455 112.204 211.519 113.975 209.303 114.282C207.086 114.59 204.736 113.414 203.666 111.461C202.804 109.888 202.674 107.851 201.3 106.69C200.539 106.047 199.526 105.801 198.553 105.573C198.327 105.521 198.087 105.468 197.868 105.543C197.515 105.663 197.349 106.054 197.225 106.403C196.392 108.743 195.559 111.081 194.726 113.42C194.418 114.285 194.165 115.391 194.853 116.003C201.211 121.655 203.799 130.643 210.266 136.172C210.457 136.336 210.693 136.507 210.939 136.449C214.023 135.722 217.014 134.601 219.814 133.125C220.037 133.007 220.269 132.877 220.397 132.661C220.527 132.442 220.526 132.172 220.513 131.919C220.42 130.171 219.897 128.447 219.002 126.94C218.578 126.227 218.059 125.524 217.978 124.7C217.908 123.996 218.172 123.275 218.003 122.589C217.866 122.028 217.462 121.576 217.071 121.149C215.967 119.942 214.863 118.735 213.759 117.528C213.212 116.931 212.645 116.294 212.478 115.505C212.152 113.967 213.436 112.576 214.712 111.646ZM145.51 76.1122C146.812 75.334 147.601 73.7819 147.459 72.2788C147.251 70.0856 145.349 68.4872 143.594 67.1407C140.717 64.9347 134.139 59.5748 131.247 58.4226C128.355 57.2704 115.559 68.6063 111.113 72.9525C110.888 73.1719 110.654 73.4112 110.591 73.7181C110.529 74.0247 109.17 77.325 111.906 78.1271C114.642 78.9293 114.935 78.3112 116.053 77.325C117.17 76.3387 117.821 74.9397 118.346 73.5497C118.794 72.3622 120.15 71.7941 121.402 71.5409C122.653 71.2878 124.001 71.1934 125.036 70.4506C126.114 69.6772 127.619 69.7222 128.848 70.2278C130.076 70.7335 131.09 71.6331 132.079 72.5166C132.905 73.2544 134.241 72.4294 134.75 71.4484C135.259 70.4678 135.473 69.2578 136.363 68.5982C137.637 67.6547 139.591 68.4991 140.375 69.8713C141.49 71.8225 140.701 74.6087 138.726 75.6978C137.582 76.3287 135.906 76.7518 135.861 78.0512C135.838 78.6971 136.292 79.2653 136.798 79.6721C137.706 80.4012 139.184 80.7474 139.958 79.8787C141.06 78.6406 139.829 76.0243 141.356 75.3665C142.704 74.7859 144.25 76.8647 145.51 76.1122ZM180.317 62.262C180.774 61.5585 181.232 60.7879 181.993 60.4292C182.967 59.971 184.135 60.3351 185.059 60.886C185.982 61.437 186.807 62.1745 187.82 62.5388C188.851 62.9098 189.98 62.8598 191.075 62.8048C192.897 62.7135 194.718 62.6223 196.539 62.531C185.53 56.1957 173.147 51.753 160.423 51.628C159.351 51.6177 158.254 51.6417 157.248 52.0102C156.241 52.3789 155.327 53.1545 155.069 54.1883C154.676 55.7629 156.119 57.4457 157.751 57.4961C156.898 58.116 157.03 59.556 157.842 60.2276C158.655 60.8988 159.87 60.8935 160.846 60.4895C161.821 60.0851 162.611 59.3479 163.378 58.6257C164.806 57.2823 166.234 55.9386 167.662 54.5948C168.559 53.7505 169.956 53.7145 171.169 53.953C172.382 54.1914 173.569 54.6526 174.804 54.6226C177.399 54.5601 179.698 57.2061 179.256 59.7463C178.091 58.6554 176.397 58.1498 174.819 58.4226C173.242 58.6951 171.819 59.7395 171.094 61.1573C170.507 62.3063 169.195 62.9138 167.919 63.1501C166.643 63.3866 165.324 63.3373 164.053 63.5982C162.782 63.8588 161.487 64.5235 160.966 65.7044C160.447 66.8857 161.126 68.57 162.418 68.6891C163.924 68.8278 164.802 67.0722 166.069 66.2519C167.274 65.4713 168.847 65.5735 170.253 65.8769C171.659 66.1804 173.064 66.6591 174.498 66.536C176.989 66.3219 178.962 64.3494 180.317 62.262ZM220.634 134.254C217.749 135.359 214.864 136.463 211.98 137.568C211.578 137.721 211.09 138.114 211.331 138.468C214.083 142.501 216.201 146.96 217.585 151.633C217.72 152.088 218.415 151.748 218.687 151.358C221.21 147.735 223.221 143.762 224.644 139.59C224.902 138.835 225.142 138.019 224.921 137.253C224.574 136.048 223.27 135.441 222.31 134.629C222.045 134.405 221.776 134.145 221.431 134.095C221.16 134.056 220.89 134.156 220.634 134.254ZM187.355 98.4298C186.03 99.8273 187.144 102.195 186.463 103.991C186.312 104.389 186.068 104.809 186.207 105.212C186.276 105.413 186.432 105.57 186.582 105.72C187.054 106.189 187.525 106.658 187.996 107.127C188.366 107.495 188.966 107.876 189.351 107.524C190.936 106.077 192.856 104.993 194.919 104.382C195.513 104.205 196.156 104.046 196.571 103.589C196.937 103.185 197.055 102.623 197.159 102.09C197.741 99.1051 198.32 96.1195 198.894 93.1333C198.939 92.9002 198.982 92.6502 198.887 92.433C198.786 92.2023 198.551 92.0611 198.322 91.953C196.002 90.8549 192.88 91.9799 191.809 94.3008C191.445 95.0883 191.277 96.0004 190.666 96.6192C189.776 97.5211 188.227 97.5107 187.355 98.4298ZM141.081 60.2488C140.632 59.8445 140.168 59.337 140.213 58.7367C140.26 58.097 140.856 57.6561 141.397 57.3048C143.312 56.0608 145.227 54.8167 147.142 53.573C147.095 53.2036 146.574 53.1645 146.205 53.2311C141.246 54.1267 136.388 55.5701 131.749 57.5267C136.923 60.6942 141.886 64.2004 146.596 68.015C147.168 66.7263 148.639 66.0919 149.51 64.9807C150.61 63.5769 150.693 61.4923 152.046 60.3267C152.71 59.7545 153.696 59.3579 153.829 58.4951C152.668 58.5032 151.506 58.5114 150.344 58.5192C148.931 58.5292 147.426 58.5654 146.252 59.3464C145.228 60.0279 144.44 61.2676 143.207 61.3026C142.395 61.3257 141.683 60.7913 141.081 60.2488ZM198.996 137.002C199.898 138.607 200.799 140.213 201.701 141.818C200.049 136.599 198.08 131.479 195.806 126.495C195.725 126.318 195.633 126.129 195.46 126.038C195.247 125.926 194.987 126 194.758 126.076C188.353 128.203 181.949 130.329 175.544 132.456C175.35 132.52 175.139 132.598 175.034 132.773C174.909 132.984 174.984 133.252 175.068 133.482C175.443 134.51 175.934 135.497 176.529 136.418C180.546 134.097 184.563 131.775 188.58 129.454C189.198 129.097 189.849 128.73 190.563 128.703C191.155 128.681 191.73 128.896 192.258 129.161C195.396 130.733 197.284 133.953 198.996 137.002ZM169.917 180.437C169.11 178.724 167.725 177.322 166.134 176.283C164.181 179.886 161.94 183.335 159.439 186.587C159.248 186.836 159.177 187.345 159.491 187.323C162.541 187.11 165.591 186.897 168.641 186.684C169.253 186.641 169.989 186.513 170.214 185.946C170.912 184.187 170.725 182.149 169.917 180.437ZM215.966 155.172C216.213 154.797 216.464 154.411 216.564 153.973C216.696 153.394 216.55 152.792 216.393 152.22C215.183 147.817 213.28 143.615 210.905 139.708C210.628 139.254 210.331 138.788 209.88 138.501C209.43 138.214 208.783 138.161 208.39 138.522C207.865 139.004 208.064 139.854 208.303 140.523C210.197 145.821 212.091 151.12 213.984 156.418C214.097 156.734 214.354 157.122 214.669 157.001C214.791 156.954 214.871 156.838 214.943 156.729C215.284 156.21 215.625 155.691 215.966 155.172ZM196.961 87.7824C197.509 88.2418 198.236 88.4155 198.935 88.5755C199.495 88.7036 199.827 87.978 199.924 87.4149C200.572 83.6555 200.987 79.8612 201.403 76.0693C201.085 75.9353 200.748 76.1931 200.5 76.4318C199.609 77.2903 198.719 78.1487 197.827 79.0071C197.207 79.6046 196.559 80.2503 196.362 81.0859C195.988 82.6762 197.353 84.489 196.49 85.8793C196.114 86.4855 196.412 87.3233 196.961 87.7824ZM195.02 117.856C194.806 117.617 194.575 117.371 194.269 117.273C193.963 117.174 193.564 117.286 193.458 117.587C192.509 120.282 191.561 122.977 190.612 125.671C190.522 125.927 190.583 126.359 190.844 126.282C192.444 125.813 193.92 124.983 195.526 124.538C197.133 124.092 199.011 124.098 200.295 125.156C198.798 122.55 197.027 120.099 195.02 117.856ZM208.722 78.4534C209.203 77.1571 209.684 75.8609 210.165 74.5647C210.258 74.3134 210.074 74.0519 209.9 73.8469C208.183 71.8147 206.45 69.7685 204.371 68.1028C204.282 68.0319 204.182 67.9582 204.068 67.9641C203.852 67.9757 203.766 68.2425 203.735 68.4553C203.476 70.2625 203.217 72.07 202.958 73.8775C202.883 74.404 203.372 74.8619 203.884 75.0178C204.396 75.1734 204.947 75.13 205.474 75.2275C206.445 75.4069 207.305 76.0972 207.685 77.0028C207.927 77.5771 208.106 78.3412 208.722 78.4534ZM193.365 113.366C194.274 111.056 195.109 108.717 195.866 106.353C195.917 106.194 195.967 106.021 195.913 105.863C195.769 105.441 195.14 105.55 194.738 105.75C193.161 106.534 191.645 107.439 190.206 108.453C190.028 108.579 189.833 108.738 189.826 108.955C189.821 109.12 189.927 109.264 190.029 109.394C191.097 110.753 192.21 112.078 193.365 113.366ZM206.707 151.443C206.536 151.258 206.256 151.229 206.004 151.233C205.434 151.243 204.866 151.358 204.338 151.572C204.078 151.677 203.819 151.808 203.539 151.822C203.259 151.836 202.945 151.692 202.876 151.421C203.616 150.895 204.514 150.591 205.424 150.558C205.829 150.543 205.841 149.861 205.486 149.668C205.131 149.475 204.693 149.616 204.314 149.76C203.689 149.999 203.065 150.237 202.44 150.476C202.258 150.545 202.071 150.327 202.097 150.135C202.123 149.943 202.28 149.798 202.435 149.68C202.997 149.253 203.668 148.97 204.367 148.863C204.7 148.812 204.754 148.298 204.51 148.067C204.267 147.835 203.892 147.82 203.556 147.837C202.577 147.888 201.606 148.099 200.695 148.458C201.472 149.843 202.265 151.218 203.075 152.584C203.284 152.937 203.512 153.307 203.875 153.502C204.527 152.685 205.518 152.142 206.562 152.033C206.814 152.006 206.877 151.627 206.707 151.443ZM220.086 176.417C219.487 176.569 218.894 176.742 218.308 176.936C218.148 176.989 217.962 177.073 217.935 177.238C217.919 177.337 217.967 177.434 218.013 177.522C218.357 178.179 218.702 178.837 219.046 179.494C219.186 179.76 219.467 180.073 219.728 179.921C220.586 179.419 221.546 179.088 222.533 178.953C222.804 178.916 222.982 178.626 222.988 178.354C222.994 178.082 222.873 177.825 222.754 177.579C222.551 177.159 222.328 176.715 221.928 176.47C221.39 176.14 220.698 176.262 220.086 176.417ZM222.397 183.639C222.162 183.682 221.892 183.752 221.8 183.97C221.725 184.148 221.804 184.349 221.883 184.526C222.181 185.199 222.48 185.872 222.779 186.545C222.872 186.755 222.995 186.991 223.221 187.041C223.382 187.076 223.545 187.004 223.693 186.933C224.153 186.714 224.614 186.495 225.074 186.276C225.333 186.153 225.608 186.016 225.75 185.768C225.892 185.52 225.816 185.132 225.539 185.056C225.391 185.016 225.236 185.073 225.098 185.14C224.685 185.339 224.314 185.628 223.874 185.755C223.434 185.882 222.873 185.785 222.665 185.38C223.749 184.997 224.785 184.481 225.743 183.848C225.657 183.253 224.818 183.2 224.224 183.308C223.615 183.419 223.006 183.529 222.397 183.639ZM213.538 168.187C213.714 167.996 213.97 167.903 214.215 167.817C214.891 167.578 215.566 167.34 216.241 167.101C216.593 166.977 216.506 166.398 216.175 166.228C215.844 166.059 215.444 166.165 215.088 166.274C214.315 166.51 213.543 166.746 212.77 166.982C212.67 167.013 212.563 167.047 212.493 167.125C212.332 167.303 212.44 167.583 212.555 167.793C212.861 168.355 213.167 168.916 213.473 169.478C213.509 169.544 213.549 169.613 213.617 169.645C213.699 169.683 213.795 169.654 213.881 169.625C214.821 169.302 215.761 168.979 216.701 168.657C216.925 168.58 217.195 168.439 217.176 168.204C217.15 167.883 216.677 167.881 216.368 167.978C215.401 168.283 214.434 168.588 213.468 168.892C213.297 168.697 213.361 168.377 213.538 168.187ZM225.555 131.552C224.723 132.019 223.89 132.486 223.058 132.953C222.958 133.009 222.853 133.07 222.798 133.171C222.652 133.436 222.94 133.724 223.192 133.893C223.71 134.237 224.228 134.582 224.746 134.926C224.847 134.994 224.957 135.064 225.08 135.065C225.358 135.068 225.502 134.742 225.574 134.475C225.803 133.615 226.033 132.756 226.263 131.897C226.292 131.789 226.32 131.671 226.273 131.569C226.161 131.324 225.791 131.419 225.555 131.552ZM214.596 170.111C214.395 170.163 214.166 170.237 214.091 170.43C214.035 170.573 214.086 170.734 214.152 170.873C214.32 171.23 214.587 171.542 214.915 171.764C215.788 171.433 216.662 171.102 217.535 170.771C217.91 170.629 218.355 170.389 218.339 169.99C218.327 169.705 218.056 169.484 217.774 169.429C217.492 169.374 217.202 169.445 216.924 169.517C216.148 169.715 215.372 169.913 214.596 170.111ZM201.944 138.912C202.249 139.504 203.005 139.676 203.666 139.782C204.721 139.952 205.776 140.122 206.831 140.292C206.849 139.697 206.231 139.302 205.683 139.063C204.677 138.625 203.628 138.288 202.555 138.056C202.439 138.031 202.318 138.007 202.203 138.035C201.86 138.117 201.783 138.599 201.944 138.912ZM198.033 138.464C198.116 138.433 198.199 138.401 198.27 138.349C198.585 138.119 198.489 137.579 198.168 137.359C197.847 137.138 197.412 137.167 197.04 137.284C196.667 137.4 196.319 137.593 195.938 137.678C195.424 137.794 194.75 137.788 194.553 138.274C194.384 138.689 194.771 139.16 195.211 139.256C195.651 139.352 196.102 139.191 196.524 139.032C197.027 138.843 197.53 138.653 198.033 138.464ZM200.058 142.209C200.483 141.933 200.286 141.208 199.835 140.978C199.382 140.749 198.839 140.856 198.344 140.969C197.822 141.087 197.265 141.226 196.91 141.624C196.554 142.021 196.555 142.766 197.04 142.991C197.699 143.297 198.317 142.433 199.037 142.326C199.38 142.275 199.767 142.397 200.058 142.209ZM214.981 165.448C215.123 165.401 215.274 165.348 215.366 165.229C215.468 165.098 215.472 164.91 215.414 164.754C215.279 164.389 214.855 164.195 214.463 164.202C214.071 164.209 213.703 164.374 213.346 164.536C212.893 164.743 212.44 164.95 211.987 165.156C211.737 165.27 211.456 165.424 211.414 165.694C211.373 165.967 211.626 166.216 211.898 166.274C212.171 166.332 212.452 166.251 212.718 166.169C213.475 165.937 214.23 165.697 214.981 165.448ZM217.023 174.981C217.999 174.573 218.976 174.165 219.952 173.758C220.044 173.719 220.14 173.679 220.207 173.605C220.405 173.387 220.224 173.007 219.948 172.902C219.671 172.797 219.363 172.878 219.079 172.96C218.419 173.15 217.759 173.339 217.1 173.529C216.735 173.634 216.326 173.775 216.173 174.12C215.963 174.592 216.544 175.181 217.023 174.981ZM223.613 180.633C224.003 180.484 223.861 179.831 223.474 179.674C223.086 179.518 222.652 179.679 222.259 179.822C221.491 180.103 220.698 180.321 219.894 180.472C219.613 180.847 219.955 181.422 220.408 181.549C220.86 181.677 221.338 181.506 221.777 181.338C222.389 181.103 223.001 180.868 223.613 180.633ZM202.83 137.184C203.617 137.388 204.404 137.593 205.19 137.798C205.49 137.876 205.951 137.832 205.929 137.525C204.571 136.593 203.008 135.955 201.381 135.671C201.295 135.656 201.204 135.643 201.122 135.672C200.84 135.774 200.947 136.208 201.16 136.419C201.599 136.854 202.23 137.027 202.83 137.184ZM205.803 134.165C206.081 134.83 206.359 135.494 206.637 136.159C206.805 136.559 206.993 136.984 207.363 137.214C207.732 137.444 208.334 137.347 208.455 136.93C208.547 136.613 208.331 136.296 208.126 136.036C207.343 135.045 206.536 134.071 205.707 133.116C205.524 133.432 205.662 133.829 205.803 134.165ZM204.456 135.414C204.603 135.465 204.783 135.51 204.902 135.41C205.042 135.293 204.991 135.066 204.896 134.911C204.552 134.347 203.854 134.124 203.215 133.944C202.357 133.702 201.498 133.46 200.639 133.217C200.372 133.142 200.171 133.529 200.296 133.775C200.421 134.02 200.708 134.131 200.971 134.221C202.132 134.619 203.294 135.016 204.456 135.414ZM215.938 172.043C215.696 172.115 215.434 172.204 215.302 172.417C215.067 172.797 215.41 173.292 215.814 173.487C216.724 172.75 217.885 172.325 219.059 172.297C219.458 172.288 219.493 171.623 219.154 171.412C218.815 171.201 218.376 171.31 217.994 171.425C217.308 171.631 216.623 171.837 215.938 172.043ZM212.124 161.66C211.57 161.805 211.016 161.95 210.462 162.096C209.955 162.229 209.318 162.559 209.44 163.066C209.543 163.498 210.151 163.596 210.559 163.415C210.967 163.233 211.278 162.88 211.684 162.694C212.347 162.39 213.282 162.501 213.654 161.876C213.337 161.429 212.656 161.52 212.124 161.66ZM191.371 132.58C191.265 132.625 191.156 132.677 191.085 132.769C190.905 133.005 191.102 133.373 191.382 133.476C191.662 133.58 191.973 133.505 192.264 133.436C193.241 133.204 194.235 133.043 195.236 132.955C195.333 132.41 194.615 132.105 194.058 132.083C193.14 132.047 192.215 132.218 191.371 132.58ZM207.563 153.72C207.85 153.418 207.688 152.746 207.278 152.825C206.19 153.036 205.141 153.445 204.199 154.025C203.979 154.47 204.588 154.932 205.081 154.855C205.575 154.777 205.971 154.418 206.433 154.23C206.82 154.072 207.276 154.022 207.563 153.72ZM208.159 143.957C208.03 143.795 207.824 143.718 207.629 143.649C206.678 143.311 205.727 142.974 204.776 142.636C204.516 142.543 204.224 142.451 203.971 142.562C203.718 142.672 203.617 143.088 203.865 143.21C205.083 143.808 206.378 144.252 207.709 144.527C207.847 144.555 208.002 144.579 208.121 144.504C208.296 144.393 208.288 144.119 208.159 143.957ZM203.682 132.846C203.818 132.926 203.997 132.775 204 132.619C204.003 132.462 203.897 132.326 203.791 132.21C202.769 131.104 201.27 130.587 199.837 130.111C199.473 129.99 198.941 129.949 198.835 130.315C200.493 131.077 202.111 131.922 203.682 132.846ZM224.831 181.948C224.746 181.651 224.43 181.467 224.121 181.436C223.812 181.405 223.505 181.496 223.208 181.586C222.689 181.744 222.17 181.901 221.651 182.059C221.293 182.168 220.857 182.382 220.887 182.753C220.912 183.055 221.266 183.235 221.57 183.206C221.873 183.177 222.141 183.007 222.416 182.876C223.016 182.591 223.701 182.484 224.36 182.573C224.668 182.615 224.917 182.245 224.831 181.948ZM192.298 134.837C192.294 135.116 192.513 135.381 192.789 135.432C192.968 135.464 193.15 135.416 193.325 135.367C194.335 135.088 195.345 134.808 196.354 134.529C196.37 134.247 196.125 134.004 195.853 133.922C195.581 133.84 195.289 133.882 195.008 133.925C194.274 134.035 193.541 134.146 192.808 134.257C192.53 134.299 192.302 134.558 192.298 134.837ZM208.976 154.896C209.016 154.634 208.757 154.402 208.493 154.369C208.228 154.337 207.968 154.444 207.723 154.549C206.944 154.883 206.164 155.217 205.385 155.551C205.153 155.843 205.439 156.307 205.804 156.389C206.169 156.471 206.54 156.305 206.877 156.144C207.41 155.889 207.942 155.634 208.474 155.379C208.693 155.274 208.94 155.134 208.976 154.896ZM197.832 128.098C197.922 128.257 198.1 128.342 198.268 128.416C199.656 129.034 201.045 129.652 202.433 130.27C202.68 130.379 203.039 130.454 203.161 130.214C203.291 129.957 202.969 129.712 202.703 129.599C201.209 128.969 199.715 128.339 198.221 127.708C198.147 127.677 198.066 127.644 197.986 127.658C197.805 127.688 197.742 127.94 197.832 128.098ZM205.023 145.888C204.976 145.868 204.926 145.848 204.877 145.858C204.825 145.868 204.782 145.913 204.775 145.965C204.896 146.79 205.828 147.197 206.627 147.454C207.671 147.791 208.715 148.127 209.759 148.464C210.01 148.188 209.6 147.806 209.256 147.662C207.845 147.071 206.433 146.479 205.023 145.888ZM197.303 136.216C197.419 135.999 197.244 135.726 197.023 135.613C196.637 135.416 196.171 135.526 195.753 135.64C195.276 135.77 194.799 135.9 194.323 136.03C193.979 136.124 193.565 136.3 193.552 136.654C193.543 136.919 193.794 137.135 194.056 137.184C194.318 137.232 194.585 137.155 194.841 137.08C195.521 136.878 196.201 136.677 196.881 136.475C197.044 136.427 197.223 136.365 197.303 136.216ZM220.94 174.614C220.656 174.451 220.3 174.546 219.988 174.645C218.995 174.96 218.003 175.275 217.011 175.591C216.791 175.94 217.191 176.404 217.604 176.429C218.018 176.453 218.393 176.213 218.758 176.019C219.422 175.665 220.154 175.438 220.903 175.353C221.229 175.315 221.223 174.777 220.94 174.614ZM201.988 144.694C201.67 144.61 201.333 144.668 201.01 144.728C200.609 144.801 200.209 144.874 199.809 144.948C199.355 145.031 198.779 145.264 198.827 145.72C198.855 145.989 199.123 146.184 199.392 146.223C199.662 146.262 199.933 146.182 200.194 146.103C200.993 145.862 201.792 145.62 202.591 145.378C202.599 145.052 202.306 144.779 201.988 144.694ZM199.263 139.348C199.04 139.123 198.674 139.107 198.369 139.194C198.064 139.282 197.791 139.454 197.492 139.563C197.141 139.691 196.761 139.729 196.411 139.86C196.06 139.992 195.722 140.255 195.661 140.622C195.793 140.927 196.234 140.893 196.557 140.807C197.413 140.578 198.269 140.349 199.124 140.12C199.431 140.038 199.485 139.574 199.263 139.348ZM198.072 143.507C197.715 143.61 197.776 144.195 198.102 144.373C198.427 144.551 198.828 144.453 199.185 144.35C199.933 144.136 200.681 143.921 201.429 143.707C201.484 143.335 201.142 142.999 200.773 142.919C200.404 142.838 200.023 142.944 199.66 143.048C199.131 143.201 198.601 143.354 198.072 143.507ZM202.316 91.233C202.792 90.8927 202.719 90.1905 202.733 89.6083C202.113 89.5333 201.434 89.4708 200.911 89.8102C200.388 90.1499 200.248 91.0664 200.808 91.3417C201 91.4364 201.224 91.4339 201.439 91.4292C201.744 91.4227 202.069 91.4095 202.316 91.233ZM203.515 140.723C203.216 140.692 202.779 140.824 202.864 141.11C202.905 141.248 203.058 141.316 203.194 141.365C204.497 141.833 205.859 142.143 207.237 142.285C207.408 142.246 207.459 142.006 207.369 141.857C207.28 141.707 207.108 141.629 206.945 141.565C205.849 141.127 204.691 140.843 203.515 140.723ZM197.447 126.349C198.575 126.924 199.724 127.458 200.892 127.948C201.119 128.044 201.377 128.138 201.605 128.045C201.833 127.952 201.919 127.573 201.694 127.475C200.366 126.898 199.039 126.321 197.711 125.744C197.5 125.652 197.199 125.586 197.085 125.785C196.96 126.003 197.223 126.234 197.447 126.349ZM208.609 145.653C208.417 145.479 208.159 145.402 207.91 145.329C206.862 145.023 205.815 144.718 204.767 144.412C204.622 144.37 204.461 144.329 204.325 144.395C204.19 144.461 204.141 144.688 204.277 144.754C205.71 145.452 207.223 145.988 208.777 146.348C208.906 146.124 208.802 145.826 208.609 145.653ZM209.431 161.709C210.178 161.446 210.925 161.184 211.672 160.921C212.001 160.806 212.353 160.672 212.541 160.381C212.493 160.12 212.209 159.955 211.941 159.95C211.674 159.945 211.421 160.06 211.179 160.172C210.524 160.476 209.869 160.78 209.215 161.083C208.978 161.193 208.706 161.355 208.701 161.614C208.825 161.851 209.177 161.798 209.431 161.709ZM203.496 146.871C203.67 146.678 203.513 146.343 203.271 146.247C203.028 146.151 202.755 146.218 202.503 146.284C201.645 146.512 200.788 146.74 199.931 146.968C199.775 147.147 199.915 147.449 200.133 147.543C200.352 147.637 200.603 147.587 200.835 147.535C201.609 147.365 202.382 147.194 203.156 147.024C203.279 146.997 203.411 146.965 203.496 146.871ZM213.971 162.828C213.794 162.79 213.614 162.859 213.446 162.927C212.532 163.298 211.619 163.669 210.705 164.04C210.44 164.147 210.547 164.594 210.815 164.691C211.084 164.789 211.378 164.662 211.635 164.539C212.42 164.161 213.206 163.784 213.991 163.406C214.08 163.363 214.175 163.314 214.22 163.226C214.299 163.065 214.148 162.867 213.971 162.828ZM207.261 148.413C206.909 148.284 206.402 148.217 206.261 148.562C207.5 149.195 208.813 149.684 210.166 150.014C210.443 149.848 210.098 149.457 209.795 149.345C208.95 149.035 208.106 148.724 207.261 148.413ZM190.222 131.414C189.985 131.681 190.218 132.187 190.576 132.184C191.394 131.653 192.35 131.334 193.324 131.264C193.015 130.88 192.48 130.735 191.987 130.773C191.494 130.811 191.028 131.006 190.574 131.199C190.446 131.253 190.314 131.31 190.222 131.414ZM210.238 151.348C210.506 151.412 210.928 151.337 210.861 151.072C209.742 150.57 208.563 150.201 207.357 149.976C207.223 150.154 207.303 150.424 207.47 150.572C207.636 150.72 207.864 150.777 208.081 150.829C208.8 151.002 209.519 151.175 210.238 151.348ZM209.392 152.74C210.018 152.932 210.667 153.053 211.321 153.1C211.452 152.928 211.377 152.666 211.217 152.52C211.057 152.374 210.837 152.317 210.627 152.263C209.959 152.095 209.292 151.926 208.625 151.758C208.382 152.172 208.931 152.598 209.392 152.74ZM223.658 188.069C223.509 188.433 223.703 188.943 224.096 188.994C224.585 188.528 225.005 187.99 225.338 187.403C225.149 187.2 224.814 187.249 224.552 187.345C224.18 187.481 223.808 187.705 223.658 188.069ZM213.209 157.804C212.891 157.51 212.497 157.296 212.076 157.187C212.008 157.78 212.351 158.398 212.892 158.658C213.021 158.72 213.175 158.763 213.307 158.707C213.642 158.566 213.475 158.05 213.209 157.804ZM211.643 154.08C211.424 153.923 211.141 153.893 210.872 153.868C210.541 153.837 210.21 153.807 209.879 153.776C209.718 154.16 210.173 154.533 210.587 154.593C211 154.653 211.453 154.571 211.815 154.78C211.979 154.567 211.862 154.237 211.643 154.08ZM214.209 161.308C214.339 161.418 214.499 161.516 214.669 161.497C214.728 160.69 214.18 159.939 213.496 159.499C213.416 160.168 213.692 160.87 214.209 161.308ZM212.088 155.867C211.705 155.657 211.253 155.571 210.819 155.625C210.976 156.046 211.351 156.379 211.79 156.488C212.025 156.547 212.317 156.521 212.445 156.317C212.573 156.113 212.321 155.775 212.123 155.913M190.614 129.719C190.251 129.783 189.91 129.966 189.657 130.234C190.109 130.36 190.624 130.232 190.963 129.91C190.879 129.799 190.749 129.722 190.611 129.703" fill="#00160A"/>
<path fill-rule="evenodd" clip-rule="evenodd" d="M183.122 166.392C186.914 162.842 192.236 163.342 195.959 167.238C199.196 170.628 198.427 175.105 194.75 178.861C193.363 180.263 190.579 181.193 188.564 180.966C186.858 180.8 184.202 179.575 182.625 178.445C181.894 177.923 181.227 176.845 180.596 175.207L180.503 174.962C179.385 171.938 180.14 168.741 182.676 166.735L182.794 166.643L182.821 166.607C182.843 166.58 182.868 166.555 182.897 166.532L182.943 166.497L182.995 166.465L183.103 166.412L183.122 166.392ZM189.714 178.588L188.567 179.783L188.693 179.794C189.869 179.877 191.019 179.697 192.065 179.264L192.123 179.239L192.042 179.234C191.319 179.184 190.556 178.969 189.762 178.61L189.714 178.588ZM186.367 176.342L186.26 176.246L186.147 176.353C185.702 176.776 185.25 177.208 184.788 177.654L184.265 178.161C184.413 178.266 184.567 178.369 184.728 178.469C185.453 178.93 186.236 179.279 187.047 179.506L187.221 179.553L188.059 178.692L188.687 178.045L188.646 178.021C187.857 177.549 187.082 176.97 186.367 176.342ZM191.838 176.372L190.471 177.798L190.54 177.827C191.604 178.261 192.55 178.344 193.364 178.024L193.449 177.988L193.367 177.897C192.956 177.449 192.513 177.004 192.029 176.55L191.838 176.372ZM183.602 173.363L183.359 173.596C183.01 173.927 182.657 174.256 182.301 174.583L181.742 175.093L181.789 175.202C182.167 176.053 182.695 176.794 183.383 177.442L183.408 177.465L183.486 177.387C183.983 176.895 184.498 176.396 185.033 175.885L185.45 175.49L185.337 175.378C184.714 174.761 184.18 174.155 183.732 173.544L183.602 173.363ZM194.071 174.043L192.579 175.599L192.594 175.613C193.167 176.145 193.69 176.667 194.175 177.195L194.323 177.357L194.327 177.352C194.837 176.678 194.749 175.58 194.137 174.19L194.071 174.043ZM188.851 173.832L188.741 173.933C188.23 174.4 187.713 174.879 187.186 175.373L187.037 175.512L187.176 175.632C187.905 176.253 188.604 176.775 189.302 177.196L189.434 177.273L190.371 176.304L191.015 175.635L190.802 175.451C190.416 175.118 189.998 174.769 189.473 174.339L188.851 173.832ZM196.822 171.175L194.758 173.327L194.825 173.454C194.938 173.672 195.05 173.893 195.159 174.119L195.322 174.459L195.473 174.787C195.627 175.104 195.734 175.42 195.791 175.731L195.799 175.783L195.861 175.676C196.696 174.183 197.038 172.646 196.829 171.219L196.822 171.175ZM192.281 171.151L192.175 171.014L191.799 171.323L190.75 172.168L190.562 172.322C190.369 172.48 190.196 172.626 190.036 172.764L189.85 172.927L189.658 173.099L190.091 173.451C190.573 173.846 190.993 174.196 191.386 174.534L191.76 174.859L192.96 173.607L193.53 173.008L193.526 173C193.167 172.383 192.741 171.753 192.281 171.151ZM185.891 171.278L185.802 171.192L185.773 171.221C185.422 171.579 185.068 171.934 184.711 172.287L184.355 172.636L184.43 172.747C184.863 173.38 185.4 173.998 186.026 174.598L186.184 174.748L186.213 174.774L186.261 174.729C186.623 174.392 186.994 174.05 187.377 173.699L187.995 173.135L187.91 173.066C187.215 172.489 186.543 171.894 185.891 171.278ZM182.076 168.994L182.042 169.049C181.193 170.441 180.931 172.171 181.325 173.819L181.36 173.96L181.378 174.027L181.556 173.865C181.929 173.523 182.298 173.179 182.665 172.831L183.038 172.473L183.002 172.41C182.391 171.302 182.072 170.176 182.076 169.02L182.076 168.994ZM188.822 167.953L188.379 168.448C187.877 169.006 187.366 169.558 186.85 170.103L186.546 170.422L186.621 170.494C187.223 171.061 187.847 171.613 188.498 172.156L188.801 172.406L189.09 172.147C189.275 171.982 189.474 171.813 189.699 171.627L190.068 171.326L190.935 170.63C191.091 170.504 191.231 170.39 191.361 170.283L191.488 170.178L191.426 170.108C191.129 169.772 190.849 169.483 190.616 169.271L190.548 169.209C190.075 168.794 189.559 168.414 188.984 168.053L188.822 167.953ZM195.08 167.892L195.033 167.971C194.555 168.762 193.895 169.503 192.998 170.309L192.923 170.375L192.95 170.411C193.342 170.948 193.714 171.509 194.066 172.095L194.193 172.311L195.197 171.255L196.467 169.912L196.437 169.841C196.145 169.165 195.711 168.53 195.135 167.947L195.08 167.892ZM183.201 168.493L183.196 168.539C183.093 169.605 183.307 170.654 183.809 171.686L183.822 171.711L183.955 171.581C184.251 171.289 184.546 170.994 184.838 170.698L185.061 170.47L184.97 170.38C184.456 169.863 183.952 169.33 183.453 168.777L183.201 168.493ZM183.7 167.314L183.623 167.35L183.643 167.373C184.322 168.163 185.014 168.911 185.73 169.628L185.803 169.701L186.102 169.389C186.627 168.835 187.144 168.275 187.654 167.708L187.902 167.43L187.876 167.416C187.749 167.349 187.62 167.282 187.487 167.215L187.286 167.114C186.104 166.549 185.231 166.611 183.818 167.258L183.7 167.314ZM191.092 165.296L190.656 165.823C190.362 166.175 190.065 166.525 189.766 166.873L189.556 167.115L189.609 167.148C190.401 167.646 191.076 168.186 191.631 168.785L191.756 168.924C191.879 169.063 192 169.204 192.12 169.347L192.257 169.514L192.276 169.497C193.159 168.695 193.783 167.963 194.211 167.178L194.224 167.154L194.11 167.067C192.965 166.189 192.126 165.668 191.239 165.348L191.092 165.296ZM189.34 164.994C188.218 164.987 187.197 165.182 186.254 165.584L186.2 165.607L186.294 165.619C186.501 165.649 186.703 165.699 186.902 165.773L187.002 165.811C187.536 166.041 188.027 166.27 188.488 166.509L188.642 166.59L188.944 166.243C189.251 165.886 189.556 165.528 189.857 165.166L189.965 165.035L189.834 165.021C189.725 165.01 189.615 165.003 189.505 164.998L189.34 164.994Z" fill="#FFB61D"/>
<path fill-rule="evenodd" clip-rule="evenodd" d="M207.14 90.0561C207.541 89.1434 208.986 88.7666 210.052 89.1471C211.118 89.5273 211.78 90.4782 211.947 91.4411C212.114 92.404 211.86 93.3825 211.534 94.316C211.237 95.1672 210.878 96.0035 210.46 96.818C210.421 96.8938 210.369 96.9786 210.273 96.9966C210.171 97.0159 210.077 96.9492 210.004 96.8868C208.192 95.3449 207.1 93.2219 207.005 91.0573C206.99 90.7196 207 90.3733 207.14 90.0561ZM210.271 90.2788C209.974 90.0647 209.59 89.9246 209.199 89.9347C208.285 89.958 207.648 90.7951 207.668 91.5625C207.689 92.33 208.175 93.0267 208.648 93.6841C208.986 94.1548 209.325 94.6255 209.663 95.0963C209.778 95.2565 210.005 95.4394 210.185 95.3284C210.257 95.2838 210.285 95.2051 210.309 95.1323C210.447 94.7047 210.586 94.2771 210.724 93.8495C210.922 93.2381 211.122 92.6169 211.109 91.9834C211.097 91.35 210.844 90.6911 210.271 90.2788Z" fill="#FFB61D"/>
<path fill-rule="evenodd" clip-rule="evenodd" d="M209.636 92.963C209.532 93.0215 209.419 93.0103 209.318 92.932C209.124 92.7797 208.989 92.3618 209.001 91.9432C209.012 91.5249 209.168 91.1383 209.37 91.0291C209.675 90.8638 210.019 91.4283 209.999 92.0619C209.986 92.473 209.833 92.8511 209.636 92.963Z" fill="#FFB61D"/>
</g>
<defs>
<filter id="filter0_d_609_587" x="0" y="0" width="314" height="308" filterUnits="userSpaceOnUse" color-interpolation-filters="sRGB">
<feFlood flood-opacity="0" result="BackgroundImageFix"/>
<feColorMatrix in="SourceAlpha" type="matrix" values="0 0 0 0 0 0 0 0 0 0 0 0 0 0 0 0 0 0 127 0" result="hardAlpha"/>
<feOffset dx="10" dy="4"/>
<feGaussianBlur stdDeviation="2"/>
<feComposite in2="hardAlpha" operator="out"/>
<feColorMatrix type="matrix" values="0 0 0 0 0 0 0 0 0 0 0 0 0 0 0 0 0 0 0.25 0"/>
<feBlend mode="normal" in2="BackgroundImageFix" result="effect1_dropShadow_609_587"/>
<feBlend mode="normal" in="SourceGraphic" in2="effect1_dropShadow_609_587" result="shape"/>
</filter>
<linearGradient id="paint0_linear_609_587" x1="156" y1="32" x2="156" y2="189" gradientUnits="userSpaceOnUse">
<stop stop-color="#F7E5EE"/>
<stop offset="1" stop-color="#FEF7F7"/>
</linearGradient>
</defs>
</svg>
