<svg width="314" height="308" viewBox="0 0 314 308" fill="none" xmlns="http://www.w3.org/2000/svg">
<g filter="url(#filter0_d_594_367)">
<path d="M240 0H60C26.8629 0 0 26.8629 0 60V240C0 273.137 26.8629 300 60 300H240C273.137 300 300 273.137 300 240V60C300 26.8629 273.137 0 240 0Z" fill="white"/>
<path d="M133.753 240.903C133.753 242.873 133.379 244.639 132.63 246.201C131.881 247.747 130.823 249.066 129.456 250.156C128.089 251.23 126.453 252.061 124.549 252.646C122.645 253.216 120.545 253.501 118.25 253.501C117.973 253.501 117.729 253.428 117.518 253.281C117.322 253.118 117.225 252.882 117.225 252.573C117.225 252.329 117.314 252.118 117.493 251.938C117.672 251.759 117.892 251.67 118.152 251.67C120.203 251.67 122.075 251.434 123.768 250.962C125.46 250.49 126.909 249.798 128.113 248.887C129.318 247.959 130.254 246.828 130.921 245.493C131.588 244.159 131.922 242.629 131.922 240.903C131.922 239.146 131.531 237.583 130.75 236.216C129.985 234.849 128.903 233.693 127.503 232.749C126.119 231.805 124.459 231.089 122.522 230.601C120.602 230.112 118.486 229.868 116.175 229.868C113.994 229.868 111.878 230.047 109.827 230.405C107.793 230.763 105.88 231.268 104.09 231.919C102.299 232.57 100.664 233.351 99.1826 234.263C97.7178 235.174 96.4564 236.175 95.3984 237.266C94.3568 238.356 93.543 239.528 92.957 240.781C92.3711 242.018 92.0781 243.304 92.0781 244.639C92.0781 245.811 92.2816 246.836 92.6885 247.715C93.0954 248.594 93.6325 249.334 94.2998 249.937C94.9834 250.522 95.7646 250.962 96.6436 251.255C97.5225 251.548 98.4421 251.694 99.4023 251.694C100.542 251.694 101.551 251.572 102.43 251.328C103.325 251.084 104.074 250.815 104.676 250.522C105.294 250.229 105.766 249.961 106.092 249.717C106.417 249.456 106.596 249.31 106.629 249.277C106.808 249.098 107.02 249.009 107.264 249.009C107.508 249.009 107.719 249.106 107.898 249.302C108.094 249.481 108.191 249.692 108.191 249.937C108.191 250.213 108.094 250.433 107.898 250.596C107.866 250.628 107.654 250.799 107.264 251.108C106.889 251.418 106.336 251.759 105.604 252.134C104.887 252.492 104.008 252.817 102.967 253.11C101.925 253.403 100.737 253.55 99.4023 253.55C98.1816 253.55 97.0098 253.346 95.8867 252.939C94.7799 252.533 93.8034 251.947 92.957 251.182C92.127 250.4 91.4596 249.465 90.9551 248.374C90.4668 247.267 90.2227 246.022 90.2227 244.639C90.2227 243.125 90.5319 241.668 91.1504 240.269C91.7852 238.853 92.6641 237.534 93.7871 236.313C94.9264 235.076 96.2855 233.953 97.8643 232.944C99.443 231.919 101.193 231.048 103.113 230.332C105.034 229.6 107.093 229.038 109.29 228.647C111.487 228.241 113.766 228.037 116.126 228.037C118.714 228.037 121.09 228.33 123.255 228.916C125.42 229.502 127.275 230.348 128.821 231.455C130.384 232.562 131.596 233.913 132.459 235.508C133.322 237.087 133.753 238.885 133.753 240.903ZM119.251 235.093C119.495 235.093 119.707 235.182 119.886 235.361C120.081 235.524 120.179 235.744 120.179 236.021C120.179 236.183 120.13 236.33 120.032 236.46C119.951 236.59 119.845 236.712 119.715 236.826C118.803 237.542 118.071 238.315 117.518 239.146C116.98 239.976 116.565 240.871 116.272 241.831C115.996 242.775 115.809 243.784 115.711 244.858C115.63 245.933 115.589 247.056 115.589 248.228V251.304C115.589 253.322 115.41 255.243 115.052 257.065C114.694 258.872 114.083 260.459 113.221 261.826C112.374 263.193 111.235 264.276 109.803 265.073C108.37 265.887 106.572 266.294 104.407 266.294C103.431 266.294 102.47 266.172 101.526 265.928C100.599 265.7 99.7197 265.366 98.8896 264.927C98.0596 264.471 97.2946 263.918 96.5947 263.267C95.8949 262.616 95.2926 261.883 94.7881 261.069C94.7555 261.004 94.723 260.931 94.6904 260.85C94.6579 260.752 94.6416 260.662 94.6416 260.581C94.6416 260.353 94.723 260.15 94.8857 259.971C95.0648 259.775 95.2926 259.678 95.5693 259.678C95.7321 259.678 95.8786 259.727 96.0088 259.824C96.1553 259.906 96.2773 260.011 96.375 260.142C97.4167 261.59 98.5967 262.681 99.915 263.413C101.233 264.129 102.731 264.487 104.407 264.487C106.328 264.487 107.89 264.137 109.095 263.438C110.315 262.721 111.268 261.753 111.951 260.532C112.651 259.295 113.123 257.855 113.367 256.211C113.628 254.567 113.758 252.817 113.758 250.962V247.861C113.758 246.771 113.807 245.648 113.904 244.492C114.002 243.32 114.222 242.181 114.563 241.074C114.922 239.951 115.426 238.893 116.077 237.9C116.744 236.891 117.64 236.004 118.763 235.239C118.828 235.207 118.909 235.174 119.007 235.142C119.104 235.109 119.186 235.093 119.251 235.093ZM136.78 254.966C136.715 255.405 136.634 255.82 136.536 256.211C136.438 256.585 136.341 256.919 136.243 257.212C136.162 257.489 136.089 257.716 136.023 257.896C135.958 258.075 135.918 258.172 135.901 258.188C135.739 258.563 135.454 258.75 135.047 258.75C134.819 258.75 134.607 258.669 134.412 258.506C134.217 258.327 134.119 258.107 134.119 257.847C134.119 257.749 134.135 257.676 134.168 257.627C134.201 257.578 134.249 257.48 134.314 257.334C134.38 257.188 134.461 256.943 134.559 256.602C134.656 256.26 134.778 255.731 134.925 255.015C134.648 255.015 134.363 255.007 134.07 254.99C133.777 254.974 133.509 254.917 133.265 254.819C133.004 254.722 132.793 254.567 132.63 254.355C132.467 254.144 132.386 253.851 132.386 253.477C132.386 253.2 132.467 252.826 132.63 252.354C132.776 251.882 132.98 251.418 133.24 250.962C133.501 250.506 133.794 250.116 134.119 249.79C134.445 249.448 134.77 249.277 135.096 249.277C135.47 249.277 135.771 249.416 135.999 249.692C136.243 249.969 136.43 250.311 136.561 250.718C136.691 251.108 136.78 251.523 136.829 251.963C136.894 252.402 136.927 252.785 136.927 253.11C137.203 253.11 137.472 253.11 137.732 253.11C138.009 253.094 138.27 253.086 138.514 253.086C139.441 253.086 140.149 253.289 140.638 253.696C141.126 254.103 141.37 254.771 141.37 255.698C141.37 256.073 141.346 256.463 141.297 256.87C141.248 257.277 141.191 257.7 141.126 258.14C141.061 258.563 141.004 258.986 140.955 259.409C140.906 259.832 140.882 260.247 140.882 260.654C140.882 261.24 140.963 261.729 141.126 262.119C141.289 262.493 141.492 262.795 141.736 263.022C141.98 263.25 142.241 263.413 142.518 263.511C142.794 263.592 143.047 263.633 143.274 263.633C143.974 263.633 144.633 263.405 145.252 262.949C145.87 262.493 146.44 261.948 146.961 261.313C147.482 260.662 147.946 259.979 148.353 259.263C148.776 258.547 149.126 257.92 149.402 257.383C149.484 257.236 149.598 257.122 149.744 257.041C149.891 256.96 150.045 256.919 150.208 256.919C150.501 256.919 150.729 257.017 150.892 257.212C151.054 257.391 151.136 257.594 151.136 257.822C151.136 257.985 151.103 258.132 151.038 258.262C150.664 258.929 150.224 259.686 149.72 260.532C149.231 261.362 148.67 262.144 148.035 262.876C147.4 263.608 146.684 264.227 145.887 264.731C145.105 265.236 144.243 265.488 143.299 265.488C142.713 265.488 142.16 265.374 141.639 265.146C141.118 264.935 140.662 264.626 140.271 264.219C139.897 263.796 139.596 263.283 139.368 262.681C139.14 262.062 139.026 261.37 139.026 260.605C139.026 259.792 139.108 258.986 139.271 258.188C139.433 257.375 139.515 256.602 139.515 255.869C139.515 255.56 139.441 255.332 139.295 255.186C139.165 255.023 138.864 254.941 138.392 254.941C138.164 254.941 137.911 254.941 137.635 254.941C137.374 254.941 137.09 254.95 136.78 254.966ZM135.145 253.159C135.145 253.045 135.136 252.899 135.12 252.72C135.12 252.524 135.104 252.337 135.071 252.158C135.055 251.979 135.022 251.825 134.974 251.694C134.941 251.564 134.9 251.499 134.852 251.499C134.803 251.499 134.738 251.564 134.656 251.694C134.591 251.808 134.518 251.955 134.437 252.134C134.355 252.297 134.282 252.476 134.217 252.671C134.152 252.866 134.103 253.029 134.07 253.159H135.145ZM168.274 258.188C168.209 258.319 168.071 258.595 167.859 259.019C167.664 259.425 167.404 259.897 167.078 260.435C166.769 260.972 166.403 261.533 165.979 262.119C165.556 262.705 165.084 263.242 164.563 263.73C164.043 264.219 163.481 264.626 162.879 264.951C162.277 265.26 161.642 265.415 160.975 265.415C160.031 265.415 159.233 265.114 158.582 264.512C157.947 263.91 157.483 263.153 157.19 262.241C156.637 263.169 155.978 263.91 155.213 264.463C154.448 265 153.683 265.269 152.918 265.269C152.316 265.269 151.771 265.163 151.282 264.951C150.794 264.723 150.379 264.414 150.037 264.023C149.695 263.617 149.427 263.145 149.231 262.607C149.052 262.07 148.963 261.484 148.963 260.85C148.963 259.58 149.174 258.465 149.598 257.505C150.037 256.528 150.59 255.715 151.258 255.063C151.925 254.412 152.658 253.924 153.455 253.599C154.269 253.273 155.05 253.11 155.799 253.11C156.303 253.11 156.767 253.184 157.19 253.33C157.614 253.46 157.972 253.607 158.265 253.77C158.574 253.932 158.81 254.087 158.973 254.233C159.135 254.364 159.225 254.437 159.241 254.453C159.42 254.665 159.51 254.884 159.51 255.112C159.51 255.356 159.42 255.576 159.241 255.771C159.062 255.951 158.851 256.04 158.606 256.04C158.346 256.04 158.126 255.951 157.947 255.771C157.915 255.739 157.841 255.682 157.728 255.601C157.614 255.503 157.459 255.405 157.264 255.308C157.068 255.21 156.832 255.129 156.556 255.063C156.295 254.982 155.994 254.941 155.652 254.941C155.148 254.941 154.611 255.055 154.041 255.283C153.471 255.511 152.951 255.869 152.479 256.357C152.007 256.829 151.608 257.432 151.282 258.164C150.973 258.88 150.818 259.735 150.818 260.728C150.818 261.037 150.851 261.354 150.916 261.68C150.981 261.989 151.095 262.274 151.258 262.534C151.421 262.795 151.64 263.006 151.917 263.169C152.194 263.332 152.535 263.413 152.942 263.413C153.235 263.413 153.569 263.315 153.943 263.12C154.334 262.925 154.7 262.624 155.042 262.217C155.4 261.81 155.717 261.297 155.994 260.679C156.287 260.06 156.491 259.328 156.604 258.481C156.637 258.254 156.743 258.066 156.922 257.92C157.101 257.757 157.312 257.676 157.557 257.676C157.785 257.676 157.98 257.765 158.143 257.944C158.322 258.123 158.419 258.327 158.436 258.555C158.452 258.864 158.484 259.303 158.533 259.873C158.582 260.426 158.688 260.98 158.851 261.533C159.03 262.087 159.29 262.567 159.632 262.974C159.974 263.381 160.446 263.584 161.048 263.584C161.438 263.584 161.821 263.478 162.195 263.267C162.586 263.055 162.96 262.778 163.318 262.437C163.693 262.078 164.043 261.68 164.368 261.24C164.71 260.785 165.019 260.329 165.296 259.873C165.573 259.417 165.817 258.978 166.028 258.555C166.24 258.132 166.419 257.765 166.565 257.456C166.647 257.277 166.761 257.139 166.907 257.041C167.07 256.943 167.241 256.895 167.42 256.895C167.697 256.895 167.916 257 168.079 257.212C168.258 257.407 168.348 257.619 168.348 257.847C168.348 257.961 168.323 258.075 168.274 258.188ZM175.428 267.393C178.488 263.405 180.612 260.093 181.8 257.456C181.881 257.277 181.987 257.147 182.117 257.065C182.264 256.968 182.426 256.919 182.605 256.919C182.882 256.919 183.11 257.017 183.289 257.212C183.468 257.391 183.558 257.603 183.558 257.847C183.558 257.961 183.533 258.075 183.484 258.188C182.768 259.816 181.751 261.631 180.433 263.633C179.114 265.635 177.446 267.897 175.428 270.42C175.428 271.445 175.436 272.471 175.452 273.496C175.468 274.521 175.477 275.645 175.477 276.865C175.477 278.086 175.444 279.29 175.379 280.479C175.33 281.683 175.232 282.822 175.086 283.896C174.939 284.987 174.736 285.988 174.476 286.899C174.231 287.827 173.906 288.625 173.499 289.292C173.108 289.976 172.628 290.505 172.059 290.879C171.505 291.27 170.846 291.465 170.081 291.465C168.991 291.465 168.152 291.05 167.566 290.22C166.98 289.39 166.688 288.21 166.688 286.68C166.688 285.866 166.761 284.979 166.907 284.019C167.07 283.075 167.298 282.098 167.591 281.089C167.884 280.08 168.234 279.054 168.641 278.013C169.064 276.987 169.528 275.986 170.032 275.01C170.537 274.033 171.082 273.097 171.668 272.202C172.27 271.307 172.905 270.493 173.572 269.761C173.589 268.621 173.597 267.49 173.597 266.367C173.613 265.244 173.637 264.211 173.67 263.267C173.182 263.885 172.596 264.373 171.912 264.731C171.245 265.09 170.577 265.269 169.91 265.269C169.34 265.269 168.82 265.163 168.348 264.951C167.892 264.723 167.501 264.414 167.176 264.023C166.85 263.617 166.598 263.145 166.419 262.607C166.24 262.07 166.15 261.484 166.15 260.85C166.15 259.58 166.362 258.465 166.785 257.505C167.225 256.528 167.778 255.715 168.445 255.063C169.113 254.412 169.845 253.924 170.643 253.599C171.456 253.273 172.238 253.11 172.986 253.11C173.491 253.11 173.955 253.175 174.378 253.306C174.801 253.436 175.159 253.582 175.452 253.745C175.761 253.908 175.997 254.062 176.16 254.209C176.323 254.355 176.412 254.437 176.429 254.453C176.608 254.648 176.697 254.868 176.697 255.112C176.697 255.356 176.608 255.576 176.429 255.771C176.25 255.951 176.038 256.04 175.794 256.04C175.566 256.04 175.346 255.951 175.135 255.771C175.07 255.723 174.98 255.658 174.866 255.576C174.769 255.479 174.63 255.381 174.451 255.283C174.288 255.186 174.085 255.104 173.841 255.039C173.613 254.974 173.336 254.941 173.011 254.941C172.522 254.941 171.985 255.055 171.399 255.283C170.813 255.495 170.268 255.837 169.764 256.309C169.259 256.781 168.836 257.391 168.494 258.14C168.152 258.872 167.981 259.759 167.981 260.801C167.981 261.582 168.152 262.217 168.494 262.705C168.836 263.177 169.365 263.413 170.081 263.413C170.423 263.413 170.781 263.315 171.155 263.12C171.546 262.925 171.92 262.624 172.278 262.217C172.636 261.81 172.946 261.297 173.206 260.679C173.483 260.06 173.678 259.328 173.792 258.481C173.825 258.254 173.93 258.066 174.109 257.92C174.288 257.757 174.5 257.676 174.744 257.676C175.021 257.676 175.232 257.773 175.379 257.969C175.542 258.164 175.623 258.384 175.623 258.628C175.623 258.644 175.615 258.896 175.599 259.385C175.582 259.857 175.566 260.492 175.55 261.289C175.534 262.087 175.509 263.014 175.477 264.072C175.46 265.114 175.444 266.221 175.428 267.393ZM173.572 272.739C172.807 273.797 172.116 274.945 171.497 276.182C170.879 277.435 170.35 278.696 169.91 279.966C169.471 281.235 169.129 282.464 168.885 283.652C168.657 284.857 168.543 285.931 168.543 286.875C168.543 287.477 168.592 287.957 168.689 288.315C168.803 288.674 168.934 288.95 169.08 289.146C169.243 289.341 169.414 289.471 169.593 289.536C169.788 289.601 169.967 289.634 170.13 289.634C170.634 289.634 171.074 289.43 171.448 289.023C171.823 288.617 172.14 288.071 172.4 287.388C172.661 286.72 172.872 285.947 173.035 285.068C173.198 284.189 173.32 283.278 173.401 282.334C173.483 281.406 173.54 280.479 173.572 279.551C173.605 278.623 173.621 277.769 173.621 276.987C173.621 276.287 173.621 275.588 173.621 274.888C173.621 274.188 173.605 273.472 173.572 272.739ZM189.93 262.266C189.36 263.193 188.693 263.926 187.928 264.463C187.179 265 186.422 265.269 185.657 265.269C185.039 265.269 184.485 265.155 183.997 264.927C183.509 264.699 183.086 264.382 182.728 263.975C182.369 263.551 182.093 263.047 181.897 262.461C181.718 261.875 181.629 261.216 181.629 260.483C181.629 259.344 181.735 258.335 181.946 257.456C182.174 256.577 182.418 255.845 182.679 255.259C182.939 254.657 183.183 254.201 183.411 253.892C183.639 253.582 183.753 253.428 183.753 253.428C183.834 253.33 183.932 253.257 184.046 253.208C184.176 253.159 184.306 253.135 184.437 253.135C184.697 253.135 184.909 253.232 185.071 253.428C185.25 253.607 185.34 253.818 185.34 254.062C185.34 254.16 185.315 254.258 185.267 254.355C185.234 254.453 185.193 254.551 185.145 254.648C185.063 254.795 184.933 255.023 184.754 255.332C184.575 255.625 184.388 256.016 184.192 256.504C183.997 256.992 183.826 257.57 183.68 258.237C183.533 258.888 183.46 259.637 183.46 260.483C183.46 261.444 183.647 262.176 184.021 262.681C184.412 263.169 184.957 263.413 185.657 263.413C185.95 263.413 186.284 263.324 186.658 263.145C187.049 262.949 187.423 262.656 187.781 262.266C188.156 261.875 188.481 261.379 188.758 260.776C189.035 260.174 189.214 259.466 189.295 258.652L189.661 254.453C189.694 254.209 189.799 254.006 189.979 253.843C190.158 253.68 190.369 253.599 190.613 253.599C190.89 253.599 191.11 253.704 191.272 253.916C191.435 254.111 191.517 254.339 191.517 254.6L191.199 258.652C191.167 258.994 191.175 259.442 191.224 259.995C191.289 260.549 191.411 261.094 191.59 261.631C191.769 262.168 192.037 262.632 192.396 263.022C192.754 263.397 193.226 263.584 193.812 263.584C194.235 263.584 194.65 263.478 195.057 263.267C195.464 263.039 195.854 262.746 196.229 262.388C196.603 262.03 196.945 261.631 197.254 261.191C197.579 260.736 197.872 260.28 198.133 259.824C198.41 259.368 198.646 258.937 198.841 258.53C199.036 258.107 199.199 257.749 199.329 257.456C199.41 257.277 199.524 257.139 199.671 257.041C199.817 256.943 199.98 256.895 200.159 256.895C200.452 256.895 200.68 256.992 200.843 257.188C201.006 257.383 201.087 257.594 201.087 257.822C201.087 257.952 201.062 258.075 201.014 258.188C200.949 258.319 200.818 258.595 200.623 259.019C200.444 259.425 200.2 259.897 199.891 260.435C199.598 260.955 199.24 261.509 198.816 262.095C198.393 262.681 197.921 263.226 197.4 263.73C196.88 264.219 196.31 264.626 195.691 264.951C195.089 265.26 194.438 265.415 193.738 265.415C192.778 265.415 191.98 265.146 191.346 264.609C190.711 264.056 190.239 263.275 189.93 262.266ZM202.283 262.314C202.625 262.786 203.064 263.169 203.602 263.462C204.139 263.739 204.798 263.877 205.579 263.877C206.377 263.877 207.101 263.69 207.752 263.315C208.403 262.925 208.997 262.42 209.534 261.802C210.071 261.183 210.551 260.492 210.975 259.727C211.398 258.962 211.78 258.197 212.122 257.432C212.203 257.253 212.317 257.122 212.464 257.041C212.61 256.943 212.773 256.895 212.952 256.895C213.229 256.895 213.449 256.992 213.611 257.188C213.79 257.383 213.88 257.594 213.88 257.822C213.88 257.904 213.872 257.977 213.855 258.042C213.839 258.091 213.815 258.148 213.782 258.213C212.659 260.687 211.43 262.55 210.096 263.804C208.777 265.057 207.28 265.7 205.604 265.732C204.529 265.732 203.602 265.521 202.82 265.098C202.039 264.691 201.396 264.162 200.892 263.511C200.387 262.843 200.013 262.095 199.769 261.265C199.524 260.435 199.402 259.604 199.402 258.774C199.402 257.944 199.5 257.179 199.695 256.479C199.907 255.78 200.2 255.169 200.574 254.648C200.965 254.128 201.421 253.721 201.941 253.428C202.479 253.135 203.064 252.988 203.699 252.988C204.074 252.988 204.44 253.07 204.798 253.232C205.172 253.379 205.506 253.599 205.799 253.892C206.092 254.168 206.328 254.51 206.507 254.917C206.686 255.324 206.775 255.788 206.775 256.309C206.775 256.976 206.661 257.603 206.434 258.188C206.206 258.774 205.888 259.32 205.481 259.824C205.091 260.329 204.619 260.793 204.065 261.216C203.512 261.639 202.918 262.005 202.283 262.314ZM201.551 260.728C202.055 260.516 202.511 260.247 202.918 259.922C203.341 259.596 203.699 259.238 203.992 258.848C204.285 258.457 204.513 258.05 204.676 257.627C204.839 257.188 204.92 256.748 204.92 256.309C204.92 255.82 204.798 255.454 204.554 255.21C204.31 254.95 204.025 254.819 203.699 254.819C203.26 254.819 202.885 254.941 202.576 255.186C202.267 255.43 202.015 255.747 201.819 256.138C201.624 256.528 201.478 256.968 201.38 257.456C201.299 257.928 201.258 258.4 201.258 258.872C201.258 259.165 201.282 259.474 201.331 259.8C201.396 260.125 201.469 260.435 201.551 260.728Z" fill="#9E7D77"/>
<path d="M73.5312 122.98C72.1209 123.154 71.2671 122.131 70.2283 121.545C70.0763 121.46 69.9571 121.068 70.0148 120.879C70.3563 119.761 70.6948 118.633 71.1562 117.564C71.4327 116.923 72.0056 116.835 72.6056 117.267C72.9983 117.551 73.4191 117.792 73.8229 118.059C75.1238 118.921 75.2779 119.438 74.6203 120.858C74.2985 121.553 73.9382 122.23 73.5312 122.98ZM71.7959 118.977C71.5786 119.63 71.3609 120.283 71.1436 120.936C71.7783 121.082 72.6203 121.547 72.9947 121.293C73.4559 120.98 73.8347 119.979 73.6844 119.44C73.523 118.861 72.7939 118.175 71.7959 118.977Z" fill="#FFB61D"/>
<path d="M221.825 72.9805C220.697 73.1539 220.014 72.1313 219.183 71.5453C219.061 71.4596 218.966 71.0679 219.012 70.8788C219.285 69.7605 219.556 68.6331 219.925 67.564C220.146 66.9228 220.605 66.8346 221.085 67.2674C221.399 67.5506 221.735 67.7923 222.058 68.0594C223.099 68.9205 223.222 69.4382 222.696 70.8582C222.439 71.5533 222.151 72.2299 221.825 72.9805ZM220.437 68.9774C220.263 69.6302 220.089 70.2834 219.915 70.9362C220.423 71.0822 221.096 71.5471 221.396 71.2933C221.765 70.9802 222.068 69.9794 221.948 69.4399C221.818 68.8605 221.235 68.1754 220.437 68.9774Z" fill="#FFB61D"/>
<path d="M125.713 200.713C98.6526 199.724 65.9389 152.776 95.9731 136.465C126.008 120.155 117.132 73.03 117.132 73.03C120.842 53.7831 123.396 34.8847 149.579 25.2741C163.914 20.012 184.678 28.2115 197.373 23.8197C226.608 13.7061 234.615 10.0527 246.428 25.0743C280.709 68.6632 226.731 103.091 238.681 138.715C245.119 157.909 253.097 177.001 244.552 191.285C236.008 205.569 232.345 198.082 208.563 203.172C196.693 205.713 183.613 211.272 169.588 211.941C155.563 212.609 159.507 207.491 147.052 203.106C139.255 200.361 132.057 206.086 125.713 200.713Z" fill="url(#paint0_linear_594_367)"/>
<path fill-rule="evenodd" clip-rule="evenodd" d="M134.273 180.715C132.37 179.796 130.817 177.871 130.575 175.848C130.343 173.905 131.769 171.763 132.827 170.183C133.084 169.8 133.363 169.439 133.642 169.079C134.074 168.52 134.505 167.964 134.845 167.332C134.911 167.208 134.98 167.08 135.049 166.948C135.474 166.148 135.96 165.231 136.525 164.576C137.221 163.768 137.821 162.928 138.431 162.073L138.433 162.07L138.437 162.065C138.54 161.92 138.644 161.775 138.749 161.629C139.03 161.237 139.343 160.86 139.657 160.483C140.135 159.906 140.614 159.329 140.98 158.7C141.503 157.801 142.314 156.886 143.025 156.111C143.511 155.581 143.916 155.005 144.322 154.428C144.675 153.927 145.028 153.425 145.435 152.952C145.877 152.44 146.23 151.871 146.583 151.302C146.843 150.883 147.103 150.464 147.398 150.069C147.973 149.298 148.593 148.193 148.816 147.281C148.913 146.885 149.056 146.516 149.197 146.152C149.406 145.614 149.611 145.084 149.663 144.481C149.76 143.36 149.664 142.591 149.229 141.552C149.165 141.399 149.111 141.237 149.057 141.073C148.968 140.803 148.878 140.53 148.736 140.286C148.66 139.985 148.442 140.162 148.124 140.419C147.461 140.954 146.366 141.838 145.235 139.473C144.979 138.998 144.836 138.435 144.701 137.901C144.668 137.771 144.636 137.642 144.602 137.517C144.248 136.205 144.247 134.648 144.582 133.333C144.697 132.885 144.778 132.418 144.859 131.955C144.901 131.716 144.943 131.478 144.989 131.243C145.109 130.629 145.302 129.32 145.234 128.695C144.938 127.115 143.888 124.868 142.78 122.499C141.609 119.993 140.374 117.352 139.902 115.222C139.496 113.789 138.867 112.606 138.151 111.278C136.323 110.591 134.47 110.012 132.602 109.434C130.22 108.696 128.533 107.519 127.053 105.61C125.887 104.106 125.055 102.157 124.617 100.365C124.467 99.7535 124.41 99.1392 124.354 98.524C124.314 98.1016 124.275 97.6787 124.206 97.2555C124.094 96.5758 124.323 95.7438 124.533 94.979C124.618 94.6714 124.699 94.3748 124.754 94.1031C125.127 92.2675 126.232 90.6082 127.295 89.0123C127.537 88.6495 127.776 88.2902 128.005 87.9326C128.932 86.4794 130.272 85.1605 131.567 83.8855C131.991 83.4688 132.409 83.0566 132.808 82.6458C133.032 82.4142 133.22 82.1569 133.408 81.8991C133.586 81.656 133.763 81.4126 133.972 81.1898C134.319 80.8205 134.682 80.4988 135.05 80.1731C135.236 80.0089 135.423 79.8432 135.609 79.6702C136.058 79.2529 136.462 78.7969 136.865 78.3408C137.295 77.854 137.726 77.3672 138.212 76.9278C139.286 75.9572 144.321 69.3244 145.184 67.0225C145.583 66.1984 146.014 65.3831 146.445 64.568C146.964 63.5858 147.483 62.604 147.946 61.6077C148.126 61.2203 148.383 60.8678 148.639 60.5152C148.936 60.1067 149.233 59.6979 149.412 59.2348C149.642 58.6391 149.986 58.096 150.33 57.5529C150.538 57.2256 150.745 56.8982 150.928 56.5595C152.035 54.5027 153.506 52.5949 155.056 50.7957C156.561 49.0488 159.063 47.7994 161.363 47.2654C162.04 47.1082 162.311 47.1133 162.884 47.1241C163.056 47.1274 163.256 47.1311 163.503 47.1311C164.862 46.8583 165.575 47.0672 166.206 47.2521C166.424 47.3158 166.631 47.3766 166.852 47.4139C167.715 47.5595 168.718 48.0602 169.441 48.5447C170.922 49.5385 173.634 52.8321 173.247 56.7435C172.97 59.5359 170.552 66.4509 169.897 67.9108C169.719 68.3069 169.624 68.9433 169.539 69.5147C169.494 69.8135 169.452 70.0943 169.402 70.3139C169.3 70.7668 169.191 71.4078 169.136 71.8689C169.012 72.9008 169.142 73.5423 169.402 74.5629C169.451 74.7551 169.502 74.9474 169.553 75.1393L169.554 75.1405C169.634 75.4416 169.714 75.7424 169.786 76.0443C169.868 76.3847 170.081 76.7559 170.278 77.0986V77.0989C170.341 77.2077 170.401 77.3137 170.456 77.4149C170.475 77.4511 170.495 77.4882 170.515 77.5258C170.529 77.5523 170.544 77.5792 170.558 77.6063L170.593 77.6725C171.031 78.4992 171.582 79.5404 172.414 79.9814C172.769 80.064 173.037 80.1519 173.31 80.241C173.565 80.3249 173.823 80.4095 174.16 80.4917L174.316 80.5299C174.923 80.6769 175.514 80.8205 176.07 81.0835C177.777 81.8912 179.029 83.1869 180.062 84.6618C180.247 84.9259 180.403 85.2462 180.529 85.5397C180.697 85.9301 180.868 86.1489 181.184 86.4525C181.225 86.4927 181.269 86.5331 181.312 86.5741C181.575 86.8192 181.86 87.0856 181.949 87.4237C182.018 87.6849 182.136 87.8766 182.267 88.0898L182.268 88.0903L182.268 88.0912C182.3 88.1423 182.332 88.1949 182.364 88.2498C182.446 88.3877 182.486 88.524 182.525 88.6589C182.576 88.8364 182.627 89.012 182.773 89.1856C182.993 89.4465 183.056 89.7137 183.129 90.0213C183.135 90.0467 183.141 90.0725 183.147 90.0985C183.218 90.3925 183.324 90.6837 183.43 90.9757C183.527 91.2412 183.623 91.5072 183.694 91.777C183.779 92.1012 183.94 92.3961 184.099 92.6901C184.266 92.996 184.432 93.3011 184.512 93.6381C184.545 93.7735 184.911 94.5637 185.169 94.2589C185.308 94.0947 185.368 93.8244 185.424 93.5745C185.452 93.4467 185.48 93.324 185.516 93.2236C185.556 93.1097 185.617 93.0008 185.677 92.8923C185.771 92.7218 185.865 92.5522 185.882 92.3659C185.985 91.9684 186.138 91.669 186.286 91.3778C186.357 91.2375 186.428 91.099 186.491 90.9523C186.653 90.5794 186.765 90.345 186.937 89.9862L186.948 89.9628C187.14 89.5622 187.366 89.1519 187.588 88.7496C187.681 88.5811 187.773 88.414 187.862 88.2498C187.939 88.1064 188.019 87.9558 188.101 87.802L188.101 87.8014C188.321 87.3878 188.552 86.9515 188.775 86.5702C188.952 86.2674 189.139 85.9878 189.327 85.7059C189.448 85.5261 189.569 85.3451 189.688 85.1566C189.812 84.9609 189.876 84.6986 189.935 84.456C189.953 84.3816 189.97 84.309 189.989 84.2406C190.088 84.1037 190.132 83.9873 190.172 83.8773C190.195 83.8148 190.218 83.7543 190.249 83.6935C190.467 83.2728 190.66 82.855 190.851 82.4235C191.216 81.6017 191.654 80.835 192.103 80.0507C192.153 79.9622 192.204 79.8737 192.255 79.785C192.304 79.6976 192.356 79.6142 192.407 79.5322C192.555 79.2939 192.697 79.0654 192.767 78.7788C192.793 78.671 192.81 78.5633 192.825 78.4576C192.861 78.2113 192.896 77.9747 193.057 77.772C192.537 77.8492 191.772 77.8175 191.246 77.7686C190.825 77.7296 188.421 77.4715 188.014 77.3819C187.94 77.3657 187.875 77.3595 187.817 77.3539C187.741 77.3468 187.679 77.3409 187.628 77.3154C187.383 77.1933 187.399 76.623 187.489 73.3297C187.523 72.069 187.568 70.4092 187.614 68.223C187.896 67.906 188.317 67.8224 188.727 67.7409C188.829 67.7206 188.931 67.7002 189.03 67.6765C189.589 67.5419 189.762 67.571 190.021 67.6143C190.187 67.6425 190.39 67.6765 190.754 67.6765C191.016 67.6765 191.288 67.7002 191.56 67.7237C191.803 67.7446 192.044 67.7655 192.276 67.7695C192.745 67.7777 194.059 68.4282 194.256 68.759L200.739 69.3244C201.599 69.4839 203.694 71.3034 202.769 74.2355C202.606 74.6107 202.352 74.9265 202.082 75.2406C201.914 75.4351 201.713 75.5948 201.513 75.7548C201.367 75.871 201.221 75.9875 201.087 76.1173C200.872 76.3259 200.695 76.5603 200.518 76.7949C200.42 76.925 200.322 77.0553 200.217 77.1814C199.584 78.23 196.966 81.3368 196.539 81.764C196.376 82.0761 195.771 83.0269 195.233 83.8745V83.8747L195.232 83.875C194.765 84.6112 194.346 85.2694 194.31 85.3627C194.169 85.7212 193.929 86.0675 193.697 86.4002C193.619 86.5125 193.542 86.623 193.471 86.7319C193.441 86.7777 193.409 86.8246 193.376 86.8724L193.376 86.8727C193.204 87.124 193.014 87.4005 193 87.6934C192.989 87.9238 192.924 88.1689 192.851 88.3886C192.746 88.7095 192.592 89.0148 192.438 89.3204C192.263 89.6656 192.089 90.0114 191.984 90.3809C191.906 90.6534 191.775 90.8957 191.643 91.1408L191.643 91.1414C191.575 91.2681 191.506 91.3956 191.445 91.5284C191.316 91.8032 191.239 92.0862 191.161 92.3718C191.142 92.4422 191.123 92.5126 191.103 92.583C191.028 92.8462 190.935 93.1088 190.843 93.3712L190.843 93.3718C190.785 93.5366 190.727 93.7011 190.673 93.8654C190.608 94.0667 190.567 94.27 190.526 94.4732C190.491 94.6465 190.456 94.8198 190.406 94.9917C190.088 96.0791 189.831 97.2 189.631 98.3114C189.484 99.1304 189.406 99.9568 189.327 100.783C189.23 101.806 189.132 102.828 188.905 103.836C188.794 104.329 188.66 104.809 188.502 105.289C188.436 105.49 188.338 105.609 188.22 105.753C188.184 105.796 188.147 105.841 188.108 105.891C188.039 105.981 187.977 106.074 187.915 106.166C187.756 106.403 187.6 106.635 187.34 106.799C187.317 106.814 187.294 106.829 187.273 106.842C187.247 106.86 187.222 106.876 187.198 106.892C187.03 107.003 186.916 107.078 186.669 107.15C186.578 107.177 186.487 107.206 186.396 107.236C186.217 107.295 186.037 107.354 185.853 107.389C185.6 107.438 185.326 107.431 185.063 107.424H185.062C184.997 107.422 184.932 107.42 184.869 107.419C183.705 107.226 182.528 105.417 182.096 104.752C182.057 104.692 182.023 104.641 181.997 104.601C181.705 104.166 181.465 103.699 181.224 103.232C180.901 102.606 180.577 101.979 180.13 101.425C179.598 100.766 179.181 100.034 178.763 99.3012C178.31 98.5068 177.857 97.712 177.257 97.0092C176.71 96.3683 176.256 95.489 175.804 94.6143C175.38 93.7941 174.959 92.9779 174.464 92.3659C173.761 92.9409 173.344 94.4401 173.211 95.2903C173.11 95.9377 172.947 96.5317 172.679 97.1418C172.363 97.8607 172.146 98.6651 171.946 99.4157C171.852 99.7685 171.724 100.117 171.597 100.465C171.506 100.712 171.415 100.958 171.337 101.206C171.25 101.482 171.183 101.76 171.116 102.038C171.043 102.342 170.97 102.645 170.87 102.947C170.457 104.196 170.128 105.397 170.076 106.714C170.066 106.958 170.049 107.206 170.032 107.457C169.968 108.383 169.902 109.34 170.195 110.209C170.303 110.53 170.349 110.891 170.349 111.226C170.349 111.528 170.416 111.823 170.483 112.118C170.523 112.294 170.563 112.47 170.588 112.648C170.722 113.57 170.962 115.119 171.136 115.7C171.154 115.761 171.174 115.823 171.194 115.887C171.301 116.235 171.42 116.616 171.42 116.962C171.42 117.481 171.498 117.971 171.577 118.458C171.64 118.852 171.703 119.244 171.724 119.648C171.823 120.118 171.887 120.614 171.951 121.109C172.01 121.571 172.069 122.033 172.157 122.475C172.228 122.827 172.227 123.179 172.226 123.53C172.226 123.934 172.226 124.337 172.333 124.737C172.478 125.277 172.659 129.274 172.795 132.295C172.855 133.625 172.906 134.766 172.942 135.339C172.982 135.969 172.902 136.509 172.826 137.027C172.768 137.42 172.713 137.799 172.713 138.194V144.515C172.713 147.099 172.71 149.671 172.581 152.25C172.554 152.78 172.5 153.309 172.445 153.838C172.369 154.577 172.293 155.316 172.293 156.059C172.293 157.113 172.212 158.167 172.013 159.205C171.604 161.346 171.594 163.43 171.594 165.598C171.594 166.396 171.559 167.19 171.524 167.984C171.489 168.779 171.454 169.574 171.454 170.375L171.448 180.056C171.425 180.264 171.414 180.481 171.402 180.698C171.374 181.22 171.345 181.75 171.167 182.197C171.163 182.361 171.147 182.524 171.132 182.686C171.114 182.874 171.096 183.063 171.096 183.253C171.096 183.318 171.099 183.385 171.101 183.453C171.109 183.651 171.116 183.856 171.061 184.041C171.008 184.218 170.966 184.389 170.924 184.554C170.808 185.022 170.7 185.455 170.389 185.906C170.327 185.997 170.267 186.085 170.208 186.172C169.812 186.759 169.471 187.264 168.832 187.641C167.397 188.489 165.555 188.603 163.837 188.498C164.148 188.971 164.073 190.39 164.011 191.546C163.954 192.614 163.909 193.458 164.19 193.13C164.268 193.038 164.355 192.949 164.441 192.861L164.441 192.86C164.59 192.707 164.739 192.554 164.852 192.383C165 192.158 165.142 191.948 165.378 191.789C165.947 191.404 166.612 191.797 166.851 192.324C166.949 192.538 167.091 192.735 167.234 192.931C167.408 193.17 167.581 193.409 167.669 193.678C167.826 194.153 168.292 194.677 168.659 195.033C169.591 195.937 170.57 196.653 171.782 197.216C172.692 197.639 173.698 197.87 174.691 198.098C174.96 198.16 175.228 198.221 175.493 198.286C175.747 198.349 175.999 198.429 176.25 198.509L176.251 198.509C176.594 198.618 176.936 198.727 177.286 198.792C177.819 198.891 178.186 199.218 178.186 199.743C178.186 200.737 177.363 201.816 176.457 202.297C175.672 202.713 174.808 202.84 173.937 202.968L173.935 202.968C173.735 202.998 173.534 203.027 173.333 203.06C172.316 203.228 171.244 203.214 170.194 203.2C169.905 203.196 169.618 203.192 169.335 203.192C169.022 203.192 168.708 203.19 168.393 203.188C167.072 203.178 165.732 203.169 164.432 203.324C162.806 203.519 161.186 203.382 159.564 203.245C159.091 203.204 158.616 203.164 158.142 203.133C158.06 203.152 158.016 203.168 157.995 203.18C157.978 203.164 157.939 203.14 157.857 203.106C157.735 203.056 157.611 203.036 157.488 203.016C157.362 202.996 157.236 202.976 157.114 202.925L157.063 202.903C156.761 202.778 156.455 202.65 156.228 202.416C156.124 202.309 156.04 202.164 155.956 202.02C155.898 201.92 155.84 201.82 155.776 201.735C155.201 200.968 155.324 199.991 155.439 199.073C155.472 198.813 155.504 198.558 155.52 198.313C155.563 197.633 155.832 196.872 156.121 196.262C156.236 196.02 156.269 195.763 156.302 195.505C156.331 195.279 156.36 195.052 156.445 194.834C156.621 194.379 157.059 193.365 157.566 193.13C159.01 194.009 158.766 191.505 158.608 189.884C158.533 189.114 158.477 188.543 158.632 188.631C159.393 188.348 160.638 188.024 161.22 188.348C161.468 188.348 161.742 188.351 162.022 188.354C162.138 188.355 162.255 188.357 162.371 188.358C161.987 188.306 161.604 188.244 161.221 188.181C160.808 188.114 160.396 188.047 159.98 187.993C159.2 187.892 158.376 187.894 157.58 187.895H157.579C157.493 187.895 157.408 187.895 157.323 187.895C157.021 187.895 156.734 187.92 156.441 187.945H156.44C156.366 187.951 156.292 187.958 156.217 187.964C156.159 187.969 156.065 188.013 155.962 188.061C155.746 188.162 155.493 188.281 155.478 188.077C155.438 187.538 155.451 186.958 155.465 186.392C155.471 186.114 155.478 185.839 155.478 185.574C155.478 183.711 155.478 181.824 155.251 179.976C155.097 178.724 154.949 177.491 154.841 176.238C154.723 174.874 154.591 173.492 154.282 172.152C153.307 172.669 152.591 173.22 151.874 174.011C151.543 174.378 151.197 174.737 150.851 175.097C150.285 175.685 149.718 176.274 149.211 176.897C147.725 178.72 146.214 180.354 144.302 181.806C144.141 181.929 143.971 182.065 143.793 182.208C143.005 182.841 142.064 183.596 141.129 183.746C140.525 183.843 139.72 183.781 139.029 183.618C138.358 184.161 137.695 184.713 137.034 185.264L137.031 185.267C136.662 185.574 136.293 185.882 135.923 186.187C135.891 186.214 135.835 186.255 135.765 186.307C135.348 186.616 134.433 187.294 134.907 187.528C135.205 187.674 135.575 187.688 135.939 187.703C136.169 187.712 136.396 187.721 136.601 187.763C137.196 187.886 137.366 188.374 137.532 188.849C137.571 188.961 137.61 189.073 137.655 189.179C138.095 190.229 137.784 191.352 137.494 192.399C137.464 192.508 137.434 192.615 137.405 192.721C137.243 193.323 137.109 194.064 137.109 194.683C137.109 195.136 137.338 195.591 137.555 196.023C137.638 196.189 137.72 196.351 137.787 196.509C138.104 197.263 138.515 197.974 138.927 198.686C139.199 199.156 139.47 199.626 139.715 200.108C139.994 200.657 140.242 201.385 140.242 201.995C140.242 202.741 140.11 203.191 139.48 203.646C138.527 204.335 136.601 203.929 135.759 203.191C134.634 203.001 133.643 202.22 132.702 201.478C132.274 201.141 131.856 200.812 131.44 200.549C131.101 199.798 130.41 199.223 129.647 198.78C128.809 198.294 128.163 197.611 127.524 196.935C127.389 196.792 127.254 196.649 127.118 196.509C126.895 196.279 126.638 195.907 126.386 195.541C126.161 195.216 125.939 194.895 125.748 194.683C125.567 194.483 125.405 194.148 125.238 193.803C125.033 193.378 124.82 192.938 124.558 192.721C124.318 192.524 124.144 192.29 123.969 192.054C123.816 191.849 123.663 191.642 123.464 191.458C123.236 191.246 123.158 191.073 123.069 190.875C123.014 190.754 122.955 190.624 122.855 190.469C122.764 190.327 122.721 190.285 122.672 190.237C122.589 190.154 122.486 190.053 122.094 189.419C121.973 189.224 121.857 189.172 121.756 189.127C121.636 189.073 121.539 189.029 121.485 188.772C121.259 188.317 121.123 188.128 121.055 188.034C121.018 187.982 121.001 187.958 121 187.935C121 187.915 121.011 187.894 121.032 187.857C121.063 187.802 121.115 187.71 121.181 187.528C121.357 187.037 121.635 186.971 121.986 186.888C122.24 186.828 122.534 186.759 122.855 186.511C123.045 186.363 123.199 186.222 123.341 186.091C123.687 185.772 123.966 185.514 124.558 185.38C124.687 185.35 124.806 185.324 124.916 185.299L124.922 185.298L124.923 185.298C126.078 185.04 126.204 185.012 126.204 184.39C126.814 184.39 126.878 184.118 126.931 183.889C126.962 183.756 126.989 183.638 127.118 183.596C127.384 183.51 127.564 183.494 127.729 183.48C127.943 183.462 128.132 183.445 128.453 183.282C128.625 183.193 128.807 183.064 128.997 182.929C129.389 182.649 129.813 182.347 130.25 182.347C130.412 182.347 130.545 182.439 130.681 182.532C130.809 182.621 130.94 182.712 131.101 182.727C131.449 182.759 131.677 182.531 131.896 182.31C131.941 182.265 131.987 182.219 132.033 182.177C132.392 181.843 132.839 181.56 133.275 181.284L133.276 181.284C133.457 181.169 133.636 181.056 133.806 180.94C133.985 180.819 134.16 180.761 134.331 180.747C134.31 180.734 134.291 180.724 134.273 180.715ZM145.687 118.115C145.317 117.122 145.031 116.354 144.93 116.114C144.678 115.676 144.541 115.062 144.41 114.473C144.323 114.086 144.239 113.708 144.126 113.398C143.895 112.768 144.829 112.898 145.44 112.982C145.607 113.006 145.749 113.025 145.837 113.025C146.724 113.025 147.588 112.861 148.453 112.696C149.07 112.579 149.688 112.461 150.315 112.403C150.664 112.37 151.009 112.3 151.353 112.229C151.498 112.199 151.649 112.183 151.8 112.168C151.982 112.149 152.163 112.131 152.333 112.087C152.514 112.04 152.72 111.898 152.925 111.757C153.394 111.435 153.857 111.117 154 111.945C154.1 112.522 154.081 113.05 154.061 113.605C154.056 113.736 154.051 113.869 154.048 114.005C154.036 114.474 153.91 114.902 153.782 115.336C153.725 115.53 153.667 115.725 153.619 115.926C153.51 116.38 153.276 116.765 153.04 117.151C152.91 117.365 152.78 117.579 152.67 117.806C152.516 118.122 152.308 118.392 152.096 118.667C152.033 118.748 151.97 118.831 151.908 118.914C151.759 119.114 151.627 119.323 151.495 119.532C151.366 119.736 151.237 119.94 151.094 120.134C150.995 120.269 150.886 120.404 150.776 120.54C150.57 120.797 150.359 121.057 150.203 121.328C150.163 121.397 150.123 121.466 150.084 121.535C149.921 121.819 149.755 122.109 149.577 122.38C149.523 122.462 149.466 122.544 149.408 122.627C149.224 122.892 149.034 123.164 148.937 123.461C148.911 123.541 148.872 123.657 148.827 123.792C148.69 124.199 148.498 124.774 148.431 125.02C147.999 124.317 146.592 120.543 145.687 118.115Z" fill="white"/>
<path d="M160.538 60.5665C160.155 60.7058 159.772 60.8448 159.389 60.9838C159.228 61.0427 159.021 60.9311 159.002 60.8059C158.983 60.6807 159.09 60.5631 159.212 60.4688C159.555 60.2018 160.052 60.031 160.569 60.0025C160.687 59.996 160.816 59.9992 160.906 60.0515C161.032 60.125 161.022 60.2683 160.929 60.3626C160.836 60.4568 160.684 60.5134 160.538 60.5665Z" fill="black"/>
<path d="M162 66.5435C162.293 66.2775 162.861 66.4576 163.146 66.1847C163.39 65.9505 163.245 65.5589 163.026 65.3052C162.808 65.051 162.516 64.8149 162.477 64.4941C162.439 64.1733 162.903 63.8404 163.136 64.0838C163.51 64.4764 163.85 64.9195 163.964 65.4297C164.079 65.9394 163.92 66.528 163.458 66.8318C162.995 67.1357 162.227 67.0208 162 66.5435Z" fill="black"/>
<path d="M161.383 61.027C161.522 60.9599 161.676 61.0196 161.792 61.1868C161.886 61.3199 161.955 61.5187 161.985 61.7396C162.054 62.2493 161.883 62.8383 161.627 62.9714C161.371 63.1045 161.078 62.7575 161.013 62.2454C160.949 61.7333 161.126 61.1506 161.383 61.027Z" fill="black"/>
<path d="M163.584 70.3375C162.865 70.9491 161.725 71.1644 160.774 70.8688C159.822 70.5734 159.107 69.7818 159.008 68.9164C158.973 68.6034 159.045 68.2369 159.36 68.0763C159.795 67.8541 160.317 68.1648 160.743 68.4001C161.379 68.7521 162.125 68.9569 162.881 68.9875C163.216 69.0012 163.596 68.9954 163.831 69.2023C164.178 69.509 163.938 70.0363 163.584 70.3375ZM163.535 69.6822C163.377 69.4911 163.062 69.4737 162.79 69.4558C161.849 69.3945 160.93 69.1065 160.163 68.6334C160.004 68.5355 159.762 68.6313 159.682 68.7845C159.602 68.9377 159.642 69.1173 159.708 69.2752C159.978 69.9163 160.689 70.4033 161.476 70.4871C162.264 70.571 163.091 70.2472 163.535 69.6822Z" fill="black"/>
<path d="M175.88 92.6789C174.313 97.4535 172.735 102.28 172.398 107.257C172.057 112.284 172.993 117.298 173.593 122.304C175.841 141.058 173.388 159.986 173.153 178.852C173.124 181.192 173.103 183.634 171.931 185.712C170.759 187.79 168.031 189.336 165.647 188.511C165.585 189.716 165.524 190.921 165.463 192.126C165.915 191.552 166.652 191.177 167.422 191.129C169.358 194.969 173.605 197.739 178.19 198.154C179.711 198.291 180.08 200.422 179.052 201.462C178.024 202.501 176.351 202.695 174.827 202.805C169.94 203.158 165.036 203.316 160.134 203.277C158.11 203.261 156.54 201.449 156.25 199.61C155.96 197.771 156.624 195.93 157.277 194.172C157.669 193.117 159.391 192.024 159.708 193.1C159.558 191.544 159.408 189.987 159.258 188.431C158.388 188.356 157.519 188.281 156.65 188.207C156.295 182.987 155.941 177.766 155.587 172.546C151.132 175.26 148.58 180.162 143.903 182.54C141.228 183.901 137.787 184.52 136.277 186.962C138.255 187.049 139.287 189.24 139.232 191.057C139.177 192.875 138.521 194.733 139.092 196.473C139.833 198.728 142.528 200.927 141.193 202.939C139.883 204.912 136.554 203.791 134.59 202.345C129.104 198.305 124.565 193.186 121.368 187.434C124.457 185.098 127.925 183.185 131.621 181.777C132.765 182.327 134.385 181.466 134.436 180.281C132.059 179.116 131.16 176.272 131.635 173.836C132.11 171.401 133.661 169.275 135.175 167.228C138.893 162.201 142.612 157.174 146.33 152.147C149.006 148.529 151.783 143.992 149.732 140.045C132.55 160.408 115.369 180.772 98.1874 201.135C96.9431 202.61 93.906 201.671 93.5978 199.827C93.2892 197.983 95.3697 196.272 97.393 196.439C93.2222 193.58 89.0512 190.721 84.8802 187.862C84.0716 187.308 83.201 186.664 83.0302 185.751C82.8504 184.791 83.5065 183.884 84.1337 183.098C89.7712 176.037 95.724 169.188 101.972 162.574C103.792 160.647 105.696 158.697 108.162 157.524C110.628 156.35 113.809 156.102 116.087 157.56C119.47 159.725 122.852 161.889 126.234 164.054C132.917 156.078 139.599 148.103 146.282 140.128C143.809 136.699 146.337 132.111 145.8 128.027C145.214 123.567 140.974 119.992 140.663 115.509C140.512 113.319 138.531 111.594 136.428 110.552C134.325 109.51 131.966 108.902 130.004 107.649C125.575 104.82 124.127 99.1548 125.318 94.322C126.508 89.4892 129.852 85.3518 133.444 81.655C137.037 77.9584 140.994 74.501 143.839 70.2908C146.45 66.4271 148.031 62.0621 150.245 57.9948C152.459 53.9275 155.519 49.9881 159.997 48.0465C164.474 46.1047 170.589 46.815 173.335 50.5983C175.55 53.6491 175.075 57.717 173.886 61.217C172.697 64.717 170.869 68.1007 170.604 71.7592C170.339 75.4176 172.239 79.5922 176.082 80.5862C181.958 82.1059 184.492 88.3108 186.176 93.6999C188.931 88.4709 191.687 83.2419 194.443 78.0132C192.508 77.8407 190.573 77.6684 188.638 77.4962C188.663 74.5067 188.83 71.5474 188.883 68.5641C188.894 67.9937 189.367 67.5122 189.985 67.4662C196.648 66.9709 194.528 69.3731 201.31 68.6895C202.251 68.8247 203.318 69.6377 204.045 70.2033C206.269 71.9337 204.165 75.151 202.252 77.1714C195.871 83.914 191.847 92.5089 190.906 101.4C190.757 102.811 190.67 104.276 189.96 105.535C189.251 106.794 187.705 107.79 186.208 107.445C184.873 107.138 184.056 105.937 183.378 104.838C180.879 100.785 178.379 96.7321 175.88 92.6789ZM139.633 182.431C140.364 182.752 141.159 183.044 141.963 182.95C142.971 182.833 143.772 182.144 144.495 181.488C146.618 179.566 148.727 177.632 150.824 175.686C157.122 169.843 163.569 163.454 165.438 155.414C165.937 153.27 166.089 151.072 166.24 148.885C166.576 144.017 166.911 139.125 166.39 134.271C166.125 131.8 165.681 129.127 167.033 126.977C167.073 131.324 167.113 135.671 167.153 140.019C167.197 144.793 167.238 149.601 166.321 154.301C165.403 159.001 163.46 163.64 159.975 167.183C158.122 169.066 155.67 171.1 156.133 173.602C156.953 178.034 157.206 182.554 156.887 187.04C156.86 187.417 157.387 187.585 157.795 187.626C161.316 187.984 164.88 187.986 168.401 187.633C169.623 187.511 171.142 187.073 171.251 185.949C173.126 166.551 173.907 147.064 173.59 127.591C173.533 124.14 173.437 120.651 172.467 117.316C172.369 116.978 172.086 116.556 171.733 116.687C166.43 118.661 160.193 118.396 155.111 115.981C153.612 118.266 152.198 120.598 150.871 122.972C150.124 124.308 149.392 125.875 150.028 127.259C151.233 129.881 151.444 132.878 150.616 135.62C150.099 137.334 149.243 139.333 150.433 140.736C151.635 142.152 151.709 144.161 151.12 145.873C150.532 147.584 149.371 149.072 148.245 150.539C142.336 158.241 136.919 166.261 132.031 174.545C131.249 175.872 132.362 177.461 133.537 178.516C135.318 180.115 137.387 181.443 139.633 182.431ZM155.648 80.4484C155.348 80.2185 155.03 79.9788 154.644 79.9184C154.288 79.8624 153.927 79.9695 153.584 80.0751C152.456 80.4224 151.328 80.7697 150.2 81.1168C149.224 81.4172 148.229 81.7267 147.406 82.2954C146.43 82.9697 145.774 83.9541 145.158 84.9226C144.281 86.302 143.438 87.6995 142.629 89.1136C142.476 89.3813 142.32 89.6654 142.333 89.9678C142.346 90.2767 142.533 90.554 142.721 90.8104C144.324 93.0022 146.397 94.9028 148.787 96.3712C148.875 96.4254 148.968 96.4805 149.074 96.4878C149.217 96.4977 149.349 96.4178 149.462 96.3362C150.987 95.24 151.531 93.1369 150.704 91.5282C151.028 91.3274 151.365 91.7693 151.461 92.1169C153.565 99.66 154.932 107.376 155.541 115.143C155.59 115.773 156.39 116.077 157.056 116.236C159.495 116.817 161.972 117.342 164.491 117.392C167.01 117.442 169.597 116.988 171.718 115.739C171.905 115.629 172.113 115.454 172.046 115.259C170.724 111.414 170.708 107.268 171.391 103.284C172.074 99.3002 173.432 95.4439 174.826 91.6197C174.925 91.3503 175.154 91.0171 175.445 91.1153C175.901 92.3344 176.86 93.3887 178.086 94.0179C179.952 92.6015 182.202 91.6151 184.575 91.1738C183.684 89.3488 182.792 87.5238 181.901 85.6988C181.356 84.584 180.78 83.4308 179.768 82.6388C178.732 81.8289 177.365 81.4946 176.048 81.1834C173.492 80.5794 170.936 79.9754 168.38 79.3714C167.86 79.2486 167.247 79.1435 166.837 79.462C166.392 79.8088 166.452 80.4413 166.515 80.9747C166.744 82.8952 166.499 84.8619 165.804 86.6855C165.758 86.808 165.699 86.9399 165.576 87.002C165.388 87.0957 165.162 86.9839 164.985 86.8747C161.754 84.8828 158.636 82.7367 155.648 80.4484ZM138.943 110.629C136.737 102.932 139.023 94.7035 142.683 87.4888C143.661 85.561 144.758 83.6463 146.36 82.1107C147.962 80.5749 150.143 79.4423 152.459 79.4242C155.44 79.401 157.427 76.4183 157.687 73.6909C157.947 70.9637 157.111 68.2221 157.375 65.495C157.515 64.0458 157.962 62.6388 158.275 61.2125C158.528 60.0581 158.694 58.8877 158.769 57.7124C158.785 57.4719 158.789 57.207 158.624 57.0198C158.368 56.7298 157.885 56.7882 157.479 56.775C157.073 56.7617 156.568 56.4737 156.721 56.128C161.329 56.8842 166.268 55.7319 169.923 53.0476C170.278 53.9984 168.073 54.5253 168.398 55.4851C169.426 58.5257 170.14 61.7168 169.791 64.8845C169.442 68.0521 167.92 71.213 165.156 73.1352C164.876 73.3306 164.566 73.5342 164.46 73.8425C164.378 74.0803 164.434 74.3372 164.491 74.5809C164.905 76.3698 165.707 78.5186 167.672 78.8151C169.292 79.0594 170.911 79.3036 172.531 79.5479C171.198 78.459 170.267 76.9616 169.923 75.3538C169.641 74.0297 169.749 72.6588 170 71.3294C170.575 68.2814 171.881 65.397 172.839 62.4315C173.798 59.4657 174.407 56.2848 173.557 53.2913C172.706 50.2981 170.119 47.7193 166.771 47.3756C165.649 47.2605 164.474 47.2535 163.387 47.5338C157.983 48.9284 154.113 53.3145 151.531 57.8923C148.95 62.4702 147.27 67.4786 144.229 71.812C141.641 75.4989 138.159 78.5675 134.899 81.773C131.638 84.9785 128.512 88.4452 126.877 92.5668C125.242 96.6886 125.326 101.611 128.155 105.146C130.645 108.257 134.826 109.843 138.943 110.629ZM111.428 157.493C108.489 158.239 105.763 159.683 103.589 161.647C102.517 162.615 101.582 163.701 100.651 164.784C95.3092 170.993 89.967 177.202 84.6248 183.412C84.1651 183.946 83.6823 184.539 83.689 185.22C83.6986 186.165 84.622 186.859 85.4594 187.408C86.1306 187.849 86.8017 188.29 87.4726 188.73C87.7614 188.92 88.2006 189.096 88.4268 188.845C97.3739 178.896 106.321 168.947 115.268 158.999C115.494 158.747 115.856 158.471 116.157 158.643C116.514 158.848 116.273 159.352 116.006 159.65C107.087 169.555 98.1683 179.46 89.2497 189.365C88.9873 189.656 89.3484 190.066 89.6781 190.293C90.6218 190.942 91.5659 191.591 92.5096 192.241C92.6666 192.349 92.8483 192.463 93.0419 192.433C93.2146 192.406 93.3406 192.273 93.4509 192.148C102.513 181.899 111.574 171.651 120.636 161.403C118.764 160.167 116.892 158.93 115.02 157.694C114.012 157.028 112.625 157.189 111.428 157.493ZM94.2837 193.471C96.0439 194.702 97.8039 195.934 99.5641 197.165C99.6916 197.254 99.8354 197.348 99.9952 197.337C100.184 197.324 100.32 197.172 100.433 197.033C109.062 186.368 117.691 175.704 126.32 165.039C124.843 164.079 123.366 163.12 121.89 162.16C121.776 162.086 121.645 162.009 121.508 162.031C121.383 162.051 121.292 162.147 121.212 162.238C112.207 172.411 103.201 182.586 94.1961 192.76C94.0962 192.873 93.9899 193.004 94.0114 193.149C94.032 193.287 94.1626 193.386 94.2837 193.471ZM144.916 104.029C145.347 102.784 145.981 101.606 146.655 100.455C147.312 99.3333 148.01 98.2323 148.749 97.1542C146.167 95.2513 143.532 93.2927 141.816 90.6926C140.544 94.023 139.348 97.4117 138.943 100.922C138.033 108.824 141.19 116.629 144.899 123.809C145.72 125.398 146.588 127.033 146.659 128.791C146.728 130.466 146.065 132.086 145.833 133.748C145.537 135.871 145.965 138.074 147.042 139.971C147.221 140.287 147.441 140.614 147.798 140.753C148.155 140.891 148.667 140.723 148.706 140.369C148.855 138.984 149.455 137.679 149.828 136.331C150.818 132.756 150.187 128.961 149.051 125.424C147.916 121.887 146.286 118.492 145.227 114.935C144.167 111.378 143.7 107.544 144.916 104.029ZM165.489 72.1353C166.379 71.5711 166.941 70.6709 167.395 69.7698C168.476 67.621 169.112 65.2832 169.257 62.9197C169.288 62.4162 169.294 61.8978 169.106 61.424C168.919 60.9502 168.497 60.5249 167.955 60.4419C167.647 60.3944 167.684 59.9178 167.966 59.7924C168.247 59.6673 168.58 59.776 168.869 59.8853C168.78 58.546 168.455 57.2203 167.912 55.9744C167.777 55.6641 167.473 55.2965 167.14 55.4309C164.916 56.3288 162.503 56.8309 160.074 56.9018C159.634 56.9147 159.563 57.4817 159.592 57.8855C159.834 61.2421 157.213 64.492 158.001 67.7768C158.903 71.5299 158.56 75.7308 156.052 78.8075C155.889 79.0074 155.707 79.248 155.791 79.4858C155.84 79.6255 155.971 79.7258 156.095 79.8176C159.074 82.011 162.102 84.1489 165.175 86.2289C165.832 84.6213 165.864 82.8644 165.889 81.1478C165.905 80.0785 165.908 78.9583 165.367 78.0115C165.026 77.4148 164.483 76.9181 164.231 76.2853C164.023 75.7607 164.031 75.1863 163.906 74.6397C163.78 74.0933 163.457 73.522 162.878 73.3503C161.978 73.0835 161.124 72.6884 160.354 72.1836C160.093 72.0122 159.818 71.7874 159.812 71.4923C159.807 71.1975 160.283 70.9583 160.456 71.2066C161.487 72.6831 163.917 73.1315 165.489 72.1353ZM185.031 99.4383C184.564 98.9702 184.875 98.2317 185.151 97.6495C185.991 95.8734 186.242 93.6926 185.072 92.0811C184.972 91.9436 184.849 91.8032 184.676 91.7594C184.536 91.7244 184.387 91.7586 184.247 91.7947C182.337 92.2858 180.52 93.0778 178.898 94.1263C178.658 94.2813 178.394 94.5459 178.537 94.7806C180.484 97.966 182.287 101.225 183.942 104.547C184.266 105.197 184.594 105.864 185.137 106.375C185.681 106.887 186.494 107.219 187.245 107.03C188.348 106.753 188.805 105.572 189.093 104.555C190.465 99.7252 191.837 94.8952 193.208 90.0655C193.747 88.1693 194.29 86.2616 195.184 84.4824C196.078 82.7034 197.353 81.0416 199.107 79.9254C200.464 79.0614 201.413 77.6732 201.669 76.1744C199.81 75.798 197.806 76.0592 196.135 76.8955C195.739 77.0941 195.344 77.3397 195.135 77.7077C194.945 78.0434 194.933 78.4367 194.891 78.8134C194.563 81.7103 192.271 84.0331 190.6 86.5087C188.496 89.625 187.306 93.177 186.191 96.6976C185.892 97.6419 185.59 98.6002 185.031 99.4383ZM154.437 110.612C153.739 105.527 153.036 100.424 151.591 95.4735C149.917 97.8353 148.235 100.21 146.997 102.788C145.758 105.366 144.972 108.18 145.183 110.991C145.215 111.407 145.296 111.87 145.658 112.123C145.88 112.278 146.169 112.322 146.446 112.354C148.974 112.649 151.585 112.315 153.929 111.398C154.117 111.325 154.316 111.236 154.405 111.068C154.478 110.929 154.459 110.765 154.437 110.612ZM135.866 190.133C134.876 189.578 134.606 188.035 133.448 187.976C132.269 187.915 131.487 186.774 131.317 185.701C131.147 184.628 131.375 183.525 131.185 182.454C131.172 182.384 131.153 182.306 131.089 182.266C130.991 182.204 130.859 182.267 130.761 182.328C128.841 183.532 126.92 184.736 125 185.94C127.279 186.707 128.438 188.964 129.551 190.945C130.634 192.874 131.883 194.725 133.282 196.474C133.534 196.789 133.902 197.138 134.31 197.03C135.669 196.673 137.158 196.751 138.465 197.246C138.41 196.298 137.451 195.472 136.418 195.48C136.144 195.483 136.141 195.045 136.389 194.936C136.636 194.826 136.926 194.932 137.182 195.023C137.438 195.114 137.753 195.184 137.965 195.024C137.95 194.747 137.935 194.471 137.92 194.195C137.149 194.16 136.395 193.861 135.84 193.368C136.223 192.675 137.749 193.955 138.107 193.251C137.639 192.644 136.861 192.249 136.053 192.208C135.889 191.907 136.419 191.666 136.767 191.771C137.116 191.875 137.454 192.123 137.806 192.029C138.409 191.868 138.193 190.963 137.643 190.685C137.093 190.407 136.402 190.434 135.866 190.133ZM170.779 196.078C170.684 195.651 170.03 195.438 169.662 195.713C169.45 195.872 169.35 196.139 169.119 196.275C168.889 196.412 168.464 196.211 168.611 195.999C169.054 195.862 169.29 195.375 169.206 194.953C169.122 194.53 168.782 194.182 168.387 193.954C167.758 194.392 166.939 194.592 166.156 194.499C165.423 194.411 164.84 195.01 164.215 195.374C163.131 196.006 161.608 195.921 160.615 195.172C159.815 194.569 159.37 193.614 158.497 193.103C157.827 194.91 157.39 196.791 157.196 198.692C157.175 198.907 157.267 199.22 157.497 199.17C161.364 198.331 165.384 199.353 169.236 200.252C169.863 200.398 170.7 200.461 170.991 199.929C171.495 199.005 172.405 198.274 173.469 197.937C173.451 197.553 172.83 197.471 172.472 197.669C172.114 197.866 171.849 198.213 171.448 198.32C171.185 198.242 171.271 197.862 171.482 197.698C171.694 197.534 171.991 197.425 172.071 197.181C172.194 196.8 171.694 196.515 171.285 196.381C171.095 196.908 170.467 197.269 169.868 197.196C170.172 196.823 170.476 196.451 170.779 196.078ZM145.425 112.915C145.534 114.129 145.974 115.295 146.41 116.446C147.438 119.161 148.467 121.876 149.496 124.591C150.108 122.322 151.664 120.386 152.941 118.363C154.219 116.341 155.266 113.993 154.712 111.711C151.815 112.885 148.563 113.306 145.425 112.915ZM139.3 203.387C139.639 203.432 140.106 203.372 140.142 203.06C137.037 201.797 134.726 199.324 132.755 196.785C131.036 194.571 129.489 192.245 128.13 189.831C127.523 188.754 126.907 187.609 125.811 186.933C124.715 186.257 122.974 186.295 122.307 187.341C122.195 187.517 122.32 187.736 122.443 187.906C125.098 191.582 127.766 195.274 131.002 198.534C133.257 200.806 135.987 202.949 139.3 203.387ZM194.243 76.8938C194.298 76.8916 194.354 76.8885 194.403 76.8665C194.542 76.8035 194.554 76.6295 194.546 76.4878C194.413 73.8883 194.279 71.289 194.145 68.6895C194.134 68.4726 193.855 68.5271 193.63 68.4605C193.405 68.3938 193.185 68.4204 192.949 68.4401C191.964 68.5231 190.979 68.6064 189.993 68.6895C189.707 68.7135 189.674 68.8179 189.664 69.082C189.572 71.4878 189.481 73.8939 189.389 76.3C189.383 76.4624 189.379 76.6338 189.465 76.7753C189.641 77.0624 190.075 77.0825 190.433 77.0664C191.703 77.0088 192.973 76.9515 194.243 76.8938ZM177.821 201.189C176.242 200.596 174.461 201.014 172.758 201.107C168.065 201.364 163.491 199.078 158.816 199.541C158.262 199.596 157.661 199.717 157.32 200.121C156.794 200.742 157.212 201.719 157.941 202.132C158.669 202.546 159.577 202.554 160.433 202.55C164.358 202.53 168.283 202.51 172.209 202.49C174.184 202.48 176.354 202.404 177.821 201.189ZM135.371 180.812C135.32 180.785 135.265 180.756 135.206 180.755C135.103 180.752 135.02 180.828 134.95 180.897C134.199 181.648 133.448 182.399 132.697 183.149C132.527 183.32 132.354 183.493 132.237 183.698C132.099 183.938 132.045 184.211 132.013 184.481C131.929 185.187 131.997 185.935 132.388 186.548C132.78 187.161 133.548 187.603 134.314 187.502C135.268 187.375 135.868 186.531 136.533 185.891C137.546 184.917 138.959 184.271 139.684 183.099C138.246 182.337 136.809 181.575 135.371 180.812ZM164.614 194.196C164.762 194.02 164.885 193.823 164.941 193.607C165.035 193.25 164.943 192.877 164.881 192.514C164.691 191.405 164.782 190.273 164.851 189.151C164.869 188.859 164.771 188.454 164.452 188.472C163.122 188.549 161.782 188.489 160.466 188.292C160.28 188.265 160.111 188.42 160.068 188.589C160.027 188.757 160.077 188.931 160.123 189.099C160.489 190.431 160.596 191.823 160.437 193.19C160.411 193.414 160.378 193.642 160.427 193.863C160.509 194.23 160.808 194.528 161.149 194.732C162.228 195.376 163.825 195.129 164.614 194.196ZM201.31 75.4616C201.623 75.513 201.995 75.5684 202.217 75.3597C201.285 74.9136 200.594 74.0636 200.393 73.116C200.192 72.168 200.485 71.1422 201.167 70.4074C201.229 70.3402 201.297 70.2696 201.309 70.1824C201.321 70.0951 201.241 69.9932 201.148 70.0124C199.832 70.2843 198.481 70.4139 197.133 70.3984C196.932 70.3961 196.717 70.3944 196.551 70.4981C196.254 70.6836 196.274 71.0851 196.328 71.4116C196.554 72.7797 196.473 73.8657 196.699 75.2338C196.707 75.2829 196.716 75.3329 196.74 75.3772C196.856 75.5876 197.194 75.5283 197.436 75.4495C198.573 75.079 200.123 75.2674 201.31 75.4616ZM140.85 201.916C140.715 200.672 140.233 199.461 139.464 198.43C139.365 198.298 139.26 198.167 139.126 198.065C138.962 197.94 138.762 197.864 138.563 197.798C137.438 197.423 136.215 197.301 135.029 197.445C134.79 197.474 134.489 197.581 134.503 197.802C134.508 197.888 134.564 197.963 134.619 198.033C136.047 199.846 137.923 201.358 140.065 202.424C140.245 202.514 140.464 202.601 140.645 202.513C140.858 202.409 140.874 202.137 140.85 201.916ZM96.0089 201.353C97.2006 201.646 98.5727 200.872 98.8275 199.764C99.0822 198.655 98.1677 197.438 96.9486 197.264C96.4652 197.195 95.9579 197.273 95.5261 197.485C94.7551 197.862 94.264 198.676 94.3246 199.476C94.3897 200.339 95.099 201.13 96.0089 201.353ZM179.308 199.615C179.282 199.428 179.24 199.237 179.126 199.081C178.797 198.632 178.086 198.665 177.498 198.69C176.509 198.732 175.511 198.605 174.571 198.318C174.015 198.148 173.423 198.438 172.944 198.749C172.341 199.14 171.755 199.611 171.493 200.246C172.109 200.505 172.822 200.416 173.496 200.349C174.596 200.239 175.705 200.2 176.812 200.233C177.345 200.248 177.891 200.284 178.381 200.477C178.499 200.523 178.617 200.579 178.745 200.585C178.973 200.593 179.176 200.429 179.262 200.235C179.348 200.041 179.337 199.823 179.308 199.615ZM203.383 74.909C203.814 74.8 204.038 74.368 204.154 73.9718C204.442 72.9928 204.397 71.897 203.832 71.0253C203.525 70.5509 202.957 70.1256 202.373 70.2572C201.999 70.3414 201.717 70.6415 201.581 70.9725C201.445 71.3034 201.431 71.6648 201.426 72.0187C201.42 72.5653 201.434 73.1225 201.621 73.6417C201.808 74.1607 202.193 74.6445 202.745 74.8506C202.946 74.926 203.173 74.9621 203.383 74.909ZM138.364 188.804C138.367 188.681 138.368 188.553 138.309 188.442C138.194 188.225 137.9 188.156 137.643 188.11C137.101 188.014 136.559 187.918 136.017 187.821C135.623 187.752 135.077 187.766 134.986 188.124C134.938 188.316 135.064 188.507 135.196 188.662C135.784 189.355 136.609 189.876 137.525 190.131C137.787 190.204 138.131 190.23 138.276 190.016C138.34 189.922 138.344 189.805 138.346 189.695C138.352 189.398 138.358 189.101 138.364 188.804ZM167.854 193.706C167.938 193.669 168.023 193.627 168.078 193.559C168.208 193.399 168.123 193.173 168.023 192.996C167.78 192.568 167.466 192.175 167.097 191.831C167.044 191.781 166.981 191.73 166.905 191.731C166.813 191.732 166.746 191.809 166.695 191.879C166.31 192.413 166.005 192.995 165.793 193.605C165.727 193.795 165.692 194.046 165.875 194.153C166.559 194.131 167.238 193.978 167.854 193.706Z" fill="black"/>
<path d="M97.0627 65.9185C97.4841 65.3163 97.8774 64.7329 98.2903 64.1719C98.3666 64.0681 98.5209 64.0549 98.6393 64C98.5976 64.1366 98.5785 64.2944 98.5108 64.406C98.1893 64.937 97.8367 65.4402 97.5372 65.9897C97.4642 66.1234 97.4856 66.4802 97.5747 66.586C97.8356 66.8962 98.1452 67.1467 98.4519 67.3874C98.5455 67.4609 98.7329 67.4986 98.8066 67.4308C99.0843 67.1753 99.3384 66.8771 99.584 66.5721C99.6107 66.5389 99.5483 66.324 99.4853 66.2552C99.2393 65.9873 98.9671 65.7573 98.7247 65.4851C98.644 65.3946 98.623 65.2193 98.5749 65.0827C98.6914 65.0913 98.8346 65.0486 98.9197 65.1183C99.18 65.3315 99.4224 65.5808 99.6635 65.8287C100.122 66.3006 100.11 66.6867 99.6365 67.1705C99.4445 67.3664 99.249 67.5598 99.0734 67.778C98.8479 68.0584 98.6275 68.0651 98.3754 67.8437C98.0362 67.5462 97.6774 67.2825 97.3505 66.9654C97.0965 66.7187 96.8922 66.4059 97.0627 65.9185Z" fill="#FFB61D"/>
<path d="M222.235 135.962C221.817 135.873 221.147 134.925 221.062 134.295C220.88 132.952 221.096 131.851 221.742 131.362C222.106 131.087 222.543 131.034 222.951 131C223.079 130.99 223.219 131.364 223.354 131.562C223.174 131.644 222.976 131.849 222.82 131.781C222.449 131.618 222.152 131.704 221.852 132.103C221.412 132.689 221.42 133.81 221.608 134.434C221.868 135.298 222.353 135.24 222.798 135.161C223.148 135.099 223.65 134.245 223.586 133.421C223.566 133.172 223.714 132.886 223.785 132.617C223.86 132.881 223.993 133.141 223.999 133.409C224.036 135.043 223.228 136.231 222.235 135.962Z" fill="#FFB61D"/>
<path d="M170.85 124.263C170.526 115.727 173.95 134.051 173.989 134.618C174.031 135.242 173.947 135.777 173.866 136.289V136.289C173.804 136.678 173.745 137.054 173.745 137.445V143.701C173.745 146.26 173.741 148.806 173.604 151.359C173.576 151.884 173.518 152.408 173.46 152.931V152.931C173.379 153.663 173.298 154.394 173.298 155.13C173.298 156.173 173.212 157.216 173.001 158.244C172.564 160.363 172.554 162.427 172.554 164.573C172.554 165.363 172.517 166.149 172.48 166.935C172.442 167.722 172.405 168.509 172.405 169.301L172.399 178.885C172.375 179.092 172.363 179.305 172.35 179.521C172.32 180.038 172.29 180.562 172.1 181.005C172.095 181.168 172.079 181.329 172.063 181.489C172.044 181.675 172.025 181.862 172.025 182.051C172.025 182.115 172.027 182.181 172.03 182.248C172.038 182.445 172.046 182.647 171.987 182.83C171.931 183.006 171.886 183.174 171.842 183.339C171.718 183.802 171.603 184.23 171.272 184.677C171.206 184.766 171.142 184.854 171.079 184.94C170.658 185.521 170.295 186.021 169.615 186.395C168.089 187.233 166.37 186.868 164.27 186.954C149.736 187.55 170.101 182.476 167.995 162.326C172.35 156.868 171.008 128.434 170.85 124.263Z" fill="#E7EAEE"/>
</g>
<defs>
<filter id="filter0_d_594_367" x="0" y="0" width="314" height="308" filterUnits="userSpaceOnUse" color-interpolation-filters="sRGB">
<feFlood flood-opacity="0" result="BackgroundImageFix"/>
<feColorMatrix in="SourceAlpha" type="matrix" values="0 0 0 0 0 0 0 0 0 0 0 0 0 0 0 0 0 0 127 0" result="hardAlpha"/>
<feOffset dx="10" dy="4"/>
<feGaussianBlur stdDeviation="2"/>
<feComposite in2="hardAlpha" operator="out"/>
<feColorMatrix type="matrix" values="0 0 0 0 0 0 0 0 0 0 0 0 0 0 0 0 0 0 0.25 0"/>
<feBlend mode="normal" in2="BackgroundImageFix" result="effect1_dropShadow_594_367"/>
<feBlend mode="normal" in="SourceGraphic" in2="effect1_dropShadow_594_367" result="shape"/>
</filter>
<linearGradient id="paint0_linear_594_367" x1="171" y1="15" x2="171" y2="212" gradientUnits="userSpaceOnUse">
<stop stop-color="#F6E4ED"/>
<stop offset="1" stop-color="#FFF9F8"/>
</linearGradient>
</defs>
</svg>
